<svg version="1.2" xmlns="http://www.w3.org/2000/svg" viewBox="0 0 1118 1500" width="1118" height="1500">
	<title>engelsy-svg</title>
	<style>
		.s0 { fill: #000000 } 
		.s1 { fill: #7f7f7f } 
		.s2 { fill: #ffffff } 
	</style>
	<g id="Background">
		<path id="Path 0" class="s0" d="m638.5 0.1c24-0.1 31.9 0.2 35 1.3 2.2 0.8 40.9 11.4 168 45.8l190.2 114.3 49.3 110-4.9 216 41.9 181.5v60.5l-117.1 117 11.2 66-33.3 159 13.7 50.7 22.6 16.1c12.5 8.9 22.6 16.3 22.5 16.4 0 0.1-10.7-0.9-23.6-2.2-12.9-1.4-24.3-2.5-25.2-2.5-1.1 0-5.2 4.4-10.4 11.3-4.8 6.1-9 11.7-9.5 12.2-0.4 0.5 0.9 21.3 6.8 91l-30.2 82.5c-16.7 45.4-31.1 84.6-32.2 87.2-1.8 4.7-2.7 5.4-90.8 65.8h-27.5l-43.7-21.9c-24.1-12-58.2-28.2-75.8-35.9-22.8-10-35-14.8-42.5-16.6-5.8-1.5-11.4-3-12.5-3.5-1.1-0.4-16.9-11.8-35-25.1-18.1-13.4-37.3-27.5-42.5-31.4-5.2-3.9-44.1-32.5-163.1-120.1l-33.4-33.5c-32.4-32.5-34.1-34.4-56.7-63.5-12.9-16.5-25.7-33-33.8-43.5v-56l-7.9-19.8c-5.8-14.5-10.8-24.9-19-39.2-6.1-10.7-11.1-20.3-11.1-21.3 0-0.9 2.9-12.2 6.6-25 3.6-12.7 6.8-23.5 7.2-23.9 0.4-0.4 5.6-0.3 11.7 0.2 6.1 0.5 15.2 1.1 29.5 2l5.5-11c3.8-7.6 5.9-10.8 6.8-10.3 0.6 0.4 10.1 7.8 21 16.5 17.4 13.9 19.6 16.1 19 18-0.3 1.3-2.1 5.7-4 9.8-1.8 4.1-3.2 7.6-3.1 7.6 0.2 0.1 11.6 3.6 25.3 7.9 13.8 4.2 29.5 9 35 10.7 5.5 1.6 10.5 3.5 11.2 4.1 0.7 0.7 5.3 11.1 10.3 23.2 4.9 12.1 9 22.5 9 23 0 0.5-16.7 7.9-37.2 16.4-20.5 8.4-41.3 17-46.1 19-4.8 2-8.7 3.8-8.7 4.1 0 0.3 11.8 4.7 52.5 19.1l13-2.5c7.1-1.4 26.3-5.2 42.5-8.6 16.2-3.4 31.8-6.6 34.5-7.1 4.8-1 5.5-1.6 21-18.6 8.8-9.7 24.9-27.6 35.7-39.7 10.8-12.2 20.7-23.2 21.8-24.6 1.2-1.4 2.4-3.1 2.8-3.8 0.4-0.8 1-1.3 1.5-1.3 0.4 0.1 5.1-4.7 10.4-10.6 5.3-6 10.3-11.5 11.1-12.3 1.3-1.3 1.4-0.6 0.9 5.5-0.4 3.9-0.9 11.3-1.9 26l44-44 1.5 5.5c0.9 3 2.5 9.3 3.8 14 1.2 4.7 2.4 9 2.8 9.6 0.4 0.7 12.8-9.4 30.1-24.2 16.2-14 29.8-25.4 30.3-25.4 0.4 0 0.4 0.8 0.1 1.8-0.3 0.9-4.5 12.8-9.2 26.4-4.8 13.6-8.5 24.8-8.2 24.8 0.3 0 6.4-2.9 26.5-13l10.5-19.2c5.8-10.6 12.6-23 19.8-36.3l-5.4-20c-3-11-5.6-20.1-5.9-20.3-0.3-0.1-5.8 3.9-12.3 8.8-6.4 5-11.8 8.9-12 8.8-0.2-0.2 0.9-8.2 2.4-17.8 1.4-9.6 2.7-17.6 2.8-17.6 0-0.1 11.2-1.4 24.8-3 13.6-1.6 24.9-2.7 25.2-2.4 0.3 0.3 7.1 23.9 15.1 52.5 8 28.6 14.8 52.8 15 53.8 0.5 1.5 1.7 1.7 12.8 1.2 6.7-0.3 21-1 31.7-1.5 10.7-0.6 19.6-1.1 19.7-1.3 0-0.1 0.7-8 1.5-17.5 0.7-9.4 1.5-17.2 1.8-17.2 0.3-0.1 16.5 16.3 35.9 36.2 19.5 20 44.1 45 54.5 55.7 10.5 10.6 19.2 18.9 19.3 18.5 0.2-0.5-4-33.3-18.5-144.9l77.8-185.5-10.7-15c-8.3-11.5-11.3-14.9-13-15-1.3 0-10.1 1.1-19.5 2.5-9.5 1.4-17.6 2.2-18 1.8-0.3-0.5-7.2-19.5-15.2-42.3-8.1-22.8-14.6-42.1-14.6-42.8 0-0.8 1.1-1 3.3-0.7 1.7 0.2 16.2 0.9 32.2 1.5 16 0.6 29.2 0.8 29.5 0.5 0.3-0.3-3-12.8-7.3-27.8-4.2-15-7.7-27.8-7.7-28.5 0-0.7 2-1.4 5.2-1.7 2.9-0.2 10.1-0.8 16-1.2 5.8-0.4 10.8-1 11.1-1.3 0.2-0.3 3.4-24.6 7.1-54 3.6-29.4 6.7-54.4 6.7-55.5 0-1.1-2.4-16.1-10.6-64.7l-21.3-27.1c-11.7-15-22.3-28.1-23.6-29.2-1.3-1.1-3.6-4-5.2-6.4-2-3-13.8-13-37.4-31.9-22.3-17.9-35.7-27.9-38-28.5-1.9-0.5-11.4-2.7-21-4.8-9.6-2.2-18.4-4-19.6-4.2-1.1-0.1-2.7-0.7-3.5-1.3-0.8-0.6-2.1-1.2-2.9-1.2-0.8 0-7.1-1.4-14-3.1-6.9-1.6-21.7-5.2-33-7.9-11.3-2.7-36.9-8.9-57-13.7-20.1-4.8-40.5-9.7-54.5-13.1l20.5-16.3c11.3-9 21-16.5 21.5-16.7 0.5-0.2 23.3 7 100 32.6l32-8.1c17.6-4.4 32.5-8.1 33-8.2 0.5-0.2-11.2-7-26-15.2-14.8-8.2-27.7-14.8-28.5-14.8-0.8 0.1-11 2.5-22.5 5.3-11.5 2.8-21.1 5-21.2 4.8-0.1-0.2-0.8-5.7-2.8-24.3l-52-19.5-11 0.5c-6 0.3-24.5 1.2-41 2-16.5 0.8-43.7 2.1-60.5 3-16.8 0.8-37.3 1.8-60.5 2.9l-2.8 4c-1.6 2.3-7.8 11.3-13.8 20.1-6 8.8-11.7 17-12.7 18.2-1.4 1.8-3.1 2.2-10.7 2.7-5 0.3-19.1 1.3-31.5 2.1-12.4 0.8-27.1 1.9-42.8 3l-1.1-7c-0.7-3.8-3.7-22.7-6.9-41.8-3.1-19.2-5.5-35-5.2-35.2 0.3-0.2 11.5-4.2 25-8.9 13.5-4.6 37.5-13 53.5-18.6 16-5.6 44.5-15.5 63.5-22.1 19-6.5 37.4-13 41-14.3 6.3-2.3 7.3-2.4 37.5-2.5z"/>
		<path id="Path 1" class="s1" d="m474.4 68c0.6 0.4 12.6 8.7 26.6 18.5 14 9.8 25.9 18 26.4 18.4 0.4 0.3-2 5.3-5.5 11-3.5 5.7-7.3 10.7-8.4 11.1-1.1 0.4-14.8 1.2-30.5 1.9-15.7 0.6-28.6 1-28.7 0.9-0.1-0.2-3.3-10.5-7-23-3.7-12.5-6.6-22.9-6.3-23.1 0.3-0.3 7.7-4.1 16.4-8.5 9.1-4.6 16.4-7.7 17-7.2z"/>
		<path id="Path 2" class="s1" d="m417.3 68c0.4 0 3.3 15.9 6.3 35.3 3.1 19.3 6.1 37.9 7.7 47.2l10.1-0.7c5.6-0.4 20.2-1.5 32.6-2.3 12.4-0.8 26.5-1.8 31.5-2.1 7.6-0.5 9.3-0.9 10.7-2.7 1-1.2 6.7-9.4 12.7-18.2 6-8.8 12.2-17.8 16.6-24.1l15-0.7c8.3-0.4 28.7-1.4 45.5-2.2 16.8-0.9 44-2.2 60.5-3 16.5-0.8 35-1.7 52-2.5l52 19.5 1.3 12c0.7 6.6 1.4 12.1 1.5 12.3 0.1 0.2 9.7-2 21.2-4.8 11.5-2.8 21.7-5.2 22.5-5.3 0.8 0 13.7 6.6 28.5 14.8 14.8 8.2 26.6 15 26 15.2-0.5 0.1-15.4 3.8-65 16.3l-49.5-16.5c-27.2-9.1-50-16.3-50.5-16.1-0.5 0.2-10.2 7.7-42 33l9 2.2c5 1.2 25.4 6.1 45.5 10.9 20.1 4.8 45.7 11 57 13.7 11.3 2.7 26.1 6.3 33 7.9 6.9 1.7 13.3 3 14.3 3 0.9-0.1 1.9 0.3 2.2 0.9 0.3 0.6-0.1 1-0.7 1-0.7 0-2.9-0.4-4.8-1-1.9-0.5-25.5-5.7-52.5-11.5-27-5.9-56.2-12.2-65-14-8.8-1.9-49.7-10.7-166-35.7l-24 2.1c-13.2 1.2-31.6 2.8-41 3.6-9.3 0.8-21 1.7-35 2.5l-16-17.5c-8.8-9.6-16.2-17.5-16.5-17.5-0.3 0-1.6 3.9-2.9 8.7-1.3 4.9-2.8 9.2-3.3 9.8-0.5 0.6-0.7 0.2-0.4-1 0.2-1.1 1.1-11.4 3.9-44l7.6-14.2c4.2-7.8 8-14.3 8.4-14.3z"/>
		<path id="Path 3" class="s0" d="m365 89c0.3 0 5 1.1 10.5 2.4 5.5 1.3 13.5 3.2 17.8 4.1 7.7 1.7 7.7 1.7 7.7 4.8 0 1.8-0.7 10-1.5 18.2-0.8 8.3-1.6 17.3-1.8 20-0.1 2.8-3.6 16.4-15.2 55.7l-8 3.8c-4.4 2.1-21.5 10.2-38 18-16.5 7.8-33 15.6-36.8 17.4-3.7 1.7-6.6 3.2-6.5 3.4 0.2 0.1 5-0.7 10.8-1.8 5.8-1.1 10.6-1.9 10.8-1.8 0.2 0.2-0.2 4.6-2.1 19.3l-30.5 49.5c-16.8 27.2-31.2 50.6-32 52-0.8 1.4 1 0 3.9-3 3-3 12.7-13.1 21.4-22.3 8.8-9.2 16.3-16.4 16.7-16 0.4 0.4-0.4 11.6-1.8 24.8-1.4 13.2-2.4 24.9-2.2 26.1 0.3 2 1.2 1.8 15.5-4.2 8.4-3.5 15.6-6.2 16-6 0.5 0.3-3.4 19-8.5 41.8-5.1 22.7-9 41.4-8.7 41.6 0.3 0.1 4.3-2.5 9-5.8 4.7-3.3 8.7-5.9 9-5.8 0.2 0.2 3.5 15.4 14.1 67.3l-9.4 34c-5.2 18.7-9.5 34.8-9.6 35.8-0.1 0.9-0.4 1.7-0.9 1.7-0.4 0-0.5 0.5-0.2 1 0.3 0.5-0.8 5.2-2.5 10.3-1.6 5-9.8 36.4-18.1 69.7-8.4 33.3-16 61.4-16.8 62.4-0.9 1-14 16-29.1 33.3-15.1 17.2-27.9 31.3-28.5 31.3-0.6 0-11.4-2.9-24-6.4-12.6-3.5-33.8-9.4-47-13.1-13.2-3.7-38.2-11-55.5-16.2-17.3-5.2-37.1-11.1-56.2-16.8l-17.9-36.2c-9.8-20-17.9-37-17.9-37.8 0-0.8 14.3-22.3 31.7-47.7 17.4-25.5 34.7-50.8 45.4-66.3l35.8-107c19.7-58.9 36.5-108.4 37.2-110.1 0.8-1.7 13.3-20.3 27.9-41.3 22.5-32.5 26.5-37.8 26.8-35.4 0.1 1.5-0.8 11.2-2 21.5-1.3 10.4-2.1 18.8-1.8 18.8 0.3 0.1 9.6-12 40.8-53.5l16.4-7.4c8.9-4.1 21.9-10 28.8-13.2 6.9-3.1 20.4-9.2 30-13.6 9.6-4.4 18.3-8.4 19.3-8.9 1.6-0.7-0.2-2.1-22.3-14.4l-10.7 8.7c-6 4.8-14.6 12-19.3 16-4.7 4-8.8 6.9-9.2 6.5-0.4-0.4 10.7-12 50.3-50.7l-9.6-8.5c-5.3-4.7-9.3-8.8-8.8-9.1 0.4-0.4 11.2-8.1 23.8-17.1 12.6-9 25.3-18 28-20.1 2.8-2 5.2-3.6 5.5-3.7z"/>
		<path id="Path 4" class="s2" d="m684.9 95.4c0.3 0.2 4.7 5 18.9 21.1l-18.6 9.3c-10.3 5.1-18.8 9.1-18.9 9-0.2-0.2 3.8-9.2 8.9-20 5-10.8 9.3-19.5 9.7-19.4zm-49.6 16.6c0.6 0 4.2 1 8 2.3 3.7 1.2 6.7 2.4 6.7 2.7 0 0.3-5.9 4-13 8.2-7.2 4.3-13 7.6-13 7.3 0-0.3 2.2-5 5-10.5 2.8-5.5 5.6-10 6.3-10zm-231.3 11c0.3 0 7.7 7.9 32.5 35l9-0.5c5-0.3 16.7-1.2 26-2 9.4-0.8 27.8-2.4 65-5.7l75 16.2c41.3 8.8 82.2 17.6 91 19.5 8.8 1.8 38 8.2 65 14 27 5.9 56.2 12.1 65 14 8.8 1.8 21.4 4.5 28 6 6.6 1.5 12.5 3 13 3.3 0.5 0.3 16.5 13 69.7 55.7l26.8 43c14.8 23.6 27.1 43.7 27.4 44.5 0.4 0.8-6.1 20.4-14.4 43.5-8.2 23.1-15 42.4-15 43 0 0.5 4.2 14.5 9.4 31 5.2 16.5 9.4 30.1 9.3 30.1-0.1 0.1-8.1-1.1-17.7-2.7-9.6-1.5-22-3.5-27.5-4.4-5.5-0.9-28-4.5-50-8.1-22-3.5-40.9-6.4-42-6.4-1.1 0.1-16.7 9.8-34.7 21.8-30.9 20.6-32.6 21.9-33.2 25.2-0.3 1.9-0.6 10.4-0.6 18.7 0 13.6-0.3 16.2-5.1 31.8l2 12.5c1.9 11.6 2.1 15 0.8 81.5l33.3 66.5-3.7 1.5c-2.1 0.9-19.5 8.3-73.8 31.6l-55.5-11.1-15.7 6.6c-8.7 3.6-16.1 6.9-16.6 7.3-0.4 0.3 5.4 6.2 13 13.1 7.5 6.9 14.3 13 15.2 13.6 1.3 0.9-1.7 3.9-18.4 18.1-11 9.3-28.5 24.3-39 33.1-18.1 15.5-19.2 16.2-24 16.7-2.7 0.2-17.4 1-32.5 1.6-15.1 0.6-27.7 1.3-28 1.5-0.3 0.3 3.1 4 15.5 16.2l-3 0.5c-1.6 0.3-6.5 0.9-10.9 1.4-4.3 0.4-8.1 1.3-8.4 1.8-0.4 0.5-4.3 14.7-8.8 31.5-4.4 16.8-7.7 30.6-7.2 30.7 0.4 0.2 9.5-3.7 20.1-8.6 10.5-4.9 19.4-8.7 19.7-8.5 0.3 0.2-1.9 6.8-10.1 28.9l-15.7 10.2c-8.6 5.5-29 18.6-45.2 29-16.2 10.4-34.6 22.2-40.7 26.1-6.2 4-11.3 6.9-11.3 6.4 0-0.4 4.1-5.9 18.5-23.9l-8.1-69.8-27.9-8c-15.4-4.5-28.7-8.3-29.5-8.6-0.9-0.4-5-11.4-20.5-58.4l-18.5-7.8c-10.2-4.3-25.2-10.6-33.3-14-11.3-4.7-14.9-6.7-15.2-8.2-0.2-1.1-3.3-34.4-13.6-146l15.7-62c15.5-61.7 15.7-62.3 33.1-113 9.6-28 18.2-53 20.5-60l-22.3-84 28.5-96c15.6-52.8 31.3-105.7 34.9-117.5 3.5-11.8 8.1-27.7 10.2-35.3 2.2-7.5 4.1-13.7 4.5-13.7z"/>
		<path id="Path 5" class="s1" d="m306.2 131c0.4 0 5.1 3.7 19.9 16.5l-25.5 25c-14.1 13.8-25.2 25.3-24.8 25.7 0.4 0.4 4.5-2.5 9.2-6.5 4.7-4 13.3-11.2 30-24.7l12.1 6.8c10 5.5 11.7 6.9 10.2 7.6-1 0.5-9.7 4.5-19.3 8.9-9.6 4.4-23.1 10.5-30 13.6-6.9 3.2-19.9 9.1-45.2 20.6l-20.1 26.8c-11.1 14.7-20.4 26.8-20.7 26.7-0.3 0 0.7-10.3 2.3-22.8 2.1-17.3 3.1-23.2 4.5-24.7 0.9-1.1 19-19.7 40.2-41.5 21.2-21.7 42.6-43.7 47.5-48.8 4.8-5 9.2-9.2 9.7-9.2zm75.4 64c0.2 0.3-12.2 43.2-55.8 190.5l22.4 84-12.7 37c-6.9 20.4-14 41-15.7 46-1.7 5-3.5 9.5-4.1 10-0.6 0.6-0.6 0.1-0.1-1.5 0.4-1.4 4.9-17.4 19-68.5l-6.8-33.5c-3.8-18.4-7.1-33.6-7.3-33.8-0.3-0.1-4.3 2.5-9 5.8-4.7 3.3-8.7 5.9-9 5.7-0.3-0.1 3.6-18.8 8.7-41.5 5.1-22.8 9-41.5 8.5-41.8-0.4-0.2-7.6 2.5-16 6-14.4 6-15.2 6.2-15.5 4.2-0.2-1.2 0.8-12.9 2.2-26.1 1.4-13.2 2.2-24.4 1.8-24.8-0.4-0.4-7.9 6.8-16.7 16-8.7 9.2-18.4 19.3-21.4 22.3-2.9 3-4.7 4.4-3.9 3 0.8-1.4 15.2-24.8 62.5-101.5l1.2-9.5c0.7-5.2 1.1-9.6 0.9-9.8-0.2-0.1-5 0.7-10.8 1.8-5.8 1.1-10.6 1.9-10.8 1.8-0.1-0.2 2.6-1.6 6-3.2 3.5-1.6 20.9-9.8 38.8-18.2 17.9-8.5 34.9-16.6 37.8-18.1 2.9-1.6 5.5-2.6 5.8-2.3zm568.4 93c0.5 0 11 12.8 45.5 56.8l5.3 31.4c2.9 17.2 5.3 32.2 5.3 33.3 0 1.1-3.1 26.1-6.7 55.5-3.7 29.4-6.9 53.7-7.1 54-0.3 0.3-5.3 0.9-11.1 1.3-5.9 0.4-13.1 1-16 1.2-3.2 0.3-5.2 1-5.2 1.7 0 0.7 3.5 13.5 7.7 28.5 4.3 15 7.6 27.5 7.3 27.8-0.3 0.3-13.5 0.1-29.5-0.5-16-0.6-30.5-1.3-32.3-1.5-2.1-0.3-3.2-0.1-3.2 0.7 0 0.7 6.5 20 14.6 42.8 8 22.8 14.9 41.8 15.2 42.3 0.4 0.4 8.5-0.4 17.9-1.8 9.5-1.4 18.3-2.5 19.5-2.5 1.8 0.1 4.8 3.5 23.8 30l-77.8 185.5 9.4 72c5.1 39.6 9.3 72.4 9.1 72.9-0.1 0.4-8.8-7.9-19.3-18.5-10.4-10.7-35-35.7-54.5-55.7-19.4-19.9-35.6-36.3-35.9-36.2-0.3 0-1.1 7.8-1.8 17.2-0.8 9.5-1.5 17.4-1.5 17.5-0.1 0.2-9 0.7-19.7 1.3-10.7 0.5-25 1.2-31.8 1.5-11 0.5-12.2 0.3-12.7-1.2-0.2-1-7-25.2-15-53.8-8-28.6-14.8-52.2-15.1-52.5-0.3-0.3-11.6 0.8-25.2 2.4-13.6 1.6-24.8 2.9-24.8 3-0.1 0-1.4 8-2.8 17.6-1.5 9.6-2.6 17.6-2.4 17.8 0.2 0.1 5.6-3.8 12-8.8 6.5-4.9 12-8.9 12.3-8.7 0.3 0.1 2.9 9.2 11.3 40.2l-4.7 8.5c-2.5 4.7-9.3 17.2-25.6 47l-13 6.5c-7.2 3.6-13.2 6.5-13.5 6.5-0.3 0 3.4-11.2 8.2-24.8 4.7-13.6 8.9-25.5 9.2-26.5 0.3-0.9 0.3-1.7-0.2-1.7-0.4 0-14 11.4-30.2 25.4-17.3 14.8-29.8 24.9-30.1 24.2-0.4-0.6-1.6-4.9-2.8-9.6-1.3-4.7-2.9-11-5.3-19.5l-44 44 0.6-9.5c0.4-5.2 0.9-12.6 1.3-16.5 0.5-6.1 0.4-6.8-0.9-5.5-0.8 0.8-5.9 6.4-11.4 12.5-5.4 6-10.1 10.8-10.4 10.6-0.3-0.1-0.4-0.8-0.2-1.4 0.2-0.7 2.1-6.2 4.3-12.2 2.2-6 3.8-11.3 3.7-11.6-0.2-0.4-9 3.3-19.6 8.2-10.5 4.9-19.6 8.8-20 8.7-0.5-0.2 2.8-14 7.2-30.8 4.5-16.8 8.4-31 8.7-31.5 0.4-0.5 4.2-1.4 8.5-1.8 4.4-0.5 9.3-1.1 13.9-1.9l-8-7.9c-4.4-4.3-7.8-8-7.5-8.3 0.3-0.2 12.9-0.9 28-1.5 15.1-0.6 29.7-1.4 32.5-1.6 4.8-0.5 5.9-1.2 24-16.7 10.5-8.8 28-23.8 39-33.1 16.7-14.2 19.7-17.2 18.4-18.1-0.9-0.6-7.7-6.7-15.3-13.6-7.5-6.9-13.3-12.8-12.9-13.1 0.4-0.4 7.3-3.4 15.3-6.8 8-3.3 14.8-6.1 15.2-6.1 0.5 0-2.8 5.4-7.2 12-4.4 6.6-7.9 12.2-7.8 12.4 0.2 0.2 11.8-0.9 25.9-2.3 14.1-1.4 26-2.9 26.3-3.3 0.3-0.5-6.8-4.7-15.9-9.5-9-4.9-16.3-8.9-16.2-9.1 0.1-0.2 11.9 2 52.2 9.9l27-11.6c14.9-6.3 27.4-11.4 27.8-11.3 0.5 0.2-13.6 15.4-31.3 33.8-17.6 18.4-31.7 33.8-31.3 34.1 0.4 0.4 8.2 4.1 17.3 8.4 9.1 4.2 17 8.2 17.6 8.8 0.7 0.7 5.3 12 10.4 25.2 5.1 13.2 9.3 24.1 9.4 24.2 0.1 0.1 7.1-1 31.1-5.3l5.7-56c3.1-30.7 5.6-55.9 5.5-56-0.1 0-6.8-4.3-14.9-9.5-8.1-5.1-14.8-9.6-14.8-9.9 0-0.3 2.4-1.5 5.3-2.7 2.9-1.3 6.9-2.9 12.7-5.3l-33-66 0.1-21.7c0.1-12 0.4-26.5 1.4-42.8l1.4 9c0.8 5 1.7 10 2 11.3 0.6 2.2 1 2 6.5-4 3.3-3.4 9.2-9.8 20.6-21.8l-1.9 4.8c-1 2.6-5.1 13-16.4 41.7l36.1 84 3.7 51.5c2 28.3 4.3 63 5.3 77.1 0.9 14.2 1.9 26 2.2 26.3 0.3 0.4 6.8-0.5 14.5-2 7.7-1.5 14.8-2.4 15.7-2 1 0.3 4.2 3.7 7 7.5 2.9 3.8 11.6 14.9 19.3 24.6 7.7 9.8 14.3 17.9 14.7 18.1 0.5 0.2 0.3-0.6-0.2-1.8-0.5-1.3-9.1-23.2-19-48.8-9.8-25.6-17.8-46.6-17.7-46.7 0.1-0.2 4.1 2 8.9 4.7 4.9 2.8 9 4.9 9.3 4.8 0.2-0.2 8.3-26.8 18-59.3 9.7-32.5 17.7-59.7 18-60.5 0.2-0.8 7.7-4.6 17-8.5 9.1-3.9 16.5-7.2 16.5-7.5-0.1-0.3-4.8-4-10.6-8.3-5.7-4.2-10.7-7.7-11.2-7.7-0.4 0-5.3 4-11 9-5.6 5-10.7 8.9-11.2 8.7-0.5-0.1-3.9-4.9-14-21.2l22.1-22-10.6-41.5c-5.8-22.8-10.8-42.2-11-43-0.5-1.3-1.5-1.3-7.3-0.4-3.7 0.7-6.8 1-7 0.8-0.1-0.2 2.3-4.2 5.3-8.9 3-4.7 5.3-8.8 5-9.3-0.3-0.4-11.3 3-48.5 15.8v-2.8c0-1.5 0.5-8.8 2.2-29.7l24.2-13.9c13.2-7.7 29.5-17.1 36.1-20.9 11.6-6.8 11.9-7.1 9.5-8.2-1.4-0.7-13.9-5.8-27.8-11.4-21.8-8.7-25.5-9.9-27.5-9-1.2 0.7-18.4 10.6-38.2 22.2-19.8 11.5-37.1 21.8-38.5 22.7-1.9 1.4-3.4 4.5-6 12.9-1.9 6.1-3.8 11.1-4.3 11.1-0.4 0-0.7-5.5-0.7-12.3 0-6.7 0.3-13.8 0.6-15.7 0.6-3.3 2.3-4.6 33.2-25.2 18-12 33.6-21.7 34.7-21.8 1.1 0 20 2.9 42 6.4 22 3.6 44.5 7.2 50 8.1 5.5 0.9 17.9 2.9 27.5 4.4 9.6 1.6 17.6 2.8 17.7 2.7 0.1 0-4.1-13.6-9.3-30.1-5.2-16.5-9.4-30.4-9.4-31 0-0.6 6.8-19.9 15-43 8.3-23.1 14.8-42.7 14.4-43.5-0.3-0.8-9.7-16.1-20.8-34-11.2-17.9-22-35.1-24-38.3-2-3.1-3.2-5.7-2.6-5.7z"/>
		<path id="Path 6" class="s1" d="m545.4 469.8c2.8 0.1 22.6 1.4 44.1 2.8 21.5 1.3 39.1 2.5 39.3 2.7 0.1 0.1 1.4 11.4 3 25 1.7 15.3 2.3 24.6 1.7 24.5-0.6-0.2-15.3-5.7-32.8-12.3-17.5-6.6-31.7-12.2-31.7-12.5 0-0.3 6.4-2.9 14.2-5.9 7.9-3 15.4-6 16.8-6.7 1.9-0.9 2.1-1.4 1-1.8-0.8-0.3-12.3-2.8-25.5-5.5-13.2-2.7-24.1-4.9-24.1-4.8-0.1 0.1 1.1 4.4 2.7 9.5 1.6 5 2.7 9.2 2.4 9.2-0.3 0-3.8-5.1-7.8-11.2-4.1-6.2-7.6-11.7-7.9-12.3-0.4-0.6 1.3-0.9 4.6-0.7z"/>
		<path id="Path 7" class="s0" d="m553.3 475.5c1.2 0.3 12.1 2.6 24.2 5 12.1 2.5 22.7 4.8 23.5 5 0.8 0.3 1.3 0.7 1 1-0.3 0.2-8 3.4-34 13.5l-11.1-5.5-2.5-8.5c-1.4-4.7-2.7-9.1-2.9-9.8q-0.3-1.2 1.8-0.7zm317.5 21.5c0.1 0 11.6 4.5 25.5 10.1 13.8 5.6 26.3 10.7 27.7 11.4 2.4 1.1 2.1 1.4-9.5 8.2-6.6 3.8-22.9 13.2-60.3 34.8l-1.1 13.5c-0.6 7.4-1.1 14.7-1.1 19l24-8.2c13.2-4.6 24.2-8 24.5-7.5 0.3 0.4-2 4.6-5.1 9.5-3.1 4.8-5.7 8.8-5.8 8.9-0.1 0.1-7.8 1.6-34.1 6.5l-29-5.5-8.1 8.4c-4.4 4.6-11.7 12.2-16 16.9-4.4 4.7-10.2 10.9-12.9 13.8-4.7 5.1-5 5.2-5.6 3-0.3-1.3-1.3-7.5-2.2-13.8-0.9-6.3-2.5-17.4-5.4-37.5l2.4-7c1.3-3.9 2.3-8.7 2.3-10.7 0-2.1 0.3-3.8 0.8-3.8 0.4 0 2.2-4.8 4.1-10.7 1.9-5.9 3.9-11.3 4.5-12 0.6-0.7 18.9-11.6 40.6-24.3 21.7-12.6 39.6-23 39.8-23z"/>
		<path id="Path 8" class="s1" d="m570.6 524.6c4.3 1.3 22.3 6.6 39.9 11.8 17.6 5.2 35.3 10.4 46.5 13.6l-14.1 20.7c-7.7 11.5-14.6 20.6-15.2 20.5-0.7-0.2-8.8-4.4-18.2-9.4-9.4-5-20.7-11-33.5-17.8l-12.8 10c-7.1 5.6-13.6 9.9-14.7 9.9-1.6-0.1-1.5-0.2 0.5-0.8 2.3-0.6 3-2.3 7.2-17.1 2.6-9.1 4.9-17.9 5.1-19.5 0.4-2.8 0.8-3.1 5.8-3.9 3-0.4 5.5-0.9 5.7-1 0.1 0-2-4-4.8-8.9-2.7-4.8-5.1-9.1-5.2-9.6-0.1-0.5 3.4 0.2 7.8 1.5z"/>
		<path id="Path 9" class="s2" d="m912.3 531.1c0.4-0.1 10.9 6.2 23.5 13.9 12.5 7.6 23.4 14.3 24.2 14.9 1.1 0.7 0.2 1-3.5 1.1-2.7 0.1-21.7 0.7-42 1.4-20.3 0.7-37.1 1.2-37.3 1.2-0.1-0.1 7.5-7.4 17-16.3 9.5-8.9 17.6-16.2 18.1-16.2z"/>
		<path id="Path 10" class="s1" d="m475.5 536.5c0.2 0.1-0.8 4.9-2.1 10.6-1.4 5.7-2.3 10.5-2.2 10.6 0.2 0.2 9.1-1.1 19.8-2.7 10.7-1.7 20-2.9 20.5-2.7 0.5 0.2-6.1 2.8-14.9 5.8-8.7 2.9-16 5.6-16.2 5.9-0.1 0.3 8.6 5.2 39 21.5l-41 0.2c-22.5 0.2-41 0.2-41.1 0-0.2-0.1 0.4-5.2 1.2-11.2 1.1-8.1 2-11.3 3.3-12.2 0.9-0.7 8.9-6.8 17.6-13.6 8.8-6.8 16-12.3 16.1-12.2z"/>
		<path id="Path 11" class="s0" d="m542.5 542c0.5 0 4.8 0.5 9.5 1.1 4.7 0.7 8.8 1.5 9.2 1.8 0.4 0.3-1.6 8.9-4.5 19-5.1 18.1-5.3 18.5-8.2 19.2-1.6 0.4-8.7 1.2-28.5 2.9l-20-10.8c-11-5.9-19.6-11-19.2-11.4 0.4-0.4 7.2-3 15.2-5.7 8-2.8 21.5-7.5 30-10.5 8.5-3 16-5.5 16.5-5.6z"/>
		<path id="Path 12" class="s2" d="m901.8 595.1c1.7-0.1 2.4 0.7 3.2 3.6 0.5 2.1 5.5 21.3 21 81.8l-22.2 22 14.2 22.5 11-9.5c6.7-5.8 11.5-9.2 12.3-8.8 0.6 0.4 5.7 4 21.2 15.6l-14.5 5.8c-8 3.3-15.6 6.5-16.9 7.1-2.1 1.2-4.4 8.1-20.1 60.8-9.7 32.7-17.8 60.1-18.1 60.7q-0.4 1.3-9.1-3.7c-4.9-2.8-9-4.9-9.3-4.8-0.3 0.2 7.8 21.9 17.9 48.3 10.2 26.4 18.4 48.1 18.3 48.3-0.1 0.1-2.7-3-5.9-7-3.1-4-12-15.4-19.8-25.3-12.8-16.3-14.4-18-16.8-17.6-1.5 0.2-8.3 1.4-15.2 2.6-6.9 1.3-12.6 2.3-12.7 2.2-0.1-0.1-2.7-35.1-11.2-155.2l-36.1-83.5 19.5-49.8 15-2.7c8.3-1.4 18.6-3.3 23-4.1 4.4-0.9 17.2-3.3 28.5-5.4 11.3-2.1 21.5-3.9 22.8-3.9z"/>
		<path id="Path 13" class="s1" d="m827 598.1c0.8-0.1 6 0.8 11.5 1.9 5.5 1.1 11.1 2.2 12.5 2.5 1.4 0.3 2.3 0.7 2 0.9-0.3 0.2-8.6 1.8-18.5 3.6-9.9 1.7-18.7 3.4-19.5 3.6-0.8 0.3 1.2-2.4 4.5-5.9 3.3-3.6 6.7-6.5 7.5-6.6zm-548.8 107.9c0.5 0 1.1 1.9 1.3 4.2 0.2 2.4 3.2 34.4 6.5 71.3 3.4 36.8 6.3 67.9 6.5 69 0.3 1.5 3.9 3.5 15.2 8.2 8.1 3.4 23.1 9.7 51.8 21.8l9.5 28.9c6 18.1 10.1 29.1 11 29.5 0.8 0.3 14.1 4.1 57.4 16.6l8.1 69.8-9.3 11.6c-5.1 6.4-9.2 11.9-9.2 12.3 0 0.5 5.7-2.9 12.7-7.3 7.1-4.5 24.7-15.8 39.3-25.2 14.6-9.3 33.4-21.4 41.7-26.8 8.4-5.5 15.3-9.4 15.3-8.9 0 0.5-8.9 10.8-19.8 22.8-10.8 12-26.9 29.8-35.7 39.5-15.5 17-16.2 17.6-21 18.6-2.8 0.5-18.3 3.7-34.5 7.1-16.2 3.4-35.4 7.2-55.5 11.1l-26.2-9.3c-14.5-5.1-26.3-9.5-26.3-9.8 0-0.3 3.9-2.1 8.7-4.1 4.8-2 25.6-10.6 46.1-19 20.5-8.5 37.2-15.9 37.2-16.4 0-0.5-4.1-10.9-9-23-5-12.1-9.6-22.5-10.3-23.2-0.7-0.6-5.7-2.5-11.2-4.1-5.5-1.7-21.3-6.5-35-10.7-13.8-4.3-25.1-7.8-25.3-7.9-0.1 0 1.3-3.5 3.1-7.6 1.9-4.1 3.7-8.5 4-9.8 0.6-1.9-1.6-4.1-19.1-18-10.8-8.7-20.3-16.1-21-16.5-0.8-0.5-2.9 2.7-12.2 21.3l-9.3-0.6c-5-0.3-14.2-0.9-20.2-1.4-6.1-0.5-11.3-0.6-11.7-0.2-0.4 0.4-3.6 11.2-7.2 23.9-3.7 12.8-6.6 24.1-6.6 25 0 1 3.9 8.5 8.6 16.8 4.7 8.2 9.5 16.8 12.7 23l-3.4-2.1c-1.9-1.1-10.6-6.1-35.4-20.3l-11.9-39.8c-6.5-21.9-12-40.6-12.2-41.6-0.4-1.6 1.2-1.7 22.1-1.7 20.8 0 22.5-0.1 22.5-1.8 0-0.9 1.1-12.7 2.5-26.2 1.3-13.5 2.5-25.9 2.5-30.5l-12-1.5c-6.6-0.8-12-1.2-12-0.8 0 0.5-0.8 0.4-1.8-0.2-0.9-0.5-3.8-1.4-6.5-2-3.6-0.8-4.7-0.7-4.7 0.2 0 0.7-0.3 0.9-0.7 0.4-0.5-0.4-1.5-3.6-2.3-7-1.5-6.1-1.5-6.2 0.5-5.9 1.1 0.3 11.4 1 23 1.7 11.5 0.7 21.3 1 21.7 0.7 0.5-0.3 4.4-8.9 8.8-19.1 4.4-10.2 7.7-18.8 7.2-19.2-0.4-0.4-17.8-6.8-76.7-27.9l-9.7 9.8c-6.5 6.6-10.1 9.6-11 9.1-0.7-0.4-6.1-2.3-12.1-4.3-5.9-1.9-11.2-3.3-11.7-3-0.6 0.3-1 0.2-1-0.3 0-0.4-1.1-7.2-2.4-15.2-1.3-8-2.3-14.6-2.2-14.8 0-0.2 11.8 2.9 26.1 6.8 14.3 4 36.3 10.1 49 13.6 12.6 3.5 23.4 6.4 24 6.4 0.5 0 13.2-13.8 28.1-30.7 14.9-17 27.7-31.8 28.4-33.1 0.8-1.2 1.8-2.2 2.2-2.2z"/>
		<path id="Path 14" class="s0" d="m793 758.1c0.3 0 7.3 4.3 15.5 9.6 8.3 5.3 15.1 9.7 15.2 9.7 0.1 0.1-2.4 25.3-11.2 112l-15.5 2.8c-8.5 1.5-15.5 2.6-15.6 2.5-0.1-0.1-4.3-11-9.4-24.2-5.1-13.2-9.7-24.5-10.4-25.2-0.6-0.6-8.5-4.6-17.6-8.8-9.1-4.3-16.9-8-17.3-8.4-0.4-0.3 13.6-15.7 31.2-34.1 17.6-18.4 31.8-33.8 31.6-34.3-0.3-0.4 0.3-0.9 1.3-1.1 0.9-0.2 1.9-0.4 2.2-0.5z"/>
		<path id="Path 15" class="s2" d="m170.5 764c0 0 17.1 6.1 38 13.5 20.9 7.5 38.3 13.9 38.8 14.3 0.4 0.4-2.9 9-7.3 19.2-4.4 10.2-8.3 18.8-8.7 19.1-0.5 0.3-10.7 0-22.8-0.8-12.1-0.7-22.6-1.5-23.2-1.8-0.7-0.3-8.5-10.2-17.3-22-8.8-11.8-16.1-21.8-16.2-22.2-0.2-0.4 4-4.9 9.2-10 5.2-5.1 9.5-9.3 9.5-9.3z"/>
		<path id="Path 16" class="s0" d="m679.3 772c0.4 0 3.3 1.5 6.5 3.4 3.1 1.8 11 6.1 17.5 9.5 6.4 3.3 11.4 6.4 11.1 6.8-0.3 0.5-12.1 2-26.3 3.4-14.1 1.4-25.7 2.5-25.8 2.3-0.2-0.2 3.4-6 8-12.9 4.5-6.8 8.5-12.5 9-12.5zm-552.9 3c0.3 0 5.7 1.7 11.9 3.7 6.1 2 11.8 4.1 12.6 4.7 0.8 0.6 8.8 11 17.8 23.1 14.1 19 16.5 22.8 17.5 27.5 0.7 3.2 4.2 10.8 8.1 18 3.8 6.9 7.3 13 7.8 13.5 0.6 0.6 0.9-0.1 0.9-2 0-1.6-0.5-6.7-1-11.3-0.5-4.5-0.8-8.8-0.5-9.4 0.4-1 3-1 24.5 1.7v3c0 1.6-1.1 14-2.5 27.5-1.4 13.5-2.5 25.3-2.5 26.3 0 1.6-1.7 1.7-45.4 1.2l-19.2-27.5c-10.6-15.1-19.5-28.9-19.8-30.5-0.4-1.6-2.6-15.6-5.1-31-2.4-15.4-4.7-30.4-5.1-33.3-0.4-2.8-0.4-5.2 0-5.2z"/>
		<path id="Path 17" class="s2" d="m194.6 840.4c5.6 1.1 5.9 1.4 6.6 4.6 0.3 2 0.9 7.5 1.3 12.5 0.5 6 0.4 8.7-0.3 8-0.6-0.5-3.7-6-7.1-12-3.3-6-6.1-11.7-6.2-12.6-0.2-1.4 0.4-1.5 5.7-0.5z"/>
		<path id="Path 18" class="s1" d="m716 973.2c1.6-0.1 5.3 2 10 5.5 4.1 3.2 8 6.1 8.5 6.6 0.5 0.4-2.8-1-7.5-3.1-4.7-2.2-8.6-3.9-8.7-3.8-0.2 0-0.9 5.3-1.7 11.6-0.9 8.4-1 11.7-0.2 12.3 0.7 0.6 0.4 0.6-0.7 0.3-0.9-0.3-4.5-0.6-14.2-0.5l-6.7-11.8c-3.7-6.5-6.6-11.9-6.5-12.1 0.1-0.1 5.8-1.3 12.7-2.6 6.9-1.3 13.6-2.4 15-2.4z"/>
		<path id="Path 19" class="s2" d="m724.7 981.1c3.7 1.7 10.4 4.7 22.8 10.6l-16 5.2c-8.8 2.9-16.1 5.1-16.1 4.9-0.1-0.1 0.5-5.2 1.2-11.3 0.7-6 1.3-11.3 1.3-11.7-0.1-0.4 3 0.7 6.8 2.3z"/>
		<path id="Path 20" class="s1" d="m745.7 992.1c0.1-0.1 0 0.4-0.2 0.9-0.3 0.6 1.2 2.2 7.2 6.5l-10.6 0.8c-5.8 0.4-13.1 0.7-21.6 0.5l12.5-4.3c6.9-2.4 12.6-4.4 12.7-4.4zm-2.2 36.9c0.5 0 8.2 10.2 17 22.6 8.8 12.5 20.2 28.4 25.3 35.3 5.1 6.9 13 17.8 26.1 35.6l1.3 38.8c0.7 21.3 1.5 38.7 1.8 38.7 0.3 0 4.5-5.2 18.5-23.1l0.3 11.8c0.2 10.2-0.3 14.3-3.3 29.8-2 9.9-3.9 18.8-4.3 19.7-0.5 1.1-7.5-13.4-22.1-45.5-11.8-26-21.6-47.5-22-48-0.3-0.4-20.2-3.2-44.1-6.2-23.9-3-43.8-5.6-44.1-5.7-0.3-0.2 3.7-9.3 9-20.3 5.3-11 16.3-34.3 24.6-51.7 8.2-17.5 15.5-31.8 16-31.8zm-160.9 158.4c0.2 0.2-2.4 14.5-5.8 31.8-3.3 17.2-6.4 31.6-6.7 32-0.3 0.4-5.9-1.7-12.3-4.5-7.3-3.3-11.4-5.6-11-6.3 0.4-0.6 8.5-12.9 18.1-27.2 9.6-14.4 17.6-26 17.7-25.8zm93.1 50c0.2 0.3-4.1 25.3-9.4 55.5-5.4 30.3-10 55.1-10.3 55.1-0.3 0-2.5-2.9-5-6.3-2.4-3.4-8.1-11.1-12.5-17.2-4.5-6-9-12.3-10-14-1.8-2.9-1.8-3.2 0.4-13.5 1.3-5.8 2.6-11 3-11.7 0.4-0.7 4.3 1.7 11.1 6.8 5.8 4.4 10.8 7.6 11.1 7.2 0.4-0.5 5.3-14.7 11-31.6 5.7-16.9 10.5-30.6 10.6-30.3zm186.8 13.6l3.8 6.2c2.1 3.5 8.9 14.5 26.2 42.7l-1.2 29.3c-0.6 16.1-1.2 32.3-1.3 42.8l-6.8-1.9c-3.7-1.1-14.1-4-23.2-6.4-9.1-2.4-22-6-28.8-7.8-6.7-1.9-12.2-3.6-12.2-3.9 0-0.3 8.1-19.4 18.1-42.5 9.9-23.1 19.7-45.7 21.7-50.3z"/>
		<path id="Path 21" class="s2" d="m862.5 1292l24.6 24.5-1.3 23.3c-0.7 12.7-1.6 23.2-2.1 23.2-0.4 0-7.6-3.4-16-7.6-8.3-4.2-15.4-7.8-15.7-8.1-0.3-0.2 2-12.8 5-27.9z"/>
	</g>
</svg>