<svg version="1.2" xmlns="http://www.w3.org/2000/svg" viewBox="0 0 987 1501" width="987" height="1501">
	<title>engels-svg</title>
	<style>
		.s0 { fill: #ffffff } 
		.s1 { fill: #000000 } 
		.s2 { fill: #7f7f7f } 
	</style>
	<g id="Background">
		<path id="Path 0" class="s0" d="m591.5 0l41.2 20.8c22.7 11.4 41.1 21.2 40.9 21.7-0.1 0.5-9.2 3.2-40.1 10.8l-23-11.1-37.5-5.2c-20.6-2.8-39.4-5.1-41.8-5-2.3 0-37.2 5.2-77.5 11.6-69.8 11-73.6 11.5-80.7 10.5-7.3-1-7.6-0.9-10 1.5-1.9 1.8-4.6 2.8-10.5 3.9-4.4 0.8-12.7 2.1-18.5 3-5.8 0.9-10.6 1.7-10.8 1.8-0.2 0.1 1.8 4.7 4.3 10.2 2.5 5.5 4.5 10.6 4.5 11.3 0 0.6-5.3 6.9-11.8 13.9-6.4 7.1-29.5 32.3-51.2 56.2-21.7 23.8-52.3 58.7-96.5 111.6l-16.2 0.3c-9 0.1-16.3 0.5-16.3 1 0 0.4-2.3 16.7-10.1 71.7l-10.9 23-5 29.5c-2.8 16.2-5.3 30.9-5.6 32.5-0.6 3-0.8 2.8-15.9-12.5-8.4-8.5-15.5-15.1-15.8-14.5-0.3 0.6 1.7 27.8 4.4 60.5 2.7 32.7 4.9 60.7 4.9 62.3 0 1.5 0.4 2.7 1 2.7 0.6 0 14.7-6.7 31.5-15 16.8-8.2 30.7-15 31-15 0.3 0-2.1 5.3-5.4 11.8-3.2 6.4-12.1 22.1-19.6 34.7-7.6 12.6-14.4 24-15.2 25.3-1.3 2.1-1 2.3 9.2 7.2 5.8 2.7 10.7 5 11 5 0.3 0 10.1-19.2 43.3-85.5l0.5-10c0.3-5.5 2.7-34.3 9.8-118l31.9-96 54.5-54.4 148-42.1h98.5l10.3 5.1c8.5 4.2 12.1 5.4 21.2 7 6 1 20.6 3.4 53.5 8.9l96.5-42.9 4 3.8c2.2 2.1 23.3 21.5 47 43.2 23.7 21.6 50.8 46.4 60.3 55.1 9.4 8.7 17.2 15.9 17.2 16 0.1 0.2 2.5 10 10.7 43.3l-15.4 35.5c-8.5 19.5-15.7 36.6-15.9 38-0.3 1.4 1.8 23.2 4.5 48.5 2.8 25.3 5.1 46.6 5.1 47.2q0 1.3-5 1.3c-2.7 0-14.9-2.5-49-11h-73.5l-54 21.6-32.5 32.4v96l5 50.5c2.8 27.8 5 52.1 5 54 0 3.3-1.9 5.3-53.3 56l-32.2-21.5h-31l-22 11.3 21.5 10.7v11l32.1 21.5-0.1 64-26.5 15.7c-14.6 8.7-26.7 15.7-26.9 15.5-0.2-0.1-2.5-13.2-5.1-29.2-2.6-16-4.9-29.7-5.1-30.5-0.5-1.3-0.6-1.3-1.4 0-0.4 0.8-8.3 25.8-17.5 55.5-9.2 29.7-18.3 59.2-20.2 65.5-2 6.3-3.9 12.3-4.4 13.2-0.5 1-5.4 4-20.9 11.8v-10l-10.5-5.3c-5.7-2.8-10.6-5-10.9-4.7-0.2 0.3 1.8 16 4.5 35 2.7 19 4.9 35.6 4.9 37 0 2.3-2 3.5-42 23.5l-32.9 33-10.1 20.2c-5.5 11.2-10.6 20.5-11.2 20.9-0.7 0.3-6.7-0.4-13.3-1.5-6.6-1.2-20.5-3.5-31-5.2-10.5-1.7-19.1-3.2-19.2-3.3-0.2 0 2.1-7.2 5-15.8 4.5-13.7 5-15.8 3.5-15.8-1 0-15.2 2.2-31.5 5-16.4 2.8-29.9 5.1-30.1 5.2-0.1 0.2 11.7 10 26.3 21.8 18.1 14.7 26.4 22 26.1 23-0.3 0.8-2.6 9.8-5.2 20-2.6 10.2-4.9 21.3-5.9 31.2l-31.5-21.2-5.1 15.7c-2.8 8.7-5.2 15.6-5.4 15.3-0.2-0.3-2.6-12-10.4-51.5l-15.7-21c-8.6-11.5-15.9-21.1-16.3-21.3-0.3-0.1-2.6 9.5-5 21.5-2.4 12-4.8 22.7-5.2 23.8-0.4 1.1-0.8-4.1-0.9-25.5l-33 0.5v-76l-5-40.3c-2.7-22.1-5-41.5-5-43.2 0-2 11.2-25.2 63.8-129.5l-2.3-3.5c-1.2-1.9-23.3-39.3-49-83-25.8-43.7-56-95-67.2-114-17.2-29.3-20.3-35.1-20.3-38.5 0-2.2 11.9-91.5 26.5-198.5 14.6-107 26.9-194.8 27.3-195.2 0.4-0.4 19.6-10.1 84.7-42.5l19.2-27.4c10.5-15.1 27.5-39.3 37.8-53.9 14.5-20.7 19.3-26.8 21.8-27.8 1.8-0.8 24.6-10.2 50.7-20.9 26.1-10.7 63.7-26.2 83.5-34.3 19.8-8.1 37.6-15.5 39.5-16.4 3.1-1.3 14.7-1.5 199.5-1.6z"/>
		<path id="Path 1" class="s1" d="m530 32c3-0.1 22.4 2.2 80.5 10.2l12 5.6c6.6 3.2 12.2 6 12.5 6.3 0.3 0.3 11.5 4.9 25 10.3 13.5 5.4 25.1 10 25.8 10.2 0.9 0.3 1.2-3.3 1.2-31.6l182.5 183.2 11.8 31.2c6.4 17.1 19.6 51.8 29.2 77.1 9.5 25.3 30.5 80.6 76 200l0.5 23-10.3 14.5c-5.7 8-19.9 28.2-31.7 45-11.7 16.8-24 34.1-33 46.5l-0.1 44-32.2 53 11.3 57-1.5 93.5h-15.7c-8.7 0-15.8 0.1-15.8 0.3 0 0.1-2.2 11.6-5 25.5-2.7 13.8-5 25.8-5 26.5 0 0.7 6.6 3.4 15.7 6.4 15.6 5.1 15.8 5.3 16.6 8.5 0.4 1.8 10 47.4 21.3 101.3 11.3 53.9 20.8 98.1 21 98.3 0.2 0.1-4.6 7.6-21.6 33.2v118l-23.8 25.3c-13.1 13.8-46.7 49.7-74.6 79.7-48 51.4-51.1 54.5-55 55.2-2.3 0.4-15.1 1.4-28.6 2.3-13.5 0.8-38.5 2.4-55.5 3.6-17 1.1-36.4 2.4-43 3-6.6 0.5-16 1.2-30 2.2l-21.3-26.7c-11.6-14.6-21.4-26.5-21.7-26.3-0.2 0.1-5.1 4.8-21 20.7l-64.5-21.5-9.7-14.5c-5.3-8-9.8-14-10-13.5-0.2 0.5 1.7 7.1 4.2 14.5 2.4 7.4 4.4 13.6 4.2 13.6-0.1 0.1-9.7 4.9-42.2 21.2l-64-64-10.3 0.1c-5.6 0.1-10.2-0.2-10.2-0.6 0-0.5 4.5-5.3 20-20.8v21l2.7-0.7c1.5-0.4 18.6-5.3 37.8-10.8 19.3-5.5 35-10.1 35.1-10.3 0-0.1 16.7-18.9 36.9-41.7 20.3-22.8 39.5-44.3 48.5-54l15 25.5c8.3 14 15.5 25.5 16 25.5 0.5 0 1-0.6 1-1.2 0-0.7 2.2-40.9 5-89.3 2.7-48.4 5.1-90.7 5.9-100l-10.4-5.2c-5.8-2.9-10.7-5.3-11-5.3-0.3 0-0.5 31.2-0.5 138.5l-21.8-22-15.2-46c-8.4-25.3-15.4-46.2-15.6-46.5-0.2-0.3-0.6-0.3-0.9 0-0.2 0.3-2.7 16.3-5.6 35.5-2.9 20.3-4.7 35.5-4.2 36.2 0.4 0.7 9.8 5.8 20.8 11.3 11 5.6 20.2 10.3 20.5 10.6 0.3 0.3-6.5 7.4-15 15.9-8.5 8.5-15.7 15.5-16 15.5-0.3 0-3-11.8-11.5-52.8l-20.8 10.4c-11.4 5.7-20.9 10.3-21.2 10.2-0.2-0.2 1.8-20.3 4.5-44.8 2.8-24.5 5.2-46 6-51h-16c-15.9 0-16 0-15.9 2.3 0 1.2 2.2 13 4.8 26.2 3.1 15.5 4.4 24.1 3.7 24.3-0.6 0.2-15.1-2-32.1-4.8-17-2.9-31.1-4.8-31.3-4.3-0.1 0.4-6 9.8-13.1 20.8-7 11-23.3 36.4-36 56.5-12.8 20.1-23.8 37.1-24.5 37.8-0.8 0.9-3.5-4.8-22.1-51.6l-21-5.2c-11.5-2.9-21.1-5.4-21.2-5.6-0.2-0.2 4-6.8 9.3-14.6 5.3-7.9 10.1-14.9 10.8-15.6 0.9-1.1 5.2 0.7 22.4 9.2 11.6 5.9 21.2 10.4 21.2 10.1 0-0.3 4.8-21.8 10.6-47.7 5.9-26 10.7-47.8 10.8-48.3 0.1-0.5 4.8-10.2 10.5-21.5 6.8-13.7 10.7-20.4 11.7-20.2 0.8 0.1 8 4.7 30.9 20.2l35-14.9c19.3-8.2 36.2-15.5 40.5-17.6l0.3-55.8c0.2-50.1 0.4-56 1.8-57 0.9-0.7 8-13.9 15.8-29.4 7.7-15.6 14.3-28.3 14.6-28.3 0.3 0 10 4.7 21.5 10.5 11.5 5.8 21.2 10.2 21.4 9.8 0.2-0.5 2.5-7.3 5.1-15.3 2.6-8 5-14.8 5.4-15.1 0.3-0.4 7.1 1.5 15.1 4.2 8 2.6 15.1 4.8 15.8 4.9 0.9 0 1.2-4.8 1.2-21 0-11.5 0.2-21 0.5-21 0.3 0 14.3 7 31.3 15.5 16.9 8.5 31.2 15.5 31.7 15.5 0.5 0.1 5.7-6.9 11.5-15.5 5.8-8.6 10.6-15.6 10.8-15.5 0.1 0 4.7 2.3 10.2 5 5.5 2.8 10.2 4.9 10.4 4.8 0.2-0.2-1.9-16.8-4.7-37-2.9-20.3-5.5-36.8-5.9-36.8-0.5 0-9.8 6.8-20.8 15-11 8.3-20.5 15-21 15-0.5 0-1-2-1-4.5 0-4.1-0.3-4.6-3.2-5.9-1.8-0.7-15.9-5.5-31.3-10.6-15.4-5.1-28.3-9.8-28.7-10.4-0.4-0.6-0.8-8-0.8-31.6l-32 11v-33h31.5l32.2 21.5 26.7-26.2c14.6-14.5 27.2-26.3 27.9-26.3 0.6 0 10.4 2.3 21.7 5.1 16.3 4 20.6 4.8 21.2 3.7 0.4-0.7 1.9-5.1 3.4-9.8 1.5-4.7 3.6-10.5 6.7-17.5l0.7 4.5c0.6 3.8 3.2 7.9 15.9 24.8 8.3 11.1 15.1 21 15.1 22 0 0.9-2.2 15-5 31.2-2.8 16.2-5 30.2-5 31 0 0.8 11.6 27.1 25.7 58.4 14.2 31.3 26.4 57.1 27.1 57.3 0.9 0.2 1.2-6.3 1.2-61.2l20.5-10.2c11.3-5.7 20.3-10.6 20.1-11-0.2-0.5-6.8-3-14.7-5.7-7.9-2.6-14.7-5.1-15.1-5.5-0.4-0.3-3.1-17-5.8-37.1-2.8-20.1-5-37-4.7-37.5 0.2-0.5 12.1-9.3 26.3-19.4 14.2-10.2 28.2-20.1 30.9-22.1 2.8-2 7.7-5.6 17-12.1l15.8-52.2c8.6-28.7 15.8-52.8 16-53.7 0.2-1.1-5.1-2.3-25.3-5.7-14-2.3-28.5-4.7-39-6.3v-32l-107.5 0.5-21.1 31.5c-11.6 17.3-21.5 31.5-22 31.5-0.5 0-7-2-14.4-4.4-7.4-2.4-14-4.8-14.5-5.2-0.5-0.5-1.4-0.5-1.8-0.1-0.4 0.4-0.7-5.7-0.7-13.5 0-9.1 0.4-14.4 1-14.5 0.6-0.2 7.6-21.9 15.6-48.3 8-26.4 14.6-49 14.7-50.2 0.1-1.3 0.7-2.5 1.2-2.7 0.5-0.2 12.9-5.2 54-21.6h73.5l20.3 5.1c11.1 2.9 23.3 5.4 34.2 6.4l20.5 35.8c11.3 19.7 20.8 35.4 21.1 35 0.4-0.4-4-33.5-20.1-146.3l21.3-42.5 10.4 21c5.8 11.6 10.6 21.1 10.7 21.3 0 0.2 7.4-2.1 16.3-5 14.6-4.8 16.2-5.5 15.7-7.3-0.3-1.1-5.1-18-20.9-73l-15-10.2c-8.2-5.6-15.6-10.2-16.2-10.2-1-0.1-1.4 5.7-1.8 50.4l-10.6-21c-10.3-20.1-10.9-21.7-14.8-38-2.3-9.3-4.6-18.7-5.1-20.7-0.8-3.1-4.1-6.6-18.8-20-9.7-9-38.6-35.4-64.1-58.8-25.5-23.4-46.9-42.3-47.5-42.2-0.6 0.2-2.9 0.5-5.1 0.8-2.2 0.2-37.1 6.9-77.5 15-40.4 8-73.8 15.1-74.2 15.8-0.4 0.7-4.5-0.8-24.3-10.5l-51.1 0.3c-28.2 0.2-51 0-50.8-0.4 0.2-0.5-20.1-0.8-90.6-0.8l-25.8 20.6c-14.1 11.3-25.6 21-25.5 21.5 0.2 0.5-0.2 0.9-0.9 0.9-0.7 0-13 11.8-27.5 26.3-14.4 14.4-26.5 26-26.8 25.7-0.4-0.3 1.5-13.3 4.1-29 2.5-15.7 4.7-29.6 4.7-31 0.1-1.8 9.8-13.2 37.6-43.5 20.6-22.5 44.2-48.4 52.4-57.5 8.3-9.1 21.6-23.1 29.6-31.3 8-8.1 14.4-15 14.1-15.2-0.3-0.3 0.2-0.5 1-0.5 0.8 0 2.4-0.9 3.5-2 1.9-1.9 2.7-2 12.5-1.1 5.8 0.5 25.1 2.8 75.5 9.2l34.5-14.7c19-8.1 35.4-15.4 36.5-16.1 1.1-0.7 4.5-1.3 7.5-1.3z"/>
		<path id="Path 2" class="s2" d="m520.5 33.1c1.1-0.1 1.5 0.3 1 0.7-0.6 0.5-16.5 7.5-70 30.3l-33-4.1c-18.1-2.3-33.2-4.4-33.5-4.6-0.3-0.2-0.3-0.6 0-0.8 0.3-0.2 30.4-5.1 67-10.9 36.6-5.8 67.4-10.5 68.5-10.6zm166.2 8.8l0.2 16.6c0.1 12.8-0.2 16.4-1.1 16.1-0.7-0.2-12.3-4.8-25.8-10.2-13.5-5.3-24.7-9.9-25-10.1-0.3-0.1-0.3-0.5 0-0.8 0.3-0.3 8.6-2.5 18.5-5 9.9-2.5 18.7-4.9 19.5-5.4 0.8-0.4 4.2-0.9 13.7-1.2zm-327.1 17.1l-13.6 13.5c-7.4 7.4-13.5 13.3-13.6 13.2 0-0.1-2.1-4.9-4.7-10.7-2.7-5.8-4.7-10.6-4.5-10.7 0.2-0.1 6.6-1.1 14.3-2.3 7.7-1.2 14.2-2.4 14.4-2.6 0.3-0.2 2.1-0.4 7.7-0.4zm331.7 92.1c0.4-0.1 0.7 0.2 0.7 0.7 0 0.4-20.4 9.8-91 41.2l-21.2-3.6c-11.7-1.9-25.5-4.1-30.5-5-5.1-0.7-9.4-1.8-9.5-2.2-0.1-0.5 33.8-7.7 75.3-16 41.5-8.3 75.7-15.1 76.2-15.1zm-368.8 20.1l46-0.1c39.5-0.1 45.7 0.1 44.5 1.3-0.8 0.8-32.5 10.2-70.5 21-37.9 10.8-69.6 19.5-70.2 19.4-0.7-0.2 10.3-9.6 24.5-21z"/>
		<path id="Path 3" class="s2" d="m826.9 204.5c0.5 0.6 7.7 10.1 16 21.3 8.3 11.1 15.1 20.4 15.1 20.7 0 0.3-7.1 0.4-31.5 0l-0.3-21.5c-0.2-13.4 0.1-21.1 0.7-20.5z"/>
		<path id="Path 4" class="s2" d="m224.9 205.5c0.3 0.2-1.5 13.3-4.2 29.2-2.6 15.8-4.5 29.6-4.2 30.6 0.3 0.9 0 1.9-0.5 2.2-0.5 0.3-8.2 22.2-32.9 97l-4.5 53.8c-2.5 29.5-4.9 54.3-5.2 55-0.5 1-0.8 1-1.3 0-0.4-0.9-4.5 2.6-11.6 9.7-6 6.1-11.1 11-11.2 11-0.2 0-14 6.8-30.8 15-16.8 8.3-30.9 15-31.5 15-0.5 0-1-1.2-1-2.7 0-1.6-2.2-29.6-4.9-62.3-2.7-32.7-4.7-59.9-4.4-60.5 0.3-0.6 7.4 6 15.8 14.5 14 14.2 15.3 15.3 15.8 13 0.3-1.4 2.7-15.2 5.4-30.8 2.6-15.5 5-28.2 5.3-28.2 0.3 0 2.4 5.7 4.8 12.7 2.4 7.1 4.7 13.7 5.1 14.8 0.5 1.1 2.8 8.2 5.2 15.8 2.4 7.5 4.7 13.7 5.2 13.7 0.4 0 0.7-9.1 0.6-40.5l-5.1-19.5c-2.7-10.7-5-21-4.9-22.8 0.1-1.7 2.4-18.6 5.1-37.5 2.8-18.8 5-34.5 5-35 0-0.4 7.3-0.8 32.5-1.2l25.9-31.1c14.3-17.2 26.2-31 26.5-30.9zm634.4 95.6c0.7 0 8 4.6 31.2 20.4l10.2 35.5c5.6 19.5 10.4 36.4 10.7 37.5 0.5 1.8-1.1 2.5-15.7 7.3-8.9 2.9-16.3 5.2-16.3 5-0.1-0.2-4.9-9.7-21.1-42.3l-21.3 42.5 10.4 72.8c5.7 40 10.1 73.1 9.7 73.5-0.3 0.4-9.9-15.3-41.8-70.8l-5.2-48c-3.9-35-5-48.8-4.3-51 0.5-1.6 7.6-18.4 15.8-37.3 8.2-18.8 15.1-34.2 15.4-34.2 0.3 0 5 8.9 20.5 39.5l0.3-25.2c0.2-19.3 0.5-25.3 1.5-25.2z"/>
		<path id="Path 5" class="s1" d="m129.1 344c0.5 0 1.3 1.7 1.8 3.8 0.6 2 2.8 11 5 19.9 2.3 9 4.1 16.7 4.1 17.3 0 0.6-2.1 3.3-4.8 6.1-3.7 3.9-4.9 4.7-5.8 3.7-0.5-0.7-3-7.3-5.5-14.6-2.4-7.3-4.7-13.2-5.2-13.2-0.4 0-0.4-0.8-0.1-1.8 0.3-0.9 2.6-6.1 5.1-11.4 2.5-5.4 5-9.8 5.4-9.8z"/>
		<path id="Path 6" class="s0" d="m139.6 387c0.2 0 0.4 8.3 0.4 18.5 0 10.2-0.3 18.5-0.8 18.5-0.4 0-2.6-5.7-4.9-12.7-2.4-7.1-4.3-13.3-4.4-13.9 0-0.6 2-3.2 4.6-5.7 2.6-2.6 4.9-4.7 5.1-4.7z"/>
		<path id="Path 7" class="s2" d="m451.5 461l31.5 21.1c17.5 11.8 31.6 21.9 31.7 22.8 0.1 0.9-2.1 15.3-10.2 62.6l-63.5 21.5v-42h-8.3c-4.5 0-13.6 0.7-20.2 1.5-6.6 0.9-24.6 3.1-40 5.1-15.4 1.9-28.7 4.1-29.5 4.7-1.3 1-1.3 0.9 0-0.8 0.9-1.1 3.3-5.6 5.5-10 2.1-4.4 3.9-8.6 3.9-9.3 0.1-0.7 0.6-1.6 1.3-2 0.6-0.4 17.5 1.6 37.5 4.5 20 2.9 39.1 5.2 42.5 5.3 6.3 0 6.3 0 21.6 10.2 8.3 5.6 15.9 10.3 16.7 10.5 0.9 0.2 5.7-3.8 11.5-9.6 5.5-5.5 9.8-10.2 9.5-10.5-0.3-0.2-19.2-7.5-42-16.1-22.8-8.5-42.1-15.5-42.8-15.5-0.6 0-1.1-0.4-1-0.8 0.2-0.5-6.6-12.4-15-26.5-8.3-14.1-15.2-25.9-15.2-26.2 0-0.3 16.8-0.5 74.5-0.5zm-386.9 3.2c0.1 0.2-2 15.4-9.5 67.3l-0.2 33c-0.1 18.1-0.4 38.1-1.4 55.5l-20-20h20.5v-64.5l-10.2-10 10.3-30.8c5.7-16.9 10.4-30.7 10.5-30.5z"/>
		<path id="Path 8" class="s1" d="m172.4 473.3c1 0.9 1.2 3.5 0.3 19.2l-21.4 43-11.2-22 5.1-10c4.3-8.6 6.5-11.5 15.5-20.7 8.3-8.5 10.7-10.4 11.8-9.5z"/>
		<path id="Path 9" class="s2" d="m740.9 493c0.3 0 14.5 4.7 62.6 20.8l-73.5 0.2 5.2-10.5c2.8-5.8 5.4-10.5 5.7-10.5z"/>
		<path id="Path 10" class="s2" d="m631.9 495c0.3 0 0.3 1.2-0.1 2.8-0.4 1.5-5.7 19.3-11.8 39.7-6.1 20.4-12.5 41.4-14.1 46.8-1.6 5.3-3.4 9.7-3.9 9.7-0.6 0-1-12.3-1.2-69.3l15.2-14.8c8.4-8.2 15.5-14.9 15.9-14.9zm-491.6 20c0.4 0 3 4.6 10.9 20.5l-10.6 21.3c-5.8 11.6-10.8 21.2-11.1 21.2-0.3 0-5.2-2.3-21.5-10l2.3-3.8c1.2-2.1 8.3-14 15.7-26.5 7.4-12.4 13.8-22.7 14.3-22.7z"/>
		<path id="Path 11" class="s1" d="m408 515c0.8 0 20.2 7 43 15.5 22.8 8.6 41.7 15.9 42 16.1 0.3 0.3-4 5-9.5 10.5-5.8 5.8-10.6 9.8-11.5 9.6-0.8-0.2-8.4-4.9-16.8-10.5-14.5-9.7-15.4-10.2-20.4-10.2-2.9 0-21.9-2.3-42.1-5.2-22.3-3.2-36.1-5.6-35-6.1 1-0.4 12.4-5 25.3-10.2 12.9-5.2 24.2-9.4 25-9.5zm-375 10h5.3c4.9 0 5.5 0.3 15.7 10.5v64.5h-21v-37.5zm319 13.1c0.3-0.1 0.3 0.7 0 1.6-0.3 1-2.3 5.3-8 17.3l-20.3 15.1c-11.1 8.4-20.8 15.7-21.5 16.3-1.1 0.9-1.3 0.1-0.7-9.8l25-20.2c13.8-11.1 25.2-20.2 25.5-20.3z"/>
		<path id="Path 12" class="s2" d="m676.2 568h106.8v32l6.7 1c3.8 0.6 18.3 3 32.3 5.3 20.2 3.4 25.5 4.6 25.2 5.7-0.1 0.9-7.3 25-31.7 105.9l-6 4.2c-3.3 2.3-8.3 5.9-11 7.9-2.8 2-16.7 11.9-30.9 22.1-14.2 10.1-26.1 18.9-26.3 19.4-0.3 0.5 1.9 17.4 4.7 37.5 2.7 20.1 5.4 36.8 5.8 37.1 0.4 0.4 7.2 2.9 15.1 5.5 7.9 2.7 14.5 5.2 14.7 5.6 0.2 0.5-8.8 5.4-40.6 21.3v30.7c0 24.2-0.3 30.7-1.3 30.5-0.6-0.2-12.8-26-27-57.3-14.1-31.3-25.7-57.6-25.7-58.4 0-0.8 2.2-14.8 5-31 2.8-16.2 5-30.3 5-31.3 0-0.9-6.8-10.7-15-21.7-8.3-11-15-20.3-15-20.8 0-0.4 13.8 3.9 30.8 9.6 16.9 5.6 31.2 10.1 31.9 10 0.6-0.2 15.4-12.2 64.5-53.3l-43-43 5.4-21c2.9-11.5 5-21.3 4.6-21.6-0.4-0.4-14.7-5.2-31.7-10.9-17-5.6-31.2-10-31.3-9.8-0.2 0.2 1.8 6.8 4.4 14.8 2.6 8 4.9 15.1 5 15.7 0.3 1-5.4 1.3-26.1 1.3-14.6 0-26.5 0.3-26.5 0.7 0 0.5 2.2 7.5 5 15.8 2.8 8.2 5 15.1 5 15.2 0 0.2-7.2 5-32 21.3l15.2 20.5c8.4 11.2 15.9 21.6 16.5 23 1.1 2 1 2.9-0.1 4.7-0.8 1.3-3.3 7.7-5.5 14.3-2.3 6.6-4.2 12.1-4.4 12.3-0.1 0.2-10-2.1-43.7-10.3v-3.5c0-1.9-2.2-25.8-4.9-53-2.7-27.2-4.7-49.8-4.5-50.3 0.2-0.4 1.2-0.2 2.1 0.3 1 0.5 7.9 3 15.3 5.4 10.3 3.4 13.8 4.2 14.6 3.3 0.6-0.7 8.9-12.9 18.5-27.2 9.5-14.3 18.8-28.1 20.7-30.8z"/>
		<path id="Path 13" class="s2" d="m303.9 576c0.2 0-0.4 0.8-1.3 1.8-1 1.1-1.6 3.5-1.6 11.7l-9.5 4.8c-5.2 2.6-9.8 4.7-10.2 4.7-0.5 0 4.4-5.2 10.7-11.5 6.3-6.3 11.6-11.5 11.9-11.5z"/>
		<path id="Path 14" class="s0" d="m698.8 579c0.4 0 14.4 4.6 31.2 10.1 16.8 5.6 30.8 10.4 31.2 10.8 0.4 0.3-1.7 10.1-9.9 42.6l42.9 43-31.7 26.5c-17.4 14.6-32 26.6-32.3 26.8-0.4 0.2-12.6-3.6-27.2-8.3-14.6-4.9-28.9-9.6-31.7-10.6-5.3-1.9-5.3-1.9-5.3-6.2 0-2.3-0.6-5.2-1.3-6.5-0.6-1.2-8.1-11.5-31.7-43.2l16-10.5c8.8-5.8 16-10.6 16-10.8 0-0.1-2.2-6.9-5-15.2-2.8-8.3-5-15.3-5-15.8 0-0.4 11.9-0.7 26.5-0.7 14.6 0 26.5-0.1 26.5-0.2 0-0.2-2.2-7-5-15.3-2.8-8.2-5-15.3-5-15.7 0-0.5 0.3-0.8 0.8-0.8z"/>
		<path id="Path 15" class="s2" d="m118.6 643c0 0-2.2 7-5 15.5-2.8 8.5-5.3 15.5-5.6 15.5-0.3 0-2.6-4.1-9.9-18.5v4.8c-0.1 3.7 0.9 6.8 4.9 14.7 2.7 5.5 4.9 10.2 4.7 10.4-0.1 0.2-4.8 2.7-10.5 5.5-5.6 2.8-10.2 5-10.2 4.9 0-0.2 2.2-7 5-15.3 4-12 5-16.2 4.6-26.5l11-5.4c6-3 10.9-5.5 11-5.6z"/>
		<path id="Path 16" class="s1" d="m98.1 655.5l4.9 9.5c3.9 7.6 4.9 10.5 4.9 19.5l-4.9-9.5c-3.9-7.6-4.9-10.5-4.9-14.5z"/>
		<path id="Path 17" class="s2" d="m493.2 760.4l0.4 10.6c0.2 5.8 0.3 10.6 0.1 10.7-0.1 0.1-4.9-2.2-21.2-10.5l10.3-5.4zm32.3 21.9l0.5 15.8c0.3 8.6 0.8 16 1.1 16.2 0.2 0.2 14 4.9 30.5 10.4 16.5 5.5 30 10.4 30 10.8 0 0.5-8.8 3-19.5 5.7-10.8 2.7-19.8 5.1-20 5.3-0.3 0.3 6.7 10 15.5 21.6 12.9 17.1 16.1 20.8 16.7 19.3 0.4-1 2.8-10.2 5.3-20.4 2.5-10.2 4.7-19.3 4.8-20.2 0.1-1 0.5-1.8 0.9-1.8 0.4 0 9.8-6.7 20.8-15 11-8.2 20.3-15 20.7-15 0.4 0 3.1 16.5 5.9 36.8 2.9 20.2 5 36.8 4.8 37-0.3 0.1-4.9-2-10.4-4.8-5.5-2.7-10.2-5-10.3-5-0.1 0-5 6.9-10.7 15.5-5.8 8.6-11 15.6-11.5 15.6-0.6-0.1-14.9-7.1-31.8-15.6-16.9-8.5-31-15.5-31.2-15.5-0.3 0-0.5 9.5-0.5 21 0 16.2-0.3 21-1.3 21-0.7-0.1-7.8-2.3-15.7-4.9-8-2.7-14.8-4.6-15.2-4.2-0.3 0.3-2.7 7.1-5.4 15.1-2.6 8-4.9 14.9-5.1 15.3-0.2 0.4-9.8-4-21.3-9.8-11.6-5.8-21.3-10.5-21.5-10.5-0.3 0-6.9 12.7-14.7 28.3-7.7 15.5-14.2 28.4-14.5 28.7-0.2 0.3-0.6 0.3-0.9 0-0.2-0.3 1.8-7.7 4.5-16.5 2.7-8.8 11.5-37.4 19.6-63.5 8-26.1 15-48.2 15.5-49 0.7-1.3 0.9-1.3 1.3 0 0.3 0.8 2.7 14.7 5.3 30.8 2.9 17.3 5.3 29.1 5.9 28.9 0.5-0.2 12.4-7.3 26.5-15.7 14-8.3 25.6-15.5 25.7-15.8 0.1-0.4 2.7-0.6 11.3-0.2l-4.5-17.2c-2.4-9.5-4.9-17.4-5.5-17.5-0.7-0.2-1-5.4-1-28.8l-15.5-10.5c-8.6-5.8-15.7-10.7-15.8-11-0.1-0.3 6.8-2.8 15.2-5.6z"/>
		<path id="Path 18" class="s0" d="m588.8 836.1c0.8-0.1 1.3 1.7 1.5 5.1 0.1 3.7-1.4 11.6-5 26.3-2.9 11.5-5.4 21.1-5.5 21.3-0.2 0.1-7.5-9.2-16.3-20.8-8.8-11.6-15.8-21.3-15.5-21.5 0.3-0.2 9.3-2.7 20-5.4 10.7-2.7 20.1-5 20.8-5z"/>
		<path id="Path 19" class="s1" d="m527 843c0.5 0 1.4 1.7 2 3.8 0.5 2 2.5 9.9 8 31.2l-10.5-0.5-0.3-17.3c-0.2-11.2 0.1-17.2 0.8-17.2z"/>
		<path id="Path 20" class="s2" d="m890.5 847c0.3 0 7.7 14.4 32.5 64l-5 59.8c-2.7 32.8-5.2 61.5-5.5 63.7-0.6 3.8 0.2 5.2 20.3 35.5 11.4 17.3 21.1 32.1 21.5 32.8 0.4 0.6-6.3 17.5-14.9 37.5-8.6 19.9-16 36.7-16.5 37.2q-0.9 1-0.9 0c0-0.5-9.5-46-21-101-11.5-55-21-100.3-21-100.8 0-0.4-7.2-3.1-16-6-9.4-3-16-5.7-16-6.5 0-0.6 2.2-12.6 5-26.5 2.8-13.8 5-25.3 5-25.5 0-0.1 7.2-0.2 32-0.2v-32c0-17.6 0.2-32 0.5-32zm-513.4 129c0.5 0 5.4 2.2 20.9 10v10l20.9-10.5 0.2 107-2.8 1.4c-1.6 0.7-18.6 8-72.8 31.1l-14.8-10c-8.1-5.5-15.2-10-15.7-10-0.5 0-1-0.3-1-0.8 0-0.4 7.5-8.1 33.5-33.7l20.3-10c18.2-9 20.2-10.2 20.2-12.5 0-1.4-2-16.7-4.5-34-2.4-17.3-4.6-33-4.9-34.8-0.2-1.7 0-3.2 0.5-3.2z"/>
		<path id="Path 21" class="s2" d="m312.5 997c0.3 0 5 2.3 10.5 5 6.8 3.4 9.8 5.4 9.3 6.3-0.4 0.6-4.7 7.3-9.6 14.7-4.9 7.4-9.4 14-9.8 14.5-0.6 0.6-0.9-7.6-0.9-19.8 0-11.4 0.2-20.7 0.5-20.7z"/>
		<path id="Path 22" class="s2" d="m236.5 1104l-5.2 15.8c-2.9 8.6-5.2 15.8-5 15.8 0.1 0.1 11.4 2.1 25.2 4.4 13.8 2.3 28.2 4.7 39.2 6.5l-0.8 3c-0.5 1.7-5.4 23.1-10.9 47.8-5.5 24.6-10 44.9-10 45.2 0 0.3-9.5-4.2-21-10-11.5-5.8-21.3-10.3-21.8-10.1-0.4 0.2-5.4 7.4-21.7 31.6h-32.5v-32.5l-25.7-20.5c-17.8-14.2-31-25.6-42.5-37-9.2-9.1-16.5-16.8-16.3-17.3 0.3-0.4 7.5-0.7 31.5-0.7l0.1 13.7c0 7.7 0.4 12.9 0.8 11.8 0.4-1.1 2.8-11.8 5.2-23.8 2.4-12 4.7-21.6 5-21.5 0.4 0.2 7.7 9.8 32 42.3l5 25.5c2.8 14 5.2 25.7 5.4 26 0.2 0.3 2.6-6.6 10.5-31l15.5 10.5c8.5 5.8 16.1 10.4 16.9 10.3 0.7-0.2 12.9-9.5 27-20.8 14.1-11.3 25.6-20.7 25.6-21 0-0.3-7-2.9-31-11l-9.6 19.3c-5.4 10.5-9.9 18.7-10.1 18.2-0.2-0.5 1.5-8.4 3.7-17.5 2.2-9.1 4.3-17.2 4.6-18 0.3-1-8-8.3-26.1-23-14.6-11.8-26.4-21.6-26.3-21.8 0.2-0.1 13.1-2.4 28.8-5.1 15.7-2.7 29.9-4.9 34.5-5.1zm290 32c0.3 0 5.2 2.4 21.4 10.5l-0.5 6c-0.3 3.3-2.7 45.6-5.4 94-2.8 48.4-5 88.6-5 89.3 0 0.6-0.5 1.2-1 1.2-0.5 0-7.7-11.5-31-51l-5.8 6.3c-3.2 3.4-22.4 24.9-42.7 47.7-20.2 22.8-36.9 41.6-36.9 41.7-0.1 0.2-15.8 4.8-35.1 10.3-19.2 5.5-36.3 10.4-40.5 11.5v-21l-21.5 21.5-10.6-10.5 5-50.5c2.8-27.8 5.1-51.6 5.1-53q0-2.4-0.9-1.5c-0.5 0.5-9.7 16.5-20.6 35.5-10.9 19-20.1 35-20.6 35.5-0.5 0.6-1.2-0.6-1.8-3-0.6-2.2-2.8-11.3-5.1-20.3-2.2-8.9-4-16.9-4-17.7 0-0.8 10.9-18.5 24.1-39.3 13.3-20.7 30-46.7 37-57.7 7.1-11 13-20.4 13.1-20.8 0.2-0.5 14.3 1.4 31.3 4.3 17 2.8 31.5 5 32.1 4.8 0.7-0.2-0.6-8.8-3.7-24.3-2.6-13.2-4.8-25-4.8-26.3-0.1-2.2 0-2.2 31.9-2.2l-0.5 3.3c-0.3 1.7-2.7 23.2-5.5 47.7-2.7 24.5-4.7 44.6-4.5 44.8 0.3 0.1 9.8-4.5 42-20.6l5.5 26.4c3 14.6 5.7 26.4 6 26.4 0.3 0 7.5-7 16-15.5 8.5-8.5 15.3-15.6 15-15.9-0.3-0.3-9.5-5-20.5-10.6-11-5.5-20.4-10.6-20.8-11.3-0.5-0.7 1.3-15.9 4.2-36.2 2.9-19.2 5.4-35.2 5.6-35.5 0.3-0.3 0.7-0.3 0.9 0 0.2 0.3 7.2 21.2 30.8 92.5l21.8 22v-69.2c0-38.1 0.2-69.3 0.5-69.3z"/>
		<path id="Path 23" class="s1" d="m236.7 1157.2l15.7 5.1c8.6 2.9 15.5 5.5 15.4 6-0.2 0.4-11.8 9.9-25.8 21.1-14 11.2-25.9 20.1-26.4 19.7-0.5-0.3-0.7-3.5-0.4-7.1 0.4-3.6 1.1-6.6 1.7-6.8 0.6-0.1 5.3-8.7 10.5-19.1zm85 132.3c0.2 1.1-2 24.4-4.7 51.7-2.8 27.4-5.1 50.3-5.1 51 0 0.7-7.2-5.9-16-14.7-8.8-8.8-16.1-16.4-16.2-16.9-0.1-0.5 9-16.7 20.2-36 11.1-19.3 20.6-35.6 20.9-36.1 0.3-0.6 0.8-0.1 0.9 1z"/>
		<path id="Path 24" class="s2" d="m442.5 1418c0.3 0 4.5 6 9.3 13.3 4.9 7.2 9.1 13.8 9.5 14.4 0.5 1-0.7 1.3-10.3 1.3l-4.5-13.8c-2.5-7.5-4.5-14-4.5-14.5 0-0.4 0.2-0.7 0.5-0.7z"/>
	</g>
</svg>