<svg version="1.2" xmlns="http://www.w3.org/2000/svg" viewBox="0 0 2134 2121" width="2134" height="2121">
	<title>image</title>
	<style>
		.s0 { fill: #ffffff } 
	</style>
	<path id="Path 0" class="s0" d="m1073.9 0.4c29.5 0.2 54.7 0.6 56.1 0.9 1.4 0.3 7.7 0.8 14 1.1 6.3 0.4 12.6 0.8 14 1.1 1.4 0.2 5.9 0.6 10 1 4.1 0.3 11.6 1 16.5 1.6 4.9 0.5 11 1.2 13.5 1.5 2.5 0.3 12.1 1.6 21.5 3 9.3 1.3 26 4 37 6 11 1.9 27.2 5.1 36 7 8.8 1.9 24.1 5.5 34 8 9.9 2.5 25.1 6.5 33.7 9 8.7 2.4 25.6 7.6 37.5 11.5 12 3.9 31.5 10.7 43.3 15.1 11.8 4.5 30.7 12 42 16.8 11.3 4.8 29.7 13.1 41 18.4 11.3 5.3 29.1 14.2 39.5 19.8 10.4 5.6 26.4 14.4 35.5 19.6 9.1 5.2 25.3 15 36 21.8 10.7 6.7 27.1 17.5 36.5 24 9.3 6.4 25.6 18.1 36 26 10.4 7.8 24.8 19 32 24.9 7.1 5.8 20.9 17.4 30.5 25.8 9.6 8.3 32.2 29.8 50.1 47.7 17.9 17.9 39.2 40.1 47.4 49.5 8.1 9.4 20.3 23.7 27 32 6.7 8.2 16.4 20.6 21.7 27.5 5.2 6.9 13.7 18.4 18.8 25.5 5.2 7.1 15.2 21.8 22.3 32.5 7.1 10.7 18.4 28.7 25.2 40 6.7 11.3 16.5 28.4 21.7 38 5.3 9.6 13.2 24.7 17.6 33.5 4.4 8.8 11.3 23.4 15.5 32.5 4.1 9.1 10.5 23.7 14.2 32.5 3.7 8.8 9.7 23.6 13.2 33 3.6 9.4 10 27.6 14.3 40.5 4.3 12.9 10.1 31.4 12.9 41 2.7 9.6 7.2 26.5 10 37.5 2.7 11 6.6 27.4 8.5 36.5 1.9 9.1 4.8 23.9 6.5 33 1.6 9.1 4.1 24.4 5.5 34 1.4 9.6 3.2 23.3 4 30.5 0.8 7.2 1.8 16.2 2.1 20 0.3 3.8 0.8 8.1 1 9.5 0.2 1.4 0.7 7.2 1 13 0.4 5.8 0.8 11.6 1 13 0.3 1.4 0.8 11.7 1.2 23 0.4 11.3 0.8 32.4 0.8 47 0 14.6-0.4 35.3-0.8 46-0.4 10.7-0.9 20.6-1.1 22-0.3 1.4-0.7 7.5-1.1 13.5-0.3 6-0.8 12.6-1.1 14.5-0.2 1.9-1.1 10.2-1.9 18.5-0.9 8.2-2.7 23.1-4.1 33-1.3 9.9-3.8 25.9-5.5 35.5-1.7 9.6-4.6 25.2-6.5 34.5-1.9 9.3-5.5 25.3-8 35.5-2.4 10.2-7.3 28.6-10.9 41-3.5 12.4-10.3 34-15 48-4.8 14-12.4 35-17 46.5-4.5 11.5-12.2 30-17 41-4.8 11-14.2 31-20.9 44.5-6.7 13.5-16.9 32.8-22.6 43-5.6 10.2-14.8 25.9-20.3 35-5.5 9.1-16.4 26.2-24.3 38-7.8 11.8-18.8 27.8-24.4 35.5-5.6 7.7-15.5 20.7-21.9 28.9-6.4 8.2-17.5 21.9-24.6 30.5-7.2 8.6-17.5 20.5-23 26.6-5.4 6-16.5 17.9-24.5 26.4-8 8.5-22.8 23.3-33 32.9-10.2 9.7-25.9 24.1-35 32-9.1 8-25.3 21.5-36 30.1-10.7 8.6-26.9 21-36 27.7-9.1 6.6-22.8 16.3-30.5 21.6-7.7 5.3-20.8 13.8-29 19-8.3 5.2-21.1 13.1-28.5 17.5-7.4 4.4-20.7 12-29.5 16.9-8.8 4.8-29.1 15.2-45 23-15.9 7.8-38 18-49 22.7-11 4.6-27.9 11.5-37.5 15.2-9.6 3.7-29.4 10.7-44 15.6-14.6 4.8-34.6 11.1-44.5 13.9-9.9 2.8-27 7.3-38 10-11 2.7-27.7 6.5-37 8.4-9.4 1.9-23.8 4.6-32 6.1-8.3 1.4-16 2.8-19.5 3.5v-746h124.5c82.3 0 124.5-0.3 124.5-1 0-0.5 10.4-68.6 23-151.3 12.7-82.6 23.2-151.4 24-155.7h-296l0.1-106.3c0.1-58.4 0.5-110.5 1-115.7 0.5-5.2 1.8-14.5 3-20.5 1.1-6 3.6-16 5.6-22 1.9-6 5.5-15 7.8-20 2.4-5 6.2-11.9 8.5-15.5 2.4-3.6 7.1-9.9 10.5-14 3.4-4.1 9.5-10.4 13.6-13.9 4.1-3.6 10.8-8.7 14.9-11.4 4.1-2.7 11.6-6.8 16.5-9.2 4.9-2.4 13.7-6 19.5-7.9 5.8-1.9 16.1-4.6 23-6 6.9-1.4 16.1-2.8 20.5-3.2 4.4-0.4 8.7-0.8 9.5-1 0.8-0.1 35.9-0.3 154.5-0.4v-130.9c0-72-0.2-131.1-0.5-131.4-0.3-0.3-12-2.1-26-4.1-14-2-33.2-4.5-42.5-5.6-9.4-1.1-18.8-2.2-21-2.4-2.2-0.3-7.2-0.8-11-1.1-3.9-0.4-8.1-0.8-9.5-1-1.4-0.2-6.6-0.7-11.5-1-4.9-0.4-10.1-0.8-11.5-1-1.4-0.2-7.4-0.7-13.5-1.1-6.1-0.3-12.1-0.8-13.5-0.9-1.4-0.2-10.2-0.7-19.5-1.2-9.4-0.4-33.2-0.8-53-0.8-19.8 0-41.6 0.4-48.5 0.8-6.9 0.5-12.7 1-13 1.2-0.3 0.1-3.9 0.6-8 0.9-4.1 0.4-15.4 2-25 3.7-9.6 1.6-24.9 4.7-34 7-9.1 2.2-22.4 6-29.5 8.4-7.2 2.3-17.3 5.9-22.5 8-5.2 2-16.5 7.1-25 11.2-8.5 4.1-21.1 10.8-28 14.9-6.9 4.1-16.4 10.3-21.2 13.7-4.8 3.4-12.4 9.2-17 12.8-4.6 3.6-12.1 10.1-16.7 14.5-4.7 4.3-11.7 11.3-15.7 15.4-4 4.1-10.4 11.3-14.3 16-3.9 4.7-10.7 13.5-15 19.5-4.4 6-10.9 16-14.6 22-3.6 6-10.2 18.2-14.6 27-4.4 8.8-10.3 21.9-13.1 29-2.8 7.1-6.8 18.4-9 25-2.1 6.6-5.9 20.1-8.3 30-2.5 9.9-5.8 25.9-7.4 35.5-1.6 9.6-3.6 24.3-4.5 32.5-0.8 8.3-1.8 20.2-2.2 26.5-0.3 6.3-0.7 13.5-0.9 16-0.1 2.5-0.3 61.5-0.5 258h-271v308h271l0.5 745.9-2.5-0.5c-1.4-0.2-9.3-1.6-17.5-3-8.3-1.4-23.6-4.3-34-6.5-10.5-2.2-28-6.3-39-9-11-2.8-27.9-7.3-37.5-10-9.6-2.8-25.2-7.6-34.5-10.6-9.4-3-26.7-9.1-38.5-13.5-11.8-4.4-29.2-11.2-38.5-15-9.4-3.9-24.3-10.4-33.3-14.4-8.9-4.1-25.3-12-36.5-17.5-11.1-5.6-26.3-13.5-33.7-17.6-7.4-4.2-17.8-10-23-13.1-5.2-3-12.7-7.4-16.5-9.7-3.9-2.3-12.2-7.5-18.5-11.5-6.3-4-19.2-12.4-28.5-18.8-9.4-6.3-22.9-15.8-30-21-7.2-5.2-18.9-14-26-19.6-7.2-5.5-19.8-15.7-28-22.6-8.3-6.8-21.1-17.8-28.5-24.4-7.4-6.6-24.7-23-38.3-36.5-13.7-13.6-30.7-30.9-37.7-38.6-7-7.7-17.6-19.6-23.5-26.5-5.9-6.9-16.2-19.2-22.8-27.5-6.6-8.2-17-21.7-23.2-30-6.1-8.2-15.7-21.5-21.2-29.5-5.6-8-14.7-21.7-20.4-30.5-5.6-8.8-14.1-22.5-18.9-30.5-4.8-8-12-20.3-16-27.5-4-7.2-12.8-23.8-19.5-37-6.6-13.2-15.3-31-19.2-39.5-3.9-8.5-10.3-23.4-14.3-33-4-9.6-10.3-25.6-14-35.5-3.7-9.9-10.1-28.3-14.3-41-4.2-12.7-9.6-30.2-12.1-39-2.5-8.8-6.5-24.1-9-34-2.5-9.9-6.1-25.2-8-34-1.9-8.8-5.1-25-7-36-2-11-4.5-26.3-5.6-34-1.1-7.7-2.2-15.7-2.5-17.7-0.3-2.1-0.7-5.5-1-7.5-0.2-2.1-0.9-8.3-1.5-13.8-0.6-5.5-1.2-11.8-1.5-14-0.2-2.2-0.7-8-1.1-13-0.3-5-0.7-9.9-0.9-11-0.2-1.1-0.7-9-1.2-17.5-0.4-8.5-0.8-36.2-0.8-61.5 0-25.3 0.4-53 0.8-61.5 0.5-8.5 1-16.4 1.2-17.5 0.2-1.1 0.6-6 0.9-11 0.4-5 0.9-10.8 1.1-13 0.3-2.2 1.2-10.5 2-18.5 0.9-8 3-23.7 4.6-35 1.7-11.3 4.6-28.8 6.5-39 1.9-10.2 5-25.5 6.9-34 1.8-8.5 5-22 7-30 2-8 6.1-23.3 9.1-34 3-10.7 9.3-30.7 13.8-44.5 4.6-13.7 11.6-33.3 15.5-43.5 3.9-10.2 11.3-28.2 16.4-40 5-11.8 16-35.2 24.3-52 8.4-16.8 19.1-37.5 23.9-46 4.8-8.5 12.8-22.2 17.8-30.5 4.9-8.2 15.8-25.3 24.2-38 8.4-12.6 21-30.9 28-40.5 7-9.6 18.9-25.1 26.3-34.5 7.5-9.3 17.4-21.5 22.1-27 4.7-5.5 13.9-16.1 20.5-23.5 6.6-7.4 24.2-25.7 39.1-40.5 14.8-14.9 33.1-32.5 40.5-39.1 7.4-6.6 18-15.8 23.5-20.5 5.5-4.7 17.6-14.6 27-22.1 9.3-7.4 24.6-19.1 34-25.9 9.3-6.8 24.4-17.4 33.5-23.5 9.1-6.1 22.8-15.1 30.5-19.9 7.7-4.8 22.5-13.7 33-19.8 10.4-6.1 29.6-16.5 42.5-23.1 12.9-6.6 30-15.1 38-18.9 8-3.8 23.3-10.6 34-15.1 10.7-4.6 27.4-11.4 37-15.1 9.6-3.7 28.7-10.5 42.5-15.1 13.7-4.5 33.8-10.8 44.5-13.8 10.7-3 27.8-7.6 38-10.1 10.2-2.5 30.6-7 45.5-10 14.8-2.9 34.4-6.5 43.5-7.9 9.1-1.4 18.3-2.7 20.5-3 2.2-0.3 9.2-1.2 15.5-2 6.3-0.8 14.6-1.8 18.5-2.1 3.8-0.4 7.9-0.8 9-1 1.1-0.1 6.5-0.6 12-1 5.5-0.3 10.9-0.8 12-1 1.1-0.2 8.7-0.6 17-1 8.2-0.4 15.2-0.9 15.4-1.1 0.3-0.3 24.6-0.3 54 0z"/>
</svg>