<svg version="1.2" xmlns="http://www.w3.org/2000/svg" viewBox="0 0 683 478" width="683" height="478">
	<title>image</title>
	<style>
		.s0 { fill: #ffffff } 
	</style>
	<g id="Background">
		<path id="Path 0" fill-rule="evenodd" class="s0" d="m590.5 0.5l9.5 2.7c5.2 1.4 12 3.5 15 4.7 3 1.1 9.1 4.2 13.5 6.8 4.8 2.8 11.2 7.9 16.1 12.7 4.5 4.5 10.3 11.5 13 15.6 2.6 4.1 6.7 11.5 9 16.5 2.4 5 4.6 10.3 4.9 12 0.4 1.7 1.7 6.4 3 10.5 1.3 4.1 3 11.1 3.9 15.5 0.9 4.4 2.3 15.2 3.1 24 1.2 13 1.5 33.4 1.4 109 0 51.1-0.4 102-0.8 113-0.6 15.6-1.4 22.9-3.5 33-1.5 7.1-4.3 17.7-6.2 23.5-1.9 5.8-5.9 15.4-8.9 21.5-3.2 6.5-8 14.1-11.7 18.7-3.5 4.2-8.6 9.6-11.3 12-2.8 2.4-6.8 5.7-9 7.4-2.2 1.6-6.3 4.2-9 5.6-2.8 1.4-7.9 3.8-11.5 5.2-3.6 1.5-11.5 3.5-17.5 4.6-10.5 1.8-18.3 1.9-190 2.2-98.4 0.2-205.1 0.1-237 0-40.7-0.3-60.5-0.8-66.5-1.7-4.7-0.7-12.8-2.7-18-4.4-5.2-1.8-13.3-5.3-17.9-7.9-4.6-2.6-12-7.9-16.5-11.8-4.4-3.9-11-10.6-14.5-15-3.5-4.3-8.1-10.8-10.2-14.4-2.1-3.6-5.7-10.8-8-16-2.2-5.2-5.6-14.9-7.4-21.5-1.8-6.6-4.3-18.1-5.4-25.5-2.2-13.3-2.2-14.9-1.9-125.5 0.3-110.5 0.4-112.1 2.5-123 1.2-6 3.8-16.6 5.8-23.5 2-6.9 5.4-16.3 7.6-21 2.2-4.7 7-13 10.7-18.5 3.6-5.5 9.8-13.1 13.7-17 3.9-3.8 10.4-9.2 14.5-12 4.1-2.7 10.9-6.5 15-8.3 4.1-1.9 11.8-4.6 17-5.9 6.1-1.6 14.3-2.7 23-3.2 7.4-0.5 118.6-0.8 480.5-0.6zm-318.4 202c0.1 24.2 0.4 64.6 0.8 89.7 0.3 25.1 0.8 45.9 1.1 46.3 0.3 0.3 6.8-2.7 14.5-6.6 7.7-4 18.5-9.5 24-12.4 5.5-2.8 22.6-11.8 38-19.9 15.4-8.2 41.5-21.9 58-30.6 16.5-8.7 34-18 38.8-20.6 8.3-4.6 8.8-5 7-6.4-1-0.8-10.4-6.1-20.8-11.7-10.5-5.5-42.4-22.2-71-37.1-28.6-14.8-58.5-30.4-66.5-34.7-8-4.2-16.1-8.3-18-9.1-1.9-0.8-3.8-1.4-4.1-1.4-0.4 0-0.9 2.4-1.3 5.3-0.3 2.8-0.5 25-0.5 49.2z"/>
	</g>
</svg>