<svg version="1.2" xmlns="http://www.w3.org/2000/svg" viewBox="0 0 1468 1500" width="1468" height="1500">
	<title>marx-svg</title>
	<style>
		.s0 { fill: #7f7f7f } 
		.s1 { fill: #ffffff } 
		.s2 { fill: #000000 } 
	</style>
	<g id="Background">
		<path id="Path 0" class="s0" d="m661 0.1c6.9-0.1 9.6 0.3 14.5 2.3 3.3 1.3 20.9 7.9 39 14.6 18.1 6.7 38.2 14.2 44.5 16.5 6.3 2.3 19.9 7.3 30.3 11.1 10.3 3.8 18.7 7.2 18.7 7.6 0 0.5-4.4 0.8-9.8 0.8-5.3 0-30.4-0.7-55.7-1.5-25.3-0.8-56.1-1.8-91-2.8l-11 91.8-86.5 34.7c-47.6 19-87.1 34.7-87.8 34.7-0.7 0.1 0.3-3.3 2.8-9.2 2.1-5 8.2-19.3 13.4-31.7 5.1-12.4 9.3-22.6 9.2-22.7 0-0.1-15.2 4.6-67.1 21.3l-8.6 9c-4.7 4.9-19.1 20.1-32 33.9-12.9 13.7-27.7 29.5-32.9 35-5.2 5.5-19.6 20.8-32 34-12.4 13.2-30.7 32.6-40.8 43.2-10 10.6-18.2 20.1-18.2 21 0 1 0.9 6.3 2 11.8 1.1 5.5 2.2 11.1 2.5 12.5 0.6 2.3 3.5-0.4 65.4-62.5l22.8 8.9c12.5 4.9 23.5 9.1 24.3 9.3 0.9 0.3 7.3-6 17.5-17.4 8.8-9.8 20.5-22.8 26-28.8 5.5-6.1 14.1-15.5 28.2-31l6.3 25.5c3.4 14 9.4 38.9 20.5 84.9l-15.8 9.3c-8.7 5.1-15.4 9.6-15 10 0.4 0.3 7.4 2.7 15.5 5.2 8.2 2.5 14.8 5 14.8 5.6 0 0.5-7.1 12.1-15.8 25.7-8.7 13.7-19.7 30.9-24.5 38.3-4.7 7.4-8.8 14.2-9.1 15-0.5 1.3 0.3 1.4 5.6 0.8 3.5-0.3 13.9-1.4 23.3-2.3 9.4-0.9 22.7-2.3 29.7-3.1 7.1-0.8 14.3-1.4 16-1.4 2.4 0 7.5 2.6 18.8 9.6 8.5 5.3 26.1 16.1 62.5 38.7l87.7-14.7c48.3-8 88.6-14.6 89.5-14.6 1 0 19.6 7.1 41.3 15.9 21.7 8.7 55.9 22.5 76 30.6 20.1 8.2 39.5 16 43.2 17.4 3.6 1.4 7.1 3.1 7.7 3.6 0.5 0.5 6.9 13.4 14.1 28.5 7.1 15.1 12.7 27.8 12.3 28.2-0.5 0.3-6.9 4.3-14.3 8.9-7.4 4.5-18 10.9-23.5 14.2-9.8 5.9-10.1 6-13.5 4.7-1.9-0.7-9.8-3.7-17.5-6.8-7.7-3-17.6-6.7-22-8.3-4.4-1.6-8.2-3.1-8.5-3.4-0.3-0.3 0.5-0.5 1.7-0.5 1.3 0 12.5 1.4 25 3 12.6 1.6 24.4 3.2 26.3 3.5 1.9 0.3-21.5-10.2-52-23.3-30.5-13.1-67-28.7-81-34.6-14-6-26-11.2-26.5-11.6-0.6-0.5 0-1.4 1.5-2.3 1.4-0.8 13.5-8.1 27-16.3 13.5-8.1 26.2-15.8 32-19.4l-12.3-8.8c-6.7-4.8-12.8-9.1-13.5-9.5-0.6-0.4-11 1.1-23 3.4-11.9 2.2-35.7 6.6-52.7 9.9-17 3.2-38.6 7.3-48 9-9.4 1.7-17.9 3.4-19 3.6-1.7 0.5-0.1 2.5 10 12.7 6.6 6.7 16.8 17.2 22.5 23.2 5.8 6.1 16.4 17 36.5 37.7l29.5 3.9c16.2 2.1 39.5 5.2 51.7 6.9 12.3 1.6 23.8 3 28.8 3.2l-3 0.9c-1.6 0.5-8.2 5.3-14.6 10.6-6.4 5.4-16.5 13.9-22.5 19-6.2 5.2-11.3 8.8-11.9 8.4-0.5-0.4-14.5-10.9-31-23.1-16.5-12.3-46.8-34.9-67.3-50.2-20.4-15.3-37.5-27.8-38-27.8-0.4 0-9.7 21-40.9 93.5l-183.3 0.5v3.2c0 1.8 2.3 30.3 5 63.3 2.8 33 5.2 60.1 5.3 60.1 0.1 0.1 8.8 2.2 19.2 4.7 10.5 2.6 25.7 6.2 34 8.2 8.2 1.9 22.6 5.3 32 7.5 9.4 2.2 17.2 3.7 17.5 3.4 0.3-0.3 4-11.7 8.2-25.3 4.3-13.5 7.7-24.7 7.5-24.7-0.1-0.1-4 1.4-8.7 3.3-4.7 1.9-15.5 6.4-24 9.9-8.5 3.6-15.6 6.4-15.7 6.2-0.2-0.2 16.5-16.5 37-36.4 20.4-19.8 38.9-37.5 44.7-42.4l6.7 4.8c3.8 2.7 23.7 17.4 44.3 32.6 20.6 15.3 37.7 28 38 28.3 0.3 0.3-0.9 0.3-2.5-0.1-1.6-0.4-17.9-5.4-36-11.2-18.1-5.8-33.9-10.9-35-11.4-1.8-0.7-4 1.9-18.9 21.8-9.3 12.5-21.5 28.9-27 36.4-8.5 11.5-10.7 13.9-13.6 14.7-1.9 0.6-8.7 2.1-15 3.5-6.3 1.3-27.3 5.9-46.5 10.1-19.3 4.2-40.1 8.7-46.3 10-6.1 1.4-16.3 3.6-22.5 5-6.1 1.4-11.9 2.5-12.7 2.5-0.8 0 7-6.7 17.5-15 10.4-8.4 19.3-15.5 19.7-15.8 0.4-0.4-9.6-39.4-22.1-86.7-12.5-47.3-22.7-86.1-22.7-86.3 0.1-0.1 3.7-0.7 8.1-1.2 4.4-0.5 42.2-4.4 84-8.5 41.8-4.2 86.6-8.6 99.5-10 19.8-2 23.7-2.7 24.8-4.2 0.7-1 7.5-13.5 15-27.8 7.5-14.2 13.8-26.3 13.9-26.7 0.2-0.4-25.2-13.5-113.2-57.4l-54 9.2c-29.7 5.1-54.6 9.3-55.3 9.4-0.9 0-1.2-10.5-1.2-49.3 0-27-0.1-49-0.4-48.7-0.3 0.3-15.1 66.4-33 147-17.8 80.6-33.2 149.9-34 154-0.9 4.1-4.5 20.3-14.4 64.5l10.5 26.5c5.8 14.6 10.8 26.8 11.2 27.3 0.3 0.4 8.9-1 19.1-3.2 10.2-2.1 18.5-3.8 18.6-3.7 0.1 0-15.6 18.8-34.8 41.6-19.2 22.8-34.7 42-34.5 42.5 0.2 0.5 10.3 16.3 22.4 35 12.1 18.7 30.2 46.8 40.3 62.5 10 15.7 18.9 29.2 19.6 30 1.3 1.3 4 1.1 24.1-2.3 12.6-2.1 23.4-4 24-4.2 0.9-0.3-1.3-5.6-6.7-16.5-4.4-8.8-7.9-16-7.8-16 0.2 0 3.9 0.7 8.3 1.5 4.4 0.8 18.6 3.3 31.5 5.5 12.9 2.3 26.4 4.6 30 5.1 3.6 0.6 6.8 0.9 7.2 0.7 0.4-0.2-4.5-7.7-10.8-16.8-6.3-9.1-11.4-16.7-11.4-17 0-0.3 12.5-0.8 27.7-1.3 15.3-0.4 43.1-1 95.8-2l6.5 23.7c3.6 13 6.7 23.6 7 23.6 0.3 0 3.9-6.8 8-15.1 4.1-8.3 7.8-15.3 8.2-15.5 0.5-0.2 8.6 0.9 18 2.6 9.5 1.6 27.9 4.8 40.8 7 12.9 2.3 32.5 5.7 43.5 7.5 11 1.9 33 5.7 49 8.5 16 2.7 41.2 7.2 56.2 9.8 15 2.6 27.4 4.5 27.6 4.2 0.2-0.3 8.8-13 19.1-28.3 10.2-15.2 18.5-27.9 18.3-28.1-0.1-0.2-13.7-7.9-30.2-17.1-16.5-9.3-36.3-20.3-44-24.5-7.7-4.3-16.2-9-18.8-10.6-4.4-2.7-8-7.7-43.6-61.4-21.4-32.2-38.7-58.6-38.5-58.8 0.2-0.1 5.9 3.8 12.6 8.8 6.8 4.9 24.7 18.1 39.8 29.3 24.9 18.4 28.4 20.7 37 23.9 5.2 2 28.7 11.1 52.2 20.2 23.6 9.1 43.5 16.6 44.3 16.6 0.8 0 9.9-5.2 20.2-11.6 10.4-6.4 22.8-14.1 27.8-17.1 5-2.9 9.1-5.3 9.2-5.1 0 0.2-1 10-2.2 21.8-1.3 11.8-2.6 23.1-3.3 28.5l24.4 7c18.5 5.3 24.1 7.3 23.2 8.1-0.7 0.6-9 8.2-18.3 16.9-9.3 8.7-18.6 17.2-24 22.3l18.2 18.1c10.1 9.9 18.2 18.3 18 18.6-0.1 0.2-21.4-6.6-47.4-15.3-25.9-8.6-47.3-15.5-47.6-15.2-0.2 0.3 0 13.3 0.4 29 0.4 15.7 1 35.1 1.3 43.2 0.4 9.6 0.2 14.8-0.4 14.8-0.5 0-4.1-6.3-8-14-5.1-10.2-7.4-13.8-8.3-13.3-0.7 0.5-10.4 7.8-21.6 16.3-11.1 8.5-21 16-21.9 16.7-1.5 1-5.1-1.7-25.7-19.4-13.2-11.3-25.4-21.6-27-22.9-3-2.4-3.1-2.4-10.5-0.9-4.1 0.7-19.4 3.7-34 6.5-14.6 2.8-31 5.9-36.5 7-5.5 1.1-18.5 3.5-29 5.5-10.5 2-19.5 3.4-20 3.2-0.5-0.2-9.8-6.8-20.5-14.6-10.7-7.8-19.8-13.9-20.2-13.4-0.4 0.4-7.8 13.1-32.3 55.6l-31 8.2c-17 4.5-46.5 12.3-65.5 17.4-19 5-35.5 9.1-36.8 9.1-1.2 0-16-2.3-33-5-16.9-2.7-41.7-6.8-55.2-9-13.5-2.2-31.5-5-40-6.4-8.5-1.4-24.1-3.9-34.5-5.6-10.5-1.6-19.1-2.9-19.3-2.7-0.1 0.1 4.4 9 20.4 39.2l6.5-0.3c3.5-0.2 21.7-1.9 40.4-3.7 18.7-1.9 34.3-3.1 34.6-2.7 0.3 0.4 3.4 10.5 7 22.4 4.2 14.4 6.1 22.1 5.4 22.8-0.6 0.5-12.5 5.5-26.5 11-14 5.6-25.6 10.3-25.8 10.6-0.1 0.2 2.3 2.8 5.3 5.6 3.1 2.9 21.7 20.4 41.5 38.8 19.7 18.4 35.9 33.7 35.9 34 0 0.3-14.4 9.4-31.9 20.2-28.2 17.5-32 20.1-32 22.3 0 1.4 0.9 12.1 2 23.7 1.1 11.7 2.3 22.9 3.1 28.3l5.8-8c3.2-4.4 9.8-13.5 23.6-32.4l17 25c9.4 13.8 17.5 25.8 18.2 26.7 0.6 0.9 1.4 1.5 1.7 1.2 0.3-0.3-7.8-15.2-18-33.3-10.1-18-18.3-32.9-18.2-33.1 0.2-0.2 24.3-6.4 53.7-13.7 29.4-7.4 53.5-13.9 53.7-14.4 0.2-0.5 1.5-17.2 2.9-37 1.4-19.8 2.7-36.3 2.8-36.7 0.1-0.3 9.2 3.6 20.2 8.7 18.2 8.5 20 9.6 19.7 11.7-0.2 1.3-1.9 11.1-3.8 21.8-1.9 10.7-3.4 19.8-3.4 20.2 0 0.5 0.6 0.8 1.2 0.8 0.7 0 10.4-2.7 21.5-6 11.2-3.3 21-6 21.8-6 1.1 0 1.5 1.1 1.5 4.2 0 2.4 0.5 13.8 1.1 25.3 0.6 11.5 1 21.5 0.8 22.2-0.3 0.8-2.7 0.2-7.4-1.9-3.9-1.6-11.6-5-17.3-7.4-5.6-2.4-10.2-3.9-10.2-3.4 0 0.5 12.5 14.6 27.8 31.2 15.4 16.7 27.4 30.5 26.8 30.7-0.6 0.1-4-0.4-7.6-1.3-3.6-0.9-15.5-3.6-26.5-6.1-11-2.6-23.6-5.5-28-6.5-4.4-1-15.1-3.6-23.7-5.7-8.7-2.1-16.1-3.4-16.5-3-0.4 0.5 0.3 14.3 1.7 30.7 1.4 16.4 2.7 30 3 30.3 0.3 0.3 20.3-0.1 44.5-0.9 24.2-0.7 44.2-1.2 44.5-1 0.3 0.2 6.4 8.5 13.5 18.5 7.1 9.9 13.3 18.1 13.7 18.1 0.5 0 7.2-8.2 15-18.3 11.6-14.9 14.3-17.8 14.8-16.2 0.4 1.1 2.9 16.7 5.6 34.8 2.7 18 5.2 32.7 5.6 32.7 0.5 0 11.3-4.1 24-9.1 12.8-4.9 23.4-9.2 23.5-9.5 0.2-0.2-0.9-1.6-2.3-3.2-1.4-1.5-9.2-15.7-17.1-31.7-8-16-15-30.1-15.5-31.5q-0.9-2.4 0-1.5c0.6 0.5 8.3 11.8 17.2 25 8.9 13.2 16.7 24.5 17.4 25.2 0.8 0.9 3.7-3 22.6-33.7l15.2 8c8.4 4.4 22.4 11.7 31 16.3 12 6.2 15.5 8.5 14.5 9.3-0.6 0.6-22.1 13.8-47.7 29.4-25.6 15.6-47 28.5-47.5 28.7-0.5 0.2-16.5-3.2-35.5-7.7-19-4.5-39.2-9.3-45-10.7-5.8-1.3-11-2.3-11.7-2.1-0.6 0.1-6.7 5.2-13.5 11.3-6.8 6-18.7 16.7-40.8 36.5h-16.5l-32.5-27 13-21.8c7.1-11.9 13-22.3 13-23 0-0.7-0.9-1-2.3-0.8-1.2 0.3-9.8 1.4-19.2 2.6-9.4 1.2-17.1 2.3-17.3 2.4-0.2 0 3.8 14.9 8.7 33.1 5 18.2 9.1 33.3 9.1 33.7 0 0.5-1.4 0.8-3 0.8-1.9 0-6-1.8-10.8-4.9-4.2-2.6-14.7-9.1-23.2-14.3-8.5-5.2-26.8-16.3-40.5-24.7-13.8-8.4-30-18.4-36-22.1-6.1-3.7-18.1-11.1-26.8-16.4-8.6-5.3-22.6-13.8-31-18.9-8.3-5.2-18.1-11.2-21.6-13.3-3.5-2.2-6.5-4.1-6.6-4.4-0.2-0.3-0.9-5.7-2.9-23.5l-6.5-6.1c-3.6-3.3-16.1-14.6-27.6-25-11.6-10.4-32.3-29-46-41.3-13.8-12.3-25.7-23.1-26.6-24-1.6-1.5-1.5-3 1.1-21.6 1.5-11 2.7-20.1 2.6-20.2-0.1-0.1-14.1-2-31.1-4.2-17.1-2.3-31.1-4.2-31.1-4.4-0.1-0.1-4.7-21.1-10.3-46.7-5.7-25.6-10.4-47.5-11.1-51h32c24.6 0 32.1 0.3 32.5 1.2 0.3 0.7-0.1 16.6-0.8 35.3-0.8 18.7-1.4 34.1-1.3 34.1 0 0.1 8.4-1.1 18.6-2.6 10.2-1.5 25.4-3.8 33.7-5.1 8.4-1.3 15.3-2.7 15.3-3.2 0-0.4-7.3-3-16.3-5.8-8.9-2.8-19.8-6.3-32.4-10.4l11.9-29c6.6-16 11.8-29.3 11.6-29.6-0.2-0.3-7.7 0.5-16.8 1.7-9.1 1.3-16.9 2-17.3 1.6-0.4-0.4 1.2-1.5 3.5-2.4 4.1-1.6 4.5-2.2 9.8-13.8 3-6.6 5.5-12 5.5-12 0 0 4.9 1.5 11 3.4 6 1.9 11.1 3.1 11.3 2.7 0.2-0.3-1.6-6.9-3.9-14.6-2.3-7.7-4.7-14.5-5.3-15.1-0.6-0.7-3.8-2.1-7.1-3.2-3.3-1.1-16.8-6-30-10.7-13.2-4.8-25.5-9.2-27.3-9.9-3.1-1.1-3.2-1.3-3.2-6.1 0-2.8 0.7-24.6 2.8-92l-7.1-7.5c-4-4.1-25.7-26.6-48.2-50-22.6-23.4-53.2-55-68-70.3-14.9-15.3-28.6-29.7-33.9-36.2l-2.6-32.7c-1.4-18.3-2.1-33-1.6-33.5 0.4-0.4 10.8-2.5 23-4.6 12.1-2.1 22.1-3.9 22.2-4 0.1-0.1 8.3-22.9 18.4-50.7 10.1-27.8 20.5-56.4 27.9-76.5l10.3-8.5c5.7-4.7 26.1-21.4 45.4-37.1 19.2-15.8 35.2-29.5 35.5-30.5 0.3-1.1 14.4-51 62.1-219.9l5.7-5.5c3.1-3 11.5-10.9 18.6-17.4 7.2-6.6 20.6-19 30-27.5 9.4-8.6 20.4-18.5 24.5-22 4.1-3.5 8.9-7 10.5-7.7 1.6-0.8 32.7-12.9 69-26.9 36.3-14.1 67.4-26.1 69-26.7 1.6-0.6 3.3-1.5 3.7-2 0.5-0.4-8.3-11-19.5-23.4-11.1-12.4-21.7-24.3-23.5-26.5-2.3-2.8-2.8-4.1-2-4.6 0.7-0.3 11.7-2.1 24.3-4 12.6-1.8 24.2-3.5 28.5-4.3v-35l5.2-1c2.9-0.5 39-7.3 80.3-15 41.2-7.7 76.8-14.4 79-14.9 2.2-0.5 7.8-0.9 12.5-1z"/>
		<path id="Path 1" class="s1" d="m651.5 48.7l22.5 0.7c12.4 0.3 43.6 1.3 69.5 2.2 25.9 0.8 51.5 1.4 57 1.4 5.5 0 15.2 0.3 33 1.3l7.5 6.4c4.1 3.5 9.8 8.4 12.5 10.8 2.8 2.4 7.3 6.3 10.1 8.7 2.7 2.4 13.1 11 22.9 19.3 9.8 8.2 21.1 17.8 32 27.4l2-2.3c1.1-1.2 5.5-7.3 9.8-13.4 5.9-8.7 8.2-11.2 10-11.2 1.2 0 12.8 3.6 25.7 7.9 16.5 5.5 24.5 7.8 27 7.5 1.9-0.2 10.3-0.8 18.5-1.3 8.3-0.5 15.6-0.7 16.3-0.5 0.6 0.2 1.2 0.8 1.2 1.4 0 0.6 7.6 11.5 16.8 24.2 9.3 12.8 31.9 44 50.2 69.3 18.3 25.3 38.7 53.4 45.3 62.5 6.6 9.1 14.4 19.6 17.2 23.5 2.8 3.9 6.3 8.2 7.8 9.8 1.5 1.5 2.7 3.1 2.7 3.7 0 0.6 1.1 1.9 5 5v38.5l42.8 53.5c34 42.5 44.2 54.6 49.7 59.1 3.9 3 13.3 10.6 21 16.7 7.7 6.1 17.4 14.6 21.5 18.9 4.2 4.3 9.5 9 11.8 10.6 2.3 1.5 7.2 5.1 11 8.1 5.6 4.6 8.2 7.8 16 20 5 8 13.5 23.3 18.8 33.9 5.3 10.5 10 19.7 10.5 20.2 0.5 0.5 0.6 1.3 0.2 1.8-0.3 0.4-0.2 0.7 0.3 0.7 0.5 0 1 1 1.1 2.3 0.1 1.2 9 22 19.8 46.2 10.7 24.2 19.4 44.1 19.3 44.2-0.2 0.2-6.4-3.8-13.8-8.8-7.4-5-33.3-22.4-57.5-38.7-24.2-16.3-50.5-34-58.5-39.4-8-5.4-14.6-9.4-14.8-8.8-0.1 0.5 1.3 3.4 3.2 6.3 1.8 2.8 17.3 26.5 34.5 52.5 17.1 25.9 31.1 47.4 31.1 47.7 0 0.3-1.2 0-2.8-0.6-1.5-0.6-16.2-7-32.7-14.4-16.5-7.3-35.3-15.6-41.8-18.4-6.4-2.8-12-5.1-12.5-5.1-0.4 0-1.8 11.1-3.1 24.7-1.3 13.7-2.6 26.2-3.6 31l-21-18.9c-11.5-10.3-21.8-19.3-22.8-19.8-1.5-0.9-3.4 1.9-28.5 44.5l-17.4-34.7c-9.5-19.1-17.1-35-16.8-35.3 0.3-0.2 12.4-5 27-10.5 14.6-5.6 26.9-10.4 27.3-10.8 0.4-0.4-3.6-3.2-9-6.3-5.4-3.1-15.2-8.6-21.8-12.2-6.6-3.6-20.5-11.3-31-17-10.5-5.8-19.3-10.3-19.8-10.1-0.4 0.2 2.2 9.1 5.8 19.6 3.5 10.6 6.3 19.4 6.2 19.6-0.1 0.1-5.4 0.7-11.7 1.2-6.3 0.5-13.5 1.1-20.2 1.5l-18.2-27c-10-14.9-25.2-37.5-33.9-50.3-8.6-12.7-16-23.1-16.5-23-0.4 0.2-0.6 0.8-0.4 1.3 0.2 0.5 5.5 12.9 23.1 54l-13.4 31.7c-7.4 17.5-13.5 32-13.5 32.3 0 0.3 9.6 8.2 21.2 17.6 11.7 9.4 21.4 17.5 21.5 18 0.2 0.5-4.5-2.1-10.5-5.8-5.9-3.6-16-9.9-22.5-14-6.4-4-11.9-7.2-12.1-7.1-0.3 0.2-12.5 33.2-27.1 73.3-14.7 40.1-29.1 79.8-32.1 88-3 8.2-5.4 15.6-5.4 16.2 0 0.7 2.4 2 5.2 2.8 2.9 0.8 29.8 8.4 59.8 17 30 8.5 57.3 16.3 60.7 17.2 3.5 1 6.5 2.3 6.7 2.8 0.2 0.5 21.8 52.5 48.1 115.5 26.3 63 48.3 115.4 49 116.5 0.7 1.1 5.4 15 10.5 31 5 16 12.6 40.1 16.8 53.7 7.3 23.4 7.6 24.7 5.7 25.2-1.1 0.3-13.7 2.1-28 4.1-14.3 2.1-26.2 3.9-26.5 4.2-0.3 0.2 2.5 15.6 6.2 34.1 5 25.2 6.4 33.9 5.5 34.4-0.7 0.4-18.1 6.8-38.7 14.3-20.6 7.4-38.2 14.1-39.1 14.7-1.2 1-3.5 11-15 70.3l-7.7 0.7c-4.2 0.3-20.3 1.6-63.7 5l-21.5-5.1c-11.8-2.8-27.3-6.4-34.5-8-7.1-1.6-13.5-2.7-14-2.4-0.5 0.4-3.7 2.8-13 10l-19 2.7c-18.5 2.6-19.4 2.9-34.5 9.2-13.5 5.6-16.2 7.1-21.2 11.9-4.2 4-6.6 5.5-8.5 5.5-1.6 0-8.7-0.7-15.8-1.5-7.1-0.8-15.7-2-19-2.6-4.3-0.8-11.9-4.2-27-12.1-11.5-6.1-25.6-13.5-41.5-21.8l-10.7 17.5c-8.2 13.2-11.1 17.1-11.9 16.2-0.7-0.7-8.5-12-17.4-25.2-8.9-13.2-16.6-24.5-17.2-25q-0.9-0.9 0 1.5c0.5 1.4 7.5 15.5 15.5 31.5 7.9 16 15.7 30.2 17.1 31.7 1.4 1.6 2.5 3 2.3 3.2-0.1 0.3-10.7 4.6-23.5 9.5-12.7 5-23.5 9.1-24 9.1-0.4 0-2.9-14.7-5.6-32.7-2.7-18.1-5.2-33.7-5.6-34.8-0.5-1.6-3.2 1.3-14.8 16.2-7.8 10.1-14.5 18.3-15 18.3-0.4 0-6.6-8.2-13.7-18.1-7.1-10-13.2-18.3-13.5-18.5-0.3-0.2-20.3 0.3-44.5 1-24.2 0.8-44.2 1.2-44.5 0.9-0.3-0.3-1.6-13.9-3-30.3-1.4-16.4-2.1-30.2-1.7-30.7 0.4-0.4 7.8 0.9 16.5 3 8.6 2.1 19.3 4.7 23.7 5.7 4.4 1 17 3.9 28 6.5 11 2.5 22.9 5.2 26.5 6.1 3.6 0.9 7 1.4 7.6 1.3 0.6-0.2-11.4-14-26.8-30.6-15.3-16.7-27.8-30.8-27.8-31.3 0-0.5 4.6 1 10.3 3.4 5.6 2.4 13.3 5.8 17.2 7.4 4.8 2.1 7.1 2.7 7.4 1.9 0.2-0.7-0.2-10.7-0.8-22.2-0.6-11.5-1.1-22.9-1.1-25.3 0-3.1-0.4-4.2-1.5-4.2-0.8 0-10.6 2.7-21.8 6-11.1 3.3-20.8 6-21.4 6-0.7 0-1.3-0.3-1.3-0.7 0-0.5 1.5-9.6 3.4-20.3 1.9-10.7 3.6-20.5 3.8-21.8 0.3-2.1-1.5-3.2-19.7-11.7-11-5.1-20.1-9-20.2-8.7-0.1 0.4-1.4 16.9-2.8 36.7-1.4 19.8-2.7 36.5-2.9 37-0.2 0.5-24.3 7-53.7 14.4-29.4 7.3-53.5 13.5-53.6 13.7-0.2 0.2 8 15.1 18.1 33.1 10.2 18.1 18.3 33 18 33.3-0.3 0.3-1.1-0.2-1.7-1.2-0.7-0.9-8.8-12.9-35.2-51.7l-5.6 7.7c-3.1 4.2-9.7 13.3-23.8 32.7l-0.5-3.5c-0.3-1.9-1.5-13.1-2.6-24.8-1.1-11.6-2-22.3-2-23.7 0-2.2 3.8-4.8 32-22.3 17.5-10.8 31.9-19.9 31.9-20.2 0-0.3-16.2-15.6-35.9-34-19.8-18.4-38.4-35.9-41.5-38.8-3-2.8-5.4-5.4-5.2-5.6 0.1-0.3 11.7-5 25.7-10.6 14-5.5 25.9-10.5 26.5-11 0.7-0.7-1.2-8.4-5.4-22.8-3.5-11.9-6.7-22-7-22.4-0.3-0.4-15.9 0.8-34.6 2.7-18.7 1.8-36.9 3.5-46.9 4l-10.3-19.5c-5.7-10.7-10.2-19.6-10.1-19.7 0.2-0.2 8.9 1.1 19.3 2.7 10.4 1.7 26 4.2 34.5 5.6 8.5 1.4 26.5 4.2 40 6.4 13.5 2.2 38.3 6.3 55.3 9 16.9 2.7 31.7 5 33 5 1.2 0 17.7-4.1 36.7-9.1 19-5.1 48.5-12.9 96.5-25.6l15.8-27.4c8.7-15.1 16.1-27.8 16.5-28.2 0.4-0.5 9.5 5.6 20.2 13.4 10.7 7.8 20 14.4 20.5 14.6 0.5 0.2 9.5-1.2 20-3.2 10.5-2 23.5-4.4 29-5.5 5.5-1.1 21.9-4.2 36.5-7 14.6-2.8 29.9-5.8 34-6.5 7.4-1.5 7.5-1.5 10.5 0.9 1.6 1.3 13.8 11.6 27 22.9 20.6 17.7 24.2 20.4 25.7 19.4 0.9-0.7 10.8-8.2 21.9-16.7 11.2-8.5 20.9-15.8 21.6-16.3 0.9-0.5 3.2 3.1 8.3 13.3 3.9 7.7 7.5 14 8 14 0.6 0 0.8-5.2 0.4-14.8-0.3-8.1-0.9-27.5-1.3-43.2-0.4-15.7-0.6-28.7-0.4-29 0.3-0.3 21.7 6.6 47.6 15.2 26 8.7 47.3 15.5 47.5 15.3 0.1-0.3-8-8.7-36.3-36.7l3.5-3.3c1.9-1.8 11.2-10.3 20.5-19 9.3-8.7 17.6-16.3 18.3-16.9 0.9-0.8-4.7-2.8-47.6-15.1l0.5-3.5c0.2-1.9 1.5-13.2 2.8-25 1.2-11.8 2.2-21.6 2.2-21.8-0.1-0.2-4.2 2.2-9.2 5.1-5 3-17.4 10.7-27.8 17.1-10.3 6.4-19.4 11.6-20.2 11.6-0.8 0-20.7-7.5-44.3-16.6-23.5-9.1-47-18.2-52.2-20.2-8.6-3.2-12.1-5.5-37-23.9-15.1-11.2-33.6-24.8-54.5-40.3l-22-33.8-42-13.5-38.5-28.5c-21.2-15.7-41.5-30.7-52-38.2l-3.7 3.2c-2.1 1.7-20.6 19.4-41 39.2-20.5 19.9-37.2 36.2-37 36.4 0.1 0.2 7.2-2.6 15.7-6.2 8.5-3.5 19.3-8 24-9.9 4.7-1.9 8.6-3.4 8.7-3.3 0.2 0-3.2 11.2-7.5 24.7-4.2 13.6-7.9 25-8.2 25.3-0.3 0.3-8.1-1.2-17.5-3.4-9.4-2.2-23.8-5.6-32-7.5-8.2-2-23.5-5.6-34-8.2-10.4-2.5-19.1-4.6-19.2-4.7-0.1 0-2.5-27.1-5.2-60.1-2.8-33-5.1-61.5-5.1-66.5l183.3-0.5 20.1-46.8c11.1-25.7 20.4-46.7 20.8-46.7 0.5 0 17.6 12.5 38 27.8 20.5 15.3 50.8 37.9 67.3 50.2 16.5 12.2 30.5 22.6 31 23.1 0.6 0.4 5-2.6 10.2-6.9 5-4.2 14.2-12 20.5-17.3 6.2-5.3 12.8-10.7 17.9-14.4l17.7 2.4c9.7 1.3 19.1 2.9 20.7 3.6 1.6 0.7 5.2 2 8 3 2.7 1 12.2 4.6 21 8 8.8 3.4 17.6 6.8 19.5 7.5 3.4 1.3 3.7 1.2 13.5-4.7 5.5-3.3 16.1-9.7 23.5-14.2 7.4-4.6 13.8-8.6 14.3-8.9 0.4-0.4-5.2-13.1-12.3-28.2-7.2-15.1-13.6-28-14.1-28.5-0.6-0.5-4.1-2.2-7.7-3.6-3.7-1.4-23.1-9.2-43.2-17.4-20.1-8.1-54.3-21.9-76-30.6-21.7-8.8-40.3-15.9-41.3-15.9-0.9 0-41.2 6.6-177.2 29.3l-23.5-14.6c-12.9-8-30.5-18.8-39-24.1-11.3-7-16.4-9.6-18.8-9.6-1.7 0-8.9 0.6-16 1.4-7 0.8-20.3 2.2-29.7 3.1-9.4 0.9-19.8 2-23.3 2.3-5.3 0.6-6.1 0.5-5.6-0.8 0.3-0.8 4.4-7.6 9.1-15 4.8-7.4 15.8-24.6 24.5-38.3 8.7-13.6 15.8-25.1 15.8-25.7 0-0.6-6.6-3.1-14.8-5.6-8.1-2.5-15.1-4.9-15.5-5.2-0.4-0.4 6.3-4.9 30.8-19.3l-7.1-29.7c-4-16.3-10-41.2-19.7-80.7l-9.1 10c-5 5.5-13.6 14.9-19.1 21-5.5 6-17.2 19-26 28.8-10.2 11.4-16.6 17.7-17.5 17.4-0.8-0.2-11.8-4.4-47.1-18.2l-32.4 32.5c-29.5 29.6-32.5 32.3-33 30-0.3-1.4-1.4-7-2.5-12.5-1.1-5.5-2-10.8-2-11.8 0-0.9 8.2-10.4 18.2-21 10.1-10.6 28.4-30 40.8-43.2 12.4-13.2 26.8-28.5 32-34 5.2-5.5 20-21.3 32.9-35 12.9-13.8 27.3-29 40.6-42.9l33.5-10.8c18.4-5.9 33.6-10.6 33.6-10.5 0.1 0.1-4.1 10.3-9.2 22.7-5.2 12.4-11.3 26.7-13.4 31.7-2.5 5.9-3.5 9.3-2.8 9.2 0.7 0 40.2-15.7 174.3-69.4l5.5-45.9z"/>
		<path id="Path 2" class="s0" d="m851.8 68c0.4 0 15.8 5.6 34.2 12.4 18.4 6.9 37.4 14 42.2 15.8 4.8 1.8 8.7 3.6 8.7 4 0.1 0.5-3.4 5.9-7.6 12-4.2 6.2-8.3 12.1-9.2 13-1.5 1.6-1.8 1.5-5.6-1.8-2.2-2-10.7-9.3-19-16.3-8.2-6.9-18.3-15.5-22.5-19-4.1-3.5-10.8-9.1-14.8-12.5-4-3.3-7.3-6.4-7.2-6.9 0-0.4 0.3-0.7 0.8-0.7zm229.7 66.7l42.2 82.9c23.2 45.6 42.2 83.5 42.2 84.1 0.1 0.7-0.2 1.3-0.6 1.3-0.5-0.1-3.3-3.5-6.4-7.8-3-4.2-10.9-15.1-17.6-24.2-6.6-9.1-27-37.2-45.3-62.5-18.3-25.3-40.9-56.5-50.2-69.3-9.2-12.7-16.6-23.6-16.4-24.1 0.2-0.5 12 3.7 52.1 19.6z"/>
		<path id="Path 3" class="s1" d="m267.7 406.6c0.1 0.5 1.8 10.5 3.8 22.1 1.9 11.7 3.5 22.1 3.5 23 0 1.7-0.9 1.6-10.8-1-5.9-1.5-17.1-4.4-39.3-10.2l2.4-2c1.4-1.1 11-8.9 21.3-17.4 10.4-8.4 19-14.9 19.1-14.5z"/>
		<path id="Path 4" class="s2" d="m394.7 455.8c0.2 38.6 0.6 49.2 1.6 49.2 0.6-0.1 25.5-4.3 109.2-18.6l56.8 28.3c31.2 15.6 56.6 28.7 56.5 29.1-0.2 0.4-6.5 12.5-14 26.7-7.5 14.3-14.3 26.8-15 27.8-1.1 1.5-5 2.2-24.8 4.2-12.9 1.4-57.7 5.8-99.5 10-41.8 4.1-79.6 8-84 8.5-4.4 0.5-8 1.1-8.1 1.2 0 0.2 10.2 39 22.7 86.3 12.5 47.3 22.5 86.3 22.1 86.7-0.4 0.3-9.3 7.4-19.7 15.8-10.4 8.3-18.3 15-17.5 15 0.8 0 6.6-1.1 12.8-2.5 6.1-1.4 16.3-3.6 22.5-5 6.1-1.3 27-5.8 46.2-10 19.3-4.2 40.2-8.8 46.5-10.1 6.3-1.4 13.1-2.9 15-3.5 2.9-0.8 5.1-3.2 13.6-14.7 5.5-7.5 17.7-23.9 27-36.4 14.9-19.9 17.1-22.5 18.9-21.8 1.1 0.5 17.1 5.7 35.5 11.5 18.4 5.9 44.2 14.1 81.1 26l51.4 77c44.1 66.1 51.9 77.3 55.2 79.1 2.1 1.1 10.3 5.7 18.3 10.1 8 4.4 28 15.5 44.5 24.8 16.5 9.2 30.1 16.9 30.3 17.1 0.1 0.2-8.2 12.9-18.4 28.1-10.3 15.3-18.9 28-19.1 28.3-0.2 0.3-12.6-1.6-27.6-4.2-15-2.6-40.2-7.1-56.2-9.8-16-2.8-38-6.6-49-8.5-11-1.8-30.6-5.2-43.5-7.5-12.9-2.2-31.3-5.4-40.7-7-9.5-1.7-17.6-2.8-18-2.6-0.5 0.2-4.2 7.2-8.3 15.5-4.1 8.3-7.7 15.1-8 15.1-0.3 0-3.4-10.6-13.5-47.3l-34 0.7c-18.7 0.3-46.5 0.9-61.7 1.3-15.3 0.5-27.8 1-27.8 1.3 0 0.3 5.2 7.9 11.4 17 6.3 9.1 11.2 16.6 10.8 16.8-0.4 0.2-3.6-0.1-7.2-0.7-3.6-0.5-17.1-2.8-30-5.1-12.9-2.2-27.1-4.7-31.5-5.5-4.4-0.8-8.1-1.5-8.2-1.5-0.2 0 3.3 7.2 7.7 16 5.4 10.9 7.6 16.2 6.8 16.5-0.7 0.2-11.5 2.1-24 4.2-20.2 3.4-22.9 3.6-24.2 2.3-0.7-0.8-9.6-14.3-19.6-30-10.1-15.7-28.2-43.8-40.3-62.5-12.1-18.7-22.1-34.5-22.4-35-0.2-0.5 15.3-19.7 34.5-42.5 19.2-22.8 34.9-41.6 34.8-41.6 0-0.1-8.4 1.6-18.6 3.7-10.2 2.2-18.8 3.6-19.1 3.2-0.4-0.5-5.4-12.7-21.6-53.8l6.3-28.5c3.5-15.7 7.1-31.9 8-36 0.9-4.1 16.2-73.3 34-153.8 17.8-80.4 32.5-146.5 32.6-147 0.2-0.4 0.4 21.5 0.5 48.5z"/>
		<path id="Path 5" class="s1" d="m284.5 429.8l8 0.6c4.4 0.3 14.8 0.8 23 1.2 8.3 0.3 15.5 0.9 16.1 1.2 0.5 0.4 3.3 12.1 11.4 51.2l-21.9 39.2c-12 21.6-30.1 54-40.2 72.1-10.1 18-18.5 32.6-18.5 32.5-0.1-0.2 0.9-21.4 2.1-47.3 1.3-25.9 2.6-50.8 3.5-64l-15-8.8c-8.2-4.8-14.9-8.9-14.8-9.1 0.2-0.3 10.9 2.2 23.8 5.5 12.9 3.2 23.8 5.8 24.2 5.6 0.4-0.1-6.5-3.6-15.2-7.7-8.8-4.1-15.9-7.6-15.7-7.7 0.1 0 9.2-4 20.2-8.8 11-4.8 20.4-9 20.8-9.4 0.5-0.3-1.2-8-3.9-17.1-2.5-9.1-5.4-19.4-6.3-22.9z"/>
		<path id="Path 6" class="s2" d="m780 492.1c0.8 0 7.5 4.2 28 18.9l-3.8 2.3c-2 1.3-14.7 9-28.2 17.1-13.5 8.2-25.6 15.5-27 16.3-1.5 0.9-2.1 1.8-1.5 2.3 0.5 0.4 12.5 5.6 26.5 11.6 14 5.9 50.5 21.5 81 34.6 30.5 13.1 54.1 23.7 52.5 23.4-1.6-0.3-14.3-1.9-28-3.6-13.8-1.7-27-3.5-29.5-4-2.5-0.6-17.1-2.6-32.5-4.5-15.4-1.9-33-4.2-39-5-6-0.9-24.3-3.3-70-9.3l-13-13.3c-7.1-7.4-17.7-18.3-23.5-24.4-5.7-6-15.9-16.5-22.5-23.2-11.2-11.4-11.8-12.2-9.5-12.8 1.4-0.3 8.4-1.6 15.5-2.9 7.1-1.4 31.2-5.9 53.5-10.1 22.3-4.2 47-8.9 55-10.5 8-1.5 15.2-2.9 16-2.9z"/>
		<path id="Path 7" class="s0" d="m464.9 516.2l4.8 1.5c2.6 0.8 13.3 3.9 23.8 6.9 10.5 3.1 22.8 6.7 36 10.7l-8 1.8c-4.4 1-22 4.9-39 8.7-17 3.9-32.3 7.4-33.9 7.9-2.9 0.8-2.7 0.5 6.7-18.3z"/>
		<path id="Path 8" class="s1" d="m801 525.3c0.8 0.2 6.2 3.3 12 6.9 5.8 3.6 20.9 12.9 33.5 20.8 12.6 7.8 21.9 14 20.5 13.7-1.4-0.3-22.4-4.5-91-18.2l11.7-11.8c6.9-6.9 12.4-11.6 13.3-11.4z"/>
		<path id="Path 9" class="s0" d="m1024.4 526.3c0.6 1 9 13.5 18.6 27.7 9.6 14.3 24.6 36.5 49 73l3.7-0.5c2.1-0.3 9.2-1 15.8-1.5 6.6-0.5 12.1-1.1 12.2-1.2 0.1-0.2-2.7-9-6.2-19.5-3.6-10.6-6.2-19.5-5.8-19.7 0.5-0.2 9.3 4.3 19.8 10.1 10.4 5.7 24.4 13.4 31 17 6.6 3.6 16.4 9.1 21.8 12.2 5.4 3.1 9.4 5.9 9 6.3-0.4 0.4-12.7 5.2-27.3 10.8-14.6 5.5-26.7 10.3-27 10.6-0.3 0.2 7.3 16.1 34.1 69.9l13.5-22.7c11.7-19.9 13.6-22.7 15.1-21.8 1 0.5 11.2 9.5 43.8 38.7l0.6-3.1c0.4-1.7 1.7-14.2 3-27.8 1.3-13.7 2.7-24.8 3.1-24.8 0.5 0 6.1 2.3 12.5 5.1 6.5 2.8 25.3 11.1 41.8 18.4 16.5 7.4 31.2 13.8 32.7 14.4 1.6 0.6 2.8 0.9 2.8 0.6 0-0.3-14-21.8-31.1-47.7-17.2-26-32.7-49.7-34.5-52.5-1.9-2.9-3.3-5.8-3.2-6.3 0.2-0.6 6.8 3.4 14.8 8.8 8 5.4 34.3 23.1 58.5 39.4 24.2 16.3 50.1 33.7 57.5 38.7 7.4 5 13.6 9 13.7 8.8 0.2-0.1-8.3-19.5-18.8-43.2-10.5-23.6-19.5-44.3-20-46-0.8-2.6-0.7-2.8 0.5-1.5 0.8 0.8 10.6 17 21.9 36 11.2 19 30.7 51.8 43.3 73 12.5 21.2 22.8 39.6 22.9 40.9 0 2.1-0.7 2.6-5 3.8-2.8 0.7-11.3 2.9-19 4.9-7.7 2-14.4 3.9-14.8 4.2-0.4 0.4 0.8 16.7 2.7 36.2 2 19.5 3.8 37 4.6 42l-17.3 9.6c-9.4 5.3-19.2 10.8-26.1 14.9l-2.2 12.5c-1.2 6.9-4.8 26.7-7.8 44-3.1 17.3-5.8 32.4-6.1 33.5-0.3 1.3-2.3 2.8-5.7 4.2-2.9 1.2-15.4 6.5-27.8 11.8-12.4 5.2-22.7 9.5-23 9.5-0.3 0 0.5-6.4 1.7-14.3 1.3-7.8 2.3-14.8 2.3-15.4 0-0.7-0.3-1.1-0.8-0.9-0.4 0.2-4.3 8-8.6 17.2-4.4 9.3-8.3 17.4-8.7 17.9-0.5 0.6-2.9 0.7-6.1 0.3-2.9-0.4-27.6-3.5-54.8-6.8-27.2-3.3-59-7.2-70.7-8.8-11.6-1.5-21.5-2.5-21.8-2.2-0.3 0.3 8.4 29.1 39.5 127.5l-4.8 4.8c-2.6 2.6-5.2 4.7-5.7 4.7-0.6 0-10.1-21.7-21.1-48.2-11.1-26.6-32.8-78.7-76.5-183.3l-6.2-1.8c-3.4-0.9-30.7-8.7-60.7-17.2-30-8.6-56.9-16.2-59.8-17-2.8-0.8-5.2-2.1-5.2-2.7 0-0.7 2.4-8 5.4-16.3 3-8.2 17.4-47.8 32.1-88 14.6-40.1 26.8-73.1 27.1-73.2 0.2-0.2 5.7 3 12.1 7 6.5 4.1 16.6 10.4 22.5 14 6 3.7 10.7 6.3 10.5 5.8-0.1-0.5-9.8-8.6-21.5-18-11.6-9.4-21.2-17.3-21.2-17.6 0-0.3 6.1-14.8 26.9-64l-11.8-27.5c-6.6-15.1-11.6-27.9-11.3-28.5 0.3-0.6 1-0.2 1.6 0.8z"/>
		<path id="Path 10" class="s1" d="m310.8 673c0.2 0 3.8 8.8 8 19.5 4.2 10.7 7.5 19.6 7.2 19.9-0.3 0.3-9.7-2.2-21-5.5-11.3-3.4-21.1-6.4-21.8-6.7-0.8-0.5 3.4-4.9 12-12.7 7.2-6.6 13.6-12.5 14.2-13.2 0.6-0.7 1.2-1.2 1.4-1.3zm-41.8 28.1c1.1-0.1 2.7 4.7 6.4 19.6 2.7 10.9 5.2 20.4 5.5 21.2 0.3 0.8-7.3-4.3-16.9-11.4-9.6-7-18.7-13.7-22.9-17l13.2-6.2c7.3-3.3 13.9-6.2 14.7-6.2z"/>
		<path id="Path 11" class="s2" d="m123.9 800.5c0.9 0.3 9.3 3.2 18.6 6.4 9.3 3.2 17.6 6 18.4 6.2 0.9 0.3-5.8 8.5-38.9 45.9l0.2-29.6c0.1-26.7 0.3-29.5 1.7-28.9z"/>
		<path id="Path 12" class="s1" d="m295.5 808.4c0.6 0.2 6.2 1.8 12.5 3.6 6.3 1.9 11.9 3.7 12.5 4.1 0.6 0.4-3.7 6-10.4 13.6-6.2 7-14.1 16-23.6 26.9l-14.5 2.8c-8 1.6-21.5 4.1-30 5.8-8.5 1.6-17.5 3.3-20 3.9-2.5 0.5-4.6 0.8-4.6 0.7-0.1-0.2 17.2-14.1 38.5-31 21.2-16.9 39-30.6 39.6-30.4z"/>
		<path id="Path 13" class="s2" d="m1323.7 947.3c0.2 0.3-0.6 6.8-1.7 14.4-1.2 7.6-2.3 14.5-2.5 15.3-0.3 0.8-3.2 2.4-12.5 5.5l0.4-2c0.3-1.1 4-9.2 8.2-17.9 4.3-8.7 7.9-15.6 8.1-15.3zm-169.5 17.7c1.3 0 11.1 1.1 21.8 2.5 10.7 1.4 41.5 5.2 68.5 8.5 26.9 3.3 51 6.2 53.5 6.5 2.6 0.3 4.1 1 3.5 1.4-0.5 0.5-9.4 3.6-19.8 7-10.3 3.3-18.9 6.4-19.1 6.9-0.3 0.4-7.7 23.4-16.6 51.2-8.8 27.8-16.1 50.6-16.3 50.7-0.1 0.1-8.5-1.5-18.7-3.7-10.2-2.2-18.8-4.4-19.1-4.8-0.4-0.4-9.4-28.6-20.2-62.7-10.8-34.1-19.7-62.3-19.7-62.7 0-0.5 1-0.8 2.2-0.8z"/>
		<path id="Path 14" class="s1" d="m284.8 990c0.4 0 9.3 3.4 19.7 7.6 10.4 4.2 19.1 7.7 19.3 7.8 0.1 0-6.8 7.7-15.5 17.1-8.7 9.3-17.7 19-24.3 26v-29.3c0-16 0.3-29.2 0.7-29.2zm284.3 21.1c0.8-0.1 7.6 2.4 15 5.5 7.4 3.1 14.6 6.1 16 6.6 2.2 0.9 1.1 1.6-11.5 6.8-7.7 3.3-36.7 15.4-64.5 27-45.4 18.8-50.2 20.7-47.5 17.8 1.7-1.8 9.6-10.2 17.5-18.6 8-8.4 14.3-15.4 14-15.6-0.3-0.1-12.3-1.4-26.8-2.7-14.4-1.3-26.2-2.6-26.2-2.9 0-0.3 8.2-2.2 18.2-4.2 10.1-2 33.6-6.8 52.3-10.7 18.7-3.8 35.8-7.4 38-7.9 2.2-0.6 4.7-1 5.5-1.1zm-203.5 16.9c0.3 0 6.8 4.6 14.5 10.3 7.8 5.6 14.1 10.3 14 10.4 0 0.2-5.7 3.7-12.8 7.8-7 4.2-12.9 7.3-13.2 6.9-0.3-0.3-0.8-5.4-1.2-11.2-0.4-5.9-0.9-13.7-1.3-17.5-0.3-3.7-0.3-6.7 0-6.7zm-92.8 19.2c0.2 0.2 0.9 10.2 1.7 22.3 0.7 12.1 1.3 22.1 1.2 22.2-0.1 0.1-7.5-2.1-16.6-4.8-9.1-2.8-16.9-5.4-17.3-5.7-0.4-0.4 6.3-8.2 14.9-17.5 8.7-9.2 15.9-16.7 16.1-16.5zm-45.6 2.6c0.3 0.4 2.5 7 4.8 14.7 2.3 7.7 4.1 14.3 3.9 14.6-0.2 0.4-5.3-0.9-11.3-2.7-6.1-1.9-11.1-3.6-11.2-3.7-0.1-0.1 2.9-5.5 6.5-11.9 3.7-6.5 6.9-11.5 7.3-11zm1.6 48.2c0.2 0.2-4.9 13.5-23.4 58.5l8.1 2.7c4.5 1.4 15.4 4.9 24.3 7.7 9 2.8 16.3 5.4 16.3 5.8 0 0.5-6.9 1.9-15.3 3.2-8.3 1.3-23.5 3.6-33.7 5.1-10.2 1.5-18.6 2.7-18.6 2.6-0.1 0 0.5-13.6 1.2-30.1 0.7-16.5 1.3-34.8 1.3-40.8 0.1-10.6 0.1-10.7 2.6-11.2 1.4-0.3 2.8-0.3 3.2-0.1 0.5 0.3 8.2-0.6 17.2-1.8 9-1.2 16.6-1.9 16.8-1.6z"/>
		<path id="Path 15" class="s0" d="m525 1101.6c1.4 1 9.3 5.8 17.5 10.7 8.3 4.9 16.1 9.6 20 11.9l-30 29.8-5.2-25.7c-2.9-14.2-5.1-26.4-5-27.2 0.1-1 0.7-0.9 2.7 0.5z"/>
		<path id="Path 16" class="s1" d="m301.1 1122.2c0.4 0.2 7.3 3 15.3 6.3 8 3.3 14.6 6.2 14.6 6.5 0 0.3-7.5 4-33.5 16.1l0.8-8.3c0.4-4.6 1.1-11.1 1.4-14.6 0.4-3.4 1-6.1 1.4-6z"/>
		<path id="Path 17" class="s0" d="m559.4 1197.3c1.1 0.3 10 1.6 19.7 2.8 9.7 1.3 17.7 2.5 17.8 2.8 0 0.4-2.8 2.6-6.2 5.1-3.4 2.4-10.5 7.5-15.7 11.3-5.2 3.9-11.2 8.3-13.2 9.8-2.1 1.6-4 2.9-4.3 2.9-0.3 0-0.4-7.9-0.4-17.6 0.2-17.4 0.2-17.6 2.3-17.1zm658.6 16.2c1.9 0.2 11.7 1.4 21.8 2.6 11.2 1.4 18.3 2.7 18.3 3.3-0.1 0.6-6.2 4.5-13.7 8.6-7.5 4.1-18 9.9-32.9 18l-4 9.3c-2.7 6.3-5.1 10.3-7.4 12.3-1.9 1.6-8.6 7.1-15 12.2-8.1 6.5-11.8 8.9-12.2 8-0.4-0.7-3.5-15.8-7-33.5-3.5-17.7-6.2-32.4-5.9-32.6 0.3-0.3 12.7-2.3 27.5-4.5 14.8-2.2 28.6-3.8 30.5-3.7z"/>
		<path id="Path 18" class="s1" d="m545.6 1260.3c0.1 0.1-1.5 10.1-3.7 22.2-2.2 12.1-4 22.1-4.2 22.2-0.1 0.1-5.3-5.5-11.5-12.5-6.3-7-11.2-13.1-11.1-13.7 0.2-0.5 7-4.9 15.3-9.7 8.2-4.8 15.1-8.6 15.2-8.5zm-12.9 166.8c0.7 0 1.3 0.5 1.3 1.2 0 0.6-5.9 11-26 44.7l14.7 12.2c8.2 6.6 15.5 12.7 16.3 13.5 1.3 1.1-0.5 1.3-25.5 1.3l-9.3-33.7c-5.1-18.6-9.2-33.9-9-33.9 0.2-0.1 8.4-1.3 18.3-2.6 9.9-1.4 18.6-2.6 19.2-2.7z"/>
	</g>
</svg>