<svg version="1.2" baseProfile="tiny-ps" xmlns="http://www.w3.org/2000/svg" viewBox="0 0 1226 1500" width="1226" height="1500">
	<title>54 Scrisori  noiembrie 1921 14 martie 1923-2</title>
	<style>
		tspan { white-space:pre }
		.shp0 { fill: #ffffff } 
		.shp1 { fill: #808080 } 
		.shp2 { fill: #000000 } 
	</style>
	<g id="Layer 3">
		<path id="Path 0" class="shp0" d="M585.02 2.99C564.69 4.53 540.86 6.3 532.07 6.94C520.48 7.78 511.13 9.19 498.09 12.08C488.2 14.27 470.22 18.73 458.13 22C446.04 25.26 421.53 32.15 403.67 37.3L371.2 46.66C331.97 66.35 325.01 70.52 309.75 81.41C299.58 88.66 280.92 101.93 268.28 110.9C255.64 119.87 239.45 131.35 232.31 136.41C225.17 141.48 207.63 153.94 193.34 164.1L167.36 182.57C117.47 252.13 102.98 272.77 102.96 273.32C102.94 273.87 106.52 283.31 110.9 294.3C115.28 305.3 118.88 314.74 118.9 315.29C118.92 315.84 115.36 318.09 110.98 320.29C106.6 322.49 103.17 324.51 103.34 324.78C103.52 325.06 113.84 332.7 126.28 341.77L148.9 358.26L123.9 358.76C123.09 363.79 118.37 395.72 112.89 432.96C107.4 470.2 102.91 501.45 102.9 502.42C102.88 503.44 108.04 508.49 115.39 514.66C123.76 521.67 127.91 525.81 127.9 527.15C127.9 528.25 126.98 544.44 125.85 563.12C124.73 581.81 124.17 597.42 124.6 597.82C125.04 598.21 142.93 606.47 164.37 616.17C185.8 625.87 204.68 634.4 206.33 635.13C209.09 636.35 210.35 639.02 222.07 668.49L234.81 700.53L195.84 803.46C143.57 865 127.38 884.11 126.15 885.64L123.9 888.41L132.06 964.86L170.36 1003.33L252.29 1012.2L325.23 1085.07C370.15 1097.02 394.54 1103.59 408.42 1107.37C422.29 1111.16 433.98 1114.28 434.4 1114.3C434.81 1114.33 438.6 1109.27 442.82 1103.06C447.05 1096.85 450.78 1091.1 451.12 1090.27C451.51 1089.31 444.65 1078.78 431.9 1060.79C420.99 1045.4 406.64 1025.17 400.01 1015.82L387.96 998.83C381.62 926.81 379.88 905.83 379.99 905.75C380.1 905.67 389.44 913.31 400.74 922.74C412.04 932.16 423.58 941.9 426.38 944.37L431.47 948.87C449.56 1017.8 457.98 1049.95 461.86 1064.79C465.73 1079.63 469.17 1092.09 469.51 1092.49C469.84 1092.88 476.41 1094.14 484.11 1095.28C491.8 1096.43 498.32 1097.58 498.59 1097.85C498.87 1098.12 489.76 1107.66 478.36 1119.04C466.96 1130.43 457.62 1139.97 457.6 1140.24C457.57 1140.51 462.79 1144.79 469.19 1149.73C475.59 1154.68 487.63 1164.03 495.95 1170.51C504.28 1176.99 511.18 1182.61 511.3 1183C511.42 1183.39 507.02 1187.31 501.54 1191.71C496.05 1196.1 491.57 1200.15 491.58 1200.7C491.59 1201.25 499.08 1220.59 508.22 1243.67C517.36 1266.76 526.8 1290.48 529.2 1296.39L533.56 1307.13C501.43 1335.93 491.97 1344.58 491.81 1344.95C491.65 1345.31 502.61 1353.02 516.15 1362.09C529.7 1371.16 540.96 1378.92 541.17 1379.33C541.38 1379.74 536.16 1388.17 529.57 1398.07C522.97 1407.96 517.83 1416.39 518.14 1416.81C518.46 1417.22 531.61 1415.82 547.37 1413.71C563.13 1411.59 577.04 1409.68 578.28 1409.46L580.53 1409.06C580.53 1373.43 580.3 1363.09 580.03 1363.09C579.75 1363.09 572.33 1368.49 563.54 1375.08C554.75 1381.68 547.31 1386.96 547 1386.83C546.7 1386.69 547.26 1378.79 548.25 1369.27C549.24 1359.75 549.83 1351.75 549.55 1351.5C549.28 1351.25 546.58 1353.55 543.56 1356.62C539.22 1361.02 537.83 1361.92 536.96 1360.9C536.36 1360.18 532.65 1353.86 528.72 1346.85C524.79 1339.84 521.46 1333.69 521.32 1333.17C521.19 1332.66 530.52 1326.56 542.06 1319.62C553.6 1312.68 563.27 1307.44 563.54 1307.97C563.82 1308.5 566.74 1319.77 570.04 1333.02C573.33 1346.27 576.25 1357.08 576.53 1357.04C576.8 1357.01 581.3 1351.81 586.52 1345.49C591.74 1339.17 596.46 1333.62 597.01 1333.15C597.58 1332.66 611.15 1334.94 628.64 1338.45C645.49 1341.83 659.52 1344.83 659.82 1345.1C660.11 1345.38 651.72 1347.33 641.17 1349.43C630.62 1351.54 621.32 1353.65 620.49 1354.12C619.17 1354.88 619.23 1356.52 620.99 1367.98C622.09 1375.13 622.77 1381.2 622.49 1381.48C622.22 1381.76 618.98 1377.17 615.29 1371.29C611.6 1365.41 607.04 1358.12 605.15 1355.1L601.71 1349.6L584.65 1383.58L601.51 1400.57C637.52 1388.6 660.55 1380.96 675.93 1375.86L703.9 1366.59C717.08 1343.77 721.25 1337.14 721.66 1337.13C722.07 1337.12 727.47 1340.56 733.65 1344.77C739.83 1348.99 745.5 1352.47 746.24 1352.52C747.14 1352.57 749.64 1345.85 753.81 1332.11L760.04 1311.63C782.03 1311.19 785.36 1310.8 785.36 1309.88C785.36 1309.19 786.28 1297.61 787.42 1284.14C789.46 1259.89 789.46 1259.65 787.53 1258.16C786.46 1257.34 778.95 1250.82 770.84 1243.67C759.8 1233.95 756.56 1230.59 757.98 1230.33C759.03 1230.14 769.77 1230.71 781.86 1231.59C793.95 1232.48 806.32 1233.46 809.34 1233.78L814.84 1234.35C819.35 1226.08 831.65 1203.45 845.09 1178.71C858.52 1153.98 870.25 1132.94 871.15 1131.96C872.05 1130.98 873.13 1130.2 873.54 1130.21C873.95 1130.23 881.82 1126.87 891.02 1122.75C900.23 1118.62 908.1 1115.25 908.51 1115.25C908.92 1115.26 909.25 1121.66 909.24 1129.5C909.23 1138.32 909.58 1143.36 910.15 1142.74C910.66 1142.19 916.47 1131.85 923.05 1119.75L935.01 1097.77C925.51 1087.93 922.78 1084.33 922.82 1083.42C922.87 1082.52 929.39 1067.07 937.31 1049.09C945.24 1031.11 951.81 1016.49 951.92 1016.61C952.03 1016.73 958.55 1025.99 966.41 1037.2C974.27 1048.41 981.15 1057.75 981.7 1057.96C982.25 1058.16 986.86 1054.94 991.94 1050.81C997.02 1046.68 1001.63 1043.3 1002.18 1043.3C1002.73 1043.3 1003.18 1043.53 1003.18 1043.8C1003.18 1044.08 1002.51 1048.91 1001.7 1054.55C1000.88 1060.18 999.93 1066.36 999.6 1068.29L998.99 1071.79C1007.27 1064.01 1013.64 1058.39 1018.49 1054.28C1023.34 1050.17 1026.93 1046.69 1026.48 1046.54C1026.03 1046.4 1020.88 1045.5 1015.03 1044.54C1009.18 1043.59 1004.1 1042.58 1003.74 1042.31C1003.37 1042.03 1005.91 1031.26 1009.37 1018.36L1015.67 994.92C1056.71 979.05 1068.89 974.42 1069.2 974.4C1069.52 974.37 1057.6 986.68 1042.72 1001.75L1015.67 1029.14L1028.66 1046.33L1046.15 1046.3C1079.96 1020.79 1085 1016.13 1117.7 983.2C1149.22 951.47 1154.72 945.48 1161.09 935.88C1166.34 927.97 1169.31 922.21 1171.64 915.39C1173.43 910.17 1184.19 878.91 1195.55 845.94C1206.92 812.96 1216.21 785.53 1216.2 784.98C1216.19 784.43 1211.42 769.14 1205.61 751C1199.79 732.86 1195.03 717.57 1195.03 717.02C1195.02 716.47 1185.47 712.51 1173.79 708.21L1152.56 700.4C1134.75 708.16 1112.04 718.13 1090.61 727.55C1069.18 736.98 1041.53 749.1 1029.16 754.5C1016.8 759.89 1000.61 766.95 993.19 770.18C985.77 773.41 978.75 776.72 977.59 777.52C976.42 778.32 970.26 783.25 963.89 788.47C957.51 793.7 952.28 798.64 952.26 799.47C952.23 800.29 954.91 819.18 958.21 841.44C961.51 863.7 964.21 882.36 964.21 882.91C964.21 883.57 960 883.5 951.97 882.71C945.24 882.06 935.98 881.16 931.38 880.71C926.79 880.27 922.86 879.58 922.64 879.16C922.43 878.75 928.78 866.38 936.76 851.68C944.74 836.98 951.26 824.5 951.23 823.95C951.21 823.4 947.6 813.84 943.21 802.71C938.83 791.58 935.51 782.14 935.85 781.73C936.18 781.32 941.24 780.2 947.09 779.24C952.93 778.28 958.05 777.38 958.47 777.24C958.88 777.1 954.83 775.22 949.47 773.06C944.12 770.91 939.51 768.98 939.23 768.78C938.96 768.58 943.53 763.6 949.38 757.71L960.03 747C954.05 698.98 952.29 683.58 952.27 681.8C952.22 678.65 952.65 678.31 966.46 670.57C974.29 666.18 981.04 662.58 981.45 662.57C981.86 662.57 987.67 669.87 994.36 678.8C1001.05 687.73 1007.01 695 1007.6 694.96C1008.19 694.92 1012.16 692.34 1016.42 689.22L1024.16 683.54C1012.42 655.28 1007.64 643.7 1005.97 639.57L1002.94 632.08C1025.58 603.04 1032.05 594.4 1031.91 594.15C1031.77 593.9 1028.29 593.03 1024.16 592.2C1020.04 591.37 1011.5 589.75 1005.18 588.59C998.86 587.43 987.84 585.37 980.7 584.02C973.56 582.66 966.92 581.34 965.96 581.08C964.49 580.69 966.52 576.03 978.95 551.38C987.06 535.31 993.65 521.7 993.61 521.15C993.57 520.6 983.23 506.08 970.63 488.89C958.03 471.69 947.95 457.47 948.23 457.28C948.5 457.09 955.7 457.8 964.21 458.85C972.73 459.9 980.15 460.58 980.7 460.36C981.25 460.14 982.5 454.17 983.47 447.09C984.44 440 985.23 433.42 985.22 432.46C985.21 431.5 975.71 414.41 964.11 394.49L943.01 358.26C952.51 333.48 955.25 325.5 955.24 324.53C955.23 323.57 953.23 316.6 950.79 309.04C948.36 301.49 940.88 277.99 934.17 256.83L921.98 218.35C869.58 136.26 854.36 112.09 854.34 111.68C854.32 111.26 871.28 116.61 892.02 123.56C912.77 130.5 929.85 136.35 929.99 136.55C930.13 136.75 927.52 141.52 924.19 147.15C920.87 152.79 918.51 157.69 918.95 158.04C919.39 158.4 925.03 161.44 931.49 164.79L943.23 170.89L977.09 145.4C951.24 132.58 943.51 129.15 943.23 129.5C942.96 129.86 942.18 132.68 941.5 135.78L940.28 141.41C941.02 133.27 941.49 128.78 941.81 126.17L942.39 121.42C876.39 76.5 857.25 63.12 857.27 62.71C857.28 62.3 855.84 61.27 854.05 60.42C852.27 59.57 849.46 58.03 847.81 57C846.16 55.96 838.74 53.48 831.32 51.47C823.9 49.46 796.7 42.21 770.87 35.34C745.04 28.48 705.25 17.86 682.44 11.74C644.83 1.64 640.09 0.59 631.48 0.41C626.26 0.3 605.36 1.46 585.02 2.99Z" />
		<path id="Path 1" class="shp1" d="M857.27 63.21C857.25 63.35 876.39 76.5 899.81 92.44L942.39 121.42C941.49 128.78 941.02 133.27 940.75 136.16L940.28 141.41C942.18 132.68 943.07 129.87 943.48 129.53C943.89 129.19 950.97 132.29 959.22 136.41C967.46 140.53 974.43 143.68 974.7 143.4C974.98 143.13 969.03 138.75 961.49 133.66C953.95 128.58 946.75 123.85 945.5 123.17C943.81 122.24 943.23 121.03 943.23 118.42C943.23 115.25 942.69 114.58 937.49 111.27C934.33 109.25 922.52 101.99 911.26 95.13C899.99 88.27 883.47 78.22 874.54 72.81C865.61 67.39 858.08 62.96 857.8 62.96C857.53 62.96 857.28 63.07 857.27 63.21ZM854.22 111.76C854.3 112.12 869.58 136.26 888.18 165.39L921.98 218.35C940.88 277.99 948.36 301.49 950.79 309.04C953.23 316.6 955.23 323.57 955.24 324.53C955.25 325.5 952.51 333.48 949.14 342.27L943.01 358.26C975.71 414.41 985.21 431.5 985.22 432.46C985.23 433.42 984.44 440 983.47 447.09C982.5 454.17 981.25 460.14 980.7 460.36C980.15 460.58 972.73 459.9 964.21 458.85C955.7 457.8 948.5 457.09 948.23 457.28C947.95 457.47 958.03 471.69 970.63 488.89C983.23 506.08 993.57 520.6 993.61 521.15C993.65 521.7 987.06 535.31 978.95 551.38C966.52 576.03 964.49 580.69 965.96 581.08C966.92 581.34 973.56 582.66 980.7 584.02C987.84 585.37 998.86 587.43 1005.18 588.59C1011.5 589.75 1020.04 591.37 1024.16 592.2C1028.29 593.03 1031.77 593.9 1031.91 594.15C1032.05 594.4 1025.58 603.04 1017.55 613.34L1002.94 632.08C1007.64 643.7 1012.42 655.28 1016.59 665.31L1024.16 683.54C1012.16 692.34 1008.19 694.92 1007.6 694.96C1007.01 695 1001.05 687.73 994.36 678.8C987.67 669.87 981.86 662.57 981.45 662.57C981.04 662.58 974.29 666.18 966.46 670.57C952.65 678.31 952.22 678.65 952.27 681.8C952.29 683.58 954.05 698.98 956.17 716.02L960.03 747C943.53 763.6 938.96 768.58 939.23 768.78C939.51 768.98 944.12 770.91 949.47 773.06C954.83 775.22 958.88 777.1 958.47 777.24C958.05 777.38 952.93 778.28 947.09 779.24C941.24 780.2 936.18 781.32 935.85 781.73C935.51 782.14 938.83 791.58 943.21 802.71C947.6 813.84 951.21 823.4 951.23 823.95C951.26 824.5 944.74 836.98 936.76 851.68C928.78 866.38 922.43 878.75 922.64 879.16C922.86 879.58 926.79 880.27 931.38 880.71C935.98 881.16 945.24 882.06 951.97 882.71C960 883.5 964.21 883.57 964.21 882.91C964.21 882.36 961.51 863.7 958.21 841.44C954.91 819.18 952.23 800.29 952.26 799.47C952.28 798.64 957.51 793.7 963.89 788.47C970.26 783.25 976.42 778.32 977.59 777.52C978.75 776.72 985.77 773.41 993.19 770.18C1000.61 766.95 1016.8 759.89 1029.16 754.5C1041.53 749.1 1069.18 736.98 1090.61 727.55C1112.04 718.13 1134.75 708.16 1141.07 705.41L1152.56 700.4L1194.53 715.87C1202.76 742.32 1207.64 757.87 1210.68 767.49C1213.72 777.11 1216.55 784.53 1216.97 783.98C1217.4 783.43 1218.51 780.95 1219.44 778.48L1221.13 773.98C1207.24 736.81 1202.38 724.04 1201.37 721.63C1200.31 719.13 1198.45 716.71 1197.02 716.01C1195.34 715.19 1194.04 713.22 1193.03 710.01C1192.2 707.38 1191.08 705.08 1190.53 704.89C1189.98 704.7 1173.23 701.85 1153.31 698.55C1133.39 695.24 1116.19 692.54 1115.09 692.54C1113.99 692.54 1099.94 699.06 1083.87 707.03C1067.79 714.99 1054.52 721.4 1054.37 721.27C1054.22 721.13 1055.47 715.17 1057.13 708.03C1058.8 700.88 1061.72 688.52 1063.63 680.55C1065.54 672.58 1067.22 665.99 1067.36 665.91C1067.51 665.83 1077.07 664.11 1088.61 662.09C1100.15 660.07 1110.43 658.11 1111.45 657.74C1113.1 657.13 1112.83 656.47 1108.9 651.57C1106.47 648.54 1092.61 630.78 1078.1 612.09C1063.58 593.4 1041.71 565.3 1029.5 549.63C1011.73 526.83 1007.64 521.03 1008.99 520.52C1009.92 520.17 1014.05 519.36 1018.17 518.7C1022.29 518.05 1026.24 517.21 1026.93 516.83C1027.95 516.29 1027.81 509.97 1026.19 484.68C1025.04 466.72 1024.55 452.98 1025.06 452.7C1025.55 452.42 1034.99 450.4 1046.04 448.2C1057.1 446 1066.14 443.75 1066.14 443.2C1066.14 442.65 1062.75 430.29 1058.62 415.72C1054.49 401.16 1047.01 374.85 1042 357.26C1036.99 339.67 1032.84 325.19 1032.78 325.08C1032.71 324.97 1020.29 331.55 1005.18 339.71C990.07 347.87 977.43 354.25 977.09 353.9C976.75 353.55 971.8 340.12 966.1 324.05C960.39 307.98 955.95 294.66 956.22 294.45C956.49 294.25 966.39 291.5 978.2 288.35C990.02 285.2 1000.01 282.33 1000.42 281.97C1000.82 281.61 995.75 279.51 989.16 277.32L977.18 273.32C977.2 232.53 977.34 230.85 978.95 230.85C979.91 230.85 986.99 231.77 994.69 232.89C1002.38 234.02 1010.48 235.17 1012.67 235.44C1014.87 235.72 1018.92 236.35 1021.67 236.84C1024.41 237.33 1029.02 237.98 1031.91 238.29C1036.55 238.78 1037.11 238.64 1036.73 237.09C1036.5 236.13 1035.55 228.6 1034.62 220.35C1033.31 208.73 1032.47 204.69 1030.86 202.37C1029.72 200.72 1026.71 196.89 1024.16 193.87C1021.62 190.85 1013.04 180.57 1005.11 171.02C997.18 161.48 988.67 152.22 986.2 150.46C983.72 148.69 980.8 146.73 979.7 146.1C977.94 145.09 975.64 146.51 960.47 157.92L943.23 170.89C925.03 161.44 919.39 158.4 918.95 158.04C918.51 157.69 920.87 152.79 924.19 147.15C927.52 141.52 930.13 136.75 929.99 136.55C929.85 136.35 912.72 130.54 891.91 123.64C871.1 116.73 854.14 111.39 854.22 111.76Z" />
		<path id="Path 2" class="shp0" d="M972.21 160.78L956.72 166.57C979.18 179.23 985.74 182.79 985.79 182.64C985.84 182.5 986.63 176.98 987.54 170.39C988.45 163.79 989.2 157.61 989.19 156.65C989.19 155.68 988.86 154.92 988.44 154.95C988.03 154.98 980.73 157.6 972.21 160.78Z" />
		<path id="Path 3" class="shp1" d="M160.89 188.59C159.06 190.67 151.2 199.12 143.42 207.36C135.63 215.61 123.22 228.78 115.84 236.64C105.76 247.36 102.09 251.97 101.13 255.13C100.42 257.44 92.69 284.29 83.94 314.79L68.05 370.25C86.48 462.42 94.12 500.87 96.92 515.16C99.72 529.45 101.83 541.59 101.61 542.14C101.39 542.69 93.02 546.74 83.02 551.13L64.84 559.13C69.79 563 101.4 584.27 138.28 608.89L205.33 653.65C215.1 675.66 219.42 685.19 221.23 689.04C223.04 692.89 224.81 697.05 225.17 698.28C225.59 699.75 225 702.02 223.49 704.78C222.21 707.12 202.35 740.06 179.35 777.98C156.36 815.91 132.55 855.25 126.44 865.42L115.34 883.91C111.74 916.44 110.55 926.78 110.38 927.88C110.2 928.98 109.31 936.85 108.38 945.37L106.71 960.86C113.45 966.97 122.6 975.51 131.39 983.78C140.19 992.06 150.98 1002.19 155.37 1006.31C159.77 1010.42 164.94 1015.27 166.86 1017.08L170.36 1020.38C199.79 1018.78 211.48 1018.1 215.32 1017.85C219.17 1017.59 227.04 1017.1 232.81 1016.76L243.3 1016.14C274.42 1056.94 284.03 1069.69 284.73 1070.79C285.77 1072.42 285.71 1076.19 284.37 1091.27C283.47 1101.44 282.46 1111.78 282.14 1114.26C281.55 1118.73 281.6 1118.67 291.2 1105.26C296.51 1097.84 301.39 1091.18 302.05 1090.46C303.03 1089.4 305.03 1090.21 312.74 1094.77C317.97 1097.86 322.69 1100.8 323.24 1101.3C323.89 1101.89 323.49 1103.85 322.06 1106.98C320.87 1109.61 317.65 1116.48 314.92 1122.25C312.18 1128.02 306.52 1140.05 302.35 1148.98C298.18 1157.92 294.76 1165.45 294.76 1165.72C294.76 1166 302.29 1170.34 311.5 1175.37C320.7 1180.4 329.13 1185.15 330.23 1185.94C332 1187.2 331.39 1187.29 324.74 1186.74C320.61 1186.41 315.22 1185.93 312.74 1185.69C310.27 1185.45 293.86 1184.11 276.27 1182.73C258.69 1181.34 239.35 1179.75 233.31 1179.19C227.26 1178.63 220.07 1177.97 217.32 1177.72C214.57 1177.48 208.5 1177 203.83 1176.66C199.16 1176.33 191.74 1175.69 187.35 1175.25L179.35 1174.45C157.67 1190 151.01 1194.78 150.56 1195.11C150.11 1195.44 152.36 1198.69 155.56 1202.34C158.75 1205.99 168.11 1216.46 176.36 1225.59C184.6 1234.72 191.68 1242.19 192.09 1242.19C192.51 1242.18 197 1239.68 202.09 1236.63C207.17 1233.59 211.44 1231.34 211.58 1231.64C211.71 1231.93 205.64 1240.23 198.09 1250.07C190.53 1259.91 181.43 1271.82 177.85 1276.52C174.28 1281.22 171.02 1284.98 170.61 1284.86C170.19 1284.74 166.26 1279.25 161.87 1272.65L153.88 1260.66L153.87 1327.12C157.6 1324.4 164.23 1319.12 171.01 1313.62C177.78 1308.13 187.04 1300.6 191.58 1296.89C196.12 1293.18 199.99 1290.48 200.18 1290.89C200.37 1291.3 198.64 1303.56 196.34 1318.12C194.04 1332.69 192.2 1344.72 192.25 1344.85C192.3 1344.99 210.33 1344.19 232.31 1343.08C254.29 1341.97 272.41 1341.18 272.57 1341.33C272.73 1341.48 263.35 1356.9 251.72 1375.58L230.59 1409.56L251.79 1452.03C240.57 1457.23 232.92 1460.71 227.57 1463.13C222.21 1465.55 217.94 1467.66 218.08 1467.84C218.21 1468.01 222.37 1467.44 227.31 1466.58C232.26 1465.72 242.6 1463.94 250.3 1462.62C257.99 1461.3 264.4 1460.29 264.55 1460.38C264.69 1460.46 261.27 1466.82 256.96 1474.52C252.64 1482.21 247.91 1490.64 246.46 1493.25C245 1495.87 243.8 1498.23 243.8 1498.5C243.8 1498.78 252.46 1498.97 263.04 1498.94L282.27 1498.87C294.66 1482.72 299.16 1477.83 300.26 1477.58C301.35 1477.33 315.74 1475.97 332.23 1474.55C348.72 1473.13 369.4 1471.34 378.19 1470.57C386.98 1469.8 405.64 1468.2 419.66 1467.02C437.14 1465.53 456.74 1462.97 482.11 1458.86C512.66 1453.91 523.33 1451.73 543.56 1446.27C565.08 1440.47 569.91 1438.78 583.52 1432.27C592.04 1428.19 608.23 1420.45 619.49 1415.07C630.76 1409.68 643.8 1403.47 648.47 1401.27C653.14 1399.07 663.26 1394.25 670.95 1390.55C678.65 1386.86 694.83 1379.14 706.92 1373.4C719.01 1367.66 732.85 1361.08 737.67 1358.78C742.49 1356.48 746.45 1354.37 746.46 1354.1C746.47 1353.82 741.17 1350 734.69 1345.6C728.21 1341.21 722.46 1337.5 721.91 1337.36C721.36 1337.22 717.08 1343.74 712.4 1351.85L703.9 1366.59C660.55 1380.96 637.52 1388.6 624.74 1392.85L601.51 1400.57L584.65 1383.58L601.71 1349.6C607.04 1358.12 611.6 1365.41 615.29 1371.29C618.98 1377.17 622.22 1381.76 622.49 1381.48C622.77 1381.2 622.09 1375.13 620.99 1367.98C619.23 1356.52 619.17 1354.88 620.49 1354.12C621.32 1353.65 630.62 1351.54 641.17 1349.43C651.72 1347.33 660.11 1345.38 659.82 1345.1C659.52 1344.83 645.49 1341.83 628.64 1338.45C611.15 1334.94 597.58 1332.66 597.01 1333.15C596.46 1333.62 591.74 1339.17 586.52 1345.49C581.3 1351.81 576.8 1357.01 576.53 1357.04C576.25 1357.08 573.33 1346.27 570.04 1333.02C566.74 1319.77 563.82 1308.5 563.54 1307.97C563.27 1307.44 553.6 1312.68 542.06 1319.62C530.52 1326.56 521.19 1332.66 521.32 1333.17C521.46 1333.69 524.79 1339.84 528.72 1346.85C532.65 1353.86 536.36 1360.18 536.96 1360.9C537.83 1361.92 539.22 1361.02 543.56 1356.62C546.58 1353.55 549.28 1351.25 549.55 1351.5C549.83 1351.75 549.24 1359.75 548.25 1369.27C547.26 1378.79 546.7 1386.69 547 1386.83C547.31 1386.96 554.75 1381.68 563.54 1375.08C572.33 1368.49 579.75 1363.09 580.03 1363.09C580.3 1363.09 580.53 1373.43 580.53 1386.08L580.53 1409.06C577.04 1409.68 563.13 1411.59 547.37 1413.71C531.61 1415.82 518.46 1417.22 518.14 1416.81C517.83 1416.39 522.97 1407.96 529.57 1398.07C536.16 1388.17 541.38 1379.74 541.17 1379.33C540.96 1378.92 529.7 1371.16 516.15 1362.09C502.61 1353.02 491.65 1345.31 491.81 1344.95C491.97 1344.58 501.43 1335.93 512.83 1325.71L533.56 1307.13C526.8 1290.48 517.36 1266.76 508.22 1243.67C499.08 1220.59 491.59 1201.25 491.58 1200.7C491.57 1200.15 496.05 1196.1 501.54 1191.71C507.02 1187.31 511.42 1183.39 511.3 1183C511.18 1182.61 504.28 1176.99 495.95 1170.51C487.63 1164.03 475.59 1154.68 469.19 1149.73C462.79 1144.79 457.57 1140.51 457.6 1140.24C457.62 1139.97 466.96 1130.43 478.36 1119.04C489.76 1107.66 498.87 1098.12 498.59 1097.85C498.32 1097.58 491.8 1096.43 484.11 1095.28C476.41 1094.14 469.84 1092.88 469.51 1092.49C469.17 1092.09 465.73 1079.63 461.86 1064.79C457.98 1049.95 449.56 1017.8 443.14 993.34L431.47 948.87C423.58 941.9 412.04 932.16 400.74 922.74C389.44 913.31 380.1 905.67 379.99 905.75C379.88 905.83 381.62 926.81 383.87 952.37L387.96 998.83C406.64 1025.17 420.99 1045.4 431.9 1060.79C444.65 1078.78 451.51 1089.31 451.12 1090.27C450.78 1091.1 447.05 1096.85 442.82 1103.06C438.6 1109.27 434.81 1114.33 434.4 1114.3C433.98 1114.28 422.29 1111.16 408.42 1107.37C394.54 1103.59 370.15 1097.02 354.21 1092.78L325.23 1085.07L252.29 1012.2L170.36 1003.33L132.06 964.86L123.9 888.41C127.38 884.11 143.57 865 162.12 843.16L195.84 803.46L234.81 700.53C210.35 639.02 209.09 636.35 206.33 635.13C204.68 634.4 185.8 625.87 164.37 616.17C142.93 606.47 125.04 598.21 124.6 597.82C124.17 597.42 124.73 581.81 125.85 563.12C126.98 544.44 127.9 528.25 127.9 527.15C127.91 525.81 123.76 521.67 115.39 514.66C108.04 508.49 102.88 503.44 102.9 502.42C102.91 501.45 107.4 470.2 112.89 432.96C118.37 395.72 123.09 363.79 123.38 362.01L123.9 358.76L148.9 358.26C113.84 332.7 103.52 325.06 103.34 324.78C103.17 324.51 106.6 322.49 110.98 320.29C115.36 318.09 118.92 315.84 118.9 315.29C118.88 314.74 115.28 305.3 110.9 294.3C106.52 283.31 102.94 273.87 102.96 273.32C102.97 272.77 116.91 252.87 133.93 229.1C150.94 205.33 164.72 185.64 164.53 185.34C164.35 185.05 162.71 186.51 160.89 188.59Z" />
		<path id="Path 4" class="shp2" d="M1033.39 206.99C1033.26 208.29 1033.83 214.76 1034.65 221.35C1035.48 227.95 1036.38 234.58 1036.65 236.09L1037.15 238.84C1029.02 237.98 1024.41 237.33 1021.67 236.84C1018.92 236.35 1014.87 235.72 1012.67 235.44C1010.48 235.17 1002.38 234.02 994.69 232.89C986.99 231.77 979.91 230.85 978.95 230.85C977.34 230.85 977.2 232.53 977.19 252.08L977.18 273.32C995.75 279.51 1000.82 281.61 1000.42 281.97C1000.01 282.33 990.02 285.2 978.2 288.35C966.39 291.5 956.49 294.25 956.22 294.45C955.95 294.66 960.39 307.98 966.1 324.05C971.8 340.12 976.75 353.55 977.09 353.9C977.43 354.25 990.07 347.87 1005.18 339.71C1020.29 331.55 1032.71 324.97 1032.78 325.08C1032.84 325.19 1036.99 339.67 1042 357.26C1047.01 374.85 1054.49 401.16 1058.62 415.72C1062.75 430.29 1066.14 442.65 1066.14 443.2C1066.14 443.75 1057.1 446 1046.04 448.2C1034.99 450.4 1025.55 452.42 1025.06 452.7C1024.55 452.98 1025.04 466.72 1026.19 484.68C1027.81 509.97 1027.95 516.29 1026.93 516.83C1026.24 517.21 1022.29 518.05 1018.17 518.7C1014.05 519.36 1009.92 520.17 1008.99 520.52C1007.64 521.03 1011.73 526.83 1029.5 549.63C1041.71 565.3 1063.58 593.4 1078.1 612.09C1092.61 630.78 1106.47 648.54 1108.9 651.57C1112.83 656.47 1113.1 657.13 1111.45 657.74C1110.43 658.11 1100.15 660.07 1088.61 662.09C1077.07 664.11 1067.51 665.83 1067.36 665.91C1067.22 665.99 1065.54 672.58 1063.63 680.55C1061.72 688.52 1058.8 700.88 1057.13 708.03C1055.47 715.17 1054.22 721.13 1054.37 721.27C1054.52 721.4 1067.79 714.99 1083.87 707.03C1099.94 699.06 1113.99 692.54 1115.09 692.54C1116.19 692.54 1133.61 695.26 1153.81 698.58C1174 701.9 1190.64 704.49 1190.79 704.33C1190.93 704.16 1192.81 668.73 1194.97 625.58C1197.13 582.44 1199.17 543.09 1199.51 538.14C1200.11 529.28 1200.09 529.17 1198.13 530.65C1197.04 531.47 1192.97 534.51 1189.09 537.39L1182.04 542.64C1172.67 513.6 1170.09 505.04 1170.25 504.89C1170.41 504.75 1176.84 508.21 1184.53 512.59C1195.83 519.03 1198.58 520.23 1198.8 518.86C1198.95 517.92 1193.45 480.5 1186.58 435.71L1174.09 354.26C1150.23 316.31 1138.76 298.1 1133.21 289.31L1123.11 273.32C1099.47 255.26 1079.79 240.25 1064.13 228.3C1048.47 216.36 1035.2 206.14 1034.64 205.6C1033.96 204.95 1033.54 205.41 1033.39 206.99Z" />
		<path id="Path 5" class="shp1" d="M1073.28 375.25C1072.05 379.65 1070.18 386.39 1069.13 390.24C1067.32 396.83 1067.31 397.33 1068.92 398.83C1069.86 399.7 1076.47 405.51 1083.62 411.74C1090.76 417.96 1097.6 423.99 1098.82 425.14L1101.04 427.22C1102.55 423.34 1105.26 416.04 1108.04 408.48C1110.82 400.92 1112.84 394.4 1112.53 393.99C1112.21 393.58 1105.68 394.14 1098.02 395.24L1084.07 397.24C1081.07 387.17 1079.53 381.77 1078.71 378.75C1077.89 375.72 1076.84 371.9 1076.38 370.25C1075.59 367.45 1075.38 367.78 1073.28 375.25Z" />
		<path id="Path 6" class="shp2" d="M67.62 372.75C67.3 373.58 63 389.99 58.06 409.23C53.13 428.46 45.87 456.8 41.93 472.19C37.99 487.57 32.56 508.71 29.86 519.15C27.16 529.6 24.85 538.19 24.72 538.25C24.59 538.31 18.97 542.02 12.24 546.49C5.51 550.97 0 555.08 0 555.63C0 556.18 4.68 569.78 10.4 585.86C16.12 601.94 24.63 625.66 29.31 638.57L37.83 662.06C24.93 722.47 18.2 753.95 14.54 770.99L7.9 801.97C26.63 939.82 33.39 989.52 35.02 1001.33C36.65 1013.15 37.75 1024.17 37.47 1025.82C37.18 1027.47 34.26 1055.68 30.97 1088.52L24.98 1148.23C65.24 1310.49 82.44 1379.78 89.17 1406.89L101.42 1456.19C126.2 1471.81 139.91 1480.46 147.88 1485.48C155.85 1490.5 163.94 1495.58 165.86 1496.77C169.28 1498.89 170.2 1498.94 206.33 1499L243.3 1499.06C245.62 1494.79 250.46 1486.12 255.55 1477.04C260.64 1467.96 264.69 1460.46 264.55 1460.38C264.4 1460.29 257.99 1461.3 250.3 1462.62C242.6 1463.94 232.26 1465.72 227.31 1466.58C222.37 1467.44 218.21 1468.01 218.08 1467.84C217.94 1467.66 222.21 1465.55 227.57 1463.13C232.92 1460.71 240.57 1457.23 244.55 1455.39L251.79 1452.03L230.59 1409.56C263.35 1356.9 272.73 1341.48 272.57 1341.33C272.41 1341.18 254.29 1341.97 232.31 1343.08C210.33 1344.19 192.3 1344.99 192.25 1344.85C192.2 1344.72 194.04 1332.69 196.34 1318.12C198.64 1303.56 200.37 1291.3 200.18 1290.89C199.99 1290.48 196.12 1293.18 191.58 1296.89C187.04 1300.6 177.78 1308.13 171.01 1313.62C164.23 1319.12 157.6 1324.4 156.28 1325.37L153.87 1327.12L153.88 1260.66C166.26 1279.25 170.19 1284.74 170.61 1284.86C171.02 1284.98 174.28 1281.22 177.85 1276.52C181.43 1271.82 190.53 1259.91 198.09 1250.07C205.64 1240.23 211.71 1231.93 211.58 1231.64C211.44 1231.34 207.17 1233.59 202.09 1236.63C197 1239.68 192.51 1242.18 192.09 1242.19C191.68 1242.19 184.6 1234.72 176.36 1225.59C168.11 1216.46 158.75 1205.99 155.56 1202.34C152.36 1198.69 150.11 1195.44 150.56 1195.11C151.01 1194.78 157.67 1190 165.37 1184.48L179.35 1174.45C191.74 1175.69 199.16 1176.33 203.83 1176.66C208.5 1177 214.57 1177.48 217.32 1177.72C220.07 1177.97 227.26 1178.63 233.31 1179.19C239.35 1179.75 258.69 1181.34 276.27 1182.73C293.86 1184.11 310.27 1185.45 312.74 1185.69C315.22 1185.93 320.61 1186.41 324.74 1186.74C331.39 1187.29 332 1187.2 330.23 1185.94C329.13 1185.15 320.7 1180.4 311.5 1175.37C302.29 1170.34 294.76 1166 294.76 1165.72C294.76 1165.45 298.18 1157.92 302.35 1148.98C306.52 1140.05 312.18 1128.02 314.92 1122.25C317.65 1116.48 320.87 1109.61 322.06 1106.98C323.49 1103.85 323.89 1101.89 323.24 1101.3C322.69 1100.8 317.97 1097.86 312.74 1094.77C305.03 1090.21 303.03 1089.4 302.05 1090.46C301.39 1091.18 296.51 1097.84 291.2 1105.26C281.6 1118.67 281.55 1118.73 282.14 1114.26C282.46 1111.78 283.47 1101.44 284.37 1091.27C285.71 1076.19 285.77 1072.42 284.73 1070.79C284.03 1069.69 274.42 1056.94 263.38 1042.46L243.3 1016.14C227.04 1017.1 219.17 1017.59 215.32 1017.85C211.48 1018.1 199.79 1018.78 189.35 1019.35L170.36 1020.38C164.94 1015.27 159.77 1010.42 155.37 1006.31C150.98 1002.19 140.19 992.06 131.39 983.78C122.6 975.51 113.45 966.97 111.06 964.8L106.71 960.86C109.31 936.85 110.2 928.98 110.38 927.88C110.55 926.78 111.74 916.44 113.02 904.9L115.34 883.91C132.55 855.25 156.36 815.91 179.35 777.98C202.35 740.06 222.21 707.12 223.49 704.78C225 702.02 225.59 699.75 225.17 698.28C224.81 697.05 223.04 692.89 221.23 689.04C219.42 685.19 215.1 675.66 211.63 667.85L205.33 653.65C101.4 584.27 69.79 563 68.03 561.63L64.84 559.13C92.99 546.74 101.39 542.69 101.67 542.14C101.95 541.59 99.81 529.22 96.91 514.66C94.01 500.09 86.37 461.87 79.93 429.71C73.49 397.56 67.95 371.93 67.62 372.75Z" />
		<path id="Path 7" class="shp1" d="M1165.08 467.69C1165.11 486.34 1165.36 490.85 1166.33 489.62C1167 488.76 1171.59 483.22 1176.54 477.3C1181.49 471.38 1185.65 466.24 1185.79 465.86C1185.93 465.49 1181.32 460.47 1175.54 454.7L1165.04 444.2L1165.08 467.69ZM922.27 485.18C922.27 486.28 923.17 496.62 924.27 508.16C925.37 519.7 926.38 529.26 926.51 529.39C926.64 529.53 931.35 529.53 936.97 529.39L947.2 529.15C927.88 493.52 922.27 484.08 922.27 485.18ZM1170.16 505.08C1170.1 505.4 1172.74 513.98 1176.04 524.15L1182.04 542.64C1187.84 538.31 1191.9 535.28 1194.79 533.1C1199.63 529.47 1200.05 528.82 1200.02 525.15L1199.98 521.15C1178.04 508.76 1171.36 505.01 1170.97 504.83C1170.59 504.65 1170.23 504.76 1170.16 505.08ZM347.7 587.31L333.23 597.74L332.23 644.33C303.58 608.98 294.97 599.03 294.62 599.41C294.27 599.79 292.37 609.09 290.39 620.09C288.41 631.08 286.68 641.15 286.53 642.46C286.3 644.55 286.97 645.08 291.76 646.64C294.78 647.62 319.63 655.31 346.98 663.73L396.71 679.05L396.94 729.01C399.95 706.55 401.18 699.13 401.62 698.03C402.27 696.38 406.48 695.03 426.27 690.14C439.39 686.89 450.58 684.07 451.13 683.87C451.69 683.66 452.95 687.85 453.96 693.26C454.97 698.63 456.1 703.51 456.46 704.09C456.83 704.67 464.77 706.85 474.11 708.94C483.46 711.03 496.94 714.05 504.09 715.65C511.23 717.25 520.68 719.35 525.07 720.33L533.07 722.09L533.56 743.5C537.82 742.8 545.13 741.88 552.55 741C559.97 740.13 566.13 739.55 566.24 739.71C566.36 739.87 563.77 743.49 560.5 747.75C557.23 752.01 554.66 755.65 554.8 755.84C554.93 756.03 568.99 758.95 586.02 762.33C603.06 765.7 617.33 768.47 617.75 768.48C618.16 768.48 618.38 763.7 618.25 757.85L618 747.22C597.09 741.36 580.45 736.7 567.54 733.08C554.62 729.46 543.61 726.5 543.06 726.5C542.51 726.5 538.88 723.69 535.01 720.26C531.13 716.83 518.31 705.65 506.53 695.41C494.75 685.18 483.76 675.59 482.11 674.12L479.11 671.43C486.85 672.43 498.32 674.69 509.58 677.1C520.85 679.51 540.86 683.74 554.05 686.51C567.24 689.28 578.7 691.52 579.53 691.49C580.35 691.47 585.63 684.94 591.27 677C598.75 666.46 601.04 662.56 599.76 662.55C598.8 662.55 592.17 663.43 585.02 664.51C577.88 665.59 571.98 666.38 571.92 666.26C571.86 666.15 569.98 660.66 567.75 654.06C565.51 647.47 563.86 641.85 564.08 641.57C564.3 641.3 566.86 641.59 569.76 642.22C572.66 642.85 589.42 646.84 607 651.08C624.59 655.33 645.39 660.32 653.22 662.18C661.05 664.04 668.13 665.56 668.95 665.56C670.2 665.56 670.46 663.52 670.47 653.31L670.48 641.07C629.03 616.81 605.76 603.21 592.02 595.19C575.46 585.54 566.36 580.79 565.04 581.1C563.94 581.36 552.92 582.93 540.56 584.6C528.19 586.27 503.24 589.68 485.1 592.18C466.97 594.68 437.07 598.71 418.66 601.15C400.25 603.59 383.95 605.81 382.44 606.09C379.82 606.57 379.34 605.97 372.23 593.35C368.13 586.07 364.18 579.38 363.47 578.49C362.31 577.05 360.59 578 347.7 587.31ZM1150.47 608.17C1149.42 616.09 1148.79 622.58 1149.06 622.58C1149.34 622.59 1154.06 618.11 1159.55 612.63C1165.05 607.15 1169.32 602.48 1169.05 602.25C1168.77 602.02 1164.91 600.02 1160.46 597.8L1152.38 593.77L1150.47 608.17Z" />
		<path id="Path 8" class="shp2" d="M482.61 602.23C459.25 604.55 430.47 607.41 418.66 608.6C406.84 609.79 396.73 611.1 396.18 611.5C395.63 611.91 386.3 619.3 375.44 627.91C364.59 636.52 355.71 643.91 355.7 644.32C355.7 644.73 368.4 648.39 383.93 652.46C399.46 656.52 421.16 662.2 432.15 665.07L452.13 670.29C520.59 636.18 530.68 631.59 532.57 632C533.94 632.3 549 634.1 566.04 636C583.07 637.91 599.01 639.6 601.45 639.77L605.89 640.07L610.5 619.59C604.69 618.09 585.47 613.24 564.04 607.85L525.07 598.03L482.61 602.23Z" />
		<path id="Path 9" class="shp1" d="M89.54 646.76C89.27 647.48 88.24 653.78 87.24 660.75C86.25 667.73 85.66 673.66 85.93 673.93C86.2 674.21 93.62 672.62 102.42 670.41C111.21 668.21 118.52 666.32 118.65 666.23C118.79 666.13 112.98 661.78 105.75 656.56C98.51 651.34 92.02 646.71 91.31 646.26C90.54 645.78 89.83 645.98 89.54 646.76Z" />
		<path id="Path 10" class="shp2" d="M426.84 689.88C411.22 693.84 402.26 696.57 401.75 697.53C401.32 698.36 400.11 705.86 399.07 714.21C398.03 722.55 397.4 729.58 397.68 729.82C397.95 730.07 428.75 737.87 466.12 747.17L534.06 764.07C550.61 757.45 553.95 755.49 556.55 752.63C558.47 750.51 561.5 746.69 563.29 744.14C565.14 741.5 566 739.51 565.29 739.5C564.6 739.5 558.64 740.18 552.05 741.01C545.46 741.83 538.6 742.73 536.81 743.01L533.56 743.5L533.07 722.09C520.68 719.35 511.23 717.25 504.09 715.65C496.94 714.05 483.46 711.03 474.11 708.94C464.77 706.85 456.83 704.67 456.46 704.09C456.1 703.51 455.09 698.65 454.22 693.29C453.36 687.93 452.31 683.59 451.89 683.64C451.47 683.69 440.2 686.5 426.84 689.88Z" />
		<path id="Path 11" class="shp1" d="M638.16 741.21C632.32 758.68 627.64 773.02 627.77 773.07C627.89 773.11 636.31 775 646.47 777.26C656.64 779.52 665.23 781.05 665.57 780.67C665.9 780.29 666.96 774.13 667.93 766.99C668.89 759.84 669.9 753.55 670.17 753C670.44 752.45 672.9 755.15 675.63 758.99C678.35 762.84 681.01 766.44 681.53 766.99C682.13 767.62 682.46 760.96 682.43 749L682.39 730.01C657.52 714.52 649.95 709.89 649.53 709.73C649.12 709.56 644 723.73 638.16 741.21ZM89.96 725.5C87.74 729.91 86.04 733.73 86.18 734C86.32 734.27 92.75 734.38 100.48 734.25L114.52 734.01L93.99 717.5L89.96 725.5ZM1146.95 722.31C1146.19 722.57 1139.72 725.38 1132.58 728.54C1125.43 731.7 1107.67 739.54 1093.11 745.95C1078.55 752.37 1061.01 760.11 1054.14 763.14L1041.65 768.66L1019.92 832.94L1058.64 871.39C1051.99 923.69 1050.19 938.97 1050.35 939.09C1050.51 939.21 1059.64 936.61 1070.63 933.3C1081.62 929.99 1100.5 924.34 1112.59 920.73C1124.68 917.13 1134.67 914.11 1134.78 914.04C1134.9 913.96 1130.27 895.68 1124.5 873.42C1118.73 851.16 1113.92 832.91 1113.8 832.87C1113.69 832.82 1108.2 833.58 1101.6 834.55C1095.01 835.52 1088.26 836.35 1086.61 836.41C1083.94 836.5 1082.02 834.7 1068.93 819.74L1054.25 802.96L1122.58 734.5C1146.59 736.81 1156.03 737.75 1159.05 738.08C1162.08 738.4 1164.67 738.74 1164.81 738.84C1164.96 738.93 1165.96 768.69 1167.04 804.96C1168.12 841.24 1169 873.62 1169 876.92C1168.99 880.21 1169.2 882.69 1169.45 882.41C1169.7 882.14 1176.51 861.23 1184.59 835.94L1199.28 789.97C1192.77 747.38 1190.8 734.92 1190.7 734.81C1190.61 734.69 1182.21 732.09 1172.04 729.02C1161.88 725.96 1152.38 723.08 1150.94 722.64C1149.5 722.19 1147.7 722.04 1146.95 722.31ZM396.47 731.43C396.58 732.3 395.78 741.89 394.68 752.75C392.77 771.58 392.76 772.6 394.43 774.9C395.39 776.23 400.9 782.94 406.67 789.83C412.44 796.71 417.38 802.36 417.66 802.38C417.93 802.4 416.46 794.68 414.39 785.21C412.31 775.74 410.74 767.49 410.89 766.88C411.04 766.27 424.05 776.83 439.79 790.36C455.54 803.89 468.35 815.03 468.27 815.12C468.19 815.21 457.33 812.61 444.14 809.35C430.95 806.08 419.84 803.53 419.45 803.68C419.07 803.84 423.23 809.25 428.7 815.71C434.17 822.16 438.64 827.79 438.64 828.2C438.64 828.61 434.13 830.75 428.62 832.94C423.11 835.14 418.61 837.05 418.63 837.19C418.64 837.33 427.76 843.8 438.89 851.56C450.02 859.33 459.69 865.85 460.37 866.05C461.06 866.26 466.12 863.72 471.62 860.43C477.11 857.13 481.83 854.43 482.11 854.43C482.38 854.43 486.27 862.86 490.75 873.17C495.23 883.47 499.02 892.13 499.17 892.41C499.32 892.68 501.27 887.17 503.51 880.16C505.75 873.16 508.15 867.22 508.83 866.97C509.52 866.73 515.7 866.02 522.57 865.4C529.44 864.78 538.44 863.92 542.56 863.48L550.05 862.68C575.8 888.28 580.61 892.45 580.97 891.41C581.25 890.58 585.09 879.9 589.5 867.67L597.51 845.44C576.86 804.13 576.43 803.46 573.53 803.46C571.88 803.46 559.18 804.59 545.31 805.96C531.43 807.33 516.03 808.91 511.08 809.47C506.14 810.03 499.95 810.7 497.34 810.97C494.52 811.26 492.6 811.05 492.6 810.46C492.6 809.91 495.41 806.4 498.84 802.67C502.28 798.93 511.5 788.82 519.33 780.18C527.16 771.55 533.45 764.34 533.31 764.15C533.18 763.96 502.28 756.17 464.66 746.82C409.79 733.2 396.3 730.15 396.47 731.43Z" />
		<path id="Path 12" class="shp2" d="M410.8 766.66C410.71 767.39 412.33 775.69 414.4 785.11C416.47 794.53 418.38 802.44 418.66 802.7C418.93 802.96 430.17 805.9 443.64 809.23C457.1 812.56 468.19 815.21 468.28 815.12C468.37 815.03 457.44 805.51 443.98 793.97C430.53 782.43 417.6 771.26 415.24 769.16C412.68 766.87 410.9 765.87 410.8 766.66Z" />
		<path id="Path 13" class="shp1" d="M1213.22 794.22C1211.6 799.03 1201.2 829.5 1190.1 861.93C1179 894.35 1170.05 920.97 1170.23 921.08C1170.4 921.19 1182.91 896.6 1198.02 866.45L1225.5 811.62C1219.12 791.36 1217.02 785.48 1216.71 785.48C1216.4 785.48 1214.83 789.41 1213.22 794.22ZM99.52 839.77C88.03 849.21 78.45 857.38 78.23 857.93C78.01 858.48 82.13 862.41 87.38 866.67C92.63 870.93 97.26 874.43 97.67 874.46C98.08 874.48 99.41 872.34 100.61 869.71C101.82 867.08 107.11 855.7 112.37 844.44C117.63 833.17 121.92 823.61 121.91 823.2C121.91 822.79 121.56 822.49 121.15 822.53C120.74 822.58 111 830.34 99.52 839.77ZM345.22 943.92L350.21 948.37C346.8 976.64 345.9 984.97 346.01 985.12C346.12 985.26 349.77 979.19 354.11 971.62C358.45 964.05 362.16 957.52 362.35 957.11C362.55 956.7 357.98 952.54 352.21 947.87C346.44 943.2 341.38 939.39 340.97 939.42C340.56 939.44 342.47 941.47 345.22 943.92ZM253.79 977.9C241.43 982.5 231.09 986.31 230.81 986.36C230.54 986.42 240.65 989.96 253.29 994.24C265.93 998.51 277.51 1002.31 279.02 1002.67C281.59 1003.29 281.25 1002.54 273.78 991.34C269.38 984.74 266.01 979.35 266.28 979.35C266.56 979.35 274.76 983 284.52 987.47C294.27 991.94 304.28 996.48 306.75 997.56L311.25 999.51C298.86 1011.78 295.93 1015.34 296.76 1015.34C297.58 1015.34 302.3 1014.04 307.25 1012.47C312.2 1010.89 325.01 1006.86 335.73 1003.51C346.44 1000.17 356.56 997.15 358.21 996.8C359.86 996.45 360.98 996 360.71 995.79C360.43 995.58 350.54 996.28 338.72 997.35C326.91 998.42 316.9 999.31 316.49 999.32C316.08 999.33 307.31 992.75 297.01 984.71C286.7 976.67 277.82 969.96 277.27 969.81C276.72 969.66 266.16 973.3 253.79 977.9ZM1042.15 984.68L1015.67 994.92C1005.91 1031.26 1003.37 1042.03 1003.74 1042.31C1004.1 1042.58 1009.18 1043.59 1015.03 1044.54C1020.88 1045.5 1026.03 1046.4 1026.47 1046.54C1026.92 1046.69 1021.86 1051.41 1015.23 1057.05C1008.6 1062.68 1003.18 1067.74 1003.18 1068.29C1003.18 1068.84 1006.67 1070.88 1010.93 1072.82C1015.18 1074.77 1019.24 1076.23 1019.94 1076.07C1020.64 1075.91 1026.79 1069.26 1033.6 1061.29L1045.99 1046.8L1028.66 1046.28L1015.67 1029.14C1058.25 986.68 1070.17 974.37 1069.62 974.4C1069.07 974.42 1056.71 979.05 1042.15 984.68Z" />
		<path id="Path 14" class="shp2" d="M273.74 991.34C278.16 997.93 284.47 1006.03 287.77 1009.33C291.06 1012.62 294.1 1015.33 294.51 1015.33C294.92 1015.34 298.86 1011.78 303.25 1007.43L311.25 999.51C304.28 996.48 294.27 991.94 284.52 987.47C274.76 983 266.54 979.35 266.25 979.35C265.95 979.35 269.33 984.74 273.74 991.34Z" />
		<path id="Path 15" class="shp1" d="M937.27 1049.08C929.37 1067.06 922.87 1082.51 922.82 1083.4C922.78 1084.29 925.45 1087.8 928.74 1091.21C932.04 1094.61 935.02 1097.03 935.36 1096.58C935.71 1096.14 939.47 1085.2 943.73 1072.29C947.99 1059.37 951.75 1048.47 952.1 1048.07C952.44 1047.67 963.06 1051.84 975.7 1057.33C988.34 1062.83 998.91 1067.32 999.19 1067.32C999.46 1067.32 1000.26 1063.37 1000.97 1058.56C1001.68 1053.74 1002.47 1048.34 1002.72 1046.55C1002.98 1044.75 1002.74 1043.3 1002.18 1043.3C1001.63 1043.3 997.02 1046.68 991.94 1050.81C986.86 1054.94 982.25 1058.16 981.7 1057.96C981.15 1057.75 974.27 1048.41 966.41 1037.2C958.55 1025.99 952.01 1016.72 951.88 1016.6C951.74 1016.47 945.17 1031.09 937.27 1049.08ZM150.6 1047.09C146.9 1054.08 140.97 1065.19 137.43 1071.79C133.88 1078.38 129.37 1086.93 127.4 1090.77L123.81 1097.77C136.24 1142.96 136.54 1143.73 138.92 1143.61C140.28 1143.55 148.8 1141.82 157.87 1139.77C166.94 1137.72 174.44 1135.97 174.54 1135.89C174.64 1135.81 178.54 1117.75 183.21 1095.77C187.87 1073.78 191.61 1055.71 191.52 1055.61C191.42 1055.5 186.74 1058.09 181.1 1061.35C175.47 1064.62 170.71 1067.18 170.53 1067.04C170.35 1066.9 167.62 1059.82 164.46 1051.3C161.31 1042.78 158.41 1035.49 158.03 1035.1C157.64 1034.71 154.3 1040.11 150.6 1047.09ZM79.16 1050.62C66.92 1055.11 57.03 1059.14 57.18 1059.56C57.33 1059.98 60.83 1062.95 64.95 1066.15C69.07 1069.36 72.33 1072.5 72.19 1073.14C72.05 1073.77 68.34 1088.67 63.95 1106.26C59.55 1123.85 55.95 1138.69 55.95 1139.24C55.95 1139.89 57.09 1139.86 59.2 1139.16C60.99 1138.56 63.8 1137.71 65.45 1137.26C67.1 1136.82 74.74 1134.55 82.43 1132.23C90.13 1129.91 96.74 1127.73 97.12 1127.38C97.51 1127.03 98.3 1117.75 98.88 1106.76C99.46 1095.77 100.14 1083.85 100.38 1080.28C100.62 1076.71 101.12 1066.7 101.47 1058.04C101.83 1049.39 101.97 1042.33 101.77 1042.37C101.58 1042.41 91.4 1046.12 79.16 1050.62Z" />
		<path id="Path 16" class="shp2" d="M359.17 1103.85C359.37 1104.9 361.21 1115.21 363.26 1126.75C365.3 1138.29 367.02 1147.88 367.09 1148.06C367.15 1148.24 375.07 1146.71 384.69 1144.67C394.3 1142.62 402.74 1140.68 403.44 1140.35C404.22 1139.98 396.63 1133.12 383.98 1122.75C372.58 1113.41 362.25 1104.9 361.02 1103.85C358.83 1101.96 358.8 1101.96 359.17 1103.85Z" />
		<path id="Path 17" class="shp0" d="M66.6 1118C65.68 1123.91 64.93 1129.31 64.94 1130C64.94 1130.84 68.8 1129.96 76.94 1127.25L88.93 1123.25C73.83 1110.92 69.18 1107.32 68.86 1107.3C68.54 1107.28 67.53 1112.1 66.6 1118Z" />
		<path id="Path 18" class="shp1" d="M890.77 1122.8C881.98 1126.84 874.19 1130.16 873.46 1130.19C872.72 1130.22 871.54 1131.03 870.82 1132C870.1 1132.96 858.52 1153.98 845.09 1178.71C831.65 1203.45 819.35 1226.08 817.75 1229.02L814.84 1234.35C806.32 1233.46 793.95 1232.48 781.86 1231.59C769.77 1230.71 759.03 1230.14 757.98 1230.33C756.56 1230.59 759.8 1233.95 770.84 1243.67C778.95 1250.82 786.46 1257.34 787.53 1258.16C789.46 1259.65 789.45 1259.91 787.39 1285.14C786.24 1299.16 785.43 1310.72 785.58 1310.84C785.73 1310.96 789.56 1304.66 794.09 1296.85C798.62 1289.04 802.33 1282.08 802.33 1281.4C802.34 1280.71 802.8 1280.15 803.34 1280.15C803.89 1280.15 804.12 1279.7 803.84 1279.15C803.57 1278.6 804.13 1271.62 805.09 1263.65C806.06 1255.68 807.07 1249.15 807.34 1249.15C807.62 1249.15 811.21 1252.53 815.33 1256.66C819.46 1260.79 823.17 1264.17 823.58 1264.17C823.99 1264.16 830.51 1256.47 838.07 1247.07C845.62 1237.67 855.63 1225.13 860.3 1219.21C864.97 1213.29 874.19 1201.81 880.78 1193.71L892.77 1178.99C886.75 1154.77 884.84 1147.17 884.64 1146.49C884.37 1145.53 887.25 1145.24 896.77 1145.24L909.26 1145.24C909.26 1118.87 908.96 1115.28 908.01 1115.36C907.32 1115.42 899.57 1118.76 890.77 1122.8ZM260.08 1140.52C251.17 1147.24 243.97 1152.81 244.09 1152.9C244.21 1152.99 252.62 1154 262.79 1155.14C272.95 1156.28 281.33 1157.1 281.39 1156.97C281.46 1156.84 280.66 1150.32 279.62 1142.49C278.57 1134.66 277.4 1128.26 277 1128.28C276.6 1128.29 268.99 1133.8 260.08 1140.52Z" />
		<path id="Path 19" class="shp2" d="M422.4 1134.95C422.02 1136.49 421.01 1142.01 420.16 1147.24C419.31 1152.46 418.74 1156.84 418.89 1156.98C419.04 1157.12 425.45 1159.04 433.15 1161.26C440.84 1163.48 447.19 1165.16 447.25 1165.01C447.32 1164.85 441.91 1157.4 435.23 1148.44C423.76 1133.06 423.06 1132.32 422.4 1134.95Z" />
		<path id="Path 20" class="shp0" d="M187.71 1197.81L187.85 1212.19C191.33 1210.4 199.54 1205.87 208.33 1200.97C217.12 1196.06 224.41 1191.98 224.52 1191.88C224.63 1191.78 220.14 1190.68 214.53 1189.42C208.92 1188.16 200.56 1186.3 195.95 1185.28L187.57 1183.43L187.71 1197.81ZM238.31 1196.19C230.67 1198.76 227.4 1200.32 227.61 1201.3C227.77 1202.07 231.37 1210.62 235.6 1220.3L243.3 1237.91C255.69 1238.92 268.96 1239.89 280.77 1240.71C292.59 1241.53 314.62 1243.1 329.73 1244.19C344.84 1245.28 358.45 1246.17 359.96 1246.17C361.47 1246.17 362.71 1246.51 362.71 1246.92C362.71 1247.33 357.12 1255.09 350.29 1264.16C343.46 1273.23 338.01 1280.87 338.19 1281.15C338.37 1281.42 344.84 1286.14 352.58 1291.64C360.31 1297.14 366.65 1301.97 366.67 1302.38C366.69 1302.79 351.58 1310.66 333.1 1319.87L299.49 1336.61C321.77 1355.79 328.36 1361.63 328.51 1361.97C328.66 1362.31 318.54 1367.26 306.02 1372.97C293.51 1378.68 283.04 1383.49 282.77 1383.67C282.49 1383.85 289.01 1391.94 297.26 1401.65C305.5 1411.35 315.91 1423.62 320.39 1428.92L328.53 1438.54C351.53 1431.98 358.32 1430.07 358.46 1430.06C358.6 1430.05 358.82 1437.67 358.96 1446.98L359.21 1463.92C380.11 1454.54 392.48 1448.99 400.17 1445.54C407.87 1442.1 420.91 1436.27 429.15 1432.6L444.14 1425.93C472.4 1438.41 480.82 1441.93 481.09 1441.79C481.35 1441.65 480.66 1426.92 479.56 1409.06C478.46 1391.2 477.35 1376.47 477.09 1376.33C476.82 1376.2 467.51 1380.68 456.38 1386.3C445.25 1391.92 435.83 1396.53 435.44 1396.54C435.06 1396.56 430.76 1390.95 425.89 1384.08C421.02 1377.21 416.26 1370.46 415.32 1369.09L413.6 1366.59C431.07 1355.06 446.26 1345.13 458.63 1337.08C470.99 1329.03 485.04 1319.9 489.85 1316.78L498.59 1311.13C474.2 1282.08 454.16 1258.14 438.32 1239.17L409.51 1204.7C368.98 1201.35 345.29 1199.43 330.73 1198.28C316.17 1197.12 293.69 1195.28 280.77 1194.19C267.86 1193.1 255.49 1192.27 253.29 1192.34C251.1 1192.42 244.35 1194.15 238.31 1196.19Z" />
		<path id="Path 21" class="shp2" d="M424.63 1202.45C424.62 1202.59 430.36 1210.89 437.37 1220.9C444.39 1230.91 450.58 1239.81 451.13 1240.68C451.99 1242.02 454.5 1242.2 468.5 1241.96L484.88 1241.67C438.98 1211.08 425.43 1202.2 425.15 1202.2C424.88 1202.2 424.65 1202.31 424.63 1202.45Z" />
		<path id="Path 22" class="shp0" d="M805 1263.91C804.06 1272.01 803.52 1278.87 803.78 1279.15C804.04 1279.42 808.33 1276.39 813.29 1272.4C818.26 1268.42 822.33 1264.82 822.32 1264.41C822.32 1263.99 819.06 1260.39 815.08 1256.4C811.1 1252.41 807.58 1249.15 807.27 1249.16C806.96 1249.16 805.93 1255.8 805 1263.91Z" />
		<path id="Path 23" class="shp1" d="M183.35 1385.33C183.1 1386.01 181.15 1394.45 179.02 1404.06C176.89 1413.68 175.19 1421.63 175.25 1421.73C175.31 1421.83 183.79 1420.03 194.1 1417.73L212.85 1413.56L212.83 1388.07C207.79 1387.28 201.72 1386.38 196.09 1385.56C190.46 1384.75 185.39 1384.08 184.82 1384.08C184.26 1384.08 183.6 1384.64 183.35 1385.33Z" />
		<path id="Path 24" class="shp0" d="M256.78 1407.07L256.79 1421.05C274.65 1409.05 279.82 1405.33 279.8 1405.04C279.77 1404.76 274.58 1401.95 268.26 1398.8L256.77 1393.08L256.78 1407.07Z" />
		<path id="Path 25" class="shp1" d="M174.07 1437.2C173.5 1438.49 169.76 1446.68 165.76 1455.4C161.75 1464.12 158.56 1471.65 158.67 1472.13C158.78 1472.62 166.18 1469.37 175.11 1464.91C184.04 1460.45 191.46 1456.63 191.59 1456.42C191.73 1456.2 188.08 1451.27 183.47 1445.44C175.53 1435.41 175.04 1434.98 174.07 1437.2Z" />
		<path id="Path 26" class="shp2" d="M416.16 1467.1C405.72 1468.1 386.16 1469.87 372.7 1471.04C359.23 1472.21 337.13 1474.14 323.58 1475.34C310.03 1476.54 298.75 1477.74 298.51 1478.01C298.28 1478.29 294.53 1482.91 290.18 1488.29C285.83 1493.66 282.49 1498.28 282.77 1498.55C283.04 1498.82 290.91 1497.44 300.26 1495.48C309.6 1493.53 322.41 1490.82 328.73 1489.47C335.05 1488.12 351.01 1484.75 364.2 1481.98C377.39 1479.21 400.1 1474.47 414.66 1471.45C429.22 1468.42 441.59 1465.77 442.14 1465.56C442.69 1465.35 441.34 1465.2 439.14 1465.23C436.94 1465.26 426.6 1466.1 416.16 1467.1Z" />
	</g>
</svg>