<svg version="1.2" baseProfile="tiny-ps" xmlns="http://www.w3.org/2000/svg" viewBox="0 0 982 1500" width="982" height="1500">
	<title>04 1898 14 aprilie 1901-2</title>
	<style>
		tspan { white-space:pre }
		.shp0 { fill: #ffffff } 
		.shp1 { fill: #808080 } 
		.shp2 { fill: #000000 } 
		.shp3 { opacity: 0.886;fill: #fcfcfc } 
		.shp4 { fill: #848484 } 
	</style>
	<g id="Layer 3">
		<path id="Path 0" class="shp0" d="M565 4.05C550.42 6.15 533.33 8.58 527 9.46C520.67 10.33 495.02 13.94 470 17.47L424.5 23.9C393.5 37.68 373.48 46.54 360 52.49C346.52 58.43 328.75 66.29 320.5 69.97C310.95 74.21 288.23 86.56 258 103.93C231.88 118.95 206.93 133.31 202.56 135.86C196.8 139.23 191.85 143.38 184.5 151C178.93 156.78 165.63 170.64 154.94 181.82C144.25 192.99 134.33 203.57 132.9 205.32C131.39 207.16 126.22 219.36 120.65 234.25C115.34 248.41 111.23 260.34 111.5 260.75C111.78 261.16 113.02 260.55 114.25 259.38C115.49 258.21 122.8 251.59 130.5 244.65C138.2 237.72 144.6 232.14 144.72 232.27C144.84 232.4 142.02 241.95 138.46 253.5C134.9 265.05 132.11 274.77 132.25 275.09C132.39 275.42 139.6 271.37 148.28 266.09C156.97 260.82 164.28 256.84 164.53 257.25C164.79 257.66 161.29 265.31 156.75 274.23L148.5 290.47C128.12 292.82 121.96 293.73 121.66 294C121.35 294.27 121.75 298.77 122.53 304C123.32 309.23 123.98 314.63 124.01 316C124.04 318.08 122.74 319.26 116.37 323C112.15 325.48 108.5 327.95 108.27 328.5C108.03 329.05 110.91 335.52 114.67 342.88L121.5 356.26C151.43 369.79 158.38 373.47 158.18 374.24C158 374.93 155.87 378.76 153.43 382.75C150.99 386.74 148.55 390 148 390C147.45 390 143.85 388.43 140 386.5C136.15 384.57 132.79 383.34 132.54 383.75C132.29 384.16 134.09 386.52 136.55 389C139.01 391.48 141.02 393.84 141.01 394.25C141.01 394.66 138.3 398.38 135 402.5C131.7 406.63 129.34 410.19 129.75 410.42C130.16 410.65 133.88 410.2 138 409.42C142.13 408.64 146.18 408 147 407.99C147.87 407.98 146.51 409.97 143.76 412.74C141.16 415.36 139.02 418.06 139.01 418.75C139.01 419.44 142.71 427.42 147.25 436.5L155.5 452.99C144.82 474.36 142.52 480 143.25 480C143.94 480 148.32 479.34 153 478.53C157.68 477.72 161.72 477.28 162 477.55C162.28 477.81 160.93 483.42 159 490.02C155.87 500.74 155.26 502 153.25 502C151.5 502 151.11 502.44 151.5 504C151.78 505.1 151.55 506 151 506C150.45 506 150 506.45 150 507C150 507.55 149.1 508.9 148 510C146.9 511.1 146 512.67 146 513.5C146 514.33 145.55 515 145 515C144.45 515 144 515.45 144 516C144 516.55 143.1 517.9 142 519C140.83 520.17 140.23 521.72 140.57 522.75C140.88 523.71 139.8 529 138.17 534.5C135.56 543.34 135.41 544.53 136.86 544.77C137.76 544.91 143 543.74 148.5 542.16L158.5 539.29C159.44 542.55 160.3 550.48 161 559L162.29 574.5C149.88 614.6 148.2 618.94 147 618.46C146.18 618.13 143.38 617.33 140.79 616.68C138.21 616.03 135.86 615.73 135.57 616C135.29 616.27 135.72 620.33 136.53 625C137.34 629.67 138 634.06 138 634.75C138 635.52 133.26 633.86 125.75 630.47C119.01 627.43 112.04 624.28 110.25 623.47L107 622C117.08 607.27 119.89 602.75 119.75 602.45C119.61 602.15 112.53 603.38 104 605.18C89.44 608.24 86.93 608.47 62.55 608.97L36.6 609.5C24.46 626.55 21.11 631.95 21.32 632.5C21.54 633.05 22.34 633.89 23.1 634.37C24.07 634.98 25.49 634.29 27.75 632.12C29.54 630.41 31.01 628.44 31.02 627.75C31.03 627.06 32.05 625.52 33.27 624.32L35.5 622.13C47.51 626.68 51.34 628.06 51.75 628.13C52.16 628.2 53.17 628.46 54 628.72C54.83 628.98 56.63 629.6 58 630.11C59.38 630.61 61.4 631.22 62.5 631.45C63.6 631.68 74.17 635.91 86 640.86L107.5 649.85C117.78 673.6 120.48 680.79 120.13 681.14C119.78 681.49 113.88 683.85 107 686.38C100.13 688.91 94.05 690.96 93.5 690.93C92.95 690.9 86.65 684.17 79.5 675.97C72.35 667.76 66.16 661.04 65.75 661.03C65.34 661.01 61.4 665.27 57 670.5L49 680C49.1 695.11 49.66 711.5 50.32 726.16C50.97 740.83 51.73 753.09 52 753.4C52.27 753.72 54.42 748.25 56.76 741.24C59.1 734.23 61.58 727.78 62.26 726.91C63.06 725.88 67.23 724.69 74 723.58C79.78 722.62 91.92 720.52 101 718.91C110.08 717.3 117.95 715.97 118.5 715.95C119.05 715.93 118.38 716.82 117 717.92C115.63 719.03 114.72 719.96 115 720C115.28 720.03 117.75 718.84 120.5 717.34C123.25 715.84 125.72 714.31 126 713.94C126.28 713.57 128.41 712.31 130.75 711.13L135 709C140.43 715.98 142 718.67 142 719.5C142 720.33 142.9 721.23 144 721.5C145.17 721.79 146 722.83 146 724C146 725.1 146.68 726.23 147.5 726.5C148.73 726.91 148.86 728.09 148.25 733.01C147.68 737.56 147.8 739.02 148.75 739.01C149.7 739 149.82 740.47 149.25 745.01C148.68 749.56 148.8 751.02 149.75 751.01C150.7 751 150.82 752.47 150.25 757.01C149.68 761.56 149.8 763.02 150.75 763.01C151.44 763.01 152 764.01 152.01 765.25C152.02 766.85 146.04 773.47 131.26 788.23L110.5 808.96L83 809C82.18 814.04 81.39 818.65 80.71 822.5L79.48 829.5L65.89 830.5C96.54 873.67 100.53 878.63 102.74 879.14C104.26 879.49 117.42 882.58 132 885.99L158.5 892.2L169.02 947.5C188.95 983.15 203.39 1009.02 213.98 1028C224.56 1046.97 233.73 1063.14 234.36 1063.92C234.99 1064.69 242.7 1070.05 251.5 1075.81C260.3 1081.58 286.85 1098.98 310.5 1114.49C334.15 1130 354.06 1142.98 354.75 1143.34C355.47 1143.72 361.11 1140.38 368 1135.5C374.6 1130.83 380.15 1127.11 380.33 1127.25C380.52 1127.39 382.21 1131.22 384.08 1135.76C385.96 1140.3 387.27 1144.17 387 1144.36C386.73 1144.55 383.23 1146.68 379.23 1149.1C375.23 1151.52 372.08 1153.62 372.23 1153.77C372.38 1153.91 378.13 1153.34 385 1152.49C391.88 1151.64 397.78 1151.3 398.12 1151.72C398.46 1152.15 401.49 1156.66 404.87 1161.75C408.24 1166.84 411.23 1171 411.5 1171C411.77 1171 414.91 1168.86 418.46 1166.25L424.93 1161.5L425.5 1122.84L441.5 1116.5L421 1116L421 1069L439 1044C434.19 1031.21 431.93 1025.03 430.88 1022C429.83 1018.98 428.99 1016.5 429.02 1016.5C429.05 1016.5 436.59 1019.46 445.79 1023.08L462.5 1029.66C462.41 1035.74 462.04 1041.33 461.62 1046L460.86 1054.5C468.08 1041.33 475.82 1026.7 482.72 1013.5C489.62 1000.3 495.88 988.49 496.63 987.25L498 985L525.5 998.72C527.64 1011.73 528.54 1016.05 528.88 1016.72C529.22 1017.39 537.96 999.61 548.29 977.22L567.09 936.5C587.56 931.48 593.84 930.01 594.25 930.01C594.66 930 595.48 932.36 596.07 935.25C596.67 938.14 597.53 941.17 597.99 942C598.7 943.27 600.04 942.97 606.92 940C611.38 938.08 615.18 936.73 615.38 937C615.57 937.27 616.25 943.58 616.87 951C617.49 958.42 618 965.4 617.99 966.5C617.97 967.78 618.3 968.14 618.9 967.5C619.41 966.95 621 956.83 622.44 945C623.88 933.17 625.24 922.6 625.45 921.5C625.66 920.4 631.16 914.82 637.67 909.09C644.18 903.36 650.4 897.89 651.5 896.93C653.47 895.21 653.34 894.99 643.5 883.46C638 877.01 633.61 871.34 633.75 870.87C633.89 870.39 633.55 870 633 870C632.45 870 630.01 868.54 627.58 866.75C625.15 864.96 622.9 862.71 622.58 861.75C622.26 860.79 621.44 860.15 620.75 860.34C620.06 860.52 614.18 855.46 607.69 849.09C601.19 842.71 595.56 837.36 595.19 837.19C594.81 837.03 593.04 839.16 591.25 841.94C588.38 846.41 587.74 846.89 585.75 846.11C584.51 845.61 579.23 843.32 574 841.02C568.77 838.71 564.27 836.61 564 836.35C563.73 836.09 569.58 823.76 577 808.95C584.42 794.13 590.73 782 591 781.98C591.27 781.96 595.51 793.32 600.4 807.22C605.3 821.12 609.93 834.08 610.68 836L612.06 839.5L639.5 812.11L726.5 805.06L753.84 777.5L760.7 791.5L767.5 774.01C783.39 774 788.04 773.89 788.08 773.75C788.12 773.61 788.91 767.54 789.83 760.26L791.5 747.01C776.05 747 775 746.78 775.03 745.25C775.04 744.29 777.25 734.95 779.93 724.5L784.8 705.5L733.17 584.5L702 560C689.99 569.56 686.13 572.6 685.69 572.92C685.24 573.24 687.15 578.11 689.94 583.75C692.72 589.39 695 594.23 695 594.5C695 594.77 692.08 595 688.5 595L682 595C682.9 600.81 683.47 603.75 683.83 605.27C684.34 607.37 684.13 608.04 683 608.03C682.17 608.02 672.05 606.66 660.5 605C648.95 603.34 638.83 601.98 638 601.98C637.13 601.98 638.62 604.09 641.5 606.98C646 611.49 646.33 612.11 644.81 613.24C643.88 613.93 637.02 619.23 629.56 625L616.01 635.5C616 671.91 615.64 680 615 680C614.45 680 608.94 676.37 602.75 671.92L591.5 663.85L591 681C585.19 682.46 580.58 683.61 577 684.5C573.42 685.39 568.92 686.53 567 687.02C563.61 687.89 563.4 688.24 560.15 698.21L556.8 708.5L521.99 715.5L487.5 681.05C465.8 678.64 458.82 677.81 458 677.66C457.18 677.51 461.12 675.84 466.76 673.94L477.02 670.5L477.05 652.5C466.7 637.77 462.53 632.25 461.1 630.73C459.67 629.2 457.71 627.97 456.75 627.98C455.79 627.99 455 628.45 455 629C455 629.55 452.19 630.32 448.75 630.72C445.31 631.11 441.26 631.33 439.75 631.22C438.24 631.1 437 631.45 437 632C437 632.57 435.5 632.79 433.5 632.5C431.57 632.23 430 632.34 430.01 632.75C430.02 633.16 426.3 634.13 421.76 634.91C417.22 635.68 411.81 636.24 409.75 636.16C407.69 636.07 405.99 636.34 405.98 636.75C405.97 637.16 404.84 637.39 403.48 637.25C402.12 637.11 401.01 637.34 401.01 637.75C401.02 638.16 398.21 638.9 394.76 639.4C391.32 639.89 387.26 640.23 385.75 640.15C384.24 640.07 383 640.45 383 641C383 641.55 381.76 642.01 380.25 642.02L377.5 642.04C380.99 638.91 382.3 636.99 382.66 635.75C383.02 634.51 383.92 632.94 384.66 632.25C385.4 631.56 386.45 629.31 387 627.25C387.56 625.19 389.24 622.48 390.75 621.24C392.26 619.99 398.56 617.4 404.75 615.49C410.94 613.57 416 611.55 416 611C416 610.45 417.01 610.01 418.25 610.01C419.49 610.02 422.75 609.34 425.5 608.51C428.25 607.67 430.82 606.43 431.22 605.75C431.68 604.96 428.83 601.39 423.43 596L414.93 587.5L432.07 542.5C421.55 532.02 418.73 528.93 419 528.86C419.27 528.8 427.44 528.02 437.15 527.12C446.86 526.23 455.09 525.27 455.44 525C455.78 524.73 455.36 521.58 454.5 518C453.64 514.42 453.06 511.47 453.22 511.43C453.37 511.39 493.1 515.3 541.5 520.11C589.9 524.92 629.5 528.87 629.5 528.9C629.5 528.92 632.54 532.78 636.25 537.47L643 546C648.04 543.78 659.63 538.41 672 532.62C684.38 526.84 694.73 522.25 695 522.43C695.27 522.6 696.85 526.24 698.5 530.51C700.15 534.78 701.95 538.53 702.5 538.84C703.05 539.15 712.27 540.85 723 542.61C733.73 544.37 742.64 545.74 742.81 545.66C742.99 545.57 742.42 541 741.55 535.5C740.68 530 740.09 525.42 740.24 525.32C740.38 525.22 748.04 522.86 757.25 520.07C766.46 517.28 774.23 515 774.5 515C774.77 515 776.46 517.31 778.25 520.14L781.5 525.28C789.25 509.55 791.84 504.99 792.25 504.99C792.66 505 802.79 508.77 814.75 513.38L836.5 521.76C857.42 519.55 864.51 518.71 865.75 518.46C867.9 518.02 868 517.57 868 508C868 502 868.4 498 869 498C869.55 498 885.64 500.95 904.75 504.56C923.86 508.17 939.62 510.99 939.76 510.81C939.9 510.64 937.06 497.68 933.44 482C929.83 466.32 927.01 453.16 927.19 452.74C927.36 452.33 931.1 449.11 935.5 445.59C939.9 442.07 943.62 439.26 943.76 439.34C943.91 439.43 943.34 446.25 942.51 454.5C941.67 462.75 940.98 470.4 940.98 471.5C940.98 473.14 942.19 473.8 947.74 475.17C951.46 476.09 954.53 476.77 954.56 476.67C954.6 476.58 960.84 467.95 968.42 457.5L982.22 438.5L968.78 339.5C957.78 317.8 935.15 273.25 911.4 226.5L868.22 141.5C823.49 110.83 805.77 98.71 800 94.78C794.23 90.85 780.05 81.11 768.5 73.14L747.5 58.64C659.92 23.99 626.63 10.78 617 6.94C604.62 2.01 598.33 0 595.5 0.1C593.3 0.17 579.58 1.95 565 4.05Z" />
		<path id="Path 1" class="shp1" d="M130.42 244.64C122.76 251.56 114.92 258.68 113 260.44C110.93 262.34 106.89 268.72 103.11 276.08C99.59 282.91 95.7 290.3 94.47 292.5C93.24 294.7 86.14 308.2 78.7 322.5L65.18 348.5C67.88 424.61 68.87 442.01 69.5 442.02C70.05 442.03 71.06 439.55 71.75 436.52C72.44 433.48 73.22 431 73.5 431C73.78 431 79.29 434.33 85.75 438.41C92.21 442.48 98.17 446.1 99 446.45C99.83 446.79 105.34 445.03 111.25 442.54L122 438C120.97 443.81 120.64 446.61 120.59 447.96C120.51 450.08 121.76 451.08 129.5 455.09C134.45 457.66 138.5 460.09 138.5 460.49C138.5 460.89 132.7 467.14 125.6 474.36L112.71 487.5C117.97 503.59 119.95 508.45 120.5 508.68C121.05 508.91 127.8 507.9 135.5 506.44C143.2 504.98 149.93 503.39 150.45 502.9C150.97 502.4 152.32 502 153.45 502C155.21 502 156 500.29 159 490.02C160.93 483.42 162.28 477.81 162 477.55C161.72 477.28 157.68 477.72 153 478.53C148.32 479.34 143.94 480 143.25 480C142.52 480 144.82 474.36 148.75 466.5L155.5 452.99C142.71 427.42 139.01 419.44 139.01 418.75C139.02 418.06 141.16 415.36 143.76 412.74C146.51 409.97 147.87 407.98 147 407.99C146.18 408 142.13 408.64 138 409.42C133.88 410.2 130.16 410.65 129.75 410.42C129.34 410.19 131.7 406.63 135 402.5C138.3 398.38 141.01 394.66 141.01 394.25C141.02 393.84 139.01 391.48 136.55 389C134.09 386.52 132.29 384.16 132.54 383.75C132.79 383.34 136.15 384.57 140 386.5C143.85 388.43 147.45 390 148 390C148.55 390 150.99 386.74 153.43 382.75C155.87 378.76 158 374.93 158.18 374.24C158.38 373.47 151.43 369.79 140 364.62L121.5 356.26C110.91 335.52 108.03 329.05 108.27 328.5C108.5 327.95 112.15 325.48 116.37 323C122.74 319.26 124.04 318.08 124.01 316C123.98 314.63 123.32 309.23 122.53 304C121.75 298.77 121.35 294.27 121.66 294C121.96 293.73 128.12 292.82 135.35 291.98L148.5 290.47C161.29 265.31 164.79 257.66 164.53 257.25C164.28 256.84 156.97 260.82 148.28 266.09C139.6 271.37 132.39 275.42 132.25 275.09C132.11 274.77 134.83 265.08 138.31 253.56C141.78 242.04 144.56 232.49 144.48 232.33C144.4 232.17 138.07 237.71 130.42 244.64Z" />
		<path id="Path 2" class="shp2" d="M71.93 436.25C71.25 439.14 70.25 442.18 69.71 443C69.07 443.99 69.3 457.8 70.37 483.25L72 522L58.15 549.5C68.91 554.92 72.03 556.61 72.02 556.75C72.01 556.89 69.75 565.89 66.99 576.75C64.24 587.61 61.99 596.95 62 597.5C62.01 598.05 65.72 599.96 70.26 601.75C74.79 603.54 78.61 604.56 78.75 604C78.89 603.45 79.67 603 80.5 603C81.33 603 86.95 600.75 93 598C99.05 595.25 104.79 592.56 105.75 592.03C106.71 591.5 111.1 589.43 115.5 587.44C119.9 585.45 126.78 582.17 130.79 580.16L138.07 576.5L138 550C133.74 550.99 122.04 553.91 109.25 557.14C96.46 560.36 85.44 563 84.75 563C84.06 562.99 84.85 561.87 86.5 560.51C88.15 559.14 91.75 556.57 94.5 554.8C97.25 553.02 99.72 551.28 100 550.92C100.28 550.57 103.69 548.08 107.58 545.39C111.47 542.7 120.36 536.45 127.32 531.5C134.28 526.55 140.43 521.49 140.99 520.25C141.55 519.01 142.45 518 143 518C143.55 518 144 517.33 144 516.5C144 515.67 144.45 515 145 515C145.55 515 146 514.33 146 513.5C146 512.67 146.9 511.1 148 510C149.1 508.9 150 507.55 150 507C150 506.45 150.45 506 151 506C151.55 506 152 505.32 152 504.5C152 503.56 151.35 503.18 150.25 503.47C149.29 503.73 142.43 505.1 135 506.52C127.57 507.94 121.05 508.91 120.5 508.68C119.95 508.45 117.97 503.59 116.1 497.88L112.71 487.5C132.7 467.14 138.43 460.84 138.35 460.36C138.27 459.89 134.25 457.43 129.42 454.89C122.08 451.04 120.64 449.89 120.66 447.89C120.67 446.58 120.97 443.81 121.34 441.75L122 438C105.34 445.03 99.83 446.79 99 446.45C98.17 446.1 92.21 442.48 85.75 438.41C79.29 434.33 73.81 431 73.58 431C73.35 431 72.61 433.36 71.93 436.25Z" />
		<path id="Path 3" class="shp1" d="M935.42 445.59C931.06 449.11 927.36 452.33 927.19 452.74C927.01 453.16 929.83 466.32 933.44 482C937.06 497.68 939.9 510.64 939.76 510.81C939.62 510.99 923.86 508.17 904.75 504.56C885.64 500.95 869.55 498 869 498C868.4 498 868 502 868 508C868 517.57 867.9 518.02 865.75 518.46C864.51 518.71 857.42 519.55 850 520.34L836.5 521.76C802.79 508.77 792.66 505 792.25 504.99C791.84 504.99 789.25 509.55 786.5 515.13L781.5 525.28C776.46 517.31 774.77 515 774.5 515C774.23 515 766.46 517.28 757.25 520.07C748.04 522.86 740.38 525.22 740.24 525.32C740.09 525.42 740.68 530 741.55 535.5C742.42 541 742.99 545.57 742.81 545.66C742.64 545.74 733.73 544.37 723 542.61C712.27 540.85 703.05 539.15 702.5 538.84C701.95 538.53 700.15 534.78 698.5 530.51C696.85 526.24 695.27 522.6 695 522.43C694.73 522.25 684.38 526.84 672 532.62C659.63 538.41 648.04 543.78 646.25 544.57L643 546C632.54 532.78 629.5 528.92 629.5 528.9C629.5 528.87 589.9 524.92 541.5 520.11C493.1 515.3 453.37 511.39 453.22 511.43C453.06 511.47 453.64 514.42 454.5 518C455.36 521.58 455.78 524.73 455.44 525C455.09 525.27 446.86 526.23 437.15 527.12C427.44 528.02 419.27 528.8 419 528.86C418.73 528.93 421.55 532.02 425.29 535.74L432.07 542.5L414.93 587.5C428.21 600.67 431.75 604.84 431.37 605.25C430.98 605.66 430.97 606 431.33 606C431.7 606 440.44 604.67 450.75 603.04C461.06 601.41 480.75 598.24 494.5 595.99C508.25 593.74 519.62 591.81 519.76 591.7C519.9 591.59 518.85 586.77 517.44 581C516.03 575.23 514.45 568.81 513.93 566.75C513.24 563.98 512.48 563 511 563C509.9 563 507.2 563.9 505 565C502.8 566.1 500.71 567 500.36 567C500.01 567 501.25 563.17 503.11 558.48C505.29 553 506.14 549.66 505.5 549.12C504.95 548.67 497.3 547.54 488.5 546.63C479.7 545.71 472.37 544.86 472.21 544.73C472.06 544.6 472.45 541.58 473.1 538C473.74 534.42 474.55 531.19 474.89 530.82C475.22 530.44 487.43 531.66 502 533.53C516.58 535.39 542.67 538.74 560 540.96C577.33 543.19 600.73 546.14 612 547.53C623.27 548.92 633.17 550.26 634 550.52C634.83 550.77 636.49 553.57 637.71 556.74C638.93 559.91 640.16 563.29 640.46 564.25C640.95 565.84 639.87 566.02 628.25 566.25L615.5 566.5C615.56 571.15 615.89 573.74 616.29 575.25L617 578C604.6 571.8 600.33 570 599.5 570C598.67 570 598 570.67 598 571.5C598 572.33 602.02 580.31 606.93 589.25C611.83 598.19 615.77 605.59 615.68 605.7C615.58 605.81 612.01 604.68 607.75 603.2C601.52 601.03 599.76 600.75 598.75 601.76C597.75 602.77 598.73 604.26 603.71 609.26L609.91 615.5C602.96 624.02 599.94 627.69 598.72 629.15C597.5 630.61 595.38 633.17 594 634.84C592.63 636.51 590.38 639.18 589 640.79C587.63 642.39 584.7 645.78 582.5 648.32C580.3 650.86 578.16 652.73 577.75 652.47C577.34 652.21 576.78 650.31 576.51 648.25C576.25 646.19 575.29 643.83 574.39 643C572.94 641.67 571.42 641.68 560.63 643.17C553.96 644.09 547.26 645.1 545.75 645.42L543 646L543.01 621.5L511.5 652.99L477 653L477.02 670.5C461.12 675.84 457.18 677.51 458 677.66C458.82 677.81 465.8 678.64 473.5 679.49L487.5 681.05L521.99 715.5L556.8 708.5C563.4 688.24 563.61 687.89 567 687.02C568.92 686.53 573.42 685.39 577 684.5C580.58 683.61 585.19 682.46 587.25 681.94L591 681L591.5 663.85C608.94 676.37 614.45 680 615 680C615.64 680 616 671.91 616 657.75L616.01 635.5C637.02 619.23 643.88 613.93 644.81 613.24C646.33 612.11 646 611.49 641.5 606.98C638.62 604.09 637.13 601.98 638 601.98C638.83 601.98 648.95 603.34 660.5 605C672.05 606.66 682.06 608.01 682.75 608.01C683.63 608 683.83 606.89 683.42 604.25C683.1 602.19 682.53 599.25 682.17 597.73L681.5 594.95C691.96 594.99 695 594.77 695 594.5C695 594.23 692.72 589.39 689.94 583.75C687.15 578.11 685.24 573.24 685.69 572.92C686.13 572.6 689.99 569.56 694.25 566.17L702 560L733.17 584.5L784.8 705.5C777.25 734.95 775.04 744.29 775.03 745.25C775 746.78 776.05 747 783.25 747.01L791.5 747.01C788.91 767.54 788.12 773.61 788.08 773.75C788.04 773.89 783.39 774 777.75 774L767.5 774.01L760.7 791.5L753.84 777.5L726.5 805.06L639.5 812.11L612.06 839.5C609.93 834.08 605.3 821.12 600.4 807.22C595.51 793.32 591.27 781.96 591 781.98C590.73 782 584.42 794.13 577 808.95C569.58 823.76 563.73 836.09 564 836.35C564.27 836.61 568.77 838.71 574 841.02C579.23 843.32 584.51 845.61 585.75 846.11C587.74 846.9 588.34 846.43 591 842C592.65 839.25 594.34 837 594.75 836.99C595.16 836.99 600.23 841.72 606 847.5C611.77 853.28 616.84 858.01 617.25 858.01C617.66 858 616.65 855.52 615 852.5L612 847C617.52 842.74 619.66 841.05 620.31 840.5C620.97 839.95 624.2 837.49 627.5 835.04C630.8 832.59 633.95 830.21 634.5 829.77C635.05 829.32 638.88 826.39 643 823.26C647.13 820.13 650.73 817.31 651 816.99C651.27 816.67 652.85 815.47 654.5 814.33C657.48 812.27 657.69 812.27 691.5 813.56C710.2 814.27 730.34 815.11 736.25 815.43L747 816C747 805.15 747.34 802 747.75 801.99C748.16 801.99 750.98 802.6 754 803.35C757.02 804.09 762.2 805.27 765.5 805.96C768.8 806.65 772.74 807.62 774.25 808.11C775.76 808.6 777.34 808.83 777.75 808.62C778.16 808.41 779.4 806.37 780.5 804.09C781.6 801.8 783.06 799.95 783.75 799.97C784.56 799.99 785 801.58 785 804.5L785 809C790.04 808.18 796.57 807.39 802.78 806.72C808.98 806.05 814.94 805.84 816.03 806.25C817.11 806.66 819.41 808.24 821.14 809.75C822.87 811.26 824.78 812.96 825.39 813.51C826 814.07 829.4 817 832.94 820.01C836.48 823.03 840.12 826.17 841.02 827C841.92 827.83 844.26 829.85 846.21 831.5C848.15 833.15 852.53 836.98 855.93 840C859.32 843.02 861.93 845.95 861.72 846.5C861.51 847.05 859.57 847.79 857.42 848.13C855.26 848.48 844.5 850.64 833.5 852.92C822.5 855.21 813.38 857.17 813.24 857.29C813.09 857.4 813.39 859.3 813.9 861.5C814.41 863.7 815.8 869.1 816.99 873.5C818.18 877.9 819.95 883.98 820.92 887C821.89 890.02 823.25 894.52 823.95 897C824.64 899.48 825.8 903.3 826.53 905.5C827.25 907.7 828.14 911.08 828.5 913C829.12 916.31 828.8 916.86 822.33 923.24C815.71 929.77 815.56 930.02 817.5 931.52C818.6 932.37 820.62 933.84 822 934.78C823.37 935.73 825.33 937.17 826.35 938C827.37 938.83 829.85 940.95 831.85 942.73C833.86 944.5 835.84 945.96 836.25 945.98C836.66 945.99 837.56 946.59 838.25 947.31C838.94 948.02 845.01 952.97 851.75 958.31L864 968C882.21 963.46 888.63 961.91 890 961.64C891.38 961.37 892.83 960.33 893.22 959.32C893.62 958.32 894.75 956.15 895.73 954.5C896.71 952.85 899.18 948.8 901.22 945.5C903.26 942.2 904.95 938.94 904.97 938.25C904.98 937.56 905.23 937 905.5 937C905.77 937 909.38 938.35 913.5 940C917.63 941.65 921.45 943 922 943C922.55 943 919.96 936.95 916.25 929.55C912.54 922.15 909.73 915.95 910 915.76C910.27 915.58 915.9 911.39 922.5 906.47C929.1 901.55 935.06 896.95 935.75 896.26C936.47 895.53 937 892.46 937 889C937 884.33 937.33 883 938.5 883C939.33 883 940 883.89 940 885C940 886.1 940.42 888.01 940.93 889.25C941.44 890.49 942.12 892.74 942.43 894.25C942.74 895.76 943.45 897 944 897C944.55 897 945.26 895.09 945.57 892.75C945.88 890.41 946.51 887.15 946.96 885.5C947.4 883.85 948.38 879.9 949.14 876.73C949.89 873.56 950.84 870.97 951.25 870.98C951.66 870.99 953.13 873.25 954.5 876C955.88 878.75 957.34 880.73 957.75 880.4C958.16 880.07 959.95 865.1 961.72 847.15C963.49 829.19 964.95 813.94 964.97 813.25C964.99 812.56 964.55 812 964 812C963.45 812 963 812.67 963 813.5C963 814.33 960.86 819.28 958.25 824.51C955.64 829.74 952.94 834.01 952.25 834.01C951.36 834 951 831.83 951 826.5L951 819L936.5 818.99C937.78 838.65 937.73 843.1 937.18 842.5C936.67 841.95 933.05 836.66 929.13 830.75C925.21 824.84 922.11 819.86 922.25 819.68C922.39 819.5 927.58 817.14 933.79 814.43C940 811.72 945.05 809.05 945.01 808.5C944.98 807.95 943.16 805.14 940.97 802.25C938.79 799.36 937.27 796.66 937.6 796.25C937.94 795.84 944.8 794.89 952.85 794.14C960.91 793.4 967.76 792.5 968.09 792.14C968.41 791.79 971 765.74 973.84 734.25L979 677L964.5 655.35C915.67 651.05 898.8 649.51 895.5 649.15L889.5 648.5C886.83 625.61 886.12 622.44 884.99 622.25C884 622.08 880.74 626.99 875.34 636.75C869.23 647.79 866.59 651.66 864.84 652.12C863.55 652.46 854.34 653.36 844.36 654.12L826.23 655.5C805.88 635.35 799.53 629.39 798.99 629.25C798.44 629.11 798.03 630.01 798.07 631.25C798.1 632.49 799.56 641.25 801.32 650.73L804.5 667.96C812.25 674.26 814.95 676.24 815.5 676.41C816.05 676.58 816.27 677.02 816 677.37C815.73 677.73 811.56 676.22 806.75 674.01C801.94 671.81 796.99 670.01 795.75 670.02C794.51 670.03 790.13 672.01 786 674.42L778.5 678.81C777.39 674.69 772.14 655.73 766.11 634L755.15 594.5L775.83 553.5L834.5 526.37C865.5 522.91 886.2 520.63 900.5 519.07L926.5 516.24C955.95 526.91 964.6 529.89 964.73 529.75C964.85 529.61 968.8 509.48 973.49 485C978.19 460.52 981.9 440.36 981.72 440.19C981.55 440.02 975.39 448.12 968.03 458.19C960.67 468.26 954.61 476.58 954.57 476.67C954.53 476.77 951.46 476.09 947.74 475.17C942.19 473.8 940.98 473.14 940.98 471.5C940.98 470.4 941.72 462.81 942.61 454.63C943.51 446.46 944.03 439.63 943.79 439.48C943.54 439.32 939.77 442.07 935.42 445.59Z" />
		<path id="Path 4" class="shp2" d="M900 519C886.52 520.54 866.27 522.82 855 524.08L834.5 526.36L775.83 553.5L755.15 594.5C772.14 655.73 777.39 674.69 777.78 676.15L778.5 678.81C790.13 672.01 794.51 670.03 795.75 670.02C796.99 670.01 801.94 671.81 806.75 674.01C811.56 676.22 815.73 677.73 816 677.37C816.27 677.02 816.05 676.58 815.5 676.41C814.95 676.24 812.25 674.26 809.5 672.03L804.5 667.96C799.56 641.25 798.1 632.49 798.07 631.25C798.03 630.01 798.44 629.11 798.99 629.25C799.53 629.39 805.88 635.35 813.1 642.5L826.23 655.5C854.34 653.36 863.55 652.46 864.84 652.12C866.59 651.66 869.23 647.79 875.34 636.75C880.74 626.99 884 622.08 884.99 622.25C886.12 622.44 886.83 625.61 887.99 635.49C889.15 645.44 889.85 648.54 891 648.73C891.83 648.86 907.35 650.33 925.5 651.98C943.65 653.63 959.96 654.99 961.75 654.99L965 655L965.07 530.5C934.4 519.27 925.27 516.05 925 516.1C924.73 516.16 913.48 517.46 900 519Z" />
		<path id="Path 5" class="shp1" d="M127.89 531.06C121.07 535.97 112.37 542.13 108.54 544.74C104.71 547.36 101.11 549.96 100.54 550.52C99.97 551.08 97.25 553 94.5 554.78C91.75 556.57 88.15 559.14 86.5 560.51C84.85 561.87 84.06 562.99 84.75 563C85.44 563 96.46 560.36 109.25 557.14C122.04 553.91 133.74 550.99 135.25 550.64L138 550L138.07 576.5C126.78 582.17 119.9 585.48 115.5 587.51C111.1 589.54 104.8 592.47 101.5 594.02C98.2 595.57 92.01 598.45 87.75 600.42C83.49 602.39 79.98 604.34 79.96 604.75C79.94 605.16 81.4 606.15 83.21 606.95C86.22 608.27 87.88 608.12 103 605.17C112.08 603.39 119.61 602.18 119.75 602.47C119.89 602.76 117.08 607.27 113.5 612.5L107 622C112.04 624.28 119.01 627.43 125.75 630.47C133.26 633.86 138 635.52 138 634.75C138 634.06 137.34 629.67 136.53 625C135.72 620.33 135.29 616.27 135.57 616C135.86 615.73 138.21 616.03 140.79 616.68C143.38 617.33 146.18 618.13 147 618.46C148.2 618.94 149.88 614.6 155.4 596.78L162.29 574.5C160.3 550.48 159.44 542.55 159.11 541.39L158.5 539.29C143 543.74 137.76 544.91 136.86 544.77C135.41 544.53 135.56 543.35 138.16 534.5C139.78 529 140.92 523.97 140.69 523.32C140.44 522.63 135.15 525.83 127.89 531.06Z" />
		<path id="Path 6" class="shp2" d="M474.59 531.2C474.33 531.92 473.62 535.2 473.01 538.5C472.4 541.8 472.03 544.6 472.2 544.73C472.36 544.86 479.7 545.71 488.5 546.63C497.3 547.54 504.95 548.67 505.5 549.12C506.14 549.66 505.35 552.99 503.25 558.48C501.46 563.17 500.23 567 500.5 567C500.77 567 502.8 566.1 505 565C507.2 563.9 509.9 563 511 563C512.48 563 513.24 563.98 513.93 566.75C514.45 568.81 516.03 575.23 517.44 581C518.85 586.77 519.9 591.59 519.76 591.7C519.62 591.81 502.85 594.6 482.5 597.89C462.15 601.18 443.25 604.19 440.5 604.58C437.75 604.96 432.24 606.34 428.25 607.64C424.26 608.94 419.88 610 418.5 610C417.13 610 416 610.45 416 611C416 611.55 410.94 613.57 404.75 615.49C398.56 617.4 392.26 619.99 390.75 621.24C389.24 622.48 387.56 625.19 387 627.25C386.45 629.31 385.4 631.56 384.66 632.25C383.92 632.94 383.02 634.51 382.66 635.75C382.3 636.99 380.99 638.91 379.75 640.02L377.5 642.04C381.76 642.01 383 641.55 383 641C383 640.45 384.24 640.07 385.75 640.15C387.26 640.23 391.32 639.89 394.76 639.4C398.21 638.9 401.02 638.16 401.01 637.75C401.01 637.34 402.12 637.11 403.48 637.25C404.84 637.39 405.97 637.16 405.98 636.75C405.99 636.34 407.69 636.07 409.75 636.16C411.81 636.24 417.22 635.68 421.76 634.91C426.3 634.13 430.02 633.16 430.01 632.75C430 632.34 431.57 632.23 433.5 632.5C435.5 632.79 437 632.57 437 632C437 631.45 438.24 631.1 439.75 631.22C441.26 631.33 445.31 631.11 448.75 630.72C452.19 630.32 455 629.55 455 629C455 628.45 455.79 627.99 456.75 627.98C457.71 627.97 459.66 629.2 461.09 630.73C462.51 632.25 466.38 637.33 469.68 642C472.99 646.67 476.43 650.84 477.35 651.25C478.26 651.66 486.09 652 494.75 652L510.5 652.01C534.3 627.98 541.84 621 542.61 621C543.72 621 544 623.43 543.98 633.25L543.96 645.5C549.8 644.42 556.28 643.52 562.13 642.8C571.42 641.66 572.97 641.69 574.39 643C575.29 643.83 576.25 646.19 576.51 648.25C576.78 650.31 577.34 652.21 577.75 652.47C578.16 652.73 580.3 650.87 582.5 648.33C584.7 645.8 587.63 642.39 589 640.75C590.38 639.12 592.63 636.45 594 634.83C595.38 633.2 597.5 630.66 598.72 629.19C599.94 627.71 602.96 624.02 605.42 621L609.91 615.5C598.73 604.26 597.75 602.77 598.75 601.76C599.76 600.75 601.52 601.03 607.75 603.2C612.01 604.68 615.58 605.81 615.68 605.7C615.77 605.59 611.83 598.19 606.93 589.25C602.02 580.31 598 572.33 598 571.5C598 570.67 598.67 570 599.5 570C600.33 570 604.6 571.8 609 574L617 578C615.89 573.74 615.56 571.15 615.54 569.5L615.5 566.5C639.87 566.02 640.95 565.84 640.46 564.25C640.16 563.29 638.93 559.91 637.71 556.74C636.49 553.57 634.83 550.77 634 550.52C633.17 550.26 623.27 548.92 612 547.53C600.73 546.14 579.35 543.45 564.5 541.55C549.65 539.64 524.9 536.49 509.5 534.54C494.1 532.6 480.05 530.76 478.28 530.45C476.13 530.09 474.9 530.34 474.59 531.2Z" />
		<path id="Path 7" class="shp3" d="M50.5 608.75C57.65 608.92 69.13 608.92 76 608.75C82.88 608.58 77.03 608.43 63 608.43C48.98 608.43 43.35 608.58 50.5 608.75Z" />
		<path id="Path 8" class="shp4" d="M525.99 636.55L510.5 652.09C483.91 651.63 476.37 651.84 476.59 652.25C476.82 652.66 484.76 653 494.25 653L511.5 652.99L543.01 621.5C543 645.82 543.03 646 545.25 645.88C546.84 645.8 546.99 645.66 545.75 645.38C544.2 645.04 544 643.62 544 633C544 624 543.68 621 542.74 621C542.04 621 534.51 628 525.99 636.55ZM33.26 624.12C32.29 625.19 31.97 626.05 32.55 626.03C33.13 626.01 34.03 625.53 34.55 624.95C35.2 624.24 38.97 625.07 46.5 627.58C52.55 629.59 58.63 631.65 60 632.16C62.43 633.05 62.17 633.41 51.26 644.29L40.01 655.5C40 663.64 40.34 666.18 40.75 666.4C41.16 666.61 41.36 664.48 41.19 661.65L40.88 656.5C59.45 637.9 64.65 632.16 64.42 631.75C64.19 631.34 63.66 631.21 63.25 631.46C62.84 631.72 60.92 631.31 59 630.56C57.08 629.81 54.6 628.9 53.5 628.53C52.4 628.17 51.39 627.9 51.25 627.94C51.11 627.97 47.4 626.69 43.01 625.08C35.11 622.2 34.99 622.19 33.26 624.12Z" />
		<path id="Path 9" class="shp2" d="M33.25 625.37C32.01 625.99 30.99 627.06 31 627.75C31 628.44 29.9 630.01 28.54 631.25C26.39 633.22 25.42 636.83 20.69 660.5L15.29 687.5C30 715.4 36.23 727.1 38.62 731.5L42.97 739.5C42.97 731.75 42.3 712.85 41.5 692.5L40.03 655.5C62.17 633.41 62.43 633.05 60 632.16C58.63 631.65 52.66 629.61 46.75 627.62C40.84 625.63 35.89 624.06 35.75 624.12C35.61 624.19 34.49 624.75 33.25 625.37Z" />
		<path id="Path 10" class="shp1" d="M19.78 634.2C19.38 635.47 14.77 651.35 9.53 669.5C4.28 687.65 0.01 703.4 0.03 704.5C0.05 705.6 4.84 715.5 10.67 726.5C16.5 737.5 23.64 751 26.52 756.5C29.41 762 36.37 775.27 42 786C47.63 796.73 55.1 811.01 58.62 817.75L65 830L79.48 829.5C81.39 818.65 82.18 814.04 82.47 812.25L83 809C107.55 809 110.99 808.69 110.97 807.75C110.96 807.06 103.12 793 93.56 776.5C83.99 760 75.87 745.83 75.52 745C75.03 743.86 79.45 740.9 93.69 732.81C104.03 726.93 113.96 720.74 115.75 719.06C117.54 717.38 118.66 716 118.25 715.99C117.84 715.98 110.08 717.3 101 718.91C91.92 720.52 79.78 722.62 74 723.58C67.23 724.69 63.06 725.88 62.26 726.91C61.58 727.78 59.1 734.23 56.76 741.24C54.42 748.25 52.27 753.72 52 753.4C51.73 753.09 50.97 740.83 50.32 726.16C49.66 711.5 49.1 695.11 49.07 689.75L49 680C61.4 665.27 65.34 661.01 65.75 661.03C66.16 661.04 72.35 667.76 79.5 675.97C86.65 684.17 92.95 690.9 93.5 690.93C94.05 690.96 100.13 688.91 107 686.38C113.88 683.85 119.78 681.49 120.13 681.14C120.48 680.79 117.78 673.6 114.13 665.17L107.5 649.84C75.72 636.65 66.16 632.75 65.74 632.66C65.32 632.57 59.56 637.9 52.94 644.5L40.91 656.5C41.68 696.8 42.19 715.48 42.53 724L43.16 739.5C36.27 727.1 30.01 715.4 24.79 705.5L15.3 687.5C22.76 650.3 25.17 638.49 25.46 637.25C25.8 635.84 25.54 634.99 24.75 634.97C24.06 634.96 22.82 634.26 22 633.43C20.65 632.07 20.42 632.15 19.78 634.2Z" />
		<path id="Path 11" class="shp2" d="M130.72 711.23C128.64 712.4 126.61 713.64 126.22 713.99C125.82 714.34 114.11 721.12 100.2 729.06C81.01 740.01 75.05 743.86 75.53 745C75.88 745.83 84 760.11 93.58 776.75C103.16 793.39 111.34 807 111.75 807C112.16 807 121.39 798.12 132.25 787.25C146.19 773.31 151.99 766.84 152 765.25C152 764.01 151.44 763.01 150.75 763.01C149.8 763.02 149.68 761.56 150.25 757.01C150.82 752.47 150.7 751 149.75 751.01C148.8 751.02 148.68 749.56 149.25 745.01C149.82 740.47 149.7 739 148.75 739.01C147.8 739.02 147.68 737.56 148.25 733.01C148.86 728.09 148.73 726.91 147.5 726.5C146.68 726.23 146 725.1 146 724C146 722.83 145.17 721.79 144 721.5C142.9 721.23 141.99 720.21 141.97 719.25C141.95 718.29 140.27 715.61 138.22 713.3L134.5 709.09L130.72 711.23Z" />
		<path id="Path 12" class="shp0" d="M848.14 756.25C843.11 772.34 839.1 785.62 839.24 785.77C839.38 785.93 841.08 783.49 843 780.36C844.92 777.23 846.75 774.63 847.05 774.58C847.36 774.54 853.66 781.15 861.05 789.28C868.45 797.41 874.61 803.82 874.75 803.53C874.89 803.24 873.42 799.85 871.5 796C869.32 791.65 868.47 789.01 869.25 789.03C869.94 789.05 873.88 791.1 878 793.59L885.5 798.12L919.95 785.5L892 785C892 768.17 891.6 764 891 764C890.45 764 883.59 763.27 875.75 762.38C867.91 761.5 861.39 760.6 861.25 760.38C861.11 760.17 863.28 755.39 866.07 749.75L871.14 739.5C861.34 729.8 858.23 726.99 857.9 726.99C857.56 727 853.17 740.16 848.14 756.25Z" />
		<path id="Path 13" class="shp2" d="M949.35 794.38C943.22 795 937.93 795.84 937.6 796.25C937.27 796.66 938.79 799.36 940.97 802.25C943.16 805.14 944.98 807.95 945.01 808.5C945.05 809.05 940 811.72 933.79 814.43C927.58 817.14 922.39 819.5 922.25 819.68C922.11 819.86 925.21 824.84 929.13 830.75C933.05 836.66 936.71 841.95 937.26 842.5C937.92 843.16 938.04 840.98 937.6 836C937.24 831.88 936.62 826.13 936.22 823.24L935.5 817.97L952 818L952.07 833.5C960.55 817.23 963.48 812.27 964.07 812C964.65 811.73 965.75 808.13 966.51 804C967.27 799.88 967.92 795.71 967.95 794.75C967.99 793.36 967.22 793.03 964.25 793.13C962.19 793.2 955.48 793.76 949.35 794.38ZM780.37 804.12C779.34 806.38 778.16 808.41 777.75 808.62C777.34 808.83 775.76 808.6 774.25 808.11C772.74 807.62 768.8 806.65 765.5 805.96C762.2 805.27 757.02 804.09 754 803.35C750.98 802.6 748.16 801.99 747.75 801.99C747.34 802 747 805.15 747 809L747 816C730.34 815.11 710.2 814.27 691.5 813.56C657.69 812.27 657.48 812.27 654.5 814.33C652.85 815.47 651.27 816.67 651 816.99C650.73 817.31 647.13 820.13 643 823.26C638.88 826.39 635.05 829.32 634.5 829.77C633.95 830.21 630.8 832.59 627.5 835.04C624.2 837.49 620.97 839.95 620.31 840.5C619.66 841.05 617.52 842.74 615.56 844.25L612 847C618.29 858.55 619.93 860.57 620.82 860.14C621.63 859.75 622.33 860.27 622.65 861.5C622.93 862.6 625.15 864.96 627.58 866.75C631.12 869.35 632.94 870 636.75 869.98C639.36 869.97 648.02 869.33 656 868.56C663.98 867.79 670.73 867.35 671 867.59C671.27 867.83 671 869.03 670.39 870.26C669.78 871.49 668.54 874.19 667.64 876.25C666.74 878.31 666 880.45 666 881C666 881.55 665.39 883.46 664.64 885.25C663.89 887.04 662.77 889.74 662.14 891.25C661.51 892.76 661 894.45 661 895C661 895.55 661.79 896.21 662.75 896.46C663.71 896.71 666.3 898.04 668.5 899.41C670.7 900.78 673.85 902.65 675.5 903.57C677.15 904.5 679.74 905.87 681.25 906.62C682.76 907.38 684.23 908.45 684.5 909C684.77 909.55 684.06 914.39 682.91 919.75C681.75 925.11 680.2 932.88 679.45 937C678.7 941.13 677.39 947.2 676.54 950.5C675.69 953.8 674.99 957.29 674.99 958.25C675 959.21 674.55 960.23 674 960.5C673.45 960.77 668.39 960.33 662.75 959.52C657.11 958.7 651.15 958.02 649.5 957.99C646.93 957.96 646.13 958.63 643.93 962.73C642.51 965.35 639.85 970.2 638.01 973.5C636.16 976.8 633.46 981.75 631.99 984.5C630.53 987.25 628.08 991.75 626.57 994.5C625.05 997.25 622.34 1002.2 620.55 1005.5C618.76 1008.8 615.59 1014.65 613.51 1018.5C611.43 1022.35 608.78 1027.18 607.61 1029.24C606.45 1031.3 605.16 1032.99 604.75 1032.99C604.34 1033 603.58 1031.09 603.06 1028.75C602.55 1026.41 601.62 1022.7 601.01 1020.5C600.39 1018.3 599.46 1014.81 598.94 1012.75L598 1009C612.73 994.27 617 989.55 617 989C617 988.45 615.65 987.21 614.01 986.25C612.36 985.29 611.01 984.16 611.01 983.75C611 983.34 610.44 982.98 609.75 982.97C609.06 982.95 605.8 981.13 602.5 978.93C599.2 976.73 596.16 974.94 595.75 974.96C595.34 974.98 595 974.55 595 974C595 973.45 594.21 972.81 593.25 972.58C592.29 972.36 590.38 972.91 589 973.82C587.63 974.73 585.77 976.16 584.88 976.99C583.98 977.82 581.96 979.47 580.38 980.66C578.79 981.86 576.53 983.66 575.35 984.66C574.18 985.67 570.84 988.52 567.94 991C565.04 993.48 561.73 996.15 560.59 996.94C559.44 997.74 558.27 998.65 558 998.98C557.73 999.3 555.25 1001.35 552.5 1003.53C549.75 1005.72 547 1007.95 546.39 1008.5C545.78 1009.05 543.57 1010.85 541.48 1012.5C539.39 1014.15 535.95 1017.19 533.84 1019.25C531.73 1021.31 530 1023.45 530 1024C530 1024.55 528.14 1028.26 525.87 1032.25C523.6 1036.24 520.67 1041.53 519.35 1044C518.03 1046.47 516.95 1049.17 516.95 1050C516.94 1050.83 517.97 1052.07 519.22 1052.76C520.47 1053.45 522.85 1054.91 524.5 1056C526.15 1057.08 528.63 1058.44 530 1059.01C531.52 1059.64 532.11 1060.37 531.5 1060.87C530.95 1061.32 528.02 1062.37 525 1063.21C521.98 1064.05 511.85 1066.61 502.5 1068.9C493.15 1071.18 485.39 1073.49 485.25 1074.03C485.11 1074.56 483.88 1075 482.5 1075C481.13 1075 480 1075.45 480 1076C480 1076.55 481.91 1080.83 484.25 1085.52C486.59 1090.2 488.95 1093.85 489.5 1093.61C490.05 1093.38 492.87 1092.81 495.77 1092.35L501.03 1091.5C500.98 1096.92 500.33 1103 499.56 1108.5C498.79 1114 498.34 1118.84 498.58 1119.25C498.81 1119.66 501.59 1120.72 504.75 1121.6C507.91 1122.48 513.42 1124.11 517 1125.22C520.58 1126.33 525.3 1127.82 527.5 1128.54C529.7 1129.25 534.2 1130.57 537.5 1131.46C543.11 1132.97 543.66 1132.96 546 1131.35C547.38 1130.4 548.95 1129.26 549.5 1128.83C550.05 1128.39 551.85 1126.98 553.5 1125.7C555.15 1124.42 558.75 1121.85 561.5 1120C564.25 1118.15 568.64 1115.14 571.25 1113.31C573.86 1111.49 576.45 1110 577 1110C577.61 1110 578 1114.5 578 1121.5L578 1133C586.91 1132.13 594.23 1131.26 600 1130.5C605.77 1129.74 615.21 1128.53 620.96 1127.81C629.9 1126.69 631.74 1126.14 633.71 1124C634.97 1122.63 636.01 1121.16 636 1120.75C636 1120.34 637.58 1117.53 639.5 1114.5L643 1109C652.3 1113.65 655.45 1115 656 1115C656.55 1115 658.37 1111.29 660.04 1106.75C661.71 1102.21 663.46 1097.6 663.92 1096.5C664.38 1095.4 665.26 1093.26 665.88 1091.75C666.5 1090.22 667.77 1089.01 668.75 1089.01C669.71 1089.02 671.85 1089.46 673.5 1089.99C675.15 1090.52 679.76 1091.87 683.75 1092.98C689.56 1094.6 691.25 1094.75 692.28 1093.75C692.98 1093.06 695.52 1089.58 697.93 1086C700.34 1082.42 702.61 1079.28 702.98 1079C703.35 1078.72 704.52 1077.03 705.58 1075.24C706.63 1073.44 708.17 1071.99 709 1072C709.83 1072.01 712.27 1073.48 714.43 1075.26C716.59 1077.04 719.43 1079.4 720.75 1080.5L723.15 1082.5C720.07 1095.67 718.45 1102.88 717.56 1107C716.66 1111.13 715.52 1116.3 715.02 1118.5C714.53 1120.7 713.37 1126.1 712.45 1130.5C711.53 1134.9 710.15 1141.31 709.39 1144.75C708.62 1148.19 707.38 1153.81 706.62 1157.25C705.86 1160.69 704.68 1166.2 704.01 1169.5C703.33 1172.8 702.56 1176.17 702.29 1177C701.89 1178.18 701.62 1178.07 701 1176.5C700.57 1175.4 699.65 1172.47 698.97 1170C698.29 1167.53 697.28 1163.92 696.73 1162C696.17 1160.08 695.39 1157.38 694.98 1156C694.57 1154.63 693.66 1151.47 692.97 1149C692.28 1146.53 691.1 1142.59 690.36 1140.25C689.61 1137.91 689 1135.33 689 1134.5C689 1133.67 688.55 1133 688 1133C687.45 1133 685.65 1135.03 684 1137.5C682.35 1139.97 681.01 1142.34 681.03 1142.75C681.05 1143.16 680.26 1144.28 679.28 1145.22C678.3 1146.17 677.05 1146.97 676.5 1146.99C675.95 1147.01 674.71 1145.67 673.75 1144.01C672.79 1142.36 671.66 1141.28 671.25 1141.62C670.84 1141.95 667.74 1150.39 664.38 1160.37C661.01 1170.34 657.86 1178.5 657.38 1178.5C656.89 1178.5 655.15 1174.67 653.5 1169.99C651.85 1165.32 650.16 1160.93 649.75 1160.24C649.21 1159.34 648.24 1159.76 646.23 1161.75C644.71 1163.26 640.15 1167.42 636.09 1171C632.03 1174.58 625.73 1180.33 622.1 1183.79C618.47 1187.25 614.71 1190.52 613.75 1191.04C612.5 1191.72 612.01 1191.64 612.02 1190.75C612.03 1190.06 612.68 1185.22 613.47 1180C614.25 1174.78 614.68 1170.28 614.42 1170C614.16 1169.72 609.8 1170.8 604.72 1172.39C599.65 1173.98 595.05 1175.61 594.5 1176.01C593.95 1176.41 590.35 1177.73 586.5 1178.94C582.65 1180.15 578.6 1181.55 577.5 1182.05C576.4 1182.55 571.23 1184.31 566 1185.96C560.77 1187.61 556.27 1188.7 556 1188.38C555.73 1188.06 553.86 1184.58 551.85 1180.65C549.84 1176.72 547.7 1173.39 547.1 1173.25C546.49 1173.11 545.82 1173.56 545.6 1174.25C545.37 1174.94 544.51 1178.65 543.68 1182.5C542.85 1186.35 541.41 1193.1 540.47 1197.5C539.54 1201.9 538.18 1208.2 537.45 1211.5C536.72 1214.8 535.31 1221.22 534.31 1225.76C533.32 1230.3 532.16 1234.01 531.75 1234.01C531.34 1234 530.33 1232.88 529.5 1231.5C528.67 1230.13 527.21 1228.17 526.25 1227.15C525.29 1226.14 522.78 1223.32 520.68 1220.9C518.58 1218.48 515.88 1215.47 514.68 1214.2C513.48 1212.94 512.23 1212.26 511.9 1212.7C511.58 1213.14 510.37 1217.33 509.22 1222C508.08 1226.67 506.02 1235.22 504.65 1241C503.28 1246.78 501.39 1254.88 500.45 1259C499.51 1263.13 498.46 1266.87 498.12 1267.32C497.78 1267.78 493.9 1264.51 489.5 1260.06C482.19 1252.67 481.39 1252.13 480.17 1253.74C479.43 1254.71 477.07 1258.99 474.92 1263.25C472.76 1267.51 470.99 1271.79 470.98 1272.75C470.97 1273.71 471.34 1274.95 471.8 1275.5C472.26 1276.05 473.89 1279.65 475.42 1283.5C476.94 1287.35 478.6 1291.51 479.1 1292.75C479.59 1293.99 480.4 1296.01 480.9 1297.25C481.39 1298.49 482.48 1301.08 483.32 1303C484.16 1304.92 485.8 1308.97 486.97 1312C488.14 1315.03 489.91 1319.3 490.92 1321.5C491.92 1323.7 493.02 1326.51 493.37 1327.75C493.72 1328.99 495.01 1330.21 496.25 1330.48C497.49 1330.74 504.57 1331.64 512 1332.49C519.42 1333.33 525.56 1334.13 525.64 1334.26C525.72 1334.39 525.16 1339 524.39 1344.5C523.62 1350 523.21 1355.06 523.49 1355.75C523.86 1356.65 525.06 1356.29 527.75 1354.5C529.81 1353.12 531.73 1351.98 532 1351.97C532.27 1351.95 533.32 1354.77 534.32 1358.22C535.32 1361.67 535.88 1365.06 535.57 1365.75C535.26 1366.44 534.33 1367 533.5 1367C532.67 1367 532 1367.67 532 1368.5C532 1369.74 533.28 1369.91 539.5 1369.5L547 1369C549.49 1374.81 551.11 1378.53 552.22 1381C553.33 1383.47 555.56 1388.42 557.17 1392C558.79 1395.58 560.64 1399.52 561.3 1400.78C561.96 1402.03 562.84 1403.04 563.25 1403.03C563.66 1403.01 564 1404.13 564 1405.5C564 1407.26 564.67 1408.17 566.25 1408.57C567.49 1408.88 568.73 1408.86 569 1408.53C569.27 1408.2 567.59 1398.61 565.24 1387.22C562.9 1375.82 559.01 1356.83 556.6 1345C554.18 1333.17 550.81 1316.75 549.09 1308.5C547.38 1300.25 545.99 1292.94 545.99 1292.25C546 1291.38 547.97 1291 552.5 1291L559 1291C563.44 1278.21 565.98 1270.67 567.51 1266C569.04 1261.33 570.68 1257.28 571.15 1257C571.62 1256.72 573.01 1253.29 574.25 1249.36C575.49 1245.43 576.82 1241.83 577.2 1241.36C577.59 1240.89 578.38 1242.3 578.95 1244.5C579.52 1246.7 579.99 1249.51 579.99 1250.75C580 1252.23 580.6 1253 581.75 1253C582.71 1252.99 586.42 1251.93 590 1250.64C593.58 1249.34 597.17 1248 598 1247.66C598.83 1247.32 601.52 1246.34 604 1245.5C608.41 1243.99 608.54 1244.01 610.5 1246.39C611.6 1247.72 613.17 1249.81 614 1251.02C614.83 1252.24 616.29 1254.3 617.25 1255.62C618.94 1257.92 618.93 1258.04 616.75 1259.33C615.51 1260.06 609.55 1263.07 603.5 1266.01C597.45 1268.96 592.37 1271.39 592.21 1271.43C592.05 1271.47 592.5 1275.27 593.21 1279.88C594.05 1285.31 595.03 1288.53 596 1289.02C596.83 1289.44 603.58 1291.39 611 1293.35C618.42 1295.32 626.19 1297.17 628.25 1297.46C631.78 1297.97 632.39 1297.62 638.75 1291.47C642.46 1287.88 646.06 1284.95 646.75 1284.97C647.44 1284.99 648 1286.13 648 1287.5C648 1288.88 647.62 1290.11 647.16 1290.25C646.7 1290.39 644.89 1306.03 643.14 1325C641.39 1343.97 639.97 1359.84 639.98 1360.25C639.99 1360.66 639.55 1361 639 1361C638.45 1361 635.86 1359.56 633.25 1357.8C630.64 1356.04 627.95 1354.12 627.29 1353.55C626.62 1352.97 623.6 1350.7 620.57 1348.5C617.16 1346.02 615.23 1343.93 615.48 1343C615.71 1342.17 616.14 1339.81 616.45 1337.75C616.84 1335.11 616.63 1334.01 615.75 1334.04C615.06 1334.06 613.7 1335.08 612.72 1336.29C611.74 1337.51 610.96 1338.72 610.99 1339C611.02 1339.28 610.23 1340.4 609.24 1341.5C608.25 1342.6 606.44 1345.19 605.22 1347.25C604 1349.31 602.66 1351.01 602.25 1351.02C601.84 1351.03 600.94 1347.88 600.25 1344.02C599.56 1340.16 599 1335.65 599 1334C599 1332 598.5 1331 597.5 1331C596.67 1331 595.61 1331.79 595.13 1332.75C594.65 1333.71 593.64 1335.17 592.88 1336C592.12 1336.83 590.93 1338.63 590.23 1340C589.53 1341.38 587.84 1343.85 586.47 1345.5C585.11 1347.15 583.84 1348.28 583.65 1348C583.46 1347.72 580.98 1344.01 578.15 1339.75C575.32 1335.49 572.55 1332 572 1332C571.39 1332 571 1336.33 571 1343C571 1353.16 571.17 1354.15 573.25 1355.97C574.49 1357.05 575.84 1357.95 576.25 1357.97C576.66 1357.99 579.02 1359.35 581.5 1361C583.98 1362.65 586.45 1364 587 1364C587.55 1364 588 1364.9 588 1366C588 1367.1 587.52 1373.51 586.94 1380.25C586.36 1386.99 585.8 1397.61 585.69 1403.86L585.5 1415.21C611.08 1436.28 623.45 1446.53 629.5 1451.58C635.55 1456.63 641.63 1461.26 643 1461.86C644.38 1462.46 652.92 1464.29 662 1465.91C675.22 1468.28 679.39 1468.68 683 1467.93C685.48 1467.41 688.97 1466.65 690.77 1466.24C692.57 1465.83 694.03 1465.28 694.03 1465C694.02 1464.72 692.66 1460.45 691 1455.5C689.34 1450.55 687.98 1445.94 687.99 1445.25C688 1444.56 689.69 1443.73 691.75 1443.41C693.81 1443.08 699.89 1441.73 705.25 1440.41C710.61 1439.08 716.13 1438 717.5 1438C719.42 1438 720.14 1438.64 720.59 1440.75C720.92 1442.26 721.78 1445.3 722.5 1447.5C723.23 1449.7 724.69 1454.42 725.76 1458C726.84 1461.58 728.72 1467.88 729.95 1472C731.18 1476.13 732.37 1480.06 732.59 1480.75C732.84 1481.5 734.78 1482 737.5 1482C739.98 1482 754.04 1481.29 768.75 1480.43C783.46 1479.57 795.58 1478.78 795.68 1478.68C795.78 1478.58 801.35 1465.9 808.07 1450.5C814.79 1435.1 822.06 1418.45 824.23 1413.5C826.4 1408.55 830.1 1400 832.46 1394.5C834.82 1389 842.83 1370.55 850.26 1353.5C857.69 1336.45 866.25 1316.88 869.28 1310L874.79 1297.5C879.54 1252.55 884.08 1208.22 887.95 1170C891.82 1131.78 895.33 1098.88 895.75 1096.89L896.5 1093.28C919.75 1106.18 926.61 1109.82 926.75 1109.71C926.88 1109.59 928.47 1100.72 930.27 1090L933.55 1070.5C941.03 1110.8 943.38 1122.72 943.59 1123C943.81 1123.28 944.17 1122.83 944.41 1122C944.65 1121.17 946.28 1108.58 948.03 1094L951.22 1067.5L927 971L957.96 882.5C953.34 873.59 951.66 870.99 951.25 870.98C950.84 870.97 949.89 873.56 949.14 876.73C948.38 879.9 947.4 883.85 946.96 885.5C946.51 887.15 945.88 890.41 945.57 892.75C945.26 895.09 944.55 897 944 897C943.45 897 942.74 895.76 942.43 894.25C942.12 892.74 941.44 890.49 940.93 889.25C940.42 888.01 940 886.1 940 885C940 883.89 939.33 883 938.5 883C937.33 883 937 884.33 937 889C937 892.47 936.47 895.53 935.75 896.25C935.06 896.94 929.77 901.05 924 905.38C918.23 909.72 912.96 913.99 912.3 914.88C911.3 916.22 912.21 918.71 917.55 929.25C921.1 936.26 924 942.45 924 943C924 943.55 921.65 943.15 918.75 942.1C915.86 941.05 911.81 939.48 909.75 938.6C907.69 937.72 905.77 937 905.5 937C905.23 937 904.98 937.56 904.97 938.25C904.95 938.94 903.26 942.2 901.22 945.5C899.18 948.8 896.71 952.85 895.73 954.5C894.75 956.15 893.62 958.32 893.22 959.32C892.83 960.33 891.38 961.37 890 961.64C888.63 961.91 882.21 963.46 875.75 965.07L864 968C845.01 952.97 838.94 948.02 838.25 947.31C837.56 946.59 836.66 945.99 836.25 945.98C835.84 945.96 833.86 944.5 831.85 942.73C829.85 940.95 827.37 938.83 826.35 938C825.33 937.17 823.37 935.73 822 934.78C820.62 933.84 818.6 932.37 817.5 931.52C815.56 930.02 815.71 929.77 822.33 923.24C828.8 916.86 829.12 916.31 828.5 913C828.14 911.08 827.25 907.7 826.53 905.5C825.8 903.3 824.64 899.48 823.95 897C823.25 894.52 821.89 890.02 820.92 887C819.95 883.98 818.18 877.9 816.99 873.5C815.8 869.1 814.41 863.7 813.9 861.5C813.39 859.3 813.09 857.4 813.24 857.29C813.38 857.17 822.5 855.21 833.5 852.92C844.5 850.64 855.26 848.48 857.42 848.13C859.57 847.79 861.51 847.05 861.72 846.5C861.93 845.95 859.32 843.02 855.93 840C852.53 836.98 848.15 833.15 846.21 831.5C844.26 829.85 841.92 827.83 841.02 827C840.12 826.17 836.48 823.02 832.94 820C829.4 816.98 825.2 813.38 823.61 812C822.02 810.63 820.11 808.94 819.36 808.25C818.61 807.56 817.11 806.66 816.03 806.25C814.94 805.84 808.98 806.05 802.78 806.72C796.57 807.39 790.04 808.18 788.25 808.47L785 809C785 801.34 784.59 800 783.62 800C782.86 800 781.4 801.85 780.37 804.12Z" />
		<path id="Path 14" class="shp4" d="M957.24 823.65L952.1 833.5L952 818L936 818C936.31 825.36 936.33 825.38 936.66 822.25L937 819L951 819C951 831.83 951.36 834 952.25 834.01C952.94 834.01 955.66 829.63 958.29 824.26C960.93 818.89 962.92 814.34 962.73 814.15C962.53 813.95 960.06 818.23 957.24 823.65Z" />
		<path id="Path 15" class="shp1" d="M650.5 868.9C640.35 869.86 633.62 870.9 633.8 871.5C633.97 872.05 638.47 877.6 643.8 883.84C653.34 895 653.47 895.21 651.5 896.93C650.4 897.89 644.18 903.36 637.67 909.09C631.16 914.82 625.66 920.4 625.45 921.5C625.24 922.6 623.88 933.17 622.44 945C621 956.83 619.41 966.95 618.9 967.5C618.3 968.14 617.97 967.78 617.99 966.5C618 965.4 617.49 958.42 616.87 951C616.25 943.58 615.57 937.27 615.38 937C615.18 936.73 611.38 938.08 606.92 940C600.04 942.97 598.7 943.27 597.99 942C597.53 941.17 596.67 938.14 596.07 935.25C595.48 932.36 594.66 930 594.25 930.01C593.84 930.01 587.56 931.48 580.29 933.26L567.09 936.5C537.96 999.61 529.22 1017.39 528.88 1016.72C528.54 1016.05 527.64 1011.73 526.88 1007.11L525.5 998.72L498 985C495.88 988.49 489.62 1000.3 482.72 1013.5C475.82 1026.7 468.08 1041.33 465.52 1046L460.86 1054.5C462.04 1041.33 462.41 1035.74 462.44 1033.58L462.5 1029.66C436.59 1019.46 429.05 1016.5 429.02 1016.5C428.99 1016.5 429.83 1018.98 430.88 1022C431.93 1025.03 434.19 1031.21 435.9 1035.75L439 1044L422 1067.5L422 1116L441.5 1116.5L425.5 1122.84L424.93 1161.5C414.91 1168.86 411.77 1171 411.5 1171C411.23 1171 408.24 1166.84 404.87 1161.75C401.49 1156.66 398.46 1152.15 398.12 1151.72C397.78 1151.3 391.88 1151.64 385 1152.49C378.13 1153.34 372.38 1153.91 372.23 1153.77C372.08 1153.62 375.23 1151.52 379.23 1149.1C383.23 1146.68 386.73 1144.55 387 1144.36C387.27 1144.17 385.96 1140.3 384.08 1135.76C382.21 1131.22 380.52 1127.39 380.33 1127.25C380.15 1127.11 374.77 1130.71 368.37 1135.25C361.97 1139.79 356.57 1143.84 356.37 1144.25C356.17 1144.66 359.04 1154.2 362.75 1165.45L369.5 1185.9C385.77 1198.38 398.82 1208.35 409 1216.09C419.18 1223.84 427.82 1230.93 428.21 1231.84C428.6 1232.75 430.99 1244.08 433.51 1257C436.04 1269.92 438.26 1280.95 438.46 1281.5C438.67 1282.08 443.13 1281.14 449.16 1279.24C454.85 1277.45 459.54 1276.1 459.6 1276.24C459.65 1276.38 461.81 1287.3 464.39 1300.5C466.97 1313.7 469.27 1325.17 469.5 1326C469.72 1326.83 475.21 1331.29 481.7 1335.92C488.19 1340.55 493.58 1344.38 493.68 1344.42C493.78 1344.46 496.26 1353.17 499.18 1363.77C503.98 1381.15 504.74 1383.12 507 1383.95C508.38 1384.46 521.42 1389.82 536 1395.87C553.19 1403.01 562.63 1406.46 562.88 1405.69C563.09 1405.04 562.56 1403.15 561.69 1401.5C560.83 1399.85 558.79 1395.58 557.18 1392C555.56 1388.42 553.33 1383.47 552.22 1381C551.11 1378.53 549.49 1374.81 548.6 1372.75L547 1369C533.28 1369.91 532 1369.74 532 1368.5C532 1367.67 532.67 1367 533.5 1367C534.33 1367 535.26 1366.44 535.57 1365.75C535.88 1365.06 535.32 1361.67 534.32 1358.22C533.32 1354.77 532.27 1351.95 532 1351.97C531.73 1351.98 529.81 1353.12 527.75 1354.5C525.06 1356.29 523.86 1356.65 523.49 1355.75C523.21 1355.06 523.62 1350 524.39 1344.5C525.16 1339 525.72 1334.39 525.64 1334.26C525.56 1334.13 519.42 1333.33 512 1332.49C504.57 1331.64 497.49 1330.74 496.25 1330.48C495.01 1330.21 493.72 1328.99 493.37 1327.75C493.02 1326.51 491.92 1323.7 490.92 1321.5C489.91 1319.3 488.14 1315.03 486.97 1312C485.8 1308.97 484.16 1304.92 483.32 1303C482.48 1301.08 481.39 1298.49 480.9 1297.25C480.4 1296.01 479.59 1293.99 479.1 1292.75C478.6 1291.51 476.94 1287.35 475.42 1283.5C473.89 1279.65 472.26 1276.05 471.8 1275.5C471.34 1274.95 470.97 1273.71 470.98 1272.75C470.99 1271.79 472.76 1267.51 474.92 1263.25C477.07 1258.99 479.43 1254.71 480.17 1253.74C481.39 1252.13 482.19 1252.67 489.5 1260.06C493.9 1264.51 497.78 1267.78 498.12 1267.32C498.46 1266.87 499.51 1263.13 500.45 1259C501.39 1254.88 503.28 1246.78 504.65 1241C506.02 1235.22 508.08 1226.67 509.22 1222C510.37 1217.33 511.58 1213.14 511.9 1212.7C512.23 1212.26 513.48 1212.94 514.68 1214.2C515.88 1215.47 518.58 1218.48 520.68 1220.9C522.78 1223.32 525.29 1226.14 526.25 1227.15C527.21 1228.17 528.67 1230.13 529.5 1231.5C530.33 1232.88 531.34 1234 531.75 1234.01C532.16 1234.01 533.32 1230.3 534.31 1225.76C535.31 1221.22 536.72 1214.8 537.45 1211.5C538.18 1208.2 539.54 1201.9 540.47 1197.5C541.41 1193.1 542.85 1186.35 543.68 1182.5C544.51 1178.65 545.37 1174.94 545.6 1174.25C545.82 1173.56 546.49 1173.11 547.1 1173.25C547.7 1173.39 549.84 1176.72 551.85 1180.65C553.86 1184.58 555.73 1188.06 556 1188.38C556.27 1188.7 560.77 1187.61 566 1185.96C571.23 1184.31 576.4 1182.55 577.5 1182.05C578.6 1181.55 582.65 1180.15 586.5 1178.94C590.35 1177.73 593.95 1176.41 594.5 1176.01C595.05 1175.61 599.65 1173.98 604.72 1172.39C609.8 1170.8 614.16 1169.72 614.42 1170C614.68 1170.28 614.25 1174.78 613.47 1180C612.68 1185.22 612.03 1190.06 612.02 1190.75C612.01 1191.64 612.5 1191.72 613.75 1191.04C614.71 1190.52 618.47 1187.25 622.1 1183.79C625.73 1180.33 632.03 1174.58 636.09 1171C640.15 1167.42 644.71 1163.26 646.23 1161.75C648.3 1159.69 649.22 1159.32 649.87 1160.25C650.34 1160.94 651.96 1165.33 653.45 1170C654.95 1174.67 656.52 1178.05 656.95 1177.5C657.37 1176.95 660.28 1168.85 663.4 1159.5C666.53 1150.15 669.48 1141.83 669.96 1141C670.43 1140.17 671.43 1139.78 672.16 1140.12C672.9 1140.46 674.16 1142.03 674.97 1143.62C675.77 1145.2 676.56 1146.72 676.71 1147C676.86 1147.28 677.91 1146.6 679.03 1145.5C680.15 1144.4 681.05 1143.16 681.03 1142.75C681.01 1142.34 682.35 1139.97 684 1137.5C685.65 1135.03 687.45 1133 688 1133C688.55 1133 689 1133.67 689 1134.5C689 1135.33 689.61 1137.91 690.36 1140.25C691.1 1142.59 692.29 1146.53 692.99 1149C693.69 1151.47 694.72 1155.08 695.27 1157C695.83 1158.92 696.61 1161.63 697.02 1163C697.43 1164.38 698.32 1167.53 698.99 1170C699.66 1172.47 700.57 1175.4 701 1176.5C701.62 1178.07 701.89 1178.18 702.29 1177C702.56 1176.17 703.33 1172.8 704.01 1169.5C704.68 1166.2 705.86 1160.69 706.62 1157.25C707.38 1153.81 708.62 1148.19 709.39 1144.75C710.15 1141.31 711.53 1134.9 712.45 1130.5C713.37 1126.1 714.53 1120.7 715.02 1118.5C715.52 1116.3 716.66 1111.13 717.56 1107C718.45 1102.88 720.07 1095.67 721.16 1091L723.15 1082.5C719.43 1079.4 716.59 1077.04 714.43 1075.26C712.27 1073.48 709.83 1072.01 709 1072C708.17 1071.99 706.63 1073.44 705.58 1075.24C704.52 1077.03 703.35 1078.72 702.98 1079C702.61 1079.28 700.34 1082.42 697.93 1086C695.52 1089.58 692.98 1093.06 692.28 1093.75C691.25 1094.75 689.56 1094.6 683.75 1092.98C679.76 1091.87 675.15 1090.52 673.5 1089.99C671.85 1089.46 669.71 1089.02 668.75 1089.01C667.77 1089.01 666.5 1090.22 665.88 1091.75C665.26 1093.26 664.38 1095.4 663.92 1096.5C663.46 1097.6 661.71 1102.21 660.04 1106.75C658.37 1111.29 656.55 1115 656 1115C655.45 1115 652.3 1113.65 649 1112L643 1109C637.58 1117.53 636 1120.34 636 1120.75C636.01 1121.16 634.97 1122.63 633.71 1124C631.74 1126.14 629.9 1126.69 620.96 1127.81C615.21 1128.53 605.77 1129.74 600 1130.5C594.23 1131.26 586.91 1132.13 583.75 1132.44L578 1133C578 1114.5 577.61 1110 577 1110C576.45 1110 573.86 1111.49 571.25 1113.31C568.64 1115.14 564.25 1118.15 561.5 1120C558.75 1121.85 555.15 1124.42 553.5 1125.7C551.85 1126.98 550.05 1128.39 549.5 1128.83C548.95 1129.26 547.38 1130.4 546 1131.35C543.66 1132.96 543.11 1132.97 537.5 1131.46C534.2 1130.57 529.7 1129.25 527.5 1128.52C525.3 1127.8 520.13 1126.18 516 1124.93C511.88 1123.68 506.25 1121.93 503.5 1121.04C500.51 1120.07 498.5 1118.84 498.51 1117.96C498.51 1117.16 499.19 1111.24 500.01 1104.81C500.83 1098.38 501.17 1092.76 500.76 1092.31C500.35 1091.87 498.77 1092.04 497.26 1092.71C495.74 1093.37 492.93 1094.19 491 1094.52L487.5 1095.13C480.91 1081.85 479 1077.1 479 1076C479 1074.49 479.79 1073.91 482.25 1073.63C484.04 1073.43 493.15 1071.35 502.5 1069C511.85 1066.66 521.98 1064.05 525 1063.21C528.02 1062.37 530.95 1061.32 531.5 1060.87C532.11 1060.37 531.52 1059.64 530 1059.01C528.63 1058.44 526.15 1057.08 524.5 1056C522.85 1054.91 520.47 1053.45 519.22 1052.76C517.97 1052.07 516.94 1050.83 516.95 1050C516.95 1049.17 518.03 1046.47 519.35 1044C520.67 1041.53 523.6 1036.24 525.87 1032.25C528.14 1028.26 530 1024.55 530 1024C530 1023.45 531.73 1021.31 533.84 1019.25C535.95 1017.19 539.39 1014.15 541.48 1012.5C543.57 1010.85 545.78 1009.05 546.39 1008.5C547 1007.95 549.75 1005.72 552.5 1003.53C555.25 1001.35 557.73 999.3 558 998.98C558.27 998.65 559.44 997.74 560.59 996.94C561.73 996.15 565.04 993.48 567.94 991C570.84 988.52 574.18 985.67 575.35 984.66C576.53 983.66 578.79 981.86 580.38 980.66C581.96 979.47 583.98 977.82 584.88 976.99C585.77 976.16 587.63 974.73 589 973.82C590.38 972.91 592.29 972.36 593.25 972.58C594.21 972.81 595 973.45 595 974C595 974.55 595.34 974.98 595.75 974.96C596.16 974.94 599.2 976.73 602.5 978.93C605.8 981.13 609.06 982.95 609.75 982.97C610.44 982.98 611 983.34 611.01 983.75C611.01 984.16 612.36 985.29 614.01 986.25C615.65 987.21 617 988.45 617 989C617 989.55 612.73 994.27 607.5 999.5L598 1009C599.46 1014.81 600.39 1018.3 601.01 1020.5C601.62 1022.7 602.55 1026.41 603.06 1028.75C603.58 1031.09 604.34 1033 604.75 1032.99C605.16 1032.99 606.45 1031.3 607.61 1029.24C608.78 1027.18 611.43 1022.35 613.51 1018.5C615.59 1014.65 618.76 1008.8 620.55 1005.5C622.34 1002.2 625.05 997.25 626.57 994.5C628.08 991.75 630.53 987.25 631.99 984.5C633.46 981.75 636.16 976.8 638.01 973.5C639.85 970.2 642.51 965.35 643.93 962.73C646.13 958.63 646.93 957.96 649.5 957.99C651.15 958.02 657.11 958.7 662.75 959.52C668.39 960.33 673.45 960.77 674 960.5C674.55 960.23 675 959.21 674.99 958.25C674.99 957.29 675.69 953.8 676.54 950.5C677.39 947.2 678.7 941.13 679.45 937C680.2 932.88 681.75 925.11 682.91 919.75C684.06 914.39 684.77 909.55 684.5 909C684.23 908.45 682.65 907.33 681 906.5C679.35 905.67 676.76 904.3 675.25 903.45C673.74 902.59 670.7 900.78 668.5 899.41C666.3 898.04 663.71 896.71 662.75 896.46C661.79 896.21 661 895.55 661 895C661 894.45 661.51 892.76 662.14 891.25C662.77 889.74 663.89 887.04 664.64 885.25C665.39 883.46 666 881.55 666 881C666 880.45 666.73 878.31 667.62 876.25C668.51 874.19 669.64 871.71 670.12 870.75C670.6 869.79 671 868.55 671 868C671 867.45 670.21 867.07 669.25 867.15C668.29 867.24 659.85 868.02 650.5 868.9Z" />
		<path id="Path 16" class="shp4" d="M910.05 916.25C910.08 916.94 913.21 923.58 917 931C920.79 938.42 923.92 943.94 923.95 943.25C923.98 942.56 921.09 936.26 917.54 929.25C913.99 922.24 911.36 916.16 911.71 915.75C912.05 915.34 911.81 915 911.17 915C910.52 915 910.02 915.56 910.05 916.25ZM724.5 987.67C724.04 988.03 723.73 988.82 723.82 989.42C723.91 990.13 724.39 990.07 725.18 989.25C726.06 988.35 731.14 988 743.45 987.99L760.5 987.97C768.25 1003.51 770.84 1008.02 771.25 1008.01C771.66 1008.01 769.64 1003.27 766.75 997.49L761.5 986.99C733.47 987 724.96 987.3 724.5 987.67Z" />
		<path id="Path 17" class="shp1" d="M724.63 990.25C723.86 991.49 720.69 997 717.59 1002.5C714.49 1008 712.07 1012.62 712.22 1012.77C712.38 1012.91 715.65 1013.73 719.5 1014.57C723.35 1015.41 726.73 1016.32 727 1016.57C727.27 1016.83 725.59 1018.95 723.26 1021.27C720.93 1023.6 719.02 1025.84 719.01 1026.25C719.01 1026.66 721.36 1028.52 724.25 1030.38L729.5 1033.76C762.83 1035.57 775.32 1036.41 778.76 1036.8L785.02 1037.5C785 1021.91 785.4 1018 786 1018C786.55 1018 788.69 1019.11 790.75 1020.47C792.81 1021.83 794.73 1022.73 795 1022.47C795.27 1022.21 793.25 1016.81 790.5 1010.48C787.75 1004.15 785.05 998.99 784.5 999.01C783.95 999.03 780.8 1001.08 777.5 1003.55C774.2 1006.02 771.27 1008.04 771 1008.04C770.73 1008.03 768.25 1003.51 765.5 998L760.5 987.97C726.49 988 726 988.06 724.63 990.25Z" />
		<path id="Path 18" class="shp4" d="M727.5 1033.91C728.05 1034.36 738.4 1035.26 750.5 1035.91C762.6 1036.56 772.69 1036.85 772.92 1036.55C773.15 1036.25 772.02 1036 770.42 1036C768.81 1036.01 760.3 1035.56 751.5 1035C742.7 1034.45 733.48 1033.8 731 1033.55C728.52 1033.3 726.95 1033.46 727.5 1033.91Z" />
		<path id="Path 19" class="shp3" d="M421.43 1092C421.43 1105.47 421.57 1110.88 421.75 1104C421.92 1097.13 421.92 1086.1 421.75 1079.5C421.57 1072.9 421.43 1078.53 421.43 1092Z" />
		<path id="Path 20" class="shp4" d="M479 1076C479 1077.1 480.91 1081.85 483.25 1086.55L487.5 1095.09C493.7 1094.07 496.18 1093.36 497 1092.84C498.01 1092.22 497.35 1092.12 495 1092.53C493.07 1092.87 490.82 1093.34 490 1093.57C488.95 1093.87 487.23 1091.45 484.25 1085.5C481.91 1080.82 480 1076.55 480 1076C480 1075.45 481.24 1074.84 482.75 1074.65C485.23 1074.33 485.19 1074.29 482.25 1074.15C479.62 1074.03 479 1074.38 479 1076ZM669.5 1141.75C669.13 1142.71 666.17 1151.38 662.92 1161C659.67 1170.63 657.23 1178.72 657.5 1179C657.76 1179.28 658.2 1178.83 658.48 1178C658.75 1177.17 661.49 1169.08 664.56 1160C667.64 1150.92 670.46 1142.89 670.83 1142.15C671.31 1141.19 672.14 1141.77 673.73 1144.15C674.96 1145.99 675.97 1146.94 675.98 1146.25C675.99 1145.56 675.33 1143.88 674.5 1142.5C673.67 1141.13 672.36 1140 671.58 1140C670.81 1140 669.87 1140.79 669.5 1141.75Z" />
		<path id="Path 21" class="shp1" d="M576.62 1242C576.35 1242.83 573.79 1250.7 570.92 1259.5C568.06 1268.3 564.43 1279.21 562.86 1283.75L560 1292C549.15 1292 546 1292.34 545.99 1292.75C545.99 1293.16 547.38 1300.25 549.09 1308.5C550.81 1316.75 554.18 1333.17 556.6 1345C559.01 1356.83 562.77 1375.5 564.96 1386.5C567.15 1397.5 569.16 1407.4 569.42 1408.5C569.78 1410.01 571.57 1410.94 576.7 1412.29C580.44 1413.28 583.78 1413.73 584.11 1413.29C584.45 1412.86 585.26 1404.63 585.9 1395C586.55 1385.38 587.4 1374.46 587.79 1370.74C588.33 1365.62 588.2 1363.98 587.25 1363.99C586.56 1364 583.98 1362.65 581.5 1361C579.02 1359.35 576.66 1357.99 576.25 1357.97C575.84 1357.95 574.49 1357.05 573.25 1355.97C571.17 1354.15 571 1353.16 571 1343C571 1336.33 571.39 1332 572 1332C572.55 1332 575.32 1335.49 578.15 1339.75C580.98 1344.01 583.46 1347.72 583.65 1348C583.84 1348.28 585.11 1347.15 586.47 1345.5C587.84 1343.85 589.53 1341.38 590.23 1340C590.93 1338.63 592.12 1336.83 592.88 1336C593.64 1335.17 594.65 1333.71 595.13 1332.75C595.61 1331.79 596.67 1331 597.5 1331C598.5 1331 599 1332 599 1334C599 1335.65 599.56 1340.16 600.25 1344.02C600.94 1347.88 601.84 1351.03 602.25 1351.02C602.66 1351.01 604 1349.31 605.22 1347.25C606.44 1345.19 608.25 1342.6 609.24 1341.5C610.23 1340.4 611.02 1339.28 610.99 1339C610.96 1338.72 611.74 1337.51 612.72 1336.29C613.7 1335.08 615.06 1334.06 615.75 1334.04C616.63 1334.01 616.84 1335.11 616.45 1337.75C616.14 1339.81 615.71 1342.17 615.48 1343C615.23 1343.93 617.16 1346.02 620.57 1348.5C623.6 1350.7 626.62 1352.97 627.29 1353.55C627.95 1354.12 630.64 1356.04 633.25 1357.8C635.86 1359.56 638.45 1361 639 1361C639.55 1361 640.01 1360.21 640.02 1359.25C640.03 1358.29 641.56 1341.53 643.41 1322C645.26 1302.47 646.71 1286.38 646.64 1286.24C646.56 1286.1 643.35 1288.97 639.5 1292.61C634.36 1297.47 631.97 1299.1 630.5 1298.72C629.4 1298.44 625.13 1297.27 621 1296.12C616.88 1294.97 609.6 1293.01 604.83 1291.77C600.06 1290.52 595.75 1289.05 595.26 1288.5C594.76 1287.95 593.8 1283.9 593.13 1279.5C592.46 1275.1 592.05 1271.47 592.21 1271.43C592.37 1271.39 597.45 1268.96 603.5 1266.01C609.55 1263.07 615.51 1260.06 616.75 1259.33C618.93 1258.04 618.94 1257.92 617.25 1255.62C616.29 1254.3 614.83 1252.24 614 1251.02C613.17 1249.81 611.6 1247.72 610.5 1246.39C608.54 1244.01 608.41 1243.99 604 1245.5C601.52 1246.34 598.83 1247.32 598 1247.66C597.17 1248 593.58 1249.34 590 1250.64C586.42 1251.93 582.83 1253 582 1253.01C580.98 1253.02 580.26 1251.51 579.73 1248.27C579.31 1245.64 578.55 1242.83 578.04 1242C577.21 1240.67 577.05 1240.67 576.62 1242Z" />
		<path id="Path 22" class="shp4" d="M567.62 1265.68C566.04 1270.53 563.45 1278.21 561.87 1282.75L559 1291L545.5 1291.61L560 1292C564.44 1279.21 566.95 1271.67 568.45 1267C569.94 1262.33 571.02 1258.13 570.83 1257.68C570.65 1257.24 569.21 1260.84 567.62 1265.68ZM638.25 1291.64C632.83 1297.15 631.63 1297.92 629.25 1297.42C627.13 1296.97 626.84 1297.08 628 1297.9C628.83 1298.49 630.37 1298.98 631.44 1298.98C632.52 1298.99 636.3 1296.09 639.89 1292.5C643.46 1288.92 646.53 1286 646.69 1286C646.86 1286 646.77 1286.9 646.5 1288C646.23 1289.1 646.45 1290 647 1290C647.55 1290 648 1288.88 648 1287.5C648 1285.73 647.49 1285.04 646.25 1285.14C645.29 1285.22 641.69 1288.14 638.25 1291.64Z" />
		<path id="Path 23" class="shp1" d="M704.5 1440.51C699.55 1441.77 693.81 1443.07 691.75 1443.4C689.69 1443.73 688 1444.56 687.99 1445.25C687.98 1445.94 689.34 1450.55 691 1455.5C692.66 1460.45 694.02 1464.72 694.02 1465C694.03 1465.28 691.09 1466.17 687.5 1467C683.91 1467.83 680.98 1468.84 680.99 1469.25C680.99 1469.66 683.92 1473.6 687.5 1478C691.08 1482.4 694.34 1486.18 694.75 1486.41C695.16 1486.63 710.35 1489.82 728.5 1493.49C757.81 1499.42 762.39 1500.11 769.5 1499.64C773.9 1499.36 781.67 1498.53 786.76 1497.81L796.03 1496.5C796 1479.34 795.91 1479 793.75 1479.03C792.51 1479.04 780.7 1479.71 767.5 1480.51C754.3 1481.3 741.14 1481.97 738.25 1481.98C734.91 1481.99 732.86 1481.55 732.61 1480.75C732.39 1480.06 731.33 1476.58 730.25 1473C729.17 1469.42 727.29 1463.13 726.07 1459C724.84 1454.88 723.25 1449.7 722.52 1447.5C721.79 1445.3 720.92 1442.26 720.59 1440.75C720.09 1438.4 719.52 1438.02 716.75 1438.11C714.96 1438.17 709.45 1439.25 704.5 1440.51Z" />
	</g>
</svg>