<svg version="1.2" xmlns="http://www.w3.org/2000/svg" viewBox="0 0 1052 1500" width="1052" height="1500">
	<title>tucker-svg</title>
	<style>
		.s0 { fill: #7f7f7f } 
		.s1 { fill: #000000 } 
		.s2 { fill: #ffffff } 
	</style>
	<g id="Background copy">
		<path id="Path 0" class="s0" d="m558.7 1h37.3l-5.3 6.5c-2.8 3.6-5 6.8-4.7 7.1 0.3 0.3 2.3 0 4.5-0.7 2.2-0.6 5.6-1.9 7.5-2.9 3.4-1.7 4.3-1.6 45.5 5q42 6.6 45.5 8.5c1.9 1 45.3 25.2 96.5 53.7 51.2 28.6 93.5 52.5 94.1 53.1 0.6 0.7 8.9 23.5 18.4 50.7 9.5 27.2 17.8 50.6 18.5 52 0.7 1.4 4.8 7 9 12.5 4.3 5.5 20.8 25.6 65.5 79.5l3.1 24.7c1.6 13.7 2.8 25.5 2.5 26.3-0.3 0.8-1.8 5.1-3.5 9.5-1.9 5.2-3.4 7.9-4.3 7.7-0.7-0.2-7.5-2.6-15.1-5.3-7.5-2.7-14.4-4.9-15.2-4.9-0.8 0-1.5 0.8-1.5 1.7 0 1-1.4 20.7-3 43.8-1.7 23.1-3.4 45.1-4.5 55.9l-4.4-9c-2.4-4.9-11.6-24.2-20.5-42.9-8.9-18.7-19.5-41.3-31.1-66.6l-10.5-9.6c-5.8-5.3-14.9-13.8-30-28.3l1.1-22.3c0.6-12.2 1.4-23.8 2.5-29.2l35.4 0.5 5-8.3c2.8-4.5 5.3-9.1 5.6-10.2 0.2-1.1-2.9-14.4-6.9-29.5-4.1-15.1-9.6-35.6-12.3-45.5-4.7-17.3-5-18-8.3-20-1.9-1.1-22.7-12.1-46.2-24.5-23.4-12.4-43.6-23.2-44.8-24-2-1.4-2-1.7-0.5-4.5 0.8-1.7 2.9-5.4 7.4-13.5l-13.8-8.9c-7.5-4.9-16-10-18.7-11.4-4.2-2.1-11.7-3.5-47-8.7-23.1-3.3-54.2-7.9-69-10.1-14.9-2.2-29.5-4.3-32.5-4.8-4.6-0.6-6.1-0.4-9 1.2-1.9 1.1-6.3 3.9-9.8 6.3-3.4 2.4-6.2 4.7-6.2 5.1 0 0.5 6.1 5.7 13.5 11.8 7.3 6 12.8 11.1 12.2 11.3-0.7 0.2-19.9-1.7-42.7-4.2-22.8-2.6-43-4.8-44.8-5.1-2.7-0.4-4.1 0.2-9.2 4.5-3.3 2.7-6 5.4-6 6 0 0.5 5.9 3.4 13.1 6.2 7.3 2.9 13.3 5.5 13.4 5.8 0.2 0.3-8 4.3-18.2 9-10.2 4.7-18.7 8.8-18.9 9.2-0.2 0.5-0.3 1-0.2 1.3 0.2 0.3 37 7.8 163.3 33.1l40.8 29.9-0.7 11.5c-0.4 6.3-0.9 12.6-1.2 14-0.4 2.3 2.7 4.9 36.3 29.9 20.2 15.1 37.6 28.2 38.6 29 1.7 1.5 1.7 8.8-0.5 336.6l6 23.5c3.4 12.9 8.4 32.4 11.2 43.2 2.7 10.9 5 20.3 5 20.8 0 0.5-3.5 2.3-7.8 3.9-4.2 1.6-15.6 5.6-25.2 8.9-9.6 3.3-31.2 10.8-48 16.7-16.8 5.9-36.8 12.9-44.5 15.5-7.7 2.6-36.5 12.7-64 22.3-27.5 9.6-57.2 20.1-66 23.2-8.8 3.1-18.3 6.5-21 7.4-3.6 1.3-5.2 2.5-5.7 4.2-0.4 1.3-2.2 29.2-3.9 61.9-1.8 32.7-3.2 62.9-3.3 67-0.1 6.2 1.8 15.6 10.6 54 5.9 25.6 11 48.5 11.3 51 0.6 4.1 0.3 5.2-4.1 12.5-2.6 4.4-9.9 16.1-16.2 26-6.3 9.9-12.9 19.3-14.7 21-1.8 1.7-15.8 9-31.1 16.3-15.4 7.3-29 14.2-32.9 17.1l5.5 4.9c3 2.7 13.8 12 24 20.7 10.2 8.7 38.9 33.1 63.7 54.4 24.9 21.2 45.2 38.7 45 38.8-0.1 0.1-9.4 0.9-20.7 1.7-11.3 0.9-30.9 2.3-43.5 3.1-12.7 0.8-32.6 2.2-65.5 4.5l-15.8-3.5c-8.6-1.9-33.5-7.3-55.2-11.9-21.7-4.7-41.2-8.7-43.3-9-3.4-0.6-3.9-0.3-6 3.1-1.3 2.1-4.5 8.6-7 14.5-2.6 6-4.6 11-4.5 11.2 0.2 0.3 6.1 1.2 13.3 2 7.1 0.9 14.9 1.6 21.5 1.6v4.2c0 2.4 0.7 11.3 1.5 19.8 0.8 8.5 1.7 17.2 2 19.2 0.5 3.6 0.7 3.8 4.2 3.8 2.1 0 9.6-0.7 16.8-1.6 7.1-0.8 13.4-1.9 14-2.4 0.6-0.5 0.4-1.7-0.8-3.2-1-1.3-8.2-9.4-16-18.2-7.8-8.7-14.9-16.7-15.7-17.7-0.8-1.1-1.3-2.1-1-2.3 0.3-0.3 16.2 1.3 35.5 3.4 19.2 2.2 50.3 5.5 69 7.5 18.7 2 50.2 5.4 70 7.5 19.8 2.2 36.1 4.1 36.2 4.2 0.2 0.2-0.6 6.4-1.8 13.8-1.4 9.9-2.4 13.8-3.7 14.8-0.9 0.7-2.6 1.2-3.7 1.2-1.1 0.1-10.3 0.9-20.5 2-10.2 1-36.1 3.7-57.5 5.9-21.5 2.3-40.9 4.3-43.3 4.6-2.3 0.3-4.2 0.8-4.2 1.2 0 0.5 3.3 6.4 14.7 25.8l6.9 1.7c3.8 1 18.1 4.2 31.9 7.2 13.7 3 31.4 6.9 53.5 11.6l39.7-4.5c33.4-3.8 40-4.8 41.1-6.2 0.7-1 5.5-9.2 10.6-18.3 5.1-9.1 12.8-22.8 17-30.5 4.3-7.7 8.2-14.5 8.7-15 0.6-0.6 0.9 16.4 1 89l-28.1 33c-15.5 18.2-29.1 34-30.3 35.2-1.7 1.8-8.8 4-30.2 9.7-15.4 4.1-39.9 10.7-54.5 14.6-14.6 4-27.4 7.2-28.5 7.2-1.1 0-15.3-5.4-31.5-12-16.2-6.6-33.8-13.9-39-16.2-5.2-2.3-11.1-5.3-13.1-6.8-2-1.5-11.9-10.6-22.1-20.2-10.1-9.6-33.3-31.7-51.6-49-18.3-17.3-33.1-32-32.9-32.5 0.2-0.5 5.9-3.3 24.7-11l-5.9-11c-3.2-6-8.1-14.9-10.9-19.8-3.8-6.4-6.3-9.4-9.5-11.4-2.3-1.5-10.6-6-18.5-10-12.4-6.4-14.5-7.2-16.5-6.1-1.2 0.6-6.1 3.9-10.9 7.2-5.8 4-9.1 5.8-9.8 5.1-0.5-0.5-26.8-53.2-58.3-117-31.6-63.8-58.1-117.6-58.9-119.5-1.4-3.4-1.3-4.2 3.3-19.5 2.7-8.8 5.4-18.3 6-21 0.9-4.3 0.3-11.4-4.5-51.5-3.1-25.6-8.1-67-16.5-137.5l5.9-18.5c3.2-10.2 6.4-19.9 7-21.5 1.1-2.8 1.3-2.8 2-1 0.5 1.1 1.6 7.8 2.5 15 0.9 7.1 4.9 38.9 16.1 128l15.8 31c8.8 17 28.2 55.1 43.4 84.5 15.1 29.4 28.1 54.5 28.8 55.7 1.1 1.8 2.1 2.2 4.6 1.8 1.8-0.2 10.9-1.2 20.3-2.1 16.6-1.5 17.1-1.6 22.5-5.1 3-2 21.2-14.5 40.5-27.8 19.2-13.3 40.3-27.8 46.8-32.1 6.4-4.3 11.9-7.7 12.1-7.4 0.3 0.3-3.5 10-8.4 21.5-4.8 11.5-17.4 41-27.9 65.5-10.5 24.5-19.1 45.1-19.1 45.7 0 0.7 15.4 16.4 34.2 34.8 29.3 28.7 35 33.8 38.8 35 2.5 0.8 19.6 4.5 71.5 15h19.3c16.1 0 19.4-0.2 20.2-1.5 0.4-0.8 1.6-6.9 2.5-13.5 0.9-6.6 1.5-12.1 1.3-12.2-0.2-0.1-12.2-0.9-26.8-1.8-14.6-0.9-27.2-1.8-28-2-1.1-0.3-2.7-7.6-11.5-58.7l-14.5-18.6c-8-10.3-16.4-21.1-18.8-24-2.8-3.5-3.9-5.6-3.3-6.5 0.5-0.6 1-4.6 1.6-16.2l-10.8-0.3c-6.3-0.1-10.7-0.6-10.7-1.2 0-0.5 2.2-3.7 5-7 2.7-3.3 5.6-6.2 6.2-6.5 0.7-0.3 16.8 4 35.8 9.5 19 5.5 34.9 10 35.5 10 0.5-0.1 9.1-6.5 37-28.6l0.5-144.6c0.3-94.6 0.8-145 1.5-145.6 0.5-0.5 13.8-5.6 29.5-11.5 15.7-5.8 42-15.6 58.5-21.7 16.5-6.1 34.7-12.9 40.5-15 5.8-2.2 22.6-8.5 64.5-24.2l16.8-16.1c9.6-9.3 16.5-16.7 16.2-17.5-0.3-0.6-10-14.1-21.7-30-11.6-15.8-27.7-37.5-35.7-48.2-7.9-10.7-15.8-21.6-17.5-24.3-1.7-2.6-2.9-4.9-2.6-5.1 0.3-0.2 5.8-3.8 12.2-8 6.5-4.2 11.8-7.8 11.8-8.1 0-0.3-4.2-6.2-9.3-13.3-5.1-7-9.7-13.4-10.1-14.2-0.6-1 3.1-9.1 11.3-25 6.6-12.9 12.1-24.2 12.1-25 0-0.8-9.6-17.5-42.7-72.5l-5.7-30c-3.1-16.5-11.9-62.8-33.1-175.9l-3.5-0.7c-1.9-0.4-17.2-2.1-34-3.8-16.8-1.7-39.7-4-51-5.1-11.3-1-38.7-3.8-61-6-22.3-2.3-42.5-4.2-45-4.2-3.9-0.1-12.7 3.6-65.5 27.7-33.5 15.3-68.6 31.2-94.8 43l-39.6 39c-21.8 21.4-46.6 45.8-70.6 69.5l-5.7 54.2c-3.1 29.9-5.8 56.1-5.8 58.3-0.1 3.7 0.3 4.3 5.2 8 2.9 2.2 8.9 6.5 21.4 15l5.8 120-4.7 56c-2.6 30.8-5.3 62.6-6 70.7-0.7 8.1-1 14.9-0.7 15.2 0.3 0.3 4.8-0.9 10-2.8 5.2-1.9 15.1-5.6 34.5-13.3l52 5.2c28.6 2.9 54.5 5.6 57.5 6 3 0.4 7.3 1.1 9.5 1.7 2.2 0.6 23.6 9.9 47.5 20.8 23.9 10.9 47.4 21.7 52.2 23.9 4.9 2.3 8.6 4.4 8.4 4.8-0.2 0.5-7.4 17.7-16.1 38.3-8.6 20.6-16.6 39.2-17.6 41.2-1.7 3.4-2.3 3.8-5.9 3.8-2.2 0-28-2.3-57.3-5-29.2-2.8-65.1-6.2-79.7-7.5-14.6-1.4-28.4-2.7-30.8-3-3.5-0.4-4.4-1-5.3-3.3-0.5-1.5-0.9-4-0.7-5.7q0.3-2.9 2.8-4.2c1.4-0.7 8.5-4.5 15.7-8.3 7.3-3.9 13.7-7 14.3-7 0.5 0 0.9 0.4 0.7 0.9-0.1 0.5 3.2 4.8 7.3 9.4 4.1 4.7 8.1 8.8 8.7 9.1 0.7 0.3 12-0.7 25-2.4 13.1-1.6 30.3-3.7 38.3-4.7 10.7-1.2 15-2.1 16.5-3.4 1.1-1 4.5-3.4 7.5-5.3 5.4-3.4 5.4-3.5 3-4.4-1.4-0.5-7.8-2.9-26.1-9.7l28.3-0.6c15.6-0.3 34-0.7 41-0.8 12.8-0.1 12.8-0.1 12.2-2.4-0.4-1.2-3.6-8.7-13.9-30.9l-25.5-9.9c-14-5.5-36.4-14.2-49.8-19.4-13.3-5.2-24.9-9.5-25.7-9.5-0.8 0-11.1 1.6-22.8 3.5-11.6 1.9-25.4 4-30.5 4.7-5.1 0.7-9.2 1.6-9.2 2 0 0.5 1.2 1.3 2.7 1.9 1.6 0.6 8.9 2.8 16.3 4.9 7.4 2.1 20.9 5.7 30 8 9.1 2.3 16.8 4.5 17.2 4.9 0.4 0.3-11.7 5.1-27 10.5-15.2 5.5-31.1 11.2-35.2 12.7-6.2 2.3-8.5 3.9-13.7 9.1-3.3 3.5-11.6 12.7-18.2 20.5-6.7 7.9-12.1 14.5-12.1 14.8 0 0.3-2.8 3.9-6.3 8.1-3.4 4.1-6.5 7.2-6.8 6.7-0.4-0.4-1.2-11.2-1.8-23.8-0.7-12.7-1.5-24.8-1.8-27-0.5-3.3-5.3-9.8-28.8-39-15.5-19.3-34.6-43.1-57-70.8l0.8-134.6c0.4-74 1.1-139.5 1.5-145.5 0.6-9.5 0.5-10.9-0.8-10.5-0.9 0.3-6.7 13.6-26.9 64.4l-1.1 44c-0.5 24.2-1.3 55.6-1.7 69.8-0.5 16.3-1.2 25.6-1.8 25.4-0.6-0.2-10-23.5-40.8-103.2l26.8-92.2 168-170.4 4.8-10.2c2.7-5.6 9.2-19.1 24.2-49.8l16-8.3c8.8-4.6 43.2-22.6 76.5-40 33.3-17.5 61.2-32.4 62-33.2 0.8-0.8 1-1.4 0.5-1.4-0.6 0-16.3 2.8-35 6.4-32 6-34.5 6.6-42.5 10.6-4.7 2.3-27.4 14.1-50.5 26.2-23.1 12.1-42.5 22.4-43 22.8-0.6 0.4-16.3-0.3-35-1.5-21.7-1.5-34.8-2-36.3-1.4-1.2 0.5-3.9 2.4-6 4.2-2 1.9-15 12.5-28.7 23.7-13.8 11.2-25.7 20.8-26.5 21.4-0.8 0.6-0.3-0.5 1-2.4 1.4-1.9 10.4-13.2 20.1-25 9.7-11.8 32.6-39.5 84.1-101.5l106.3-53.7 37.5-4.9c20.6-2.6 38.7-4.8 40.2-4.9 2 0 2.8 0.5 2.8 1.7 0 1-1.1 5.4-2.5 9.8-1.3 4.4-2.2 8.2-1.8 8.5 0.3 0.3 4.6 0.8 9.7 1.2 5 0.4 29.1 1.9 53.6 3.3 24.5 1.4 54.5 3.1 89.1 5l20.2-11.8c11.1-6.5 21.3-12.6 22.6-13.5 2.4-1.6 2.4-2 1.7-9.7-0.3-4.4-0.9-10.4-1.3-13.3z"/>
		<path id="Path 1" fill-rule="evenodd" class="s1" d="m610.2 54.1c2.9 0.5 17.4 2.6 32.3 4.8 14.8 2.2 45.9 6.8 69 10.1 35.3 5.2 42.8 6.6 47 8.7 2.7 1.4 11.2 6.5 32.5 20.3l-2.9 5.2c-1.6 2.9-3.7 6.6-4.5 8.3-1.5 2.8-1.5 3.1 0.5 4.5 1.2 0.8 21.4 11.6 44.8 24 23.5 12.4 44.3 23.4 46.2 24.5 3.3 2 3.6 2.7 8.3 20 2.7 9.9 8.2 30.4 12.3 45.5 4 15.1 7.1 28.4 6.9 29.5-0.3 1.1-2.8 5.7-10.6 18.5l-35.4-0.5-0.7 3.5c-0.4 1.9-1.2 13.5-2.9 48l9.7 9.3c5.4 5.2 14.5 13.7 30.8 28.6l7.5 16.3c4.1 9 14.7 31.6 23.6 50.3 8.9 18.7 18.1 38 24.9 51.9l0.7-7c0.4-3.8 2.1-25.8 3.8-48.9 1.6-23.1 3-42.8 3-43.8 0-0.9 0.7-1.7 1.5-1.7 0.8 0 7.7 2.2 15.2 4.9 7.6 2.7 14.4 5.1 15.2 5.3 0.9 0.2 2.2-2.1 3.7-6.7 1.4-3.9 2.9-7.4 3.4-8 0.6-0.6 1.3 0.5 1.9 3 0.5 2.2 4.4 17.3 16.3 63l-1.6 30c-0.9 16.5-1.9 33.8-2.1 38.5-0.3 4.7-0.9 16.1-1.5 25.5-0.6 9.4-1.9 29.8-3.1 45.5-1.1 15.7-1.9 35-1.4 57.5l7 3.5c3.9 1.9 14.4 6.9 39.6 18.5l-0.1 229-30.9 56.5c-17.1 31.1-32 58.3-33.2 60.5-1.3 2.3-12.6 13.5-51.4 49.3l-8.3 33.9c-4.5 18.6-10.1 41.8-16.7 69.6l-27.5 34.2c-15.1 18.8-47.5 59.2-72.1 89.6-24.5 30.5-57.8 71.8-103.4 128.5l-23.5 16.1c-12.9 8.9-30.7 21.2-39.5 27.3-8.8 6.2-18.7 12.7-22 14.5-4.8 2.8-14.6 5.6-94 25.9l-21.5 0.3c-11.8 0.1-22-0.1-22.5-0.6-0.6-0.4-3.3-1.4-6-2.1-2.8-0.7-10.2-2.7-16.5-4.5-6.3-1.8-28.6-8.1-49.5-14-20.9-5.9-39-11.3-40.3-12.1-1.2-0.8-7.8-8-14.6-16.1-6.8-8.2-23.4-28.1-36.8-44.4-13.3-16.3-34.7-42.2-47.3-57.4-12.7-15.3-27.1-32.7-32.1-38.9-4.9-6.1-9.6-12.1-10.2-13.3-1.1-2.1-0.7-2.6 5-6.9 3.5-2.5 8.2-5.6 14.8-9.4l14.2 7.3c7.9 4 16.2 8.5 18.5 10 3.2 2 5.7 5 9.5 11.5 2.8 4.8 7.7 13.7 16.8 30.7l-12.2 5c-6.6 2.8-12.3 5.5-12.5 6-0.2 0.5 14.6 15.2 32.9 32.5 18.3 17.3 41.5 39.4 51.6 49 10.2 9.6 20.1 18.7 22.1 20.2 2 1.5 7.9 4.5 13.1 6.8 5.2 2.3 22.8 9.6 39 16.2 16.2 6.6 30.4 12 31.5 12 1.1 0 13.9-3.2 28.5-7.2 14.6-3.9 39.1-10.5 54.5-14.6 21.4-5.7 28.5-7.9 30.2-9.7 1.2-1.2 14.8-17 58.4-68.2v-45c-0.1-27.6-0.4-44.6-1-44-0.5 0.5-4.4 7.3-8.7 15-4.2 7.7-11.9 21.4-17 30.5-5.1 9.1-9.9 17.3-10.6 18.3-1.1 1.4-7.7 2.4-80.8 10.7l-14.3-3c-7.8-1.7-25.5-5.6-39.2-8.6-13.8-3-28.1-6.2-38.8-8.9l-7.4-12.5c-4-6.9-7.3-12.8-7.3-13.2 0-0.5 1.9-1 4.2-1.3 2.4-0.3 21.8-2.3 43.3-4.6 21.4-2.2 47.3-4.9 57.5-5.9 10.2-1.1 19.4-1.9 20.5-2 1.1 0 2.8-0.5 3.7-1.2 1.3-1 2.3-4.9 3.7-14.8 1.2-7.4 2-13.6 1.8-13.8-0.1-0.1-16.4-2-36.2-4.2-19.8-2.1-51.3-5.5-70-7.5-18.7-2-49.8-5.3-69-7.5-19.3-2.1-35.1-3.6-35.3-3.4-0.1 0.2-1.2-0.5-2.5-1.5-1.8-1.6-2.5-1.8-3.9-0.8-1.4 0.9-5.2 0.8-17.5-0.6-8.7-0.9-15.9-2-16.1-2.2-0.1-0.3 1.9-5.3 4.5-11.2 2.5-6 5.7-12.5 7-14.5 2.1-3.5 2.6-3.8 6-3.2 2.1 0.3 21.6 4.3 43.3 9 21.7 4.6 46.6 10 71 15.4l21.2-1.5c11.7-0.8 31.6-2.2 44.3-3 12.6-0.8 32.2-2.2 43.5-3.1 11.3-0.8 20.6-1.6 20.7-1.7 0.2-0.1-20.1-17.6-45-38.8-24.8-21.3-53.5-45.7-63.7-54.4-10.2-8.7-21-18-29.5-25.6l2.5-1.9c1.4-1 15-7.9 30.4-15.2 15.3-7.3 29.3-14.6 31.1-16.3 1.8-1.7 8.4-11.1 14.7-21 6.3-9.9 13.6-21.6 16.2-26 4.4-7.3 4.7-8.4 4.1-12.5-0.3-2.5-5.4-25.4-11.3-51-8.8-38.4-10.7-47.8-10.6-54 0.1-4.1 1.5-34.3 3.3-67 1.7-32.7 3.5-60.6 3.9-61.9 0.5-1.7 2.1-2.9 5.7-4.2 2.7-0.9 12.2-4.3 21-7.4 8.8-3.1 38.5-13.6 66-23.2 27.5-9.6 56.3-19.7 64-22.3 7.7-2.6 27.7-9.6 44.5-15.5 16.8-5.9 38.4-13.4 48-16.7 9.6-3.3 21-7.3 25.2-8.9 4.3-1.6 7.8-3.4 7.8-3.9 0-0.5-2.3-9.9-5-20.7-2.8-10.9-7.8-30.4-17.2-66.8l1.1-167.5c1.1-160.3 1.1-167.6-0.6-169.1-1-0.8-18.4-13.9-38.6-29-33.6-25-36.7-27.6-36.3-29.9 0.3-1.4 0.8-7.7 1.9-25.5l-40.8-29.9-81.5-16.3c-44.8-9-81.6-16.5-81.8-16.8-0.1-0.3 0-0.8 0.2-1.3 0.2-0.4 8.7-4.5 18.9-9.2 10.2-4.7 18.4-8.7 18.2-9-0.1-0.3-6.1-2.9-13.4-5.8-7.2-2.8-13.1-5.7-13.1-6.2 0-0.6 2.7-3.3 6-6 5.1-4.3 6.5-4.9 9.2-4.5 1.8 0.3 22 2.5 44.8 5.1 22.8 2.5 42 4.4 42.7 4.2 0.6-0.2-4.9-5.3-12.2-11.3-7.4-6.1-13.5-11.3-13.5-11.8 0-0.4 2.8-2.7 6.2-5.1 3.5-2.4 8-5.3 10-6.3 3.1-1.7 4.6-1.9 9-1.2zm-231.7 51c1.7-0.1 1.7 0.1 0.5 1.3-0.8 0.8-28.7 15.7-62 33.2-33.3 17.4-67.7 35.4-92.5 48.3l-9.7 19.8c-5.3 10.9-11.8 24.4-19.3 40.2l-83 84.1c-45.7 46.3-83.4 83.7-83.8 83.3-0.5-0.4-0.6-11.4-0.4-24.3 0.4-21.4 0.8-25.9 8.8-76.5l11-30.5c6.1-16.8 13.6-37.5 16.7-46 4.4-12.1 6.3-16.1 8.7-18.1 1.6-1.4 14.5-12 28.5-23.4 14-11.5 27.2-22.3 29.2-24.2 2.1-1.8 4.8-3.7 6-4.2 1.5-0.6 14.6-0.1 36.3 1.4 18.7 1.2 34.4 1.9 35 1.5 0.5-0.4 19.9-10.7 43-22.8 23.1-12.1 45.8-23.9 50.5-26.2 8-4 10.6-4.7 41.5-10.5 18.1-3.5 33.9-6.4 35-6.4zm-103.3 644c1.6-0.1 13.7 4.2 27 9.4 13.4 5.2 35.8 13.9 75.3 29.3l6.6 14.3c3.7 7.9 6.9 15.3 7.3 16.4 0.6 1.9 0 2-23.7 2.8-13.3 0.4-32.6 0.7-61.7 0.7l-0.5 4.7c-0.4 2.7-0.9 5.3-1.3 5.8-0.4 0.6-3.2 1.9-6.2 2.8-3.7 1.2-8.8 1.7-15.3 1.7-5.3 0-9.7-0.3-9.7-0.8 0-0.4-6-1.3-13.2-2-7.3-0.6-17.6-1.2-22.8-1.2-9.1 0.1-9.8 0.2-16.5 3.9-3.9 2.1-10.8 5.9-15.5 8.3-4.7 2.4-11.1 6.5-14.3 9.1-3.1 2.6-7.4 5.1-9.5 5.7-2 0.5-5.2 1-7 1-1.7 0-3.2-0.2-3.2-0.5 0-0.3 0.7-3.7 1.5-7.5 1.4-6.8 1.9-7.5 13.6-21.3 6.6-7.8 14.9-17 18.2-20.5 5.2-5.2 7.5-6.8 13.7-9.1 4.1-1.5 20-7.2 35.2-12.7 15.3-5.4 27.4-10.2 27-10.5-0.4-0.4-8.1-2.6-17.2-4.9-9.1-2.3-22.6-5.9-30-8-7.4-2.1-14.7-4.3-16.3-4.9-1.5-0.6-2.7-1.4-2.7-1.9 0-0.4 4.1-1.3 9.2-2 5.1-0.7 18.3-2.8 29.3-4.6 11-1.9 21.2-3.4 22.7-3.5zm112.3 340.9c5.8 0 10.7 0.3 10.8 0.7 0.2 0.5 0.2 4.1 0 8-0.2 5.4-0.7 7.4-1.8 7.8-0.9 0.3-5.5-2.6-11-7-5.2-4.1-9.3-8-9-8.5 0.4-0.6 5.1-1 11-1z"/>
		<path id="Path 2" fill-rule="evenodd" class="s2" d="m558.5 1l0.7 5.2c0.4 2.9 1.1 8.9 1.4 13.3 0.7 7.7 0.7 8.1-1.7 9.7-1.3 0.9-11.5 7-42.8 25.3l-22.3-1.2c-12.3-0.7-42.3-2.4-66.8-3.8-24.5-1.4-48.6-2.9-53.6-3.3-5.1-0.4-9.4-0.9-9.7-1.2-0.4-0.3 0.5-4.1 1.8-8.5 1.4-4.4 2.5-9 2.5-10.1 0-1.9 0.9-2.4 7.2-3.8 4-0.8 22.8-5 41.8-9.1 19-4.2 39.2-8.6 45-9.9 10.1-2.3 12-2.4 96.5-2.6zm37.7 0h5.9c4 0 5.9 0.4 5.9 1.2 0 0.7-1.2 2.5-2.7 3.9-1.6 1.5-4.6 3.6-6.8 4.7-2.2 1-5.8 2.5-8 3.1-2.2 0.7-4.2 1-4.5 0.7-0.3-0.3 1.9-3.5 4.8-7.1zm-195.6 169.7c1.6 0.2 21.2 2.2 43.5 4.4 22.2 2.2 49.7 4.9 61 6 11.2 1.1 34.2 3.3 51 5 16.7 1.7 32 3.4 37.5 4.5l13.7 73c7.5 40.1 16.2 86.4 25.1 132.9l21.4 35.5c11.7 19.6 21.3 36.2 21.3 37-0.1 0.9-5.5 12.1-12.2 25-8.2 16-11.8 24-11.2 25 0.4 0.9 4.9 7.3 10.1 14.3 5.1 7 9.3 13 9.3 13.2 0 0.3-5.3 4-11.8 8.2-6.4 4.1-12 7.7-12.2 8-0.3 0.2 0.9 2.5 2.5 5.1 1.7 2.6 9.6 13.5 17.6 24.2 8 10.8 24 32.5 35.7 48.3 11.6 15.8 21.4 29.3 21.7 30 0.3 0.7-6.6 8.2-33 33.6l-27 10.1c-14.9 5.6-31.8 11.9-37.5 14-5.8 2.2-24 8.9-40.5 15.1-16.5 6.1-42.9 15.9-58.5 21.7-15.7 5.8-29 11-29.5 11.5-0.7 0.5-1.2 51-2 290.2l-18 14.2c-9.9 7.8-18.5 14.3-19 14.3-0.6 0-16.8-4.5-71-20.3l-5.3 5.9c-2.9 3.3-5.7 7.2-6.2 8.7-1 2.6-0.7 3 9.2 10.9 5.7 4.5 12.1 10.5 14.3 13.3 2.2 2.7 10.5 13.4 33 42.4l5 29.1c3.7 21.9 5.3 29.2 6.5 29.5 0.8 0.3 13.4 1.2 28 2.1 14.5 0.9 26.6 1.7 26.8 1.8 0.2 0.1-0.4 5.5-1.3 12.1-1 6.6-2.1 12.7-2.6 13.5-0.7 1.3-4 1.5-39.4 1.5l-33.5-6.8c-18.5-3.7-35.6-7.4-38-8.2-3.9-1.2-9.5-6.3-38.8-34.9-18.8-18.5-34.2-34.1-34.2-34.8 0-0.7 8.6-21.3 19.1-45.8 10.5-24.4 23.1-53.9 27.9-65.5 4.9-11.5 8.7-21.2 8.4-21.5-0.2-0.2-5.7 3.1-12.2 7.4-6.4 4.4-27.5 18.8-46.7 32.1-19.3 13.4-37.5 25.9-40.5 27.8-5.4 3.5-5.9 3.6-22.5 5.2-9.4 0.9-18.5 1.8-20.3 2.1-2.6 0.3-3.5 0-4.6-1.8-0.8-1.2-13.8-26.3-28.9-55.8-15.1-29.4-34.6-67.4-59.1-115.5l-7.2-57.5c-4-31.6-8-63.3-8.9-70.5-0.9-7.1-2-13.9-2.5-15-0.7-1.8-0.9-1.7-2 1-0.7 1.7-3.8 11.4-12.9 40l5.4 45.5c3 25.1 8 66.5 11.1 92 4.8 40.4 5.4 47.2 4.4 51.5-0.6 2.8-3.2 11.9-5.8 20.3-2.6 8.4-5.2 15.1-5.7 14.9-0.6-0.2-5-11.1-9.8-24.3-4.8-13.1-15.6-42.8-39-107.9l0.6-45c0.3-24.7 1.1-50.1 2.9-68l-15-45.5c-8.3-25-15.8-47.9-16.8-51-1.3-4.1-1.6-7.2-1.1-12.5 0.4-3.8 3.1-22.3 6.2-41 3.1-18.7 5.4-35.9 5.3-38.2-0.2-2.3-0.1-4.3 0.2-4.3 0.2 0 0.8-11.5 1.2-25.7 0.5-14.2 1.3-45.6 2.8-113.8l12.8-31.9c7.5-18.9 13.3-32.1 14.2-32.4 1.3-0.4 1.4 0.9 0.7 10.4-0.4 6-1 71.5-2.2 280.1l14.4 17.9c8 9.9 27.1 33.7 42.6 52.9 23.5 29.3 28.2 35.7 28.7 39 0.4 2.2 1.2 14.4 1.8 27 0.7 12.7 1.5 23.3 1.8 23.6 0.4 0.3 7.2 0.2 15.2-0.4 10.1-0.6 16.9-0.6 22.5 0.2 4.4 0.6 19.9 2.2 34.5 3.6 14.5 1.4 50.4 4.8 79.7 7.5 29.3 2.8 55.1 5 57.3 5 3.6 0 4.2-0.3 5.9-3.7 1-2.1 8.9-20.6 17.6-41.3 8.6-20.6 15.9-37.8 16.1-38.2 0.2-0.4-3.6-2.6-8.4-4.8-4.8-2.3-28.3-13.1-52.2-23.9-24-10.9-45.3-20.3-47.5-20.9-2.2-0.5-6.5-1.3-9.5-1.7-3.1-0.3-28.9-3-109.5-11.2l-12.5 5c-6.9 2.7-16.8 6.5-22 8.3-5.3 1.9-9.8 3.2-10 2.9-0.3-0.3 0-7.2 0.7-15.3 0.7-8.1 3.3-39.9 10.7-126.7l-5.8-120-8.1-5.5c-4.4-3-10.4-7.2-13.3-9.5-4.9-3.7-5.3-4.3-5.2-8 0-2.2 2.6-28.4 11.5-112.5l15.5-15.2c8.5-8.4 33.3-32.8 94.6-93.3l15-6.6c8.2-3.7 42.1-19.2 75.4-34.4 33.2-15.2 62.3-28.3 64.5-29 2.2-0.7 5.3-1 7-0.8zm-74.8 660.5c4-0.1 7.3 0.1 7.3 0.3 0 0.3-1.3 2.5-2.9 4.8-1.6 2.3-3.7 4.9-4.8 5.8-1.2 1.1-6.7 2.2-16.3 3.3-8 0.9-25.2 3-38.3 4.7-13 1.6-24.3 2.7-25 2.4-0.7-0.4-4.7-4.5-8.9-9.3-4.2-4.8-7.4-9.1-7-9.6 0.4-0.5 5.6-0.6 12.2-0.3 6.3 0.3 14.6 1.3 18.5 2.1 4.2 1 11.9 1.6 19.5 1.6 10.1 0.1 13.7-0.3 19-2.1 3.5-1.1 9.4-2.4 13-2.8 3.5-0.4 9.7-0.8 13.7-0.9zm19.6 430c2.3 2.5 10.5 11.7 18.2 20.3 7.7 8.7 14.6 16.7 15.5 17.7 0.9 1.3 1.1 2.3 0.5 2.8-0.6 0.5-6.9 1.6-14 2.5-7.2 0.8-14.7 1.5-16.8 1.5-3.6 0-3.8-0.1-4.2-3.7-0.3-2.1-1.2-10.7-2-19.3-0.8-8.5-1.5-17.5-1.6-20-0.1-2.4-0.1-4.9 0-5.5 0.1-0.5 2.1 1.1 4.4 3.7z"/>
		<path id="Path 3" class="s0" d="m625 813c0.3 0 0.8 0.2 1.3 0.5 0.4 0.3-3.5 6.5-8.6 13.8-5.1 7.2-9.9 14.3-12.4 18.2l25.6 0.8c14.1 0.4 33 0.7 58.6 0.6l-17.3-8.5c-9.4-4.6-17.2-8.9-17.2-9.4 0-0.5 0.3-1 0.7-1 0.5-0.1 18.1-2 39.3-4.4 21.2-2.4 38.7-4.1 39-3.9 0.3 0.2-0.3 7.5-1.3 16.1-1 8.6-2.4 21.8-3.1 29.2-0.7 7.4-1.3 13.6-1.2 13.8 0 0.2 4.4-0.6 9.6-1.7 5.2-1.1 23-5 39.5-8.6 16.5-3.6 30.6-6.5 31.3-6.5 0.6 0 5.6 2.6 10.9 5.8 5.4 3.3 15.3 9.2 22.1 13.3 6.8 4.1 12.3 7.4 12.3 7.4 0 0-3.3 6.7-7.2 15-3.9 8.2-15.2 31.9-25.1 52.5-9.9 20.6-26 54.1-35.8 74.5-9.8 20.3-23.7 49.4-30.9 64.5-7.2 15.1-13.5 27.8-13.9 28.2-0.4 0.3-6.6 1.8-13.7 3.2-7.1 1.4-24.3 4.6-38 7.1-13.8 2.5-31.1 5.7-38.5 7-10.7 2-13.7 2.2-14.7 1.2-0.6-0.6-8.4-14.9-17.3-31.7-8.9-16.8-26.6-50.1-39.2-74-12.7-23.9-24.2-45.6-28.3-53l10.5-10.5c5.8-5.7 10.3-10.6 10-10.8-0.3-0.2-9.5-4.4-20.5-9.2-11-4.9-21-9.5-22.3-10.2-1.3-0.8-2.2-2.3-2.2-3.8 0-1.4 2.9-15.7 6.5-31.8 3.6-16 7.9-34.4 9.6-40.7 1.6-6.3 3.5-12 4.2-12.7 0.7-0.6 17.8-9.5 38.2-19.8 20.4-10.3 37.4-19.2 38-19.6 0.5-0.5 1.1-0.9 1.5-0.9zm113.1 359c0.7 0 7.3 2.9 28.4 12.7l1.2 5.9c0.7 3.3 1.8 10.6 3.7 26.9l-5.9 15.5c-3.3 8.5-8.3 21.1-16.3 40.5l-7.3 2.3c-4.1 1.3-12.6 3.9-18.9 5.8-6.3 1.9-11.6 3.3-11.8 3.2-0.1-0.2 2.5-12.2 5.8-26.8 3.4-14.6 9.2-39.5 13-55.5 3.9-16 7-29.3 7-29.7 0-0.5 0.5-0.8 1.1-0.8z"/>
		<path id="Path 4" class="s2" d="m211.3 775c0.4 0 2 1.9 3.6 4.3 1.5 2.3 3.3 5.2 4 6.5 1.1 2.2 0.8 2.3-19.2 8.7-11.1 3.6-20.8 6.4-21.5 6.3-0.7-0.2 6.3-6 15.5-13 9.3-7 17.1-12.7 17.5-12.8zm416.8 38c0.3 0 4.3 2.7 9 6.1 4.7 3.3 10.2 6.9 12.2 8 2.1 1 4.3 1.7 4.8 1.4 0.5-0.3 1 0 1 0.5 0 0.5 7.8 4.8 34.5 17.9h-16.5c-9.1 0.1-28-0.2-67.7-1.4l1.6-2.5c0.9-1.4 5.9-8.8 11.1-16.3 5.2-7.5 9.7-13.7 10-13.7zm-327 375.3c0.8 0.2 5.2 3 9.8 6.3 4.5 3.2 8.3 6.2 8.2 6.6 0 0.5-4.2 1.5-9.3 2.3-5 0.9-10.7 1.9-12.6 2.3-3.3 0.7-3.4 0.6-2.7-1.8 0.4-1.4 1.7-5.6 2.9-9.3 1.6-5 2.6-6.7 3.7-6.4zm-49.3 29.7c0.5 0 3.2 2.1 11.6 9.5l-9.8 8.6-1.2-6.3c-0.7-3.5-1.2-7.5-1.3-9.1 0-1.5 0.3-2.7 0.7-2.7zm124.8 152.1c0.5-0.1 2.4 1.5 7 6.9l21.5-3.5c13.3-2.3 22.8-3.4 25-3 1.9 0.4 10.7 2.7 19.5 5.2 8.8 2.4 25.2 7.1 36.5 10.4 11.3 3.3 27 7.9 34.9 10.2 7.9 2.3 14.5 4.8 14.7 5.5 0.2 0.6-4 9.6-9.5 19.9-5.4 10.4-11.8 22.1-14.2 26.2-2.4 4-5.2 7.9-6.1 8.5-1.4 0.9-9.2-0.4-35.3-5.6-18.4-3.8-34.5-7.3-35.8-7.8-1.2-0.6-8.3-8.8-15.9-18.3-7.5-9.4-19.7-25-27.2-34.4-7.5-9.5-13.6-17.8-13.6-18.3 0-0.5-0.6-1.2-1.3-1.4-0.6-0.3-0.7-0.5-0.2-0.5zm273.3-494c8.3 0 15.4 0.2 15.7 0.7 0.2 0.4-5.3 4.5-25 17.5l15.7 5.1c8.6 2.8 15.9 5.3 16.1 5.6 0.3 0.3-4.2 0.8-10.1 1.3-5.9 0.4-22.4 0.7-36.7 0.7-15.1 0-25.6 0.3-25 0.9 0.5 0.4 3 1.5 5.5 2.4 2.5 0.8 19.7 7.2 38.2 14.1 18.6 6.9 35 12.6 36.5 12.6 1.6 0 6.8-0.9 11.8-1.9 5-1.1 14-3.1 20-4.5 6-1.4 22.2-5 36-8.1 13.7-3.1 32-7.2 40.5-9 8.5-1.9 15.7-3.2 16-2.9 0.3 0.3-0.2 1.7-1.1 3.2-0.9 1.5-14.6 28.1-30.5 59.1-15.9 31-29.1 56.5-29.4 56.7-0.3 0.1-11.1 4.4-24 9.4-12.9 5.1-30 11.7-52.5 20.2l-8.5-5c-4.7-2.7-11.7-6.6-15.5-8.7-3.9-2.1-11.3-6.3-16.5-9.3-5.2-3-10.3-6.2-11.3-7.1-1.1-1-5.8-13.9-11.7-32.1-5.4-16.8-13-40.4-16.9-52.5-3.9-12.1-7.6-24.2-8.3-26.8-1.3-4.7-1.2-4.9 1.2-6.7 1.4-1.1 7.6-4.7 13.9-8.2 6.3-3.5 12-6.8 12.8-7.3 1.3-0.8 1-1.9-1.6-7.3-1.7-3.4-2.8-6.5-2.5-7 0.3-0.4 7.6-1.7 16.2-2.8 9.7-1.3 21.6-2.2 30.9-2.3z"/>
	</g>
</svg>