<svg version="1.2" xmlns="http://www.w3.org/2000/svg" viewBox="0 0 1221 1501" width="1221" height="1501">
	<title>marxy-svg</title>
	<style>
		.s0 { fill: #ffffff } 
		.s1 { fill: #7f7f7f } 
		.s2 { fill: #000000 } 
	</style>
	<g id="Background">
		<path id="Path 0" class="s0" d="m665 0l50.3 12.5c27.6 6.9 51.1 12.9 52.2 13.3 1.6 0.7 0.4 1.3-5.5 3-4.1 1.3-19.6 5.9-34.5 10.4-14.9 4.4-28.5 8.4-33.5 9.8v68l17.3 0.5c9.4 0.3 48.9 1 87.7 1.6 38.8 0.6 80.4 1.4 114.3 2.4l9.4 39.5c5.2 21.7 9.5 39.6 9.6 39.7 0.1 0 16.2 8.5 35.7 18.9 19.5 10.3 35.6 18.8 35.8 19 0.1 0.2-2.6 4.3-6.1 9.1-3.4 4.9-7.7 10.7-12.7 17.3l3.3 7.2c1.9 4 13.8 30.5 49.8 110.3l-23.6 49c-12.9 27-23.4 49.1-23.3 49.3 0.2 0.1 3.9-4 8.3-9.3 4.4-5.2 8.3-9.2 8.7-8.7 0.3 0.4 3.8 8.8 7.8 18.7 3.9 9.9 6.9 18.1 6.8 18.3-0.2 0.1-8-3.1-17.3-7.2-9.3-4.1-24.4-11.6-33.5-16.6-9.1-5.1-16.8-8.8-17.1-8.4-0.3 0.5-5.5 22.7-11.4 49.4-5.9 26.7-11.1 49.2-11.5 50-0.6 1.1-5.1 1.9-18.6 3.3-9.9 1-18.1 2-18.4 2.3-0.3 0.2 6.8 17.4 15.6 38.1 8.9 20.8 16.5 38.7 16.9 39.8 0.3 1.1 3.1 15 6.1 31 2.9 16 5.4 29.9 5.4 31 0 1.1-3.3 10.9-14.5 41.5l-41.8 0.5-14.9 51.5c-8.2 28.3-20.7 71.8-27.9 96.5-7.1 24.8-13.2 45.8-13.4 46.8-0.3 0.9-5.3 5.7-11.2 10.5-6 4.8-21.2 17.3-33.8 27.8-12.6 10.5-32.3 26.7-43.8 36.2-11.4 9.5-21 17.2-21.5 17.2-0.4 0-2.2-1.5-4-3.3-1.8-1.7-3.2-3.9-3.2-4.7 0-0.8 1.5-6.8 3.2-13.2 1.8-6.5 3.2-11.8 3-11.8-0.1 0-5.7 1.6-24.7 7.1l-26.5-5.1c-14.6-2.8-34.6-6.6-44.5-8.5-9.9-1.9-20.3-3.9-28-5.5l-0.7-10.8c-0.4-5.9-1.3-24.5-2-41.4-1.1-26.2-1.5-30.8-2.8-30.8-0.8 0-18.6 1.4-39.5 3-20.9 1.7-41.6 3.3-54 4.2l-13.5-9.4c-7.4-5.2-18.6-12.9-36-24.8l-15.1 30.3c-8.3 16.6-15.9 30.7-16.8 31.2-0.9 0.5-20.4 10.8-43.4 22.8-22.9 11.9-42.8 21.7-44.2 21.7-1.4 0-15.2-1.6-30.8-3.6-15.5-1.9-28.2-3.6-28.3-3.7 0-0.1-11-53.7-24.3-119.2-13.3-65.5-24-119.1-23.9-119.2 0.2 0 34.3 6.7 75.8 14.9 54.1 10.8 75.9 14.8 77 14.1 0.8-0.6 16.4-9.7 34.5-20.3 18.1-10.6 35.5-20.7 38.5-22.5 3-1.8 12.3-7.2 20.5-12 14.7-8.6 15.3-9.1 53-46.4l30 15.4 9.3 15c5.1 8.3 9.4 15.1 9.5 15.2 0.1 0.1 5.8 0.9 25.2 3.5l8.5 6.6c4.7 3.6 24.1 18.7 43.3 33.4 19.1 14.7 35.3 27.1 36 27.4 0.6 0.3 18.1-8.2 38.7-18.9 20.6-10.7 40.4-20.9 50.5-26.1l12 0.8c6.6 0.3 18.1 1.4 25.5 2.2 10.1 1.2 14 1.3 15.5 0.4 1.5-0.8 8.7-0.8 26.5-0.2 13.5 0.6 24.6 0.9 24.7 0.8 0.1 0-7.5-17.9-16.7-39.6-9.3-21.7-17.8-40.6-18.9-42-1.9-2.3-2.1-3.9-2.1-16.7 0-8.9-0.4-14.3-1-14.3-0.5 0-17.1 3.2-72.5 14.2l-23.5-1.1c-12.9-0.7-40.1-2.1-60.5-3.2-20.4-1.1-78.4-3-221-6.6l-15.5-5.1c-8.5-2.7-22-7-30-9.5-8-2.5-24.9-7.8-37.5-11.7-12.6-4-26.1-8.2-37-11.8l-32 5.3c-17.6 3-33.2 5.7-34.8 6-2.5 0.5-3.7-0.8-17.7-18.5-10.7-13.6-14.7-19.4-14-20.2 0.5-0.7 7.9-7.4 16.4-14.8 9.2-8 15.4-14.1 15.2-15-0.1-0.8-8.3-15.7-18.1-33-9.9-17.3-18.9-33.4-20.2-35.7-1.8-3.4-2.4-6.5-2.9-15-0.5-10.2-0.3-12.5 5.5-43.8 3.4-18.1 5.9-33.1 5.6-33.2-0.3-0.2-7.6 4.8-16.3 11-8.6 6.2-18.8 13.5-22.6 16.3-3.8 2.7-11.7 8.4-28.1 20.3l-5.5-4.7c-3-2.6-9.6-8.2-14.5-12.6-4.9-4.3-9.4-8.2-9.8-8.5-0.5-0.3 10-23.3 23.4-51.1 13.3-27.8 34.5-71.9 47.1-98 12.6-26.1 22.9-47.7 22.8-48 0-0.3-9.1-2.2-20.2-4.3-11.2-2.1-20.4-3.9-20.5-4-0.2-0.1-2-9.6-8-42.2l12.9-16.5c7.1-9.1 19.1-24.4 40.2-51.5l11.1-5.2c6-2.9 23.8-11.3 39.5-18.8 15.7-7.5 45.1-21.4 102.5-48.3l54-6.7c29.7-3.6 61.9-7.7 71.5-8.9 16.8-2.3 20.3-2.4 148-2.6z"/>
		<path id="Path 1" class="s1" d="m771 26.6c0.8 0.2 10.7 2.8 22 5.8 11.3 3 37.8 10 59 15.5 21.2 5.5 47 12.3 57.5 15.1 10.5 2.7 19.3 5.4 19.6 5.8 0.4 0.4 23.4 31.1 101.7 135.7l19.7 53.5c10.8 29.4 22.8 61.9 33.5 91l-7.8 101.5 7.7 10c4.2 5.5 11.5 15 16.2 21 4.7 6 12.5 16.2 17.4 22.5 4.9 6.3 17.2 22.3 27.4 35.5 10.2 13.2 27.6 35.8 38.8 50.3 11.2 14.4 20.3 26.5 20.3 27 0 0.4-7.5 8.2-16.8 17.4-10.5 10.6-16.3 17.1-15.7 17.7 0.5 0.5 11.3 4.8 24 9.6 12.7 4.8 23.3 9 23.8 9.4 0.4 0.3-3.3 20-8.3 43.6-4.9 23.7-9.2 43.9-9.4 45-0.4 1.6-8 5-37.5 16.8-20.4 8.1-37.3 14.6-37.5 14.5-0.2-0.2 7.5-8.6 17.1-18.8 9.6-10.2 23.1-24.3 42.3-44.5l-11.3-24.3c-6.1-13.3-11.5-24.2-11.9-24.2-0.5 0-6.5 7.3-26 32.5l-10.6-21.3c-5.9-11.7-11-21.2-11.4-21.2-0.5 0-0.8 11.3-0.8 50l-2.2-0.7c-1.3-0.3-12.1-5.5-24-11.5-12-5.9-21.8-11-21.8-11.3 0-0.3 0.8-0.2 1.8 0.1 0.9 0.3 7.5 2.4 14.7 4.5 8.3 2.5 13.3 3.5 13.8 2.9 0.4-0.6-4.7-6.8-11.5-14.2-6.7-7.3-14.8-16.1-23.8-25.8l-0.5-41.4 13.5-9.1c7.4-5.1 18.2-12.5 24-16.5 5.8-3.9 12.6-8.6 15.2-10.3 2.6-1.8 4.8-3.8 4.8-4.4 0-0.8-0.8-1.1-1.7-0.8-1 0.2-10.3 2.5-20.8 5-10.5 2.5-19.1 4.5-19.3 4.3-0.1-0.2-3.5-12.5-7.5-27.5-3.9-14.9-7.7-27.6-8.2-28.1-0.5-0.6-8-3.1-16.5-5.7-8.5-2.5-19.1-5.7-23.5-7.1-4.4-1.3-8.2-2.4-8.5-2.5-0.3 0-6.8 7.8-14.4 17.3-7.7 9.5-14.5 18.1-15.3 19.1-1.2 1.5 1.6 4.3 27.4 27.5 15.8 14.1 31.5 28.2 34.9 31.2 3.4 3 6.2 5.8 6.3 6.3 0.1 0.4-0.7 0.5-1.6 0.2-1-0.3-11.7-2.3-23.8-4.5-12.1-2.1-41.3-7.5-65-11.8-23.7-4.4-44.9-8.3-51.5-9.2l7 20.8c3.8 11.4 6.8 20.9 6.5 21.2-0.2 0.3-1-1.1-1.8-3-0.8-1.9-7-16.4-13.8-32.3-6.8-15.8-12.2-28.9-11.9-29.1 0.3-0.3 8.5-1.3 18.4-2.3 13.5-1.4 18-2.2 18.6-3.3 0.4-0.8 5.6-23.3 11.5-50 5.9-26.7 11.1-48.9 11.4-49.3 0.3-0.5 8 3.2 17.1 8.3 9.1 5 24.2 12.5 33.5 16.6 9.3 4.1 17.1 7.3 17.3 7.2 0.1-0.2-2.9-8.4-6.8-18.3-4-9.9-7.5-18.3-7.8-18.7-0.4-0.5-4.3 3.5-8.7 8.7-4.4 5.3-8.1 9.4-8.3 9.3-0.1-0.2 10.4-22.3 46.9-98.3l-23.2-51.5c-12.8-28.3-24.7-54.8-29.9-66l3.3-4.2c1.7-2.4 6-8.2 9.5-13 3.4-4.9 6.1-9 6-9.2-0.2-0.1-16.3-8.7-35.8-19-19.5-10.3-35.6-18.8-35.7-18.9-0.1-0.1-4.4-18-19-79.2l-21.9-0.7c-12-0.3-53.6-1.1-92.4-1.7-38.8-0.6-78.3-1.3-105-2.1v-68l3.3-0.9c1.7-0.5 15.3-4.5 30.2-8.9 14.9-4.5 30.4-9.2 34.5-10.5 4.1-1.4 8.2-2.3 9-2.1z"/>
		<path id="Path 2" class="s2" d="m779.5 39c0.2 0-1.2 3.3-3 7.3-1.8 3.9-6.5 14.4-10.5 23.2-4 8.8-7.6 16.3-7.9 16.7-0.3 0.4-8.2 1.4-17.6 2.3-9.4 0.9-18.3 1.5-19.8 1.3-2.5-0.3 0.7-3.1 27.9-25.5 16.9-13.9 30.8-25.3 30.9-25.3z"/>
		<path id="Path 3" class="s1" d="m185.2 160c0.4 0 2.3 9.1 4.3 20.3 1.9 11.1 3.6 20.3 3.8 20.4 0.1 0.1 9.3 1.9 20.5 4 11.1 2.1 20.2 4 20.2 4.3 0.1 0.3-10.2 21.9-22.8 48-12.6 26.1-33.8 70.2-47.1 98-13.4 27.8-23.9 50.8-23.4 51.1 0.4 0.3 4.9 4.2 9.8 8.5 5 4.4 11.5 10 20 17.3l10.6-7.7c5.8-4.2 13.7-9.9 17.5-12.6 3.8-2.8 14-10.1 22.7-16.3 8.6-6.2 15.9-11.2 16.2-11.1 0.3 0.2-2.1 14.4-5.2 31.6-3.2 17.1-6.1 31.2-6.5 31.2-0.5 0-1-5.6-1.3-12.5-0.3-7.3-0.9-12.5-1.5-12.5-0.5 0-9.2 9.6-19.2 21.2-10.1 11.7-22.8 26.4-28.3 32.8-5.5 6.4-14.3 16.5-19.5 22.5-5.2 6.1-10.3 12.1-11.2 13.5-1 1.4-1.9 2.3-2.2 2-0.2-0.3 1.8-6.1 4.5-13 2.6-6.9 4.5-12.8 4.1-13.1-0.4-0.4-12.3-9.7-26.4-20.8-14.2-11-26-20.1-26.3-20.1-0.3 0-16.6 12.7-36.2 28.1-19.7 15.5-35.9 28.2-36 28.3-0.1 0.1 4.9 14.7 11.3 32.6 6.3 17.9 11.6 32.6 11.7 32.6 0.1 0.1 15.5 1.8 34.2 3.8 18.7 2 34.1 3.5 34.2 3.4 0.1-0.2 3-7.3 6.3-15.8 3.4-8.5 6.6-16.6 7.1-18 1-2.3 1.3-1.9 3.9 5.5 1.5 4.4 4.2 11.7 5.9 16.3 2.8 7.5 3 8.2 1.4 8.8-1 0.3-14.4 5.2-29.8 10.9-15.4 5.6-30.8 11.3-34.3 12.6-3.4 1.3-6.3 2.5-6.2 2.6 0 0.2 5.6 14 12.5 30.8 6.9 16.8 12.4 30.9 12.3 31.4-0.2 0.4-13.1-7.2-28.8-17.1-15.7-9.8-28.8-18.2-29.3-18.6-0.4-0.4 1.7-10.4 4.8-22.2 3-11.8 5.5-22.1 5.5-22.8 0-0.9-4.3-1.1-19-0.9-18.4 0.2-19.1 0.1-19.6-1.8-0.2-1.1-2.7-12.6-5.4-25.5-2.7-12.9-5-25-5-26.8 0-2.8 4.3-8.2 33.3-41.8 18.2-21.2 33.5-39.1 33.9-39.7 0.4-0.7 6.6-35.2 27.1-152.2l6-9c3.3-4.9 11.5-16.9 18.2-26.5 6.6-9.6 24.2-35.2 39-56.8 14.8-21.5 27.2-39.2 27.7-39.2z"/>
		<path id="Path 4" class="s1" d="m271.3 164.1c1.3-0.1 2.9 2.9 6.7 11.9 2.7 6.6 4.9 12.2 4.7 12.3-0.1 0.2-11.5-2.9-50.2-14.1l4.5-1.1c2.5-0.7 10.4-2.8 17.5-4.7 7.1-2 13.4-3.7 14-3.9 0.6-0.2 1.8-0.4 2.7-0.4zm164.3 7c0.5 0 13.4 3.2 28.5 7.3 15.1 4 27.5 7.7 27.5 8.2 0 0.5-1.6 6.4-7 25.5l-6.5-0.6c-3.6-0.3-38.5-1.9-77.5-3.5-39-1.7-73.5-3.3-82-4.3l6.5-1.7c3.6-0.9 25.2-7 48-13.5 22.8-6.4 46-13 51.5-14.5 5.5-1.6 10.5-2.8 11-2.9zm142.7 12c0.5-0.1 0.8 8.8 0.8 39.4l-2.3-0.2c-1.2-0.2-13.9-2.3-28.2-4.8-14.3-2.5-27.4-4.8-32-5.7l4-1.9c2.2-1 15.9-7.5 30.5-14.3 14.6-6.9 26.8-12.5 27.2-12.5zm164.3 3c0.5 0 10 2.4 21 5.5 11 3 20.1 5.6 20.2 5.7 0.1 0.1-0.7 7.6-1.8 16.7-1.1 9.1-2 16.6-2.2 16.6-0.1 0.1-16.6 1.1-36.7 2.3-20.1 1.2-58.8 3.4-86 5.1-27.2 1.6-52.3 3.1-55.7 3.2-3.4 0.2-5.6 0-5-0.4 0.7-0.4 9.1-3.6 18.7-7.1 9.6-3.6 26.5-9.9 37.5-14 11-4.1 35.5-13.3 54.5-20.5 19-7.2 35-13 35.5-13.1zm104.9 28.9c0.3 0 16.7 13.8 36.4 30.8 19.7 16.9 37.7 32.3 39.9 34.2 2.1 1.9 3.2 3 2.4 2.3-0.9-0.6-3.4-1.2-5.6-1.3-2.2 0-6.7 0.2-10 0.5-3.3 0.3-8.3 0.8-11 1-2.8 0.3-7.5 0.8-16 1.8l-12.9-24.4c-7.1-13.4-15.4-29-18.4-34.6-3-5.7-5.2-10.3-4.8-10.3z"/>
		<path id="Path 5" class="s2" d="m919 281.1c4.2-0.1 5.9 0.3 7.1 1.6 1.6 1.7 1 2.8-20.6 35.1l-11.2-16.9c-11-16.5-11.2-16.9-8.5-17 1.5 0 8.3-0.6 15.2-1.3 6.9-0.8 15-1.4 18-1.5z"/>
		<path id="Path 6" class="s1" d="m927.9 285.6c0.3 0.3 2.9 9.2 5.8 19.7 2.8 10.6 5.1 19.3 5 19.5-0.1 0.2-7.4-1.3-16.2-3.2-8.8-2-16.1-3.8-16.3-4.1-0.1-0.3 4.6-7.7 10.5-16.5 5.8-8.8 10.9-15.7 11.2-15.4z"/>
		<path id="Path 7" class="s0" d="m154.5 292.5c0.1 0.2-3.9 12.1-8.7 26.5-6.7 19.8-9.1 25.8-10.1 25.3-0.8-0.5-5.3-3.9-18.8-14.8l18.7-18.7c10.3-10.3 18.8-18.5 18.9-18.3z"/>
		<path id="Path 8" class="s2" d="m223 422c0.4 0 1.3 8.7 1.9 19.3 0.7 10.5 1.4 21.9 1.7 25.2 0.3 3.3 0.5 6.7 0.6 7.5 0 0.8 0.9 14.8 3.8 60.5l-49.1 135 33.4 253 53.4 100 15.4 5.8c8.5 3.2 15.4 5.6 15.5 5.5 0-0.2 5.6-9.1 12.4-19.8 6.9-10.7 12.8-19.6 13.2-19.8 0.4-0.1 0.6-0.5 0.4-0.9-0.3-0.5 18.6-10.7 41.9-22.8 23.3-12.1 43-22.5 43.8-23 0.8-0.5 8.2-14.6 31.7-61.5l11.3 7.7c6.1 4.2 17.3 11.9 38.2 26.5l8-0.6c4.4-0.3 25.1-1.9 46-3.6 20.9-1.6 38.7-3 39.5-3 1.3 0 1.7 4.6 2.8 30.8 0.7 16.9 1.6 35.5 2.7 52.2l5 1c2.8 0.6 13.1 2.6 23 4.5 9.9 1.9 28.8 5.5 42 8 13.2 2.5 24.9 4.8 26 5.2 1.1 0.3 9.9 8.3 19.5 17.7 9.6 9.4 28.7 27.1 42.4 39.1 13.7 12.1 26 22.8 27.3 23.7 1.3 1 2.5 1.7 2.7 1.5 0.2-0.1-3.6-9.9-8.5-21.7-4.9-11.8-8.8-21.6-8.7-21.7 0.2-0.1 11.3-2 24.8-4.3 13.5-2.2 28.5-4.7 42.5-7.1l18-55.1c9.9-30.3 20.3-61.9 28-85.3l29.2-14.5c16.1-8 29.6-15 30.1-15.5 0.6-0.6 1.7-30.4 2.6-70.5 0.9-38.2 1.8-73 2.1-77.3 0.3-4.2 0.2-7.5-0.2-7.3-0.5 0.2-0.6-0.8-0.5-2.3 0.2-1.4-2.1-15.9-5.1-32.1-3.3-17.4-6.6-32.4-8.2-36.5-1.5-3.9-2.8-8.1-3-9.5-0.2-1.4-3.3-11.2-13.5-41l4.3 0.6c2.3 0.3 23.5 4.2 47.2 8.5 23.7 4.4 52.9 9.8 65 12 12.1 2.2 24.5 4.2 27.5 4.5 3 0.3 6.1 0.7 6.8 1 0.9 0.3 1.2 8.5 1.2 71.9l25.8 12.8c14.1 7 26.4 12.7 27.2 12.7 0.8 0 6.2-1.6 22.5-7l12.8-16.5c7-9.1 13-16.5 13.4-16.5 0.5 0 5.9 10.9 23.3 48.5l-6.3 6.5c-3.4 3.6-17.3 18.2-30.8 32.5-13.5 14.3-28.6 29.4-33.5 33.5-4.9 4.1-19.2 16.2-31.9 26.9-12.7 10.7-30 25.4-38.5 32.6-8.5 7.1-16.2 13.5-17 14.2-0.9 0.7-11.4 1.9-25.4 3-13.2 1-24.1 2.3-24.3 2.8-0.2 0.5 2.1 10.9 5.1 23 3 12.1 14.1 51.2 24.5 87 15.9 54.2 19.1 66.1 19.1 71.5 0 3.6-0.9 29-4.3 106.5l-7.2 14.5c-7.3 14.4-7.4 14.6-25.9 35-10.3 11.3-19.2 20.6-19.9 20.8-0.6 0.2-7.5-1.3-15.2-3.2-7.7-1.9-14.2-3.3-14.5-3-0.3 0.2 2 8.6 5.1 18.7 3.1 10 5.4 18.5 5 18.9-0.3 0.3-23.6 12.4-51.6 26.8-28 14.4-52.6 27.2-54.5 28.5-2.6 1.6-15.7 19.9-94.2 134l-15.6 8.5c-8.5 4.7-24.8 13.6-36.1 19.8-11.3 6.2-21 11.7-21.6 12.3-0.5 0.5-1.8 0.9-3 0.9-1.1 0-4.9-0.7-8.5-1.5-3.6-0.8-14.4-2.8-24-4.4-9.6-1.7-23.8-4.2-31.5-5.5-7.7-1.4-15.9-2.7-22.5-3.6v-25c0-13.8-0.3-25-0.8-25-0.4 0-6.3 12.1-25.7 53.7l-9.5 0.7c-5.2 0.3-15.6 1.1-23 1.6-7.4 0.5-20 1.4-28 2-8 0.6-30.7 2.2-50.5 3.6-19.8 1.5-39.6 2.8-52 3.4l-20.5-19.1c-11.3-10.6-33.1-30.9-48.5-45.3-15.4-14.3-30.7-28.6-40-37.5l-33.5-11.6c-18.4-6.5-40.7-14.2-65.5-22.6l-10.5-23.2c-10-22-11.5-24.6-30.3-52.9-10.8-16.4-19.7-30.6-19.7-31.6 0-0.9 2.5-18 11-74.2l-9.1-24.8c-5-13.6-13.6-36.7-28.9-78.2l9.5-74.8c5.2-41.1 10.3-79.4 11.5-85.2 1.1-5.8 6.1-33.2 11-61 5-27.8 9.2-51.4 9.5-52.5 0.4-1.7-1.8-3.1-16.3-10.1-9.2-4.5-26.9-13-39.5-19-14.9-7.1-22.7-11.4-22.7-12.4 0-0.8 3.2-12.4 7-25.8 3.9-13.3 7-24.8 7-25.5 0-0.6-15.1-30.6-33.5-66.5-18.4-35.8-33.5-65.7-33.5-66.2 0-0.6 6.8-1 18.5-1 14.1 0 18.5 0.3 18.5 1.2 0 0.7-2.5 11-5.5 22.8-3.1 11.8-5.2 21.8-4.8 22.2 0.5 0.4 13.6 8.8 29.3 18.6 15.7 9.9 28.6 17.5 28.7 17.1 0.2-0.5-5.3-14.6-12.2-31.4-6.9-16.8-12.5-30.6-12.5-30.8-0.1-0.1 2.8-1.3 6.2-2.6 3.5-1.3 18.9-7 34.3-12.6 15.4-5.7 28.8-10.6 29.8-10.9 1.6-0.6 1.4-1.3-1.4-8.9-1.7-4.5-4.4-11.9-8.9-24.7l4.6-11.8c2.6-6.4 5.7-12.8 7-14.2 1.2-1.4 6.6-7.6 12.1-14 5.4-6.2 14.3-16.6 19.8-23 5.5-6.4 18.3-21.1 28.3-32.8 10.1-11.7 18.7-21.2 19.2-21.2z"/>
		<path id="Path 9" class="s0" d="m98.3 447.1c0.4-0.1 12.3 9 26.4 20 14.2 11.1 26.1 20.4 26.5 20.8 0.4 0.3-1.7 6.7-4.6 14.1-3 7.4-6.8 16.9-8.5 21-1.8 4.1-4.3 10.6-5.6 14.5-1.3 3.8-5.1 14-8.5 22.5-3.3 8.5-6.2 15.6-6.3 15.8-0.1 0.1-15.5-1.4-34.2-3.4-18.7-2-34.1-3.7-34.2-3.8-0.1 0-5.4-14.7-11.7-32.6-10.6-29.8-11.4-32.6-9.8-33.7 0.9-0.7 17-13.3 35.7-28.2 18.7-14.8 34.3-27 34.7-27z"/>
		<path id="Path 10" class="s1" d="m227.9 474c0.6 0 1.1 0.5 1.1 1 0 0.5 8.6 16.2 19.2 34.8 10.5 18.5 19.3 34.4 19.5 35.2 0.1 0.9-6.1 7-15.3 15-8.5 7.4-15.9 14.1-16.4 14.8-0.7 0.8 3.3 6.6 14 20.2 14 17.8 15.2 19 17.8 18.5 1.5-0.4 15.4-2.7 30.9-5.3 15.6-2.6 28.3-4.5 28.3-4.2 0 0.3-1.4 1-3.2 1.6-1.8 0.7-11.4 4.2-21.3 7.9-9.9 3.6-25.9 9.5-35.5 13-9.6 3.5-23.1 8.5-30 11-6.9 2.6-13.5 5-14.8 5.4-1.8 0.5-2.9 2.5-5.7 11.1-1.8 5.8-6.1 19-9.4 29.5-3.3 10.5-6.1 19.5-6.1 20 0 0.5 5.9 6.1 26.5 23.8l35.5-2.2c19.5-1.2 46.1-2.9 59-3.6 12.9-0.8 39.3-2.4 58.5-3.5 19.3-1.1 37.5-2.2 40.5-2.5 3-0.3 14.5-1 25.5-1.5 11-0.6 21.7-1.3 23.8-1.5 2.1-0.3 3.7-0.1 3.7 0.5 0 0.5-6.4 4.7-14.2 9.1-7.9 4.5-16.3 9.4-18.8 10.9-2.5 1.6-19.3 11.5-37.5 22-18.1 10.6-33.7 19.7-34.5 20.3-1.1 0.7-22.9-3.3-77-14.1-41.5-8.2-75.6-15-75.8-14.9-0.1 0.1 10.6 53.7 23.9 119.2 13.4 65.5 24.3 119.1 24.3 119.2 0.1 0.1 13.4 1.8 29.6 3.8 16.2 2 30.2 3.8 31 4.1 0.9 0.3 1.1 0.8 0.5 1.2-0.6 0.4-6.6 9.5-13.5 20.2-6.8 10.7-12.4 19.6-12.4 19.8-0.1 0.1-7-2.3-30.9-11.3l-53.4-100-33.4-253 49.1-135-1.5-23c-0.8-12.6-1.7-26.3-2.1-30.3-0.4-4.9-0.2-7.2 0.5-7.2z"/>
		<path id="Path 11" class="s0" d="m1011.9 519c0.3 0 4.2 1.1 8.6 2.4 4.4 1.4 15 4.6 23.5 7.1 8.5 2.6 15.9 5.1 16.5 5.6 0.5 0.6 4.3 13.3 8.2 28.2 4 15 7.4 27.3 7.5 27.5 0.2 0.2 8.8-1.8 19.3-4.3 10.4-2.5 19.8-4.8 20.7-5 1-0.3 1.8 0 1.8 0.8-0.1 0.6-5.6 4.9-12.3 9.5-6.7 4.6-19.4 13.3-28.2 19.3-14.9 10.2-16.3 10.9-20.8 10.9-4.5 0-5-0.3-15.5-9.8-5.9-5.4-21.8-19.8-35.5-32-22.2-20-24.6-22.4-23.4-23.9 0.8-1 7.6-9.6 15.1-19.1 7.6-9.4 14.1-17.2 14.5-17.2z"/>
		<path id="Path 12" class="s2" d="m333 602.1c0.3 0 6.4 1.8 13.5 4 7.1 2.2 17.7 5.5 23.5 7.4 5.8 1.9 20.2 6.4 32 10 11.8 3.7 28.4 8.9 36.8 11.6 8.3 2.7 16.3 4.9 17.7 4.9 1.4 0 4 0.6 5.8 1.4 1.7 0.8 12.2 3.3 23.2 5.6 11 2.3 20.4 4.5 20.8 4.9 0.4 0.3-4.7 12.1-11.3 26.1-6.6 14-11.8 26-11.6 26.5 0.3 0.5-1 2.5-2.7 4.3-2.7 2.8-4 3.4-8.7 3.7-3 0.2-14.5 0.8-25.5 1.4-11 0.6-22.5 1.3-25.5 1.6-3 0.3-21.2 1.4-40.5 2.5-19.2 1.1-45.6 2.7-58.5 3.5-12.9 0.7-39.5 2.4-94.5 5.8l-13.3-11.4c-7.3-6.3-13.2-11.9-13.2-12.4 0-0.5 2.8-9.5 6.1-20 3.3-10.5 7.6-23.7 9.4-29.5 2.8-8.6 3.9-10.6 5.7-11.1 1.3-0.4 7.9-2.8 14.8-5.4 6.9-2.5 20.4-7.5 30-11 9.6-3.5 25.6-9.4 35.5-13 9.9-3.7 19.4-7.2 21-7.8 1.6-0.6 3.3-1.4 3.6-1.8 0.4-0.4 1.8-0.9 3-1.2 1.3-0.2 2.6-0.5 2.9-0.6z"/>
		<path id="Path 13" class="s0" d="m1205 617.8c0.4 0.4 4 12.3 8.1 26.4 4.1 14.2 7.2 25.9 6.9 26.2-0.3 0.2-11.2-3.8-24.2-8.8-13-5-24-9.4-24.5-9.9-0.4-0.4 6.8-8.4 16.2-17.7 9.3-9.3 17.2-16.6 17.5-16.2z"/>
		<path id="Path 14" class="s1" d="m329.2 636.3l7.7 6.1c4.2 3.3 13.6 11 20.9 17.1 7.3 6 13.2 11 13 11.1-0.2 0-13.8-0.7-30.3-1.7-16.5-1-31.7-1.9-37.4-2.4l13.1-15.1z"/>
		<path id="Path 15" class="s1" d="m830.7 637.1c2.2-0.1 2.3 0.1 2.5 14.9 0.3 14.5 0.2 14.9-1.7 14.4-1.1-0.2-16.6-3.4-34.5-6.9-17.9-3.6-33.6-6.8-35-7.1-1.8-0.5-2.1-0.8-1-1.2 0.8-0.3 16.3-3.6 34.5-7.3 18.1-3.6 34-6.7 35.2-6.8zm-356.2 3.9c6.6 0 37.6 0.7 69 1.5 31.3 0.8 58.8 1.5 61 1.5 2.7 0 3.5 0.3 2.5 0.9-0.8 0.5-5.8 1.6-11 2.4-5.2 0.9-17.6 3-27.5 4.7-9.9 1.7-18.3 3.5-18.6 3.8-0.4 0.4-1.4 7.9-2.4 16.7-0.9 8.8-1.9 16.1-2.1 16.2-0.2 0.2-7-3-29.9-14.6l-15.7 15.7c-8.7 8.7-16.1 15.4-16.5 14.9-0.5-0.4 4.7-12.3 11.5-26.5 6.7-14.1 11.9-26 11.5-26.3-0.5-0.4-10-2.6-21.3-5-11.3-2.3-21-4.6-21.5-5.1-0.6-0.5 4.4-0.8 11-0.8z"/>
		<path id="Path 16" class="s2" d="m613.5 644c2.8 0 26.6 1.1 53 2.5 26.4 1.4 57.7 2.9 69.5 3.5 11.8 0.6 23.1 1.5 25 2 1.9 0.6 19.3 4.2 38.5 8.1 27.5 5.5 35.4 7.4 36.8 8.9 1.2 1.5 1.4 2.5 0.7 3.8-0.5 0.9-4.8 17.9-9.6 37.7-4.8 19.8-8.7 36.5-8.8 37.1 0 0.7-0.3 1.1-0.6 0.9-0.3-0.2-8.4-0.6-18-0.9-9.9-0.4-20.3-1.3-24-2.1-3.6-0.9-23.8-3.6-45-6-21.2-2.5-44.1-5.2-51-6-6.9-0.9-17.7-2.2-24-3-6.3-0.7-24.1-2.9-67.5-7.9l-19-14.6c-10.5-8.1-20.2-15.4-21.7-16.3-1.6-1-2.6-2-2.4-2.5 0.2-0.4 1.2-7.9 2.1-16.7 1-8.8 2-16.3 2.4-16.7 0.3-0.3 8.7-2.1 18.6-3.8 9.9-1.7 22.3-3.8 27.5-4.7 5.2-0.8 10.2-1.9 11-2.4 0.8-0.4 3.8-0.9 6.5-0.9z"/>
		<path id="Path 17" class="s0" d="m1062 664c0.5 0 1.6 0.8 2.3 1.9 0.6 1 8.3 9.6 17 19.2 8.7 9.6 15.5 17.7 15 18.2-0.4 0.4-6.9-1.2-14.3-3.4-7.4-2.3-15.2-4.5-21-5.9v-15c0-9.3 0.4-15 1-15z"/>
		<path id="Path 18" class="s1" d="m743.8 667.1c2.2-0.1 2.2 0 2.2 29.9l-5.2-2.3c-2.9-1.3-14.7-6.4-46.9-20.2l4.8-0.8c2.6-0.5 13.3-2.1 23.8-3.7 10.5-1.5 20-2.8 21.3-2.9z"/>
		<path id="Path 19" class="s0" d="m1115.2 669c0.7 0 5.8 9.4 11.3 21 6.5 13.5 9.7 21.3 9 21.9-0.6 0.5-5.3 2.3-10.5 4-5.2 1.7-9.8 3.1-10.3 3.1-0.4 0-0.7-11.2-0.7-25 0-19.1 0.3-25 1.2-25z"/>
		<path id="Path 20" class="s1" d="m838 673c0.4 0.8 7.5 17 15.5 36 8.2 19 15.4 36 17.5 41l-6.8-0.5c-3.7-0.3-15.5-0.7-26.2-1-11.9-0.3-19.4-0.9-19.3-1.5 0.2-0.6 4.2-17.1 8.8-36.8 4.7-19.6 8.8-36.4 9.1-37.2 0.5-1.3 0.6-1.3 1.4 0z"/>
		<path id="Path 21" class="s1" d="m548.5 691.7c0.5 0.6 9.7 7.7 20.3 15.9 10.6 8.2 19.1 15 19 15.1-0.2 0.1-5-0.5-10.8-1.2-5.8-0.8-11-1.4-11.5-1.4-0.5 0-4.9-6.4-9.8-14.1-4.8-7.7-8.6-14.3-8.5-14.6 0.2-0.4 0.7-0.2 1.3 0.3z"/>
		<path id="Path 22" class="s1" d="m939.5 716.2c0.1 0.2-0.6 31.6-1.6 69.8-1 38.2-1.9 73.1-2.4 85.5l-60 30-5 15.1c-2.8 8.3-13.1 39.9-41 125.3l-9 1.5c-5 0.9-20 3.4-33.5 5.6-13.5 2.3-24.6 4.2-24.8 4.3-0.1 0.1 2.7 7.4 6.4 16.2 3.6 8.8 7.7 18.6 9 21.7 1.3 3.2 2.1 5.8 1.7 5.8-0.5 0-7.6-5.9-15.9-13.2-8.3-7.3-22.3-19.7-47.4-41.8l17.8-14.8c9.7-8.2 29.6-24.7 44.2-36.7 14.6-12 31.3-25.9 37.2-30.7 6-4.8 11-9.6 11.3-10.6 0.2-0.9 6.2-22 13.4-46.7 7.2-24.8 19.7-68.2 42.8-148l41.8-0.5 6.4-17.8c3.6-9.7 6.9-18.3 7.4-19 0.6-0.7 1.1-1.1 1.2-1zm-348 6.8c1.1 0 13.2 1.4 27 3 13.7 1.7 30.4 3.7 37 4.5 6.6 0.8 17.9 2.1 25 3 7.1 0.9 31.5 3.8 54 6.5 22.5 2.7 41.2 5.2 41.5 5.5 0.3 0.3-2 0.5-5 0.5-3.9 0-6.8 0.7-10 2.4-2.5 1.3-22 11.4-43.5 22.5-21.5 11.1-39.6 20-40.3 19.7-0.6-0.3-12.1-9-25.5-19.3-13.3-10.3-32.1-24.7-41.7-32.2-9.6-7.4-18.2-14-19-14.8-1.3-1.2-1.3-1.3 0.5-1.3z"/>
		<path id="Path 23" class="s1" d="m809 747.7c4.7 0.3 9 1 9.5 1.5 0.6 0.6-1.8 0.7-7 0.3-4.4-0.4-8.7-1.1-9.5-1.5-0.8-0.4 2.3-0.5 7-0.3z"/>
		<path id="Path 24" class="s1" d="m1027 875l-1.8 2.4c-0.9 1.4-8.7 11.5-17.2 22.6-8.5 11.1-16.3 21.1-17.2 22.3-1.4 1.8-1.8 1.9-2.2 0.7-0.3-0.8-2.8-10.7-5.6-22-2.8-11.3-4.9-21-4.7-21.5 0.2-0.5 9.3-1.7 20.3-2.6 10.9-0.9 21.8-1.7 28.4-1.9zm-312.5 133.1c0.5 0-0.4 5-2.1 11.2-1.7 6.2-3.3 12-3.5 12.9-0.3 1.3-2.8-0.6-19.4-17l12-3.5c6.6-1.9 12.5-3.5 13-3.6z"/>
		<path id="Path 25" class="s1" d="m529.8 1083.1c0.1-0.1 8.6 7.4 18.8 16.7 10.3 9.2 18.8 17 19 17.5 0.2 0.4-3.1 0.5-7.3 0.2-4.3-0.3-28-1-52.8-1.5-24.7-0.6-55.1-1.3-67.5-1.7-12.4-0.3-21.8-0.9-21-1.2 0.8-0.3 26-7.1 56-15.2 30-8.1 54.6-14.7 54.8-14.8zm87.6 107c0.5-0.1 2.4 6.5 4.3 14.7 1.8 8.1 3.2 14.8 3.1 14.9-0.2 0-8.4-0.7-18.3-1.8-9.9-1-18.1-2-18.3-2.1-0.1-0.2 6.2-6 14-13 7.9-7 14.7-12.7 15.2-12.7z"/>
		<path id="Path 26" class="s1" d="m941.4 1231.3c0.6 0.2 7.3 1.9 14.8 3.8 7.5 1.8 13.7 3.6 13.7 3.9 0 0.3-3.9 6.8-8.7 14.4-4.8 7.6-9.2 14.1-9.7 14.3-0.6 0.1-3.4-7.7-6.3-17.4-2.9-9.8-5.2-18.2-5.1-18.7 0.1-0.4 0.7-0.6 1.3-0.3zm-774.4 84.2c0.5 0.5 5.4 10.9 10.9 23 5.6 12.1 10.4 22.8 10.6 23.8 0.4 1.4-0.9 1.1-7.3-1.9-4.2-1.9-11.5-5.1-16.2-7.1-4.7-2-8.8-3.9-9.2-4.2-0.4-0.3 1.7-8.3 4.8-17.6 3.2-9.7 5.9-16.6 6.4-16zm419.2 119.5c0.5 0 0.8 11.3 0.8 50l-3.3 0.5c-1.7 0.3-7.5 1.2-12.7 2-5.2 0.7-9.7 1.2-10 0.9-0.3-0.2 5.1-12.3 12-26.9 6.9-14.5 12.8-26.5 13.2-26.5z"/>
	</g>
</svg>