<svg version="1.2" xmlns="http://www.w3.org/2000/svg" viewBox="0 0 1186 1000" width="1186" height="1000">
	<title>g21950</title>
	<style>
		.s0 { fill: #000000 } 
		.s1 { fill: #ffffff } 
	</style>
	<g id="g21950">
		<path id="path7057" class="s0" d="m437 956.7l-238.9-11.3c-44.2-3.5-89.8-9.6-150.7-46.5-34.3-49.8-89.5-150.9 9.9-239.5-18.1-7.5-63.7-92.7 22.6-117.5-31.7-18.6-26.8-35-26.3-39.4 36-84.5 96.5-89.6 32.6-118.8-3.1-2.1-1.4-11.3 2.6-16.8 34.8-26.5 37-192.3 152-223.7 39-117.4 199.9-167.2 324.6-104.8 70.7 14.8 196.4 71.9 219.7 165.1 3.4 529.8-139.4 748.5-348.1 753.2z"/>
		<path id="path8028" fill-rule="evenodd" class="s1" d="m608.8 68.2c-67.5 11.2-122.4 33.6-168.1 64.1 59 27.6 54.2-14.9 111.1-4.4-96.4 38.6-36.4 57.6-111.7 83.1 0.9-16.9-2.7-18.3 14-39.7-136.9 70.6-88.4 99.7-144.5 180.7 17.9-15.3 33.1-5.1 37-4.5-2.6 9.2 4.7 29.7-15 28.5-0.1 14-4.5 13.8-12.1 20.3-47.2-22.3-86.1-60.5-141.1-28.9-9.4 5.5-19.5 5.4-33.9 7.3 3.1 9.6-2.8 26.1 11.3 31.5 17.1 5.8 12.9 47.1 51.5 42.6-9.6-7.8-16.5-12.4-13.6-27.2 16.4-7.3 37.1-3.2 49.8-2.2 7.3 13.1 13.6 22.1 3.2 38.8 20.6-14.7 44.8-17.9 65.1-19.4l51.1-53.3c29.7 122-74.4 91.4-70.6 182.6l-22.6-23.6c-13.7 11.9-16.3 38-13.5 68.7 3.5 6.1-11.1 15.3-24.4 17.1 7.7 11.9 15 18.9 21.7 17.4 6.4 46.3 37.2 45 39.6 103-53.9 16.2-93.7-7.3-123.4-59.8-130.5 53.8-76 119.8-30.1 228.4l-88.2-26.9c-61.8-89.9-65.2-175.8 23-234.6-33.8-10.4-40.2-35.9-38.4-60 2.6-34.7 22.9-52 54.4-46.6 0 0 6.5-11.3 23.9-11.6 1.1-0.1 2.3 0 3.6 0.1 10.5 0.7 24.2 5.1 35.2 9.2 0 0 0.1 0 0.1 0 11.9-0.5 26.7-2.6 29.3-7.5 5.1-9.4 8.5-19 5.9-32-2.6-13-12-18.5-13.1-7.7-1.2 10.8 8 26.1-6.8 35.1-12.8 7.8-31.3-9.7-49.7-12.2-9.5-1.3-62.8 12.1-54.4-25.7 12-53.6 91.8-87.4 33.1-114.4-4.6-2.1-4-12.5 2.3-17.1 42.7-68.5 37-188.3 147.4-215.1 15.4-72 95.7-131.2 195.4-133.5 52.3-1.3 109.8 13 166.2 49.4zm-315.6 69.6c24.9-5.1 54.1-28 87.8-7.1 45.1-45.6 109.9-52.5 152.7-66-23.8-1.2-49.7-3.7-76.3-3.6-58.3 0.1-119.2 12.4-164.2 76.7zm-21.4 256.7c2 13.5 17.9 16.9 19.3 24.4 0.8 4.2-3.2 5.5-5.6 10-35.9-10.6-37-31.3-89.1-26.3-6.7-7.2-4.5-16.5-1.8-26.1 17 1.1 24.3-3.4 33.2-3.6 9-0.3 19.7 3.5 44 21.6zm53 216.9c-4.5-7.6-3.5-12.9-8-13.6-10.6 9.6-17.3 23-24.5 40.4 0 0-1.6-23.1 19.5-78.7 1.9-5 10.4-15.7 14.5-19.8 18.3 1.9 49.2-25.8 49.3-25.8 4.3 32.5-41.4 46-50.8 97.5zm-171.9-34.2c28 19.8 47.4 34.4 67.8 42.2-14.2-21-44.1-52.8-62.8-65.3-9.6 2.5-15 12.4-5 23.1zm-76.1 78.9c0.1 0 0.1-0.1 0.1-0.1 11.2 15.1 28.2 15.7 46.1 14 15.3 4 23.2 10.6 42.3 13.2-4.5-8.8-8.8-18.3-12.8-28.4-39.2-6.4-65.7-20.6-79.3-42.3z"/>
	</g>
	<g id="g21946">
		<path id="path8056" class="s0" d="m1062.5 821.8c-2-16.2-220.2-63.2-397.3 137.2-73.1 82.6-288.1 30-291.6-66.5l43.5-109.9c-9.5-96.4-5.1-127.1 24.3-152.2-24.1-30.3-55.7-58.5-0.6-123-32.8-63.3 61.1-92.3 47.8-145.3-20.6-25.5-37.5-18.8-23.9-37.8 52.9-16.1 39.3-144.5 121.2-209-45.7-29.4 51.7-41.5-40.9-34.5 0 0 83.1-106.1 208.4-74.2 153.1-21.6 312.9 32.1 372.1 108.7 152.2 196.8-30.2 730.1-63 706.5z"/>
		<path id="path9999" fill-rule="evenodd" class="s1" d="m748.3 13c40.1 0.9 90.9-14.4 115.1 14.1-24.9-9.3-135.1 0.5-126.5 34.6 41.4-5.7 94.3-22.8 107.3 0-54.5 7.9-101.3 15.4-127.3 53.6 38-4.4 68.3-3.4 76.1 35.7 4.9 38.8-30.8 69.4-72.9 104.8l0.7 73c1.2 17.3-5.7 29-14.2 40.1l-4.3-9.5c-21.7-48.3-69.1-14.1-98.5-51-27.5 13.3-53.5 25.2-87 21.6 3.5 17.7 2.5 44.6 23.7 26.9-14.8 38.9 30.7 60.7 54.4 69l-19.2-35.8c9.2 3.2 18.6 6.2 49.2-3.8 16.9 7 20.2 32.8 47.6 31.7 1.3-3 2-5.1 2.4-6.9 37.9-13.7 53.1 4.3 56.8 37.9-14.5 4.9-29.4 10.3-50.6 28.7-7.9 19.8-18.6 39.6-38.3 59.4-5.8 12-1.9 30.3 7.7 52.4-18.3 1-17 2.7-32.5 8.8 18.4 9.6 16.2 22.8 28.7 52.8 7.4-4.7 11-6.2 18.6-3.7l12.6 18.8c0 0-10.3 2.2-13.5 9.3-3.2 7 0.2 13 10.5 12.6 10.7-0.3 15.9-4 15.9-4 0.3 47.5 24.7 36.9-5.1 113.8-42.4-21.9-106.8-60.8-91.9-109.5-10.4 21.9-22.8-8.4-32.2-17-4.1 11.1-0.9 22.1 5.2 33.2-27.4 24.5-25 14.7-35.8 67.8 11.9-17.9 18.1-16.8 26.7-18 6.2 86.1-15.5 97.4-17.2 143.9l-26.1-25.7c-0.2 18.5 7.8 41.5-0.1 67.8 22.7 18 25.6 21.8 33.9 53.1-98.8-4.6-173.7-53-163.7-107.6 6.2-34.2 38.2-89.6 37.7-104.6-1.7-52.6-16.7-123.8 26.9-150.2-10.6-9.5-56.3-50.1-18-102.9l9.3-13c21 3.8 26 2.4 47.4 11.7 40.8-14.7 41.3 7 62.1 2.7 28.3-5.9 19.2-18 20.2-39.1 0.7-14.5-14.6-20.3-12.2-7.9 1.5 8.1 2.2 25.8-6.1 31.7-10 7.3-25.5-9.1-36.4-8-9.9 1.1-22.9 5.9-33.8 6.2-6.2 0.2-23.9-5.7-35.4-9.8-5.1-7-6.1-20.2-5.7-30 1.5-36.1 51.5-47.9 57.3-107.5 15.7-14.3-41.2-13.8-28.3-38.4 60.1-20.9 26.7-131.7 124-211.5 0 0-17.6-7.2-15.2-17.9 2.4-10.7 17.2-22.3 17.2-22.3l-30.1-3.9c25.5-23.6 70.6-61.7 141.1-62.1 13-0.1 27 1.1 41.8 3.9zm-92.1 77.3c0 0-5.6-0.8-10.3-0.6-3.5-18.4 12-27.7 12-27.7-2.2-1.5-23.2 9.7-23.4 9.2-4.7-10.4 6.4-23.3 6.4-23.3-19.8 8.9-26.2 65.1-19.1 66.8h58.1c2.9-47.6 13.7-53.5 36.4-69.7-19.9 3.5-43.4 4.6-60.1 45.3zm31.4 274.7l13.3 11.3q-4 5-7.8 10.3l-25.1 9.8c-9.8-10.7-28.1-16.3-43.7-23.5-19.1 4.4-34.2 3.8-44.8-2l-3.4-15c17.7 3.1 30.6 4.1 42.6 0.8l25.4-8.6c23.8 12.3 31.8-2.7 43.5 16.9zm92.6 105.7c-16.6 38.9-29.8 38.8-43.3 76.7l-9.1-11.6c-17 24.3-33.6 44.5-52.4 56.9 41.6-105 73.3-63.2 90.8-139.4 4.6 0.5 10.3-6.7 13.4-6 2.4 0.5 3.1 6 0.6 23.4zm-206.5 120.2c2.5-5.5 2.9-9.2 9.2-9.1 12.2 3.8 14.8 18.7 23.2 27.8-3.1-19.1-5-39.1-13.3-49.2-0.9 4.2-2.5 2.4-8.2 4.2-8.6-15.2-19.6-25.2-31-35.5 8.9 22.4-0.3 49.9 20.1 61.8zm-108.7 39.7c6.3-6.5 3.9-2.8 5.6-9.4 8.8 11 16.9 6.4 21.7 12.1 5.3-1.7 16.1 2.5 16.2-5.6 1.6 8.5 7.3 14.2 14.3 19.1l3.7-9.1c3.7 14.2 14.9 19.8 26.2 25.2-6.4-16.2-14.1-9.3-19.4-48.4-7.8-2.5-13.3-1.8-22.1 0.6 0 0-1-6.6-8.9-13.8-7.9-7.2-22.8-15.1-22.8-15.1 4.7 7 6.8 13.2 8.1 19.2-4-10.3-14.9-15.2-19.9-21 0 0-4.5 16.2-4.5 11.6 0-4.5-12.6-34.2-12.6-34.2-4.7 21.6-6.3 51.6 14.4 68.8z"/>
	</g>
</svg>