<svg version="1.2" xmlns="http://www.w3.org/2000/svg" viewBox="0 0 1610 1501" width="1610" height="1501">
	<title>marxengels-svg</title>
	<style>
		.s0 { fill: #ffffff } 
		.s1 { fill: #000000 } 
		.s2 { fill: #7f7f7f } 
	</style>
	<g id="Background">
		<path id="Path 0" class="s0" d="m1069.3 0c2.6 0 7.5 0.7 11 1.5 3.4 0.8 19.3 4.5 35.2 8 16 3.7 35.1 7.9 42.5 9.5 7.4 1.6 19.6 4.3 27 6 7.4 1.7 28.6 6.5 47 10.6 18.4 4.2 42.3 9.5 53 11.9 10.7 2.4 29.6 6.7 42 9.5 12.4 2.8 29.9 6.7 39 8.6 14.3 3.1 16.8 4 18.8 6.2 1.2 1.5 5.3 7 9 12.2 3.8 5.2 14 19.4 22.7 31.5 8.7 12.1 20.7 28.8 37.3 52l26.5 64-2.4 7.4c-1.3 4-2.9 7.7-3.4 8.1-0.5 0.4-6.4 1.7-13 3-6.6 1.2-12.4 2.6-12.8 2.9-0.5 0.3 0.1 22.2 1.3 48.6 1.2 26.4 2.3 49.1 2.6 50.5 0.2 1.4 0.6 2.3 0.9 2 0.2-0.3 3.6-18.5 7.5-40.5 3.9-22 7.4-40.9 7.9-42 0.6-1.6 4.7 4.6 21 32 11.2 18.7 21.1 34.7 22 35.5 0.9 0.8 2.6 3.7 3.9 6.5 2.1 4.8 2.3 7.7 4.7 63.5 1.4 32.2 2.5 59.9 2.5 61.5 0 2.2-2 5.7-15.7 24l5.2 29.5c2.9 16.2 5.2 29.6 5.1 29.7 0 0.1-6.6-0.7-14.6-1.7-8-1.1-19.4-2.6-25.5-3.5-6-0.8-16.4-2.2-23-3.1-6.6-0.9-12.3-1.9-12.7-2.3-0.4-0.3 0.7-2.7 2.5-5.3 1.7-2.6 12.8-13.3 24.5-23.7 11.6-10.5 21.2-19.3 21.2-19.6 0-0.3-5.2-7.1-11.7-15.3-6.4-8.1-14-17.6-16.8-21.2-2.9-3.6-18.9-23.8-35.6-45-16.8-21.2-31.8-40.2-33.4-42.3-1.7-2.1-2.8-4-2.5-4.3 0.3-0.2 6.8 0.9 14.5 2.6 7.7 1.7 17.8 3.9 22.5 5 4.7 1 8.6 1.8 8.8 1.7 0.2-0.1-5.1-15.5-11.7-34.2-6.6-18.7-18.5-52.2-26.4-74.5-7.9-22.3-14.7-40.1-15-39.5-0.3 0.6-13.6 35.4-29.6 77.5-28.5 74.8-29.1 76.5-27.3 78.5 1 1.1 13.7 14.8 28.3 30.5 14.5 15.6 30.6 32.9 35.7 38.5 5.1 5.5 8.9 10.3 8.5 10.6-0.5 0.3-11.6 8-24.8 17.1-13.2 9.1-28.7 19.8-45 30.8h-162l-15 5c-8.2 2.8-16.3 5.7-18 6.4-1.7 0.8-15.8 6.7-31.5 13.1-15.7 6.4-35.2 14.4-58.2 24l-4.8 7.5c-2.7 4.1-4.8 7.6-4.7 7.7 0.1 0.1 4.8 0.2 20.7 0.3v21.5l-34.5 11.5h-16c-8.8 0-15.8 0.2-15.5 0.4 0.3 0.3 9.3 3.9 39.5 15.4l71-10.1 26.3 10.4c14.4 5.7 26.2 10.7 26.2 11.1 0 0.5-0.8 1-1.7 1.3-1 0.2-12.6 3.4-25.8 7-13.2 3.6-24.2 6.8-24.5 7-0.3 0.2 1.1 0.8 3 1.4 1.9 0.5 13.3 3.9 25.3 7.5 11.9 3.6 22.3 6.6 23 6.6 0.6-0.1 7.7-8.9 15.7-19.8 10.7-14.4 18.5-23.7 29.5-35.1 8.7-8.8 21.6-20.6 30.5-27.8 11.7-9.4 18.2-13.9 26.3-17.9 5.9-3 11.1-5.3 11.7-5.2 0.5 0.2 5.4 5.9 10.9 12.8 6.6 8.2 10 13.4 10.1 15 0 1.4 10.8 32.6 24 69.5 13.2 36.9 24 67.3 24 67.8 0 0.4-2.2 1.8-5 3.2-4.2 2.1-11.4 3.4-43.5 8-37.9 5.4-38.8 5.5-85.5 5.5l-0.8-3.2c-0.5-1.8-2.9-11.3-5.3-21.1-2.4-9.7-4.7-17.7-5.1-17.7-0.5 0-24.5 14.7-53.5 32.7-29.1 17.9-54.1 33.4-58.8 36.3l-11.5-4.9c-6.3-2.6-17.8-7.4-25.5-10.6-7.7-3.2-19.6-8.2-26.5-11-6.9-2.9-19-8-27-11.3-8-3.3-19.9-8.3-26.5-11.1-6.6-2.7-12.3-5.6-12.7-6.3-0.4-0.7-7.8-18.8-31.9-79.3l14.6-101.5c8-55.8 15.3-106.3 16.3-112.2 0.9-5.9 1.5-11 1.2-11.3-0.3-0.3-8.5 1.7-18.2 4.5-9.8 2.7-18 5-18.3 5-0.3 0-0.5-4.9-0.5-11 0-6.7-0.4-11-1-11-0.5 0-1.2 1-1.4 2.3-0.2 1.2-10.6 58.9-23.2 128.2-12.5 69.3-23 126.3-23.3 126.8-0.3 0.4-13.5-18.2-29.3-41.3-16.9-24.6-28.8-42.9-28.8-44.2 0-1.3 1.1-8.6 4.9-30.3l-2.6-40.5c-1.5-22.3-2.8-40.7-3.1-41-0.2-0.3-7.7-1.7-32.7-5.7l-8 2.2c-4.4 1.3-18.1 5-53 14.5h-102l-17.5 5c-9.6 2.7-39.2 11-114 32l-23.3 18.3c-12.8 10-29.9 23.4-52.6 41.2l13.2 13.3c11.9 11.9 13.5 13.2 16.7 13.2 1.9 0 13-1.1 45.5-4.9l29 10.6c16.9 6.2 31.3 10.8 34.5 11.2 4.7 0.5 5.5 0.9 5.3 2.6-0.1 1.1-2.2 11.2-4.7 22.5-2.5 11.3-4.5 20.6-4.3 20.8 0.1 0.2 11.4-13.3 25.1-30 13.7-16.7 28.1-34.5 32-39.6 3.9-5.1 7.6-9.3 8.1-9.2 0.6 0 8.7-1.1 18-2.5 9.4-1.4 17.2-2.8 17.5-3.1 0.3-0.3-0.7-8.7-4.8-36.9l11.2-13.7c10.5-13 11.4-13.8 15.6-14.7 2.5-0.5 14.3-2.9 26.2-5.3 11.9-2.3 21.8-4.1 22.1-3.8 0.2 0.3 7.5 25.5 32 111.5l32.7 65.5-14.2 11.8c-7.8 6.4-15.2 12.4-16.3 13.3-1.3 1.1-8.3 2.5-20.5 4.3-10.2 1.5-28.5 5.1-63 13.6l-15.2-2.6c-8.4-1.4-15.5-2.7-15.8-2.9-0.3-0.1-3.9-4.8-8-10.4-4.1-5.6-7.8-10.1-8.2-10.1-0.5 0-34.2 32.3-75 71.7-40.9 39.5-80.7 78.1-102.8 99.8l-34.3-12.4c-18.8-6.8-35.8-13-37.7-13.7-3.3-1.3-4.9-4-27.4-46.6-13.1-24.9-23.9-45.4-24-45.5 0-0.1-14.1-2.6-31.3-5.5-17.2-2.9-31.5-5-31.8-4.5-0.2 0.4 16 34.6 36.2 76 20.1 41.3 45.1 92.7 55.5 114.2 10.5 21.5 19.2 39.2 19.4 39.5 0.3 0.3 8.8-7.8 18.9-18 10.1-10.2 18.6-18.3 18.8-18 0.2 0.3-0.9 19.2-2.4 42-1.5 22.8-2.6 41.6-2.6 41.8 0.1 0.2 14.4-6.7 31.7-15.2 17.3-8.6 31.8-15.6 32.3-15.6 0.4 0 0.7 1.1 0.7 2.5 0 1.4 1.1 7.2 2.5 13 1.7 7.2 4.2 14 13.5 32.5l-12.5 25.3c-6.9 13.8-12.3 25.3-12 25.5 0.3 0.1 13.1-10 56.4-45.3l0.1-5.2c0-5 0.2-5.4 3.3-6.7 1.7-0.7 12.4-4.4 23.7-8.1 11.3-3.7 20.6-6.8 20.8-6.9 0.2-0.1 1.6-17.4 3.2-38.6 1.6-21.2 3-39.4 2.9-40.5 0-1.1 6-9 14.3-18.5 7.8-9.1 23.5-27.1 34.7-40 11.3-12.9 21.8-24.5 23.3-25.7 1.6-1.3 3-2.3 3.3-2.3 0.3 0 3.9 6.9 15.8 30.5l7.9-23.5c4.3-12.9 8.1-23.6 8.3-23.7 0.3-0.2 7.1 9.6 15.3 21.7 8.1 12.2 14.4 22.4 14 22.8-0.4 0.4-5.3-3-10.8-7.5-5.5-4.6-10.7-8.6-11.6-9-1.3-0.7-1.5-0.3-1 1.7 0.3 1.4 1.5 7.9 2.6 14.5 1.2 7.2 2 16.7 2 35.5l-5-2.7c-2.7-1.6-5.2-2.6-5.5-2.3-0.2 0.3-1.6 6.1-3 13-1.4 6.9-2.5 12.6-2.5 12.8 0 0.1-1 0.2-2.2 0.2-1.3 0-6.9-1-12.5-2.3-5.6-1.2-10.4-1.9-10.8-1.4-0.2 0.4 1.8 5.2 4.5 10.7 2.8 5.5 4.7 10 4.3 10-0.5 0-11.1 1.2-23.8 2.6-12.6 1.4-23.3 2.9-23.6 3.2-0.3 0.4-4.1 22.8-8.5 49.9-4.3 27.1-7.7 49.4-7.4 49.7 0.3 0.3 6.4-6.4 13.5-14.7 7.2-8.4 17.8-20.2 34.1-37.2l8-26.2c4.3-14.5 8.1-26.3 8.4-26.3 0.3 0 2.6 4.4 5.3 9.7 2.6 5.4 4.7 10.3 4.7 10.8 0 0.5-3.4 12.5-7.6 26.5-4.2 14-8 26-8.4 26.5-0.4 0.5-5 2.1-10.1 3.4-5.2 1.3-9.7 2.5-10.1 2.7-0.5 0.2 0.3 4.6 1.7 9.7 1.3 5 2.5 11.1 2.5 13.5 0 3.7-0.9 5.3-8.2 14.9-6.6 8.5-10.8 12.8-20.5 20.5-6.8 5.4-12.8 9.7-13.4 9.6-0.7-0.2-2.2-3.5-5.9-14.3l2.5-9.5c1.4-5.2 2.5-10.3 2.5-11.2 0-1-0.7-1.8-1.7-1.8-1 0-9.9-2.1-19.8-4.6-9.9-2.4-18.7-4.7-19.5-4.9-1.2-0.4-3.7 6.7-12 33.5-5.8 18.7-11 33.8-11.5 33.7-0.5-0.2-5-12.8-10-28-4.9-15.2-9.6-28.2-10.3-28.9-1-1-1.2 4-1.2 54.2l-48 31.5 27 38-4.7 2.2c-2.7 1.3-18.1 8.4-34.3 15.9-16.2 7.5-29.9 13.8-30.5 14.1-0.5 0.2-5.7-5.3-11.5-12.4-5.8-7-23.2-28.1-38.5-46.8-15.4-18.7-38.2-46.6-50.8-62-12.6-15.4-24.1-29.3-25.6-30.8-1.4-1.6-24.5-17.4-51.3-35.3-26.9-17.8-49-33-49.3-33.6-0.3-0.7-3.9-17.3-15.5-72.3v-99l-11.3-17.2c-6.1-9.5-20.4-31.3-31.7-48.5-11.3-17.2-21.3-33.1-22.4-35.3-1-2.2-3.6-9.2-5.7-15.5-2.8-8.2-3.9-13.2-3.9-17.5-0.1-3.4 2.2-17.7 10.5-59.5h27l75.8 43.5 12.9 26.2c7 14.5 13.1 26.3 13.6 26.3 0.4 0 9.9-3.5 21.2-7.7 11.3-4.2 20.6-7.8 20.8-8 0.1-0.2-4.1-8.5-9.4-18.6-5.4-10-14.8-27.8-21-39.5-6.3-11.6-11.4-21.7-11.4-22.2 0-0.5 3.5-8.1 15.7-32.5l21.8-16.4 16.5-49.6v-25l-3.2-3.1c-2.1-1.9-6-3.8-10.5-5.2-4-1.2-7.5-2.7-7.8-3.2-0.3-0.5-0.5-17.2-0.5-37 0-23.3-0.3-36-1-36-0.5 0-7.2 7.5-14.8 16.7-7.6 9.3-15.6 19.4-17.8 22.6-2.1 3.2-4.2 5.4-4.5 5-0.4-0.4-1.6-5.1-5.1-19.8l5.1-7.5c2.8-4.1 12.1-19.2 20.6-33.5 8.6-14.3 15.4-26.1 15.3-26.3-0.2-0.1-10.4 7.6-45.3 34.7l-12.7 0.1c-7.1 0-12.8-0.3-12.8-0.8 0-0.4 3.1-2.7 6.8-5.1 5.9-3.8 9.2-7.5 27.9-31 14-17.5 20.8-26.8 20-27.3-0.6-0.3-11.4-4-46.7-15.8l-17 9.7c-9.4 5.4-17.2 9.6-17.4 9.3-0.2-0.3 5-6.8 11.6-14.5 6.6-7.7 13.3-15.6 17.8-21l12.2 2.3c6.8 1.3 14.3 2.7 16.8 3.2 2.5 0.5 9.9 1.8 16.5 3 6.6 1.2 12.4 2 12.8 1.8 0.5-0.2 4.4-9.7 8.8-21.3 4.4-11.6 8.3-21.1 8.7-21.3 0.4-0.1 2.9-1.5 5.6-3 4.4-2.5 6-4.6 31.2-44.7l30.9-11.6c17.1-6.4 55.9-20.9 141.5-52.9l52.3 10.5c28.7 5.7 61.4 11.8 72.7 13.5 17.2 2.6 23.1 3.1 53.5 2.8l19.7 14.7 24.5 39c13.5 21.4 32.7 51.9 42.7 67.7 9.9 15.9 18.2 28.6 18.4 28.3 0.1-0.3-15.4-31.7-34.4-69.8-30.7-61.4-34.4-69.4-33.3-71.2 0.7-1.1 10.3-12.4 21.4-25 11-12.7 29.5-33.8 41-47 11.6-13.3 26.2-30 44-50.5l8.5-2.6c4.7-1.4 21.3-6.6 37-11.6 15.7-4.9 54.3-17.1 143-44.8l12.8 2.6c11 2.3 13.2 2.5 16.2 1.4 1.9-0.7 15.2-6.6 29.5-13.1 21.4-9.8 26.8-11.9 30.8-11.9zm-647.3 37.6c0.8 0.2 7.6 1.7 15 3.4 7.4 1.7 26.5 6 42.5 9.6 15.9 3.6 41.8 9.5 57.5 13.1 15.7 3.6 31 7.1 34 7.8 3 0.7 4.8 1.3 4 1.4-0.8 0.1-6.9-0.8-13.5-1.9-6.6-1-22-3.1-34.3-4.5-12.2-1.4-26.6-2.5-41.7-2.5l-38.3 32.5-46.3 7.7c-25.5 4.3-46.6 8-46.9 8.3-0.3 0.3-0.3 0.7 0 1 0.3 0.2 7.7 1.8 16.5 3.5 8.8 1.7 26.3 5.1 39 7.5 12.6 2.4 29.5 5.6 37.5 7.1 8.9 1.6 13.9 3 13 3.4-0.8 0.4-14.1 4.4-29.5 8.9-15.4 4.4-44.4 12.8-64.5 18.6-20.1 5.8-43.5 12.6-52 15.1-14 4.1-19.1 6.3-53.8 23.5-21 10.4-38.7 18.9-39.2 18.9-0.6 0-8.1-4.2-16.8-9.4-8.6-5.1-22.7-13.4-31.2-18.4-8.5-4.9-15.7-8.9-16-8.7-0.3 0.1-10.1 15.7-43 69l-16.5 10.7-3.8-3.9c-2-2.1-3.7-3.4-3.7-2.8 0 0.5 0.5 2.4 1.1 4 1.1 2.9 0.5 3.9-14.7 26.8-8.8 13-16.2 23.4-16.5 23-0.4-0.4-1.5-4.4-2.6-8.8-1.2-4.4-2.3-8.7-2.7-9.5-0.4-1 5.1-8.2 16.2-21.1 10.2-12 23.2-29 33.4-43.5 9.2-13.2 31.6-45.1 49.8-70.9 18.2-25.8 33.9-47.7 34.8-48.5 1-0.8 9.6-4.1 19.2-7.2 9.6-3.1 25.1-7.9 34.5-10.7 9.3-2.7 32.7-9.7 52-15.4 19.2-5.8 44.2-13.2 55.5-16.6 11.3-3.3 30.6-9 43-12.7 12.4-3.6 23.6-7 25-7.4 1.4-0.5 3.2-0.6 4-0.4z"/>
		<path id="Path 1" class="s1" d="m485.4 64h9.8c5.4 0 19.8 1.1 32.1 2.5 12.2 1.4 29.8 3.9 39.2 5.5 9.4 1.7 17.8 3 18.8 3 1.3 0 9 14.6 31.2 58.8 16.2 32.3 29.1 59 28.8 59.5-0.3 0.4-7.5 0.7-16 0.7-11.9 0-19.8-0.7-35.5-3-11.2-1.7-43.8-7.7-124.8-24l-41.7 15.6c-23 8.6-61.6 23-85.8 32-24.2 9.1-44.4 16.9-44.9 17.5-0.6 0.5-1.7 0.9-2.5 0.9-0.9 0-10.1 3.9-20.6 8.6-10.4 4.8-35.9 16.4-56.5 25.9-20.6 9.5-40.2 18.4-49.5 22.6l-20.2 30.2c-11.2 16.6-20.3 30.5-20.3 31 0 0.4 0.7 0.5 1.5 0.2 0.8-0.3 12.2-8.2 25.3-17.6 13-9.5 24.3-17.7 25-18.3 0.8-0.7 1.3-0.7 1.2-0.1 0 0.6-5.8 7.8-12.9 16-7.1 8.3-12.7 15.2-12.5 15.5 0.2 0.3 7.6-3.7 16.4-8.7 8.8-5.1 16.5-9.3 17-9.3 0.6 0 0.8 1.2 0.5 2.8-0.3 1.5-2.5 18-5 36.7-2.4 18.7-4.7 35.2-5.5 39.5h26.5l17 16.9-5.7 8.5c-3.2 4.7-6.1 8.7-6.5 8.7-0.5 0.1-10.2 8.8-21.8 19.3-11.5 10.5-23.5 21.4-26.5 24.3-3 2.8-5.3 5.4-5 5.8 0.3 0.3 14-6.2 60.5-29.5l4.8-7.5c2.6-4.1 5.2-7.5 5.7-7.5 0.6 0 1.3 0.8 1.6 1.8 0.3 0.9 5.4 9.3 11.2 18.7 5.8 9.4 11.8 18.1 13.2 19.4 1.7 1.6 2.1 2.5 1.3 3-0.7 0.3-3.5 7.2-6.3 15.4-2.7 8.1-4.7 14.7-4.2 14.7 0.4 0 6.4-5.7 26.1-25.5l6.1 6v25l-16.5 49.6-22 16.6-8 16.4c-4.4 9-8.5 16.9-9.1 17.4-0.6 0.5-6.6 10-13.4 21-6.8 11-12.4 20.1-12.4 20.2-0.1 0.2-17-9.4-75.1-42.6l2.5-13.1c1.4-7.2 2.4-13.3 2.3-13.5-0.2-0.3-5.8 4.1-12.5 9.6-6.8 5.6-13.9 11.8-15.8 13.8-3.4 3.5-3.6 4.2-8.8 29.6-2.8 14.3-5.2 28.7-5.3 32 0 5.4-0.3 6.2-5.9 10.5v-95.5l-31.8 48 5.7 8.5c3.1 4.7 10 15.3 15.4 23.5 5.4 8.3 12.8 19.9 16.5 25.9 3.7 6 7.2 10.8 7.7 10.6 0.6-0.1 1.7 1.3 2.5 3.2 0.8 1.8 10.7 17.4 22 34.6 11.3 17.2 25.6 39 43 65.7v96.5l-75.5-37.7-4.9-11.4c-2.7-6.3-17.2-40.2-59.7-139.4l-16-226 37.6-176.5 8.3-5.5c4.5-3 9.3-5.5 10.7-5.5 2.2 0 4.8-3.4 18.8-24.3 12-18 16.7-24.2 18-24 0.9 0.2 1.7-0.1 1.7-0.7 0-0.5 0.5-0.8 1-0.5 0.6 0.3 4.4-1.7 8.5-4.5 4.1-2.7 7.7-5 8-5 0.3 0 0.6 1.4 0.8 3 0.1 1.6 0 3-0.3 3-0.3-0.1-3.8 5.3-7.7 12-4 6.6-7.3 12.5-7.3 13 0 0.6-0.3 1-0.7 1-0.5 0-1.9 6.5-3.3 14.5-1.4 7.9-2.2 14.8-1.7 15.2 0.4 0.4 0.9 0.6 1.1 0.3 0.2-0.3 4.4-6.7 9.5-14.2 5-7.6 8.9-13.8 8.6-13.8-0.3 0 2.2-3.7 5.5-8.2 3.3-4.6 6-8.9 6-9.5 0-0.7 0.6-1.3 1.3-1.3 0.6 0 8.2-3.9 16.7-8.7 8.5-4.8 17.9-9.9 20.8-11.5 2.8-1.5 5.6-2.7 6.2-2.5 0.5 0.1-4.9 6.1-12 13.2-7.1 7.1-12.7 13.1-12.5 13.3 0.3 0.1 8.6-3.8 18.5-8.8 9.9-4.9 18.5-9 19-9 0.6 0-0.8 3.6-3 8-2.2 4.4-3.8 8.3-3.5 8.8 0.3 0.4 7.3-6 15.5-14.3 8.3-8.2 15-15.3 15-15.7 0-0.5 0.6-1.4 1.3-2.1 0.6-0.7 1.5-1.4 2-1.5 0.4-0.1 15.4-7.6 66.2-33l10.8-11.1c5.9-6.1 11.3-11.1 12-11.1 0.6 0 8-2 16.2-4.5 8.3-2.4 31.4-9.2 51.5-15 20.1-5.8 49.1-14.2 64.5-18.6 15.4-4.5 28.7-8.4 29.5-8.9 0.9-0.4-4.1-1.8-13-3.4-8-1.5-24.9-4.7-37.5-7.1-12.6-2.4-30.2-5.8-39-7.5-8.8-1.7-16.2-3.3-16.5-3.5-0.3-0.3-0.3-0.7 0-1 0.3-0.3 21.4-4 93.2-16l19.1-16.2z"/>
		<path id="Path 2" class="s2" d="m289.1 120.1c0.3-0.1 0 1.1-0.6 2.7-0.6 1.5-4 8.5-7.6 15.5-4.6 9.1-7.8 14.2-16.4 22.8l-14.8-2.5c-8.1-1.4-15.3-2.6-16-2.6-0.6 0 1.7-1.8 5.3-4.1 3.6-2.2 16.2-10.2 28-17.9 11.8-7.6 21.8-13.9 22.1-13.9zm-128.7 64.8c1.7 1 11.4 6.7 21.6 12.6 10.2 5.9 22.9 13.4 28.2 16.6 5.4 3.3 10.2 5.9 10.8 5.9 0.5 0 16.9-7.9 36.2-17.5 19.4-9.6 35.5-17.3 35.8-17 0.3 0.3-3.6 4.6-17.5 18.7l-33 16.6c-18.2 9.1-33.5 16.5-34 16.3-0.6-0.2-8.7 0.7-18 2-13.7 1.8-17.3 2.6-18.5 4.1-0.8 1-2.2 1.9-3 1.8-0.8 0-5.3 2.1-10 4.8-4.7 2.7-13.9 7.8-20.5 11.5-6.6 3.6-12.5 6.7-13 6.7-0.6 0-3.4-2.3-6.3-5.2-4.6-4.5-5.3-5.8-5-8.3 0.2-1.6 9.5-17.9 20.7-36 11.2-18.2 20.8-33.6 21.3-34.2 0.8-1 1.7-0.9 4.2 0.6zm523.3 20.5c0.6 0.6 16.5 31.8 35.2 69.4 18.8 37.5 34 68.4 33.9 68.7-0.2 0.2-11.2-16.7-24.4-37.8-13.3-21-32.3-51.1-42.3-67-12.7-20.1-17.7-28.9-16.9-29.5 0.7-0.4 4-1.6 7.3-2.8 4.4-1.6 6.3-1.8 7.2-1zm714.1 61.7c7.8 22.2 19.7 55.7 26.3 74.4 6.6 18.7 11.9 34.1 11.7 34.2-0.2 0.1-4.1-0.7-8.8-1.7-4.7-1.1-14.8-3.3-22.5-5-7.7-1.7-14.2-2.8-14.5-2.6-0.3 0.3 0.8 2.2 2.5 4.3 1.6 2.1 16.6 21.1 33.4 42.3 16.7 21.2 32.7 41.4 35.6 45 2.8 3.6 10.4 13.1 16.8 21.2 6.4 8.2 11.7 15 11.7 15.3 0 0.3-8.9 8.6-19.8 18.5-10.8 9.8-20 17.7-20.5 17.5-0.4-0.3 1.3-3.4 3.8-7 2.5-3.6 4.4-6.9 4.2-7.5-0.1-0.5-8.3-12.6-18.2-27-11.9-17.2-18.5-25.9-19.5-25.7-0.8 0.2-16.8 9.5-35.5 20.7-18.7 11.2-42.4 25.4-71.5 43l-9.3-1.1c-5-0.5-35.1-3.9-66.7-7.5-31.6-3.5-57.7-6.7-58-6.9-0.3-0.3 33.2-0.5 149.5-0.5l10.5-7.1c5.8-3.9 21.3-14.6 34.5-23.7 13.2-9.1 24.3-16.8 24.8-17.1 0.4-0.3-3.4-5.1-8.5-10.6-5.1-5.6-21.2-22.9-35.7-38.5-14.6-15.7-27.3-29.4-28.3-30.5-1.8-2-1.2-3.7 27.3-78.5 16-42.1 29.4-76.9 29.7-77.4 0.4-0.5 7.1 17.3 15 39.5zm-1104.5-34c0.9-0.1 1.7 0.1 1.7 0.4 0 0.3-5.7 9.6-12.8 20.6-12 19.1-13 20.3-17.7 22.7-2.8 1.3-5.1 2.5-5.2 2.6-0.1 0-3.8 9.5-8.2 21.1-4.4 11.6-8.3 21.1-8.8 21.3-0.4 0.2-6.2-0.6-12.8-1.8-6.6-1.2-14-2.5-16.5-3-2.5-0.5-10.1-1.9-17-3.1-12.2-2.1-12.5-2.1-13.8-0.3-0.7 1-1.7 1.9-2.2 1.9-0.5 0-11.8 7.9-25.1 17.5-13.3 9.6-24.8 17.8-25.5 18.2-0.8 0.5-1.7 0.6-2.2 0.3-0.4-0.3 8.5-14.2 40.3-61.4l6-2.7c3.3-1.5 22.9-10.4 43.5-19.9 20.6-9.5 45.8-21.1 56-25.8 10.2-4.7 19.3-8.6 20.2-8.6z"/>
		<path id="Path 3" class="s0" d="m205.3 237.1c1.5 0 2.7 0.2 2.7 0.6 0 0.5-5.6 4-12.3 8-6.7 3.9-20.9 11.4-31.5 16.7-10.5 5.3-19.4 9.5-19.7 9.3-0.2-0.1 6.2-6.9 29-30.2l14.5-2.1c8-1.2 15.7-2.2 17.2-2.3z"/>
		<path id="Path 4" class="s2" d="m205.3 240.1c0.4-0.1 0.7 0.2 0.7 0.6 0 0.5-6.7 7.5-15 15.8-8.2 8.2-15.2 14.7-15.5 14.2-0.3-0.4 1.3-4.3 3.5-8.7 2.2-4.4 3.7-8 3.2-8-0.4 0 4.5-3.1 10.8-6.9 6.3-3.8 11.8-7 12.2-7zm1267.3 8.2c2.9 0.2 3.1 0.6 21.7 45.2 10.4 24.7 18.8 45.4 18.8 46 0 0.5-0.6 0.3-1.3-0.5-0.8-0.8-10.6-16.8-21.7-35.5-16.4-27.4-20.5-33.6-21.1-32-0.5 1.1-4 20-7.9 42-3.9 22-7.3 40.2-7.5 40.5-0.3 0.3-0.7-0.6-0.9-2-0.3-1.4-1.4-24.1-2.6-50.5-1.2-26.4-1.8-48.2-1.5-48.5 0.4-0.3 5.2-1.5 10.8-2.7 5.6-1.2 11.5-2.1 13.2-2zm-1379.5 10.2c1.7 1.6 3 3.6 3 4.2 0 0.7-0.7 1.3-1.5 1.3-0.8 0-2.2-1.4-3-3-0.8-1.7-1.5-3.6-1.5-4.3 0-0.6 1.3 0.1 3 1.8z"/>
		<path id="Path 5" class="s0" d="m114.4 259c0.6 0 3 1.9 5.3 4.2 2.4 2.4 4.3 4.9 4.3 5.5 0 0.7-2.4 4.7-10.5 16.4l-7.3-0.1c-4.1 0-7.2-0.4-7.2-1 0-0.6 3.2-6.4 7.1-13 3.9-6.6 7.6-12 8.3-12z"/>
		<path id="Path 6" class="s2" d="m97.3 285h7.9c5.7 0 7.7 0.3 7.6 1.2-0.2 0.7-4.3 7.4-9.2 14.8-4.9 7.4-9.1 13.7-9.2 14-0.2 0.3-0.7 0.1-1.1-0.3-0.5-0.4 0.3-7.3 1.6-15.2zm-43.1 7c0.4 0 1.2 1.6 1.7 3.7 0.6 2.1 1.7 6.6 4.1 16.3h-2.5c-1.4 0-5.8 2.1-9.8 4.8-4 2.6-7.8 5.1-8.5 5.5-0.7 0.4 2.2-6.3 6.5-14.8 4.2-8.6 8-15.5 8.5-15.5zm134.2 36c0.3 0 10.8 3.4 23.3 7.5 12.5 4.2 23.3 7.9 24 8.3 0.8 0.4-6 9.7-20 27.3-19.5 24.4-21.9 27-29 31.7-4.2 2.8-7.9 5-8.1 4.9-0.2-0.1 2-17.8 4.9-39.2 2.9-21.5 5-39.4 4.8-39.8-0.3-0.4-0.2-0.7 0.1-0.7zm63.3 45.2c0.2 0.1-6.2 11.3-14.3 24.8-8.1 13.4-15.1 24.9-15.6 25.5-0.5 0.6-3.6-1.8-8.3-6.5-4.2-4.2-7.6-7.8-7.6-8.2-0.1-0.4 10.1-8.6 22.7-18.3 12.5-9.6 22.9-17.5 23.1-17.3zm657.4 23.8c0.5 0 0.9 4.9 0.9 11 0 6 0.2 11 0.5 11 0.3 0 8.5-2.3 18.2-5.1 9.8-2.7 18-4.7 18.3-4.4 0.3 0.3-0.3 5.4-1.3 11.3-0.9 5.8-8.2 56.3-30.8 213.7l15.6 39c8.5 21.4 15.8 39.6 16.2 40.3 0.5 0.7 6.2 3.5 12.8 6.3 6.6 2.7 18.5 7.7 26.5 11.1 8 3.3 20.1 8.4 27 11.2 6.9 2.9 18.8 7.9 26.5 11 7.7 3.2 19.2 8 37 15.5l3-1.8c1.6-1 26.7-16.5 55.7-34.5 29-17.9 53.1-32.7 53.5-32.7 0.4 0 2.8 8 5.2 17.8 2.4 9.8 4.8 19.2 6.1 24.3l22.7 0.1c16.5 0 22 0.3 19.8 1-1.7 0.6-10.4 3-36 9.6l-13-7.9c-7.2-4.3-13.6-7.7-14.3-7.6-0.7 0.2-7.1 10.6-14.2 23.3-7 12.6-12.5 23.3-12.2 23.7 0.4 0.4 12.5-1.6 53.4-9.7l30.6 10.1c16.9 5.6 31.2 10.6 31.9 11 0.9 0.6-1 4.5-14.5 26.9l-35.4 9.3c-19.4 5.1-37.6 10-45.3 12.1l-2.4 16.3c-1.3 8.9-2.5 17.5-3.1 21.8l-7.8-2.7c-7.3-2.4-8.3-3.2-30.3-24.8l-14.7-2.8c-8.1-1.6-16.6-3.1-18.9-3.5-2.2-0.4-4-0.5-3.8-0.2 0.1 0.2 4.8 1.8 10.5 3.5 5.6 1.6 10.4 3.2 10.6 3.5 0.2 0.2-2 8.6-4.7 18.5-2.8 9.9-4.9 18.1-4.7 18.2 0.1 0.1 10.4-3.1 22.8-7.3 12.4-4.1 22.6-7.5 22.7-7.4 0.2 0 0.3 0.4 0.3 1 0 0.5-6.8 11.1-15 23.5-8.3 12.3-15.5 22.5-16 22.5-0.6 0-8.9-4.7-18.5-10.3-9.7-5.6-17.8-10-18.1-9.7-0.2 0.2-2.9 12.2-5.9 26.5-2.9 14.3-5.3 26-5.2 26.1 0.1 0.1 17.8-1 39.4-2.5 21.5-1.4 39.5-2.3 40-1.9 0.4 0.5-1.6 16-4.6 34.5-2.9 18.6-5.4 33.9-5.5 34 0 0.1-7.1-2.1-15.6-4.9-8.5-2.8-15.6-5.2-15.7-5.2-0.1-0.1 0.9-7.6 2.2-16.6 1.4-9.1 2.5-16.9 2.5-17.3 0-0.4-0.5-0.7-1-0.7-0.6 0-5.4 6.6-20.7 29.5l2.6 25.1c1.4 13.9 2.4 25.5 2.1 25.8-0.3 0.4-3.5-2.4-7.1-6.2-3.6-3.7-9.5-9.9-13-13.8-3.5-3.9-16.1-17.5-27.9-30.4-11.8-12.8-33.5-36.4-74.9-81.5l-13.2-53c-10.3-41.6-13.6-53.5-15.3-55.1-1.2-1.2-12.2-9.5-24.6-18.6-12.4-9.1-29.5-21.6-38-27.8-8.5-6.3-15.7-11.5-16-11.7-0.3-0.2 4.3-11 10.2-24.1 5.9-13 10.6-23.8 10.5-24-0.1-0.1-14.8 2.1-32.7 4.8-17.9 2.8-40.6 6.4-50.5 8-9.9 1.6-18.3 2.6-18.6 2.2-0.3-0.4-4.1-12.7-16.1-53.7l-15.9-31.8c-14.7-29.4-15.8-31.8-14.2-33.1 1-0.8 10.6-6.4 21.3-12.6 10.7-6.3 24.2-14.2 30-17.6 9.8-5.9 10.6-6.2 12.1-4.6 0.9 0.9 14.2 20 29.5 42.4 15.3 22.4 28.2 40.4 28.5 40 0.3-0.4 10.8-57.4 23.3-126.7 12.5-69.3 23-127 23.3-128.3 0.2-1.2 0.9-2.2 1.4-2.2zm-656 19c0.5 0 0.9 14.6 0.9 35 0 27.3-0.3 35-1.3 35-0.7 0-5.9-7.5-11.7-16.7-5.8-9.2-11.3-18.2-14-23.3l12.6-15c6.9-8.3 13-15 13.5-15zm-42.9 25.8c0.4 0.4 1.7 4.3 2.8 8.7 1.1 4.4 2.5 8.7 3 9.7 0.9 1.5-2.6 3.6-29.3 16.8-16.6 8.3-30.4 14.8-30.7 14.4-0.3-0.4 3.5-4.4 8.5-8.9 4.9-4.5 17.1-15.7 26.9-24.8 9.9-9.1 18.3-16.2 18.8-15.9z"/>
		<path id="Path 7" class="s1" d="m772 451.7c1.4 0.2 8.6 1.4 16.1 2.6 7.5 1.2 13.9 2.4 14.1 2.7 0.3 0.3 1.6 18.7 5.6 81.5l-2.7 16c-1.6 9.8-3.1 16.1-3.9 16.3-0.7 0.1-5.6 2.8-11 6.1-5.3 3.2-18.5 10.9-29.2 17.1-10.7 6.2-20.3 11.9-21.3 12.6-0.9 0.8-1.9 1.1-2.1 0.7-0.2-0.5-7.5-25.8-16.2-56.3-8.7-30.5-16.3-55.7-16.9-55.9-0.6-0.2-0.6-0.6 0.2-1 0.7-0.3 2.3-6 3.7-12.6 1.3-6.6 2.2-12.5 2-13-0.2-0.5 9.3-3.6 21.3-6.9 12-3.2 25.4-6.8 29.8-8.1 4.4-1.2 9.1-2.1 10.5-1.8zm648.5 11.3c0.5 0.1 9.1 11.8 19 26.1 9.9 14.3 18.1 26.4 18.2 26.9 0.2 0.6-1.6 3.8-3.9 7.3-2.4 3.4-4.3 6.4-4.3 6.7 0 0.3-1.9 3.1-4.3 6.3-2.5 3.4-3.9 6.2-3.5 6.9 0.5 0.8 0.4 1-0.2 0.6-0.6-0.4-8.5 10.5-18.8 25.7-9.7 14.6-17.4 26.7-17 26.9 0.5 0.2 6.9-0.7 14.3-2 7.4-1.3 14.3-2.4 15.2-2.4 1.7 0 1.8 2.8 1.8 44.5 0 24.5-0.3 44.5-0.8 44.5-0.4 0.1-19.6-24.7-42.7-55-23.1-30.3-42.3-55-42.8-55-0.4 0-5.4 7.3-11 16.3-5.7 8.9-13.8 21.7-18 28.5-4.3 6.7-8 12.2-8.5 12.2-0.4 0-5.9-7.1-12.2-15.9-6.3-8.8-11.8-15.8-12.3-15.6-0.4 0.3-1-0.3-1.3-1.2-0.3-1-0.9-3.9-1.2-6.4-0.4-2.6-0.4-4.5 0-4.3 0.5 0.2 0.8 0.2 0.8-0.1 0-0.3 2.3-10.5 5-22.7 2.8-12.3 5-22.4 5-22.5 0-0.2-0.6-0.3-1.3-0.3-0.6 0-8 4.6-16.2 10.1-8.3 5.5-14.5 9.9-14 9.9 0.5 0-4.4 2.6-11 5.8-9.3 4.6-15 8.4-25.3 16.6-7.2 5.8-13.8 10.6-14.5 10.6-0.6 0-8.6 2.1-17.7 4.6-9.1 2.6-17 5.2-17.5 5.9-0.5 0.6-1.5 1-2 0.8-0.5-0.2-15.8 1.7-34 4.3-20.3 2.8-33.1 5-33.4 5.8-0.2 0.8-0.5 0.7-1-0.2-0.4-0.8-1.6-1.1-3.4-0.7-1.5 0.3-2.7 0.8-2.7 1.3 0 0.4-1 0.6-2.3 0.4-1.2-0.2-18 1.9-37.2 4.7-22.7 3.2-35.3 4.7-36 4-0.5-0.5-0.7-0.9-0.3-0.9 0.5 0-0.3-3.3-1.7-7.2-1.4-4-2.5-7.4-2.5-7.5 0-0.2 7.1-2.6 15.7-5.4 8.7-2.9 15.9-5.6 16-6 0.2-0.5 0.8-0.7 1.3-0.4 0.5 0.3 15.4-6.7 33-15.5 17.6-8.8 31.7-16.3 31.2-16.6-0.4-0.3 0.4-0.3 1.8 0.1 1.4 0.4 12.4-0.3 24.5-1.5 12.1-1.3 22.2-2.4 22.5-2.6 0.3-0.2 0.3-0.6 0-0.9-0.3-0.3-7.5-2.5-16-5-10.9-3.2-16.7-4.4-19.5-4.1-2.2 0.2-11.7 2.3-21 4.6-9.3 2.2-17.1 4-17.3 3.8-0.1-0.2 7.9-7.4 17.8-16 9.9-8.7 18-16.4 18-17 0-0.7 0.3-1 0.7-0.6 0.5 0.4 1.5-0.1 2.3-1.1 0.9-1.1 8.1-4.1 17.5-7.1 14-4.6 16.8-5.2 22-4.8 3.3 0.3 31.9 3.5 63.5 7.1 31.6 3.6 61.5 7.1 75.5 8.7l38-22.6c20.9-12.5 45-26.9 53.5-32.1 8.5-5.1 16-9.3 16.5-9.3zm-813.3 5.1c1-0.1 7.5 4.9 14.5 11.1 7.1 6.2 16.6 14.7 29.8 26.6l-9.3 11.8c-5.1 6.6-10.6 13.3-12.1 14.9-1.5 1.6-9.2 11.8-17.2 22.5-8 10.7-18.4 24.7-23.1 31-5.5 7.5-9.1 11.5-10.4 11.6-1 0-9.5 2.3-18.7 5-9.2 2.7-16.7 5.1-16.7 5.4 0 0.3-1.9 0.4-4.3 0.2-2.3-0.2-5.2-0.5-6.5-0.7-1.2-0.3-2-1-1.7-1.5 0.3-0.5-4-7.7-9.5-16-8.6-12.9-10.3-14.9-12.3-14.6-1.2 0.2-8.5 1.5-16.1 2.8-12.5 2.1-14.1 2.6-16.2 5.1-2.3 2.6-3.1 2.8-23.7 5.2-11.6 1.4-22.6 2.5-27.2 2.5l2.5-1.6c1.4-1 4.7-3.4 7.5-5.4 2.7-2 9.7-7 15.5-11 5.8-4.1 11.2-8.1 12.1-8.9 0.9-0.9 10.2-7.9 20.7-15.6 10.5-7.7 19.1-14.6 19.1-15.2 0.1-0.7 0.7-1.2 1.3-1 0.7 0.1 12.6-4.3 26.5-9.8 14.1-5.6 25.3-10.5 25.3-11.2 0-1-3.7-1.5-13.8-1.9-7.5-0.4-24.9-1.4-38.5-2.3-14.9-1-24.7-2-24.7-2.6 0.1-0.5 21.4-6.9 47.3-14.2 26-7.3 54.2-15.2 62.7-17.7 8.5-2.4 16.3-4.5 17.2-4.5z"/>
		<path id="Path 8" class="s2" d="m609.5 468h50.3c27.6 0 50.4 0.3 50.6 0.8 0.2 0.4-0.2 3.6-0.9 7.2-0.7 3.6-1.8 9.1-2.4 12.3-1.1 5.5-1.2 5.7-4.8 6.6-2.1 0.6-14.4 3.1-50.8 10.4l-16.5-14.4c-9-7.9-18.5-16.3-21-18.6zm-355.2 21.9c0.7 0 4.4 1.1 15.2 4.8l-12.5 12.6c-6.8 7-12.8 12.7-13.2 12.6-0.4 0 1.5-6.7 4.3-15 2.8-8.2 5.6-15 6.2-15zm223.5 14.1c0.1 0 1 0.3 2 0.9 0.9 0.5 13.7 1.6 28.2 2.4 14.6 0.9 31.6 1.9 37.8 2.4 6.3 0.4 11.2 1.2 11.2 1.7 0 0.6-11.4 5.5-25.2 11-13.9 5.5-26 9.9-26.8 9.8-0.8-0.2-8.7-1.4-17.5-2.8-8.8-1.4-16.7-2.5-17.5-2.5-1.2 0-2 3.6-3.8 16.8-1.3 9.2-2.5 17.7-2.5 18.9-0.1 1.5-3.3 4.4-11.2 9.9-6 4.3-13.2 9.4-16 11.5-2.7 2-6.2 4.5-10.6 7.4l-26.8-27 14.7-11.5c8-6.3 25.1-19.6 37.9-29.6 12.8-10 23.9-18.4 24.6-18.7 0.7-0.3 1.3-0.6 1.5-0.6zm894.3 17.1l10.2 5.8c5.6 3.2 14.3 8.1 28.2 16h-60l10.8-10.9zm-239.8 1.9c0.4 0 0.8 0.4 0.8 0.9 0 0.6-0.5 0.8-1 0.5-0.6-0.2-1 0-1 0.5 0 0.6-8.2 8.1-18.1 16.8-10 8.6-17.8 15.8-17.3 16 0.5 0.1 9-1.8 18.9-4.2 9.9-2.5 18.2-4.2 18.5-4 0.2 0.3-2.7 3.6-6.5 7.5-3.9 3.8-6.7 6.9-6.3 6.9 0.4 0-13.6 7.2-31.2 16-17.6 8.8-32.5 15.8-33 15.5-0.6-0.3-1-4.7-1.1-20l-5.2-7.8c-3.3-4.9-4.9-8.1-4.2-8.6 0.5-0.5 7-3.4 14.5-6.4 7.4-3 26.5-10.9 42.5-17.5 15.9-6.6 29.3-12 29.7-12.1z"/>
		<path id="Path 9" class="s0" d="m469.9 527c0.9 0 7.9 0.9 15.6 2 7.7 1.2 15 2.3 16.3 2.5 1.2 0.3 2.2 1.1 2.2 1.8-0.1 0.6-8.6 7.5-19 15.2-10.5 7.7-19.5 14.1-20.2 14.3-1 0.2-0.7-4 1.1-17.8 2-14.6 2.8-18 4-18z"/>
		<path id="Path 10" class="s2" d="m629.5 534.3c0.5 0.2 2.1 8.1 3.5 17.5 1.4 9.4 2.3 17.3 2 17.6-0.3 0.3-8.4 1.7-18 3.1-9.6 1.4-17.8 2.4-18.2 2.3-0.4-0.2 6.1-9.4 14.5-20.5 8.3-11.2 15.6-20.1 16.2-20zm666.3 4.7c0.6 0 1.2 0.1 1.2 0.3 0 0.1-2.2 10.2-5 22.5-2.7 12.2-5 22.4-5 22.7 0 0.3-0.6 0.2-1.4-0.2-0.8-0.5-5.2-5.5-9.8-11.3-4.6-5.8-8.9-11.4-9.5-12.5-1-1.8 0.3-2.9 13.6-11.7 8-5.4 15.2-9.8 15.9-9.8zm144.1 4.4l12.8 1.7c7 1 18 2.5 24.3 3.3 6.3 0.9 16.7 2.3 23 3.1 6.3 0.9 13 1.8 18 2.5v20.5l-20.6 18c-11.3 9.9-21.2 18.5-21.9 19-1.2 0.8 2.6 10.4 20.1 51.5 11.9 27.8 22 51.6 22.5 53 0.5 1.4 1.1 2.3 1.4 2 0.2-0.3 5.8-20.1 12.5-44 6.6-23.9 12.2-44 12.3-44.5 0.2-0.5 6.4 6.4 27.6 32l-2.8 7.5c-1.6 4.1-7.5 20.6-13.1 36.5-5.7 16-10.6 29.4-10.9 29.9-0.3 0.4-5-0.9-10.3-3-5.4-2.2-10-3.7-10.3-3.4-0.2 0.3 2.5 7.5 6.1 16 3.7 8.5 7.1 15.7 7.6 16 0.5 0.3 0.9 0.7 0.8 1-0.1 0.3 0.1 1.2 0.4 2 0.3 0.8 1.6 5.8 5.3 20.5l-31.6 7.9c-17.4 4.3-31.9 8.1-32.3 8.5-0.5 0.3 7 10.7 16.5 23.1 9.5 12.4 29.6 38.5 44.6 58 15.1 19.5 27.6 36 27.8 36.5 0.2 0.5-1.8 1.6-4.4 2.3-2.6 0.7-13.8 4-24.8 7.3-11 3.3-20.8 6.3-21.7 6.7-1.4 0.6 1.5 5.2 16.2 26.2 9.8 14 17.6 25.6 17.4 25.8-0.2 0.1-5.2-2.7-11.1-6.2-6-3.5-16.9-10-24.3-14.5-7.4-4.4-13.8-8.1-14.2-8.1-0.5 0-0.8 0.6-0.8 1.3 0 0.6 3.2 13.1 7.1 27.7 3.9 14.6 7.5 27.3 8 28.3 0.7 1.2 2.1 1.7 5.4 1.7 2.5 0 4.5 0.3 4.5 0.8 0 0.4-3.2 8.1-7.1 17.2-3.9 9.1-7.4 16.8-7.7 17.2-0.4 0.4-3.2-2.5-6.2-6.5-3.1-3.9-11.1-14.2-17.7-22.7-6.7-8.5-17.2-21.8-23.2-29.5-6.1-7.7-11.1-14.6-11.1-15.2 0-0.7 4.6-7.9 10.3-16 5.6-8.2 13.7-19.6 18-25.5 4.2-6 7.5-11.3 7.2-11.8-0.3-0.5-8.9-4.3-19.2-8.4-10.4-4.1-28-11.1-39.3-15.6-11.3-4.5-20.6-8.2-20.8-8.3-0.2-0.1 0.5-7 1.5-15.4 1.2-9.8 2.2-14.9 2.8-14.4 0.5 0.5 9 7 18.8 14.5 9.7 7.5 17.9 13.5 18.2 13.4 0.3-0.2-2.8-11.8-6.9-25.8-4.1-14-7.4-25.6-7.3-25.8 0.1-0.2 8.1 0.6 17.7 1.8 9.6 1.1 18.5 2.3 19.8 2.5 1.2 0.3 2.2 0.2 2.2-0.2 0-0.5-5.1-4-11.3-7.9-6.2-3.9-37.5-23.7-69.7-43.9-32.2-20.2-59.1-37.3-59.8-37.9-1.1-0.9 0.7-3.7 19.8-27.6h-10.5c-5.8 0-10.7-0.3-10.9-0.7-0.3-0.5-10.6-29.1-23.1-63.8-12.4-34.6-22.5-63.6-22.3-64.3 0.2-0.8 5.5 5.9 11.8 14.7 6.3 8.9 11.8 16.1 12.3 16.1 0.4 0 4.1-5.5 8.4-12.2 4.2-6.8 12.3-19.6 18-28.5 5.6-9 10.6-16.3 11.1-16.3 0.4 0 19.6 24.7 42.7 55 23.1 30.3 42.3 55.1 42.8 55 0.4 0 0.7-20 0.7-44.5 0-41.7-0.1-44.5-1.7-44.5-1 0-7.9 1.1-15.3 2.4-7.4 1.3-13.8 2.2-14.2 2-0.5-0.2 7-12.2 16.6-26.7z"/>
		<path id="Path 11" class="s0" d="m1136 549c0.8 0 8.5 2 17 4.5 8.5 2.5 15.7 4.7 16 5 0.3 0.3 0.3 0.7 0 0.9-0.3 0.2-10.4 1.4-22.5 2.6-12.1 1.3-22.9 2-24 1.6-1.8-0.6-1.2-1.5 5-7.6 3.8-3.9 7.6-7 8.5-7z"/>
		<path id="Path 12" class="s1" d="m1044.1 559.1l5 7.4c2.7 4.1 4.8 7.8 4.7 8.2-0.2 0.5-4.7 0.6-19.8-0.2l5.1-7.7z"/>
		<path id="Path 13" class="s2" d="m510.8 575.1c0.6-0.1 5.7 6.6 11.2 14.9 5.5 8.2 10 15.2 10 15.5 0 0.3-0.6 0.5-1.3 0.5-0.6 0-13.2-4.4-28-9.8-14.7-5.3-26.8-10.2-26.8-10.7 0-0.5 1.1-2 2.3-3.2 1.8-1.6 5.6-2.7 16.8-4.6 8-1.4 15.1-2.5 15.7-2.6z"/>
		<path id="Path 14" class="s0" d="m1517.7 575c0.2 0 6.3 12 26.9 53.5l-11.6 42c-6.4 23.1-12.1 43.4-13.8 48l-1-2.5c-0.5-1.4-10.7-25.1-44.2-103l3.7-3.3c2-1.7 11.8-10.3 21.7-18.9 9.9-8.7 18.2-15.8 18.3-15.8zm-1434.9 11c0.1 0-0.5 1.2-1.4 2.7-0.9 1.6-2.3 3.7-3.1 4.8-1.3 1.9-1.3 1.9-1.5-0.7-0.2-1.9 0.5-3.2 2.7-4.7 1.7-1.1 3.1-2.1 3.3-2.1z"/>
		<path id="Path 15" class="s2" d="m1214 592.1c0.8-0.1-5.5 6.9-14 15.4-8.5 8.5-15.8 15.1-16.1 14.7-0.4-0.4-1.6-3.6-2.8-7.2-1.2-3.6-2.1-8-1.6-13.3l16.5-4.8c9.1-2.6 17.2-4.8 18-4.8zm-1090.1 5.5c0.3 0.1-0.5 6-4.4 25.9l-12.8 0.2c-11.8 0.3-12.6 0.2-11.8-1.5 0.5-0.9 7.1-6.9 14.7-13.3 7.6-6.4 14-11.5 14.3-11.3zm455.2-0.5c0.4-0.1 0.5 0.6 0.3 1.4-0.2 0.8-10.3 13.6-22.4 28.5-12.1 14.9-22.2 26.9-22.5 26.7-0.2-0.1 1.9-10.6 10-46.6l17-5c9.4-2.7 17.3-4.9 17.6-5z"/>
		<path id="Path 16" class="s0" d="m75.8 598c0.1 0 0.2 21.5 0.2 95.5l-15.9-24c-15.9-24-15.9-24-14.2-26.6 0.9-1.5 7.9-12.2 15.6-23.8 7.7-11.6 14.1-21.1 14.3-21.1zm1099.7 5.3c2 0.2 3.1 0.8 3.2 2 0.2 1.2-2.3 3.5-17 13.2l-25.6-2.2c-14.1-1.2-25.8-2.5-26.1-2.8-0.3-0.3-0.3-0.7 0-0.9 0.3-0.2 14.5-2.4 31.5-4.9 17-2.5 32.3-4.4 34-4.4z"/>
		<path id="Path 17" class="s1" d="m1178.2 607.3l2.9 7.9c1.6 4.3 2.7 8.5 2.4 9.3-0.3 0.8-1.1 1.3-1.8 1-0.6-0.3-6.4 1.5-12.7 4-6.3 2.5-12.5 4.5-13.8 4.5-1.2 0-2.2-0.2-2.2-0.5 0-0.3 1.8-3.2 4-6.5 2.2-3.3 4-6.6 4.1-7.2 0-0.7 3.9-3.8 8.6-6.9z"/>
		<path id="Path 18" class="s2" d="m1023.3 608.5l2.4 6.8c1.3 3.7 2 6.9 1.6 7.1-0.5 0.3-9.1-2.7-19.3-6.5-10.2-3.9-18.7-7.2-19-7.5-0.3-0.3 7.3-0.4 34.3 0.1zm84.5 3.6c0.6-0.1 1.3 0.4 1.5 0.9 0.1 0.6 10.2 1.9 23.2 3 12.7 1.1 24.2 2 25.8 2 1.7 0 2.7 0.5 2.7 1.5 0 0.8-1.8 4.2-4 7.5-2.2 3.3-4 6.2-4 6.5 0 0.3 1 0.5 2.3 0.5 1.2 0 7.5-2 14-4.5 6.4-2.5 12-4.3 12.5-4 0.4 0.2-6 9.4-14.3 20.4-8.2 11-15.6 20-16.2 20.1-0.7 0-11.1-3-23-6.6-12-3.6-23.4-7-25.3-7.5-1.9-0.6-3.3-1.2-3-1.4 0.3-0.2 12-3.6 26-7.5 14-3.8 25.7-7.2 26-7.5 0.3-0.3 0.3-0.7 0-0.9-0.3-0.2-11.3-4.7-24.5-10-13.2-5.2-24.1-10-24.2-10.5-0.2-0.6 0.5-1.3 1.5-1.5 0.9-0.2 2.3-0.4 3-0.5zm-886.5 13.1c0.5 0.2 5.5 8.8 11.1 19.3 5.6 10.5 15 28.1 20.9 39.3 5.9 11.1 10.6 20.3 10.5 20.5-0.2 0.2-9.5 3.8-20.8 8-11.3 4.2-20.8 7.7-21.2 7.7-0.5 0-6.6-11.9-13.8-26.5-7.1-14.6-13-26.8-13-27.2 0.1-0.5 5.8-9.9 12.7-21.1 7-11.1 13.1-20.1 13.6-20z"/>
		<path id="Path 19" class="s0" d="m1352.8 650.4c1 0.3 9.6 1.9 19.2 3.6 9.6 1.7 22 4 27.5 5.1 5.5 1 10.1 2 10.2 2.1 0.2 0.2-8.2 9.9-18.5 21.6-10.3 11.8-19 21-19.3 20.5-0.3-0.4-5.2-12.3-10.7-26.3-5.6-14-10.2-25.9-10.1-26.3 0-0.5 0.8-0.6 1.7-0.3z"/>
		<path id="Path 20" class="s1" d="m1458.2 652c0.4 0 2.8 12.3 5.4 27.3 3.9 23.5 5.3 29.6 16.2 62.2l-12.5 32.5c-6.8 17.9-12.9 33.5-13.4 34.8-0.5 1.2-1.1 2.2-1.4 2.2-0.3 0-19.3-16.7-42.3-37.1-22.9-20.5-43.4-38.7-45.5-40.5-2-1.9-3.5-3.6-3.2-3.9 0.3-0.3 9.8 4.7 21.2 11.1 11.5 6.3 21.2 11.4 21.6 11.2 0.5-0.2 8.7-15.2 18.3-33.3 9.6-18.1 21.3-40.5 26.1-49.8 4.8-9.2 9.1-16.7 9.5-16.7zm-1301.1 6c0.4 0 3.5 7.8 6.8 17.2 3.3 9.5 7.8 22.4 14.1 39.8l-15.5 5.1-18.5-2.7c-10.2-1.4-18.6-2.7-18.6-2.8-0.1 0 6.8-12.8 15.3-28.4 8.5-15.5 15.9-28.2 16.4-28.2zm612.9 15.4c0.4 0.6 4 12.3 8.1 26.1 4 13.7 7.5 25.3 7.8 25.7 0.3 0.4 8.7-0.6 18.6-2.2 9.9-1.6 32.6-5.2 50.5-7.9 17.9-2.8 32.6-5 32.7-4.8 0.1 0.1-4.6 10.9-10.5 24-5.9 13-10.5 23.9-10.2 24.1 0.3 0.1 7.5 5.4 16 11.6 8.5 6.2 25.6 18.7 38 27.8 12.4 9.1 23.5 17.5 24.6 18.6 1.7 1.6 5 13.5 28.5 108.1l26.7 29.1c14.7 16 36.4 39.6 48.2 52.4 11.8 12.9 24.4 26.6 27.9 30.5 3.5 3.8 9.3 10 12.7 13.7 3.5 3.8 6.8 6.8 7.4 6.8 0.5 0 1 0.6 1 1.2 0 0.7-3.6 8.4-8 17.1-4.4 8.6-8 15.9-8 16.2 0 0.3 10 7.1 22.2 15.2 12.3 8.1 23 14.9 23.8 15 0.8 0.2 1.5 0.4 1.6 0.5 0 0.2 9.8 16.3 43.3 71.3l-23.7 7.8c-13 4.3-23.9 8-24.2 8.2-0.3 0.3 4.6 9.8 10.9 21.2 6.3 11.5 13.1 24.1 15.2 28.1 2.2 3.9 3.8 7.4 3.6 7.7-0.1 0.2-7.7-4.9-17-11.5-9.2-6.6-17.2-12-17.7-12-0.6 0-1 0.3-1 0.8 0 0.4-4.7 20.5-10.5 44.7-5.7 24.2-10.8 44.3-11.2 44.6-0.5 0.3-17.7 3.6-38.3 7.4-20.6 3.7-42.2 7.6-48 8.6-5.8 1-15.2 2.7-31.5 5.7l-33.5 20.7c-18.4 11.5-45.9 28.4-61 37.8-15.1 9.3-41.2 25.4-58 35.7-27.3 16.8-31.6 19.1-40.5 21.8-5.5 1.7-19.2 5.9-30.5 9.2-11.3 3.5-22.1 6.7-24 7.2-1.9 0.5-10.9 3.2-20 5.9-9.1 2.7-17.3 5.4-18.3 5.9-0.9 0.6-2.4 1-3.2 1-0.8 0-8.1-4-16.3-8.8-8.1-4.8-22.5-13.3-49.2-28.7l-2.9-9c-1.5-5-8.8-27.9-29.4-93l7.8-13c4.2-7.2 7.8-13.3 7.8-13.8 0.1-0.4-10.5-5.4-23.6-11.2-13-5.8-23.9-10.4-24.2-10.3-0.3 0.2-2.7 9.1-5.5 19.8-2.8 10.7-5 19.7-5 20 0 0.3-0.1 0.3-0.4 0-0.2-0.3-1.5-12.8-2.8-27.9-1.8-21.9-2.6-27.5-3.8-27.9-0.8-0.3-10.5 0.7-21.5 2.1-11 1.4-20.1 2.5-20.2 2.4-0.1-0.1-6.1-27.7-13.3-61.2-7.2-33.5-13-61.1-12.8-61.2 0.1-0.1 9.1 2 19.8 4.7 10.7 2.7 20.2 5 21 5 0.8 0 2.7-1.9 4.1-4.3 1.5-2.3 8.9-14.3 16.4-26.7 7.6-12.4 19.6-32 26.7-43.5 7-11.5 12.8-21.6 12.8-22.3 0-0.6 0.4-1.2 1-1.2 0.5 0 6.5-4.4 13.2-9.8 9.7-7.7 14-12 20.5-20.5 7.4-9.6 8.3-11.1 8.3-14.9 0-2.4 0.3-4 0.7-3.5 0.4 0.4 3.8-4.5 7.5-10.8 3.8-6.3 6.8-12 6.8-12.5 0-0.5 0.5-1.8 1-2.7 0.6-1 4.4-13 8.6-26.8 4.1-13.7 7.2-25.8 6.9-26.7-0.3-1-0.1-1.6 0.5-1.3 0.5 0.3 1.2-0.5 1.5-1.7 0.2-1.3 1.4-8.8 2.5-16.8 1.1-8 1.9-15.4 1.9-16.5-0.1-1.1 1.1-7.6 2.5-14.5 1.5-6.9 2.9-12.7 3.1-13 0.3-0.3 2.8 0.7 10.5 5l0.1-21.5 10.6-5c6.4-3 14.9-8.2 21.2-12.9 5.8-4.3 10.8-8.1 11.1-8.3 0.3-0.2-0.8-5.2-2.3-11.1-1.5-5.9-2.6-10.7-2.5-10.8 0.2 0 5.1-1.3 11-2.8 10.5-2.5 11.5-2.6 42.8-2.6 30 0 32-0.1 31.6-1.7-0.3-1-5.1-16.7-10.7-34.8-5.5-18.1-10.2-33.1-10.3-33.3 0-0.2-9.3 0.8-20.6 2.2-11.3 1.4-21.1 2.6-21.8 2.6-0.9 0-1.2 7.1-1.2 32 0 17.6-0.3 32-0.8 32-0.4 0-5.9-2-12.2-4.5-6.3-2.6-12.1-4.4-12.8-4.1-0.7 0.4-0.9 0.2-0.5-0.6 0.6-0.8 0.2-1-1.2-0.5-1.1 0.3-7 1.6-13.2 2.9-6.1 1.3-11 2.6-10.7 3 0.2 0.5-0.1 0.8-0.6 0.8-0.6 0-1-0.5-1-1 0-0.6-3.4-1-16.5-1l-6.4-17.3c-3.5-9.4-7.2-18.9-10.1-24.7l8-18.5c4.4-10.2 7.8-19 7.5-19.5-0.3-0.5-1.2-1-2-1-0.8 0-1.5-0.5-1.5-1 0-0.5-0.4-0.9-0.8-0.8-0.4 0.2-8.7-2.6-18.5-6.2-9.7-3.6-17.7-6.7-17.7-7 0-0.3 7.1-2.5 15.7-4.9 8.7-2.5 16.5-4.8 17.3-5.3 0.8-0.4 11.6-3.2 24-6.2 12.4-3.1 30.8-6.7 41-8.2 17.7-2.5 18.7-2.8 22.5-5.9 2.2-1.8 9.4-7.8 15.9-13.3 7.7-6.5 12.2-9.6 12.6-8.8z"/>
		<path id="Path 21" class="s2" d="m81.2 689c0.4 0 2.6 5.7 4.9 12.8 2.2 7 3.8 12.8 3.5 12.9-0.3 0.2-1.8-1.6-3.2-4-1.4-2.3-4.5-7-10.9-16.8l2.4-2.4c1.3-1.4 2.8-2.5 3.3-2.5z"/>
		<path id="Path 22" class="s1" d="m609 689c0.3 0 4.1 4.8 8.5 10.6 4.8 6.4 7.6 10.9 6.9 11.3-0.6 0.3-2.9 3.3-5.2 6.6-2.3 3.3-3.9 6.3-3.7 6.8 0.3 0.4-0.3 1.5-1.3 2.5-0.9 0.9-6.9 11.1-13.2 22.4-6.3 11.4-11.7 20.8-12 20.8-0.3 0 4-18.2 9.5-40.5 5.5-22.2 10.2-40.5 10.5-40.5z"/>
		<path id="Path 23" fill-rule="evenodd" class="s2" d="m607.7 690.5c0.2 0.5-4 18.3-9.3 39.5-5.3 21.2-9.7 39.2-9.7 40 0 0.8-0.3 2-0.8 2.5-0.4 0.5-3.2 9.5-6.1 19.8-2.9 10.3-5 19-4.6 19.3 0.5 0.2 10.1-0.7 21.5-2.1 11.5-1.4 20.9-2.5 20.9-2.3 0.1 0.2 1.1 7.3 2.3 15.8 1.2 8.5 2.4 16.6 2.7 18 0.4 2.1-1.3 4.6-10.3 15-6 6.9-21.8 25.1-35.1 40.5-14.4 16.6-24.3 28.8-24.3 30 0.1 1.1-1.3 19.3-2.9 40.5-1.6 21.2-3 38.5-3.2 38.6-0.2 0.1-10.7 3.6-23.3 7.8-12.7 4.2-23.3 7.6-23.8 7.6-0.4 0 1.6-5.5 4.3-12.3 2.8-6.7 5.1-12.7 5.3-13.3 0.1-0.6-6.6-10.2-14.8-21.3-8.3-11.1-15.1-19.6-15.3-18.9-0.1 0.7 4.1 17.5 9.4 37.3 5.2 19.8 9.8 36.9 10 38 0.3 1.6-5.2 6.6-27.6 24.8-15.4 12.5-28.3 22.6-28.6 22.4-0.3-0.1 5.1-11.6 24.6-50.7l-5.5-11c-3.8-7.5-6.3-14.3-8-21.5-1.4-5.8-2.5-11.6-2.5-13 0-1.4-0.3-2.5-0.8-2.5-0.4 0-14.9 7-32.2 15.6-17.3 8.5-31.6 15.4-31.7 15.2-0.1-0.2 1.1-19 2.6-41.8 1.5-22.8 2.6-41.7 2.4-42-0.2-0.3-8.7 7.8-18.8 18-10.1 10.2-18.6 18.3-18.9 18-0.2-0.3-8.9-18-19.4-39.5-10.4-21.5-35.4-72.9-55.6-114.3-20.1-41.3-36.4-75.5-36.1-76 0.3-0.4 14.6 1.7 31.8 4.6 17.2 2.9 31.2 5.4 31.3 5.5 0.1 0.1 10.9 20.6 24 45.5 22.5 42.6 24.1 45.3 27.4 46.6 1.9 0.7 18.9 6.9 72 26.1l14.2-14c7.9-7.7 47.6-46.2 88.2-85.5 40.7-39.3 74.1-71 74.3-70.5zm-287.9 0c0.5 0.5 17 20.6 72.4 88l-23.3 0.2c-12.9 0.2-23.5 0.2-23.6 0-0.1-0.1-5.4-18-11.8-39.7-6.4-21.7-12.3-41.8-13.1-44.5-0.8-2.8-1.1-4.5-0.6-4zm306.7 19.6c0.5 0 6.8 1 13.8 2.2 7.1 1.2 12.8 2.7 12.8 3.2 0 0.5-7.4 3.1-16.5 5.7-13.3 3.8-17.1 4.6-21.6 2.8l4.2-6.3c2.3-3.4 4.6-6.5 5.2-6.9 0.6-0.4 1.5-0.8 2.1-0.7zm-449 5.3c0.5 0.2 4.2 5.6 8.2 12.2 3.9 6.5 6.9 12 6.7 12.1-0.2 0.2-7.2-4.2-30.4-19.7l7.2-2.4c4-1.4 7.7-2.3 8.3-2.2z"/>
		<path id="Path 24" class="s0" d="m617 725c0.3 0 8.8 3.1 19 7 10.2 3.8 20.2 7.6 22.3 8.4 2.7 1.2 3.6 2.1 3.2 3.3-0.2 1-3.8 9.4-15.2 35.8l-13.7 13.5c-7.5 7.4-13.8 13.6-13.9 13.7-0.1 0.1-9.2 1.3-20.2 2.8-11 1.4-20.5 2.4-21 2.1-0.6-0.2 1.1-7.9 4.2-18.8 5.1-18.3 5.2-18.3 18.3-41.8 7.2-12.9 13.9-24.1 14.8-24.8 0.9-0.6 1.9-1.2 2.2-1.2z"/>
		<path id="Path 25" class="s1" d="m1356 726l-10.6 13.3c-8.5 10.6-10.3 13.4-9.2 14.3 0.7 0.6 27.6 17.7 59.8 37.9 32.2 20.2 63.5 40 69.7 43.9 6.2 3.9 11.3 7.4 11.3 7.9 0 0.4-1 0.5-2.3 0.2-1.2-0.2-10.1-1.4-19.7-2.5-9.6-1.2-17.6-2-17.7-1.8-0.1 0.2 3.2 11.8 7.3 25.8 4.1 14 7.2 25.6 6.9 25.8-0.3 0.1-8.5-5.9-18.3-13.4-9.7-7.5-18.2-14-18.7-14.5-0.6-0.5-1.6 4.6-2.8 14.4-1 8.4-1.7 15.3-1.5 15.4 0.2 0 9.5 3.8 20.8 8.3 11.3 4.5 28.9 11.5 39.2 15.6 10.4 4.1 19 7.9 19.3 8.4 0.3 0.5-3 5.8-7.3 11.7-4.2 6-12.3 17.4-18 25.6-5.6 8.1-10.2 15.2-10.2 15.7 0 0.6-3.6 1.1-8.4 1.2-4.6 0.2-8.2 0-8-0.5 0.2-0.4-1.9-0.7-4.6-0.7-2.8 0-5 0.5-5 1 0 0.5-0.5 0.8-1 0.5-0.5-0.3-2.1 1.7-3.5 4.5-1.4 2.7-2.8 5-3.3 5-0.4 0-3-1.3-5.7-2.9-4.8-2.7-5.1-3.1-9.5-18.1h-32l-22-11 5.7-4.7c3.2-2.6 9.5-7.8 14-11.7 4.5-3.9 8-7.3 7.8-7.6-0.2-0.3-9.1 3.8-19.7 9.1-10.6 5.3-20.5 9.8-22 10-1.5 0.2-2.9 0.1-3-0.3-0.2-0.3-9.8 0.2-21.3 1.3-11.5 1-26.2 2.1-44 2.9l0.3 3.7c0.2 2.1 0.5 4.6 0.8 5.5 0.2 1.1-0.2 1.8-1.1 1.8-0.8 0-7.7-0.9-15.3-2-7.5-1.1-15.2-2.2-20.2-3v-29c0-22.5-0.3-29-1.3-29-0.6 0-17.9 10-38.2 22.2-20.3 12.2-37.5 22.7-38 23.4-0.5 0.7-1.6 1.3-2.3 1.4-0.6 0-1.2 0.3-1.2 0.8 0 0.4-1.9 0.6-4.3 0.4-2.3-0.2-20.4 0.8-40.2 2.2-19.8 1.4-36.1 2.4-36.2 2.3-0.1-0.1 2.3-11.9 5.2-26.2 3-14.3 5.7-26.2 6-26.5 0.2-0.3 8.3 4.1 18 9.8 9.6 5.6 18 10.2 18.5 10.2 0.5 0 7.7-10.1 16-22.5 8.3-12.4 15-23 15-23.5 0-0.5-0.1-1-0.3-1-0.1 0-10.3 3.4-22.7 7.5-12.4 4.1-22.6 7.4-22.8 7.2-0.2-0.1 1.9-8.3 4.7-18.2 2.8-9.9 4.9-18.2 4.7-18.5-0.2-0.3-5-1.9-10.6-3.5-5.6-1.6-10.4-3.2-10.5-3.5-0.2-0.3 1.6-0.2 3.9 0.2 2.2 0.4 10.7 2 33.5 6.3l11.3 11.1c10.7 10.6 11.7 11.3 26.8 16.4l0.4-2.7c0.2-1.6 1.4-10.1 5.1-35.3l5-1.4c2.7-0.8 20.9-5.6 75.7-20.1l7.8-13c4.3-7.1 7.5-13.3 7.2-13.7-0.4-0.3-14.7-5.3-31.7-10.9-17-5.7-31.2-10.3-31.5-10.2-0.3 0.1-0.5-4.9-0.5-11.1 0-9.2 0.3-11.2 1.5-11.3 0.8-0.1 8-1.8 16-3.8 8-2 16.5-4.3 19-5.1 2.5-0.8 22-3.9 43.5-6.9 34.6-5 39.6-5.9 44-8.3 4.7-2.5 5.7-2.7 26.5-2.2z"/>
		<path id="Path 26" class="s0" d="m1524.6 729c0.5 0 5.3 1.6 10.7 3.7 8.5 3.3 9.7 4.1 9.3 5.8-0.3 1.1-1.6 7.1-2.8 13.3-1.3 6.2-2.6 11.2-3 11.2-0.5 0-0.6-0.5-0.3-1 0.3-0.5 0.1-1.1-0.4-1.3-0.5-0.1-3.7-6.7-7.1-14.7-3.4-8-6.4-15.1-6.8-15.8-0.3-0.6-0.1-1.2 0.4-1.2zm-345.5 8c0.5 0 6 3 12.2 6.6 6.1 3.7 12 7.6 13 8.8 1.4 1.7 1.8 3.8 1.7 11.1 0 5-0.4 9.5-0.8 10.1-0.4 0.7-12.2 3.5-26.2 6.3-14 2.8-25.8 4.8-26.1 4.4-0.4-0.5 5.2-11.3 12.3-24.1 7.1-12.7 13.4-23.2 13.9-23.2z"/>
		<path id="Path 27" class="s2" d="m775.5 758l10.3 33.2c5.7 18.3 10.5 34.1 10.7 35 0.5 1.7-1.5 1.8-31.8 1.8-30.9 0-32.6 0.1-41.7 2.5-5.2 1.4-10.1 2.5-10.7 2.5-0.7 0-2.4-3.4-3.8-7.5-1.4-4.1-2-7.5-1.5-7.5 0.5 0 6.1 2 12.3 4.5 6.1 2.5 11.5 4.5 12 4.5 0.4 0 0.7-14.4 0.7-64l10.3-1.1c5.6-0.7 14-1.7 18.7-2.4 4.7-0.7 9.9-1.3 14.5-1.5zm-129.6 23.2c0.9 0.2 4.4 8.2 16.6 40.8h7.7c7.2 0 8.1 0.2 11 2.9 1.8 1.6 9.9 8.5 18 15.5 8.2 6.9 15.3 12.6 15.8 12.6 0.5 0 1 0.6 1 1.3-0.1 0.6-4.8 4.7-10.5 9-5.8 4.2-15.2 10.1-21 13-5.7 2.8-10.6 5-10.9 4.7-0.2-0.3-1.4-6.1-2.5-13-1.2-6.9-2.4-13.6-2.7-15-0.5-2-0.3-2.4 1-1.7 0.9 0.4 6.1 4.4 11.6 9 5.5 4.5 10.4 7.9 10.8 7.5 0.4-0.4-5.5-10-13.1-21.3-7.5-11.3-13.9-21.2-14.2-22-0.3-0.8-1-1.5-1.5-1.5-0.5 0-4.5 10.7-16.7 47.5l-16.1-32-5.3-38 9.8-9.8c5.3-5.4 10.4-9.6 11.2-9.5z"/>
		<path id="Path 28" class="s0" d="m1543.3 785.1c1.6-0.1 1.7 2.3 1.7 75.4l10.3 10.5c5.7 5.8 20.1 22.5 53.7 64v17.5l-15.5 23c-12.3 18.2-17.4 24.9-34 41.5l-28.8 0.5 30.3 20-0.6 4c-0.4 2.2-5.2 34.7-10.8 72.2-5.6 37.4-10.3 68.4-10.6 68.7-0.3 0.3-12.1-0.6-26.2-2.1-14.1-1.6-26-2.6-26.3-2.3-0.3 0.3 2.9 7.6 15 32l-16.3 16.5-14.3-12.7c-7.9-6.9-25.9-22.6-39.9-34.8-14.3-12.4-25.6-21.6-25.8-20.8-0.1 0.7 0.9 13.7 2.2 28.8 1.4 15.1 2.4 27.6 2.3 27.8-0.1 0.2-9.7-0.9-21.2-2.3-11.5-1.5-21.3-3-21.7-3.3-0.3-0.4-3.6-10.8-7.3-23.2-3.6-12.4-6.8-22.7-7-23-0.3-0.3-0.7-0.3-0.8 0-0.2 0.3 0.7 16.7 2 36.5 1.2 19.8 2.1 36.1 1.8 36.2-0.3 0.2-11-4.4-23.7-10.1-12.8-5.6-23.4-10-23.5-9.7-0.1 0.3 3.3 19.3 7.6 42.1 4.3 22.8 7.6 41.8 7.4 42.2-0.1 0.5-11-5.2-47.8-25.8l-18.5 13.3c-10.2 7.3-18.8 13.2-19.2 13.3-0.5 0-4.3-4.8-8.5-10.6-5.3-7.1-8.6-10.7-10.3-11.1-1.4-0.3-3.2-1.1-4-1.8-0.8-0.6-11.4-5.1-23.5-9.9-12.1-4.9-22.3-9.1-22.7-9.4-0.4-0.4 6.5-11.4 15.3-24.5 8.7-13 15.8-23.9 15.7-24.1-0.2-0.2-6.2-3.9-26.7-16.1l-21.2-34.5c-16.6-27.1-24.7-41.5-54.2-100.5l-5.4-53 9.9-14.8c5.4-8.1 10.3-14.7 10.8-14.7 0.5 0 1 0.3 1 0.7 0 0.5-1.1 8.2-2.5 17.3-1.3 9.1-2.3 16.5-2.2 16.6 0.1 0.1 7.2 2.4 15.7 5.2 8.5 2.9 15.6 5 15.7 4.9 0-0.1 2.4-15.3 5.3-33.7 2.9-18.4 5.4-34.1 5.6-34.8 0.3-0.8 1.6-1 4.2-0.6 2 0.3 12.9 1.5 44.7 5l5 25.1c2.8 13.8 5.2 25.4 5.5 25.7 0.3 0.3 5-9.3 10.5-21.5 5.5-12.1 10.5-22.1 11-22.1 0.5 0 5.5 10.1 11 22.5 5.5 12.5 10.3 22.3 10.6 21.9 0.3-0.4 2.8-8.5 5.5-18 2.7-9.5 5.1-17.2 5.4-17.2 0.3 0 6.8 3.2 14.5 7 7.7 3.8 14.1 6.7 14.3 6.5 0.1-0.3-3.8-5.6-8.7-11.8-4.9-6.1-8.7-11.4-8.6-11.7 0.2-0.3 10.9 1.7 47.3 9.5l4.9-9.8c3.8-7.8 5.3-9.9 7.3-10.3 1.4-0.3 3-0.7 3.5-0.8 0.5-0.2 8.2 3.4 33 16.4h32.5l2.3 7.6c2.1 7.4 2.4 7.8 7.2 10.5 2.8 1.6 5.3 2.9 5.8 2.9 0.4 0 1.8-2.3 3.2-5 1.4-2.8 2.7-5 3-5 0.3 0 6.5 5 13.8 11 7.2 6.1 13.3 10.8 13.5 10.5 0.1-0.3-3.4-5-7.8-10.5-4.4-5.5-8-10.2-8-10.5 0-0.3 3.5-0.5 15.5-0.6l12 15.2c6.6 8.4 17.3 22 23.9 30.3 6.5 8.3 14.1 18.1 17 21.8 2.8 3.7 5.4 6.4 5.8 6 0.3-0.4 3.8-8.1 7.7-17.2 3.9-9.1 7.1-16.8 7.1-17.3 0-0.4-2-0.7-4.5-0.7-3.3 0-4.7-0.5-5.4-1.8-0.5-0.9-4.1-13.6-8-28.2-3.9-14.6-7.1-27.1-7.1-27.8 0-0.6 0.3-1.2 0.8-1.2 0.4 0 6.8 3.7 14.2 8.1 7.4 4.5 18.3 11 24.3 14.5 5.9 3.5 10.9 6.3 11.1 6.1 0.2-0.1-7.6-11.7-17.4-25.7-14.7-21-17.6-25.6-16.2-26.2 0.9-0.4 10.7-3.4 21.7-6.7 11-3.3 22.2-6.6 24.8-7.3 2.6-0.7 4.6-1.8 4.4-2.3-0.2-0.5-12.5-16.8-27.4-36-14.8-19.3-34.7-45-44.1-57.3-9.5-12.2-17.3-22.7-17.4-23.4-0.2-0.7 11.1-4 30.2-8.9 16.8-4.2 31.3-7.8 32.3-7.8z"/>
		<path id="Path 29" class="s1" d="m624.6 801.3c0.1 0.1 1.4 8.5 2.9 18.7 1.5 10.2 2.8 18.7 3 19 0.1 0.3-1 1.5-2.6 2.8-1.6 1.2-2.9 1.9-3 1.5 0-0.5-1.2-9-5.4-37.3l2.4-2.5c1.3-1.3 2.5-2.3 2.7-2.2z"/>
		<path id="Path 30" class="s0" d="m705.1 817.1c0.4-0.1 0.5 0.4 0.3 0.9-0.2 0.5-0.1 1 0.3 1 0.5 0 1.8 3.2 3.1 7.2 1.2 4 3.3 11.7 4.7 17 1.4 5.5 2.1 9.8 1.5 9.8-0.5 0-8.4-6.4-17.5-14.3-9.1-7.8-16.8-14.8-17-15.5-0.4-0.8 3.1-1.9 11.7-3.6 6.8-1.3 12.6-2.4 12.9-2.5z"/>
		<path id="Path 31" class="s2" d="m1383.9 840c0.6 0 5.7 3.6 11.3 8 5.7 4.4 10.6 8 11 8 0.5 0 2.6-2.6 8.9-11.5l-0.7 8c-0.3 4.4-0.8 8.2-1 8.5-0.2 0.3-1 0.2-1.6-0.2-0.7-0.4-2.3-1.4-3.6-2.3-2.2-1.5-2.4-1.2-10.5 10-4.5 6.4-8.5 11.5-9 11.5-0.4 0-0.7-0.2-0.7-0.5 0-0.3-0.9-8-2-17.3-1.1-9.2-2.3-17.9-2.6-19.4-0.4-1.7-0.2-2.8 0.5-2.8zm-152.2 64c1 0 1.3 6.5 1.3 58l3.2 0.5c1.8 0.3 9.5 1.4 17 2.5 7.6 1.1 14.5 2 15.3 2 0.9 0 1.3-0.7 1.1-1.8-0.3-0.9-0.6-3.4-1.1-9.2l11.5-0.5c6.3-0.3 20.9-1.4 32.5-2.4 11.5-1.1 21.1-1.9 21.3-1.8 0.1 0.1-2 4.9-10 21.2l-23.5-5c-12.9-2.8-23.6-4.8-23.8-4.5-0.1 0.3 3.7 5.6 8.6 11.7 4.9 6.2 8.8 11.5 8.6 11.8-0.1 0.2-6.5-2.7-14.2-6.5-7.7-3.8-14.2-7-14.5-7-0.3 0-2.7 7.7-5.4 17.2-2.7 9.5-5.2 17.6-5.5 18-0.3 0.4-5.1-9.4-10.6-21.9-5.5-12.4-10.4-22.6-10.9-22.7-0.5 0-5.5 9.9-11 22.1-5.6 12.3-10.3 22-10.6 21.7-0.3-0.3-2.8-11.9-10.6-50.9l-22.7-2.5c-16.3-1.8-22.7-2.8-22.5-3.7 0.2-0.7 17.2-11.3 37.8-23.7 20.6-12.4 38.1-22.6 38.7-22.6zm-599 16c1 0.1 6.6 1.1 12.5 2.3 5.8 1.2 10.9 2.4 11.3 2.7 0.3 0.3-0.3 7.7-1.5 16.5-1.2 8.8-2.5 16.9-2.9 18-0.7 1.6-1.7 0.3-5.7-7.8-2.7-5.3-5.1-9.7-5.4-9.7-0.3 0-4.1 11.8-16.4 52.5l-10.5 11c-5.8 6-16.5 17.8-23.6 26.2-7.2 8.3-13.2 15-13.5 14.7-0.3-0.3 3.1-22.6 7.4-49.7 4.4-27.1 8.2-49.5 8.5-49.9 0.3-0.3 10.9-1.8 23.6-3.2 12.6-1.4 23.3-2.6 23.7-2.6 0.5 0-1.5-4.5-4.2-10-2.8-5.5-5-10.2-5-10.5 0-0.3 0.8-0.5 1.7-0.5zm745.8 12.8c0.6 0.3 0.4 1-0.5 1.7-0.8 0.8-6.9 5.9-13.5 11.4-6.6 5.6-12.6 10.1-13.3 10.1-0.6 0-3.2-1-5.7-2.3-2.5-1.2-4.5-2.4-4.5-2.7 0.1-0.3 8.3-4.6 18.3-9.5 10-5 18.6-8.9 19.2-8.7z"/>
		<path id="Path 32" class="s1" d="m481.9 954.5c0.4 0.5 5.5 7.3 11.3 15 5.7 7.7 12.2 16.5 18.6 25l-5.4 13.3c-3.5 8.5-5 13.2-4.1 13.3 1 0 1 0.1 0 0.5-0.8 0.2-1.3 2-1.3 4.1 0 2.1-0.2 3.6-0.4 3.3-0.3-0.3-4.8-16.7-10.1-36.5-5.2-19.8-9.5-36.7-9.5-37.5 0-1 0.3-1.1 0.9-0.5z"/>
		<path id="Path 33" class="s2" d="m1433 978c2.8 0 4.9 0.3 4.8 0.8-0.2 0.4 3.4 5.3 8 10.9 4.5 5.7 8.1 10.5 8 10.8-0.2 0.3-6-4.2-13.1-10-7-5.8-12.7-11-12.7-11.5 0-0.5 2.2-1 5-1zm144.2 23.7c0.4 1 1.6 7.9 2.8 15.3 1.2 7.4 2 13.6 1.8 13.8-0.2 0.1-3.8-4.4-15.8-20.3l5.2-5.3c4.5-4.5 5.4-5 6-3.5z"/>
		<path id="Path 34" class="s1" d="m1566.3 1011c0.6 0 4.4 4.8 15.9 21.5l-7.9 7.7c-4.3 4.3-7.9 7.6-8 7.5-0.2-0.1-1.4-7-2.9-15.2-1.4-8.3-2.7-15.2-3-15.5-0.2-0.3 0.8-1.7 2.3-3.3 1.5-1.5 3.1-2.7 3.6-2.7z"/>
		<path id="Path 35" fill-rule="evenodd" class="s2" d="m632.8 1017.1c0.6-0.1 1.2 0.4 1.2 0.9 0 0.6-3.1 6.3-6.9 12.8-5 8.5-7.1 11.3-7.7 10.2-0.4-0.8-1.8-5.4-3.1-10.2-1.7-6.7-2-8.9-1-9.3 0.6-0.2 4.6-1.3 8.7-2.4 4.1-1 8.1-2 8.8-2zm913.2-0.1c8.3 0 15 0.3 15 0.8 0 0.4 1.1 7 2.4 14.7 1.3 7.7 6.1 27.7 10.6 44.5 5.3 19.6 9 31.6 10.4 33.5 1.2 1.7 3.6 5.3 8.6 13l-5.6 19c-3 10.5-5.6 19.1-5.7 19.2-0.1 0.1-9.4 4.7-20.7 10.3-11.3 5.5-20.8 10-21 9.8-0.3-0.2 4-30.9 9.6-68.3 5.6-37.4 10.4-69.8 11.4-76l-15-10c-8.3-5.5-15.1-10.1-15-10.2 0-0.2 6.8-0.3 15-0.3zm-227.3 5c0.2 0 9.4 5.7 20.6 12.7 11.1 6.9 20.6 12.9 21 13.2 0.5 0.3-3.7 10.9-9.3 23.6-5.6 12.7-10.4 23.4-10.8 23.8-0.4 0.5-5.2 0.3-10.7-0.3-5.5-0.6-15.2-1.8-21.5-2.5-6.3-0.8-20.5-2.6-31.5-3.9-11-1.4-20.5-2.6-21-2.6-0.5 0 13.4-14.4 31-32 17.6-17.6 32.1-32 32.2-32zm-783.7 21.5c0.8 0.2 9.6 2.5 19.5 4.9 9.9 2.5 18.7 4.6 19.5 4.6q1.5 0 1.4 2.8c-0.1 1.5-0.2 2.9-0.4 3.2-0.1 0.3-0.2 0.7-0.2 1 0.1 0.3-0.8 3.8-3.8 15l5.5 16.8-9.1 14.9c-5 8.1-14.6 23.8-21.4 34.8-6.8 11-15.9 26-20.4 33.3-4.7 7.7-8.7 13.2-9.6 13.2-0.8 0-10.3-2.3-21-5-10.7-2.7-19.6-4.8-19.8-4.7-0.2 0.1 5.6 27.7 12.8 61.2 7.2 33.6 13.2 61.1 13.3 61.2 0.1 0.1 9.2-0.9 20.2-2.4 11-1.4 20.7-2.4 21.5-2.1 1.2 0.4 2 5.9 3.8 27.4 1.2 14.8 2.2 27.4 2.2 27.9 0 0.6 0.2 0.8 0.4 0.5 0.3-0.3 2.8-9.3 5.6-20 2.8-10.7 5.3-19.6 5.5-19.7 0.3-0.2 11.2 4.4 24.3 10.2 13 5.8 23.6 10.8 23.6 11.2-0.1 0.5-3.7 6.6-15.7 26.8l15.8 50c8.7 27.5 16.1 50.6 16.4 51.3 0.4 0.9-1 0.8-5.4-0.6-3.3-1-22.9-7.1-81-25.3l-17.2-25.2c-9.4-13.9-25.2-36.9-52.7-77.2l-10.3-31-29.1-45.2c-16.1-24.9-29.2-45.9-29.2-46.5 0-0.7 12.2-7 27.2-13.9 15-7 30.6-14.2 41.9-19.4l-27.1-38 48-31.5v-27.7c0-22.5 0.2-27.5 1.2-26.5 0.7 0.7 5.4 13.7 10.3 28.9 5 15.2 9.5 27.8 10 28 0.6 0.2 5.7-15 11.5-33.7 8.4-27.3 10.7-33.9 12-33.5zm578.7 46.7c8.3 16.6 15.2 30.6 15.3 31.1 0 0.4-0.6 0.6-1.2 0.4-0.7-0.1-11.3-6.9-23.5-15-12.3-8.1-22.3-14.9-22.3-15.2 0-0.3 3.2-6.9 7.1-14.7 3.9-7.9 7.6-14.9 8.3-15.6 0.9-1.1 4.4 5.1 16.3 29zm-682.4 6.9c8.3 5.6 15.3 10.2 15.4 10.3 0.1 0.1-5.4 3.5-12.3 7.6-6.8 4.1-12.8 7.5-13.2 7.5-0.3 0-1.7-6.7-2.9-15-1.2-8.2-2.2-16.2-2.2-17.8 0-2.6 0.4-2.4 15.2 7.4z"/>
		<path id="Path 36" class="s1" d="m511.7 1119.7c0.1 0.4 1.4 9.8 2.7 20.8 1.4 11 2.3 20.1 2 20.3-0.3 0.1-9.7 0.1-41.2-0.3l18.1-20.8c10-11.4 18.2-20.4 18.4-20zm1084.2 5.9c1.4 0.9 5 3.3 13.2 8.9l-0.1 10.7c0 10.4-0.1 10.8-2.3 11.2-1.2 0.3-7.2 1.4-13.2 2.6-6.1 1.1-11.1 2-11.1 1.8-0.1-0.2 2-8 4.8-17.3 2.7-9.3 5.1-17.6 5.5-18.4 0.5-1.1 1.1-1 3.2 0.5z"/>
		<path id="Path 37" class="s2" d="m711.1 1156.8c0.3 0.4 4 13.5 8.2 29.2 4.3 15.7 7.6 28.6 7.5 28.7-0.2 0.1-6.8-5.2-14.8-11.8-8-6.7-15.2-12.7-16-13.5-1.3-1.3-0.6-3.3 6.5-17.4 4.4-8.8 8.2-15.6 8.6-15.2zm695.9 1.3c0.8 0.8 12.3 10.8 25.5 22.3 13.2 11.4 30.4 26.4 38.3 33.2 12.3 10.7 14.1 12.7 13.5 14.7-0.3 1.2-3 7.2-5.8 13.2-2.8 6-8.5 18.3-12.6 27.3-4.8 10.6-7.9 16.3-8.9 16.2-0.8 0-6.7-0.9-13-2-6.3-1-14.4-2.4-18-3-3.6-0.6-11.7-2-18-3-6.3-1.1-12.2-2-13-2-0.8 0-4.2 3-7.4 6.8-3.2 3.7-12.9 14.5-21.5 24q-15.6 17.3-17.1 16.8c-0.8-0.3-5.3-1.2-10-2-4.7-0.8-20.4-3.8-35-6.6-14.6-2.7-33.5-6.4-42-8-8.5-1.6-17.2-3.3-19.3-3.7-2-0.5-3.6-1.1-3.5-1.5 0.2-0.4 8.4-6.5 36.3-26.4l23.8 13.3c13 7.3 23.9 13 24 12.6 0.2-0.5-3.1-19.5-7.4-42.3-4.3-22.8-7.7-41.8-7.6-42.1 0.1-0.3 10.7 4.1 23.5 9.7 12.7 5.7 23.4 10.3 23.7 10.2 0.3-0.2-0.6-16.5-1.8-36.3-1.3-19.8-2.2-36.2-2-36.5 0.1-0.3 0.5-0.3 0.8 0 0.2 0.3 3.4 10.6 7 23 3.7 12.4 7 22.8 7.3 23.2 0.4 0.3 10.2 1.8 21.7 3.3 11.5 1.4 21.1 2.5 21.2 2.3 0.1-0.2-0.9-12.5-2.3-27.3-1.3-14.8-2.3-27.8-2.2-28.9 0.2-1.6 0.5-1.6 1.8-0.5zm-655.5 10.1c4.4 4.1 14.9 13.6 23.3 21.1 8.3 7.5 14.6 13.7 14 13.7-0.7 0-10-4.5-39.8-20l0.5 3.8c0.3 2 0.3 3.2 0 2.7-0.2-0.5-1.8-7-3.5-14.2-1.6-7.3-2.9-13.6-2.8-13.9 0.2-0.4 3.9 2.7 8.3 6.8zm736.8 9.8c1.2 0 12.8 1.1 25.7 2.5 12.9 1.4 23.6 2.8 23.8 3 0.1 0.3-7.7 6.1-17.3 13-9.6 6.9-17.9 12.5-18.5 12.5-0.5 0-4.4-6.7-8.5-15-4.1-8.2-7.5-15.2-7.5-15.5 0-0.3 1-0.5 2.3-0.5zm-954.4 11.5c0.5 0.5 7.7 13.4 16 28.5 8.2 15.1 15.1 28 15.3 28.6 0.2 0.6-8 8.2-18.2 16.9-11.2 9.6-18.6 15.3-18.8 14.4-0.1-0.8 0.9-20.3 2.3-43.4 1.4-23.1 2.5-42.9 2.5-44 0-1.3 0.3-1.7 0.9-1zm638.6 4.5c1.1 0.1 7.6 3.5 14.5 7.6 6.9 4.2 12.6 7.8 12.8 8 0.1 0.2-6.8 10.9-15.4 23.7-8.6 12.7-15.6 23.6-15.7 24.1-0.1 0.4 10 4.9 22.5 10 12.5 5 23.3 9.7 24 10.5 1.1 1.1 0.8 1.2-1.7 0.7-1.7-0.3-15.2-2.6-30-5.1-14.8-2.5-27-4.7-27.1-4.8 0-0.1-2.2-4.2-4.8-9.2-2.7-5-9.8-18.1-16-29.3-6.1-11.1-10.9-20.4-10.6-20.6 0.3-0.3 10.6-3.8 23-8 12.4-4.2 23.4-7.6 24.5-7.6z"/>
		<path id="Path 38" class="s1" d="m502.8 1302c0.4 0 7 2.1 14.7 4.6 7.7 2.6 14.3 4.9 14.6 5.3 0.4 0.3-4 7.6-9.7 16.1-6.3 9.5-10.5 14.9-10.8 14-0.3-0.8-2.5-9.7-5-19.8-2.5-10-4.6-18.7-4.6-19.2 0-0.5 0.3-1 0.7-1zm-4.5 55c0.5 0 4.7 2.2 9.5 4.8 4.9 2.7 22.3 12.4 38.8 21.6 16.5 9.3 31.1 17.6 32.5 18.4 2.5 1.5 2.3 1.6-13.5 9.4-8.8 4.4-16.3 7.6-16.6 7.1-0.4-0.4-11.1-13.4-23.9-28.8-12.8-15.4-24.2-29-25.4-30.3-1.2-1.2-1.8-2.2-1.4-2.2z"/>
	</g>
</svg>