<svg version="1.2" xmlns="http://www.w3.org/2000/svg" viewBox="0 0 1192 1500" width="1192" height="1500">
	<title>marxo-svg</title>
	<style>
		.s0 { fill: #ffffff } 
		.s1 { fill: #7f7f7f } 
		.s2 { fill: #000000 } 
	</style>
	<g id="Layer 3">
		<path id="Path 0" class="s0" d="m613.5 0.4c5.5 0.1 11.9 1.7 29 7 12.1 3.7 33.9 10.3 48.5 14.7 14.6 4.4 33.7 10.2 42.5 12.9 8.8 2.7 25.9 7.8 38 11.5 19.1 5.7 22.9 7.2 28.5 11.1 3.6 2.5 9 6.3 17.5 12.5l25.5-1c14-0.6 36.8-1.3 75.5-2.2l17.5 13.1c9.6 7.2 23.8 17.7 45.5 33.7l8.9 19.4c4.9 10.7 13.1 28.4 18.1 39.4 5.1 11 18.3 39.8 49.7 108l-11.6 29.8c-6.4 16.3-11.6 30.1-11.6 30.7 0 0.6 9.1 12.8 20.3 27.3 11.2 14.4 33 42.6 48.5 62.7 15.5 20.1 29.9 38.3 31.9 40.5 2.8 3 9 6.7 23.3 13.9 10.7 5.4 19.6 9.9 19.7 10 0.2 0.1 1 7.7 1.9 17.1 1.6 16 1.6 17.7-0.1 29-1.3 9-2.9 15.1-6.5 24.5-2.6 6.9-7.8 20.8-18.3 49.5l-7.6 7c-4.2 3.9-13.4 12.2-20.3 18.5-9.6 8.7-12.4 11.8-11.5 12.6 0.7 0.6 9.5 5.9 19.7 11.8 10.2 5.9 18.7 10.6 19 10.6 0.3 0 6.6 14.5 27.5 64.5l1.6 23c0.8 12.6 1.4 23.2 1.2 23.5-0.3 0.3-6.4-1.1-13.6-3-13.2-3.4-13.2-3.5-19.7-9.5-3.6-3.4-8.8-8.2-11.5-10.6-2.8-2.5-15.3-13.9-28-25.4-12.7-11.4-23.3-21-23.7-21.4-0.3-0.3-2-11.2-3.7-24.1-1.7-12.9-3.1-24.3-3.1-25.3 0-1.6 1.8-1.7 44.4-2.2l-22.2-9.5c-12.2-5.2-22.1-9.7-22.1-10 0-0.3 3.5-3.4 7.7-7 4.2-3.6 15-13 24.1-20.9 9.1-7.9 16.7-14.6 16.8-15 0.2-0.3-3.6-1.4-8.5-2.3-4.8-0.9-22.9-4.4-40.2-7.8-17.3-3.4-40.1-7.8-50.6-9.8-10.6-2-19.6-4.1-20-4.6-0.5-0.4-4.4-15.1-8.6-32.5-4.3-17.4-7.8-32.2-7.8-32.9 0-0.6 8.2-7.3 18.3-14.8 10-7.5 18.8-14.2 19.5-14.8 1.1-0.9-3.7-11.8-24.9-56.1-14.4-30.3-30.6-64.2-36-75.5-5.4-11.3-21.4-44.7-61.4-127.9l-53.3-55c-30.7-31.8-53.9-55.1-55-55.1-0.9 0-8.7 0.7-17.2 1.5-8.5 0.8-22.9 2.1-32 3-9.1 0.8-32.9 3.1-53 5-20.1 2-36.6 3.6-36.8 3.8-0.1 0.1 2.7 11.2 6.3 24.7 3.6 13.5 6.8 24.8 7.2 25.2 0.5 0.3 17.4 4.3 37.8 8.7 20.4 4.5 37.5 8.1 38 8.1 0.5 0.1-6.2 3.7-15 8.1-8.8 4.4-16.4 8.4-16.8 8.7-0.4 0.4 0.6 17.8 2.3 38.7 1.6 20.9 3 38.7 3 39.5-0.1 0.8 4.7 5.8 10.7 11 5.9 5.2 12.4 10.9 14.4 12.5 2 1.6 18.1 15.6 35.9 31 17.7 15.4 33.2 28.8 34.4 29.7 1.1 0.9 1.9 1.8 1.6 2-0.3 0.2-16.3 8.2-35.5 17.7-19.3 9.6-35.6 17.8-36.3 18.2-0.9 0.7 1.5 4.9 8.8 15.9 5.5 8.3 9.9 15 9.7 15-0.1 0-29.2 9.7-64.7 21.5-35.5 11.9-64.8 21.9-65.1 22.3-0.4 0.4-1.4 10.8-3.9 45.7l5.1 13.5c2.8 7.4 7.3 22.4 10 33.3 2.7 10.8 5.8 21.6 6.8 24 1.3 2.7 4.2 18.6 14.8 88.2l-21 35.5c-11.5 19.5-21.8 37.4-22.8 39.8-1.3 2.8-2.4 4-3.4 3.7-0.8-0.3-5.7-3.3-10.8-6.7-7.7-5.1-11.1-6.7-20.7-9.4-6.3-1.8-11.5-3.2-11.6-3.1 0 0.1-4.5 5.3-10 11.5-5.4 6.2-10.2 11-10.5 10.5-0.3-0.4-9.5-17.7-20.4-38.3-10.9-20.6-23.4-44.3-27.8-52.5-7.6-14.4-7.9-15.1-6.1-16.6 1.1-0.9 17.5-12.9 71.4-51.9v-118l-3.3 0.5c-1.7 0.2-14 0.7-27.2 1-13.2 0.3-42.9 1.2-66 2-23.1 0.8-57.5 2-111 3.7l-43.5 38.2c-23.8 20.9-48.7 42.7-67 58.6l1.4 3.7c0.7 2.1 10.5 27.7 21.6 56.8 11.1 29.1 20.4 53.1 20.6 53.3 0.2 0.1 9.4-5.8 20.4-13 11-7.3 19.9-13.4 19.7-13.4-0.1-0.1-10.3-4.5-22.7-9.9-12.4-5.2-23-10-23.5-10.6-0.6-0.6-2.4-14.2-4.1-30.2-1.7-16.1-3-29.3-3-29.4 0.1-0.1 18.2 2.7 40.3 6.3 22.2 3.5 41.1 6.4 42 6.4 1 0 9.9-4.5 37.8-19.8l19-1.6c10.5-0.9 19.3-1.6 19.7-1.6 0.5 0 0.8 0.7 0.8 1.5 0 0.8-6.5 22.5-14.6 48.3-8 25.7-14.4 46.8-14.2 46.8 0.2 0.1 2.5-0.2 5.3-0.6 2.7-0.5 13.5-2.5 24-4.4 10.5-2 20-3.8 23.5-4.6v54l-6.3 3.4c-3.4 1.8-18.3 10.2-33.2 18.6-14.9 8.4-31.7 18-37.5 21.3-5.8 3.2-13.3 7.6-23.1 13.2l2.4 2.5c1.3 1.4 11 11.8 21.5 23.3 10.6 11.4 19.2 21 19.2 21.5 0 0.4-2.7 6.8-6.1 14.2-3.7 8.1-7.5 18.7-9.6 26.5-2.8 10.8-3.4 14.6-3.4 22.8 0.1 9.1-0.1 9.9-2.5 12.5-1.4 1.5-8 9.4-14.7 17.5-6.7 8.2-12.2 15.3-12.2 15.9 0 0.6 8.3 3 18.5 5.3 10.2 2.4 32 7.3 48.5 11.1 16.5 3.7 31.1 6.9 32.5 7 1.4 0.1 8.8 1 16.5 2 7.7 1 14.2 2 14.5 2.3 0.3 0.3 2.7 1.7 5.5 3 2.7 1.3 16.5 7.6 30.5 14.1 14 6.5 40.4 18.6 58.5 27 18.1 8.3 33.3 15.5 33.7 15.8 0.4 0.4-4.4 7.3-22.2 30.2l21.2 21.5c11.7 11.9 21.5 21.6 21.8 21.5 0.3 0 1.3-3.9 2.3-8.7 1-4.9 5.5-26.6 18.3-87.8l17.9 19.7c9.9 10.8 18.1 19.6 18.3 19.5 0.2-0.1-1.9-10.9-4.5-23.9-2.7-13-4.4-24.1-4-24.5 0.4-0.4 7 0 28.2 2.6l14-7.1 36.7 26.9c20.1 14.7 37 26.6 37.4 26.3 0.4-0.3 8-8.2 16.8-17.5 8.8-9.3 19.9-21.2 33.6-35.5l5.9 10.8c3.2 5.9 13.3 24.2 22.6 40.7 9.2 16.5 17 30.5 17.5 31 0.5 0.6 1.6-4 2.5-10.5 0.9-6.3 2.4-16.8 5-35.1l54.7-28.2c30.2-15.5 54.8-28.5 54.8-28.9 0-0.5-6.2-7.4-13.8-15.5-7.5-8-17.9-19.2-23-24.7-5.1-5.6-9.2-10.9-9.2-11.9 0-0.9-0.5-1.9-1-2.2-0.5-0.3-0.8-1-0.5-1.5 0.3-0.5-3.7-14.4-8.9-30.8-5.2-16.3-9.4-29.8-9.3-30 0.1-0.1 11.8 1.2 25.9 3 17 2.2 26 3 26.6 2.3 0.5-0.5 2.4-20.6 4.1-44.5 1.8-23.9 3.5-43.6 3.7-43.8 0.2-0.1 7.8 4.6 16.9 10.5 9.1 6 21.7 14.2 28 18.3 6.3 4.1 18.4 12 42.2 27.5l6.5 32-5.1 20c-2.8 11-5.3 20.1-5.6 20.2-0.3 0.2-5.8-1.5-12.3-3.6-6.4-2.1-23-7.8-36.7-12.5-13.8-4.7-25.3-8.5-25.8-8.4-0.4 0.2 8.8 4.7 20.5 10 11.7 5.3 33 14.9 47.3 21.4 25.5 11.5 26.3 11.9 40.5 22.9 8 6.1 17.3 13.3 20.8 16 5.3 4.2 6.1 5.1 4.5 5.7-1 0.4-10.1 2.6-20.3 4.8-10.2 2.3-19.2 4.3-20 4.6-1 0.3 2.8 4.8 25.8 27.9l-16.7 56 6.4 21c3.6 11.5 6.5 21.3 6.5 21.8 0 0.4-10.5-11.2-23.3-25.8-12.7-14.6-23.3-26-23.5-25.3-0.1 0.7-2.4 36.4-5.1 79.3-4.7 75.9-4.8 78.3-3.4 91 1 9.4 1.4 24.3 1.3 54-0.1 22.5-0.2 41.1-0.3 41.3-0.1 0.1-9.4-1.8-20.7-4.4-11.3-2.5-20.8-4.7-21.3-5-0.4-0.2-1.5 2-2.6 4.9-1 2.8-4.1 11.4-11.6 32.7l-13-0.1-17 23.2-2.5-3.1c-1.4-1.7-5.7-6.8-9.5-11.5-3.8-4.6-7.5-8.2-8-8.1-0.5 0.1-5.4 7.7-20.7 33.1l-28.1 17.2c-15.5 9.4-32.6 19.8-47.6 28.8l-3.1 8.5c-1.6 4.7-7.8 22.8-13.8 40.3-5.9 17.5-11.2 31.6-11.7 31.4-0.5-0.2-5.5-3.6-11-7.4-5.5-3.8-18.3-12.7-28.5-19.8-10.2-7.1-20.5-14.3-23-16-2.5-1.7-16.4-11.4-57.5-39.9l-24-6.3c-13.2-3.5-26.9-7-30.5-8-4.4-1.1-10.8-4.3-20-9.8-7.4-4.5-17.7-10.8-32.2-20l-32.8 33-1.5 9c-0.9 5-1.8 9.7-2 10.5-0.2 0.8-5.5 3.8-11.7 6.7-6.2 2.8-21.4 9.7-33.8 15.3-18.2 8.2-25.7 10.9-39.5 14.6-9.4 2.6-25.8 7-36.5 9.9-10.7 2.9-22.6 6-33.5 8.8l-9.5-6.8c-5.2-3.8-13.7-9.9-18.8-13.7-5.7-4.3-16.4-10.4-47.7-26l-10.6-17.1c-5.9-9.5-17.9-29.1-26.9-43.7-8.9-14.6-16.3-26.6-16.4-26.7 0-0.2-8.7-3-19.1-6.4-10.5-3.4-23.1-7.4-28-8.9-5-1.6-13.2-4.1-27.5-8.5l-3.1-10c-1.7-5.5-6-16.7-9.6-25-3.5-8.2-11.7-26.9-18.1-41.5-6.4-14.6-12.5-27.3-13.7-28.3-1.1-1-8.1-4.8-29-15.4l-10.2-26.4c-5.7-14.5-10.3-26.9-10.2-27.4 0-0.5 1.5 2 3.4 5.8 1.9 3.7 3.9 6.7 4.5 6.7 0.5 0 5.2-2 10.2-4.6 5.1-2.5 9.2-5.1 9-5.7-0.2-0.7-3.3-9.3-13.4-37.2l10-159-13.3-36.8-19-16.7c-10.5-9.1-22.6-19.8-34.8-30.5l-12.9 3.3c-7 1.7-13.1 3-13.6 2.8-0.4-0.2-7.8-17-16.6-37.2-8.7-20.3-16.2-37.3-16.5-37.7-0.3-0.5-8.7-0.1-18.6 0.7-9.9 0.9-18.2 1.3-18.5 1-0.3-0.3-1-16.8-1.7-36.7-0.6-19.9-1.2-41.8-1.3-61.2l36-42.5-13-84 8.2-9.3c4.6-5.1 17.3-19.3 48.3-53.9l33.8-100.3-6.8-27.3 8.9-19.3c4.9-10.7 23.2-45.7 40.8-77.9 17.6-32.2 35.7-65.1 48.3-88l10.8-8.3c6-4.5 27.8-21.2 48.5-37 20.8-15.9 46-35.2 56.2-43.1 10.2-7.8 33.6-25.7 52-39.8 18.4-14.1 43.2-33.1 76.5-58.6l7-0.6c3.9-0.4 11-1.1 16-1.6 5-0.6 20.5-2.1 34.5-3.5 14-1.4 34.5-3.4 45.5-4.5 11-1.1 27-2.6 35.5-3.5 8.5-0.9 16.4-1.7 17.5-1.9 1.1-0.2 5.1-0.3 9-0.2z"/>
		<path id="Path 1" fill-rule="evenodd" class="s1" d="m800.3 114.1c3.6-0.1 4.6 0.8 110.2 110l25.8 53.7c14.2 29.5 30.2 62.9 35.6 74.2 5.4 11.3 21.6 45.3 36 75.5 21.2 44.3 26 55.2 24.9 56.1-0.7 0.6-9.5 7.3-19.5 14.8-10.1 7.5-18.3 14.2-18.3 14.8 0 0.7 3.5 15.5 7.8 32.9 4.2 17.4 8.1 32.1 8.6 32.5 0.4 0.5 9.4 2.6 20 4.6 10.5 2 33.3 6.4 50.6 9.8 17.3 3.4 35.4 6.9 40.3 7.8 4.8 0.9 8.6 2 8.5 2.3-0.2 0.4-7.8 7.1-16.9 15-9.1 7.9-19.9 17.3-24.1 20.9-4.2 3.6-7.7 6.7-7.7 7 0 0.3 9.9 4.8 44.3 19.5l-22.2 0.3c-20.4 0.2-22.2 0.3-22.2 1.9 0 1 1.4 12.4 3.1 25.3 2.4 18.5 3.4 23.8 4.7 25 1 0.8 13.5 12.1 27.7 25 14.3 12.9 29.1 26.4 33 30 3.8 3.6 7 6.9 7 7.4 0 0.5-3.6 2.9-8 5.3-4.4 2.5-10.7 6-20 11.1l-17.5-1.4c-9.6-0.8-18.4-1.4-19.5-1.2-1.1 0.2 6.6 1.7 36.4 6.3l-9.9 18c-5.5 9.9-10.5 18-11.2 17.9-0.7-0.1-11.2-6.6-23.3-14.6-12.1-7.9-28.7-18.9-37-24.3-8.2-5.4-17.4-11.3-20.2-13.2-2.9-1.8-5.5-3.2-5.7-3-0.2 0.1-1.9 19.8-3.7 43.7-1.7 23.9-3.6 44-4.1 44.5-0.6 0.7-9.6-0.1-26.6-2.3-14.1-1.8-25.8-3.1-25.9-3 0 0.2 4.1 13.8 9.3 30.3 5.2 16.5 9.2 30.1 8.9 30.2-0.3 0.2-1.1-0.4-1.7-1.3-0.7-0.8-2-2.3-2.8-3.3-0.8-0.9-2.7-3.2-4.1-5.1-1.4-1.9-3.2-4.2-4-5-0.8-0.8-2.6-3.1-4.1-5-1.4-1.9-3.4-4.4-4.5-5.5-1-1.1-3.1-3.8-4.8-6-1.6-2.2-8.7-11.1-15.7-19.8-7-8.6-12.8-16.2-12.8-16.7 0-0.5 1.2-2.3 2.8-3.8 1.5-1.6 5.8-6.2 9.6-10.3 3.8-4 9.7-10.4 13-14 3.4-3.6 9-9.7 12.6-13.5 3.6-3.9 10.6-11.4 15.5-16.9 5-5.4 10.8-11.7 13-14 2.2-2.3 6.5-6.9 9.6-10.1 3-3.3 5.8-6.4 6.2-6.9 0.3-0.5 0.1-5.3-0.4-10.5-0.5-5.2-1.2-11.8-1.5-14.5-0.2-2.8-0.7-7-0.9-9.5-0.3-2.5-0.7-7.2-1-10.5-0.3-3.3-0.8-8.7-1.2-12-0.4-3.3-0.5-6.7-0.4-7.5 0.2-0.8 0.5-1.6 0.7-1.8 0.2-0.1 1.6 0.7 3.2 1.7 1.5 1.1 3.8 2.4 5.2 3.1 1.4 0.6 3.4 1.6 4.5 2.3 1.1 0.7 3.8 2.4 6 3.7 2.2 1.4 4.9 3.1 6 3.7 1.1 0.7 6.7 4.1 12.5 7.7 5.8 3.6 11.1 6.6 11.8 6.6 0.6 0 1.3 0.4 1.5 0.8 0.1 0.4 2.9 2.4 6.2 4.4 5.1 3.1 6 3.4 6.3 2 0.2-0.9-0.5-2.8-1.5-4.2-0.9-1.4-3.3-5.4-5.1-9-1.9-3.6-4.9-8.8-6.6-11.5-1.7-2.8-3.7-6.1-4.4-7.5-0.7-1.4-3.1-6-5.5-10.2-2.3-4.2-4.6-8-5-8.5-0.5-0.4-1.5-2.2-2.3-3.8-0.8-1.6-2.4-4.7-3.7-6.8-1.2-2.1-3.9-7-6.1-11-2.1-4-4.2-7.7-4.6-8.2-0.5-0.5-2.3-3.7-4-7-1.8-3.3-3.8-6.7-4.6-7.5-0.7-0.8-1.4-2-1.4-2.5 0-0.5-2.4-5-5.2-10-2.8-5-5.7-9.7-6.3-10.5-0.7-0.8-1.5-3.5-1.9-6-0.3-2.5-0.8-7.6-1.1-11.5-0.3-3.9-0.8-9.3-1-12-0.2-2.8-0.7-7.7-1-11-0.3-3.3-0.7-8.7-1-12-0.3-3.3-0.7-8.9-1-12.5-0.3-3.6-0.8-8.3-1-10.5-0.2-2.2-0.7-8.3-1-13.5-0.3-5.2-0.8-10.6-1-12-0.3-1.4-0.7-5.9-1-10-0.3-4.1-0.8-9.8-1-12.5-0.2-2.8-0.7-8.4-1-12.5-0.3-4.1-0.8-9.5-1-12-0.3-2.5-0.7-7-1-10-0.2-3-0.7-8.4-1-12-0.2-3.6-0.8-9.6-1.2-13.5-0.4-3.9-0.6-7.4-0.4-8 0.1-0.6 0-2.2-0.4-3.8-0.3-1.7-1.3-2.9-2.7-3.3-1.3-0.4-3-1.2-3.8-1.9-0.8-0.7-4.2-2.7-7.5-4.5-3.3-1.7-7.7-4.1-9.7-5.3-2-1.2-13-7.6-24.4-14.2-11.5-6.6-21.4-12.1-22.1-12.3-0.8-0.1-1.2 0.7-1.1 2 0 1.3-0.2 6.4-0.6 11.3-0.4 4.9-0.9 11.7-1.1 15-0.2 3.3-0.7 9.1-0.9 13-0.3 3.9-0.8 10.6-1.1 15-0.3 4.4-0.8 10.7-1 14-0.2 3.3-0.7 10.3-1 15.5-0.4 5.2-0.9 9.7-1.1 10-0.2 0.3-5.5-1-11.7-2.8-6.2-1.8-11.9-3.4-12.7-3.6-0.8-0.1-3.1-0.7-5-1.4-1.9-0.6-4.6-1.3-6-1.6-1.4-0.2-3.8-0.9-5.5-1.6-1.7-0.6-3-1.1-3-1 0 0.1-3.2-0.7-7-1.8-3.8-1.2-8.1-2.3-9.5-2.6-1.4-0.2-4.3-1.1-6.5-1.9-2.2-0.8-5.3-1.7-7-2.1-1.7-0.3-6.8-1.6-11.5-3-4.7-1.4-9.6-2.7-11-2.9-1.4-0.2-3-0.6-3.5-1-0.5-0.3-5.2-1.7-19.5-5.7l-5.7 3.1c-3.2 1.8-6.5 3.7-7.3 4.4-0.8 0.6-2.2 1.5-3 1.9-0.8 0.4-2.9 1.5-4.6 2.4-1.7 0.9-14.3 8.4-28 16.5-13.7 8.2-25.8 15.4-26.9 16-1.1 0.6-3.8 2.3-6 3.6-2.2 1.4-6 3.6-8.5 5-2.5 1.3-6.4 3.6-8.7 5.2-2.4 1.6-4.6 2.9-5 2.9-0.5 0-3 1.5-5.8 3.3-2.7 1.8-5.7 3.6-6.5 4-0.8 0.4-2.8 1.6-4.5 2.6-1.6 1.1-5.2 3.2-8 4.6-2.7 1.5-5.5 3.1-6 3.6-0.5 0.4-2.6 1.6-4.5 2.6-1.9 1-4.8 2.8-9.2 5.8l0.7-8c0.4-4.4 1.2-15 3-39l53-17.7c29.2-9.8 58.5-19.6 77.5-25.8l-10-15c-7.3-11-9.7-15.2-8.7-15.9 0.6-0.4 17-8.6 36.2-18.2 19.3-9.5 35.2-17.5 35.5-17.7 0.3-0.2-0.5-1.1-1.6-2-1.2-0.9-16.7-14.3-34.4-29.7-17.8-15.4-33.9-29.4-35.9-31-2-1.6-8.5-7.3-14.4-12.5-5.9-5.2-10.8-10.2-10.7-11 0-0.8-1.4-18.6-3-39.5-1.7-20.9-2.7-38.3-2.3-38.7 0.4-0.3 8-4.3 16.8-8.7 8.8-4.4 15.5-8 15-8.1-0.5 0-17.6-3.6-38-8.1-20.3-4.4-37.3-8.4-37.7-8.7-0.5-0.4-3.7-11.7-7.3-25.2-3.6-13.5-6.4-24.6-6.2-24.7 0.1-0.2 16.6-1.8 36.7-3.8 20.1-1.9 43.9-4.2 53-5 9.1-0.9 22.6-2.2 30-2.9 7.4-0.8 15.2-1.4 17.3-1.5zm260 170.9c1 2.5 12 29 24.4 59 12.4 30 26.8 64.9 32.1 77.5 5.2 12.6 12.1 29.5 15.4 37.5 3.2 8 5.6 14.6 5.3 14.7-0.3 0.2-1.8-1.4-3.3-3.5-1.6-2-15.4-19.9-30.7-39.7-15.3-19.8-37-47.8-48.2-62.3-11.2-14.4-20.4-26.6-20.5-27.1-0.1-0.5 4.9-13.7 11.1-29.3 6.2-15.6 11.6-29 11.9-29.8q0.6-1.5 2.5 3z"/>
		<path id="Path 2" class="s2" d="m911.4 382.2c0.6 0.2 10.5 5.7 22 12.3 11.4 6.6 22.4 13 24.4 14.2 2 1.2 6.4 3.6 9.7 5.3 3.3 1.8 6.7 3.8 7.5 4.5 0.8 0.7 2.5 1.5 3.7 1.9 1.5 0.4 2.5 1.6 2.8 3.4 0.4 1.5 0.5 3.2 0.4 3.7-0.2 0.6 0 4.1 0.4 8 0.4 3.9 0.9 9.9 1.2 13.5 0.3 3.6 0.8 9 1 12 0.3 3 0.7 7.5 0.9 10 0.3 2.5 0.8 7.9 1.1 12 0.3 4.1 0.8 9.8 1 12.5 0.2 2.8 0.7 8.4 1 12.5 0.3 4.1 0.7 8.6 1 10 0.2 1.4 0.7 6.8 1 12 0.3 5.2 0.8 11.3 1 13.5 0.2 2.2 0.7 6.9 1 10.5 0.2 3.6 0.7 9.2 1 12.5 0.3 3.3 0.7 8.7 1 12 0.3 3.3 0.8 8.3 1 11 0.2 2.8 0.7 8.1 1 12 0.3 3.9 0.8 9 1.1 11.5 0.4 2.5 1.2 5.2 1.9 6 0.6 0.8 3.5 5.5 6.3 10.5 2.8 5 5.2 9.5 5.2 10 0 0.5 0.7 1.7 1.4 2.5 0.8 0.8 2.8 4.2 4.6 7.5 1.7 3.3 3.5 6.5 3.9 7 0.5 0.5 2.6 4.3 4.7 8.2 2.2 4 4.9 8.9 6.1 11 1.3 2.1 2.9 5.2 3.7 6.8 0.8 1.6 1.8 3.4 2.3 3.8 0.4 0.5 2.7 4.3 5 8.5 2.4 4.2 4.8 8.8 5.5 10.2 0.7 1.4 2.7 4.8 4.4 7.5 1.7 2.8 4.7 7.9 6.6 11.5 1.8 3.6 4.2 7.6 5.1 9 1 1.4 1.7 3.3 1.5 4.2-0.3 1.4-1.2 1.1-6.3-2-3.3-2-6.1-4-6.3-4.4-0.1-0.4-0.8-0.8-1.5-0.8-0.6 0-5.9-3-11.7-6.6-5.8-3.6-11.4-7-12.5-7.7-1.1-0.6-3.8-2.3-6-3.7-2.2-1.3-4.9-3-6-3.7-1.1-0.7-3.1-1.7-4.5-2.3-1.4-0.7-3.7-2-5.3-3.1-1.5-1-2.9-1.8-3.1-1.6-0.2 0.1-0.5 0.9-0.7 1.7-0.1 0.8 0 4.2 0.4 7.5 0.4 3.3 0.9 8.7 1.2 12 0.3 3.3 0.7 8 1 10.5 0.2 2.5 0.7 6.8 0.9 9.5 0.3 2.8 1 9.3 1.5 14.5 0.5 5.2 0.7 10 0.3 10.5-0.3 0.5-3.1 3.6-6.1 6.9-3.1 3.2-7.4 7.8-9.6 10.1-2.2 2.3-8.1 8.6-13 14-5 5.5-11.9 13-15.5 16.9-3.6 3.8-9.2 9.9-12.6 13.5-3.3 3.6-9.2 10-13 14-3.8 4.1-8.1 8.7-9.7 10.3-1.5 1.5-2.7 3.3-2.7 3.8 0 0.5 5.7 8.1 12.8 16.8 7 8.6 14.1 17.5 15.7 19.7 1.7 2.2 3.8 4.9 4.8 6 1.1 1.1 3.1 3.6 4.5 5.5 1.5 1.9 2.9 3.7 3.2 4 0.3 0.3 1.8 2.1 3.3 4 1.6 1.9 3.8 4.7 5 6.3 1.2 1.5 3.2 3.9 4.4 5.5 1.3 1.5 2.3 3.6 2.3 4.7-0.1 1.1-2.1 4.8-4.5 8.3-2.5 3.4-4.5 6.4-4.5 6.7 0 0.3-4.4 7.1-9.7 15.3-5.4 8.1-10.2 15.6-10.8 16.7-0.7 1.1-3.3 5.4-6 9.5-2.7 4.1-5.2 7.6-5.7 7.8-0.4 0.1-0.8 0.8-0.8 1.5-0.1 0.6-1.6 3.3-3.5 6-1.9 2.6-3.5 5.2-3.5 5.7 0 0.5-0.5 1-1 1-0.6 0-1 0.5-1 1 0 0.5-1.7 3.6-3.8 6.8-2 3.1-4.3 6.3-5 7-1 1-1.5 1-2.6 0-0.7-0.7-3.3-2.9-5.6-4.8-2.4-1.9-5.7-4.7-7.4-6.2-1.7-1.5-8.7-7.5-28.1-23.9l-7.5 0.6c-4.1 0.4-9.5 0.9-12 1-2.5 0.2-6.3 0.6-8.5 0.9-2.2 0.3-7.2 0.8-11 1.1-3.8 0.3-10.4 1-14.5 1.4-4.1 0.5-8.2 0.9-9 0.9-0.8 0-4.4 0.3-8 0.7-3.6 0.3-8.1 0.8-10 1-1.9 0.2-8.2 0.9-14 1.4-5.8 0.6-12.8 1.3-15.5 1.5-2.8 0.3-10.4 1-17 1.7-10 1-12.8 1.6-17 4-2.8 1.6-5.6 2.9-6.3 2.9-0.6 0-2.3-1.7-3.6-3.7-1.2-2.1-3.4-5.8-4.7-8.3-1.4-2.5-3.7-6.4-5.2-8.7-1.5-2.4-2.7-4.5-2.7-4.8 0-0.3-1.1-2-5-7l-6.7 3.2c-3.8 1.7-11.6 5.4-17.6 8.2-5.9 2.8-15.5 7.4-21.5 10.2-5.9 2.7-13.6 6.6-23.7 11.8l-2.5-2.7c-1.4-1.5-4-4.5-5.8-6.7-1.9-2.2-4.8-5.7-6.5-7.9-1.8-2.1-4.1-4.8-5.2-6.1-1.1-1.2-3.6-4.1-5.5-6.5-1.9-2.3-5.4-6.4-11.9-13.5l-5.3 0.7c-2.9 0.4-7.6 0.9-10.3 1.2-2.8 0.2-9.7 1.1-15.5 2-5.8 0.8-13.2 1.8-16.5 2.1-3.3 0.4-6.9 0.9-8 1.1-1.1 0.1-6.7 0.9-12.5 1.8-5.8 0.8-12.8 1.7-15.5 2.1-2.8 0.3-7.9 0.8-11.5 1.2-3.7 0.3-12-0.2-32.5-2.7l-26.3-13c-19.9-9.9-26.2-13.4-26.1-14.7 0.1-1 0.1-2.3 0-2.8 0-0.5-1.1 0.6-2.4 2.5-1.3 1.9-2.7 4.5-3 5.8-0.4 1.2-1 2.2-1.5 2.2-0.4 0-3.5-8.4-7-18.7-5.8-17.6-6.2-19.4-6.2-28 0-7.6 0.3-9.3 1.5-9.3 0.8 0 1.7 0.5 2 1 0.3 0.5 2.2 1.5 4.2 2.2 2.1 0.6 7.6 3 12.3 5.2 4.7 2.2 8.9 4.1 9.4 4.1 0.5 0 1-0.7 1.1-1.5 0.2-0.8 3-11 6.4-22.5 3.4-11.5 6.4-22.1 6.7-23.5 0.3-1.4 0.7-2.7 0.9-3 0.2-0.3 0.7-1.6 1-3 0.3-1.4 0.8-2.6 1-2.7 0.3-0.2 1.6 0.7 3 2 1.4 1.2 3.7 3.1 5.1 4.2 1.4 1.1 3.7 3 5.2 4.2 1.5 1.2 7.6 6.1 13.7 11 6 4.8 11.7 9.3 12.5 10 0.8 0.7 3.3 2.6 5.5 4.3 2.2 1.7 4.3 3 4.7 3 0.5 0 1-1 1.3-2.2 0.2-1.3 0.4-2.6 0.5-3 0-0.5 1.1-4.5 2.6-9 1.4-4.6 2.7-9.2 2.9-10.3 0.3-1.1 1.2-4.2 2-7 1.3-4.2 2.2-5.4 5.8-7.3 2.3-1.2 5.8-3.6 7.7-5.2 1.9-1.7 4.1-3 4.7-3 0.7 0 1.3-0.5 1.3-1 0-0.5 0.6-1 1.2-1 0.7 0 2.6 1.1 4.3 2.5 1.6 1.4 3.2 2.5 3.5 2.5 0.3 0 1.8 1.1 3.5 2.5 1.6 1.4 3.2 2.5 3.5 2.5 0.3 0 1.4 0.8 2.5 1.8 1.1 1 3 2.4 6.5 4.2v-32.5l12.5-6.5h28.2c15.6 0 28.3-0.3 28.3-0.7 0-0.5-2.3-2.8-5.2-5.3-2.9-2.5-6-5-6.8-5.7-0.8-0.7-4.7-3.8-8.5-6.9-3.9-3.1-7.2-6-7.5-6.3-0.3-0.4-1.5-1.4-2.6-2.2-1.2-0.8-4.3-3.3-7-5.6-2.7-2.3-7.7-6.4-11.2-9.2-3.4-2.8-6.2-5.3-6.2-5.6 0-0.3 4.4-5.6 9.7-11.7 5.3-6.2 9.7-11.4 9.7-11.5 0.1-0.1 5.3 1.3 11.6 3.1 10 2.9 12.9 4.2 21.7 10.2 5.7 3.8 10.5 6.7 10.7 6.4 0.2-0.3 2.5-3.2 5.2-6.6 2.7-3.4 7-8.5 9.6-11.5 2.5-3 8.4-9.9 13-15.4 4.5-5.5 9.4-11.3 10.8-12.9 1.4-1.6 3.2-3.7 4-4.6 0.8-0.8 2.7-3.1 4.1-5 1.5-1.9 3.7-4.6 5-6 1.3-1.5 3.6-4.2 5-6 1.5-2 3.7-4.7 5-6.1 1.3-1.4 4.4-5 6.9-8 2.4-3 5.2-6.3 6.1-7.4 1-1.1 3.7-4.2 6-7 2.3-2.7 4.8-5.3 5.5-5.7 0.9-0.5 2 0.1 3.1 1.6 1 1.3 2.5 3.4 3.3 4.6 0.8 1.2 2.5 3.4 3.8 4.8 1.2 1.5 5.4 6.7 9.1 11.7 3.8 5 10.4 13.6 14.7 19.1 4.4 5.6 8.6 11.2 9.4 12.4 0.8 1.2 2.2 3 3 4 0.8 1 2.4 3.1 3.5 4.6 1.1 1.5 2.4 3.2 3 3.9 0.5 0.6 1.8 2 2.7 3 1.7 1.9 1.7 2.2-0.7 7-1.4 2.8-4 7.7-5.8 11-1.8 3.3-5.5 10-8.2 15-2.6 5-8.2 15.1-12.3 22.5-4.1 7.4-8.9 16.5-10.8 20.3-1.9 3.7-3.3 6.9-3.2 7.1 0.2 0.1 2.3 0.8 4.8 1.5 2.5 0.6 5.4 1.4 6.5 1.6 1.1 0.3 8.5 2.3 16.5 4.5 8 2.3 15.4 4.3 16.5 4.5 1.1 0.3 10.8 3 21.5 6 10.7 3 20.2 5.7 21 5.9 0.8 0.2 4.2 1.1 7.5 2 3.3 0.9 7.1 1.9 8.5 2.2 1.4 0.3 3.3 1 4.2 1.5 1 0.5 1.8 0.8 1.8 0.7 0-0.2 4.7 1 10.3 2.5 5.6 1.5 11.3 3 12.7 3.3 1.4 0.2 4.1 1 6 1.6 1.9 0.7 3.9 1.3 4.5 1.4 0.5 0.1 4.6 1.2 9 2.3 4.4 1.2 9.1 2.6 10.5 3.1 1.4 0.4 3.7 1.1 5.2 1.4 2.8 0.6 2.8 0.6-2.2-7.4-2.8-4.4-5-8.2-5-8.5 0-0.3-1.1-2-2.5-3.7-1.3-1.8-2.5-3.6-2.5-4 0-0.5-1.1-2.3-2.5-4-1.3-1.8-2.5-3.6-2.5-4 0-0.5-1.8-3.5-4-6.8-2.2-3.3-4-6.2-4-6.5 0-0.3-1.7-3.1-3.8-6.2-2.1-3.2-4.7-7.4-5.8-9.3-1-1.9-2.7-4.6-3.7-6-1-1.4-1.8-3.1-1.7-3.7 0-0.7 0.5-2.5 1.2-4 0.6-1.6 1.2-3 1.3-3.3 0.1-0.3 0.4-1.2 0.8-2 0.3-0.8 1.3-4 2.2-7 1-3 2.3-6.9 3-8.5 0.7-1.6 2.3-6.1 3.5-10 1.2-3.9 2.8-8.4 3.5-10 0.7-1.6 2.3-6.1 3.5-10 1.2-3.9 2.8-8.4 3.5-10 0.7-1.6 2.1-5.5 3-8.5 1-3 2.3-6.9 3-8.5 0.7-1.6 2.3-6.1 3.5-10 1.3-3.9 2.5-7.5 2.9-8 0.3-0.5 0.6-1.2 0.7-1.5 0-0.3 0.3-1.2 0.7-2 0.3-0.8 1.3-4 2.2-7 1-3 2.3-6.9 3-8.5 0.7-1.6 2.3-6.1 3.5-10 1.2-3.9 2.8-8.4 3.5-10 0.7-1.6 2.5-6.8 4-11.5 1.5-4.7 3.1-9 3.5-9.5 0.3-0.5 1.2-3 1.9-5.5 0.8-2.5 1.8-5.6 2.4-7 0.6-1.4 1.1-2.7 1.2-3 0.1-0.3 0.4-1.2 0.8-2 0.3-0.8 1.6-4.6 2.8-8.5 1.2-3.9 2.8-8.1 3.6-9.5 0.7-1.4 1.3-3.1 1.3-3.7 0-0.8-1-1.2-2.8-0.9-1.5 0.1-5.2 0.8-8.2 1.4-3 0.6-7.3 1.4-9.5 1.7-2.2 0.3-7.6 1.1-12 1.9-4.4 0.8-9.6 1.6-11.5 1.9-1.9 0.3-7.8 1.3-13 2.2-5.2 0.9-11.1 1.8-13 2.1-1.9 0.3-4.6 0.7-6 0.9-1.4 0.2-4.1 0.6-6 1-1.9 0.3-4.2 0.8-5 1-0.8 0.3-3.5 0.7-6 1-2.5 0.3-5.6 0.8-7 1-1.4 0.4-6.1 1.2-10.5 1.9-4.4 0.8-8.3 1.2-8.8 1-0.4-0.2-0.5-1.6-0.2-3.1 0.3-1.6 1.1-4.4 1.7-6.3 0.7-1.9 1.3-4 1.4-4.5 0.1-0.5 1.3-5.3 2.8-10.5 1.4-5.2 2.6-10.1 2.6-10.7q0-1.3-7.3-1.9c-3.9-0.3-8.3-0.7-9.7-0.9-1.4-0.2-6.3-0.6-11-1-4.7-0.3-12.3-1-17-1.5-4.7-0.5-11.9-1.2-16-1.6-4.1-0.4-8.4-0.6-9.5-0.5-1.1 0-2.1 0.2-2.2 0.4 0 0.1 0.7 4.5 1.7 9.7 1 5.2 2.1 11.3 2.4 13.5 0.4 2.2 1.7 9.4 3 16 1.3 6.6 2 12.3 1.7 12.7-0.3 0.4-6.5-0.6-13.6-2.3-7.2-1.7-13.9-3.2-15-3.5-1.1-0.3-3.4-0.8-5-1-1.7-0.3-5.7-1.2-9-2-3.3-0.8-6.9-1.7-8-1.9-1.1-0.2-3.4-0.6-5-1-1.7-0.3-8.9-1.9-16-3.5-7.2-1.7-13.7-3.2-14.5-3.4-0.8-0.3-1.8-0.5-2.3-0.5-0.4-0.1-1.6-1.9-2.7-4.1-1.1-2.2-4.2-12.9-6.9-23.7-2.8-10.9-7.2-25.7-14.8-45.8l2.1-1.7c1.1-0.9 3.7-2.5 5.6-3.5 1.9-1 4.2-2.3 5-2.9 0.8-0.7 3.7-2.4 6.5-3.9 2.7-1.4 6.3-3.5 8-4.6 1.6-1 3.7-2.2 4.5-2.6 0.8-0.4 3.7-2.2 6.5-4 2.7-1.8 5.3-3.3 5.7-3.3 0.5 0 2.7-1.3 5-2.9 2.4-1.6 6.3-3.9 8.8-5.2 2.5-1.4 6.3-3.6 8.5-5 2.2-1.3 4.9-3 6-3.6 1.1-0.6 13.2-7.8 26.9-16 13.7-8.1 26.3-15.6 28-16.5 1.7-0.9 3.8-2 4.6-2.4 0.8-0.4 2.2-1.3 3-1.9 0.8-0.7 4.1-2.6 13-7.5l9.2 2.6c5.1 1.4 9.7 2.8 10.3 3.1 0.5 0.4 2.1 0.8 3.5 1 1.4 0.2 6.3 1.5 11 2.9 4.7 1.4 9.8 2.7 11.5 3 1.7 0.4 4.8 1.3 7 2.1 2.2 0.8 5.1 1.7 6.5 1.9 1.4 0.3 5.7 1.4 9.5 2.6 3.8 1.1 7 1.9 7 1.8 0-0.1 1.3 0.4 3 1 1.7 0.7 4.1 1.4 5.5 1.6 1.4 0.3 4.1 1 6 1.6 1.9 0.7 4.2 1.3 5 1.4 0.8 0.2 6.5 1.8 12.7 3.6 6.2 1.8 11.5 3.1 11.7 2.8 0.2-0.3 0.7-4.8 1-10 0.4-5.2 0.9-12.6 1.2-16.5 0.2-3.9 0.7-9.7 0.9-13 0.2-3.3 0.7-9.6 1-14 0.3-4.4 0.8-10.7 1-14 0.2-3.3 0.7-10.1 1.1-15 0.4-4.9 0.7-10.1 0.6-11.3 0-1.3 0.5-2.2 1.2-2z"/>
		<path id="Path 3" class="s0" d="m807.6 399c0.2 0 11.3 6.6 24.6 14.6 13.4 8 24.4 14.8 24.5 15 0.2 0.2-4 6.1-9.3 13.2-5.3 7-9.9 12.8-10.3 12.9-0.3 0.2-4.3-6.8-8.8-15.5-4.6-8.6-11.2-21.2-14.7-27.9-3.5-6.8-6.2-12.3-6-12.3z"/>
		<path id="Path 4" class="s1" d="m577.8 495.1c0.9-0.1 1.2 12.3 1.2 117.9l-34.7 25.1c-19.2 13.9-35.6 25.9-36.6 26.8-1.8 1.5-1.5 2.3 7.7 19.6 5.2 9.9 17.8 33.7 28 53 18.4 34.9 18.5 35 25.3 40.8 3.7 3.3 9 7.8 11.7 10 2.7 2.3 5.8 4.8 7 5.6 1.2 0.8 2.3 1.8 2.6 2.2 0.3 0.3 3.7 3.2 7.5 6.3 3.9 3.1 8.6 7 10.5 8.6 1.9 1.6 5.1 4.2 10.5 8.9l-56 0.1-50.3-50.5-32.3 25.9c-17.8 14.3-33 26.4-33.6 27-1 0.9 0.5 4 6.8 14.1 4.5 7.1 8.3 13.2 8.5 13.5 0.2 0.3 2.7-1.4 5.6-3.7 2.9-2.3 11.2-9 18.3-14.9 8.5-7 13.1-10.2 13.4-9.3 0.2 0.8 1.8 9.3 3.5 18.9 2.8 15.7 3 17.9 1.8 21.5-0.7 2.2-1.5 4.9-1.7 6-0.2 1.1-1.4 5.6-2.7 10-1.3 4.4-2.5 8.3-2.6 8.7-0.1 0.5-0.4 1.9-0.7 3.3-0.3 1.4-0.8 2.5-1.2 2.5-0.5 0-2.6-1.3-4.8-3-2.2-1.7-4.7-3.6-5.5-4.3-0.8-0.7-6.5-5.2-12.5-10-6-4.9-12.2-9.8-13.7-11-1.4-1.2-3.8-3.1-5.2-4.2-1.4-1.1-3.7-3-5.1-4.3-1.4-1.2-2.7-2.1-3-2-0.2 0.2-0.7 1.4-1 2.8-0.3 1.4-0.7 2.7-1 3-0.2 0.3-0.6 1.6-0.9 3-0.3 1.4-3.3 12-6.7 23.5-3.4 11.5-6.2 21.5-6.3 22.1 0 0.7-0.4 1.6-0.8 2-0.4 0.5-1.3 0.4-2-0.2-0.7-0.6-5.6-3-10.8-5.3-5.2-2.3-11.3-5.1-17.5-8.1l3.7-14.2c2.4-9.7 5.6-18.7 9.7-27.8 3.4-7.4 6.1-13.8 6.1-14.3 0-0.4-8.6-10-19.2-21.5-10.5-11.4-20.2-21.8-23.9-25.7l6.3-3.6c3.5-2 11-6.4 16.8-9.6 5.8-3.3 22.7-12.9 37.5-21.3 14.9-8.4 29.8-16.8 39.5-22v-54l-2.2 0.5c-1.3 0.3-10.8 2.1-21.3 4.1-10.5 1.9-21.2 3.9-24 4.4-2.7 0.4-5.1 0.7-5.3 0.6-0.2 0 6.2-21.1 14.2-46.9 8.1-25.7 14.6-47.5 14.6-48.5 0-1.5 0.8-1.6 8.7-1 4.9 0.4 16.9 1.3 26.8 1.9 9.9 0.6 18.1 1.2 18.3 1.5 0.1 0.2-7 9.1-15.9 19.6-15.6 18.7-16 19.3-13.3 19.6 1.6 0.2 13.5-0.4 26.4-1.3 12.9-0.8 23.5-1.7 23.6-1.8 0-0.1 8.2-29.9 18.2-66.2 10-36.3 18.2-66.3 18.2-66.8 0-0.4-33.6-0.7-149.5-0.7l-32 16.7c-17.6 9.2-33.3 17.4-38 20.1l7 0.6c3.9 0.3 14.7 1.1 24 1.7 9.4 0.6 17.2 1.3 17.5 1.5 0.3 0.2-0.3 1-1.2 1.7-0.9 0.6-12 10.9-24.7 22.7-12.6 11.8-22.9 21.6-22.8 21.7 0.1 0.2 8.8-3.3 19.2-7.6 10.5-4.4 19.2-7.8 19.5-7.6 0.3 0.2-1 10.4-2.7 22.7-1.8 12.3-3.5 22.5-3.8 22.8-0.3 0.3-19.1-2.5-41.8-6.2-22.7-3.7-41.2-6.6-41.3-6.5 0 0.1 1.3 13.3 3 29.4 1.7 16 3.6 29.6 4.1 30.2 0.6 0.6 11.1 5.3 23.5 10.6 12.4 5.3 22.6 9.8 22.8 9.8 0.1 0.1-8.8 6.2-19.8 13.4-11 7.3-20.2 13.2-20.4 13-0.2-0.1-9.5-24.1-20.6-53.2-11.1-29.2-20.8-54.7-23-60.5l11.8-10.3c6.5-5.6 31.4-27.4 98.7-86.4l17-0.7c9.4-0.3 45.1-1.5 79.5-2.7 34.4-1.1 72.9-2.4 85.5-2.8 12.7-0.4 23.6-0.9 24.3-1z"/>
		<path id="Path 5" class="s2" d="m412.5 502h74.8c41.1 0 74.7 0.3 74.7 0.8 0 0.4-8.2 30.4-18.2 66.7-10 36.3-18.2 66.1-18.2 66.2-0.1 0.2-10.7 1-23.6 1.8-12.9 0.9-24.8 1.5-26.4 1.3-2.7-0.3-2.3-0.9 13.3-19.6 8.8-10.5 16.1-19.4 16.1-19.7 0-0.3-4.2-0.7-9.3-1-5-0.3-16.8-1-26.2-1.6-14.3-0.9-20.3-0.8-58 2.3l-18 9.8c-9.9 5.4-18.1 9.8-18.2 9.7-0.1-0.1 1.3-10.2 3-22.4 1.8-12.2 3.7-22.7 4.2-23.3 0.5-0.5 1.9-1.2 3-1.4 1.1-0.3 2.1-0.5 2.2-0.5 0.2-0.1 0.4-0.1 0.5 0 0.2 0 2.7-0.9 5.5-2 2.9-1.2 5.3-1.9 5.3-1.6 0 0.3 4.3-1.1 9.5-3 5.2-1.9 9.5-3.3 9.5-3 0 0.3 1.7-0.2 3.7-1.1 2.1-0.9 13.8-6.5 26-12.5 12.3-6 22.3-11.1 22.3-11.4 0-0.3-1.2-0.3-2.8 0-1.5 0.3-4.3 0.7-6.2 1-1.9 0.3-10.5 1.6-19 3-8.5 1.3-17.5 2.8-20 3.2-2.5 0.4-8.3 0.7-13 0.7-4.7 0-9.6-0.4-11-0.8-1.4-0.4-3.9-0.9-5.5-1.1-1.6-0.3-13.4-1.2-26-2-12.6-0.9-23.1-1.7-23.2-1.8-0.2-0.1 9.3-5.2 21-11.4 11.6-6.2 27.3-14.4 34.7-18.2z"/>
		<path id="Path 6" class="s1" d="m1077.3 529.5c1.2 0.3 12.3 2.6 24.7 5 12.4 2.5 22.6 4.7 22.6 4.8 0.1 0.1-5.8 9.7-13 21.4-7.2 11.7-13.4 20.9-13.7 20.5-0.3-0.4-5-10.8-10.4-23.2-5.3-12.4-10.4-24-11.1-25.8-1.3-3.2-1.3-3.2 0.9-2.7zm-608.1 6.5c0.4 0 0.8 0.2 0.8 0.5 0 0.3-9.8 5.3-21.7 11.2-12 5.9-22.1 10.9-22.5 11-0.5 0.2-4.2-2.4-8.3-5.7-4.1-3.3-7.5-6.3-7.5-6.7 0-0.5 1.9-1.1 4.2-1.5 2.4-0.4 6.1-1 8.3-1.3 2.2-0.3 11.2-1.7 20-3.1 8.8-1.4 18-2.8 20.5-3.1 2.5-0.3 4.7-0.7 4.9-0.9 0.3-0.2 0.8-0.4 1.3-0.4z"/>
		<path id="Path 7" class="s0" d="m394 542.6c1.4 0.3 3.4 0.8 4.5 1.1 1.1 0.3 4 0.7 6.5 1 2.5 0.2 4.6 0.9 4.8 1.4 0.1 0.5 3.6 3.6 15.2 12.9l-2.7 1.1c-1.6 0.6-3.7 1.2-4.8 1.4-1.1 0.2-5.7 1.8-10.3 3.5-4.5 1.6-8.2 2.8-8.2 2.5 0-0.3-2.2 0.4-5 1.5-2.7 1.1-5 1.7-5 1.2 0.1-0.4-0.6 0-1.5 0.8-0.9 0.8-1.6 1.2-1.5 0.7 0-0.4-1-0.2-2.2 0.5-1.3 0.7-3 1.3-3.8 1.5-0.8 0.1-9.6 3.6-19.5 7.8-9.9 4.1-18.1 7.4-18.2 7.2-0.1-0.1 10-9.7 22.5-21.4 12.5-11.6 23.6-22.1 24.7-23.2 1.4-1.4 2.8-1.9 4.5-1.5z"/>
		<path id="Path 8" class="s1" d="m743.9 572.6c0.3 0.1 4 0.5 8.1 0.9 4.1 0.3 11.3 1 16 1.5 4.7 0.5 12.3 1.2 17 1.5 4.7 0.3 9.6 0.8 11 1 1.4 0.2 5.7 0.6 9.7 1 4.2 0.4 7.1 1.2 7.2 1.9 0 0.6-1.1 5.4-2.5 10.6-1.5 5.2-2.7 10-2.8 10.5-0.1 0.5-0.7 2.6-1.4 4.5-0.6 1.9-1.4 4.7-1.7 6.2-0.3 1.6-0.2 3 0.3 3.2 0.4 0.2 4.3-0.2 8.7-1 4.4-0.7 9.1-1.5 10.5-1.9 1.4-0.2 4.5-0.7 7-1 2.5-0.3 5.2-0.7 6-1 0.8-0.2 3.1-0.7 5-1 1.9-0.4 4.6-0.8 6-1 1.4-0.2 4.1-0.6 6-0.9 1.9-0.3 7.8-1.2 13-2.1 5.2-0.9 11.1-1.9 13-2.2 1.9-0.3 7.1-1.1 11.5-1.9 4.4-0.8 9.8-1.6 12-1.9 2.2-0.3 6.5-1.1 9.5-1.7 3-0.6 6.7-1.3 8.3-1.4 1.7-0.3 2.7 0.1 2.7 0.8 0 0.7-0.6 2.4-1.3 3.8-0.7 1.4-2.4 5.6-3.6 9.5-1.2 3.9-2.5 7.7-2.8 8.5-0.4 0.8-0.7 1.7-0.8 2-0.1 0.3-0.6 1.6-1.2 3-0.6 1.4-1.6 4.5-2.4 7-0.7 2.5-1.6 5-1.9 5.5-0.4 0.5-2 4.8-3.5 9.5-1.5 4.7-3.3 9.8-4 11.5-0.7 1.6-2.2 6.1-3.5 10-1.2 3.9-2.8 8.3-3.5 10-0.7 1.6-2 5.5-3 8.5-0.9 3-1.8 6-2 6.5-0.1 0.5-0.3 1.5-0.5 2-0.1 0.5-0.5 1.5-1 2-0.4 0.5-1.7 4.1-3 8-1.2 3.9-2.8 8.3-3.5 10-0.7 1.6-2 5.5-3 8.5-0.9 3-2.3 6.8-3 8.5-0.7 1.6-2.2 6.1-3.5 10-1.2 3.9-2.8 8.3-3.5 10-0.7 1.6-2.2 6.1-3.5 10-1.2 3.9-2.8 8.3-3.5 10-0.7 1.6-2 5.5-3 8.5-0.9 3-1.9 6.2-2.2 7-0.4 0.8-0.7 1.7-0.8 2-0.1 0.3-0.7 1.7-1.3 3.2-0.7 1.6-1.2 3.4-1.2 4 0 0.7 0.7 2.4 1.7 3.8 1 1.4 2.7 4.1 3.7 6 1.1 1.9 3.7 6.1 5.8 9.2 2.1 3.2 3.8 6 3.8 6.3 0 0.3 1.8 3.2 4 6.5 2.2 3.3 4 6.3 4 6.7 0 0.5 1.2 2.3 2.5 4 1.4 1.8 2.5 3.6 2.5 4 0 0.5 1.2 2.3 2.5 4 1.4 1.8 2.5 3.5 2.5 3.8 0 0.3 2.3 4.1 5 8.5 5 8 5 8 2.3 7.4-1.6-0.3-3.9-1-5.3-1.4-1.4-0.5-6.1-1.9-10.5-3.1-4.4-1.1-8.5-2.2-9-2.3-0.5-0.1-2.6-0.7-4.5-1.4-1.9-0.6-4.6-1.4-6-1.6-1.4-0.3-7.1-1.8-12.7-3.3-5.6-1.6-10.3-2.7-10.3-2.6 0 0.2-0.8-0.1-1.7-0.6-1-0.5-2.9-1.2-4.3-1.5-1.4-0.3-5.2-1.3-8.5-2.2-3.3-0.9-6.7-1.8-7.5-2-0.8-0.2-10.3-2.9-21-5.9-10.7-3-20.4-5.7-21.5-6-1.1-0.2-8.5-2.2-16.5-4.5-8-2.2-15.4-4.2-16.5-4.5-1.1-0.2-4-1-6.5-1.6-2.5-0.7-4.6-1.4-4.7-1.5-0.2-0.2 1.2-3.4 3.1-7.2 1.9-3.7 6.8-12.8 10.8-20.2 4.1-7.4 9.7-17.5 12.3-22.5 2.7-5 6.4-11.7 8.2-15 1.8-3.3 4.4-8.3 5.8-11 2.4-4.8 2.4-5.1 0.7-7-0.9-1-2.2-2.4-2.7-3-0.5-0.7-1.9-2.4-3-3.9-1.1-1.5-2.7-3.6-3.5-4.6-0.8-1-2.2-2.8-3-4-0.8-1.2-5-6.8-9.4-12.4-4.3-5.5-10.9-14.1-14.7-19.1-3.7-5-7.9-10.2-9.1-11.7-1.3-1.4-3-3.6-3.8-4.8-0.8-1.2-2.3-3.3-3.2-4.6-1.2-1.5-2.3-2.1-3.2-1.7-0.7 0.5-3.2 3-5.5 5.8-2.3 2.7-5 5.9-6 7-0.9 1.1-3.7 4.4-6.1 7.4-2.5 3-5.6 6.6-6.9 8-1.3 1.4-3.5 4.1-5 6.1-1.4 1.8-3.7 4.5-5 6-1.3 1.4-3.5 4.1-5 6-1.4 1.9-3.3 4.2-4.1 5-0.8 0.9-2.6 3-4 4.6-1.4 1.6-6.2 7.4-10.8 12.9-4.6 5.5-10.3 12.2-12.7 15-2.4 2.7-6 7.1-8.2 9.7-2.1 2.6-3.9 4.5-4 4.3-0.2-0.3 9.5-17.3 43.4-75l-6.3-40.5c-3.5-22.3-6.4-41.3-6.4-42.3 0-1.2 0.6-1.6 2.3-1.2 1.2 0.3 8.1 1.8 15.2 3.5 7.2 1.6 14.4 3.2 16 3.5 1.7 0.3 3.9 0.8 5 1 1.1 0.2 4.7 1.1 8 1.9 3.3 0.8 7.4 1.7 9 2 1.7 0.2 3.9 0.7 5 1 1.1 0.3 7.9 1.8 15 3.5 7.2 1.7 13.3 2.7 13.6 2.3 0.3-0.4-0.5-6.3-1.8-13.2-1.3-6.9-2.6-13.9-2.9-15.5-0.3-1.7-1.2-6.8-2-11.5-0.9-4.7-1.7-9.3-2-10.3-0.2-1 0.2-1.8 1.2-2 0.9-0.2 1.9-0.2 2.3-0.1zm411.8 43.4c0.5-0.1 8.8 2.1 18.6 4.7 9.7 2.6 17.7 5.1 17.7 5.5 0 0.5-3.9 6.2-8.7 12.7-4.9 6.6-12.8 17.4-17.8 24.2-5 6.7-9.5 12.4-10 12.6-0.5 0.2-9.3-4.4-19.5-10.3-10.2-5.9-19-11.2-19.7-11.8-0.9-0.8 1.8-3.8 10.9-12.1 6.7-6 15.7-14.3 20-18.3 4.2-3.9 8.1-7.2 8.5-7.2z"/>
		<path id="Path 9" class="s0" d="m738.3 633c0.6 0 6.4 0.7 12.7 1.5 6.3 0.8 18.7 2.4 27.5 3.5 8.8 1.2 26.4 3.5 39 5.1 12.7 1.6 23 3.1 23.1 3.2 0 0.1 4.4 14.7 9.7 32.5 5.3 17.7 9.7 32.8 9.7 33.5 0 0.6-8.9 5.2-19.7 10.1-10.9 5-23.2 10.5-27.3 12.4-4.1 1.9-10 4.5-13 5.8-3 1.4-5.7 2.5-6 2.5-0.3 0-7.5-13.7-16.2-30.3-8.6-16.7-21.3-41.3-28.2-54.8-7-13.5-12.6-24.6-12.6-24.8 0-0.1 0.6-0.2 1.3-0.2zm41.7 127.1l3.8 4.2c2.1 2.3 10.6 12.1 18.8 21.7 8.2 9.6 15.6 18.3 16.4 19.3 1.4 1.7 1.3 1.8-2 1.1-1.9-0.4-12.5-2.7-23.5-5-11-2.4-20-4.5-20.1-4.6-0.1-0.2 1.1-7 2.7-15.3 1.5-8.2 3-16.4 3.3-18.2zm-267.9 9.9c0.2 0 11.7 11.2 50.5 50l56 0.4-59 1.1-6.5 3.6c-3.6 2-11.5 7.1-17.5 11.4-6.1 4.4-11.1 8.3-11.3 8.7-0.1 0.4-0.8 0.8-1.5 0.8-0.7 0-2.8 1.3-4.7 3-2 1.6-4.9 3.6-6.5 4.4-1.7 0.7-3.7 2-4.5 2.8-1.4 1.3-1.9-0.3-4.4-14.6-1.6-8.9-3.2-17.2-3.5-18.5-0.6-2.3-1.4-1.8-13.6 8.3-7.2 5.9-15.4 12.6-18.4 14.9-3.3 2.6-5.5 3.8-6 3.1-0.3-0.6-3.9-6.2-7.8-12.5-3.9-6.3-7.3-11.9-7.5-12.6-0.2-0.6 14.5-13.1 32.7-27.7 18.1-14.6 33.2-26.5 33.5-26.6zm581 24.1c1.4-0.1 8.5 0.3 16 0.9 7.4 0.6 14.9 1.3 16.7 1.5 2 0.3 3.3 1.1 3.3 2 0 1-1 1.5-2.8 1.4-1.5 0-10.2-1.3-19.2-2.9-9.1-1.5-15.4-2.8-14-2.9z"/>
		<path id="Path 10" class="s1" d="m548.8 827c0.1 0 0.2 7.4 0.2 33l-2.2-1.2c-1.3-0.6-3.2-2-4.3-3-1.1-1-2.2-1.8-2.5-1.8-0.3 0-1.8-1.1-3.5-2.5-1.6-1.4-3.2-2.5-3.5-2.5-0.3 0.1-2-1.2-7.1-5.5l11.3-8.2c6.2-4.5 11.4-8.2 11.6-8.3zm-450 44.1c2.1-0.1 2.2 0 0.7 3.1-0.8 1.8-4.4 10.5-8.1 19.3-3.6 8.8-7 16.5-7.4 17-0.5 0.6-1.5-1.3-2.4-4.5-0.8-3-3.1-10.7-5-17-2.3-7.8-3-11.6-2.2-11.9 0.6-0.3 5.8-1.7 11.6-3.2 5.8-1.5 11.5-2.8 12.8-2.8zm1017.3 5.4c0.4 3.3 1.9 15.9 3.3 28 1.4 12.1 2.3 22.2 2.1 22.5-0.3 0.3-11.6-4.6-25.2-10.8-13.7-6.2-34.4-15.7-46.1-21-11.7-5.3-20.9-9.8-20.5-10 0.5-0.1 12.1 3.7 25.8 8.4 13.8 4.7 30.3 10.4 36.8 12.5 6.4 2.1 11.9 3.8 12.2 3.6 0.3-0.1 2.6-8.3 5-18.2 2.5-9.9 4.9-18.7 5.2-19.5 0.4-0.8 1 1.2 1.4 4.5zm-717.8 38.5c0.5 0 3.7 8.8 7 19.5 3.4 10.7 6.5 19.5 7 19.5 0.4 0 1-1 1.4-2.3 0.3-1.2 1.7-3.8 3-5.7 1.3-1.9 2.4-3 2.5-2.5 0 0.5 0 1.8-0.1 2.7-0.1 1.4 6.1 4.9 25.4 14.5 14 7.1 25.3 12.9 25.2 13-0.1 0.1-14.1-2.9-31.2-6.7-17-3.9-39.5-9-50-11.4-10.5-2.3-19-4.8-19-5.4 0-0.6 6.3-8.7 14-18.1 7.7-9.4 14.4-17.1 14.8-17.1zm583.2 15.7l2.4 2.9c1.3 1.6 11 12.1 21.5 23.3 10.5 11.2 19.7 21.2 20.4 22.2 0.6 1.1 1.1 2.1 1 2.3-0.2 0.2-24.8 13-109.3 56.5l-1.7 11.8c-0.9 6.5-2.4 17-3.3 23.3-0.9 6.5-2 11.1-2.5 10.5-0.5-0.5-8.3-14.5-17.5-31-9.2-16.5-19.4-34.8-28.5-51.5l-8.8 9.3c-4.9 5-16.1 17-25 26.4-8.9 9.5-16.5 17.4-16.8 17.6-0.3 0.1-16.8-11.7-36.5-26.3-19.8-14.6-35.9-26.6-35.7-26.7 0.2-0.1 4.8-0.7 10.3-1.3 5.5-0.6 12.7-1.3 16-1.6 3.3-0.2 10.5-0.9 16-1.5 5.5-0.6 11.6-1.2 13.5-1.4 1.9-0.3 6.4-0.7 10-1 3.6-0.4 7.2-0.7 8-0.7 0.8 0 4.9-0.4 9-0.9 4.1-0.4 10.7-1.1 14.5-1.4 3.8-0.3 8.8-0.8 11-1.1 2.2-0.3 6-0.7 8.5-0.9 2.5-0.1 7.9-0.6 19.5-1.6l12.5 10.6c6.9 5.8 13.9 11.8 15.6 13.3 1.7 1.5 5 4.3 7.4 6.2 2.3 1.9 4.9 4.1 5.6 4.7 1.1 1 1.7 1 2.7 0 0.6-0.6 2.9-3.8 5-7 2-3.1 3.7-6.2 3.7-6.7 0-0.5 0.5-1 1-1 0.5 0 1-0.5 1-1 0-0.5 1.6-3.1 3.5-5.8 1.9-2.6 3.5-5.3 3.5-6 0-0.6 0.4-1.3 0.8-1.5 0.5-0.1 3-3.6 5.7-7.7 2.7-4.1 5.3-8.4 6-9.5 0.6-1.1 5.4-8.6 10.7-16.8 5.3-8.1 9.6-15 9.6-15.3-0.1-0.3 2.1-3.5 4.8-7.1zm183.2 30.3c0.8 0-1.2 5.5-4.8 13.2-3.4 7.3-7.2 15.7-11 24.3l-13.4-13.5c-7.4-7.5-13.2-13.8-12.9-14 0.3-0.3 9.6-2.6 20.7-5.2 11.1-2.6 20.8-4.7 21.4-4.8zm-561.7 7.9c2.5 2.6 6.1 6.7 8 9.1 1.9 2.3 4.4 5.3 5.5 6.5 1.1 1.2 3.4 4 5.2 6.1 1.7 2.1 4.6 5.7 6.5 7.9 1.8 2.2 4.4 5.2 8.3 9.4l6.5-3.4c3.6-1.9 11.3-5.7 17.2-8.5 6-2.8 15.6-7.3 21.5-10.1 6-2.8 13.8-6.5 24.3-11.4l2.5 3.2c1.4 1.8 2.5 3.5 2.5 3.8 0 0.2 1.3 2.5 3 5 1.6 2.4 3 4.7 3 5 0 0.2 2 4 4.5 8.2 2.5 4.3 4.4 7.8 4.3 7.9-0.2 0.1-6.5-0.6-14-1.5-7.5-0.9-14.1-1.3-14.5-0.8-0.4 0.4 1.3 11.4 4 24.5 2.6 13 4.7 23.7 4.5 23.8-0.2 0.1-8.4-8.7-36.2-39.1l-8.2 39.5c-4.6 21.7-9.1 43.4-10.1 48.2-1 4.8-2 8.8-2.3 8.8-0.3 0-10.1-9.6-43-43l11.5-14.8c6.3-8.1 11.1-15 10.7-15.4-0.4-0.4-15.6-7.5-33.7-15.9-18.1-8.3-45.6-21-61-28.2-15.4-7.1-29.2-13.4-30.8-14.1-1.5-0.6-2.7-1.4-2.7-1.6 0-0.3 2.4-0.9 5.2-1.3 2.9-0.4 7.5-1 10.3-1.3 2.7-0.3 9.7-1.2 15.5-2.1 5.8-0.8 11.4-1.6 12.5-1.8 1.1-0.1 4.7-0.6 8-1 3.3-0.4 10.7-1.4 16.5-2.2 5.8-0.8 13-1.7 16-2 3-0.3 7.5-0.9 10-1.3 4.4-0.7 4.6-0.7 9 3.9zm496.8 77.6c1.1 1.1 11.3 12.8 22.9 26 11.5 13.2 21.2 24.5 21.6 25.2 0.4 0.7-1.2 5-3.5 9.5-2.3 4.6-14.7 28.1-27.6 52.3-12.8 24.2-23.8 44.4-24.4 45-0.7 0.6-0.8-1.3-0.4-6 0.4-3.9 2.7-39.4 5.1-79 2.5-39.6 4.5-72.7 4.5-73.5 0-1.2 0.4-1.1 1.8 0.5zm-942.5 68.5c0.5 0 2.7 5.5 4.9 12.2 2.2 6.8 5.1 15.1 8.8 24.8l-9.5 4.5c-5.2 2.4-10 4.5-10.5 4.5-0.6 0-3.2-4.4-10.8-19.5l8.1-13.3c4.5-7.2 8.6-13.2 9-13.2zm45.8 124c5 11.2 13.1 29.7 18.1 41 5 11.2 9.3 21.1 9.7 21.9 0.3 0.8-10-3.9-22.9-10.4-12.9-6.5-23.7-12-24-12.2-0.3-0.2 1.7-13.4 4.3-29.1 2.6-15.8 5-29.4 5.3-30.2 0.3-0.9 4.6 7.7 9.5 19zm888.7 10c0.5 0 2.2 18.6 3.8 41.4 1.6 22.8 2.7 41.6 2.4 41.9-0.3 0.3-9.1 1.4-19.5 2.6-10.5 1.1-22.8 2.5-27.5 3.1-4.7 0.5-10.2 1-12.3 1-2 0-3.7-0.3-3.7-0.5 0-0.3 2.7-7.8 5.9-16.8 3.3-8.9 6.2-17 6.5-18 0.3-0.9 0.9-1.5 1.3-1.3 0.5 0.2 9.9 2.5 21 5 11.2 2.5 20.5 4.6 20.8 4.6 0.3 0 0.5-14.2 0.5-31.5 0-17.4 0.4-31.5 0.8-31.5zm-853.1 74c0.5 0 7.3 2.1 15.3 4.6 8 2.5 21.5 6.8 30 9.5 8.5 2.8 18.2 5.9 27.5 8.9l16 26.1c8.8 14.4 20.8 33.8 26.6 43.3 5.8 9.4 10.3 17.2 10 17.4-0.3 0.1-7.8-3.2-16.6-7.3-8.8-4.2-16.1-7.6-16.3-7.6-0.1 0.1-12.2-5.6-27-12.5-14.7-6.9-29.8-14-33.5-15.7-6.7-3.2-6.8-3.2-9.8-10.7-1.7-4.1-4.2-10-5.5-13-1.3-3.1-5.7-13.5-9.9-23.3-4.1-9.7-7.5-18.2-7.5-18.7 0-0.6 0.3-1 0.7-1zm746.3 17c0.6 0 5.1 5 10.1 11.2 4.9 6.2 8.6 11.6 8.2 11.9-0.4 0.4-9.1 2.7-19.3 5.3-10.2 2.5-18.8 4.5-19.3 4.5-0.4 0.1 3.2-6.3 7.9-14.2 4.7-7.8 9.2-15.2 10-16.5 0.8-1.2 1.9-2.2 2.4-2.2zm-351.5 33.3c0.5 0.2 6.4 3.7 13 7.8 6.6 4.1 15.9 9.8 20.7 12.7 4.9 2.8 8.7 5.4 8.5 5.6-0.1 0.2-10.6 1.3-23.2 2.5-12.6 1.1-27.4 2.5-32.8 3.1-5.3 0.5-12.1 1-20.2 1l16.5-16.5c9-9.1 16.9-16.4 17.5-16.2z"/>
	</g>
</svg>