<svg version="1.2" xmlns="http://www.w3.org/2000/svg" viewBox="0 0 1000 1000" width="1000" height="1000">
	<title>dietzgen-svg</title>
	<style>
		.s0 { fill: #ffffff } 
		.s1 { fill: #7f7f7f } 
		.s2 { fill: #000000 } 
	</style>
	<g id="Layer 1">
		<path id="Path 0" fill-rule="evenodd" class="s0" d="m308.1 92.4l96.1-92.4h9.3l27.7 27.7 72.2-12.9 177.5 33.3 14.8 29.5 87 86.9-7.4 7.4-18.5 9.2-11.1-7.3 11.1 22.1-18.5-3.7 27.7 96.2-25.9 5.5-12.9 18.5-16.7-9.3 3.7 16.7-14.8 9.2-37 3.7-27.7-35.1-1.9-29.6-38.8-18.5-42.5 44.4-5.6 29.6-37 9.2-20.3-1.8-1.9-14.8-42.5 1.8-38.9 5.6-18.5 14.8 14.8 27.7-5.5 16.6 25.9 13 24-9.3 70.3 14.8 11.1-9.2 7.4 9.2 42.6-5.5 20.3-18.5-1.8-18.5 14.7-1.9-5.5-7.3 16.6 1.8 5.6-11.1 5.5 18.5 11.1 1.8 1.9 44.4-48.1 51.8-27.7 88.7-22.2 3.7-7.4 18.5-14.8 1.8v14.8l-20.4 7.4-11.1-22.2-11.1 3.7-25.9-22.2-5.5 9.3-20.4-20.4-18.5-1.8-3.7-11.1 18.5-3.7 9.3-18.5-7.4-35.1-14.8 27.7-42.5-11.1-25.9 20.4-20.4-5.6 18.5 24.1-35.1 31.4-33.3 20.3-25.9-53.6v-40.7l-14.8-1.8 7.4-31.4 7.4-5.6-7.4-3.7-13-18.5 14.8-29.5-24-68.4 3.7-20.4-18.5-22.1 14.8-18.5-7.4-20.4 14.8-25.8-7.4-18.5 20.3-31.4-7.4-5.6 5.6-5.5 55.5-11.1zm432.8 371.5l-11.1 20.3-29.6-1.8 27.7-7.4v-25.9l7.4 3.7zm-527.1 114.6l25.9-40.6-1.9-25.9 20.4 11.1-16.7 20.3 11.1 16.6-11.1 25.9 14.8 57.3-11.1 11.1-7.4-5.5 5.6 11.1-11.1 3.7 11.1 7.3-9.3 11.1 22.2 5.6-18.5 12.9 11.1-1.8-5.5 14.8 11.1-9.3 7.4 9.3-14.8 14.7 25.9-5.5v-9.2l5.5 9.2 13-14.8 7.4 27.7 1.8-14.7h16.7v-22.2l20.3-24.1 5.6 7.4 9.2-7.4v11.1l14.8-18.5 1.9 11.1 12.9-9.2-7.4-1.9 7.4-12.9 11.1 14.8 5.5-16.6 9.3 25.8 11.1-9.2 12.9 22.2-3.7-22.2 9.3 12.9 5.5 33.3-9.2 11.1 14.8 31.4 1.8-12.9 14.8 14.8 3.7-16.7 9.3 7.4-1.9-40.6 9.3-7.4-1.9 31.4 11.1-18.5 3.7 20.3 9.3-7.4 3.7 18.5 11.1-5.5 25.9 37-1.9 25.8 14.8-20.3 11.1 29.6-7.4 22.2 5.6 7.3 20.3-11-5.5 22.1 20.3-5.5-9.2 11.1-31.5-13-9.2 11.1-1.9-9.2-3.7 57.3 11.1-18.5-3.7-27.7 11.1 35.1 16.7-22.2-9.3 20.4 7.4 18.4-11.1 9.3-7.4-24-16.6 16.6 1.8 12.9-9.2-7.4-3.7 14.8 18.5 3.7v11.1l-14.8-7.4-16.7-11.1-5.5 9.3 7.4-3.7 3.7 14.8-31.5-7.4-16.6 20.3-14.8 9.2-14.8 5.6-18.5-11.1-1.9 9.2v-12.9l-16.6 3.7 7.4 3.7-7.4 11.1h-1.9l-38.8-1.9-12.9-14.8-3.7 11.1-7.4-11.1-11.1 11.1-3.7-1.8 3.7-14.8-9.3 11.1-11.1-9.3-33.3 7.4-44.4-20.3 5.6-18.5-11.1 7.4-14.8-14.8 1.8-14.8-16.6 7.4 1.8-12.9-18.5-1.8 5.6-14.8-14.8-1.9 5.5-24 5.6-13-9.3 7.4-20.3-5.5 9.2-16.6-12.9 5.5 1.8-33.3 1.9-7.4 11.1-31.4-1.9-64.7 16.7-38.8 11.1-3.7-7.4-5.5-3.7-31.5 3.7-14.7 3.7-5.6 14.8 9.2zm551.2 81.4l-11.1-14.8-44.4-11.1 27.7-1.8-27.7-27.8 7.4-14.8 12.9 1.9-9.2 5.5 5.5 16.7 16.7-16.7-1.9-18.5 13 13-7.4 20.3 22.2 37zm-120.3 53.6l-18.5-31.4 24.1 11.1 3.7 20.3h12.9l13 18.5 16.6-9.3-1.8 18.5 25.9 1.9-5.6 14.8 16.7 1.8-3.7 12.9 12.9-9.2-1.8 12.9-13 1.9 3.7 14.8-9.2 11.1-29.6-11.1-9.3-38.8-7.4 16.6v-22.2l-12.9-9.2v12.9l-13 1.9 7.4-13zm-42.5 16.7l37 12.9 5.5 31.4-9.2-16.6-3.7 12.9 7.4 11.1-14.8-1.8 5.5-20.4h-11.1l-5.5-18.5-9.2-1.8-3.7 18.5zm36.9 51.7l16.7 1.9-5.6 11.1 16.7 11.1-20.4 3.7 22.2 5.5 7.4 9.3-14.8 3.6-9.2 24.1-9.3-3.7 7.4-9.3-18.5-3.7v22.2l-12.9-7.4-5.7 5.2-16.5-45.8 13 22.1 16.6 3.7 1.8-25.8-14.7-14.8 14.7 9.2-7.4-18.5zm-40.6 86.9l-1.9-9.2 15.9-3.6zm14.1-12.7l0.6-0.6 0.1 0.4zm54.4 42.3h-13l13-1.8z"/>
		<path id="Path 1" fill-rule="evenodd" class="s1" d="m248.9 155.3l59.2-62.9-3.7 51.8zm-18.5 168.2l-27.8-29.6-9.2-37 22.2-70.2 27.7-25.9 7.4 5.6-20.3 31.4 7.4 18.5-14.8 25.9 7.4 20.3-14.8 18.5 18.5 22.2zm88.8 232.9l35.1-31.5-18.5-24 20.3 5.5 25.9-20.3 42.6 11.1 14.8-27.7 7.4 35.1-9.3 18.5-18.5 3.7 3.7 11.1 18.5 1.8 20.4 20.4 5.5-9.3 25.9 22.2 11.1-3.7 11.1 22.2 20.4-7.4v-14.8l14.8-1.9 7.3-18.4 22.2-3.7 27.8-88.8 48.1-51.7-1.9-44.4-11.1-1.8-5.5-18.5-5.6 11.1-16.6-1.9 5.5 7.4-14.8 1.9 1.9 18.5-20.4 18.4-42.5 5.6-7.4-9.3-11.1 9.3-70.3-14.8-24 9.2-25.9-12.9 5.5-16.6-14.8-27.8 18.5-14.7 38.9-5.6 42.5-1.8 1.9 14.7 20.3 1.9 37-9.2 5.5-29.6 42.6-44.4 38.8 18.5 1.9 29.6 27.7 35.1 37-3.7 14.8-9.2-3.7-16.7 16.7 9.3 12.9-18.5 25.9-5.6-27.7-96.1 18.5 3.7-11.1-22.2 11.1 7.4 18.5-9.2 36.9 73.9-7.4 20.4-25.8-11.1-9.3 7.4 18.5 55.4 11.1 1.9-1.9-11.1 29.6 7.4 9.3 12.9-11.1 33.3 9.2 51.7-12.9-35.1-13 1.9 7.4 16.6-22.2-7.4 7.4-11.1-20.3-22.2-3.7 7.4-33.3-22.2 9.3 20.4-20.4-5.6 9.3 16.7-11.1 1.8-3.7 20.3-42.6-29.5 18.5 48-20.3-9.2 9.2 27.7-18.5-7.4-5.5 18.5 24 5.5 3.7-11 5.6 22.1 16.6-16.6 7.4 9.2-7.4-3.7v25.9l-27.7 7.4 29.6 1.9 11.1-20.4h12.9l-12.9 27.8 35.1-1.9 13-31.4 7.3 18.5-20.3 20.3 7.4 27.7-12.9 1.9-5.6 25.9-9.2 7.4 5.5 7.3 3.7-14.7 22.2 3.7 31.4-13-64.7 48.1-12.9-13 1.8 18.5-16.6 16.7-5.6-16.7 9.3-5.5-13-1.9-7.4 14.8 27.8 27.7-27.8 1.9 44.4 11.1 11.1 14.8 11.1 55.4-20.3 27.7-5.6 35.2-20.3 14.8-3.7-14.8 12.9-1.9 1.9-12.9-13 9.2 3.7-12.9-16.6-1.9 5.5-14.8-25.9-1.8 1.9-18.5-16.7 9.3-12.9-18.5h-13l-3.7-20.4-24-11.1 18.5 31.5 11.1 27.7-7.4 12.9 12.9-1.8v-13l13 9.3v22.2l7.4-16.7 9.2 38.9 29.6 11-20.3 25.9 7.4 18.5-40.7 48.1-13 1.8h13l-18.5 18.5 3.7-16.6h-24.1l3.7 9.2-20.3-7.4-1.9 9.3-12.9-7.4-7.4 29.5 9.2-9.2 1.9 11.1-44.4 12.9v-11.1l-18.5-3.7 3.7-14.8 9.3 7.4-1.9-12.9 16.6-16.6 7.4 24 11.1-9.2-7.4-18.5 9.3-20.4-16.7 22.2-11.1-35.1 3.7 27.7-11 18.5 3.7-57.3 1.8 9.2 9.2-11 31.5 12.9 1.8 9.2 14.1-12.7-15.9 3.5 9.2-11.1-20.3 5.6 5.5-22.2-20.3 11.1-5.6-7.4 7.4-22.2-11.1-29.6-14.7 20.3 1.8-25.8-25.9-37-11.1 5.5-3.7-18.4-9.2 7.4-3.7-20.4-11.1 18.5 1.8-31.4-9.2 7.4 1.8 40.6-9.2-7.4-3.7 16.7-14.8-14.8-1.9 12.9-14.8-31.4 9.3-11.1-5.6-33.3-9.2-12.9 3.7 22.2-13-22.2-11.1 9.3-9.2-25.9-5.6 16.6-11.1-14.8-7.4 13 7.4 1.8-12.9 9.3-1.9-11.1-14.8 18.4v-11l-9.2 7.3-5.6-7.3-20.3 24v22.2h-16.6l-1.9 14.8-7.4-27.8-12.9 14.8-5.6-9.2v9.2l-25.9 5.6 14.8-14.8-7.4-9.3-11.1 9.3 5.6-14.8-11.1 1.8 18.5-12.9-22.2-5.6 9.2-11-11.1-7.4 11.1-3.7-5.5-11.1 7.4 5.5 11.1-11.1-14.8-57.3 11.1-25.8-11.1-16.7 16.6-20.3-20.3-11.1 7.4-31.4 14.8 1.8v40.7l25.9 53.6zm299.6 293.9l12.9 7.4v-22.2l18.5 3.7-7.4 9.2 9.3 3.7 9.2-24 14.8-3.7-7.4-9.2-22.2-5.6 20.4-3.7-16.7-11.1 5.6-11.1-16.7-1.8-7.4-11.1 3.7-12.9 9.3 16.6-5.6-31.4-37-13-1.8 27.8 3.7-18.5 9.2 1.8 5.6 18.5h11.1l-5.6 20.3 14.8 1.9-18.5 3.7 7.4 18.5-14.8-9.3 14.8 14.8-1.8 25.9-16.7-3.7-12.9-22.2 16.5 45.8-0.6 0.6 0.8-0.2-0.2-0.3zm-5.7 5.1h0.1l-0.1 0.1zm-360.5-415.6l7.4 3.7-7.4 5.5zm590 16.7l3.7-11.1 3.7 5.5v1.9zm-647.3 144.1l18.5-22.1-3.7 31.4zm-7.4 20.3l-5.6-9.2 9.3-5.6zm0 40.7l3.7-9.2 7.4 5.5zm-29.6 175.6l12.9-5.5-9.2 16.6 7.2 2-10.9 9.1zm24 16.6l-3.7 13v-11.1l-12.9 9.2 3.6-14.6zm-12.9-3.6h-0.2l0.2-0.1zm13 3.5l9.2-7.4-5.5 13zm38.8 68.4l-22.2-1.9-5.5-9.2 9.2-3.7-12.9-1.9-13-22.2h3.7l14.8 1.9-5.5 14.8 18.5 1.8-1.9 13 16.7-7.4zm14.8 14.8l11.1-7.4-5.6 18.4zm294.1 13l-3.7-14.8-7.4 3.7 5.6-9.2 16.6 11zm-48.1 13l16.7-20.4 31.4 7.4-24 16.7-11.1-13zm-66.6 3.7l16.6-3.7v13l1.9-9.3 18.5 11.1 14.8-5.5-22.2 18.5-29.6-9.3 7.4-11.1zm-75.9 9.3l11.1-11.1 7.4 11.1 3.7-11.1 13 14.8 38.8 1.8-1.8 9.3-14.8-3.7h-13l1.9 9.2-24.1-1.8 9.3-9.3-18.5 1.9z"/>
		<path id="Path 2" class="s2" d="m837.1 316.1l-29.6-7.4 1.8 11.1-11.1-1.9-18.5-55.4 9.3-7.4 25.9 11.1 7.4-20.4 16.6 31.5zm-101.7 136.7l-7.4-9.2-16.7 16.6-5.5-22.1-3.7 11.1-24.1-5.6 5.6-18.5 18.5 7.4-9.3-27.7 20.4 9.2-18.5-48 42.5 29.5 3.7-20.3 11.1-1.8-9.2-16.7 20.3 5.6-9.2-20.4 33.3 22.2 3.7-7.4 20.3 22.2-7.4 11.1 22.2 7.4-7.4-16.6 13-1.9 12.9 35.1 1.9 31.5-3.7 11-24.1 33.3v22.2l13 20.3-13 11.1-31.4 13-22.2-3.7 5.5-25.9 13-1.9-7.4-27.7 20.3-20.3-7.4-18.5-12.9 31.4-35.2 1.9 13-27.8h-13zm20.4 107.2l9.2-7.3-3.7 14.7zm-606.7 295.8l9.3-16.6v20.3l11.1-9.3-3.7 14.8 12.9-9.2v11.1l3.7-13 3.7 5.6-5.5 24h-3.7l-27.8-24zm451.4 79.5l-1.9-11.1-9.2 9.2 7.4-29.6 12.9 7.4 1.8-9.2 20.4 7.4-3.7-9.3h24l-3.7 16.7-22.2 20.3-9.2-9.2zm-270 35.1l9.2-11.1-3.7 14.8zm85.1 11.1l29.6 9.2-14.8 9.3h-1.9l-16.6-9.3 1.8-9.2zm-62.9 5.5l18.5-1.8-9.2 9.2zm33.3 9.3l-1.9-9.3h13z"/>
		<path id="Path 3" fill-rule="evenodd" class="s0" d="m705.7 347.5l11.1 14.8-18.5-7.4zm-218.2 35.1l24-1.8-7.4 11.1-33.3-3.7-3.7-7.4 18.5 1.8zm233.1 136.8l35.1 22.2-27.7 24 11.1 7.4-9.3 9.2-16.6-14.7 12.9-5.6-18.5-1.8h24.1l7.4-16.7-37-1.8 27.7-5.6zm-44.4 3.7l9.3 5.6-14.8 5.5zm-321.8 27.8l5.5-13 9.3 1.9-5.6 7.4 14.8-3.7-9.2 22.1-3.7-7.4-9.3 16.7zm0 0l-3.7 9.2-9.2-3.7zm401.3 9.3l-9.2 3.7 12.9-14.8zm-386.5 5.5l7.4 13-9.3 16.6zm303.3 11.1l13 5.5-7.4-14.8 20.3-1.8-12.9 9.2h24l-7.4 9.3h11.1l-11.1 3.7 3.7 9.2-12.9-14.8-25.9 7.4v-3.7zm0 0l-14.8-3.7 18.5-5.5zm38.8 46.2l7.4 3.7-12.9 3.7zm46.2 40.7l1.9 11-11.1 3.7zm-288.6 40.7l5.6 16.6-13-11zm133.2 25.8h-9.2l3.7-11.1zm72.1 40.7l-1.9 9.3-9.2-9.3zm-77.7 20.3l13 7.4-7.4 5.6zm44.4 61l-9.3 24-11.1-5.5z"/>
		<path id="Path 4" fill-rule="evenodd" class="s1" d="m637.3 61l48.1 18.5 24 35.1v11.1l-14.8-5.6-7.4 13-12.9-9.3-22.2 18.5 16.6 11.1-1.8 40.7-44.4-33.3-92.5-24-9.2 7.4-33.3-24.1 9.2-18.4 29.6 3.7-12.9 20.3 59.2-12.9 5.5-13 29.6-5.5-7.4-9.3 22.2 1.9-7.4-16.7 24 1.9zm92.5 134.9v-14.6l13 7.2zm0-14.6l-0.2-0.1 0.2-0.1zm-13 3.6l-3.7-12.9 16.5 9.3zm13 11.1l12.9 1.8v12.9l-12.9 22.2-33.3-33.2 35.1 9.2zm-408.7 199.6l-13 1.9-1.8 12.9-25.9 1.9-1.9-11.1-18.5 11.1 5.6-53.6 11.1-13 62.9-16.6 24 14.8v7.4l-20.3-16.7-31.5 5.6-24 31.4-1.9 25.9 11.1 9.2 11.1-16.6zm13-13v-11l29.6-3.7-3.7 22.1zm-81.4 24.1l11.1 18.4-9.3 1.9zm562.3 49.9l3.7 12.9-14.8 13zm-438.3 343.8l24 20.3-14.8 31.4 3.7-35.1zm255.3 35.1l3.6-33.2 11.1 31.4zm-216.4-22.2l20.4 18.5-3.7 9.2-9.3-11-7.4 9.2zm0 153.4v7.4l-14.8-5.5z"/>
		<path id="Path 5" fill-rule="evenodd" class="s2" d="m485.6 382.6l-16.6-7.4-33.3 9.3-31.5-37 25.9-18.5h38.9l16.6 20.4 11.1-5.6 35.2 22.2 3.7-7.4 35.1 27.7-12.9 1.9-1.9-9.3v9.3l-31.4 3.7-20.4-29.6-16.6 20.3zm-164.6 13l-13-5.6-11.1 16.7-11.1-9.3 1.9-25.9 24-31.4 31.5-5.5 20.3 16.6v16.6l-29.6 3.7v11.1zm475.4-48l14.8 9.2v11.1l-5.6-11.1-5.5 5.6zm-382.9 199.6l12.9 11.1 1.9 36.9 11.1 1.9 9.2-37-5.5 49.9 16.6-40.6 5.6 27.7 20.3 18.5 18.5 7.4 5.6-9.3 9.2 22.2 22.2-12.9 5.6 12.9-3.7-18.5 24-27.7-7.4-16.6 13 7.4 7.4-22.2 36.9-24.1-5.5-12.9 7.4 5.6 14.8-35.2 3.7 7.4 14.8-22.2 24-5.5-12.9 22.2 14.8 18.5-20.4 27.7 4.5 4.9-11.9 13.6v20.3l16.7 7.4v3.7l-1.9 14.8 7.4-13 7.4 24.1-9.2-1.9 3.7 27.8-11.1 1.8 9.2 9.2-12.9-7.3-11.1 1.8 9.2 5.5-3.7 24.1-25.9 3.7-14.8-25.9-31.4 16.6-3.7-14.8-9.2 9.3-24.1-22.2 22.2 37 14.8-3.7-7.4 9.2 7.4 22.2-9.2-14.8-1.9 12.9-11.1-7.3 9.3 24-13-13 1.9 18.5-22.2-5.5 3.7 12.9-9.3-18.5-3.7 7.4-5.5-11.1 1.8-29.5-24-33.3-7.4 14.8 11.1 11.1-14.8-11.1-14.8 11.1-7.4-14.8-1.9 14.8-11.1-14.8-9.2 14.8-9.3-14.8-14.8 5.5-5.5-20.3-5.6 11.1-5.5-12.9-14.8 5.5 7.4-16.6-77.7 51.7-16.6-3.7 5.5-12.9-16.6 12.9-9.3-9.2-29.6 9.2 11.1-42.5 7.4 3.7 35.2-49.9 14.8 5.5 3.7-14.7 7.4 18.4 11.1-11.1 7.4 7.4 5.5-18.4 3.7 24 18.5 1.8v-9.2l24 20.3-3.7-33.2 7.4-5.6 5.6 11.1 5.5-16.6 5.6 18.4zm248.6-2.4l1.1-1.3 12.9 16.7zm21.4-65.9h9.3l-9.3 14.8 9.3 5.5-16.6-5.5zm-270.1 68.3l-12.9 18.5-9.3-38.8-42.5 5.6 29.6-35.2 59.2 5.6v14.8l-29.6 5.5zm349.5-44.3l9.3 7.3-11.1 3.7z"/>
		<path id="Path 6" class="s1" d="m372.8 626.6l18.5 5.6-29.6 7.4z"/>
		<path id="Path 7" class="s2" d="m626.2 101.7l18.5 7.4 3.7 14.7-11.1 5.6 12.9 9.2-9.2 5.6 24 18.5-9.2 11.1-62.9-40.7 7.4-20.3-24 16.6 16.6-24z"/>
	</g>
</svg>