<svg version="1.2" xmlns="http://www.w3.org/2000/svg" viewBox="0 0 1500 1500" width="1500" height="1500">
	<title>lenin2-svg</title>
	<style>
		.s0 { fill: #ffffff } 
		.s1 { fill: #808080 } 
		.s2 { fill: #000000 } 
		.s3 { opacity: .9;fill: #fcfcfc } 
		.s4 { fill: #848484 } 
	</style>
	<g id="Layer 3">
		<path id="Path 0" class="s0" d="m854.5 0.1c2.8-0.1 9.1 1.9 21.5 6.8 9.6 3.9 42.9 17.1 130.5 51.7l21 14.5c11.5 8 25.7 17.7 31.5 21.7 5.8 3.9 23.5 16 68.2 46.7l43.2 85c23.8 46.8 46.4 91.3 57.4 113l13.4 99-13.8 19c-7.6 10.4-13.8 19.1-13.8 19.2-0.1 0.1-3.1-0.6-6.9-1.5-5.5-1.4-6.7-2.1-6.7-3.7 0-1.1 0.7-8.8 1.5-17 0.8-8.3 1.4-15.1 1.3-15.2-0.2 0-3.9 2.8-8.3 6.3-4.4 3.5-8.1 6.7-8.3 7.1-0.2 0.5 2.6 13.6 6.2 29.3 3.7 15.7 6.5 28.6 6.4 28.8-0.2 0.2-15.9-2.6-35.1-6.2-19.1-3.7-35.2-6.6-35.7-6.6-0.6 0-1 4-1 10 0 9.6-0.1 10-2.2 10.5-1.3 0.2-8.4 1-29.3 3.3l-21.7-8.4c-12-4.6-22.1-8.4-22.5-8.4-0.5 0-3 4.6-10.8 20.3l-3.2-5.2c-1.8-2.8-3.5-5.1-3.8-5.1-0.3 0-8 2.3-17.2 5.1-9.3 2.8-16.9 5.1-17.1 5.2-0.1 0.1 0.5 4.7 1.3 10.2 0.9 5.5 1.5 10.1 1.3 10.2-0.2 0-9.1-1.3-19.8-3.1-10.7-1.7-20-3.5-20.5-3.8-0.5-0.3-2.4-4-4-8.3-1.6-4.3-3.2-7.9-3.5-8.1-0.3-0.2-10.6 4.4-23 10.2-12.4 5.8-24 11.2-29 13.4l-6.7-8.5c-3.8-4.7-6.8-8.6-6.8-8.6 0 0-39.6-4-88-8.8-48.4-4.8-88.1-8.7-88.3-8.7-0.1 0.1 0.4 3 1.3 6.6 0.9 3.6 1.3 6.7 0.9 7-0.3 0.3-8.5 1.2-18.3 2.1-9.7 0.9-17.8 1.7-18.1 1.8-0.3 0 2.5 3.1 13.1 13.6l-17.2 45 8.5 8.5c5.4 5.4 8.3 9 7.8 9.8-0.4 0.6-2.9 1.9-5.7 2.7-2.7 0.8-6 1.5-7.2 1.5-1.3 0-2.3 0.5-2.3 1 0 0.5-5.1 2.6-11.2 4.5-6.2 1.9-12.5 4.5-14 5.7-1.6 1.3-3.2 4-3.8 6-0.5 2.1-1.6 4.4-2.3 5-0.8 0.7-1.7 2.3-2 3.5-0.4 1.3-1.7 3.2-5.2 6.3h2.8c1.5 0 2.7-0.5 2.7-1 0-0.5 1.2-0.9 2.8-0.9 1.5 0.1 5.5-0.2 9-0.7 3.4-0.5 6.2-1.2 6.2-1.7 0-0.4 1.1-0.6 2.5-0.5 1.3 0.2 2.5 0 2.5-0.5 0-0.4 1.7-0.6 3.8-0.5 2 0 7.4-0.5 12-1.3 4.5-0.8 8.2-1.7 8.2-2.2 0-0.4 1.6-0.5 3.5-0.2 2 0.3 3.5 0.1 3.5-0.5 0-0.5 1.2-0.9 2.8-0.8 1.5 0.1 5.5-0.1 9-0.5 3.4-0.4 6.2-1.2 6.2-1.7 0-0.5 0.8-1 1.8-1 0.9 0 2.9 1.2 4.3 2.7 1.4 1.5 5.6 7.1 15.9 21.8v18l-10.2 3.4c-5.7 1.9-9.6 3.6-8.8 3.8 0.8 0.1 7.8 0.9 29.5 3.3l34.5 34.5 34.8-7 3.3-10.3c3.3-10 3.5-10.3 6.9-11.2 1.9-0.5 6.4-1.6 10-2.5 3.6-0.9 8.2-2 14-3.5l0.5-17.1 11.3 8c6.1 4.5 11.7 8.1 12.2 8.1 0.6 0 1-8.1 1-44.5l13.6-10.5c7.4-5.8 14.3-11.1 15.2-11.8 1.5-1.1 1.2-1.7-3.3-6.2-2.9-2.9-4.4-5-3.5-5 0.8 0 11 1.3 22.5 3 11.5 1.7 21.7 3 22.5 3 1.1 0 1.3-0.6 0.8-2.7-0.3-1.5-0.9-4.5-1.8-10.3h6.5c3.6 0 6.5-0.2 6.5-0.5 0-0.3-2.3-5.1-5.1-10.7-2.8-5.7-4.7-10.6-4.2-10.9 0.4-0.3 4.3-3.3 16.3-12.9l31.2 24.5 51.6 121-4.9 19c-2.6 10.5-4.9 19.8-4.9 20.8 0 1.5 1 1.7 16.5 1.7l-1.7 13.3c-0.9 7.2-1.7 13.3-1.7 13.5-0.1 0.1-4.7 0.2-20.6 0.2l-6.8 17.5-6.9-14-27.3 27.6-87 7-27.4 27.4-1.4-3.5c-0.8-1.9-5.4-14.9-10.3-28.8-4.9-13.9-9.1-25.2-9.4-25.2-0.3 0-6.6 12.1-14 27-7.4 14.8-13.3 27.1-13 27.4 0.3 0.2 4.8 2.3 10 4.6 5.2 2.3 10.5 4.6 11.8 5.1 1.9 0.8 2.6 0.3 5.5-4.2 1.7-2.7 3.5-4.9 3.9-4.7 0.4 0.2 6 5.5 12.5 11.9 6.5 6.4 12.4 11.4 13.1 11.2 0.6-0.2 1.5 0.5 1.8 1.5 0.3 0.9 2.5 3.2 5 5 2.4 1.7 4.9 3.2 5.4 3.2 0.5 0 0.9 0.4 0.8 0.9-0.2 0.4 4.2 6.1 9.7 12.6 9.8 11.5 10 11.7 8 13.4-1.1 1-7.3 6.5-13.8 12.2-6.5 5.7-12 11.3-12.2 12.4-0.3 1.1-1.6 11.7-3.1 23.5-1.4 11.8-3 22-3.5 22.5-0.6 0.6-0.9 0.3-0.9-1 0-1.1-0.5-8.1-1.1-15.5-0.6-7.4-1.3-13.7-1.5-14-0.2-0.3-4 1.1-8.5 3-6.9 3-8.2 3.3-8.9 2-0.5-0.8-1.3-3.9-1.9-6.7-0.6-2.9-1.4-5.3-1.8-5.3-0.5 0-6.7 1.5-27.2 6.5l-18.8 40.7c-10.3 22.4-19.1 40.2-19.4 39.5-0.4-0.7-1.3-5-3.4-18l-27.5-13.7-1.4 2.3c-0.7 1.2-7 13-13.9 26.2-6.9 13.2-14.6 27.8-21.8 41l0.7-8.5c0.4-4.7 0.8-10.3 0.9-16.3l-16.7-6.6c-9.2-3.6-16.8-6.6-16.8-6.6 0 0 0.8 2.5 1.9 5.5 1 3 3.3 9.2 8.1 22l-18 25v47l20.5 0.5-16 6.3-0.6 38.7-6.4 4.7c-3.6 2.7-6.7 4.8-7 4.8-0.3 0-3.3-4.2-6.6-9.3-3.4-5-6.4-9.5-6.8-10-0.3-0.4-6.2-0.1-13.1 0.8-6.9 0.8-12.6 1.4-12.8 1.3-0.1-0.2 3-2.3 7-4.7 4-2.4 7.5-4.6 7.8-4.7 0.3-0.2-1-4.1-2.9-8.6-1.9-4.6-3.6-8.4-3.8-8.6-0.2-0.1-5.7 3.6-12.3 8.3-6.9 4.9-12.5 8.2-13.2 7.8-0.7-0.3-20.7-13.3-44.3-28.8-23.6-15.5-50.2-32.9-59-38.7-8.8-5.8-16.5-11.1-17.1-11.9-0.7-0.8-9.8-16.9-20.4-35.9-10.6-19-25.1-44.9-45-80.5l-10.5-55.3-26.5-6.2c-14.6-3.4-27.7-6.5-29.3-6.9-2.2-0.5-6.2-5.4-36.8-48.6l13.6-1 1.2-7c0.7-3.9 1.5-8.5 2.3-13.5h27.5l20.8-20.8c14.7-14.7 20.7-21.3 20.7-22.9 0-1.3-0.6-2.3-1.2-2.3-1 0-1.1-1.4-0.5-6 0.5-4.5 0.4-6-0.5-6-1 0-1.1-1.4-0.5-6 0.5-4.5 0.4-6-0.5-6-1 0-1.1-1.4-0.5-6 0.6-4.9 0.4-6.1-0.8-6.5-0.8-0.3-1.5-1.4-1.5-2.5 0-1.2-0.8-2.2-2-2.5-1.1-0.3-2-1.2-2-2 0-0.8-1.6-3.5-7-10.5l-4.2 2.1c-2.4 1.2-4.5 2.5-4.8 2.8-0.3 0.4-2.7 1.9-5.5 3.4-2.7 1.5-5.2 2.7-5.5 2.7-0.3 0 0.6-1 2-2.1 1.4-1.1 2.1-2 1.5-1.9-0.6 0-8.4 1.3-17.5 2.9-9.1 1.6-21.2 3.7-27 4.7-6.8 1.1-10.9 2.3-11.7 3.3-0.7 0.9-3.2 7.3-5.5 14.3-2.4 7-4.5 12.5-4.8 12.2-0.3-0.3-1-12.6-1.7-27.2-0.6-14.7-1.2-31.1-1.3-46.2l8-9.5c4.4-5.2 8.3-9.5 8.8-9.5 0.4 0 6.6 6.8 13.7 15 7.1 8.2 13.4 14.9 14 14.9 0.6 0.1 6.6-2 13.5-4.5 6.9-2.5 12.8-4.9 13.1-5.3 0.4-0.3-2.3-7.5-12.6-31.2l-21.5-9c-11.8-5-22.4-9.2-23.5-9.4-1.1-0.3-3.1-0.9-4.5-1.4-1.4-0.5-3.2-1.1-4-1.4-0.8-0.2-1.8-0.5-2.2-0.6-0.5 0-4.3-1.4-16.3-6l-2.2 2.2c-1.2 1.2-2.3 2.8-2.3 3.4 0 0.7-1.5 2.7-3.2 4.4-2.3 2.2-3.7 2.9-4.7 2.3-0.8-0.5-1.6-1.4-1.8-1.9-0.2-0.5 3.2-6 15.3-23l26-0.5c24.3-0.5 26.8-0.8 41.4-3.8 8.5-1.8 15.6-3.1 15.8-2.7 0.1 0.2-2.7 4.8-12.8 19.5l3.3 1.5c1.7 0.8 8.7 3.9 15.5 7 7.5 3.4 12.2 5 12.2 4.3 0-0.7-0.7-5.1-1.5-9.8-0.8-4.7-1.2-8.7-0.9-9 0.3-0.3 2.6 0 5.2 0.7 2.6 0.6 5.4 1.4 6.2 1.8 1.2 0.4 2.9-3.9 15.3-44l-1.3-15.5c-0.7-8.5-1.6-16.5-2.5-19.7l-10 2.9c-5.5 1.5-10.7 2.7-11.6 2.6-1.5-0.3-1.3-1.5 1.3-10.3 1.6-5.5 2.7-10.8 2.4-11.8-0.4-1 0.2-2.5 1.4-3.7 1.1-1.1 2-2.5 2-3 0-0.5 0.4-1 1-1 0.6 0 1-0.7 1-1.5 0-0.8 0.9-2.4 2-3.5 1.1-1.1 2-2.4 2-3 0-0.6 0.4-1 1-1 0.6 0 0.8-0.9 0.5-2-0.4-1.6 0-2 1.8-2 2 0 2.6-1.3 5.7-12 1.9-6.6 3.3-12.2 3-12.4-0.3-0.3-4.3 0.1-9 0.9-4.7 0.8-9.1 1.5-9.7 1.5-0.8 0 1.5-5.6 12.2-27l-8.2-16.5c-4.6-9.1-8.3-17.1-8.3-17.8 0-0.6 2.2-3.3 4.8-6 2.7-2.7 4.1-4.7 3.2-4.7-0.8 0-4.9 0.6-9 1.4-4.1 0.8-7.8 1.2-8.2 1-0.5-0.2 1.9-3.8 5.2-7.9 3.3-4.1 6-7.8 6-8.2 0-0.5-2-2.8-4.4-5.3-2.5-2.5-4.3-4.8-4.1-5.2 0.3-0.5 3.6 0.8 7.5 2.7 3.9 1.9 7.4 3.5 8 3.5 0.6 0 3-3.3 5.4-7.2 2.5-4 4.6-7.9 4.8-8.6 0.2-0.7-6.8-4.4-36.7-17.9l-6.8-13.4c-3.8-7.4-6.7-13.8-6.4-14.4 0.2-0.6 3.8-3 8.1-5.5 6.3-3.7 7.6-4.9 7.6-7 0-1.4-0.7-6.8-1.5-12-0.7-5.2-1.1-9.7-0.8-10 0.3-0.3 6.4-1.2 26.8-3.5l8.3-16.3c4.5-8.9 8-16.5 7.7-16.9-0.2-0.5-7.5 3.5-16.2 8.8-8.7 5.3-15.9 9.3-16 9-0.2-0.3 2.6-10 6.2-21.6 3.5-11.6 6.3-21.1 6.2-21.2-0.1-0.2-6.5 5.4-14.2 12.4-7.7 6.9-15 13.5-16.2 14.7-1.3 1.2-2.5 1.8-2.8 1.4-0.3-0.5 3.8-12.4 9.1-26.5 5.6-14.9 10.8-27.1 12.3-29 1.4-1.7 11.4-12.3 22-23.5 10.7-11.2 24-25 29.6-30.8 7.4-7.6 12.3-11.8 18.1-15.1 4.3-2.6 29.3-16.9 55.4-32 30.2-17.3 53-29.7 62.5-33.9 8.3-3.7 26-11.6 39.5-17.5 13.5-6 33.5-14.8 64.5-28.6l45.5-6.4c25-3.6 50.7-7.2 57-8 6.3-0.9 23.4-3.3 38-5.4 14.6-2.1 28.3-3.9 30.5-4z"/>
		<path id="Path 1" class="s1" d="m403.5 232.3c0.1 0.2-2.7 9.7-6.2 21.3-3.5 11.5-6.2 21.2-6 21.5 0.1 0.3 7.3-3.7 16-9 8.7-5.3 16-9.3 16.2-8.9 0.3 0.5-3.2 8.1-16 33.3l-13.1 1.5c-7.3 0.8-13.4 1.7-13.7 2-0.3 0.3 0 4.8 0.8 10 0.8 5.2 1.5 10.6 1.5 12 0 2.1-1.3 3.3-7.6 7-4.3 2.5-7.9 4.9-8.1 5.5-0.3 0.6 2.6 7 13.2 27.8l18.5 8.3c11.4 5.2 18.4 8.9 18.2 9.6-0.2 0.7-2.3 4.6-4.8 8.5-2.4 4-4.8 7.3-5.4 7.3-0.6 0-4.1-1.6-8-3.5-3.9-1.9-7.2-3.2-7.5-2.8-0.2 0.5 1.6 2.8 4.1 5.3 2.4 2.5 4.4 4.8 4.4 5.2 0 0.5-2.7 4.2-6 8.3-3.3 4.1-5.7 7.7-5.2 7.9 0.4 0.2 4.1-0.2 8.2-1 4.1-0.8 8.2-1.4 9-1.4 0.9 0-0.5 2-3.2 4.7-2.6 2.7-4.8 5.4-4.8 6 0 0.7 3.7 8.7 16.5 34.3l-6.7 13.5c-4 7.9-6.3 13.5-5.5 13.5 0.6 0 5-0.7 9.7-1.5 4.7-0.8 8.7-1.2 9-0.9 0.3 0.2-1.1 5.8-3 12.4-3 10.3-3.8 12-5.6 12-1.1 0-2.4 0.4-3 0.9-0.5 0.5-7.2 2.1-14.9 3.5-7.7 1.5-14.4 2.5-15 2.3-0.6-0.3-2.5-5.1-7.8-21.2l12.9-13.1c7.1-7.3 12.9-13.5 12.9-13.9 0-0.4-4.1-2.8-9-5.4-7.7-4-9-5-8.9-7.1 0-1.4 0.4-4.2 1.4-10l-10.7 4.5c-6 2.5-11.5 4.3-12.3 3.9-0.8-0.3-6.8-3.9-13.2-8-6.5-4.1-12-7.4-12.3-7.4-0.3 0-1.1 2.5-1.7 5.5-0.7 3.1-1.7 5.5-2.3 5.5-0.6 0-1.6-17.4-4.3-93.5l13.5-26c7.4-14.3 14.5-27.8 15.8-30 1.2-2.2 5.1-9.6 8.6-16.4 3.8-7.4 7.8-13.8 9.9-15.7 1.9-1.7 9.8-8.8 17.4-15.8 7.7-6.9 14-12.4 14.1-12.3z"/>
		<path id="Path 2" class="s2" d="m332.6 431c0.2 0 5.7 3.3 12.1 7.4 6.5 4.1 12.5 7.7 13.3 8 0.8 0.4 6.3-1.4 23-8.4l-0.7 3.8c-0.3 2-0.6 4.8-0.6 6.1-0.1 2 1.4 3.1 8.7 7 4.8 2.5 8.9 5 9 5.5 0 0.4-5.7 6.7-25.7 27.1l3.4 10.4c1.9 5.7 3.8 10.5 4.4 10.8 0.5 0.2 7.1-0.8 14.5-2.2 7.4-1.4 14.3-2.8 15.2-3 1.1-0.3 1.8 0.1 1.8 1 0 0.8-0.5 1.5-1 1.5-0.6 0-1 0.4-1 1 0 0.6-0.9 1.9-2 3-1.1 1.1-2 2.7-2 3.5 0 0.8-0.5 1.5-1 1.5-0.6 0-1 0.7-1 1.5 0 0.8-0.5 1.5-1 1.5-0.6 0-1.5 1-2 2.2-0.6 1.3-6.7 6.3-13.7 11.3-6.9 5-15.8 11.2-19.7 13.9-3.9 2.7-7.3 5.2-7.6 5.5-0.3 0.4-2.8 2.1-5.5 3.9-2.8 1.8-6.4 4.3-8 5.7-1.7 1.4-2.4 2.5-1.8 2.5 0.7 0 11.8-2.6 24.5-5.9 12.8-3.2 24.5-6.1 28.8-7.1l0.1 26.5-7.3 3.7c-4 2-10.9 5.3-15.3 7.2-4.4 2-8.8 4.1-9.8 4.6-0.9 0.6-6.7 3.2-12.7 6-6.1 2.7-11.7 5-12.5 5-0.8 0-1.6 0.5-1.8 1-0.1 0.6-3.9-0.5-8.4-2.3-4.6-1.7-8.3-3.7-8.3-4.2 0-0.5 2.2-9.9 5-20.8 2.7-10.8 5-19.8 5-20 0-0.1-3.1-1.8-13.9-7.2l13.9-27.5-1.6-38.8c-1.1-25.4-1.3-39.2-0.7-40.2 0.5-0.8 1.5-3.9 2.2-6.8 0.7-2.8 1.4-5.2 1.7-5.2z"/>
		<path id="Path 3" class="s1" d="m1202.8 439.5c0.2 0.1-0.3 7-1.2 15.1-0.9 8.2-1.6 15.8-1.6 16.9 0 1.6 1.2 2.3 6.7 3.7 3.8 0.9 6.8 1.6 6.9 1.5 0-0.1 6.1-8.4 13.4-18.5 7.4-10.1 13.5-18.2 13.7-18 0.2 0.2-3.5 20.3-8.2 44.8-4.7 24.5-8.7 44.6-8.8 44.8-0.1 0.1-8.7-2.9-38.2-13.6l-26 2.9c-14.3 1.5-35 3.8-66 7.3l-58.7 27.1-20.6 41 10.9 39.5c6 21.7 11.3 40.7 12.4 44.8l7.5-4.4c4.1-2.4 8.5-4.4 9.8-4.4 1.2 0 6.1 1.8 11 4 4.8 2.2 8.9 3.7 9.2 3.4 0.3-0.4 0.1-0.8-0.5-1-0.5-0.2-3.2-2.1-11-8.4l-3.2-17.3c-1.7-9.4-3.2-18.2-3.2-19.4-0.1-1.3 0.3-2.2 0.9-2 0.5 0.1 6.9 6.1 27.2 26.2l18.2-1.4c9.9-0.7 19.2-1.6 20.4-2 1.8-0.4 4.4-4.3 10.5-15.3 5.4-9.8 8.7-14.7 9.7-14.5 1.1 0.1 1.8 3.3 4.5 26.2l6 0.6c3.3 0.4 20.2 1.9 69 6.3l14.5 21.6-5.2 57.3c-2.8 31.4-5.4 57.5-5.7 57.8-0.3 0.4-7.2 1.3-15.3 2-8 0.8-14.9 1.7-15.2 2.2-0.3 0.4 1.2 3.1 3.4 6 2.2 2.8 4 5.7 4 6.2 0.1 0.5-5 3.2-11.2 5.9-6.2 2.7-11.4 5.1-11.5 5.3-0.2 0.2 2.9 5.1 6.8 11.1 4 5.9 7.6 11.2 8.1 11.7 0.5 0.6 0.6-3.9-0.7-23.5h14.5v7.5c0 5.3 0.4 7.5 1.3 7.5 0.6 0 3.3-4.3 6-9.5 2.6-5.2 4.7-10.2 4.7-11 0-0.8 0.5-1.5 1-1.5 0.6 0 1 0.6 1 1.3 0 0.6-1.5 15.9-3.3 33.8-1.7 18-3.5 33-3.9 33.3-0.5 0.3-1.9-1.6-3.3-4.4-1.4-2.7-2.8-5-3.2-5-0.5 0-1.4 2.6-2.2 5.7-0.7 3.2-1.7 7.2-2.1 8.8-0.5 1.6-1.1 4.9-1.4 7.3-0.3 2.3-1 4.2-1.6 4.2-0.5 0-1.3-1.2-1.6-2.7-0.3-1.6-1-3.8-1.5-5-0.5-1.3-0.9-3.2-0.9-4.3 0-1.1-0.7-2-1.5-2-1.2 0-1.5 1.3-1.5 6 0 3.5-0.5 6.5-1.2 7.3-0.7 0.7-6.7 5.2-13.3 10.2-6.6 4.9-12.2 9.1-12.5 9.3-0.3 0.2 2.5 6.3 6.3 13.7 3.7 7.5 6.3 13.5 5.7 13.5-0.5 0-4.4-1.4-8.5-3-4.1-1.6-7.7-3-8-3-0.3 0-0.5 0.6-0.5 1.3 0 0.6-1.7 3.9-3.8 7.2-2 3.3-4.5 7.4-5.5 9-0.9 1.6-2.1 3.8-2.5 4.8-0.4 1-1.8 2.1-3.2 2.3-1.4 0.3-7.8 1.9-26 6.4l-12.2-9.7c-6.8-5.3-12.9-10.3-13.5-11-0.7-0.7-1.6-1.3-2-1.3-0.5 0-2.4-1.5-4.5-3.3-2-1.7-4.4-3.9-5.5-4.7-1-0.8-2.9-2.3-4.3-3.2-1.4-1-3.4-2.4-4.5-3.3-1.9-1.5-1.8-1.7 4.8-8.3 6.5-6.3 6.8-6.9 6.2-10.2-0.4-1.9-1.2-5.3-2-7.5-0.7-2.2-1.9-6-2.5-8.5-0.7-2.5-2.1-7-3.1-10-0.9-3-2.7-9.1-3.9-13.5-1.2-4.4-2.6-9.8-3.1-12-0.5-2.2-0.8-4.1-0.7-4.2 0.2-0.1 9.3-2.1 20.3-4.4 11-2.3 21.8-4.4 23.9-4.8 2.2-0.3 4.1-1.1 4.3-1.6 0.2-0.5-2.4-3.5-5.8-6.5-3.4-3-7.7-6.9-9.7-8.5-1.9-1.6-4.3-3.7-5.2-4.5-0.9-0.8-4.5-4-8.1-7-3.5-3-6.9-5.9-7.5-6.5-0.6-0.5-2.5-2.2-4.3-3.7-1.7-1.6-4-3.1-5.1-3.5-1.1-0.5-7-0.3-13.2 0.4-6.2 0.7-12.8 1.5-17.8 2.3v-4.5c0-2.9-0.4-4.5-1.2-4.5-0.7 0-2.2 1.8-3.3 4.1-1.1 2.3-2.3 4.3-2.7 4.5-0.5 0.2-2 0-3.5-0.5-1.6-0.5-5.5-1.5-8.8-2.1-3.3-0.7-8.5-1.9-11.5-2.6-3-0.8-5.8-1.4-6.2-1.4-0.5 0-0.8 3.1-0.8 14l-10.7-0.6c-6-0.3-26.1-1.1-44.8-1.8-33.8-1.3-34-1.3-37 0.7-1.6 1.2-3.2 2.4-3.5 2.7-0.3 0.3-3.9 3.1-8 6.3-4.1 3.1-7.9 6-8.5 6.5-0.5 0.4-3.7 2.8-7 5.2-3.3 2.5-6.5 5-7.2 5.5-0.6 0.5-2.8 2.2-8.3 6.5l3 5.5c1.7 3 2.7 5.5 2.3 5.5-0.5 0-5.5-4.7-11.3-10.5-5.8-5.8-10.8-10.5-11.2-10.5-0.5 0-2.1 2.3-3.8 5-2.7 4.4-3.3 4.9-5.2 4.1-1.3-0.5-6.6-2.8-11.8-5.1-5.2-2.3-9.7-4.4-10-4.6-0.3-0.3 5.6-12.6 13-27.4 7.4-14.9 13.7-27 14-27 0.3 0 4.5 11.3 9.4 25.2 4.9 13.9 9.5 26.9 11.7 32.3l27.4-27.4 87-7 27.3-27.6 6.9 14 6.8-17.5h10.3c5.6 0 10.2-0.1 10.3-0.2 0-0.2 0.8-6.3 3.4-26.8h-8.2c-7.2 0-8.3-0.2-8.3-1.7 0-1 2.3-10.3 9.8-39.8l-51.6-121-31.2-24.5-7.7 6.2c-4.3 3.4-8.2 6.4-8.6 6.7-0.5 0.3 1.5 5.2 4.2 10.9 2.8 5.6 5.1 10.4 5.1 10.7 0 0.3-3 0.5-13.5 0.5l0.7 2.7c0.3 1.6 0.9 4.5 1.2 6.6 0.4 2.6 0.2 3.7-0.6 3.7-0.7 0-10.7-1.3-22.3-3-11.5-1.7-21.7-3-22.5-3-0.9 0 0.6 2.1 3.5 5 4.5 4.5 4.8 5.1 3.3 6.2-0.9 0.7-7.8 6-28.8 22.3v22.3c0 14.1-0.4 22.2-1 22.2-0.5 0-6.1-3.6-23.5-16.1l-0.5 17.1-3.7 0.9c-2.1 0.6-6.7 1.7-10.3 2.6-3.6 0.9-8.1 2-10 2.5-3.4 0.9-3.6 1.2-10.2 21.5l-34.8 7-34.5-34.5-14-1.5c-7.7-0.9-14.7-1.7-15.5-1.8-0.8-0.2 3.1-1.9 19-7.2v-17.5h34.5l31.5-31.5v24.5l2.8-0.6c1.5-0.3 8.2-1.3 14.8-2.2 10.8-1.5 12.3-1.5 13.8-0.2 0.9 0.8 1.9 3.2 2.1 5.3 0.3 2 0.8 3.9 1.3 4.2 0.4 0.2 2.5-1.6 4.7-4.2 2.2-2.5 5.1-5.9 6.5-7.5 1.4-1.6 3.6-4.3 5-6 1.4-1.6 3.5-4.2 4.7-5.7 1.2-1.4 4.3-5.1 11.2-13.6l-6.2-6.2c-5-5-5.9-6.5-4.9-7.5 1-1 2.7-0.8 9 1.4 4.2 1.5 7.8 2.6 7.9 2.5 0.1-0.1-3.9-7.5-8.8-16.4-4.9-9-8.9-17-8.9-17.8 0-0.8 0.7-1.5 1.5-1.5 0.8 0 5.1 1.8 17.5 8l-0.7-2.7c-0.4-1.6-0.7-4.2-0.8-8.8l12.8-0.2c11.6-0.3 12.7-0.5 12.2-2-0.3-1-1.6-4.4-2.8-7.6-1.2-3.1-2.9-5.9-3.7-6.2-0.8-0.2-10.7-1.6-22-3-11.3-1.4-34.7-4.3-52-6.5-17.3-2.3-43.4-5.6-58-7.5-14.6-1.8-26.8-3.1-27.1-2.7-0.3 0.4-1.2 3.6-1.8 7.2-0.6 3.6-1 6.6-0.9 6.7 0.2 0.2 7.5 1 16.3 1.9 8.8 0.9 16.5 2.1 17 2.5 0.6 0.6-0.2 3.9-2.4 9.4-1.8 4.7-3.1 8.5-2.7 8.5 0.3 0 2.4-0.9 4.6-2 2.2-1.1 4.9-2 6-2 1.5 0 2.2 1 2.9 3.8 0.6 2 2.1 8.4 3.5 14.2 1.5 5.8 2.5 10.6 2.4 10.7-0.2 0.1-11.5 2-25.3 4.3-13.7 2.2-33.4 5.4-43.7 7-10.4 1.7-19.1 3-19.5 3-0.3 0-0.3-0.3 0.1-0.7 0.4-0.5-3.2-4.6-16.5-17.8l17.2-45-6.8-6.8c-3.7-3.7-6.6-6.8-6.3-6.8 0.3-0.1 8.4-0.9 18.2-1.8 9.7-0.9 17.9-1.8 18.2-2.1 0.4-0.3 0-3.4-0.9-7-0.9-3.6-1.4-6.5-1.3-6.6 0.2 0 39.9 3.9 88.3 8.7 48.4 4.8 88 8.8 88 8.8 0 0 3 3.9 13.5 17.1l3.3-1.4c1.7-0.8 13.3-6.2 25.7-12 12.4-5.8 22.7-10.3 23-10.2 0.3 0.2 1.9 3.8 3.5 8.1 1.7 4.3 3.5 8 4 8.3 0.6 0.3 9.8 2.1 20.5 3.8 10.7 1.8 19.6 3.1 19.8 3.1 0.2-0.1-0.4-4.7-1.2-10.2-0.9-5.5-1.5-10.1-1.4-10.2 0.2-0.1 7.8-2.4 17.1-5.2 9.2-2.8 16.9-5.1 17.2-5.1 0.3 0 2 2.3 7 10.3l5-10.2c2.8-5.5 5.3-10.1 5.8-10.1 0.4 0 10.5 3.8 44.2 16.8l13.5-1.5c7.4-0.8 14.5-1.6 15.8-1.8 2.1-0.5 2.2-0.9 2.2-10.5 0-6 0.4-10 1-10 0.6 0 16.6 3 35.8 6.6 19.1 3.6 34.8 6.4 35 6.2 0.1-0.2-2.7-13.1-6.4-28.8-3.6-15.7-6.4-28.8-6.2-29.3 0.2-0.4 3.9-3.6 8.2-7.1 4.4-3.5 8.1-6.3 8.4-6.1z"/>
		<path id="Path 4" class="s2" d="m1184 516.1c0.3-0.1 9.4 3.2 40.1 14.4l-0.1 124.5h-3.3c-1.7 0-18-1.4-36.2-3-18.2-1.7-33.7-3.1-34.5-3.3-1.2-0.2-1.8-3.3-3-13.2-1.2-9.9-1.9-13.1-3-13.3-1-0.1-4.3 4.8-9.7 14.5-6.1 11.1-8.7 15-10.5 15.4-1.3 0.4-10.5 1.3-38.6 3.4l-13.1-13c-7.2-7.2-13.6-13.1-14.1-13.3-0.6-0.1-1 0.8-0.9 2 0 1.3 1.5 10 6.4 36.8l5 4c2.8 2.3 5.5 4.2 6 4.4 0.5 0.2 0.8 0.6 0.5 1-0.3 0.3-4.4-1.2-9.2-3.4-4.9-2.2-9.8-4-11-4-1.3 0-5.7 2-17.3 8.8l-0.7-2.7c-0.4-1.4-5.7-20.4-22.7-81.6l20.7-41 58.7-27.1 20.5-2.3c11.3-1.3 31.5-3.6 45-5.1 13.5-1.5 24.7-2.8 25-2.9z"/>
		<path id="Path 5" class="s1" d="m399.7 523.3c0.2 0.7-0.9 5.7-2.5 11.2-2.6 8.9-2.8 10-1.3 10.3 0.9 0.1 6.1-1.1 21.6-5.5l0.6 2.1c0.3 1.1 1.2 9.1 3.2 33.1l-6.9 22.3c-5.5 17.8-7.2 22.1-8.4 21.7-0.8-0.4-3.6-1.2-6.2-1.8-2.6-0.7-4.9-1-5.2-0.7-0.3 0.3 0.1 4.3 0.9 9 0.8 4.7 1.5 9.1 1.5 9.8 0 0.7-4.7-0.9-12.2-4.3-6.8-3.1-13.8-6.2-18.8-8.5l6.5-9.5c3.6-5.2 6.4-9.7 6.3-10-0.2-0.3-7.7 0.9-16.8 2.7-15.1 2.9-16.8 3.1-19.8 1.8-1.8-0.8-3.3-1.8-3.2-2.2 0-0.5 3.5-2.4 7.8-4.4 4.2-1.9 10.4-4.8 13.7-6.4 3.3-1.5 9.6-4.5 14-6.5 4.4-2 11.3-5.3 22.6-11l-0.1-26.5-2.7 0.6c-1.6 0.4-13.3 3.3-26 6.5-12.8 3.3-23.9 5.9-24.5 5.9-0.7 0 0.1-1.1 1.7-2.5 1.6-1.4 5.3-3.9 8-5.7 2.8-1.8 5.5-3.7 6-4.3 0.6-0.5 4.2-3.1 8-5.8 3.9-2.6 12.6-8.7 19.4-13.6 7.2-5.3 12.5-8.5 12.8-7.8z"/>
		<path id="Path 6" class="s2" d="m737.3 530.5c1.8 0.3 15.8 2.1 31.2 4 15.4 2 40.2 5.1 55 7 14.9 2 36.2 4.6 47.5 6 11.3 1.4 21.2 2.8 22 3 0.8 0.3 2.5 3.1 3.7 6.2 1.2 3.2 2.5 6.6 2.8 7.5 0.5 1.6-0.6 1.8-25 2.3v3c0.1 1.6 0.4 4.2 1.5 8.5l-8-4c-4.4-2.2-8.7-4-9.5-4-0.8 0-1.5 0.7-1.5 1.5 0 0.8 4 8.8 8.9 17.8 4.9 8.9 8.9 16.3 8.8 16.4-0.1 0.1-3.7-1-7.9-2.5-6.3-2.2-8-2.4-9-1.4-1 1-0.1 2.5 11.1 13.7l-4.5 5.5c-2.4 3-5.5 6.7-6.7 8.2-1.2 1.5-3.3 4-4.7 5.6-1.4 1.7-3.6 4.3-5 6-1.4 1.6-4.3 5-6.5 7.5-2.2 2.6-4.3 4.4-4.7 4.2-0.5-0.3-1-2.2-1.3-4.2-0.2-2.1-1.2-4.5-2.1-5.3-1.4-1.3-3-1.3-12.3-0.2-5.8 0.7-12.3 1.6-18.1 2.7v-12.2c0-9.9-0.3-12.3-1.4-12.3-0.8 0-8.3 7-32.1 31h-15.7c-8.7 0-16.5-0.3-17.4-0.7-1-0.5-4.4-4.6-7.7-9.3-3.3-4.7-7.2-9.7-8.6-11.3-1.4-1.5-3.4-2.7-4.3-2.7-1 0-1.8 0.5-1.8 1 0 0.5-2.8 1.3-6.2 1.7-3.5 0.4-7.5 0.6-9 0.5-1.6-0.1-2.8 0.3-2.8 0.8 0 0.6-1.5 0.8-3.5 0.5-1.9-0.3-3.5-0.2-3.5 0.3 0 0.4-3.7 1.3-8.2 2.1-4.6 0.8-10 1.3-12 1.3-2.1-0.1-3.8 0.1-3.8 0.6 0 0.4-1.2 0.6-2.5 0.5-1.4-0.2-2.5 0-2.5 0.5 0 0.4-2.8 1.1-6.2 1.6-3.5 0.5-7.5 0.8-9 0.7-1.6 0-2.8 0.4-2.8 0.9 0 0.5-1.2 1-5.5 1l2.3-2c1.2-1.1 2.5-3 2.9-4.2 0.3-1.3 1.2-2.9 2-3.5 0.7-0.7 1.8-3 2.3-5 0.6-2.1 2.2-4.8 3.8-6.1 1.5-1.2 7.8-3.8 14-5.7 6.1-1.9 11.2-4 11.2-4.5 0-0.5 1.1-1 2.5-1 1.4 0 5.8-1.1 9.8-2.4 3.9-1.3 9.5-2.6 12.2-3 2.8-0.4 21.7-3.4 42-6.7 20.4-3.3 37.1-6.1 37.3-6.2 0.1-0.1-0.9-4.9-2.4-10.7-1.4-5.8-2.9-12.2-3.5-14.2-0.7-2.8-1.4-3.8-2.9-3.8-1.1 0-3.8 0.9-6 2-2.2 1.1-4.2 2-4.5 2-0.3 0 1-3.8 2.8-8.5 2.1-5.5 2.8-8.8 2.2-9.4-0.5-0.4-8.2-1.6-17-2.5-8.8-0.9-16.1-1.7-16.3-1.9-0.2-0.1 0.2-2.9 0.8-6.2 0.6-3.3 1.3-6.6 1.6-7.3q0.5-1.3 3.7-0.7z"/>
		<path id="Path 7" class="s3" d="m322 608.4c14 0 19.9 0.2 13 0.4-6.9 0.1-18.4 0.1-25.5 0-7.1-0.2-1.5-0.4 12.5-0.4z"/>
		<path id="Path 8" class="s4" d="m801.7 621c1 0 1.3 3 1.3 12 0 10.6 0.2 12 1.7 12.4 1.3 0.3 1.1 0.4-0.5 0.5-2.2 0.1-2.2-0.1-2.2-24.4l-31.5 31.5h-17.3c-9.4 0-17.4-0.3-17.6-0.8-0.2-0.4 7.3-0.6 33.9-0.1l15.5-15.6c8.5-8.5 16-15.5 16.7-15.5zm-499.7 4.1c4.4 1.6 8.1 2.9 8.2 2.8 0.2 0 1.2 0.3 2.3 0.6 1.1 0.4 3.6 1.3 5.5 2.1 1.9 0.7 3.8 1.1 4.2 0.9 0.5-0.3 1-0.2 1.2 0.2 0.2 0.5-5 6.2-23.5 24.8l0.3 5.1c0.2 2.9 0 5-0.5 4.8-0.4-0.2-0.7-2.8-0.7-10.9l11.3-11.2c10.9-10.9 11.1-11.3 8.7-12.1-1.4-0.6-7.5-2.6-13.5-4.6-7.5-2.5-11.3-3.4-12-2.6-0.5 0.5-1.4 1-2 1-0.5 0-0.2-0.8 0.8-1.9 1.7-1.9 1.8-1.9 9.7 1z"/>
		<path id="Path 9" class="s2" d="m294.8 624.1c0.1 0 5 1.5 10.9 3.5 6 2 11.9 4 13.3 4.6 2.4 0.8 2.2 1.2-20 23.3l1.5 37c0.8 20.4 1.5 39.2 1.5 47l-4.4-8c-2.4-4.4-8.6-16.1-23.3-44l5.4-27c4.7-23.7 5.7-27.3 7.8-29.3 1.4-1.2 2.5-2.8 2.5-3.5 0-0.6 1-1.7 2.2-2.3 1.3-0.7 2.4-1.2 2.5-1.3z"/>
		<path id="Path 10" class="s1" d="m281 633.4c0.8 0.9 2.1 1.6 2.8 1.6 0.7 0 1 0.8 0.7 2.3-0.3 1.2-2.7 13-10.2 50.2l9.5 18c5.2 9.9 11.5 21.6 18.4 34l-0.7-15.5c-0.3-8.5-0.8-27.2-1.6-67.5l12-12c6.7-6.6 12.4-11.9 12.8-11.8 0.5 0.1 10 3.9 41.8 17.1l6.6 15.4c3.7 8.4 6.4 15.6 6 15.9-0.3 0.4-6.2 2.8-13.1 5.3-6.9 2.5-12.9 4.6-13.5 4.5-0.6 0-6.9-6.7-14-14.9-7.1-8.2-13.3-15-13.7-15-0.5 0-4.4 4.3-16.8 19l0.1 9.8c0 5.3 0.6 21.7 1.2 36.4 0.7 14.6 1.4 26.9 1.7 27.2 0.3 0.3 2.4-5.1 4.8-12.2 2.3-7 4.8-13.4 5.5-14.3 0.8-1 4.9-2.2 11.7-3.3 5.8-1 17.9-3.1 27-4.7 9.1-1.6 16.8-2.9 17.3-2.9 0.4 0-0.8 1.4-2.5 3.1-1.8 1.6-11.8 7.8-22.1 13.7-14.3 8.1-18.7 11.1-18.2 12.2 0.4 0.8 8.5 15 18.1 31.5 9.5 16.5 17.4 30.6 17.4 31.3 0 0.9-3.4 1.2-28 1.2l-0.5 3.3c-0.3 1.7-1.1 6.3-3 17.2l-14.5 0.5-6.4-12.2c-3.5-6.8-11-21.1-16.6-31.8-5.6-10.7-12.6-24-15.5-29.5-2.9-5.5-10-19-15.8-30-5.9-11-10.6-20.9-10.7-22 0-1.1 4.3-16.9 9.5-35 5.3-18.1 9.9-34 10.3-35.3 0.6-2.1 0.8-2.1 2.2-0.8z"/>
		<path id="Path 11" class="s2" d="m393.5 709.1l3.7 4.2c2.1 2.3 3.7 5 3.8 5.9 0 1 0.9 2 2 2.3 1.2 0.3 2 1.3 2 2.5 0 1.1 0.7 2.2 1.5 2.5 1.2 0.4 1.4 1.6 0.8 6.5-0.6 4.6-0.5 6 0.4 6 1 0 1.1 1.5 0.5 6-0.5 4.6-0.4 6 0.5 6 1 0 1.1 1.5 0.5 6-0.5 4.6-0.4 6 0.5 6 0.7 0 1.3 1 1.3 2.2 0 1.6-5.8 8.1-19.8 22-10.8 10.9-20 19.8-20.4 19.8-0.5 0-8.6-13.6-18.2-30.3-9.6-16.6-17.7-30.9-18.1-31.7-0.4-1.1 5.5-5 24.7-15.9 13.9-8 25.6-14.8 26-15.1 0.4-0.4 2.4-1.6 4.5-2.8z"/>
		<path id="Path 12" class="s0" d="m1116.9 727c0.3 0 3.4 2.8 13.2 12.5l-5 10.3c-2.8 5.6-5 10.4-4.9 10.6 0.2 0.2 6.7 1.1 14.5 2 7.9 0.9 14.7 1.6 15.3 1.6 0.6 0 1 4.2 1 21l27.9 0.5-34.4 12.6-7.5-4.5c-4.1-2.5-8.1-4.6-8.8-4.6-0.7 0 0.1 2.6 2.3 7 1.9 3.9 3.4 7.2 3.2 7.5-0.1 0.3-6.3-6.1-13.7-14.2-7.3-8.2-13.6-14.8-14-14.7-0.3 0-2.1 2.6-4 5.8-1.9 3.1-3.6 5.5-3.8 5.4-0.1-0.2 3.9-13.5 8.9-29.6 5.1-16 9.5-29.2 9.8-29.2z"/>
		<path id="Path 13" class="s2" d="m1223.3 793.1c2.9-0.1 3.7 0.3 3.7 1.6-0.1 1-0.7 5.2-1.5 9.3-0.7 4.1-1.8 7.7-2.4 8-0.6 0.3-3.6 5.2-12 21.5l-0.1-15.5h-16.5l0.7 5.2c0.4 2.9 1 8.7 1.4 12.8q0.7 7.5-0.3 6.5c-0.6-0.5-4.3-5.8-8.2-11.8-3.9-5.9-7-10.8-6.8-11 0.1-0.2 5.3-2.6 11.5-5.3 6.2-2.7 11.2-5.4 11.2-5.9 0-0.5-1.8-3.4-4-6.3-2.2-2.8-3.7-5.5-3.4-6 0.3-0.4 5.6-1.2 11.7-1.8 6.2-0.6 12.9-1.2 15-1.3zm-180.7 6.9c1 0 1.4 1.3 1.4 9l3.3-0.5c1.7-0.3 8.3-1.1 14.5-1.8 6.2-0.7 12.1-0.9 13.2-0.5 1.1 0.5 2.6 1.4 3.4 2 0.7 0.7 2.6 2.4 4.2 3.8 1.6 1.4 5.8 5 9.3 8 3.6 3 7.2 6.2 8.1 7 0.9 0.8 3.3 2.8 5.2 4.5 2 1.6 6.3 5.5 9.7 8.5 3.4 3 6 6 5.8 6.5-0.2 0.5-2.1 1.3-4.3 1.6-2.1 0.4-12.9 2.5-23.9 4.8-11 2.3-20.1 4.3-20.3 4.4-0.1 0.1 0.2 2 0.7 4.2 0.5 2.2 1.9 7.6 3.1 12 1.2 4.4 3 10.5 3.9 13.5 1 3 2.4 7.5 3.1 10 0.6 2.5 1.8 6.3 2.5 8.5 0.8 2.2 1.6 5.6 2 7.5 0.6 3.3 0.3 3.9-6.2 10.2-6.6 6.6-6.7 6.8-4.8 8.3 1.1 0.9 3.1 2.3 4.5 3.3 1.4 0.9 3.3 2.4 4.3 3.2 1.1 0.8 3.5 3 5.5 4.7 2.1 1.8 4 3.3 4.5 3.3 0.4 0 1.3 0.6 2 1.3 0.6 0.7 6.7 5.7 25.7 20.7l11.8-2.9c6.4-1.6 12.8-3.2 14.2-3.5 1.4-0.2 2.8-1.3 3.2-2.3 0.4-1 1.6-3.2 2.5-4.8 1-1.7 3.5-5.7 5.5-9 2.1-3.3 3.8-6.6 3.8-7.3 0-0.6 0.2-1.2 0.5-1.2 0.3 0 2.2 0.7 4.3 1.6 2 0.9 6.1 2.4 9 3.5 2.9 1 5.2 1.4 5.2 0.9 0-0.5-2.9-6.7-6.5-13.8-5.3-10.5-6.2-13-5.2-14.3 0.7-0.9 5.9-5.2 11.7-9.5 5.8-4.4 11.1-8.5 11.8-9.2 0.7-0.7 1.2-3.7 1.2-7.2 0-4.7 0.3-6 1.5-6 0.8 0 1.5 0.9 1.5 2 0 1.1 0.4 3 0.9 4.2 0.5 1.3 1.2 3.5 1.5 5 0.3 1.6 1.1 2.8 1.6 2.8 0.5 0 1.3-1.9 1.6-4.3 0.3-2.3 0.9-5.6 1.4-7.2 0.4-1.7 1.4-5.6 2.1-8.8 0.8-3.1 1.7-5.7 2.2-5.7 0.4 0 2 2.6 6.7 11.5l-31 88.5 24.2 96.5-3.2 26.5c-1.7 14.6-3.3 27.2-3.6 28-0.2 0.8-0.6 1.3-0.8 1-0.2-0.3-2.6-12.2-10.1-52.5l-3.2 19.5c-1.8 10.7-3.4 19.6-3.5 19.7-0.2 0.1-7-3.5-30.3-16.4l-0.7 3.6c-0.5 2-4 34.9-7.8 73.1-3.9 38.2-8.5 82.5-13.2 127.5l-5.5 12.5c-3 6.9-11.6 26.5-19 43.5-7.5 17-15.5 35.5-17.8 41-2.4 5.5-6.1 14-8.3 19-2.1 5-9.4 21.6-16.1 37-6.8 15.4-12.3 28.1-12.4 28.2-0.1 0.1-12.2 0.9-26.9 1.7-14.8 0.9-28.8 1.6-31.3 1.6-2.7 0-4.7-0.5-4.9-1.3-0.2-0.6-1.4-4.6-2.6-8.7-1.3-4.1-3.2-10.4-4.2-14-1.1-3.6-2.6-8.3-3.3-10.5-0.7-2.2-1.6-5.2-1.9-6.8-0.5-2.1-1.2-2.7-3.1-2.7-1.4 0-6.9 1.1-12.2 2.4-5.4 1.3-11.5 2.7-13.5 3-2.1 0.3-3.8 1.2-3.8 1.8 0 0.7 1.3 5.3 3 10.3 1.7 5 3 9.2 3 9.5 0 0.3-1.4 0.8-3.2 1.2-1.8 0.5-5.3 1.2-7.8 1.7-3.6 0.8-7.8 0.4-21-2-9.1-1.6-17.6-3.4-19-4-1.4-0.6-7.5-5.3-13.5-10.3-6-5.1-18.4-15.3-44-36.4l0.2-11.3c0.1-6.3 0.7-16.9 1.2-23.7 0.6-6.7 1.1-13.1 1.1-14.2 0-1.1-0.5-2-1-2-0.5 0-3-1.3-5.5-3-2.5-1.7-4.8-3-5.2-3-0.5 0-1.8-1-3-2-2.1-1.8-2.3-2.8-2.3-13 0-6.7 0.4-11 1-11 0.5 0 3.3 3.5 6.2 7.7 2.8 4.3 5.3 8 5.5 8.3 0.1 0.3 1.4-0.8 2.8-2.5 1.3-1.7 3-4.1 3.7-5.5 0.7-1.4 1.9-3.2 2.7-4 0.7-0.8 1.8-2.3 2.2-3.3 0.5-0.9 1.6-1.7 2.4-1.7q1.5 0 1.5 3c0 1.7 0.6 6.2 1.3 10 0.6 3.9 1.5 7 2 7 0.4 0 1.7-1.7 2.9-3.8 1.2-2 3.1-4.6 4-5.7 1-1.1 1.8-2.2 1.8-2.5 0-0.3 0.7-1.5 1.7-2.7 1-1.2 2.4-2.2 3.1-2.3 0.8 0 1 1.1 0.7 3.7-0.4 2.1-0.8 4.5-1 5.3-0.3 0.9 1.7 3 5.1 5.5 3 2.2 6 4.5 6.7 5 0.7 0.6 3.3 2.5 6 4.3 2.6 1.8 5.2 3.2 5.7 3.2 0.5 0 1-0.3 1-0.8 0-0.4 1.4-16.2 3.1-35.2 1.8-19 3.6-34.6 4.1-34.8 0.4-0.1 0.8-1.3 0.8-2.7 0-1.4-0.6-2.5-1.2-2.5-0.7 0-4.3 2.9-8 6.5-6.4 6.1-7 6.5-10.5 6-2.1-0.3-9.9-2.2-17.3-4.2-7.4-1.9-14.2-3.9-15-4.3-1-0.5-2-3.7-2.8-9.1-0.7-4.6-1.2-8.4-1-8.5 0.2 0 5.3-2.4 11.3-5.4 6-2.9 12-5.9 13.3-6.7 2.1-1.3 2.1-1.4 0.5-3.7-1-1.3-2.5-3.4-3.3-4.6-0.8-1.2-2.4-3.3-3.5-4.6-2-2.4-2.1-2.4-6.5-0.9-2.5 0.8-5.2 1.8-6 2.2-0.8 0.3-4.4 1.6-8 2.9-3.6 1.3-7.3 2.4-8.2 2.4-1.2 0-1.8-0.8-1.8-2.3 0-1.2-0.5-4-1-6.2-0.6-2.2-1.4-3.6-1.8-3.1-0.4 0.4-1.7 4-2.9 8-1.3 3.9-2.7 7.3-3.1 7.6-0.5 0.3-2.2 4.3-3.7 9-1.5 4.7-4.1 12.2-8.5 25h-6.5c-4.5 0-6.5 0.4-6.5 1.2 0 0.7 1.4 8 3.1 16.3 1.7 8.2 5.1 24.7 7.5 36.5 2.4 11.8 6.3 30.8 8.6 42.2 2.4 11.4 4.1 21 3.8 21.3-0.3 0.4-1.5 0.4-2.7 0.1-1.6-0.4-2.3-1.3-2.3-3.1 0-1.4-0.3-2.5-0.7-2.5-0.5 0-1.3-1-2-2.2-0.7-1.3-2.5-5.2-4.1-8.8-1.6-3.6-3.9-8.5-5-11-1.1-2.5-2.7-6.2-5.2-12l-7.5 0.5c-6.2 0.4-7.5 0.2-7.5-1 0-0.8 0.7-1.5 1.5-1.5 0.8 0 1.8-0.6 2.1-1.3 0.3-0.6-0.3-4-1.3-7.5-1-3.4-2-6.2-2.3-6.2-0.3 0-2.2 1.1-4.2 2.5-2.7 1.8-3.9 2.2-4.3 1.2-0.3-0.6 0.1-5.7 0.9-11.2 0.8-5.5 1.3-10.1 1.2-10.2 0-0.2-6.2-1-13.6-1.8-7.4-0.9-14.5-1.8-15.7-2-1.3-0.3-2.6-1.5-2.9-2.8-0.4-1.2-1.5-4-2.5-6.2-1-2.2-2.8-6.5-3.9-9.5-1.2-3-2.8-7.1-3.7-9-0.8-1.9-1.9-4.5-2.4-5.8-0.5-1.2-1.3-3.2-1.8-4.5-0.5-1.2-2.2-5.4-3.7-9.2-1.5-3.8-3.1-7.5-3.6-8-0.5-0.5-0.8-1.8-0.8-2.8 0-0.9 1.8-5.2 3.9-9.5 2.2-4.2 4.5-8.5 5.3-9.5 1.2-1.6 2-1 9.3 6.4 4.4 4.4 8.3 7.7 8.6 7.2 0.4-0.4 1.4-4.2 2.4-8.3 0.9-4.1 2.8-12.2 4.2-18 1.3-5.8 3.4-14.3 4.5-19 1.2-4.7 2.4-8.9 2.7-9.3 0.3-0.4 1.6 0.2 2.8 1.5 1.2 1.3 3.9 4.3 6 6.7 2.1 2.4 4.6 5.2 5.6 6.3 0.9 1 2.4 2.9 3.2 4.3 0.8 1.4 1.8 2.5 2.3 2.5 0.4 0 1.5-3.7 2.5-8.2 1-4.6 2.4-11 3.2-14.3 0.7-3.3 2-9.6 3-14 0.9-4.4 2.4-11.2 3.2-15 0.8-3.8 1.7-7.6 1.9-8.3 0.2-0.6 0.9-1.1 1.5-1 0.6 0.2 2.7 3.5 4.8 7.5 2 3.9 3.8 7.4 4.1 7.7 0.3 0.3 4.8-0.8 10-2.4 5.2-1.7 10.4-3.5 11.5-4 1.1-0.5 5.2-1.8 9-3.1 3.9-1.2 7.5-2.5 8-2.9 0.5-0.4 5.2-2 10.2-3.6 5.1-1.6 9.5-2.7 9.7-2.4 0.3 0.3-0.1 4.8-0.9 10-0.8 5.2-1.5 10.1-1.5 10.7 0 0.9 0.5 1 1.8 0.3 0.9-0.5 4.7-3.8 8.3-7.2 3.6-3.5 9.9-9.2 14-12.8 4.1-3.6 8.6-7.7 10.1-9.3 2-1.9 3-2.4 3.6-1.5 0.4 0.7 2.1 5.1 3.7 9.8 1.7 4.7 3.4 8.5 3.9 8.5 0.5 0 3.6-8.2 7-18.1 3.3-10 6.4-18.4 6.9-18.8 0.4-0.3 1.5 0.8 2.5 2.4 0.9 1.7 2.2 3 2.7 3 0.5 0 1.8-0.8 2.8-1.8 1-0.9 1.7-2 1.7-2.5 0-0.4 1.4-2.7 3-5.2 1.7-2.5 3.5-4.5 4-4.5 0.5 0 1 0.7 1 1.5 0 0.8 0.6 3.4 1.4 5.7 0.7 2.4 1.9 6.3 2.6 8.8 0.7 2.5 1.6 5.6 2 7 0.4 1.4 1.2 4.1 1.7 6 0.6 1.9 1.6 5.5 2.3 8 0.7 2.5 1.6 5.4 2 6.5 0.6 1.6 0.9 1.7 1.3 0.5 0.3-0.8 1-4.2 1.7-7.5 0.7-3.3 1.9-8.8 2.6-12.3 0.8-3.4 2-9 2.8-12.5 0.8-3.4 2.1-9.8 3.1-14.2 0.9-4.4 2-9.8 2.5-12 0.5-2.2 1.7-7.4 2.6-11.5 0.9-4.1 2.5-11.3 5.6-24.5l-2.4-2c-1.4-1.1-4.2-3.5-6.4-5.2-2.1-1.8-4.6-3.3-5.4-3.3-0.8 0-2.4 1.4-3.4 3.2-1.1 1.8-2.2 3.5-2.6 3.8-0.4 0.3-2.7 3.4-5.1 7-2.4 3.6-4.9 7.1-5.6 7.7-1 1-2.7 0.9-8.5-0.7-4-1.1-8.6-2.5-10.3-3-1.6-0.5-3.8-1-4.7-1-1 0-2.3 1.2-2.9 2.7-0.6 1.6-1.5 3.7-2 4.8-0.4 1.1-2.2 5.7-3.9 10.2-1.6 4.6-3.5 8.3-4 8.3-0.5 0-3.7-1.3-13-6l-3.5 5.5c-1.9 3-3.5 5.8-3.5 6.2 0 0.5-1 1.9-2.3 3.3-2 2.1-3.8 2.7-12.7 3.8-5.8 0.7-15.2 1.9-21 2.7-5.8 0.8-13.1 1.6-22 2.5v-11.5c0-7-0.4-11.5-1-11.5-0.5 0-3.1 1.5-5.7 3.3-2.7 1.8-7 4.9-9.8 6.7-2.7 1.8-6.3 4.4-8 5.7-1.6 1.3-3.5 2.7-4 3.1-0.5 0.5-2.1 1.6-3.5 2.5-2.3 1.7-2.9 1.7-8.5 0.2-3.3-0.9-7.8-2.3-10-3-2.2-0.7-6.9-2.2-10.5-3.3-3.6-1.1-9.1-2.7-12.2-3.6-3.2-0.9-6-1.9-6.2-2.4-0.3-0.4 0.2-5.2 1-10.7 0.7-5.5 1.4-11.6 1.4-17l-5.2 0.8c-2.9 0.5-5.8 1.1-6.3 1.3-0.5 0.2-2.9-3.4-5.2-8.1-2.4-4.7-4.3-9-4.3-9.5 0-0.5 1.1-1 2.5-1 1.4 0 2.6-0.4 2.8-1 0.1-0.5 7.9-2.8 17.2-5.1 9.4-2.3 19.5-4.9 22.5-5.7 3-0.8 6-1.9 6.5-2.3 0.6-0.5 0-1.3-1.5-1.9-1.4-0.6-3.8-1.9-5.5-3-1.6-1.1-4-2.5-5.3-3.2-1.2-0.7-2.3-2-2.2-2.8 0-0.8 1-3.5 2.4-6 1.3-2.5 4.2-7.8 6.5-11.8 2.2-3.9 4.1-7.7 4.1-8.2 0-0.5 1.7-2.7 3.8-4.8 2.2-2 5.6-5.1 7.7-6.7 2.1-1.7 4.3-3.5 4.9-4 0.6-0.5 3.4-2.8 6.1-5 2.8-2.2 5.2-4.2 5.5-4.5 0.3-0.4 1.4-1.3 2.6-2.1 1.1-0.8 4.4-3.4 7.3-5.9 2.9-2.5 6.3-5.3 7.5-6.3 1.1-1 3.4-2.8 5-4 1.6-1.2 3.6-2.9 4.5-3.7 0.9-0.8 2.7-2.3 4.1-3.2 1.4-0.9 3.3-1.4 4.3-1.2 0.9 0.2 1.7 0.9 1.7 1.4 0 0.5 0.3 1 0.8 1 0.4-0.1 3.4 1.7 6.7 3.9 3.3 2.2 6.6 4.1 7.3 4.1 0.6 0 1.2 0.3 1.2 0.7 0 0.5 1.4 1.6 3 2.5 1.7 1 3 2.3 3 2.8 0 0.5-4.3 5.3-19 20l0.9 3.7c0.6 2.1 1.5 5.6 2.1 7.8 0.6 2.2 1.5 5.9 2.1 8.2 0.5 2.4 1.2 4.3 1.7 4.3 0.4 0 1.7-1.7 2.8-3.8 1.2-2 3.8-6.8 5.9-10.7 2.1-3.9 5.3-9.7 7-13 1.8-3.3 4.5-8.3 6.1-11 1.5-2.8 3.9-7.3 5.4-10 1.5-2.8 4.2-7.7 6-11 1.9-3.3 4.5-8.1 5.9-10.8 2.2-4.1 3-4.7 5.6-4.7 1.7 0 7.6 0.7 13.3 1.5 5.6 0.8 10.7 1.3 11.2 1 0.5-0.3 1-1.3 1-2.3 0-0.9 0.7-4.4 1.5-7.7 0.9-3.3 2.2-9.4 3-13.5 0.7-4.1 2.3-11.9 3.4-17.3 1.2-5.3 1.9-10.2 1.6-10.7-0.3-0.5-1.7-1.6-3.2-2.4-1.6-0.7-4.1-2.1-5.8-3-1.6-1-4.8-2.8-7-4.2-2.2-1.4-4.8-2.7-5.7-2.9-1-0.3-1.8-1-1.8-1.5 0-0.5 0.5-2.2 1.1-3.8 0.7-1.5 1.8-4.2 2.5-6 0.8-1.7 1.4-3.7 1.4-4.2 0-0.5 0.7-2.7 1.6-4.8 0.9-2 2.2-4.7 2.8-5.9 0.6-1.3 0.9-2.5 0.6-2.7-0.3-0.2-7 0.2-15 1-8 0.7-16.6 1.4-19.2 1.4-3.9 0-5.7-0.6-9.2-3.3-2.4-1.7-4.7-4.1-4.9-5.2-0.4-1.2-1.1-1.8-1.9-1.4-0.9 0.5-2.5-1.6-8.8-13.1l3.6-2.8c1.9-1.5 4.1-3.2 4.7-3.7 0.7-0.5 3.9-3 7.2-5.5 3.3-2.4 6.5-4.8 7-5.2 0.5-0.5 4.4-3.4 8.5-6.5 4.1-3.2 7.7-6 8-6.3 0.3-0.3 1.9-1.5 3.5-2.7 3-2 3.2-2 37-0.7 18.7 0.7 38.8 1.5 55.5 2.4v-7c0-3.9 0.3-7 0.8-7 0.4 0 3.2 0.6 6.2 1.4 3 0.7 8.2 1.9 11.5 2.6 3.3 0.6 7.2 1.6 8.8 2.1 1.5 0.5 3 0.7 3.5 0.5 0.4-0.2 1.5-2.2 2.6-4.5 1-2.2 2.5-4.1 3.2-4.1z"/>
		<path id="Path 14" class="s4" d="m1221.7 814.1c0.2 0.2-1.8 4.8-4.4 10.2-2.6 5.3-5.4 9.7-6.1 9.7-0.8 0-1.2-2.2-1.2-15h-14l-0.3 3.2c-0.4 3.2-0.4 3.2-0.7-4.2h16l0.1 15.5 5.1-9.9c2.9-5.4 5.3-9.6 5.5-9.5z"/>
		<path id="Path 15" class="s1" d="m928.3 867.1c0.9 0 1.7 0.4 1.7 0.9 0 0.5-0.4 1.8-0.9 2.7-0.5 1-1.6 3.5-2.5 5.5-0.9 2.1-1.6 4.3-1.6 4.8 0 0.5-0.6 2.5-1.4 4.2-0.7 1.8-1.8 4.5-2.5 6-0.6 1.6-1.1 3.3-1.1 3.8 0 0.5 0.8 1.2 1.8 1.5 0.9 0.2 3.5 1.5 5.7 2.9 2.2 1.4 5.2 3.2 6.8 4.1 1.5 0.8 4.1 2.2 5.7 3 1.7 0.8 3.2 2 3.5 2.5 0.3 0.5-0.4 5.4-1.6 10.7-1.1 5.4-2.7 13.2-3.4 17.3-0.8 4.1-2.1 10.2-3 13.5-0.8 3.3-1.5 6.8-1.5 7.7 0 1-0.5 2-1 2.3-0.5 0.3-5.6-0.2-11.2-1-5.7-0.8-11.6-1.5-13.3-1.5-2.6 0-3.4 0.6-5.6 4.7-1.4 2.7-4 7.5-5.9 10.8-1.8 3.3-4.5 8.2-6 11-1.5 2.7-3.9 7.2-5.4 10-1.5 2.7-4.3 7.7-6 11-1.8 3.3-5 9.1-7.1 13-2.1 3.8-4.7 8.7-5.9 10.7-1.1 2.1-2.4 3.8-2.8 3.8-0.5 0-1.2-1.9-1.7-4.3-0.5-2.3-1.5-6-2.1-8.2-0.6-2.2-1.5-5.7-3-11.5l9.5-9.5c5.2-5.2 9.5-10 9.5-10.5 0-0.5-1.3-1.8-3-2.8-1.6-0.9-3-2-3-2.5 0-0.4-0.6-0.7-1.2-0.7-0.7 0-4-1.9-7.3-4.1-3.3-2.2-6.3-4-6.7-3.9-0.5 0-0.8-0.5-0.8-1 0-0.5-0.8-1.2-1.7-1.4-1-0.2-2.9 0.3-4.3 1.2-1.4 0.9-3.2 2.4-4.1 3.2-0.9 0.8-2.9 2.5-4.5 3.7-1.6 1.2-3.9 3-5 4-1.2 1-4.6 3.8-7.5 6.3-2.9 2.5-6.2 5.1-7.3 5.9-1.2 0.8-2.3 1.7-2.6 2.1-0.3 0.3-2.7 2.3-5.5 4.5-2.7 2.2-5.5 4.5-6.1 5-0.6 0.5-2.8 2.3-4.9 4-2.1 1.6-5.5 4.7-7.7 6.7-2.1 2.1-3.8 4.3-3.8 4.8 0 0.5-1.9 4.3-4.1 8.2-2.3 4-5.2 9.3-6.5 11.8-1.4 2.5-2.4 5.2-2.4 6-0.1 0.8 1 2.1 2.2 2.8 1.3 0.7 3.7 2.1 5.3 3.2 1.7 1.1 4.1 2.4 5.5 3 1.5 0.6 2.1 1.4 1.5 1.9-0.5 0.4-3.5 1.5-6.5 2.3-3 0.8-13.1 3.5-22.5 5.8-9.3 2.3-18.5 4.4-20.2 4.6-2.5 0.3-3.3 0.9-3.3 2.4 0 1.1 1.9 5.8 8.5 19.1l3.5-0.6c1.9-0.3 4.7-1.1 6.3-1.8 1.5-0.7 3.1-0.8 3.5-0.4 0.4 0.5 0 6.1-0.8 12.5-0.8 6.4-1.5 12.4-1.5 13.2 0 0.8 2 2.1 5 3 2.8 0.9 8.4 2.7 12.5 3.9 4.1 1.3 9.3 2.9 11.5 3.6 2.2 0.7 6.7 2.1 10 3 5.6 1.5 6.2 1.5 8.5-0.2 1.4-0.9 3-2 3.5-2.5 0.5-0.4 2.4-1.8 4-3.1 1.7-1.3 5.3-3.9 8-5.7 2.8-1.8 7.1-4.9 9.8-6.7 2.6-1.8 5.2-3.3 5.7-3.3 0.6 0 1 4.5 1 23l5.8-0.6c3.1-0.3 10.4-1.1 16.2-1.9 5.8-0.8 15.2-2 21-2.7 8.9-1.1 10.7-1.7 12.7-3.8 1.3-1.4 2.3-2.8 2.3-3.3 0-0.4 1.6-3.2 7-11.7l6 3c3.3 1.7 6.5 3 7 3 0.5 0 2.4-3.7 4-8.3 1.7-4.5 3.5-9.1 3.9-10.2 0.5-1.1 1.4-3.2 2-4.8 0.6-1.5 1.9-2.7 2.9-2.7 0.9 0 3.1 0.5 4.7 1 1.7 0.5 6.3 1.9 10.3 3 5.8 1.6 7.5 1.7 8.5 0.7 0.7-0.6 3.2-4.1 5.6-7.7 2.4-3.6 4.7-6.7 5.1-7 0.4-0.3 1.5-2 2.6-3.8 1-1.8 2.6-3.2 3.4-3.2 0.8 0 3.3 1.5 5.4 3.3 2.2 1.7 5 4.1 8.8 7.2l-2 8.5c-1.1 4.7-2.7 11.9-3.6 16-0.9 4.1-2.1 9.3-2.6 11.5-0.5 2.2-1.6 7.6-2.5 12-1 4.4-2.3 10.8-3.1 14.2-0.8 3.5-2 9.1-2.8 12.5-0.7 3.5-1.9 9-2.6 12.3-0.7 3.3-1.4 6.7-1.7 7.5-0.4 1.2-0.7 1.1-1.3-0.5-0.4-1.1-1.3-4-2-6.5-0.7-2.5-1.6-5.6-2-7-0.4-1.4-1.2-4.1-1.7-6-0.6-1.9-1.6-5.5-2.3-8-0.7-2.5-1.9-6.4-2.6-8.8-0.8-2.3-1.4-4.9-1.4-5.7 0-0.8-0.5-1.5-1-1.5-0.5 0-2.3 2-4 4.5-1.6 2.5-3 4.8-3 5.2 0 0.5-0.8 1.7-2 2.8-1.1 1.1-2.1 1.8-2.3 1.5-0.1-0.3-0.9-1.8-1.7-3.4-0.8-1.6-2.1-3.1-2.8-3.5-0.8-0.3-1.8 0.1-2.2 0.9-0.5 0.8-3.5 9.2-6.6 18.5-3.1 9.3-6 17.5-6.4 18-0.5 0.5-2-2.8-3.5-7.5-1.5-4.7-3.2-9.1-3.6-9.8-0.7-0.9-1.6-0.5-3.7 1.5-1.5 1.6-6 5.7-10.1 9.3-4.1 3.6-10.4 9.3-14 12.8-3.6 3.4-7.4 6.7-8.3 7.2-1.3 0.7-1.8 0.6-1.8-0.3 0-0.6 0.7-5.5 1.5-10.7 0.8-5.2 1.2-9.7 0.9-10-0.2-0.3-4.6 0.8-9.7 2.4-5 1.6-9.7 3.2-10.2 3.6-0.5 0.4-4.1 1.7-8 2.9-3.8 1.3-7.9 2.6-9 3.1-1.1 0.5-6.3 2.3-11.5 4-5.2 1.6-9.7 2.7-10 2.4-0.3-0.3-2.1-3.8-4.1-7.7-2.1-4-4.2-7.3-4.8-7.5-0.6-0.1-1.3 0.4-1.5 1-0.2 0.7-1.1 4.5-1.9 8.3-0.8 3.8-2.3 10.6-3.2 15-1 4.4-2.3 10.7-3 14-0.8 3.3-2.2 9.7-3.2 14.3-1 4.5-2.1 8.2-2.5 8.2-0.5 0-1.5-1.1-2.3-2.5-0.8-1.4-2.3-3.3-3.2-4.3-1-1.1-3.5-3.9-5.6-6.3-2.1-2.4-4.8-5.4-6-6.7-1.2-1.3-2.5-1.9-2.8-1.5-0.3 0.4-1.5 4.6-2.7 9.3-1.1 4.7-3.2 13.2-4.5 19-1.4 5.8-3.3 13.9-4.2 18-1 4.1-2 7.9-2.4 8.3-0.3 0.5-4.2-2.8-8.6-7.2-7.3-7.4-8.1-8-9.3-6.4-0.8 1-3.1 5.3-5.3 9.5-2.1 4.3-3.9 8.6-3.9 9.5 0 1 0.3 2.3 0.8 2.8 0.5 0.5 2.1 4.2 3.6 8 1.5 3.8 3.2 8 3.7 9.2 0.5 1.3 1.3 3.3 1.8 4.5 0.5 1.3 1.6 3.9 2.4 5.8 0.9 1.9 2.5 6 3.7 9 1.1 3 2.9 7.3 3.9 9.5 1 2.2 2.1 5 2.5 6.2 0.3 1.3 1.6 2.5 2.9 2.8 1.2 0.2 8.3 1.1 15.7 2 7.4 0.8 13.6 1.6 13.6 1.8 0.1 0.1-0.4 4.7-1.2 10.2-0.8 5.5-1.2 10.6-0.9 11.2 0.4 1 1.6 0.6 4.3-1.2 2-1.4 3.9-2.5 4.2-2.5 0.3 0 1.3 2.8 2.3 6.2 1 3.5 1.6 6.9 1.3 7.5-0.3 0.7-1.3 1.3-2.1 1.3-0.8 0-1.5 0.7-1.5 1.5 0 1.2 1.3 1.4 15 0.5l1.6 3.7c0.9 2.1 2.5 5.8 3.6 8.3 1.1 2.5 3.4 7.4 5 11 1.6 3.6 3.6 7.8 4.5 9.5 0.9 1.7 1.4 3.5 1.2 4.2-0.3 0.8-9.7-2.7-26.9-9.8-14.6-6.1-27.6-11.4-29-11.9-2.3-0.9-3-2.8-7.8-20.2-2.9-10.6-5.4-19.3-5.5-19.4-0.1 0-5.5-3.9-12-8.5-6.5-4.6-12-9.1-12.2-9.9-0.2-0.8-2.5-12.3-5.1-25.5-2.6-13.2-4.7-24.1-4.8-24.3-0.1-0.1-4.7 1.3-10.4 3-6.1 1.9-10.5 2.9-10.7 2.3-0.2-0.5-2.5-11.6-5-24.5-2.5-12.9-4.9-24.3-5.3-25.2-0.4-0.9-9-8-19.2-15.7-10.2-7.8-23.2-17.7-39.5-30.2l-6.7-20.4c-3.8-11.3-6.6-20.8-6.4-21.3 0.2-0.4 5.6-4.4 12-9 6.4-4.5 11.8-8.1 11.9-8 0.2 0.2 1.9 4 3.8 8.6 1.9 4.5 3.2 8.4 2.9 8.6-0.3 0.1-3.8 2.3-7.8 4.7-4 2.4-7.1 4.5-7 4.7 0.2 0.1 5.9-0.5 12.8-1.3 6.9-0.9 12.8-1.2 13.1-0.8 0.4 0.5 3.4 5 6.8 10 3.3 5.1 6.3 9.3 6.6 9.3 0.3 0 3.4-2.1 13.4-9.5l0.6-38.7 16-6.3-19.5-0.5v-48.5l17-23.5-3.1-8.3c-1.7-4.5-4-10.7-5-13.7-1.1-3-1.9-5.5-1.9-5.5 0 0 7.6 3 33.5 13.2l-0.1 3.9c0 2.1-0.4 7.7-1.5 20.9l4.6-8.5c2.6-4.7 10.3-19.3 17.2-32.5 6.9-13.2 13.2-25 15.3-28.5l27.5 13.7 1.4 8.4c0.7 4.6 1.6 8.9 2 9.6 0.3 0.7 9.1-17.1 38.2-80.2l13.2-3.2c7.3-1.8 13.5-3.3 14-3.3 0.4 0 1.2 2.4 1.8 5.2 0.6 2.9 1.4 6 1.9 6.8 0.7 1.3 2 1 8.9-2 4.5-1.9 8.3-3.3 8.5-3 0.2 0.3 0.9 6.6 1.5 14 0.6 7.4 1.1 14.4 1.1 15.5 0 1.3 0.3 1.6 0.9 1 0.5-0.5 2.1-10.7 3.5-22.5 1.5-11.8 2.8-22.4 3.1-23.5 0.2-1.1 5.7-6.7 12.2-12.4 6.5-5.7 12.7-11.2 13.8-12.2 2-1.7 1.8-1.9-7.7-13.1-5.3-6.2-9.8-11.8-10-12.3-0.2-0.6 6.6-1.6 16.7-2.6 9.4-0.9 17.8-1.7 18.8-1.8z"/>
		<path id="Path 16" class="s4" d="m1170.2 915c0.6 0 0.8 0.3 0.5 0.8-0.3 0.4 2.3 6.4 5.8 13.4 3.6 7.1 6.5 13.4 6.5 14-0.1 0.7-3.2-4.8-7-12.2-3.8-7.4-6.9-14.1-7-14.8 0-0.6 0.5-1.2 1.2-1.2zm-149.7 72l5.2 10.5c2.9 5.8 5 10.5 4.5 10.5-0.4 0-3-4.5-10.7-20h-17.1c-12.3 0-17.3 0.4-18.2 1.2-0.8 0.9-1.3 0.9-1.4 0.2-0.1-0.6 0.2-1.4 0.7-1.7 0.5-0.4 9-0.7 37-0.7z"/>
		<path id="Path 17" class="s1" d="m1019.5 988l5 10c2.8 5.5 5.2 10 5.5 10 0.3 0 3.2-2 6.5-4.5 3.3-2.4 6.5-4.5 7-4.5 0.5 0 3.3 5.1 6 11.5 2.8 6.3 4.8 11.7 4.5 12-0.3 0.2-2.2-0.7-4.3-2-2-1.4-4.2-2.5-4.7-2.5-0.6 0-1 3.9-1 19.5l-6.2-0.7c-3.5-0.4-16-1.2-49.3-3l-5.3-3.4c-2.8-1.9-5.2-3.7-5.2-4.2 0-0.4 1.9-2.6 4.3-4.9 2.3-2.3 4-4.5 3.7-4.7-0.3-0.3-3.6-1.2-7.5-2-3.9-0.9-7.1-1.7-7.3-1.8-0.1-0.2 2.3-4.8 5.4-10.3 3.1-5.5 6.3-11 7-12.2 1.4-2.2 1.9-2.3 35.9-2.3z"/>
		<path id="Path 18" class="s4" d="m990 1033.5c2.5 0.3 11.7 1 20.5 1.5 8.8 0.6 17.3 1 18.9 1 1.6 0 2.8 0.3 2.5 0.5-0.2 0.3-10.3 0.1-22.4-0.6-12.1-0.6-22.5-1.5-23-2-0.5-0.4 1-0.6 3.5-0.4z"/>
		<path id="Path 19" class="s3" d="m680.8 1079.5c0.1 6.6 0.1 17.6 0 24.5-0.2 6.9-0.4 1.5-0.4-12 0-13.5 0.2-19.1 0.4-12.5z"/>
		<path id="Path 20" class="s4" d="m741.3 1074.2c2.9 0.1 2.9 0.1 0.5 0.5-1.6 0.1-2.8 0.8-2.8 1.3 0 0.5 1.9 4.8 4.3 9.5 2.9 6 4.7 8.4 5.7 8.1 0.8-0.3 3.1-0.7 5-1.1q3.5-0.6 2 0.3c-0.8 0.6-3.3 1.3-9.5 2.3l-4.2-8.6c-2.4-4.7-4.3-9.4-4.3-10.5 0-1.6 0.6-2 3.3-1.8zm189.3 65.8c0.8 0 2.1 1.1 2.9 2.5 0.8 1.4 1.5 3.1 1.5 3.7 0 0.7-1-0.2-2.3-2-1.6-2.4-2.4-3-2.9-2-0.3 0.7-3.2 8.7-6.2 17.8-3.1 9.1-5.8 17.2-6.1 18-0.3 0.8-0.7 1.3-1 1-0.3-0.3 2.2-8.4 5.4-18 3.3-9.6 6.2-18.3 6.6-19.3 0.4-0.9 1.3-1.7 2.1-1.7z"/>
		<path id="Path 21" class="s1" d="m837 1242c0.5 0.8 1.3 3.6 1.7 6.3 0.6 3.2 1.3 4.7 2.3 4.7 0.8 0 4.4-1.1 8-2.4 3.6-1.3 7.2-2.6 8-2.9 0.8-0.4 3.5-1.4 6-2.2 4.4-1.5 4.5-1.5 6.5 0.9 1.1 1.3 2.7 3.4 3.5 4.6 0.8 1.2 2.3 3.3 3.3 4.6 1.6 2.3 1.6 2.4-0.5 3.7-1.3 0.8-7.3 3.8-13.3 6.7-6 3-11.1 5.4-11.3 5.4-0.2 0.1 0.3 3.7 0.9 8.1 0.7 4.4 1.7 8.5 2.2 9 0.5 0.5 4.8 2 9.5 3.3 4.8 1.2 12.1 3.2 16.2 4.3 4.1 1.2 8.4 2.3 9.5 2.6 1.5 0.4 3.9-1.2 9-6.1 3.9-3.6 7.1-6.5 7.1-6.4 0.1 0.2-1.3 16.3-3.2 35.8-1.8 19.5-3.4 36.3-3.4 37.3 0 0.9-0.5 1.7-1 1.7-0.5 0-3.1-1.4-5.7-3.2-2.7-1.8-5.3-3.7-6-4.3-0.7-0.5-3.7-2.8-6.7-5-3.4-2.5-5.4-4.6-5.1-5.5 0.2-0.8 0.6-3.2 1-5.2 0.3-2.7 0.1-3.8-0.7-3.8-0.7 0.1-2.1 1.1-3.1 2.3-1 1.2-1.7 2.4-1.7 2.7 0 0.3-0.8 1.4-1.8 2.5-0.9 1.1-2.8 3.7-4 5.8-1.2 2-2.5 3.7-2.9 3.7-0.5 0-1.4-3.1-2-7-0.7-3.8-1.3-8.3-1.3-10q0-3-1.5-3c-0.8 0-1.9 0.8-2.4 1.8-0.5 0.9-1.5 2.4-2.2 3.2-0.8 0.8-2 2.6-2.7 4-0.7 1.4-2.4 3.8-3.7 5.5-1.4 1.7-2.7 2.8-2.9 2.5-0.1-0.3-2.6-4-5.5-8.2-2.8-4.3-5.6-7.8-6.1-7.8-0.6 0-1 4.3-1 11 0 10.2 0.2 11.2 2.3 13 1.2 1 2.5 2 3 2 0.4 0 2.7 1.3 5.2 3 2.5 1.7 5.1 3 5.8 3 0.9 0 1 1.6 0.5 6.7-0.4 3.8-1.3 14.7-1.9 24.3-0.6 9.6-1.4 17.9-1.8 18.3-0.3 0.4-3.7 0-7.4-1-5.1-1.4-6.9-2.3-7.3-3.8-0.2-1.1-2.3-11-4.4-22-2.2-11-6-29.7-8.4-41.5-2.4-11.8-5.8-28.2-7.5-36.5-1.7-8.2-3.1-15.3-3.1-15.7 0-0.5 3.1-0.8 14-0.8l2.9-8.2c1.5-4.6 5.2-15.5 8-24.3 2.9-8.8 5.5-16.7 5.7-17.5 0.4-1.3 0.6-1.3 1.4 0z"/>
		<path id="Path 22" class="s4" d="m829.8 1257.7c0.2 0.4-0.9 4.6-2.3 9.3-1.5 4.7-4.1 12.2-8.5 25l-14.5-0.4 13.5-0.6 2.9-8.3c1.6-4.5 4.1-12.2 5.7-17 1.6-4.9 3.1-8.5 3.2-8zm75.5 27.4c1.2-0.1 1.7 0.6 1.7 2.4 0 1.4-0.5 2.5-1 2.5-0.5 0-0.8-0.9-0.5-2 0.3-1.1 0.4-2 0.2-2-0.2 0-3.2 2.9-6.8 6.5-3.6 3.6-7.4 6.5-8.5 6.5-1 0-2.6-0.5-3.4-1.1-1.2-0.8-0.9-0.9 1.3-0.5 2.3 0.5 3.5-0.2 9-5.8 3.4-3.5 7-6.4 8-6.5z"/>
		<path id="Path 23" class="s1" d="m975.8 1438.1c2.7-0.1 3.3 0.3 3.8 2.7 0.3 1.5 1.2 4.5 1.9 6.7 0.8 2.2 2.3 7.4 3.6 11.5 1.2 4.1 3.1 10.4 4.2 14 1 3.6 2.1 7.1 2.3 7.8 0.3 0.8 2.3 1.2 5.7 1.2 2.8 0 16-0.7 29.2-1.5 13.2-0.8 25-1.5 26.3-1.5 2.1 0 2.2 0.3 2.2 17.5l-9.2 1.3c-5.1 0.7-12.9 1.6-17.3 1.8-7.1 0.5-11.7-0.2-41-6.1-18.1-3.7-33.3-6.9-33.7-7.1-0.5-0.2-3.7-4-7.3-8.4-3.6-4.4-6.5-8.3-6.5-8.7 0-0.5 2.9-1.5 6.5-2.3 3.6-0.8 6.5-1.7 6.5-2 0-0.3-1.3-4.5-3-9.5-1.7-4.9-3-9.6-3-10.2 0-0.7 1.7-1.6 3.8-1.9 2-0.3 7.8-1.6 12.7-2.9 5-1.2 10.5-2.3 12.3-2.4z"/>
	</g>
</svg>