<svg version="1.2" xmlns="http://www.w3.org/2000/svg" viewBox="0 0 1500 1500" width="1500" height="1500">
	<title>lenin3-svg</title>
	<style>
		.s0 { fill: #ffffff } 
		.s1 { fill: #808080 } 
		.s2 { fill: #000000 } 
	</style>
	<g id="Layer 3">
		<path id="Path 0" class="s0" d="m768.5 0.4c8.6 0.2 13.3 1.2 50.9 11.3 22.9 6.2 62.6 16.8 88.5 23.6 25.8 6.9 53 14.2 60.4 16.2 7.4 2 14.9 4.5 16.5 5.5 1.7 1 4.5 2.6 6.2 3.4 1.8 0.9 3.3 1.9 3.3 2.3 0 0.4 19.1 13.8 85.1 58.7l-0.6 4.8c-0.3 2.6-0.8 7.1-1.5 15.2l1.2-5.6c0.7-3.1 1.5-5.9 1.7-6.3 0.3-0.3 8 3.1 33.9 15.9l-33.9 25.5-11.7-6.1c-6.5-3.4-12.1-6.4-12.5-6.8-0.5-0.3 1.9-5.2 5.2-10.9 3.3-5.6 5.9-10.4 5.8-10.5-0.2-0.3-17.2-6.1-38-13-20.7-7-37.7-12.3-37.7-11.9 0.1 0.4 15.3 24.6 67.7 106.6l12.2 38.5c6.7 21.2 14.2 44.7 16.6 52.2 2.4 7.6 4.4 14.6 4.4 15.5 0.1 1-2.7 9-12.2 33.8l21.1 36.2c11.6 19.9 21.1 37 21.1 38 0 0.9-0.8 7.5-1.7 14.6-1 7.1-2.2 13-2.8 13.3-0.5 0.2-8-0.5-16.5-1.5-8.5-1.1-15.7-1.8-16-1.6-0.2 0.2 9.8 14.4 22.4 31.6 12.6 17.2 23 31.7 23 32.2 0.1 0.6-6.5 14.2-14.6 30.3-12.5 24.6-14.5 29.3-13 29.7 0.9 0.2 7.6 1.6 14.7 2.9 7.1 1.4 18.2 3.4 24.5 4.6 6.3 1.1 14.8 2.8 19 3.6 4.1 0.8 7.6 1.7 7.7 1.9 0.1 0.3-6.3 8.9-29 38l3.1 7.5c1.6 4.1 6.4 15.7 18.2 43.9l-7.8 5.7c-4.2 3.1-8.2 5.7-8.8 5.8-0.6 0-6.6-7.3-13.2-16.2-6.7-8.9-12.5-16.2-12.9-16.2-0.5 0-7.2 3.6-15 8-13.8 7.7-14.3 8-14.2 11.2 0 1.8 1.7 17.2 7.7 65.2l-10.6 10.7c-5.9 5.9-10.4 10.9-10.2 11.1 0.3 0.2 4.9 2.1 10.3 4.3 5.3 2.1 9.4 4 9 4.1-0.5 0.2-5.6 1.1-11.4 2-5.9 1-10.9 2.1-11.3 2.5-0.3 0.4 3 9.9 7.4 21 4.4 11.1 8 20.7 8 21.3 0.1 0.5-6.5 13-14.4 27.7-8 14.7-14.4 27-14.2 27.5 0.3 0.4 4.2 1.1 8.8 1.5 4.6 0.5 13.8 1.4 20.6 2 8 0.8 12.2 0.9 12.2 0.2 0-0.5-2.7-19.2-6-41.5-3.3-22.2-6-41.1-5.9-41.9 0-0.9 5.2-5.8 11.6-11 6.4-5.3 12.5-10.2 13.7-11 1.2-0.8 8.2-4.1 15.6-7.3 7.4-3.2 23.6-10.3 36-15.7 12.3-5.4 40-17.5 61.4-27 21.4-9.4 44.2-19.3 62-27.1l21.2 7.8c11.7 4.3 21.2 8.3 21.2 8.8 0 0.6 4.8 15.9 10.6 34 5.8 18.1 10.6 33.4 10.6 34 0 0.5-9.3 28-20.7 60.9-11.3 33-22.1 64.3-23.9 69.5-2.3 6.8-5.3 12.6-10.5 20.5-6.4 9.6-11.9 15.6-43.4 47.3-32.7 32.9-37.7 37.6-71.5 63.1h-17.5l-13-17.2 27-27.4c14.9-15 26.8-27.3 26.5-27.3-0.3 0-12.5 4.6-53.5 20.5l-6.3 23.5c-3.5 12.9-6 23.6-5.7 23.9 0.4 0.3 5.5 1.3 11.3 2.2 5.9 1 11 1.9 11.5 2 0.4 0.2-3.2 3.7-8 7.8-4.9 4.1-11.2 9.7-19.5 17.5l0.6-3.5c0.3-1.9 1.3-8.1 2.1-13.8 0.8-5.6 1.5-10.4 1.5-10.7 0-0.3-0.5-0.5-1-0.5-0.6 0-5.2 3.4-10.3 7.5-5 4.1-9.6 7.4-10.2 7.2-0.5-0.3-7.4-9.6-15.3-20.8-7.9-11.2-14.4-20.5-14.5-20.6-0.1-0.1-6.7 14.5-14.6 32.5-7.9 18-14.4 33.4-14.5 34.3 0 0.9 2.7 4.5 12.2 14.4l-12 21.9c-6.5 12.1-12.3 22.5-12.8 23-0.6 0.7-1-4.4-1-13.2 0.1-7.8-0.3-14.2-0.7-14.3-0.4 0-8.3 3.4-17.5 7.5-9.2 4.2-17 7.5-17.5 7.5-0.4 0-1.5 0.8-2.4 1.8-0.8 0.9-12.6 22-26 46.7-13.5 24.8-25.7 47.4-30.3 55.6l-5.5-0.5c-3-0.3-15.3-1.3-27.4-2.2-12.1-0.9-22.9-1.5-23.9-1.3-1.4 0.3 1.8 3.7 12.8 13.4 8.2 7.1 15.7 13.6 16.7 14.5 2 1.5 2 1.7-0.1 25.9-1.1 13.5-2 25.1-2 25.8 0 0.9-3.4 1.3-25.4 1.7l-6.2 20.5c-4.2 13.7-6.7 20.5-7.6 20.4-0.7 0-6.4-3.5-12.6-7.7-6.1-4.2-11.5-7.7-11.9-7.7-0.4 0-4.6 6.7-17.8 29.5l-28 9.3c-15.4 5.1-38.4 12.7-74.4 24.7l-16.9-17 17.1-34 3.4 5.5c1.9 3 6.5 10.3 10.2 16.2 3.7 5.9 6.9 10.5 7.2 10.2 0.3-0.3-0.4-6.4-1.5-13.5-1.8-11.5-1.8-13.1-0.5-13.9 0.8-0.4 10.1-2.6 20.7-4.7 10.5-2.1 18.9-4 18.6-4.3-0.3-0.3-14.3-3.3-31.2-6.6-17.5-3.6-31-5.8-31.6-5.3-0.5 0.4-5.3 6-10.5 12.3-5.2 6.3-9.7 11.5-10 11.5-0.2 0.1-3.2-10.7-6.5-24-3.3-13.2-6.2-24.5-6.5-25-0.2-0.6-9.9 4.7-21.4 11.6-11.6 7-20.9 13.1-20.8 13.6 0.2 0.5 3.5 6.6 7.4 13.6 3.9 7.1 7.7 13.4 8.3 14.1 0.8 1 2.2 0.1 6.6-4.3 3-3.1 5.7-5.4 5.9-5.1 0.3 0.2-0.3 8.3-1.2 17.8-1 9.5-1.6 17.4-1.3 17.5 0.3 0.2 7.8-5.1 16.5-11.7 8.8-6.6 16.3-12 16.5-12 0.3 0 0.5 10.3 0.5 46l-2.2 0.4c-1.3 0.2-15.2 2.1-30.9 4.2-15.8 2.1-28.9 3.5-29.3 3.1-0.3-0.4 4.9-8.8 11.5-18.7 6.6-9.9 11.8-18.4 11.6-18.8-0.2-0.4-11.5-8.1-25.1-17.2-13.5-9.1-24.5-16.8-24.3-17.1 0.2-0.4 9.6-9.1 41.8-37.9l-4.4-10.7c-2.4-5.9-11.8-29.6-21-52.7-9.1-23.1-16.6-42.5-16.6-43 0-0.5 4.4-4.6 9.9-9 5.5-4.4 9.9-8.3 9.8-8.7-0.1-0.4-7-6-15.3-12.5-8.4-6.5-20.4-15.8-26.8-20.8-6.4-4.9-11.6-9.2-11.6-9.5 0-0.2 9.4-9.8 20.8-21.2 11.4-11.3 20.5-20.9 20.2-21.2-0.3-0.2-6.8-1.4-14.5-2.5-7.7-1.2-14.3-2.4-14.6-2.8-0.3-0.4-3.8-12.9-7.6-27.7-3.9-14.8-12.3-47-30.4-115.9l-5.1-4.5c-2.8-2.5-14.4-12.2-25.7-21.7-11.3-9.4-20.6-17-20.7-16.9-0.1 0 1.6 21 8 93l12 17c6.6 9.4 21 29.6 31.9 45 12.7 18 19.6 28.5 19.2 29.5-0.3 0.8-4.1 6.5-8.3 12.8-4.2 6.2-8 11.2-8.4 11.2-0.4 0-12.1-3.1-26-6.9-13.9-3.8-38.3-10.4-83.2-22.3l-72.9-72.9-81.9-8.9-38.3-38.4-8.2-76.5 2.2-2.8c1.3-1.5 17.5-20.6 69.7-82.1l39-103-12.7-32c-11.7-29.5-13-32.1-15.8-33.4-1.6-0.7-20.5-9.2-41.9-18.9-21.5-9.7-39.4-18-39.8-18.4-0.4-0.4 0.1-16 1.3-34.7 1.1-18.7 2-34.9 2-36 0-1.3-4.1-5.4-12.5-12.4-7.4-6.2-12.5-11.3-12.5-12.3 0-1 4.5-32.2 10-69.4 5.5-37.3 10.2-69.2 11-74.2l25-0.5-22.6-16.5c-12.5-9.1-22.8-16.7-23-17-0.1-0.3 3.3-2.3 7.7-4.5 4.4-2.2 7.9-4.5 7.9-5 0-0.6-3.6-10-8-21-4.4-11-8-20.4-7.9-21 0-0.5 14.5-21.2 64.4-90.7l25.9-18.5c14.3-10.2 31.9-22.6 39-27.7 7.1-5 23.3-16.5 36-25.5 12.6-9 31.3-22.2 41.5-29.5 15.2-10.9 22.2-15 61.4-34.7l32.5-9.4c17.8-5.1 42.3-12 54.4-15.3 12.1-3.3 30.1-7.7 40-9.9 13-2.9 22.4-4.3 34-5.2 8.8-0.6 32.6-2.4 52.9-3.9 20.4-1.5 41.3-2.7 46.5-2.6z"/>
		<path id="Path 1" class="s1" d="m994.8 63c0.3 0 7.8 4.4 16.7 9.8 9 5.4 25.5 15.5 36.8 22.3 11.2 6.9 23 14.1 26.2 16.2 5.2 3.3 5.7 3.9 5.7 7.1 0 2.6 0.6 3.8 2.3 4.8 1.3 0.6 8.5 5.4 16 10.5 7.5 5 13.5 9.4 13.2 9.7-0.3 0.3-7.2-2.9-15.5-7-8.2-4.1-15.3-7.2-15.7-6.9-0.4 0.4-1.3 3.2-3.2 11.9l0.5-5.2c0.2-2.9 0.7-7.4 1.6-14.8l-42.6-29c-23.4-15.9-42.5-29-42.5-29.2 0-0.1 0.2-0.2 0.5-0.2zm34.1 60.6c20.8 6.9 37.9 12.7 38.1 13 0.1 0.1-2.5 4.9-5.8 10.6-3.3 5.6-5.7 10.5-5.2 10.8 0.4 0.4 6 3.4 24.2 12.9l17.3-13c15.1-11.4 17.4-12.8 19.2-11.8 1.1 0.6 4 2.6 6.5 4.4 2.5 1.7 11 11 18.9 20.5 7.9 9.6 16.5 19.8 19.1 22.9 2.5 3 5.5 6.8 6.7 8.5 1.6 2.3 2.4 6.3 3.7 17.9 1 8.3 1.9 15.8 2.1 16.8 0.4 1.5-0.1 1.7-4.8 1.2-2.9-0.3-7.5-1-10.2-1.5-2.8-0.5-6.8-1.1-9-1.4-2.2-0.2-10.3-1.4-18-2.5-7.7-1.1-14.8-2.1-15.7-2.1-1.7 0-1.8 1.7-1.8 42.5l12 4c6.6 2.2 11.6 4.3 11.2 4.7-0.4 0.3-10.4 3.2-22.2 6.4-11.8 3.1-21.7 5.9-22 6-0.2 0.3 4.2 13.6 9.9 29.7 5.7 16 10.7 29.5 11 29.8 0.3 0.4 13-6 28.1-14.2 15.1-8.1 27.5-14.7 27.6-14.6 0 0.1 4.2 14.6 9.2 32.2 5 17.6 12.5 43.9 16.6 58.4 4.2 14.6 7.5 26.9 7.5 27.5 0 0.5-9 2.8-20.1 5-11 2.2-20.4 4.2-20.9 4.5-0.6 0.3-0.1 14 1.1 32 1.6 25.3 1.8 31.6 0.7 32.1-0.7 0.4-4.6 1.2-8.7 1.9-4.2 0.7-8.3 1.5-9.2 1.8-1.4 0.5 2.7 6.3 20.5 29.1 12.2 15.7 34.1 43.8 48.6 62.5 14.5 18.7 28.4 36.4 30.8 39.5 3.9 4.9 4.2 5.5 2.6 6.1-1.1 0.4-11.3 2.4-22.9 4.4-11.5 2-21.1 3.7-21.2 3.8-0.2 0.1-1.9 6.7-3.8 14.6-1.9 8-4.8 20.4-6.5 27.5-1.6 7.2-2.9 13.1-2.7 13.3 0.1 0.1 13.4-6.3 29.5-14.3 16-7.9 30.1-14.5 31.2-14.5 1.1 0 18.3 2.7 38.2 6 19.9 3.4 36.7 6.2 37.2 6.4 0.6 0.2 1.7 2.5 2.5 5.1 1 3.2 2.3 5.2 4 6 1.5 0.7 3.3 3.1 4.4 5.6 1 2.4 5.8 15.2 19.7 52.4l-1.7 4.5c-0.9 2.5-2 4.9-2.4 5.5-0.5 0.5-3.3-6.9-6.3-16.5-3.1-9.6-7.9-25.2-16.2-51.6l-41.9-15.5-11.5 5c-6.3 2.8-29.1 12.7-50.5 22.1-21.4 9.5-49.1 21.6-61.4 27-12.4 5.4-28.6 12.5-36 15.7-7.4 3.2-14.4 6.5-15.6 7.3-1.2 0.8-7.3 5.7-13.7 11-6.4 5.2-11.6 10.1-11.6 11-0.1 0.8 2.6 19.7 5.9 41.9 3.3 22.3 6 41 6 41.5 0 0.7-4.2 0.6-12.2-0.2-6.8-0.6-16-1.5-20.6-2-4.6-0.4-8.5-1.1-8.8-1.5-0.2-0.5 6.2-12.8 14.2-27.5 7.9-14.7 14.5-27.2 14.4-27.7 0-0.6-3.6-10.2-8-21.3-4.4-11.1-7.7-20.6-7.4-21 0.4-0.4 5.4-1.5 11.3-2.5 5.8-0.9 10.9-1.8 11.4-2 0.4-0.1-3.7-2-9-4.1-5.4-2.2-10-4.1-10.3-4.3-0.2-0.2 4.3-5.2 20.8-21.8l-3.8-31c-2.2-17-3.9-32.4-3.9-34.2-0.1-3.2 0.4-3.5 14.2-11.2 7.8-4.4 14.5-8 15-8 0.4 0 6.2 7.3 12.9 16.2 6.6 8.9 12.6 16.2 13.2 16.2 0.6-0.1 4.6-2.7 16.6-11.5l-7.6-18.2c-4.2-10-9-21.6-13.7-33.2l14.6-18.8c8.1-10.3 14.5-18.9 14.4-19.2-0.1-0.2-3.6-1.1-7.7-1.9-4.2-0.8-12.7-2.4-19-3.6-6.3-1.2-17.4-3.2-24.5-4.6-7.1-1.3-13.8-2.7-14.7-2.9-1.5-0.4 0.5-5.1 13-29.7 8.1-16.1 14.7-29.7 14.6-30.3 0-0.5-10.4-15-23-32.2-12.6-17.2-22.6-31.4-22.4-31.6 0.3-0.2 7.5 0.5 16 1.6 8.5 1 16 1.7 16.5 1.5 0.6-0.3 1.8-6.2 2.8-13.3 0.9-7.1 1.7-13.7 1.7-14.6 0-1-9.5-18.1-42.2-74.2l6.1-16c3.4-8.8 6.2-16.8 6.1-17.8 0-0.9-2-7.9-4.4-15.5-2.4-7.5-9.9-31-28.8-90.6l-33.8-53c-18.6-29.1-33.9-53.3-34-53.6-0.1-0.4 16.9 4.9 37.7 11.8z"/>
		<path id="Path 2" class="s0" d="m1125.4 154.9c0.5 0 0.8 0.8 0.8 1.8 0 0.9-0.8 7.1-1.7 13.7-0.9 6.6-1.7 12.1-1.7 12.2-0.1 0.2-6.6-3.4-29.1-16l15.5-5.8c8.5-3.2 15.8-5.8 16.2-5.9z"/>
		<path id="Path 3" class="s1" d="m301.5 185.3c0.2 0.3-13.6 20-30.6 43.8-17 23.8-30.9 43.7-30.9 44.2-0.1 0.6 3.5 10 7.9 21 4.4 11 8 20.4 8 21 0 0.5-3.5 2.8-7.9 5-4.4 2.2-7.8 4.2-7.7 4.5 0.2 0.3 10.5 7.9 45.6 33.5l-25 0.5-0.5 3.2c-0.3 1.8-5 33.7-10.5 71-5.5 37.2-10 68.4-10 69.4 0 1 5.1 6.1 12.5 12.3 8.4 7 12.5 11.1 12.5 12.4 0 1.1-0.9 17.3-2 36-1.2 18.7-1.7 34.3-1.3 34.7 0.4 0.4 18.3 8.7 39.8 18.4 21.4 9.7 40.3 18.2 41.9 18.9 2.8 1.3 4.1 3.9 28.5 65.4l-39 103-33.7 39.7c-18.5 21.8-34.7 40.9-38.2 45.2l8.2 76.5 38.3 38.4 81.9 8.9 72.9 72.9 29 7.7c15.9 4.2 40.3 10.8 54.2 14.6 13.9 3.8 25.6 6.9 26 6.9 0.4 0 4.2-5 8.4-11.2 4.2-6.3 8-12 8.3-12.8 0.4-1-6.5-11.5-19.2-29.5-10.9-15.4-25.3-35.6-43.9-62l-4.1-46.4c-2.3-25.6-4-46.6-3.9-46.7 0.1 0 9.4 7.6 20.7 17 11.3 9.5 22.9 19.2 30.8 26.2l11.6 44.4c6.5 24.5 14.9 56.7 18.8 71.5 3.8 14.8 7.3 27.3 7.6 27.7 0.3 0.4 6.9 1.6 14.6 2.8 7.7 1.1 14.2 2.3 14.5 2.5 0.3 0.3-8.8 9.9-20.2 21.2-11.4 11.4-20.8 21-20.8 21.2 0 0.3 5.2 4.6 11.6 9.5 6.4 5 18.4 14.3 26.8 20.8 8.3 6.5 15.2 12.1 15.3 12.5 0.1 0.4-4.3 4.3-9.8 8.7-5.5 4.4-9.9 8.5-9.9 9 0 0.5 7.5 19.9 16.6 43 9.2 23.1 18.6 46.8 25.4 63.4l-20.8 18.6c-11.4 10.2-20.8 18.9-21 19.3-0.2 0.3 10.8 8 24.3 17.1 13.6 9.1 24.9 16.8 25.1 17.2 0.2 0.4-5 8.9-11.6 18.8-6.6 9.9-11.8 18.3-11.5 18.7 0.4 0.4 13.5-1 29.3-3.1 15.7-2.1 29.6-4 33.1-4.6v-23c0-12.7-0.2-23-0.5-23-0.3 0-7.7 5.4-16.5 12-8.8 6.6-16.2 11.9-16.5 11.7-0.3-0.1 0.3-8 1.2-17.5 1-9.6 1.6-17.6 1.3-17.8-0.2-0.3-2.9 2-5.9 5.1-4.4 4.4-5.8 5.3-6.6 4.3-0.6-0.7-4.4-7-8.3-14.1-3.9-7-7.2-13.1-7.4-13.6-0.1-0.5 9.2-6.6 20.8-13.6 11.5-6.9 21.2-12.2 21.4-11.6 0.3 0.5 3.2 11.8 6.5 25 3.3 13.3 6.2 24.1 6.5 24 0.3 0 4.8-5.2 10-11.5 5.2-6.3 10-11.9 10.5-12.3 0.6-0.5 14.1 1.7 31.6 5.3 16.9 3.3 30.9 6.3 31.2 6.6 0.3 0.3-8.1 2.2-18.6 4.3-10.6 2.1-19.9 4.3-20.7 4.7-1.3 0.8-1.3 2.4 0.5 13.9 1.1 7.1 1.8 13.2 1.5 13.5-0.3 0.3-3.5-4.3-7.2-10.2-3.7-5.9-8.3-13.2-13.6-21.7l-17.1 34 16.9 17 23.2-7.8c12.8-4.2 35.8-11.8 79.2-26.2l8.5-14.8c4.7-8.1 9-14.6 9.5-14.4 0.6 0.1 6.3 3.8 12.8 8.2 6.5 4.4 11.8 8.2 11.8 8.5 0 0.3-4 2.4-8.8 4.7-4.8 2.3-18.7 8.9-30.8 14.6-12.1 5.7-28.3 13.5-35.9 17.1-7.7 3.7-17.9 8.6-22.5 10.8-4.7 2.2-17.7 8.4-29 13.8-11.3 5.4-27.5 13.1-36 17.2-13.6 6.5-18.4 8.2-39.9 14-20.3 5.4-30.9 7.6-61.5 12.6-25.4 4.1-45 6.6-62.4 8.1-14.1 1.2-32.7 2.8-41.5 3.6-8.8 0.7-29.5 2.5-46 3.9-16.5 1.5-30.8 2.8-31.9 3.1-1.1 0.2-5.6 5.1-18 21.3h-19.3c-10.5 0.1-19.2-0.1-19.2-0.4 0-0.3 1.2-2.6 2.7-5.3 1.4-2.6 6.1-11 10.5-18.7 4.3-7.7 7.7-14 7.5-14.1-0.1-0.1-6.5 0.9-14.2 2.2-7.7 1.3-18 3.1-23 4-4.9 0.8-9.1 1.4-9.2 1.2-0.2-0.1 4.1-2.3 9.5-4.7 5.3-2.4 13-5.9 24.2-11.1l-21.2-42.4 21.1-34c11.7-18.7 21-34.1 20.9-34.3-0.2-0.1-18.3 0.7-40.3 1.8-22 1.1-40 1.9-40.1 1.7 0-0.1 1.8-12.1 4.1-26.7 2.3-14.5 4.1-26.8 3.9-27.2-0.2-0.4-4.1 2.3-8.6 6-4.6 3.7-13.8 11.2-20.6 16.7-6.8 5.5-13.4 10.8-17.1 13.5v-66.4l8 12c4.4 6.5 8.3 12 8.7 12.2 0.4 0.1 3.7-3.7 7.3-8.4 3.5-4.7 12.6-16.6 20.2-26.4 7.5-9.9 13.6-18.2 13.5-18.5-0.2-0.3-4.4 2-9.5 5-5.1 3.1-9.6 5.6-10 5.6-0.4 0-7.5-7.5-15.7-16.6-8.3-9.1-17.7-19.6-20.8-23.3-3.2-3.6-5.5-6.9-5-7.2 0.4-0.3 7.1-5.1 28.8-20.6l8 0.7c4.3 0.5 11.8 1.1 16.4 1.5 4.7 0.3 10.8 0.8 13.5 1 2.8 0.3 10 0.9 16 1.5 6.1 0.5 25.4 2.1 43 3.5 17.6 1.4 34 2.8 36.4 3 2.5 0.2 7.9 0.7 12 1 6.7 0.6 7.3 0.5 5.5-0.8-1.1-0.7-9.5-5.5-18.7-10.5-9.2-5.1-16.7-9.4-16.7-9.7 0-0.2 3.4-7.8 7.6-16.7 4.1-9 9.8-21 12.5-26.8 2.7-5.7 6-12.6 7.2-15.2 1.4-3.2 1.8-5.1 1.1-5.7-0.5-0.5-5.2-3.4-10.5-6.5-7.7-4.6-9.7-5.4-10.6-4.3-0.7 0.7-5.6 7.3-10.9 14.8-9.6 13.4-9.6 13.4-9.1 9 0.4-2.5 1.4-12.9 2.3-23 1.3-15.1 1.4-18.9 0.3-20.5-0.7-1.1-10.3-13.9-41.4-54.7l-10.5 0.7c-5.8 0.3-13.6 0.8-17.5 1-3.8 0.3-15.5 1-44.9 2.6l-3.5-3.3c-2-1.8-7.1-6.7-11.5-10.8-4.4-4.1-15.2-14.2-24-22.5-8.8-8.3-18-16.8-24.7-22.9l1.7-15.5c0.9-8.6 1.8-16.4 2-17.5 0.1-1.1 1.3-11.5 4.9-44l11.1-18.5c6.1-10.2 30-49.5 53-87.4 23-37.9 42.8-70.9 44.1-73.2 1.5-2.8 2.1-5.1 1.7-6.5-0.4-1.3-2.2-5.4-4-9.3-1.8-3.8-6.1-13.3-15.9-35.4l-67-44.7c-36.9-24.6-68.5-45.9-73.5-49.8l18.2-8c10-4.4 18.4-8.4 18.6-9 0.2-0.5-1.9-12.6-4.7-26.9-2.8-14.3-10.4-52.8-28.9-145l15.9-55.4c8.8-30.5 16.5-57.4 17.2-59.7 1-3.1 4.7-7.7 14.7-18.5 7.4-7.8 19.8-21 27.6-29.2 7.8-8.3 15.7-16.7 17.5-18.8 1.8-2.1 3.5-3.6 3.6-3.3z"/>
		<path id="Path 4" class="s2" d="m1171.6 205.6c0.6 0.5 13.9 10.8 29.5 22.7q23.5 17.9 59 45l10.1 16c5.6 8.8 17 27 40.9 65l12.5 81.4c6.9 44.8 12.4 82.2 12.2 83.2-0.2 1.3-3 0.1-14.3-6.3-7.7-4.4-14.1-7.9-14.2-7.7-0.2 0.1 2.4 8.7 11.7 37.7l7.1-5.2c3.9-2.9 7.9-5.9 9-6.8 2-1.4 2-1.3 1.4 7.5-0.3 5-2.4 44.3-4.5 87.5-2.2 43.1-4.1 78.6-4.2 78.7-0.2 0.2-16.8-2.4-37-5.7-20.2-3.3-37.6-6.1-38.7-6.1-1.1 0-15.2 6.6-31.2 14.5-16.1 8-29.4 14.4-29.5 14.3-0.2-0.2 1.1-6.1 2.7-13.3 1.7-7.1 4.6-19.5 6.5-27.5 1.9-7.9 3.6-14.5 3.8-14.6 0.1-0.1 9.7-1.8 21.2-3.8 11.6-2 21.8-4 22.9-4.4 1.6-0.6 1.3-1.2-2.6-6.1-2.4-3.1-16.3-20.8-30.8-39.5-14.5-18.7-36.4-46.8-48.6-62.5-17.8-22.8-21.9-28.6-20.5-29.1 0.9-0.3 5.1-1.1 9.2-1.8 4.1-0.7 8-1.5 8.7-1.9 1.1-0.5 0.9-6.8-0.7-32.1-1.2-18-1.6-31.7-1.1-32 0.5-0.3 9.9-2.3 20.9-4.5 11.1-2.2 20.1-4.5 20.1-5 0-0.6-3.3-12.9-7.5-27.5-4.1-14.5-11.6-40.8-16.6-58.4-5-17.6-9.2-32.1-9.2-32.2-0.1-0.1-12.5 6.5-27.6 14.6-15.1 8.2-27.8 14.5-28.1 14.2-0.3-0.3-5.3-13.8-11-29.8-5.7-16.1-10.1-29.4-9.9-29.7 0.3-0.2 10.2-2.9 22-6 11.8-3.2 21.8-6.1 22.2-6.4 0.4-0.4-4.6-2.5-23.2-8.7v-21.2c0-19.6 0.1-21.3 1.8-21.3 0.9 0 8 1 15.7 2.1 7.7 1.1 15.8 2.3 18 2.5 2.2 0.3 6.2 0.9 9 1.4 2.7 0.5 7.3 1.2 15.5 2l-0.5-2.7c-0.3-1.5-1.2-8.2-2-14.8-0.9-6.5-1.4-13-1.3-14.3q0.2-2.4 1.2-1.4z"/>
		<path id="Path 5" class="s1" d="m1213.4 370.3c0.4 1.6 1.5 5.4 2.3 8.4 0.8 3.1 2.4 8.5 5.4 18.5l13.9-2c7.7-1.1 14.2-1.6 14.5-1.2 0.3 0.4-1.7 6.9-4.5 14.5-2.7 7.5-5.5 14.8-7 18.7l-2.2-2.1c-1.2-1.1-8-7.1-15.2-13.4-7.1-6.2-13.7-12-14.7-12.9-1.6-1.5-1.6-2 0.2-8.6 1.1-3.8 2.9-10.6 4.2-15 2.1-7.4 2.3-7.8 3.1-5z"/>
		<path id="Path 6" class="s2" d="m216.9 429.7c6.5 32.2 14.1 70.4 17 85 2.9 14.5 5 26.9 4.8 27.4-0.3 0.6-8.7 4.6-36.9 17l3.2 2.5c1.8 1.4 33.4 22.7 137.3 92l6.3 14.3c3.5 7.8 7.8 17.3 9.6 21.1 1.8 3.9 3.6 8 4 9.3 0.4 1.5-0.2 3.7-1.7 6.5-1.3 2.3-21.1 35.3-44.1 73.2-23 37.9-46.9 77.3-64.1 105.9l-2.3 21c-1.3 11.5-2.5 21.9-2.6 23-0.2 1.1-1.1 9-3.7 33l4.4 3.9c2.3 2.2 11.5 10.7 20.3 19 8.8 8.3 19.6 18.4 24 22.5 4.4 4.1 9.5 9 15 14.1l18.9-1c10.5-0.6 22.2-1.3 26-1.5 3.9-0.3 11.7-0.8 28-1.8l20.1 26.4c11 14.4 20.6 27.2 21.3 28.3 1.1 1.6 1 5.4-0.3 20.5-0.9 10.1-1.9 20.5-2.3 23-0.6 4.4-0.5 4.4 9.1-9 5.3-7.5 10.2-14.1 10.8-14.8 1-1.1 3-0.3 10.7 4.3 5.3 3.1 10 6 10.5 6.5 0.7 0.6 0.3 2.5-1.1 5.7-1.2 2.6-4.5 9.5-7.2 15.3-2.7 5.7-8.4 17.7-12.6 26.7-4.1 8.9-7.5 16.5-7.5 16.7 0 0.3 7.5 4.6 16.7 9.7 9.2 5 17.6 9.8 18.7 10.5 1.8 1.3 1.2 1.4-5.5 0.8-4.1-0.3-9.5-0.8-12-1-2.4-0.2-18.8-1.6-36.4-3-17.6-1.4-37-2.9-43-3.5-6-0.6-13.2-1.2-16-1.5-2.7-0.2-8.8-0.7-13.5-1-4.6-0.4-12.1-1-24.5-2.2l-13.9 10c-7.7 5.5-14.4 10.3-14.8 10.6-0.5 0.3 1.8 3.6 5 7.2 3.1 3.7 12.5 14.2 20.8 23.3 8.2 9.1 15.3 16.6 15.7 16.6 0.4 0 4.9-2.5 10-5.6 5.1-3 9.3-5.3 9.5-5 0.1 0.3-6 8.6-13.5 18.5-7.6 9.8-16.7 21.7-20.3 26.4-3.5 4.7-6.8 8.5-7.2 8.4-0.4-0.2-4.3-5.6-16.7-24.2v66.4l2.4-1.7c1.3-1 7.9-6.3 14.7-11.8 6.8-5.5 16-13 20.6-16.7 4.5-3.7 8.4-6.4 8.6-6 0.2 0.4-1.6 12.7-3.9 27.2-2.3 14.6-4.1 26.6-4.1 26.7 0.1 0.2 18.1-0.6 40.1-1.7 22-1.1 40.1-1.9 40.3-1.8 0.1 0.2-9.3 15.6-42 68.3l21.2 42.4-7.3 3.4c-3.9 1.8-11.6 5.3-16.9 7.7-5.4 2.4-9.7 4.6-9.5 4.7 0.1 0.2 4.3-0.4 9.2-1.2 5-0.9 15.3-2.7 23-4 7.7-1.3 14.1-2.3 14.2-2.2 0.2 0.1-3.9 7.6-9 16.6-5 9.1-9.9 17.8-12.2 22.1l-37-0.1c-36.1-0.1-37-0.1-40.4-2.2-2-1.2-10.1-6.3-18-11.3-8-5-21.7-13.7-46.5-29.3l-12.2-49.3c-6.8-27.1-24-96.4-64.2-258.7l6-59.7c3.3-32.8 6.2-61 6.5-62.7 0.2-1.6-0.9-12.7-2.5-24.5-1.6-11.8-8.4-61.5-27.1-199.3l6.6-31c3.7-17 10.4-48.5 23.3-108.9l-8.5-23.5c-4.7-12.9-13.2-36.7-18.9-52.7-5.7-16.1-10.4-29.7-10.4-30.3 0-0.5 5.5-4.6 12.2-9.1 6.8-4.5 12.4-8.2 12.5-8.2 0.1-0.1 2.5-8.7 5.2-19.2 2.7-10.4 8.1-31.5 12-46.9 4-15.4 11.2-43.7 16.2-63 4.9-19.2 9.2-35.6 9.5-36.4 0.3-0.9 5.9 24.8 12.3 56.9z"/>
		<path id="Path 7" class="s1" d="m1302 444.2l10.5 10.5c5.8 5.8 10.4 10.8 10.3 11.2-0.1 0.3-4.3 5.5-9.3 11.4-4.9 5.9-9.5 11.5-10.2 12.3-0.9 1.3-1.2-3.3-1.2-21.9zm-217.9 84.9l-10.2 0.3c-5.6 0.1-10.3 0.1-10.5 0-0.1-0.1-1.1-9.7-2.2-21.2-1.1-11.6-2-21.9-2-23 0-1.1 5.6 8.3 24.9 43.9zm223.8-24.3c0.4 0.2 7.1 4 29 16.3l0.1 4c0 3.7-0.4 4.4-5.3 8-2.9 2.2-6.9 5.2-12.7 9.5l-6-18.5c-3.3-10.1-6-18.7-5.9-19 0.1-0.3 0.4-0.5 0.8-0.3zm-807.5 73.7c0.7 0.9 4.7 7.6 8.8 14.8 7.1 12.7 7.6 13.3 10.2 12.8 1.5-0.3 17.8-2.5 36.2-5 18.4-2.4 48.3-6.4 66.4-8.9 18.2-2.5 43.1-5.9 55.5-7.6 12.4-1.7 23.4-3.2 24.5-3.5 1.3-0.3 10.4 4.4 27 14.1 13.7 8 37 21.6 78.4 45.9v12.2c0 10.2-0.3 12.2-1.5 12.2-0.8 0-7.9-1.5-15.7-3.3-7.9-1.9-28.7-6.9-46.3-11.1-17.5-4.3-34.3-8.3-37.2-8.9-2.9-0.6-5.5-0.9-5.7-0.6-0.2 0.2 1.4 5.9 3.7 12.4 2.2 6.6 4.1 12.1 4.2 12.3 0 0.1 5.9-0.7 13.1-1.8 7.1-1.1 13.7-2 14.7-2 1.3 0-1 4-8.5 14.5-5.6 7.9-10.9 14.5-11.7 14.5-0.9 0-12.3-2.2-25.5-5-13.2-2.8-33.2-7-44.5-9.4-11.2-2.4-22.7-4.7-30.5-5.7l3 2.7c1.7 1.5 12.7 11.1 24.5 21.3 11.7 10.2 24.6 21.4 28.4 24.9 3.9 3.4 7.5 6.2 8.1 6.2 0.5 0 11.6 3 24.5 6.6 12.9 3.6 29.5 8.3 50.4 14.1l0.3 10.6c0.1 5.9-0.1 10.7-0.5 10.7-0.4 0-14.7-2.8-31.7-6.2-17.1-3.4-31.1-6.3-31.3-6.5-0.1-0.2 2.5-3.8 5.7-8.1 3.3-4.2 5.9-7.8 5.8-8-0.1-0.2-6.3 0.4-13.7 1.3-7.4 0.9-14.7 1.8-19 2.5l-0.5-21.4-8-1.8c-4.4-1-13.8-3.1-21-4.7-7.1-1.6-20.6-4.6-30-6.7-9.3-2.1-17.2-4.2-17.6-4.8-0.4-0.6-1.5-5.5-2.5-10.8-1-5.5-2.3-9.7-2.8-9.4-0.6 0.2-11.8 3-24.9 6.2-19.8 4.9-24 6.3-24.6 7.9-0.5 1.1-1.7 8.5-4.7 31l-0.3-50-49.7-15.3c-27.3-8.4-52.2-16.1-55.2-17.1-4.8-1.5-5.5-2.1-5.2-4.1 0.1-1.4 1.8-11.4 3.8-22.4 2-11 3.9-20.3 4.3-20.7 0.3-0.4 8.9 9.6 37.6 44.9l1-46.6 14.4-10.4c12.9-9.3 14.6-10.3 15.8-8.8zm788.9 15.3l8.1 4c4.5 2.2 8.3 4.2 8.6 4.4 0.3 0.3-4 4.9-9.5 10.4-5.5 5.5-10.2 10-10.5 10-0.3 0 0.4-6.5 1.4-14.4z"/>
		<path id="Path 8" class="s2" d="m662.1 598l38.9 9.9c21.5 5.3 40.7 10.2 46.5 11.7l-4.6 20.5-4.4-0.3c-2.5-0.2-18.4-1.9-35.5-3.8-17-1.9-32.1-3.7-33.4-4-1.9-0.4-12 4.2-80.5 38.3l-20-5.2c-10.9-2.9-32.6-8.6-48.2-12.6-15.5-4.1-28.2-7.8-28.2-8.2 0-0.4 8.9-7.8 19.7-16.4 10.9-8.6 20.2-16 20.8-16.4 0.5-0.4 10.6-1.7 22.5-2.9 11.8-1.2 40.5-4.1 63.9-6.4z"/>
		<path id="Path 9" class="s1" d="m228.3 646.3c0.7 0.4 7.2 5 14.4 10.3 7.3 5.2 13.1 9.5 12.9 9.6-0.1 0.1-7.4 2-16.2 4.2-8.8 2.2-16.2 3.8-16.5 3.5-0.2-0.2 0.3-6.2 1.3-13.1 1-7 2.1-13.3 2.3-14 0.3-0.8 1-1 1.8-0.5z"/>
		<path id="Path 10" class="s2" d="m588.9 683.6c0.4 0 1.5 4.3 2.3 9.7 0.9 5.3 1.9 10.2 2.3 10.8 0.3 0.6 8.3 2.8 17.6 4.8 9.4 2.1 22.8 5.1 30 6.7 7.1 1.6 16.6 3.8 29 6.5l0.5 21.4 3.2-0.5c1.8-0.3 8.7-1.2 15.2-2 6.6-0.8 12.6-1.5 13.3-1.5 0.7 0-0.2 2-2 4.6-1.8 2.6-4.8 6.4-6.8 8.5-2.5 2.9-5.9 4.9-22.4 11.5l-68-16.9c-37.3-9.3-68.1-17.1-68.4-17.4-0.3-0.2 0.3-7.3 1.4-15.6 1-8.3 2.2-15.8 2.7-16.7 0.5-0.9 9.4-3.7 25-7.6 13.4-3.4 24.7-6.2 25.1-6.3z"/>
		<path id="Path 11" class="s1" d="m786.5 709.7c0.5 0.2 8 4.8 32.9 20.3v19c0.1 12-0.3 18.6-0.9 18-0.5-0.6-3.1-4.2-5.9-8-2.7-3.9-5.2-6.6-5.4-6-0.3 0.5-1.3 6.8-2.3 14-0.9 7.1-2 13.3-2.3 13.7-0.4 0.3-9-1.2-19.1-3.4-10.2-2.3-18.6-4.2-18.7-4.2-0.2-0.1 4.5-14.4 10.4-31.9 5.8-17.5 10.9-31.6 11.3-31.5zm-555.5 7.8l20.5 16.5-14 0.2c-7.7 0.2-14.2 0.1-14.3-0.2-0.2-0.3 1.5-4.1 3.8-8.5zm1056.9 5.1c1.4 0.5 10.9 3.4 21.1 6.4 10.2 3.1 18.6 5.7 18.7 5.8 0.1 0.1 2 12.6 8.5 55.2l-14.6 45.9c-8.1 25.3-14.9 46.2-15.2 46.5-0.2 0.3-0.4-2.2-0.4-5.5 0-3.3-0.9-35.7-2-71.9-1.1-36.3-2.1-66.1-2.2-66.2-0.2-0.1-2.8-0.4-5.8-0.7-3-0.4-12.4-1.3-36.5-3.6l-68.3 68.5 14.7 16.7c13.1 15 15 16.8 17.7 16.7 1.6-0.1 8.4-0.9 15-1.9 6.6-0.9 12.1-1.7 12.2-1.6 0.1 0 4.9 18.3 10.7 40.5 5.7 22.3 10.4 40.6 10.2 40.6-0.1 0.1-10.1 3.1-22.1 6.7-12.1 3.6-31 9.3-42 12.6-11 3.3-20.1 5.9-20.3 5.8-0.1-0.1 1.7-15.4 8.3-67.7l-38.7-38.5 21.7-64.2 12.5-5.6c6.9-3 24.4-10.7 39-17.1 14.5-6.5 32.3-14.3 39.4-17.5 7.2-3.1 13.7-5.9 14.4-6.2 0.8-0.3 2.6-0.1 4 0.3zm-686.3 24.2c37.6 9.4 68.5 17.2 68.7 17.3 0.1 0.2-6.2 7.4-14 16.1-7.8 8.6-17.1 18.7-20.5 22.5-3.4 3.7-6.2 7.2-6.2 7.8 0 0.5 1.9 0.8 4.7 0.5 2.6-0.3 8.8-1 13.7-1.5 5-0.6 20.4-2.2 34.3-3.5 13.8-1.4 26.5-2.5 28.2-2.5 2.9 0 3.3 0.6 24 41.9l-8 22.3c-4.4 12.2-8.3 22.9-8.6 23.7-0.3 1.1-5.1-3.1-30.9-28.7l-7.5 0.8c-4.1 0.4-13.1 1.3-20 1.9-6.8 0.6-13 1.3-13.7 1.6-0.7 0.2-3.1 6.2-5.3 13.2-2.3 7-4.2 12.5-4.4 12.2-0.1-0.3-3.9-8.9-8.4-19.2-4.5-10.3-8.4-18.8-8.6-18.8-0.3 0-5 2.7-10.5 6-5.5 3.3-10.6 5.9-11.3 5.6-0.6-0.2-10.3-6.7-21.4-14.4-11.2-7.8-20.3-14.3-20.3-14.4 0-0.2 4.5-2.1 10-4.3 5.5-2.2 10-4.3 10-4.7 0-0.4-4.5-6-9.9-12.5-5.5-6.5-9.7-11.9-9.3-12 0.4-0.2 11.5 2.4 24.7 5.6 13.2 3.3 24.1 5.9 24.1 5.8 0.1-0.1-12.7-11.2-28.4-24.7-15.8-13.6-28.8-24.1-28.9-23.5-0.2 0.6 1.4 8.8 3.5 18.3 2 9.5 3.5 17.2 3.2 17.2-0.3 0-5.2-5.7-11-12.6-5.7-6.9-11.2-13.6-12.2-14.9-1.7-2.3-1.7-3.3 0.2-22.2 1.1-10.8 1.9-20.4 1.8-21.3-0.1-1.3 13.4 1.8 68.2 15.4z"/>
		<path id="Path 12" class="s2" d="m552.2 769.2c2.4 2.1 15.3 13.2 28.8 24.8 13.4 11.5 24.4 21 24.3 21.1-0.1 0.1-11.2-2.5-24.7-5.9-13.4-3.3-24.7-6.2-24.9-6.5-0.3-0.3-2.2-8.2-4.3-17.6-2.1-9.4-3.7-17.7-3.6-18.4 0.1-0.8 1.9 0.2 4.4 2.5z"/>
		<path id="Path 13" class="s1" d="m1353.7 785.5c0.3 0 2.4 5.9 8.8 26.1l-27.5 54.9c-15.1 30.1-27.6 54.7-27.8 54.6-0.2-0.1 8.8-26.7 19.9-59.2 11.1-32.4 21.5-62.9 23.1-67.7 1.6-4.8 3.2-8.7 3.5-8.7zm-1095.5 37c0.4 0 0.7 0.3 0.7 0.7 0 0.4-4.3 10-9.5 21.2-5.3 11.3-10.6 22.7-11.8 25.3-1.2 2.6-2.5 4.8-2.9 4.8-0.4-0.1-5.1-3.6-10.3-7.8-5.3-4.3-9.4-8.2-9.2-8.8 0.3-0.5 9.8-8.7 21.3-18.1 11.5-9.5 21.2-17.2 21.7-17.3zm219.8 116.9c0.4 0 5.4 3.8 11.2 8.5 5.8 4.6 10.4 8.8 10.2 9.2-0.2 0.4-3.9 6.9-8.3 14.5-4.3 7.6-8 13.7-8.1 13.5-0.1-0.1 0.8-8.5 4.2-36.7l-5-4.5c-2.7-2.4-4.6-4.5-4.2-4.5zm-63.7 30.4c0.5 0.2 9.4 6.9 19.7 14.9 10.3 8.1 19.1 14.6 19.5 14.6 0.4 0 10.4-0.9 22.2-1.9 11.8-1.1 21.7-1.8 22-1.6 0.3 0.2-0.8 0.7-2.5 1-1.6 0.3-11.8 3.4-22.5 6.7-10.7 3.4-23.5 7.4-28.4 9-5 1.5-9.7 2.8-10.5 2.8-0.9 0 2.1-3.5 14.5-15.8l-4.5-1.9c-2.5-1.1-12.5-5.7-22.3-10.1-9.7-4.5-17.9-8.1-18.2-8.1-0.3 0 3.1 5.3 7.5 11.9 7.5 11.2 7.8 12 5.2 11.4-1.5-0.4-13.1-4.2-25.7-8.5-12.6-4.2-22.8-7.8-22.5-7.8 0.3-0.1 10.6-3.9 23-8.5 12.4-4.6 22.9-8.2 23.5-8.1zm792.3 4.6c0.6 0-11.3 12.3-53.9 54.7l13 17.2 17.3 0.5-12.4 14.5c-6.8 8-13 14.6-13.7 14.8-0.7 0.1-4.7-1.3-9-3.3-4.2-1.9-7.7-4-7.7-4.5 0-0.6 5.4-5.6 12-11.3 6.7-5.6 11.7-10.3 11.3-10.5-0.5-0.1-5.6-1-11.5-2-5.8-0.9-10.9-1.9-11.3-2.2-0.3-0.3 2.2-11 12-47.4l26.5-10.2c14.5-5.7 26.9-10.3 27.4-10.3z"/>
		<path id="Path 14" class="s2" d="m403.3 979.4c0.2 0 8.5 3.6 18.2 8.1 9.8 4.4 19.8 9 26.7 12l-8 7.9c-4.3 4.4-8.3 7.9-8.7 7.9-0.4 0-3.4-2.7-6.7-6-3.3-3.3-9.6-11.4-14.1-18-4.4-6.6-7.8-11.9-7.5-11.9z"/>
		<path id="Path 15" class="s1" d="m1088.9 1016.6c0.1 0.1 6.6 9.4 14.5 20.6 7.9 11.2 14.8 20.5 15.3 20.8 0.5 0.2 5.2-3.1 10.2-7.2 5.1-4.1 9.7-7.5 10.3-7.5 0.5 0 0.8 1.4 0.5 3.2-0.2 1.8-1 7.2-1.7 12.1-0.7 4.8-1.5 8.7-1.8 8.7-0.3 0-10.9-4.5-23.5-10-12.6-5.5-23.3-9.6-23.6-9.2-0.4 0.4-4.1 11.3-8.4 24.2-4.2 12.9-8 23.8-8.3 24.3-0.4 0.4-3.4-2-6.7-5.4-3.3-3.4-5.9-6.9-5.9-7.8 0.1-0.9 6.6-16.3 14.5-34.3 7.9-18 14.4-32.6 14.6-32.5zm-793.9 18.5c0.4 0.4 3.3 7.7 6.5 16.2 3.1 8.5 5.8 15.6 6 15.7 0.2 0.2 5-2.4 10.6-5.7 5.6-3.2 10.3-5.8 10.4-5.7 0.1 0.1-3.6 18.2-8.3 40.2-4.7 21.9-8.6 40-8.7 40.1-0.1 0.1-7.6 1.8-16.6 3.9-9.1 2-17.6 3.7-19 3.8-2.4 0.1-2.7-0.6-15.1-45.8l3.6-7c2-3.9 6.5-12.4 10-19 3.6-6.6 9.5-17.7 13.2-24.7 3.7-7 7-12.4 7.4-12zm-56.2 7.3c0.2-0.1 0 7-0.3 15.6-0.4 8.7-0.9 18.7-1.1 22.3-0.3 3.5-0.9 15.5-1.5 26.5-0.6 10.9-1.4 20.2-1.8 20.6-0.4 0.3-7 2.5-14.7 4.8-7.7 2.3-15.3 4.6-17 5.1-1.6 0.4-4.4 1.3-6.2 1.9-2.1 0.7-3.3 0.7-3.3 0 0-0.5 3.6-15.4 8-32.9 4.4-17.6 8.1-32.5 8.3-33.2 0.1-0.6-3.1-3.7-7.3-6.9-4.1-3.2-7.6-6.2-7.7-6.6-0.2-0.5 9.7-4.5 22-9 12.2-4.5 22.4-8.2 22.6-8.2z"/>
		<path id="Path 16" class="s2" d="m498 1103.8c1.3 1.1 11.6 9.6 23 19 12.6 10.3 20.2 17.2 19.4 17.5-0.7 0.4-9.1 2.3-18.7 4.4-9.6 2-17.6 3.5-17.6 3.4-0.1-0.2-1.8-9.8-3.8-21.3-2.1-11.6-3.9-21.9-4.1-23-0.4-1.8-0.4-1.8 1.8 0z"/>
		<path id="Path 17" class="s0" d="m205.9 1107.3c0.3 0 4.9 3.6 20 16l-12 4c-8.1 2.7-12 3.5-12 2.7 0-0.7 0.8-6.1 1.7-12 0.9-5.9 1.9-10.7 2.3-10.7z"/>
		<path id="Path 18" class="s1" d="m1045 1115.4c1-0.1 1.3 3.5 1.3 29.8h-12.5c-9.6 0-12.4 0.3-12.2 1.3 0.2 0.7 2.1 8.3 8.2 32.5l-12 14.7c-6.6 8.1-15.8 19.6-20.5 25.5-4.7 5.9-14.7 18.5-22.2 27.9-7.6 9.4-14.1 17.1-14.5 17.1-0.4 0-4.1-3.4-8.3-7.5-4.1-4.2-7.7-7.5-8-7.5-0.2-0.1-1.2 6.5-2.2 14.4-1 8-1.5 15-1.3 15.5 0.3 0.6 0.1 1-0.5 1-0.5 0-1 0.6-1 1.3 0 0.7-3.7 7.6-8.2 15.4-4.5 7.9-8.4 14.2-8.5 14-0.2-0.1 0.6-11.6 1.8-25.7 2.1-25.2 2.1-25.5 0.1-26.9-1-0.9-8.5-7.4-16.7-14.5-11-9.8-14.2-13.1-12.8-13.4 1-0.2 11.8 0.4 23.9 1.3 12.1 0.9 24.4 1.9 32.9 2.7l3-5.3c1.6-2.9 13.8-25.6 27.3-50.3 13.4-24.7 25-45.7 25.7-46.7 0.7-1 1.9-1.8 2.7-1.8 0.7 0 8.5-3.4 17.3-7.4 8.8-4 16.5-7.4 17.2-7.4zm-631 12.9c0.4 0 1.6 6.4 2.6 14.2 1.1 7.8 1.9 14.3 1.8 14.5-0.1 0.1-8.5-0.7-18.6-1.9-10.2-1.1-18.6-2.1-18.7-2.2-0.1-0.1 7.1-5.7 16-12.4 8.9-6.7 16.5-12.2 16.9-12.2z"/>
		<path id="Path 19" class="s2" d="m572.2 1148.4c6.7 9 12.1 16.4 12 16.6 0 0.2-6.4-1.5-14.1-3.7-7.7-2.3-14.1-4.2-14.2-4.3-0.2-0.2 0.4-4.5 1.3-9.8 0.8-5.2 1.8-10.7 2.2-12.3 0.7-2.6 1.4-1.8 12.8 13.5z"/>
		<path id="Path 20" class="s0" d="m324.6 1183.4l8.3 1.9c4.7 1 13 2.9 18.6 4.1 5.6 1.3 10.1 2.4 10 2.5-0.1 0.1-7.4 4.2-16.2 9.1-8.8 4.9-17 9.4-20.5 11.2l-0.1-14.4zm65.7 8.9c2.2-0.1 14.6 0.8 27.5 1.9 12.9 1.1 35.4 2.9 50 4.1 14.5 1.1 38.2 3 78.8 6.4l28.8 34.4c15.8 19 35.8 43 60.2 72l-8.7 5.7c-4.8 3.1-18.9 12.2-31.2 20.3-12.4 8-27.6 17.9-45.1 29.5l1.8 2.5c0.9 1.3 5.7 8.1 10.5 15 4.9 6.8 9.2 12.4 9.6 12.4 0.4 0 9.8-4.6 20.9-10.2 11.2-5.6 20.5-10.1 20.7-10 0.3 0.1 1.4 14.9 2.5 32.7 1.1 17.9 1.8 32.6 1.5 32.8-0.2 0.1-8.7-3.4-36.9-15.9l-15 6.7c-8.2 3.6-21.3 9.5-29 12.9-7.7 3.5-20 9-41 18.4l-0.2-16.9c-0.1-9.4-0.4-17-0.5-17-0.1 0-6.9 2-29.9 8.5l-8.2-9.6c-4.4-5.3-14.9-17.6-23.1-27.3-8.2-9.7-14.8-17.8-14.5-18 0.3-0.1 10.8-4.9 23.3-10.7 12.5-5.7 22.6-10.6 22.5-11-0.2-0.3-6.8-6.1-29.1-25.3l33.6-16.8c18.5-9.2 33.6-17 33.6-17.4 0-0.5-6.3-5.3-14.1-10.8-7.7-5.5-14.2-10.2-14.4-10.5-0.1-0.3 5.3-7.9 12.1-17 6.9-9 12.4-16.8 12.4-17.2 0-0.4-1.2-0.8-2.7-0.8-1.5 0-15.1-0.8-30.2-1.9-15.1-1.1-37.2-2.7-49-3.5-11.8-0.8-25.1-1.8-37.5-2.8l-7.7-17.6c-4.2-9.7-7.8-18.3-7.9-19-0.3-1 3-2.6 10.7-5.1 6-2.1 12.7-3.8 14.9-3.9z"/>
		<path id="Path 21" class="s2" d="m562.1 1202.2c0.3 0 13.9 8.9 59.8 39.5l-16.4 0.3c-14 0.2-16.5 0-17.4-1.3-0.5-0.9-6.7-9.8-13.7-19.8-7-10-12.8-18.3-12.8-18.4 0-0.2 0.3-0.3 0.5-0.3z"/>
		<path id="Path 22" class="s0" d="m944.3 1249.2c0.3 0 3.8 3.2 7.8 7.2 4 4 7.2 7.6 7.2 8 0 0.4-4 4-9 8-5 4-9.3 7-9.5 6.8-0.3-0.3 0.3-7.2 1.2-15.3 0.9-8.1 2-14.7 2.3-14.7z"/>
		<path id="Path 23" class="s1" d="m321.8 1384.1c0.6 0 5.7 0.7 11.3 1.5 5.6 0.8 11.7 1.7 16.7 2.5l0.1 25.5-18.8 4.1c-10.3 2.3-18.8 4.1-18.9 4 0-0.1 1.7-8 3.8-17.6 2.1-9.6 4.1-18.1 4.4-18.8 0.2-0.7 0.9-1.2 1.4-1.2z"/>
		<path id="Path 24" class="s0" d="m393.8 1393.1l11.5 5.7c6.3 3.2 11.5 6 11.5 6.2 0 0.3-5.2 4.1-23 16.1v-14z"/>
		<path id="Path 25" class="s1" d="m320.5 1445.4c4.6 5.9 8.2 10.8 8.1 11-0.1 0.2-7.6 4-16.5 8.5-8.9 4.5-16.3 7.7-16.4 7.2-0.1-0.5 3-8 7.1-16.7 4-8.7 7.7-16.9 8.3-18.2 0.9-2.2 1.4-1.8 9.4 8.2z"/>
		<path id="Path 26" class="s2" d="m576.1 1465.2c2.2 0 3.6 0.1 3 0.4-0.5 0.2-12.9 2.8-27.4 5.8-14.6 3.1-37.3 7.8-50.5 10.6-13.2 2.7-29.2 6.1-35.5 7.5-6.3 1.3-19.1 4-28.4 6-9.4 1.9-17.3 3.3-17.5 3-0.3-0.2 3-4.8 7.4-10.2 4.3-5.4 8.1-10 8.3-10.3 0.2-0.3 11.5-1.5 25.1-2.7 13.5-1.2 35.6-3.1 49.1-4.3 13.5-1.1 33-2.9 43.5-3.9 10.4-1 20.7-1.8 22.9-1.9z"/>
	</g>
</svg>