<svg version="1.2" xmlns="http://www.w3.org/2000/svg" viewBox="0 0 1000 1000" width="1000" height="1000">
	<title>luxemburg-svg</title>
	<style>
		.s0 { fill: #010101 } 
		.s1 { fill: #7f7f7f } 
		.s2 { fill: #ffffff } 
	</style>
	<g id="Brightness/Contrast 1 copy 2">
		<path id="Path 0" fill-rule="evenodd" class="s0" d="m262.1 17h7.4l7.7 23.2c4.3 12.8 7.8 23.9 7.8 24.6 0 0.7-0.7 1-1.7 0.6-1-0.3-7.6-2.1-14.8-4-7.1-1.9-14.5-3.9-19.5-5.4zm-17.6 1c0.6 0 1 1.2 0.8 2.7-0.2 1.6-1.4 10.6-2.8 20.1-1.4 9.4-2.5 17.7-2.5 18.2 0 0.5-0.5 1-1 1-0.6 0-2.7-3.3-8.5-14.5l-0.3 8.2c-0.1 4.7-0.7 8.3-1.2 8.3-0.6 0-3.3-1.1-6-2.5-2.8-1.4-5.1-2.2-5.1-1.8 0 0.5 2.5 5.2 5.5 10.5 3.1 5.4 5.6 10.1 5.6 10.5 0 0.5-4.4 4.6-9.8 9.3-5.3 4.7-10.5 9.1-11.5 9.8-1.6 1.1-2.2 0.2-6.4-8.6-4.2-8.7-4.7-9.4-5.4-7.2-0.5 1.4-2.8 9.4-5.1 17.8-2.4 8.3-4.6 14.9-5 14.5-0.3-0.5-5.2-9.4-10.7-19.8-5.6-10.5-10.3-19.8-10.4-20.9-0.2-1.4 9-8.1 39.3-28.7 21.7-14.7 39.9-26.8 40.5-26.9zm195.5 15.6c4.1 0.2 13.3 0.9 20.5 1.5 7.1 0.7 12.8 1.6 12.7 2.1-0.1 0.4-2 4.4-4.2 8.8-2.2 4.4-3.9 8.2-3.8 8.4 0.1 0.3 5.7-2.9 12.3-7 6.6-4.1 12.2-7.1 12.6-6.7 0.3 0.4 2.6 8.8 5 18.6 2.4 9.9 4.6 18.3 4.9 18.8 0.2 0.5 3.7 0.3 8-0.6 4.1-0.9 7.6-1.7 7.8-1.8 0.1-0.1-1.8-7.9-4.3-17.2-2.5-9.4-4.5-17.5-4.6-18 0-0.6 2.8-1.8 6.3-2.8 3.4-1 8.1-2.5 10.3-3.3 3.6-1.4 5.7-1.4 21.5 0.1 17.1 1.7 17.7 1.8 31 7.1 7.4 3 13.6 5.2 13.7 4.9 0.1-0.3-2.3-2.2-5.4-4.3-3.1-2-5-3.8-4.3-4 0.8-0.1 21.3 5.4 45.5 12.4 24.2 6.9 47.3 13.9 51.5 15.6 4.7 1.9 22.6 12.7 90.7 56.3l9.4 22.4c6.8 16.1 9.9 22.5 11.4 23.1 1.1 0.4 7.8 1.3 28 3.2l10 9.8c5.5 5.3 17.5 15.2 27 22 9.3 6.8 21.1 15.9 26.2 20.2 5.1 4.3 8.9 8 8.5 8.2-0.4 0.2-4.5 1.5-9 3-4.5 1.4-8.1 2.9-7.9 3.3 0.3 0.5 7.3 3.5 30.8 12.8l59.9 76.5v22c0 21.2 0.1 22.4 6.2 47.5l-10 23.5c-8.8 20.6-10.6 25.9-19.5 62.5l3.1 15.5c2.9 14 3.2 17.3 3.2 53.5l-10 13.5v8.7c0 7.8-0.6 10.4-9.5 36.8l-22.5 19.5c-12.4 10.7-23.7 20.6-25.1 22-1.9 1.9-3.2 5.4-8.4 27.3l-5 3.7c-2.8 2.1-11.1 10-18.5 17.6-7.5 7.7-17.1 18.1-21.5 23.2-6.9 7.9-8.4 9.1-10.5 8.7-1.4-0.2-7.8-1-14.3-1.7-8.9-1-12-1-12.5-0.2-0.4 0.7-2.7 9.9-5.1 20.5-2.3 10.7-4.1 19.5-4 19.7 0.2 0.1 4.5-2.4 18.9-11.8l3.3 3.2c1.8 1.8 4.8 5.1 6.7 7.2 3.3 3.8 3.6 4.8 9.8 42.1l-3.7 4.5c-2 2.5-7.2 8.5-11.6 13.5-4.3 5-8.2 9.2-8.5 9.5-0.3 0.3-6.2 6.8-13 14.5-6.8 7.7-12.4 14.1-12.4 14.2-0.1 0.1-6.2 1.6-13.6 3.3-7.5 1.7-14.2 3-15 3-1.4 0-1.4-1.9 0-17.5 0.8-9.6 1.2-17.4 0.9-17.2-0.4 0.1-4.7 2.9-18.7 12.2l6.1 7.8c3.4 4.2 5.9 7.9 5.7 8.1-0.3 0.2-8.2-1.1-17.5-3-16.7-3.3-17.5-3.4-38.8-3.2-14 0.2-21.7-0.1-21.7-0.7 0-0.5 2.2-13.8 4.9-29.5 2.7-15.7 4.8-28.6 4.7-28.7-0.1-0.1-6.9-1.6-15.1-3.3-8.3-1.6-15.2-3-15.3-3-0.1 0-0.3-0.3-0.3-0.8 0-0.4 5.2-3.4 11.6-6.7 6.3-3.3 11.2-6.3 10.7-6.6-0.4-0.4-6.7-2.6-13.9-5-7.3-2.4-13.4-4.2-13.7-3.9-0.2 0.3-3.2 6-6.5 12.7-3.4 6.8-6.3 12.2-6.6 12-0.2-0.1-1.8-6.3-3.5-13.7-1.7-7.4-3.1-14-3-14.5 0-0.5 3-2.8 6.7-5 5.9-3.5 6.4-4 4.3-4.3-1.4-0.2-6.1 0.1-10.5 0.7-4.4 0.6-9.4 1.1-11 1.1-2.9 0-2.6-0.4 6.5-9.5 6.5-6.5 9-9.6 8-9.9-0.9-0.3-8.4-1.1-16.9-1.8-8.4-0.7-15.5-1.5-15.7-1.8-0.2-0.3 4.4-3.9 10.1-8 5.8-4.1 10.5-7.7 10.5-8 0-0.3-3.4-1.9-7.5-3.5-7.4-2.9-7.5-3.1-7.5-6.5 0-1.9 0.6-13.2 1.5-25 1.3-19.2 1.3-23 0-36-0.9-8-1.6-15.4-1.6-16.5 0-1.5 2-3 7.8-5.9 5.6-2.9 7.2-4.1 5.8-4.4-1.1-0.2-5.6 0.1-10 0.7-4.4 0.6-8.6 1.1-9.3 1.1-0.9 0-1.2-3.3-1.2-26.5l-6.6-19.5c-3.6-10.7-6.6-19.6-6.7-19.7-0.1-0.1-9.2-2.3-20.2-4.8-11-2.5-20.4-4.4-20.8-4.3-0.4 0.2 2 4.3 5.2 9.3 3.3 5 5.7 9.3 5.3 9.6-0.4 0.4-15.8 5.7-67.7 23l-5.5-1.1c-3.1-0.6-6.1-1.5-6.8-1.8-1-0.5 0.2-4.1 4.7-14.5 3.3-7.5 6.1-14.2 6.1-14.7 0-0.5-0.8-0.8-1.8-0.6-1 0.3-7.4 1-26.7 3l-8-6.4c-4.4-3.5-8.2-6.5-8.3-6.7-0.1-0.2 1.8-4.3 4.3-9.3 2.4-5 4.2-9.3 4-9.8-0.3-0.4-5.8 1.4-12.3 3.9-6.5 2.6-12.4 4.9-13.2 5.3-0.9 0.3-2.2 0.2-3-0.4-0.9-0.5-1.3-1.1-1-1.3 0.2-0.2 5.2-3.7 21.5-15.3l46-9.6 42.5 42.7 14.5-7.3c7.9-3.9 14.5-7.7 14.5-8.2 0-0.6-5.6-1-29.5-1l-15.8-27.5c-8.7-15.1-15.6-27.7-15.5-27.9 0.1-0.2 10.2 1.8 22.3 4.4 12.1 2.7 22.1 4.8 22.2 4.7 0.1-0.1 1.9-5.4 4.1-11.7 2.1-6.3 4.3-11.6 4.8-11.7 0.5-0.2 0.8 0.7 0.7 2-0.2 1.2-0.7 8.7-1.3 16.7-0.7 8-1 14.6-0.8 14.7 0.1 0.1 5 0.9 10.8 1.8 5.7 0.9 10.6 1.8 10.7 2.1 0.1 0.2-3.7 2.4-17.2 9.3l21.5 0.1-6.5-19.3c-3.6-10.5-6.6-19.4-6.6-19.7 0-0.3 8.1-9.4 36.1-40l-10-69.5-10.2-15c-5.7-8.3-15.3-22.3-32.3-47.3l-99-39.8-5.8-9.9c-3.2-5.5-6.2-10.1-6.7-10.3-0.6-0.1-1 3-1 7.8 0 4.4-0.3 8-0.5 8-0.3 0-3.7-3.4-7.5-7.5-3.9-4.1-7.7-7.5-8.5-7.5-0.9 0-17.1 4.3-36 9.5-19 5.2-36 9.5-37.8 9.5-1.8 0-19.9-1.8-40.2-4-20.4-2.2-38.2-4-39.5-4-1.9 0.1-2.2 0.3-1 0.9 0.8 0.5 8.2 2.7 16.5 5.1 8.2 2.3 15.4 4.6 16 5.1 0.5 0.5-0.9 1-3.5 1.3-2.5 0.3-8.9 1-14.3 1.6-5.4 0.5-10.2 1-10.7 1-0.6 0-13.5 11.1-28.8 24.6-15.3 13.6-28.5 25.1-29.5 25.5-1.6 0.9-1.6 0.6 0-5.4 1.5-5.2 5-10.7 22.5-35 11.4-15.8 20.8-28.8 20.8-29-0.1-0.1-8 1-17.8 2.5-9.8 1.5-18.6 2.8-21.7 2.8l4-19.1 5-1.4c2.7-0.8 19.7-5.2 37.7-9.9 18-4.8 33-8.6 33.3-8.6 0.2 0 0.6 4.6 1 20.3l16 5.3c8.8 3 16.4 5.3 17 5.1 0.5-0.2-3.3-2.9-8.5-6.2-5.3-3.2-10.1-6.3-10.9-6.9-1-0.9 1-3.1 9.5-10.5 6-5.2 11.1-9.6 11.4-9.8 0.2-0.2-5.6-6.4-13-13.8-12.9-12.7-13.8-13.4-19-14.5-3.1-0.6-5.7-1-5.8-0.8-0.2 0.2 1 3.3 2.5 7.1 1.5 3.7 2.5 7 2.3 7.3-0.3 0.3-9-2.2-19.3-5.5-10.3-3.4-18.7-6.4-18.7-6.9 0-0.4 1.7-2.3 3.7-4.3 2.1-2 3.3-3.9 2.8-4.2-0.6-0.2-6.3 0.7-12.8 2.2-6.5 1.4-12 2.4-12.3 2.1-0.2-0.3 1.9-2.2 4.8-4.3 2.9-2.1 5.5-4 5.8-4.2 0.2-0.3-2.8-4.3-6.8-9-4-4.7-7.1-8.9-7-9.4 0.1-0.5 9.3 2.4 20.3 6.5 11 4.1 20.9 7.7 22 8 1.2 0.4 1.6 0.3 1-0.3-0.6-0.5-12.3-6.1-26-12.3-13.8-6.2-25.5-11.7-26-12.2-0.6-0.5 1.6-0.8 5.5-0.8 3.5 0 15.9 0.4 27.5 1 11.5 0.5 23.1 1.1 25.7 1.2 2.6 0.2 4.7 0 4.8-0.5 0-0.4-10.4-8.2-23-17.5-14.4-10.4-22.4-16.8-21.3-17 1-0.2 11.7 0.8 23.8 2.3 12.1 1.4 23.6 2.7 29.5 3.5l-4.5-13c-2.5-7.2-4.2-13.2-3.8-13.4 0.4-0.3 9.3 9.5 19.7 21.7 18 21 19.7 23.4 32.8 45.4 7.6 12.8 13.5 23.6 13.3 24-0.3 0.5-5.6-1.4-11.8-4-6.2-2.6-11.4-4.5-11.5-4.2-0.1 0.3 10.9 6.3 24.5 13.4 13.6 7.2 25.5 13.2 26.5 13.5 1 0.3 1.8 0.4 1.8 0.1 0-0.3-2.3-3.9-5-8-2.8-4.1-5-7.9-5-8.5 0-0.6 2-0.4 5 0.5 3.8 1.2 5 1.2 4.9 0.2 0-0.6-6.5-10.3-14.5-21.5-7.9-11.1-14.2-20.4-13.9-20.7 0.2-0.3 6.2 3.3 13.2 8 7.8 5.2 12.9 8 13.1 7.3 0.1-0.7-1.6-14.4-3.8-30.3-2.3-16-4.3-30.2-4.6-31.8-0.2-1.5 0-2.7 0.6-2.7 0.5 0 9.1 9.6 19.1 21.2 10 11.7 18.4 21.4 18.7 21.6 0.4 0.1 1.3-3.2 2.2-7.3 0.8-4.1 1.7-7.5 2-7.5 0.2-0.1 6.8 4.9 14.5 10.9 7.7 6 14.1 10.8 14.2 10.7 0.2 0-3.3-25.1-7.8-55.6-4.4-30.5-7.9-55.6-7.7-55.7 0.1-0.1 5-0.9 10.8-1.7 5.7-0.8 13.8-1.3 18-1zm-302.3 79.4c0.4 0 4 3.5 8 7.7 3.9 4.3 7 7.9 6.7 8-0.2 0.2-2.7-1.1-5.4-2.7-2.8-1.7-5.3-3-5.5-3-0.3 0 1.5 4.8 4 10.7 2.5 6 4.5 10.9 4.5 11 0 0.2-3.6 0.3-16 0.3l-0.3-9.3c-0.2-5 0-10.3 0.4-11.7 0.4-1.4 1.3-4.4 1.8-6.8 0.6-2.3 1.4-4.2 1.8-4.2zm263.3 356.1c0.8-0.1 12.5 2.2 26 5 13.4 2.9 24.7 5.4 25 5.6 0.2 0.2 0.2 0.5 0 0.8-0.3 0.3-8.2 1.4-17.5 2.5-9.4 1.1-17.8 2-18.8 2-1.6 0-1.7 1.2-1.7 23.5l-10.1 8.5c-5.5 4.7-10.4 8.6-11 8.7-0.5 0.2-0.9-0.3-0.9-1 0-0.6 2-9.1 4.4-18.7 2.5-9.6 4.2-17.6 3.8-17.8-0.4-0.2-5.2-2.2-10.6-4.5-5.4-2.3-9.9-4.6-10-5.1-0.1-0.5 4.4-2.8 9.9-5.2 5.5-2.3 10.6-4.3 11.5-4.3zm-6.5 71.9c2.2 0 2.3 0.3 1.5 2.2-0.5 1.3-1.5 3.6-2.4 5.3-0.8 1.6-2.2 3.7-3.2 4.5-1.6 1.4-1.7 1.2-1-3.5 0.4-2.8 1.2-5.8 1.7-6.8 0.5-0.9 2-1.7 3.4-1.7z"/>
		<path id="Path 1" fill-rule="evenodd" class="s1" d="m361 0.1c3.7-0.1 8.9 1.9 30.5 11.8 14.3 6.5 28.7 13 32 14.6 3.3 1.5 7.7 3.4 9.8 4.4 2 0.9 3.6 1.7 3.5 1.8-0.2 0.1-5.9 0.9-12.8 1.8-6.9 0.9-12.6 1.7-12.8 1.8-0.1 0.1 3.3 25.2 7.8 55.7 4.4 30.5 7.9 55.6 7.8 55.6-0.2 0.1-6.6-4.7-14.3-10.7-7.7-6-14.2-11-14.5-10.9-0.3 0-1.2 3.4-2 7.5-0.8 4.1-1.8 7.4-2.1 7.3-0.4-0.2-8.8-9.9-18.8-21.6-9.9-11.6-18.5-21.2-19.1-21.2-0.6 0-0.8 1.2-0.5 2.7 0.2 1.6 2.3 15.8 4.5 31.8 2.3 15.9 4 29.6 3.8 30.3-0.2 0.7-5.3-2.1-13-7.3-7.1-4.7-13-8.3-13.3-8-0.3 0.3 6 9.6 14 20.7 7.9 11.2 14.5 20.9 14.5 21.5 0 1-1.1 1-5-0.2-3-0.9-5-1.1-5-0.5 0 0.6 2.3 4.4 5 8.5 2.8 4.1 5 7.7 5 8 0 0.3-0.8 0.2-1.7-0.1-1-0.3-12.9-6.3-26.5-13.5-13.7-7.1-24.7-13.1-24.5-13.4 0.1-0.3 5.3 1.6 11.4 4.2 6.2 2.6 11.5 4.5 11.8 4 0.3-0.4-5.7-11.2-13.3-24-13-22-14.8-24.4-32.7-45.4-10.5-12.2-19.3-22-19.7-21.7-0.5 0.2 1.2 6.2 8.2 26.4l-3.7-0.5c-2.1-0.3-13.7-1.6-25.8-3-12.1-1.5-22.8-2.5-23.7-2.3-1.1 0.2 6.8 6.6 21.2 17 12.7 9.3 23 17.1 23 17.5 0 0.5-2.2 0.7-4.8 0.5-2.6-0.1-14.1-0.7-25.7-1.2-11.6-0.6-23.9-1-27.5-1-3.8 0-6.1 0.3-5.5 0.8 0.6 0.5 12.3 6 26 12.2 13.8 6.2 25.4 11.8 26 12.3 0.6 0.6 0.3 0.7-1 0.3-1.1-0.3-11-3.9-22-8-11-4.1-20.1-7-20.2-6.5-0.2 0.5 3 4.7 7 9.4 3.9 4.7 7 8.7 6.7 9-0.3 0.2-2.9 2.1-5.7 4.2-2.9 2.1-5.1 4-4.8 4.3 0.2 0.3 5.7-0.7 12.2-2.1 6.5-1.5 12.2-2.4 12.8-2.2 0.6 0.3-0.7 2.2-2.7 4.2-2.1 2-3.8 3.9-3.8 4.3 0 0.5 8.4 3.5 18.8 6.9 10.3 3.3 18.9 5.8 19.2 5.5 0.3-0.3-0.8-3.6-2.3-7.3-1.5-3.8-2.6-6.9-2.5-7.1 0.2-0.2 2.8 0.2 5.8 0.8 5.2 1.1 6.1 1.8 19 14.5 7.4 7.4 13.3 13.6 13 13.8-0.3 0.2-5.4 4.6-11.3 9.8-8.5 7.4-10.6 9.6-9.5 10.5 0.7 0.6 5.6 3.7 10.8 6.9 5.2 3.3 9.1 6 8.5 6.2-0.6 0.2-8.2-2.1-33-10.4l-0.2-10.2c-0.3-9.9-0.3-10.1-2.5-9.6-1.3 0.2-18.4 4.6-38 9.7-19.7 5.1-35.8 9.2-35.8 9 0-0.1 1.1-2.5 2.5-5.2 1.4-2.8 2.3-5.3 2-5.8-0.3-0.4-10.6 4.3-45 21.5l9.8 4.9c5.3 2.7 9.7 5.2 9.7 5.6 0 0.5-4.8 9-10.7 19-5.8 10.1-10.7 18.8-10.7 19.5-0.1 0.6 5.3 4.6 11.9 8.7 6.6 4.2 12.3 7.6 12.8 7.6 0.4 0 1.1-1.7 1.6-3.8 0.5-2 3.3-14.5 11.4-51.7l19.8-3c11-1.6 19.9-2.9 19.9-2.8 0 0.2-9.2 13-20.4 28.5-11.2 15.6-20.7 29-21 29.8-0.4 0.8-1.6 1.6-2.9 1.7-1.2 0-3.4 0.6-7.7 2.3l6 9 3.3-2.2c1.7-1.2 14.9-12.6 29.2-25.3 14.3-12.7 26.4-23.4 27-23.7 0.6-0.3 5.7-1.1 11.5-1.7 5.8-0.6 12.5-1.3 15-1.6 2.6-0.4 4.1-0.9 3.5-1.4-0.6-0.5-7.7-2.8-16-5.1-8.2-2.4-15.7-4.6-16.5-5.1-1.1-0.6-0.9-0.8 1-0.9 1.4 0 19.2 1.8 39.5 4 20.4 2.2 38.5 4 40.3 4 1.7 0 18.7-4.3 37.7-9.5 19-5.2 35.2-9.5 36-9.5 0.8 0 4.6 3.4 8.5 7.5 3.9 4.1 7.2 7.5 7.5 7.5 0.3 0 0.5-3.6 0.5-8 0-4.8 0.4-7.9 1-7.8 0.5 0.2 3.6 4.8 12.5 20.2l99 39.8 11 16.1c6 8.9 15.6 22.9 31.6 46.2l9.9 69.5-18 19.7c-10 10.9-18.1 20-18 20.3 0 0.3 2.9 9.2 13 39l-21.5-0.1 8.8-4.5c4.8-2.4 8.6-4.6 8.4-4.8-0.1-0.3-4.9-1.2-10.7-2.1-5.8-0.9-10.6-1.7-10.8-1.8-0.2-0.1 0.2-6.7 0.8-14.7 0.6-8 1.2-15.5 1.3-16.7 0.1-1.3-0.2-2.2-0.7-2-0.5 0.1-2.6 5.4-4.8 11.7-2.1 6.3-4 11.6-4.1 11.7-0.1 0.1-10.1-2-22.2-4.7-12.1-2.6-22.1-4.6-22.3-4.4-0.1 0.2 6.9 12.8 31.3 55.4h14.7c9.2 0 14.8 0.4 14.8 1 0 0.5-6.5 4.3-29 15.5l-42.9-43-21.8 4.7c-12 2.6-21.9 4.5-22.1 4.3-0.1-0.3 2.7-2.9 6.3-5.8 3.6-2.8 6.5-5.5 6.5-6 0-0.4-3.9-1.2-8.8-1.8-4.8-0.7-9.7-1.2-10.9-1.3-2.2-0.1-2.3-0.4-2.3-11.9 0-10.5 0.2-11.7 1.7-11.7 1 0 9.4-0.9 18.8-2 9.4-1.1 17.2-2.2 17.5-2.5 0.3-0.3 0.3-0.6 0-0.8-0.3-0.2-11.8-2.8-50.5-11.1l-10.8 4.5c-5.9 2.4-10.9 4.8-11 5.4-0.1 0.5 4.3 2.8 9.8 5.2 5.5 2.3 10.3 4.3 10.7 4.5 0.4 0.2-1.3 8.4-3.8 18.3-2.5 9.9-4.2 18.6-3.9 19.2 0.3 0.7 0.1 1.5-0.5 1.8-0.6 0.3-1 3.8-1 7.7 0.1 4-0.4 9.3-1 11.8-0.6 2.5-1 5.2-0.8 6 0.2 0.9-3.1 4.6-7.7 8.6-4.4 3.9-8.5 7.7-9.1 8.5-0.9 1.1 2.3 19 13.5 76.7 12.7 65.7 14.9 75.5 16.6 76.4 1.1 0.7 4.7 2.2 8 3.5 3.3 1.3 6.3 2.3 6.7 2.3 0.5 0 1.1-1 1.4-2.3 0.3-1.2 1.8-5.5 5.9-16.8l16 16.1 5.6-8.8c3.1-4.8 17.9-27.6 32.9-50.7 14.9-23.1 27.3-42.2 27.3-42.5 0.1-0.3-2.7-7.2-6.3-15.3-4.8-10.9-7-14.7-8.3-14.7-0.9 0-6.8 0.6-13 1.4-6.1 0.8-18.7 2.3-27.9 3.3-9.2 1-16.9 1.6-17.1 1.3-0.3-0.3-3.9-6.1-8.1-13-4.2-6.9-7.3-12.8-6.9-13.1 0.4-0.4 4.9-2.7 9.8-5.2 8.4-4.2 9.8-4.6 21.5-5.7 6.9-0.6 13.3-1.3 14.2-1.6 1-0.2 1.8 0.1 1.8 0.6 0 0.5-2.7 7.2-6 14.7-4.6 10.4-5.8 14-4.8 14.5 0.7 0.3 3.8 1.2 12.3 2.9l33.5-11.2c18.4-6.1 33.8-11.4 34.2-11.8 0.4-0.3-1.9-4.6-5.2-9.6-3.3-5-5.7-9.1-5.2-9.3 0.4-0.1 9.7 1.8 20.7 4.3 11 2.5 20.1 4.7 20.2 4.8 0.1 0.1 3.2 9 13.3 39.2v13.2c0 10 0.3 13.3 1.2 13.3 0.7 0 4.9-0.5 9.3-1.1 4.4-0.6 8.9-0.9 10-0.7 1.4 0.3-0.1 1.5-5.8 4.4-5.7 2.9-7.7 4.4-7.7 5.9 0 1.1 0.7 8.5 1.5 16.5 1.4 13 1.4 16.8 0 36-0.8 11.8-1.5 23.1-1.5 25 0 3.4 0.1 3.6 7.5 6.5 4.2 1.6 7.6 3.2 7.6 3.5-0.1 0.3-4.8 3.9-10.5 8-5.8 4.1-10.4 7.7-10.2 8 0.2 0.3 7.3 1.1 15.7 1.8 8.5 0.7 16.1 1.5 16.9 1.8 1 0.3-1.4 3.4-8 9.9-9.1 9.1-9.4 9.5-6.5 9.5 1.6 0 6.6-0.5 11-1.1 4.4-0.6 9.1-0.9 10.5-0.7 2.2 0.3 1.6 0.8-4.2 4.3-3.7 2.2-6.8 4.5-6.8 5 0 0.5 1.3 7.1 3 14.5 1.7 7.4 3.3 13.6 3.5 13.7 0.3 0.2 3.3-5.2 6.6-12 3.4-6.7 6.3-12.4 6.6-12.7 0.2-0.3 6.3 1.5 13.6 3.9 7.3 2.4 13.6 4.6 14 5 0.4 0.3-4.4 3.3-10.8 6.6-6.4 3.3-11.6 6.3-11.5 6.7 0 0.5 0.1 0.8 0.2 0.8 0.2 0 7 1.4 15.3 3 8.2 1.7 15.1 3.2 15.2 3.3 0 0.1-2.1 13.5-4.9 29.7-2.7 16.2-5.5 30-6.1 30.6-0.7 0.6-10.7 7.6-22.2 15.4-11.5 7.9-32.5 22.2-46.5 31.8-14 9.7-43.7 30-66 45.2-22.3 15.2-41.1 27.9-41.8 28.3-0.6 0.4-9.6 1.6-20 2.7-10.3 1.1-29.5 3.1-42.7 4.5-13.2 1.4-25.3 2.6-26.9 2.8-2.7 0.2-3.4-0.5-7.7-7.8-2.7-4.4-4.7-8.1-4.6-8.2 0.1-0.2 18.9-3 41.7-6.3 22.8-3.3 41.7-6.3 42-6.5 0.3-0.3 0.3-0.7 0-1-0.3-0.2-13.1-1.1-28.5-2-15.4-0.8-40.6-2.2-56-3.1-15.4-0.8-28.3-1.6-28.6-1.7-0.3-0.1 4.5-9.7 10.7-21.2 6.3-11.5 11-21.3 10.6-21.7-0.4-0.4-9.9-6.3-41.7-25.9l-1-53.4-3.5-0.6c-1.9-0.3-17.2-3.6-34-7.3-16.8-3.6-31.8-7-33.5-7.5-2.1-0.6-2.5-1-1.5-1.5 0.8-0.3 14.6-5.3 30.5-11.2 15.9-5.8 29.1-10.7 29.2-10.7 0.1-0.1-5.7-7.2-12.9-15.7-7.1-8.5-19-22.8-39.8-48l69.5-217.2 43-46.1 79-26.4 7.8-20.4c4.3-11.2 7.6-20.6 7.3-20.9-0.3-0.3-2.8 1.2-5.6 3.2-2.7 2.1-5.3 3.8-5.8 3.8-0.4 0-1.3-3.5-2-7.7-0.7-4.3-2.1-12.3-4.9-27.8l12.1-14c6.7-7.7 15.6-18.1 27.5-32l-1.6-5c-0.8-2.8-3-10-4.8-16-2.8-9.3-3.7-11.1-5.6-11.7-1.3-0.4-11.6-1.4-22.9-2.3-11.3-0.8-34.2-2.6-51-4-16.8-1.3-50.1-4-74-5.9-23.9-2-46-3.8-54.5-4.5l-79 59-43.4 102.4-0.1 215-46.7-47-18.7-84.5c-10.3-46.5-19.9-89.2-23.6-105.5l-15.7-6.4c-8.7-3.5-16.3-6.8-16.8-7.2-0.6-0.6 3.9-15.2 25.8-79.4l-9.8-46.7 44-74.8c26.3-44.8 44.3-74.4 44.7-73.7 0.4 0.7 0.8 4.7 0.8 16.7h8c4.4 0 8-0.1 8-0.3 0-0.1-2-5-4.5-11-2.5-5.9-4.3-10.7-4-10.7 0.3 0 2.7 1.3 5.5 3 2.7 1.6 5.2 2.9 5.5 2.7 0.3-0.1-3.1-4-15.5-17.2v-26l12.5-6.3c6.9-3.4 12.8-6.2 13.2-6.2 0.5-0.1 5.7 9 11.7 20.2 5.9 11.2 11.1 20.6 11.5 21.1 0.3 0.4 2.5-6.2 4.9-14.5 2.4-8.4 4.7-16.4 5.1-17.8 0.7-2.2 1.3-1.5 5.4 7.2 4.2 8.8 4.9 9.7 6.4 8.6 1-0.7 6.2-5.1 11.6-9.8 5.4-4.7 9.7-8.8 9.7-9.3 0-0.4-2.5-5.1-5.5-10.5-3.1-5.3-5.5-10-5.5-10.5 0-0.4 2.2 0.4 5 1.8 2.7 1.4 5.4 2.5 6 2.5 0.6 0 1.1-3.6 1.5-16.5l3.7 7.2c2.1 4 4.2 7.3 4.8 7.3 0.6 0 1-0.5 1-1 0-0.6 1.4-10.1 3-21.3 1.7-11.1 3-20.5 3-21 0-0.4 3.6-0.7 8-0.7 4.4 0 8 0.3 8 0.7 0 0.5-2.9 9.5-13 39.3l3.2 1c1.8 0.5 9.1 2.5 16.3 4.4 7.2 1.9 13.8 3.7 14.7 4 1.1 0.4 1.8 0.1 1.8-0.7 0-0.6-3.6-11.8-15.8-48.2l6.3-6.5h11.7c8.7 0 17.3-0.9 33-3.5 11.7-1.9 24.7-4.2 28.8-4.9 4.1-0.8 9.5-1.4 12-1.5zm159.5 33.1c5.7-0.1 5.9-0.1 3 1.2-1.6 0.7-6 2-9.8 2.9-3.8 1-6.7 2.2-6.7 2.9 0 0.7 2.1 8.9 4.6 18.3 2.5 9.3 4.4 17.1 4.2 17.2-0.2 0.1-3.7 0.9-7.8 1.8-4.3 0.9-7.7 1.1-8 0.6-0.3-0.5-2.5-8.9-4.9-18.8-2.4-9.8-4.6-18.2-5-18.6-0.3-0.4-6 2.6-12.6 6.7-6.6 4.1-12.1 7.4-12.3 7.3-0.1-0.1 1.7-4.3 8.3-18.5l7-0.6c3.9-0.3 13.1-1 20.5-1.4 7.4-0.5 16.2-1 19.5-1zm50.2 2.9c5.1 0.3 7.6 0.9 8.5 2 0.7 0.9 3.4 3 6 4.8 2.7 1.7 4.7 3.3 4.5 3.6-0.1 0.3-5.8-1.8-12.7-4.6-6.9-2.7-12.7-5.3-13-5.6-0.2-0.3 2.8-0.4 6.7-0.2zm221.3 110.4c16.9 16.9 23.5 24.1 22.3 24.3-1 0.1-7.4-0.4-14.3-1.2-6.9-0.8-12.8-1.9-13.1-2.3-0.4-0.4-4.4-9.6-8.9-20.3-4.5-10.7-8.7-20.6-9.2-22-0.5-1.4 9.9 8.3 23.2 21.5zm97.3 84.8c0.4 0.1 3.4 4.2 6.7 9.2 3.2 4.9 5.7 9.2 5.5 9.5-0.3 0.3-6.9-2.1-14.7-5.3-7.9-3.2-14.8-6.2-15.3-6.7-0.6-0.5 2.8-2.1 8-3.8 5-1.7 9.3-3 9.8-2.9zm59.6 211.7c0.3 0 2.1 2.6 4 5.7 1.9 3.2 4 6.7 4.8 7.8 1.2 1.8 0.5 3-8.2 13.2-5.2 6.2-9.7 11.3-10 11.3-0.3 0 0.1-2.4 0.8-5.3 0.8-2.8 2.9-11.4 4.7-19 1.8-7.5 3.6-13.7 3.9-13.7zm-547.5 98.3c2 0.9 1.8 1.2-2.9 5.2-2.8 2.4-5.1 4.1-5.3 3.9-0.1-0.2 0.7-2.4 1.9-4.8 1.1-2.5 2.5-4.7 3.1-4.9 0.6-0.2 2.1 0 3.2 0.6zm388.9 188.7c1.8 0.1 8.4 0.7 14.7 1.5 6.3 0.8 11.6 1.6 11.7 1.7 0.2 0.2 0.2 17.4-0.2 76.3l-2.8-17c-1.6-9.4-3-17.7-3.3-18.5-0.2-0.8-3.3-4.5-13.4-15l-9.2 6c-5.1 3.4-9.5 5.8-9.8 5.5-0.3-0.3 1.2-7.9 3.3-16.8 2.1-8.9 4.3-17.9 4.8-20 0.9-3.3 1.3-3.7 4.2-3.7zm17.4 93c0.2 0-2 2.8-4.9 6.1-2.9 3.4-7.1 8.5-9.2 11.3-2.2 2.8-11.1 13.9-19.9 24.6-8.8 10.7-16.1 19.6-16.1 19.7-0.1 0.2-8.2-3-18.1-7.1-9.9-4-22.2-9.1-27.2-11.2-5.1-2.1-9.2-4-9-4.1 0.1-0.1 6.7 1.1 14.7 2.7 8 1.5 14.7 2.6 15 2.4 0.3-0.2-2.3-3.9-11.8-15.9l9-6c5-3.3 9.4-6.1 9.7-6.2 0.3-0.2-0.1 7.6-0.9 17.2-1.3 15.6-1.3 17.5 0 17.5 0.8 0 7.6-1.3 15-3 7.4-1.7 13.5-3.2 13.6-3.3 0-0.1 5.7-6.5 12.5-14.2 6.8-7.7 12.8-14.5 13.4-15 0.7-0.5 4-4.3 7.5-8.3 3.4-3.9 6.5-7.2 6.7-7.2z"/>
		<path id="Path 2" fill-rule="evenodd" class="s2" d="m201.1 229c0.5 0 0.9 0.2 0.9 0.5 0 0.3-1.3 3.3-3 6.8-2.2 4.5-5 15.7-10.5 41.2-4.2 19.2-7.8 35.8-8 36.8-0.3 0.9-0.8 1.7-1.2 1.7-0.5 0-6.2-3.4-12.8-7.6-6.6-4.1-12-8.1-11.9-8.7 0-0.7 4.9-9.4 10.7-19.4 5.9-10.1 10.7-18.6 10.7-19.1 0-0.4-4.4-2.9-19.5-10.5l21.9-10.8c12-6 22.2-10.9 22.7-10.9zm71.4 48.1l5.5 0.5c3 0.2 25.1 2 49 4 23.9 1.9 57.2 4.6 74 5.9 16.8 1.4 39.7 3.2 51 4 11.3 0.9 21.6 1.9 22.9 2.3 1.9 0.6 2.8 2.4 5.6 11.7 1.8 6.1 4 13.3 6.4 21l-7.7 9c-4.2 4.9-13.1 15.3-31.9 37l1.8 10c1 5.5 2.4 13.5 3.1 17.8 0.7 4.2 1.6 7.7 2.1 7.7 0.4 0 3-1.7 5.7-3.8 2.8-2 5.3-3.5 5.6-3.2 0.3 0.3-3 9.7-15.1 41.3l-79 26.4-43 46.1-69.5 217.2 13.4 16.3c7.4 8.9 19.3 23.2 26.4 31.7 7.2 8.5 13 15.6 12.9 15.7-0.1 0-13.3 4.9-29.2 10.7-15.9 5.9-29.7 10.9-30.5 11.2-1 0.5-0.6 0.9 1.5 1.5 1.7 0.5 16.7 3.9 33.5 7.5 16.8 3.7 32.1 7 37.5 7.9l1 53.4 20.5 12.6c11.3 7 20.8 12.9 21.2 13.3 0.4 0.4-4.3 10.2-10.6 21.7-6.2 11.5-11 21.1-10.7 21.2 0.3 0.1 13.2 0.9 28.6 1.7 15.4 0.9 40.6 2.3 56 3.1 15.4 0.9 28.2 1.8 28.5 2 0.3 0.3 0.3 0.7 0 1-0.3 0.2-19.2 3.2-42 6.5-22.8 3.3-41.6 6.1-41.7 6.3-0.1 0.1 2 3.9 4.7 8.5 2.8 4.5 4.7 8.2 4.3 8.2-0.5 0-8 1.4-16.8 3-12.8 2.4-18.8 3-44 3l-12-4.4c-6.6-2.5-20.8-7.7-31.5-11.6-10.7-3.9-21.5-7.8-23.9-8.8-4.1-1.6-5.6-3.6-54-74.7l-7-33.2c-3.9-18.3-10.2-48-14-66-3.8-18.1-12.4-58.4-31.1-146.8l0.1-216 43.4-102.4zm-83.8 37.6c1.1 0.3 1.1 1.2-0.2 5.6-0.8 2.8-1.7 5.3-2 5.5-0.2 0.1-1.8-1.8-6.5-8.8l2.3-0.8c1.2-0.5 2.9-1.1 3.6-1.4 0.8-0.3 2-0.3 2.8-0.1zm228.3 193.7c0.8 0.3 5.4 1 10.2 1.6 4.7 0.7 8.6 1.5 8.7 1.9 0.1 0.3-3.8 3.8-8.6 7.7-4.8 3.9-13.3 10.3-18.8 14.2-8 5.8-10.7 7.1-17.5 7.2v-13l9.8-8.3c5.3-4.6 10.8-9.1 12.2-10 1.3-0.9 3.1-1.5 4-1.3zm11.8 23.7c0.7-0.1 1.2 0.1 1.2 0.4 0 0.3-2 4.6-4.5 9.5-2.4 5-4.4 9.2-4.2 9.3 0.1 0.2 3.5 2.9 7.5 6 4 3.2 7.2 6.2 7.2 6.7 0 0.6-4 3-9 5.5-4.9 2.5-8.9 4.9-8.7 5.3 0.1 0.5 3.6 6.3 7.7 13 6 9.8 8 12.2 9.8 12.2 1.2 0 8.4-0.7 16-1.5 7.5-0.8 19.9-2.3 27.4-3.3 7.6-0.9 13.9-1.5 14.2-1.2 0.2 0.3 3.2 6.8 6.6 14.5 3.5 7.7 6.3 14.5 6.3 15 0 0.6-12.2 19.9-27.2 43-15 23.1-29.8 45.9-38.6 59.5l-16-16.1-2.6 7.3c-1.5 4-2.9 8.3-3.3 9.6-0.3 1.2-0.9 2.2-1.3 2.2-0.4 0-3.5-1-6.8-2.3-3.3-1.3-6.9-2.8-8-3.4-1.7-1-3.9-10.8-31.3-151.8l5.2-5c2.9-2.7 7.7-7.2 10.7-10 3-2.7 8.4-7.5 11.9-10.5 5.1-4.3 8.9-6.4 17.5-9.7 6.1-2.3 11.6-4.2 12.3-4.2z"/>
		<path id="Path 3" class="s0" d="m379 27.6c0.8 0.3 5.9 3.8 11.3 7.7 5.4 4 9.8 7.4 9.7 7.7 0 0.3-10.3 6-23 12.7-12.6 6.8-23.2 12.2-23.5 12-0.3-0.1 4.9-9.3 11.7-20.4 9.1-14.9 12.7-20.1 13.8-19.7zm-53.5 18.7c6.8 5.1 12.4 9.4 12.4 9.7 0 0.3-4.2 3.3-9.4 6.7-5.2 3.5-9.7 6.2-9.8 6-0.2-0.1-1.9-7.1-3.7-15.4-1.8-8.4-3-15.5-2.6-15.7 0.4-0.3 6.3 3.7 13.1 8.7zm-22.2 24.7c3.1 3 5.4 6 5 6.5-0.3 0.5-2.3-1-4.4-3.5-2.2-2.5-4.4-5.4-5-6.5-0.6-1.1 1.4 0.5 4.4 3.5zm-172.9 291.9l30 0.6 1.3 6c0.7 3.3 1.2 6.9 1.3 8 0.1 1.7-2.5 3-16.7 8.2-9.2 3.5-17.4 6.3-18 6.3-0.7 0-1.1-0.8-0.9-1.7 0.3-1 1-7.5 1.7-14.6zm422.8 67.1c0.5 0 4 1.8 7.8 4 3.9 2.2 7.1 4.3 7.1 4.7 0 0.4-4 2-8.8 3.6-4.8 1.5-8.9 2.7-9.1 2.5-0.1-0.2 0.3-3.6 0.9-7.6 0.7-4 1.6-7.2 2.1-7.2zm-83.9 49.1c4.1-0.1 5 0.2 6.2 2.4 0.9 1.4 1.2 2.7 0.8 2.9-0.4 0.3-4.2-0.3-8.5-1.2-4.3-1-7.8-2.1-7.8-2.5 0-0.4 1.1-0.9 2.3-1.1 1.2-0.2 4.4-0.4 7-0.5zm-211.5 49c0.7-0.1 4.8 7.1 9.2 15.9 4.4 8.8 8 16.3 8 16.7 0 0.4-6.6 2.9-29.5 10.2l-12.7-3.2c-7-1.8-12.8-3.7-12.7-4.2 0-0.6 1.3-6.2 2.9-12.5 1.6-6.3 2.7-11.7 2.5-12-0.3-0.3-3 0.7-6 2.2-3 1.5-5.7 2.8-6 2.8-0.2 0 0.3-2.8 3.1-12.5l11-0.8c6-0.4 15-1.1 19.9-1.6 5-0.5 9.6-0.9 10.3-1zm65.2 103.4c4.5 4.4 8.1 8.3 8.1 8.7 0 0.4-4.6 3.3-10.1 6.3-5.5 3-10.4 5.5-11 5.5-0.5 0-0.7-1-0.4-2.3 0.2-1.2 1.6-7.3 3-13.5 1.3-6.2 2.4-11.6 2.4-12 0-0.4 3.6 2.9 8 7.3zm17.9 42.8c0.4 0.2 6.6 3 27.2 12.2l-0.6 11c-0.4 6-1.2 20.1-3 51.7l-17.2 6.4c-9.5 3.5-17.8 6.4-18.5 6.3-0.7 0-9.1-4.3-18.8-9.6-10-5.6-16.8-9.9-16-10.2 0.9-0.2 16.8-4.7 35.5-9.8 18.7-5.1 34.3-9.5 34.5-9.8 0.3-0.3-5.1-11-12-24-6.8-12.9-12.3-23.7-12.1-24 0.2-0.2 0.7-0.3 1-0.2zm16.1 144.8c3.1 0 11.5 0.5 18.7 1.2 7.2 0.6 13.4 1.4 13.7 1.7 0.4 0.3-4 3.8-9.6 7.9-5.6 4-10.9 7.5-11.8 7.8-0.8 0.2-11.8-1.4-24.5-3.7-12.6-2.2-24.5-4.3-26.5-4.6-3-0.6-3.2-0.8-1.5-1.6 1.1-0.5 9.7-2.6 19-4.8 9.4-2.1 19.5-3.9 22.5-3.9z"/>
		<path id="Path 4" class="s1" d="m618.2 74c0.7 0 11 3.9 22.8 8.7 11.8 4.7 21.8 8.9 22.3 9.2 0.4 0.3-5 2.1-24.8 7.1l-4.6-5.2c-2.5-2.9-7.4-8.6-10.8-12.5-3.5-4-5.7-7.3-4.9-7.3zm-129 174.1c0.5-0.1 1 0.9 1.3 2.2 0.3 1.2 0.9 4.2 1.5 6.7 0.5 2.5 1 5.1 1 5.8 0 0.9-1.8 0.7-6.8-0.8-3.7-1.1-8.7-2.6-15.7-4.7l9-4.6c4.9-2.5 9.3-4.6 9.7-4.6zm37.4-0.1c0.2 0 8 4.2 17.4 9.3 9.3 5 16.8 9.3 16.7 9.5-0.1 0.1-8.5-0.5-18.7-1.4-10.2-0.8-18.6-1.6-18.7-1.7 0-0.1 0.6-3.7 1.4-7.9 0.8-4.3 1.7-7.8 1.9-7.8zm-313.6 237.6c1.9 0.2 10.7 1.3 19.5 2.3 8.8 1.1 19.1 2.3 23 2.7 3.8 0.4 7.7 0.9 8.6 1.3 1.4 0.5 1.2 2.5-1.5 17.7-1.7 9.5-3.5 17.6-3.9 18-0.5 0.5-7.5 1.4-15.5 2.1-8.1 0.7-16.5 1.2-22.7 1.3l4.5-4.5c2.5-2.4 4.3-4.7 4-4.9-0.3-0.3-4-1.2-16-3.6l-11.3 7c-6.1 3.8-11.4 6.7-11.7 6.5-0.3-0.3 0.2-1.3 1.1-2.2 0.8-1 4.6-5.3 8.5-9.6 3.8-4.2 6.7-7.9 6.4-8.2-0.3-0.2-5.7-3.7-12-7.7-6.4-4-11.8-7.7-12-8.2-0.3-0.5 5.8-3.1 13.5-5.7 9.6-3.2 15.1-4.6 17.5-4.3zm362.3 19.6l1.2 3.7c0.7 2 1.5 4.8 2.5 9.1h-22.5l9.4-6.4zm-363.5 26.9c4.1-0.1 4.2 0 3.6 2.6-0.3 1.6-0.9 4.4-1.4 6.3-0.8 2.9-3.6 5.7-17 16.5-8.8 7.1-16.2 12.8-16.4 12.5-0.1-0.3 1.1-8 2.8-17.2 1.7-9.2 3.5-17 3.9-17.5 0.5-0.4 5.2-1.3 10.5-1.9 5.4-0.6 11.6-1.2 14-1.3zm60.7 30c0.6-0.1 1 0.5 0.9 1.1-0.1 0.7-4.8 7.9-20.9 30.8l-3.5-0.6c-1.9-0.3-6.3-1.1-16.1-2.9l13.9-19.8 12.4-4.3c6.7-2.3 12.8-4.3 13.3-4.3z"/>
		<path id="Path 5" class="s2" d="m173.3 191.4l14.6 2.9c8.1 1.7 14.8 3.4 14.9 3.8 0.1 0.5-2.7 1.5-6.3 2.1-3.6 0.7-6.4 1.7-6.1 2.3 0.2 0.6 2.4 5.4 4.7 10.8 2.4 5.3 4 10 3.6 10.5-0.5 0.4-10.4 0.1-22-0.7-11.7-0.7-21.9-1.7-22.7-2.1-1-0.5 1.1-1.7 6.5-3.7 4.4-1.7 9.7-3.6 11.8-4.4 2-0.8 3.7-1.6 3.7-1.9 0-0.3-3.4-3.2-7.5-6.5-4.2-3.3-7.7-6.2-7.7-6.5-0.1-0.3 2.6-1.9 6.1-3.6zm-68 77.7c0.4 0 0.8 0.2 0.8 0.4 0 0.3-1.9 3.6-4.2 7.3-2.2 3.7-4.1 6.8-4.2 6.9-0.1 0.1-3.9 0.8-8.4 1.5-4.6 0.7-8.5 1.1-8.8 0.8-0.2-0.2 5.1-4.2 11.8-8.7 6.7-4.5 12.6-8.2 13-8.2zm-13 25.3c0.7 0.2 7.7 3 15.7 6.1 7.9 3.2 14.3 6 14.2 6.4-0.1 0.3-5.5 2-12.1 3.6-6.6 1.7-12.1 2.8-12.3 2.5-0.3-0.2-1.9-4.6-3.6-9.7-2-5.9-2.7-9.1-1.9-8.9zm34.8 22.7c0.8 0 8.9 2 18 4.5 9 2.5 16.7 4.7 17 5 0.2 0.2-0.2 0.6-1 0.9-0.9 0.3-12.3 3.9-25.5 8-13.2 4.2-24.3 7.2-24.6 6.8-0.4-0.4-1.2-4-1.8-8-0.6-4-1.2-8.1-1.3-9.2-0.2-1.6 1.4-2.4 8.7-4.9 4.9-1.7 9.6-3 10.5-3.1z"/>
		<path id="Path 6" class="s0" d="m216.5 492c0.6 0 5.9 1.1 12 2.5 6.1 1.4 11.3 2.8 11.7 3.3 0.4 0.4-8.4 1.3-19.5 2-11.1 0.7-20.3 1-20.4 0.7-0.2-0.3 3.2-2.3 7.4-4.5 4.3-2.1 8.2-3.9 8.8-4z"/>
	</g>
</svg>