<svg version="1.2" xmlns="http://www.w3.org/2000/svg" viewBox="0 0 1000 1000" width="1000" height="1000">
	<title>luxemburg-svg</title>
	<style>
		.s0 { fill: #000000 } 
		.s1 { fill: #ffffff } 
		.s2 { fill: #7f7f7f } 
	</style>
	<g id="Black &amp; White 1">
		<path id="Path 0" class="s0" d="m230.5 944.4l-2.2-17.7-26.6-2.3-20-20 11.1-15.5-13.4-8.9 11.1-80-8.8-42.2-31.1-26.7-8.9-31.1-22.3-151.1 6.7-166.7 31.1-51.1 17.8-75.5h15.5l2.3 20v-17.8h13.3l13.3-26.7h17.8l6.7-28.9 13.3 20 35.6-2.2-6.7-8.9 28.9-31.1-11.1-17.8 26.6-11.1 42.2-64.4 8.9 22.2-11.1 22.2 42.2-20-13.3 24.5 37.8-22.3 11.1 17.8 24.4-22.2 8.9 28.9 26.7-8.9 66.6 48.9 15.6-8.9-11.1 31.1-84.5-8.9-2.2 13.3 33.4 17.8 15.5 24.5-8.9 15.5 46.7 37.8 22.2 2.2 20-24.4 11.1 6.6v13.4l-13.3-2.2 8.9 8.8 13.3-8.8 37.8 11.1-6.7 37.7 37.8-4.4-6.7 17.8 15.6 20-15.6 31.1 57.8 35.5 17.7 37.8-22.2 6.7 20 4.4-6.6 22.3 35.5 37.7-15.5 4.5-55.6-73.4-13.3-4.4v11.1l91.1 113.3 40-2.2 22.2 22.2-24.5 15.6-42.2-33.3-13.3 11.1 40 13.3-17.8 6.7 24.5 20-60-17.8 37.7 40-4.4-22.2 31.1 8.9v26.6l-11.1 44.5-22.2 24.4v31.1l-44.5 48.9-22.2-2.2v15.6l17.8 8.8-15.6 46.7h-11.1l4.5 13.3-17.8-4.4-15.6 35.6-71.1 2.2 20-84.5 62.3-137.7-17.8-33.4 6.6-17.8-17.7-215.5-26.7-33.3-102.2-66.7-42.2-64.5-40-6.6 26.7 44.4h-37.8l-13.3 31.1-100-13.3-84.5 44.4-35.5 57.8-11.1 48.9 8.9 171.1 46.6 193.4 37.8 62.2 62.2 46.6-80-46.6z"/>
		<path id="Path 1" fill-rule="evenodd" class="s1" d="m803.8 300l-13.3 20 31.1 37.8 26.6 71.1-17.7 20-28.9-6.7-62.2-62.2 2.2-40-22.2-42.2-13.4 8.9-28.9-48.9-40-31.1 28.9 42.2-66.6-42.2 40-8.9 40 24.4h35.5l-37.8-57.8-24.4 11.2 8.9 13.3-35.6-11.1v-31.1l-13.3-4.5 8.9-20-97.8-53.3 42.2 2.2 4.5 13.3 17.8-8.8 2.2-55.6-22.2-28.9 28.9 15.6-2.3 48.9 28.9-13.4 15.6 44.5h24.4l17.8 46.6 37.8 22.3v28.8l17.7 11.2 6.7 35.5 42.2 20zm-422.1-260l46.6-22.2-20 22.2zm-57.8 66.7l4.5-42.2 53.3-15.6-48.9 24.4 6.7 24.5zm-44.4 48.9l2.2-33.4 11.1-2.2zm-33.3 28.9l-28.9-13.3-4.5-17.8 62.2 4.4-33.3 11.2zm-117.7 171.1l20-57.8 4.4 28.9zm346.6 644.4l-24.4-4.4-51.1-51.1 11.1-20 40-17.8-6.7-20-33.3-6.7-6.7-17.8 111.1-15.5-64.4-2.2 4.4-13.4-46.6-8.9 11.1-8.8 6.6 11.1 8.9-15.6-2.2-17.8-33.3-26.6 15.5-177.8-40-46.7-100-2.2-11.1-11.1 24.5-75.6 22.2-15.5-4.4-13.4 46.6-33.3 86.7 17.8 48.8-6.7 20-17.8 53.4 2.3 106.6 71.1 24.5 126.6-6.7 111.2 11.1 68.8-62.2 195.6-140 42.2zm380-280l-4.5-13.3 15.6-13.3zm-682.2 55.5l-24.4-42.2 24.4 24.4zm26.7 155.6h28.9l-4.5 13.3z"/>
		<path id="Path 2" class="s2" d="m428.3 17.8l42.2-17.8 97.8 11.1 22.2 28.9-2.2 55.6-17.8 8.8-4.5-13.3-42.2-2.2 97.8 53.3-8.9 20 13.3 4.5v31.1l35.6 11.1-8.9-13.3 24.4-11.2 37.8 57.8h-35.5l-40-24.4-40 8.9 66.6 42.2-28.9-42.2 40 31.1 28.9 48.9 13.4-8.9 22.2 42.2-2.2 40 62.2 62.2 28.9 6.7 17.7-20-26.6-71.1-31.1-37.8 13.3-20 48.9 86.7 11.1 33.3 11.1 40 4.4 37.8 6.7 95.5-2.2 33.4-2.2 15.5-6.7 24.5v2.2l-8.9 24.4-15.6 13.4 4.5 13.3-62.2 106.7-15.6 31.1-33.3 80-31.1 20-4.5-2.2 15.6-35.6 17.8 4.4-4.5-13.3h11.1l15.6-46.7-17.8-8.8v-15.6l22.2 2.2 44.5-48.9v-31.1l22.2-24.4 11.1-44.5v-26.6l-31.1-8.9 4.4 22.2-37.7-40 60 17.8-24.5-20 17.8-6.7-40-13.3 13.3-11.1 42.2 33.3 24.5-15.6-22.2-22.2-40 2.2-91.1-113.3v-11.1l13.3 4.4 55.6 73.4 15.5-4.5-35.5-37.7 6.6-22.3-20-4.4 22.2-6.7-17.7-37.8-57.8-35.5 15.6-31.1-15.6-20 6.7-17.8-37.8 4.4 6.7-37.7-37.8-11.1-13.3 8.8-8.9-8.8 13.3 2.2v-13.4l-11.1-6.6-20 24.4-22.2-2.2-46.7-37.8 8.9-15.5-15.5-24.5-33.4-17.8 2.2-13.3 84.5 8.9 11.1-31.1-15.6 8.9-66.6-48.9-26.7 8.9-8.9-28.9-24.4 22.2-11.1-17.8-37.8 22.3 13.3-24.5-42.2 20 11.1-22.2-8.9-22.2-42.2 64.4-26.6 11.1 11.1 17.8-28.9 31.1 6.7 8.9-35.6 2.2-13.3-20-6.7 28.9h-17.8l-13.3 26.7h-13.3v17.8l-2.3-20h-15.5l-17.8 75.5-31.1 51.1-6.7 166.7 22.3 151.1 8.9 31.1 31.1 26.7 8.8 42.2-11.1 80 13.4 8.9-11.1 15.5 20 20 26.6 2.3 2.2 17.7h-6.6l4.4-13.3h-28.9l-4.4-2.2-17.8-13.3-6.7-15.6-4.4-28.9 8.9-53.3v-24.5l-2.2-17.7v-17.8l-24.5-24.5-11.1-31.1-22.2-142.2 2.2-66.7-2.2-26.6 13.3-111.1 24.5-28.9-4.5-28.9 8.9-31.1 6.7-17.8 4.4-11.1 8.9-20 13.3-8.9 35.6-15.6 20-8.9-4.5-15.5 33.4-11.1 4.4-2.2 13.4-35.6 11.1 2.2 17.7-13.3 2.3-2.2 15.5-8.9-6.7-24.5 48.9-24.4v-8.9h26.7zm-48.9 966.7l-62.2-46.7-37.8-62.2-46.6-193.4-8.9-171.1 11.1-48.9 35.5-57.7 84.5-44.5 100 13.4 13.3-31.2h37.8l-26.7-44.4 40 6.7 42.2 64.4 102.2 66.7 26.7 33.3 17.8 215.6-6.7 17.7 17.8 33.4-62.3 137.8-20 84.4h-2.2l62.2-195.6-11.1-68.8 6.7-111.2-24.4-126.6-106.7-71.1-53.3-2.3-20 17.8-48.9 6.7-86.7-17.8-46.6 33.3 4.4 13.4-22.2 15.5-24.4 75.6 11.1 11.1 100 2.2 40 46.7-15.6 177.8 33.3 26.6 2.3 17.8-8.9 15.6-6.7-11.1-11.1 8.8 46.7 8.9-4.5 13.4 64.4 2.2-111 15.5 6.6 17.8 33.3 6.7 6.7 20-40 17.8-11.1 20 51.1 51.1 24.5 4.4h-62.3z"/>
		<path id="Path 3" fill-rule="evenodd" class="s0" d="m468.3 28.9l11.1 11.1-11.1 2.2zm402.1 497.8l4.5 15.6-13.3 2.2 20 35.5-22.3-4.4-6.6-24.5zm-566.6 15.6l60 13.3-75.6 4.5-28.9 26.6-17.7-8.8zm11.1 48.8l28.9 2.3-6.7 28.9h-17.8l-11.1-17.8-8.9 26.6-22.2-8.8 11.1-22.3zm68.9 177.8l17.8 22.2-20 2.3zm-17.8 68.8l20 2.3 6.7 15.5-28.9 2.2z"/>
		<path id="Path 4" fill-rule="evenodd" class="s1" d="m461.6 51.1l37.8 8.9-55.6 31.1-8.8-28.9zm-151.1 513.4l28.8 2.2-8.8 11.1 17.7 8.9-24.4-11.1-33.3 6.6zm57.7 2.3l13.4 20-22.3-13.4zm-15.5 33.4l15.5 11.1v17.7l-28.8 2.3zm-26.7 53.3l28.9 4.4 8.9 17.8-15.6 4.5 2.2 37.7-11.1 11.2 11.1 4.4-4.4 42.2-37.8-2.2 15.6-11.1-26.7-11.1 6.7-15.6-35.6-60 4.5-20 35.5 11.1zm-13.3 122.3l13.3 2.2v22.2z"/>
		<path id="Path 5" fill-rule="evenodd" class="s2" d="m601.6 88.9l6.7 35.5-15.6-8.8zm-315.5 142.2l31.1 8.9v26.6l33.3 13.4-15.5 11.1-31.1-6.7-8.9-26.7 15.5-4.4-40-13.3zm495.5 111.1l-2.2 24.4 22.2 15.6-37.7 17.8 17.7-20-11.1-11.2zm35.6 62.3l20 11.1-20 6.6zm-295.5 115.6l64.4 13.3-15.6 15.6-44.4 6.7 51.1 13.3 26.7 35.5-46.7-8.8-24.4 46.6-35.6 6.7-22.2-44.5 17.8-46.6-22.2-6.7-4.5-15.5zm186.6 164.4l11.2-82.2 22.2 33.3 4.4 42.2-11.1-2.2-4.4 20z"/>
		<path id="Path 6" fill-rule="evenodd" class="s0" d="m488.3 542.2l53.3-4.4-17.8-11.1zm-2.2 48.9l8.9 22.2 11.1-22.2 31.1 20 22.2-22.3-57.7-17.7z"/>
	</g>
</svg>