<svg version="1.2" xmlns="http://www.w3.org/2000/svg" viewBox="0 0 1000 1000" width="1000" height="1000">
	<title>mao-svg</title>
	<style>
		.s0 { fill: #7f7f7f } 
		.s1 { fill: #ffffff } 
		.s2 { fill: #000000 } 
	</style>
	<g id="Black &amp; White 1">
		<path id="Path 0" fill-rule="evenodd" class="s0" d="m475.3 5.6h26.1l39.1 1.8 18.6 1.9 33.5 7.5 16.8 5.5 61.4 42.9 18.6-3.7 100.6 52.1 20.5 9.3 48.4 42.8 29.8 65.2 5.6 39.1 3.7 20.5v14.9l-5.6 11.2-13-98.7-41-67.1-93.1-42.8 3.7-7.4-27.9-1.9-1.9-13-44.7-3.8-7.4-18.6-9.3 3.7 3.7 18.7 81.9 67 55.9 119.2 39.1 13-5.6 14.9h-13l26.1 27.9-20.5-7.4-1.9 9.3-18.6-22.3 16.8 1.8-18.7-11.1 3.8-13.1 13 3.7-33.5-18.6 20.5 68.9-5.6 11.2 11.1 9.3 5.6 91.3 11.2-39.2 13-3.7-3.7-13 9.3 5.6 37.3-63.3 3.7 14.9-52.2 72.6-11.1 35.4-5.6 27.9 18.6 11.2-9.3 67-1.9 31.7-11.1-28-7.5-163.8-29.8-85.7-9.3-89.4-50.3-96.8-80-57.7-42.9-5.6-1.8-9.3-13.1 7.4 5.6-7.4-18.6 3.7-7.4-11.2-74.5 9.3-5.6-9.3-89.4 42.8-18.6 55.9-16.8 3.7 13 11.2-5.5 7.4-5.6-9.3-3.7 31.7 3.7 20.5h13l-7.4 26 11.1 7.5h-11.1l24.2 9.3-16.8 18.6-11.2-7.4 18.7 26.1-20.5-1.9-5.6 11.2 5.6 9.3 109.8 20.5 1.9 24.2h13l16.8 22.3-20.5 5.6 18.6 16.8-16.7 24.2 13 3.7 7.5 33.5-11.2 115.5 102.4 54-14.9 22.3-46.5-11.2-52.2 18.7-14.9 24.2 7.5 20.5-7.5 9.3 100.6 20.5 81.9-26.1 1.9 11.2 7.4-3.8-16.7-50.2-42.9-54.1-16.7-44.6 1.8-11.2 13.1 1.8 46.5 48.5 14.9 26-7.4 11.2 20.5 7.5-5.6 13h13l-3.7 18.6 16.7 5.6-3.7 9.3 50.3 11.2-11.2 1.8 1.9 33.6 16.7-3.8-3.7 14.9-20.5 14.9-5.6-9.3-3.7 13.1-18.6-16.8-18.6 11.2-5.6 50.3 20.5 37.2 33.5 3.7 1.9-18.6 16.7 3.7 1.9 28-18.6 37.2-54 48.4-20.5-1.8-76.4 31.6-93.1 5.6-176.9-63.3-111.7-121.1-14.9-108h-26.1l-24.2-40.9-3.7-59.6 16.7-42.9 5.6-96.8 16.8-24.2-14.9-50.3-35.4-50.3 1.9-20.4 46.5 91.2 14.9 72.6 20.5-117.3 29.8-46.5-5.6-46.6 16.8-20.5-9.3-3.7 7.4-26.1-7.4-11.1 11.1-3.8 16.8-50.3 68.9-72.6 162-65.2-1.9-11.1-20.4-1.9zm-89.4 22.4l35.4-18.7 33.5 1.9zm-85.7 18.6l57.7-13-141.5 46.5-63.3 46.6 37.2-37.2 50.3-20.5 29.8-13.1 11.2-3.7zm-199.3 208.6l5.6-61.5 14.9-20.5-14.9 44.7 3.8 96.9-9.4-48.5z"/>
		<path id="Path 1" class="s1" d="m475.3 5.6l11.2-5.6h1.8l13.1 5.6zm266.2 873.4l-1.8-28-16.8-3.7-1.8 18.6-33.6-3.7-20.4-37.2 5.6-50.3 18.6-11.2 18.6 16.8 3.7-13.1 5.6 9.3 20.5-14.9 3.7-14.9-16.7 3.8-1.9-33.6 11.2-1.8-50.3-11.2 3.7-9.3-16.8-5.6 3.8-18.6h-13.1l5.6-13-20.5-7.5 7.5-11.2-14.9-26-46.6-48.5-13-1.8-1.9 11.2 16.8 44.6 42.8 54.1 16.8 50.2-7.5 3.8-1.8-11.2-82 26.1-100.5-20.5 7.4-9.3-7.4-20.5 14.9-24.2 52.1-18.7 46.6 11.2 14.9-22.3-102.4-54 11.1-115.5-7.4-33.5-13.1-3.7 16.8-24.2-18.6-16.8 20.5-5.6-16.8-22.3h-13l-1.9-24.2-109.9-20.5-5.5-9.3 5.5-11.2 20.5 1.9-18.6-26.1 11.2 7.4 16.7-18.6-24.2-9.3h11.2l-11.2-7.5 7.5-26h-13.1l-3.7-20.5 3.7-31.7 5.6 9.3 5.6-7.4-13-11.2 16.7-3.7 18.7-55.9 89.3-42.8 5.6 9.3 74.5-9.3 7.5 11.2 18.6-3.7-5.6 7.4 13-7.4 1.9 9.3 42.8 5.6 80.1 57.7 50.3 96.8 9.3 89.4 29.8 85.7 7.4 163.8 11.2 28 11.2 11.1-3.7 91.3-13.1 27.9-27.9 14.9-18.6 82zm-500.9-810.1l11.1-13h18.6zm588.5 497.2l9.3-67.1-18.6-11.1 5.6-28 27.9 31.7z"/>
		<path id="Path 2" class="s2" d="m454.8 11.2l7.5-1.9 20.4 1.9 1.9 11.1-162 65.2-68.9 72.6-16.8 50.3-11.1 3.8 7.4 11.1-7.4 26.1 9.3 3.7-16.8 20.5 5.6 46.6-29.8 46.5-20.5 117.3-14.9-72.6-46.5-91.2-1.9-7.5-3.7-96.8 14.9-44.7 26.1-41 5.5-5.6 63.4-46.5 141.5-46.6 27.9-5.6zm430.2 325.9l-37.3 63.3-9.3-5.6 3.7 13.1-13 3.7-11.2 39.1-5.6-91.2-11.1-9.3 5.6-11.2-20.5-68.9 33.5 18.6-13-3.7-3.8 13 18.7 11.2-16.8-1.9 18.6 22.4 1.9-9.3 20.5 7.4-26.1-27.9h13l5.6-14.9-39.1-13.1-55.9-119.1-81.9-67.1-3.7-18.6 9.3-3.7 7.4 18.6 44.7 3.7 1.9 13.1 27.9 1.8-3.7 7.5 93.1 42.8 41 67 13 98.7z"/>
		<path id="Path 3" fill-rule="evenodd" class="s0" d="m743.4 117.3l24.2 5.6-13 7.5zm39.1 14.9l11.2 18.6-20.5-7.5zm27.9 117.3l29.8 24.3-18.6-1.9zm-199.2 80.1l57.7 9.3 3.7 9.3-9.3 9.3 5.6 18.6-93.1-1.8-16.8-20.5 1.9-14.9zm-11.2 67l89.4 18.6 46.6 37.3 3.7 20.5-13.1 5.6-39.1-24.3-68.9 7.5 33.6 27.9-5.6 14.9-7.5-11.2-9.3 5.6 33.5 22.4v16.7l-29.8-11.1-48.4-50.3-18.6-44.7 1.9-20.5zm137.8 378l1.8 9.3-13 3.8z"/>
		<path id="Path 4" class="s1" d="m371 368.7l81.9 5.6 14.9 27.9-18.6 11.2-55.8-20.5h-50.3l-5.6-16.7zm22.3 61.4l5.6 13.1 41 3.7 3.7-9.3 5.6 20.4-57.7 95 18.6 29.8-35.4 68.9-24.2 9.3-39.1-11.1-1.9-22.4-9.3 1.9 7.5-22.4-33.5-57.7 18.6-54 48.4 20.5-16.8-13.1 35.4-14.9-20.5-9.3-7.4 11.2-11.2-27.9 24.2 5.6 22.4-9.4 24.2-13zm126.6 335.2h18.6l14.9 16.8 44.7-5.6 37.3 11.2-11.2 18.6 13 9.3 9.3 52.1-11.1 29.8-57.8 24.2-78.2-33.5-1.8-33.5-9.4-3.7 13.1-7.5 1.8 26.1 29.8 3.7 1.9-13-16.8-1.9v-18.6l28-7.5 31.6-33.5-63.3-1.8z"/>
		<path id="Path 5" fill-rule="evenodd" class="s2" d="m598.2 27.9l54 33.6-14.9 9.3-26.1-26.1-20.5 1.9 5.6-9.4-9.3-5.5zm-258.8 383.6l50.3 3.7 27.9 18.6-26.1-7.4-11.2 16.7h-16.7l-20.5-13-50.3 20.5 20.5-22.4-16.7 3.8 5.5-9.4 16.8-9.3 24.2 5.6zm-197.4 186.2l18.6-96.8-9.3-20.5 16.8 33.5zm0 0l22.3 18.7 3.8 20.4-20.5-20.4-13.1 11.1zm312.9 16.8l39.1 11.2 5.6 22.3-65.2 7.5 7.4-5.6-7.4-20.5zm96.8 9.3l24.2 9.3-3.7 16.8-65.2-13.1zm-158.2 119.2l16.7 11.2 33.5-9.3 7.5 9.3 67 1.9-65.2 3.7-24.2 13-29.8-11.2-31.6 11.2 9.3-24.2zm147.1 9.3l7.5 7.5-14.9-1.9zm85.6 7.5l-3.7 9.3-35.4-5.6zm-108 199.2l7.5 9.3h-14.9z"/>
		<path id="Path 6" class="s0" d="m369.1 512.1l1.9 11.2-11.2-1.9z"/>
		<path id="Path 7" class="s2" d="m624.3 420.9l48.4 9.3 33.5 24.2-37.2-13.1-16.8 11.2-27.9-1.8-7.5-14.9-20.5 7.4z"/>
	</g>
</svg>