<svg version="1.2" xmlns="http://www.w3.org/2000/svg" viewBox="0 0 1000 1000" width="1000" height="1000">
	<title>panneckoek-svg</title>
	<style>
		.s0 { fill: #ffffff } 
		.s1 { fill: #7f7f7f } 
		.s2 { fill: #000000 } 
	</style>
	<g id="panneckoek">
		<path id="Path 0" fill-rule="evenodd" class="s0" d="m112 418l67.8-99.2 49.6-166 117.3-114.3 110.3-38.5h94.1l62.7 18.2-38.4-5-24.3 64.7 114.3 17.2 15.2 14.2 2-17.2 24.3 27.3 2 83 75.9 33.4 4.1 18.2 7-11.1 5.1 22.3 21.2-2 13.2 47.5-21.3 59.7-32.3-8.1-28.4 33.4-23.2-20.2-3.1 27.3-22.2 3.1-5.1 1-88 1-32.4-18.2-11.1 12.1-30.4-70.8-32.3-24.3 16.2-14.2-33.4-5.1-10.2-22.2-59.6 17.2-12.2-25.3-38.4-6.1-45.6 56.7-25.3-24.3-53.6 26.3h-17.2l-12.1 1-27.3 2.1-5.1 34.4 17.2 12.1-24.3 18.2 4.1 33.4 12.1 12.2 16.2-22.3 8.1 27.3 33.4-2v25.3l-11.1-15.2-22.3 42.5 20.2-6 3.1 8.1 21.2-5.1 7.1-17.2-9.1 69.8-23.3 2.1-7.1 24.3-33.3 14.1 8 14.2-20.2 2 23.3 21.3 55.6-6.1-32.4 47.6 19.3-9.1 19.2 30.3-26.3-8.1-10.1 23.3-24.3-2-12.1 16.2 22.2 72.9 5.1-32.4 40.4-20.3 72.9-2 109.2 30.4-10.1-41.5-42.5-16.2-1 17.2-21.2-17.2 4-13.2 18.2 10.1-12.1-50.6-17.2-4 3 19.2-19.2 2-10.1-24.3 10.1-26.3 49.6 8.1-18.2-18.2 14.1-31.4 39.5 70.9 11.1-35.4 15.2 1-67.8-67.8-3 25.3-21.3-40.5-23.2-6.1-8.1-57.7 47.5 57.7 49.6 14.2 39.5-8.1 71.8-82 46.5-13.2 108.3-8.1h29.3l14.2 18.2 8.1-17.2 19.2 13.2 23.3 11.1 2-14.1 18.2 3-16.2 5.1-6 37.4 15.1 6.1 17.2-28.4 16.2 28.4-18.2 37.4-33.4-23.2-1-1.1h-13.1v2.1l-6.1 18.2-10.1-7.1 2 35.4-19.2 33.4 64.7 14.2-51.6 13.2 8.1 12.1 29.4-16.2 3 39.5 74-77.9-8.3 23.2-122.4 104.3 7.1-34.4-30.3 2-3.1-24.3-8.1 10.1-21.2 75.9 13.1 7.1 18.2-29.3v35.4l-27.3 50.6 14.2 28.3-80.9 35.5 10.1-32.4 55.6-44.6 7.1-31.3-17.2-11.2-24.3 47.6-57.6 23.3-66.8 61.7-109.3 30.4-14.2 38.4 14.2 3.1-30.3 52.6-53.7 24.3h-13.1l-5.1-12.1-3 12.1h-10.1l-20.3-11.1-68.8-161-43.5-307.7-54.6-99.1zm753.9 135.6l11.4-31.6-6.5 26.5zm22.1-75.9v14.1l-10.8 30.1zm-577.7-79.9l3-61.8 4.1 15.2 15.2-15.2 19.2 15.2-6.1 32.4-19.2 12.2zm-72.8-23.3h6l13.2 7.1-4.1 30.3-8.1-21.2zm633.4 54.6l-18.2-21.2 6-21.3zm-388.5-14.2l-2-23.2 14.2 19.2zm-136.6 17.2l6.1-2 5 28.3zm355.1 370.5l15.2-39.5-2 39.5z"/>
		<path id="Path 1" fill-rule="evenodd" class="s1" d="m727.1 402.8l3.1-27.3 23.2 20.2 28.4-33.4 32.3 8.1 21.3-59.7-13.2-47.5-21.2 2-5.1-22.3-7 11.1-4.1-18.2-75.9-33.4-2-83-24.3-27.3-2 17.2-15.2-14.2-114.3-17.2 24.3-64.7 38.4 5 173 107.3 57.7 100.2 11.1 133.6 3.1 27.3-6.1 21.3 18.2 21.2 17.2 45.6v3l-17.2 70.9-78.9 83-3-39.5-29.4 16.2-8.1-12.1 51.6-13.2-64.7-14.2 19.2-33.4-2-35.4 10.1 7.1 6.1-18.2 29.3 46.5-11.1 33.4 20.2-16.2 2-33.4-26.3-31.3 33.4 23.2 18.2-37.4-16.2-28.4-17.2 28.4-15.1-6.1 6-37.4 16.2-5.1-18.2-3-2 14.1-23.3-11.1 23.3-8.1v-16.2l-18.2 14.2zm-483.6-93.1l53.6-26.4 25.3 24.3 45.5-56.6 38.4 6 12.2 25.3 59.7-17.2 10.1 22.3 33.4 5.1-16.2 14.1 32.4 24.3 30.3 70.9 11.1-12.2 32.4 18.2-117.3 3.1-14.2-19.3 2 23.3 106.3 4.1-46.6 13.1-71.8 82-39.5 8.1-49.6-14.2-47.5-57.6 8.1 57.6 23.3 6.1 21.2 40.5 3-25.3 67.8 67.8-15.1-1-11.2 35.4-39.4-70.8-14.2 31.4 18.2 18.2-49.6-8.1-10.1 26.3 10.1 24.3 19.3-2-3.1-19.3 17.2 4.1 12.2 50.6-18.2-10.1-4.1 13.1 21.3 17.2 1-17.2 42.5 16.2 10.1 41.5-109.3-30.4-72.8 2.1-40.5 20.2-5.1 32.4-22.2-72.9 12.1-16.2 24.3 2.1 10.1-23.3 26.3 8.1-19.2-30.4-19.2 9.1 32.4-47.6-55.7 6.1-23.3-21.2 20.3-2.1-8.1-14.1 33.4-14.2 7-24.3 23.3-2 9.1-69.9 28.4-47.5 50.5 21.2 11.2 26.3-5.1-28.3-25.3-34.4 19.2-12.2 6.1-32.3-19.2-15.2-15.2 15.2-4-15.2-3.1 61.7-30.3-2 21.2-10.1 4.1-40.5zm5 141.6l0.1 0.1-4.1 18.2-0.1 0.1-9 3-20.2 6.1 22.3-42.5 11 15v0.1zm-4 18.3l15.2 6.1-21.2 5.1 5.9-11.1h0.1zm4-43.5l-33.4 2-8.1-27.3-16.1 22.2-12.2-12.1-4-33.4 24.3-18.2-17.2-12.2 5-34.4 27.3-2-16.2 3 4.1 21.3 81.9 15.2-4 14.1-32.4-8.1 21.3 17.3-38.5-19.3 13.2 20.3h-6.1l-9.1-14.2-26.3 2-6.1 29.4 17.2-8.1 6.1 21.2h17.2l8.1-14.1 8.1 21.2 4-30.4 13.2 6.1-8.1 20.3 22.2-1-27.3 12.1-8.1 32.3zm451.3-19.2l5-1 43.5 6-8.1 17.2-14.1-18.2h-29.4zm-2 395.8l-14.1-28.4 27.3-50.6v-35.4l-18.2 29.3-13.2-7 21.3-76 8.1 28.4 22.2-8.1-19.2-6.1 30.4-2-7.1 34.4-19.2 82-15.2 39.5zm-283.3 120.4l-14.2-3 14.2-38.5 109.3-30.4 66.7-61.7 57.7-23.3 24.3-47.5 17.2 11.1-7.1 31.4-55.6 44.5-10.2 32.4-117.3 60.7-12.2-2zm-105.2 76.9l3.1-12.1 5 12.1z"/>
		<path id="Path 2" class="s2" d="m214.2 310.7l12.1-1h16.2 1l61.7 35.4-4 40.5-21.3 10.1 30.4 2.1 16.2-2.1 25.3 34.5-6.1 2-50.6-21.3-28.3 47.6-7.1 17.2-15.2-6.1 4.1-18.2 8.1-32.4 27.3-12.1-22.3 1 8.1-20.2-13.1-6.1-13.2-7.1-13.1-20.2 38.4 19.2-21.2-17.2 32.3 8.1 4.1-14.2-82-15.2-4-21.2zm30.3 79.9l-8 14.2h-17.2l-6.1-21.3-17.2 8.1 6.1-29.3 26.3-2 9.1 14.1zm482.6 12.2l45.5 12.1 18.2-14.1v16.1l-23.3 8.1-19.2-13.1-43.5-6.1zm-115.3 5.1l88-1-3 4-108.3 8.1-106.2-4 12.1-4.1zm-376.4 64.8l9.1-3-6 11.1zm536.2 16.2v-2h13.1l1.1 1 26.3 31.3-2.1 33.4-20.2 16.2 11.1-33.4zm-70.8 145.8l8.1-10.1 3 24.3 19.3 6-22.3 8.1z"/>
		<path id="Path 3" fill-rule="evenodd" class="s0" d="m373 476.7l-12.1-32.4 18.2-8.1 44.5 41.5-4 15.2zm105.2-11.1l20.2-27.3 17.2 5-30.3 34.4-9.1-8.1zm-204.4 50.6l18.2 11.2-22.3 7.1zm33.4 16.2l61.7 21.2-26.3 2zm450.3 5.1l20.2 23.3-28.3 1zm-436.1 36.4l11.1 7.1-9.1 14.2-7-22.3zm8.1 107.3l-18.3 9.1-9.1-11.1v-22.3l18.2-4-5-23.3 21.2 46.5z"/>
		<path id="Path 4" fill-rule="evenodd" class="s1" d="m652.3 492.9l23.2 2-4 71.9-58.7 18.2-5.1 19.3-45.5 4 16.2-39.5 14.2 4.1zm-147.7 67.8l38.4 15.2-16.2 26.3-9.1-11.1-45.5 9.1zm-31.4 12.1l6.1 13.2-17.2 1z"/>
		<path id="Path 5" fill-rule="evenodd" class="s2" d="m431.7 286.4l84 33.4 2 19.3-23.3-8.1 29.4 28.3-131.5-53.6 6-17.2zm-45.5 36.4l4 15.2-27.3 5zm-18.2 34.5l49.6-28.4 43.5 13.2-10.1 4 11.1 15.2 55.6 25.3-17.2 11.1-27.3-27.3-10.1 38.5 13.2 12.1-66.8 4.1 14.2 27.3-9.1 8.1-26.4-37.5 10.2-33.4-23.3-12.1 4-19.2-12.1 5zm471.5 61.8l17.2 10.1-26.3-3zm-419.9 73.8l19.2 1.1-32.4 9.1-33.3-26.4zm-207.5-3l-7 13.2-37.5-5.1zm104.2 83l-35.4-8.1 7.1 26.3-42.5-21.2-17.2 15.1 24.3-45.5 22.3 20.2 71.8 2.1 3 19.2-28.3-7.1zm-29.3 19.2l-11.2 37.5-11.1-26.3zm-17.2 79.9l28.3 37.5-64.7 2-16.2 14.2 12.1-31.4zm66.8 4.1l11.1-4.1 2.1 23.3 34.4 7.1 1 18.2-45.6-6.1-11.1-19.2 14.2-13.2-13.2-1zm-27.3 15.2l16.2 20.2-26.3-2zm88 16.2l21.3 19.2-15.2 4.1zm205.4 97.2l9.1 9.1-28.4 26.3-44.5 5zm-101.2 59.8l-15.1 26.3-10.1-13.2z"/>
	</g>
</svg>