<?xml version="1.0" encoding="UTF-8" standalone="no"?>
<svg
   version="1.2"
   viewBox="0 0 737 1000"
   width="737"
   height="1000"
   id="svg6"
   sodipodi:docname="bordiga.svg"
   inkscape:version="1.4 (86a8ad7, 2024-10-11)"
   xmlns:inkscape="http://www.inkscape.org/namespaces/inkscape"
   xmlns:sodipodi="http://sodipodi.sourceforge.net/DTD/sodipodi-0.dtd"
   xmlns="http://www.w3.org/2000/svg"
   xmlns:svg="http://www.w3.org/2000/svg">
  <defs
     id="defs6" />
  <sodipodi:namedview
     id="namedview6"
     pagecolor="#505050"
     bordercolor="#eeeeee"
     borderopacity="1"
     inkscape:showpageshadow="0"
     inkscape:pageopacity="0"
     inkscape:pagecheckerboard="0"
     inkscape:deskcolor="#505050"
     inkscape:zoom="0.825"
     inkscape:cx="368.48485"
     inkscape:cy="500"
     inkscape:window-width="1920"
     inkscape:window-height="1027"
     inkscape:window-x="1912"
     inkscape:window-y="-8"
     inkscape:window-maximized="1"
     inkscape:current-layer="svg6" />
  <title
     id="title1">image</title>
  <style
     id="style1">
		.s0 { opacity: 1;fill: #000000 } 
		.s1 { fill: #ffffff } 
		.s2 { fill: #7f7f7f } 
	</style>
  <g
     id="Folder 1 copy 2">
    <path
       id="Path 0"
       fill-rule="evenodd"
       class="s0"
       d="m102.6 115.2l59.5-69.4 109.5-45.6h15.1l173.5 18.3 145.8 42.4 121.4 76.1-5.4 4.5h-0.3v0.3h-1v0.4h-0.3l-1.3 0.6h-0.3v0.3h-0.4v0.4h-0.3v0.3h-0.3v0.3h0.1l-55.3 31.5 29.8 45 28.6 3.8-4.8 80 0.3 1 1.3 2.9 0.3 0.3 1.3 2.6-0.6 0.6-5.5 16.7-6.1 12.2-1.9 2h-0.3v0.3l-3.6 3.8h-0.3v0.3h-0.6v-0.3h-0.4l-0.9-0.6h-0.3v0.3l-1.3 7.4-22.8 77.4 20.2 87.7-18.3-14.1v0.6l-19 10.6 0.8 10.4-12.3-6.5-13.2 12.9-8-7.8 10.9-7 0.3-0.3v-0.4l0.3-0.6h0.4l0.3-0.3 10.3-12.2-0.4-0.4 15.5-23.4-35.1 13.2-23.4 21.2-4.2 24.7 0.3 0.3v0.3l0.4 0.7v0.3l0.3 0.3-1 14.5 10.6-3.9 26 29.3-5.1 8.6-19-11.2-1.6 17v-0.3h-0.3v-0.3h-0.3v-0.3h-0.3v-0.4h-0.4v-0.3h-0.3v-0.3h-0.3v-0.3h-0.3v-0.3h-0.3l-21.6-11.6 14.8 27.3 1.3-0.3v10.9l29.6 5.8 8-16.1-1.9 24.1-16.1-4.5-16.7 17.7 3.2 21.5-1 0.3h-0.3v0.4h-0.6v0.3h-0.3v0.3h-0.4v0.3h-0.3v0.3h-0.3v0.4h-0.3v0.3l-4.8 18.3 14.4 20.6 19.3-12.9-20.6-25.4 13.8 0.3 12.6 24.8 12.5-5.2 36.9-109.5-25.3 105-69.1 91.3-35 73.2-120.8 105.1-107.6 41.1 14.1-19.6 67.2-24.7 32.7-37.3 11.9-29.5 36-2.9 34.7-34.7 35-49.8 1.6-24.1 0.6 0.6-6.4-20.2 9 2.2 6.1-29.5-12.5-15.8 16-29.5-19.2-30.6v-0.3h-0.3l3.2-2.5 0.3-0.4-0.3-0.3v-0.3h-0.4v-0.3h-0.3l-0.3-2.3 0.6-0.6-14.1-42.1-8 7.4 4.2-17.7-10.7-10.6-19.5 9.6-0.7-21.8 16.7-10-1.9-3.8v-1.3h-0.3l-8-0.8 7-24.6 0.3-0.3-4.8-12.2-4.8 13.2-18-12.2 10-5.5 1.2-5.5-3.8-14.8-14.5 2.6-94.4 64-22.8 0.3-7.4-5.5v-0.3h-0.3v0.3l-22.8 12.5-23.2-19.2 7.7-12.9 29.6 8.7-1.9-20.9 35.3 3.5 2.3-26.6-60.4 0.6-42.6-17.1 24.6-5.7 86.1 0.3 0.6 1.3 0.3 0.3 52.1 17.7 60.7-38.2 6.1-16.7-20.6 4.8 16.4-16.7-9-17.7 14.2 9-2-16.1-6.1-8.6-6.1 12.5-10.6-19 3.2 17.4-10.3-22.8 10-11.6 20.2 15.1 3.9-13.2-11.9-20.2-16.7 12.8 1.6-15.7 15.4 0.3-9.9-3.8 11.5-5.5-8.6-28.3 22.5 27 22.4-2.9-14.7-8 16-9 24.1 10.6-1.3-17.7 27.3-6.1-0.3-0.9 9.3-55.3 21.2-12.5-40.4-1.3 9.3-15.8 0.3-0.3 0.6-0.3 1.3-1.3-3.2-14.8-28.3 6.1 18.7-11.5-20.6-13.5 18.3-25.4 1.3-1.3-10.3-16.7 12.6-4.2-9.4-1.6 5.5-3.2-11.6-3.5-26 16.4 6.8-30.6-22.8 6.5h-0.4v0.3h-0.3v0.3h-0.3v0.3l-2.3-7.7-5.7-13.5 0.3-0.3v-1.3l-23.5 44-1.6-11.8v18.3l-9.6-12.2-9.3 12.8 0.6 1.3 9 0.6-10.3 18-21.5 9.7 15.4 18.9-16.7 6.1-2.2-9-9.3 35.4-8.4-30.6-36.3 26.7 1.9-1.6 1.6-1.6-14.1-10.9 10.3-9.3-17.4 12.5-19.2-5.1 2.5-9-15.1 9-6.1-20.9-29.2 13.1-17.7 0.7-3.2-11.6-7.4 12.2 19.3 1.6-17.7 1v-0.3h-0.3v0.3h-0.3v0.3l-21.2-4.5-14.1-10.9-13.5 26.3-6.1-10.2 0.9 20.8-13.1-17.6-8.4 25.7-27.9 2.2-6.5 14.5-27-4.2-18.3-20.6 7.7 32.8-23.7-17.7-5.2-22.4v-0.4h-0.3v-1.3l0.3-0.9-2.2-17.4-9.3 3.2 8-10.6-21.2 4.9 17.3 8.6-18.6 19.3 20.9 27.6-14.8 5.2 6.4 9.9-18.3-2.2-0.6 0.3-1.9-46.2v-0.4h-0.4v-0.3l-0.3-0.6v-0.4l-0.3-0.6 9.6-29.2-17.6-17.1 25-46.2 2 0.3-1.3 0.6h-0.7v0.4l3.2 24.4 6.8-37.9-1-0.4zm615.8 28.6l-0.3 0.4h-0.2zm-59.9 382.6l2.4 1.3v29.2zm-126.2 55.6l8.4-4.2-9.3 3.2zm-13.7-28l-0.7 2.3-8-3.2zm-228.3-71.8l-9.9 2.3 6.8-3.6zm-44.8 20.6l-2.9-9.3 2.2-0.6 35.6-8.4zm288.2-379.7l0.3-0.4v0.4zm-0.3 0.3l0.3-0.3v0.3zm-0.3 0.3l0.3-0.3v0.3zm-438.2 6.4l0.4-0.3v0.3zm626.7 11.9l0.3-0.3v0.3zm-0.9 0.3l0.3-0.3v0.3zm-2 1l0.4-0.3v0.3zm-0.4 0.3l0.4-0.3v0.3zm-0.4 0.3l0.4-0.3v0.3zm-428.6 65.6l0.4-0.3v0.3zm-211.1 13.8l0.3 0.3h-0.3zm34.4 0l0.3 0.3h-0.3zm592 119.9l0.3-0.3v0.3zm-6.1 3.5l0.4-0.3v0.3zm1.2 0.3l0.4 0.4h-0.4zm1 0.3l0.3-0.3v0.3zm-92.8 246.1l0.3 0.3h-0.3zm0.3 0.3l0.3 0.4h-0.3zm0.3 0.3l0.4 0.3h-0.4zm0.4 0.3l0.3 0.3h-0.3zm0.3 0.4l0.3 0.3h-0.3zm0.3 0.3l0.3 0.3h-0.3zm0.3 0.3l0.3 0.4h-0.3zm0.3 0.3l0.4 0.3h-0.4zm-49.8 52.4l0.4 0.3h-0.4zm0.4 0.3l0.3 0.3h-0.3zm-2.9 3.6l0.3 0.3h-0.3zm49.4 17l0.4-0.3v0.3zm-0.7 0.3l0.3-0.3v0.3zm-0.3 0.4l0.3-0.4v0.4zm-0.3 0.3l0.3-0.3v0.3zm-0.3 0.3l0.3-0.3v0.3zm-0.3 0.3l0.3-0.3v0.3zm-0.3 0.4l0.3-0.4v0.4zm-537.7-351.5l-18 53 1.9-39.2 0.4-0.3 13.1-12.2 1.6-0.4zm-22.5 136.6l-1.6 29.5 32.2 3.9-36.7 18.3-9.3 17.7 9 5.8 0.3 0.3v0.3h0.4v-0.3l32.7 26-3.2 29.9-28.6-14.2-6.1-19.5v0.9l0.3 0.7v0.6l-1-0.8-5.7 11.7-12.5-22.1 2.9-1 0.3-1-1.3-11.2-16.4 0.6zm-10.9 97.7l0.8-1.6h0.2v-0.3h-0.4v0.3h-0.6v0.3l-1.3 1-0.3 0.9 0.3 0.4 0.6 0.4 0.7-1.4zm0.8-1.6h-0.2l0.3-0.4zm-0.8 0.4l0.4-0.4v0.4zm22.8 205.9l-3.2-41.3 6.4 48.4-0.3-0.3 0.6 3.2 6.4 29.8-9.6-39.2zm-4.8-62.9l0.3 0.9 0.3 7.3zm0.6 8.3l0.6 7.8h-0.2zm1 13.4l-0.7-5.3h0.3zm-0.4-5.2v-0.4 0.4zm90 212.7l-10.3-13.2 0.7 0.6zm58.7 47.6l-26.9-22.5 5.4 1.6 1 0.3 0.3 0.3 23.5 16.4-1 1.6h-0.3v0.4zm2.2-2v-0.3l-0.3 0.3z"
       style="fill:#000000;opacity:1" />
    <path
       id="Path 1"
       fill-rule="evenodd"
       class="s1"
       d="m55.1 255.3l2.2-14.2 2.3 9-1.3 3.6zm351.1 312.9l10.6 7.1 20.9-8.4-4.8-12.9 18.9 0.4 3.9 28.9 7.4-13.8-4.5 58.4-14.8 9.4 16.1 58.1-10.6 3.5 0.9-14.7-17.6 7.4 0.3 0.3 8 7-9.6 7.1 28.6-3.2-25.7 32.5 11.2 1.2-11.6 12.9 11.3 3.2 0.6 22.8-20.9 12.2 16.1 6.4 2.9 16.8-0.6 0.3-4.5 8.7 0.3 0.3v0.3h-0.3v0.3l-1.8-0.5 5 5.7-8.7-3.6-2.9 19.6 9.6 1.9-16.3 33.8 12.5 12.5-12.9-9 5.2 16.1-20.9 30.8-15.4-1.9-13.5 17.7h-0.3v0.3h-1v0.3l-9.6 1 2.5-14.5-5.4 12.5-13.5-6.7 22.5-18.3-0.3-20.6v-0.3h-0.4l-0.9 1.3h-1.3v-0.3h-0.3l-0.7-0.4v-0.3h-0.3v-0.3h-0.3v-0.3h-0.3l-55.9 38.2-20.6-2.2-8 15.1-1-9.4-22.2 8.4-9-9.3-7.7 12.2-51-10-2.6 11-25.1-18h-0.3v0.3l-0.3 0.6v1.6l-2.6-2.9v-1.6h-0.3v-0.9l-0.3-0.7v-0.3l-0.3-0.6v-0.4l-0.4-0.6v-0.3h-0.3v-0.3h-0.3l-32.1-29.9-0.4-1.3v-0.6h-0.3l-15.4-35.4-24.7-18.3-18.7-66.8-0.3-0.7-24.7-183.7 33.4 8-4.8-23.1 9.6-2.9 18.3 6.7 39.9-12.5-11.6 24.1 16.1 7.7 14.7-10.6 10.3 24.7 14.8-37.2 0.3-0.4 13.5-18.3 24.7 10.9-1.3 24.8 1.3 1.3 1 2.9v0.3h-0.3v0.3l8 30.5-16.7-14.1 8.7 24.1-21.2-2.3-4.5 21.2 16.4 14.5 32.1-10.9 12.2 18.6-12.2 1 17.3 10.9-48.5 5.5-28.6 11.5-36.6-16-5.8 17 25.4 17.7 57.5-7.1 6.1 4.5 0.3 0.3 0.7 1 0.3 0.3 34.4-10.6 13.8-19-11.3-43.3-24.1-17.1 8.4-4.8-16.7-21.8 26.7 8-2-32.1-12.5-9 21.8-4.8-0.3 0.3 20.3 15.7 14.7-23.1 41.8 16.7 11.2-8 8.7 11.5-19.9 2.6v-0.3h-0.3l-9.7 0.3 2.9 15.1 22.2-1v-9.6l2.9 11.2-52.7 38.3 43.4-2.3 38.8-49.1-2-4.6 8.5-7.3 4.8 9zm30.6 252l-2-2.4h-0.3v1.6zm-48.7-251.6l14.5-0.4-7.4 16zm7.1 15.7l0.1 0.3-0.4 0.4zm-45.7 2l0.3 0.3h-0.3zm-125.6 11l0.3-0.4v0.4zm210.4 221l0.4-0.3v0.3zm4.1 2.6l0.4-0.3v0.3zm-310.7 74.5l0.3 0.3h-0.3zm241 2l0.3 0.3h-0.3zm0.3 0.3l0.3 0.3h-0.3zm3.8 0l0.4 0.4h-0.4zm-3.5 0.3l0.3 0.3h-0.3zm1 0.6l0.3 0.4h-0.3zm-209.8 28.6l0.3 0.3h-0.3zm0.3 0.3l0.3 0.3h-0.3zm1.3 3.9l0.3 0.3h-0.3zm3.2 2.2l0.3-0.3v0.3zm212.7 10.6l0.3-0.3v0.3zm-1 0.4l0.4-0.4v0.4zm-133.7 39.5l-16.3-11.6 72.2-6.4 12.2 5.5-9 10.6-40.1 1.2zm-34.1-12.8l4.2 1.6v0.3l0.7 0.3 0.6 0.7 0.6 0.3 1.3 1-9.9-1.3 0.3-0.3 1.9-2.3z"
       style="fill:#ffffff;opacity:1" />
    <path
       id="Path 2"
       fill-rule="evenodd"
       class="s2"
       d="m500.3 132.9l1.6 11.8 23.5-44v1.3h-0.3v0.3l5.7 13.5 2.3 7.7 1-0.9 22.8-6.5-6.8 30.6 26-16.4 11.6 3.5-5.5 3.2 9.4 1.6-12.6 4.2 10.3 16.7h-0.3v0.3h-0.3v0.4h-0.4v0.3h-0.3v0.3l-18.3 25.4 20.6 13.5-18.7 11.5 28.3-6.1 3.2 14.8h-0.3v0.3h-0.3v0.4h-0.3v0.3h-0.4v0.3l-0.6 0.3h-0.3v0.3l-9.3 15.8 40.4 1.3-21.2 12.5-9.3 55.3 0.3 0.9-27.3 6.1 1.3 17.7-24.1-10.6-16 9 14.7 8-22.4 2.9-22.5-27 8.6 28.3-11.5 5.5 9.9 3.8-15.4-0.3-1.6 15.7 16.7-12.8 11.9 20.2-3.9 13.2-20.2-15.1-10 11.6 10.3 22.8-3.2-17.4 10.6 19 6.1-12.5 6.1 8.6 2 16.1-14.2-9 9 17.7-16.4 16.7 20.6-4.8-6.1 16.7-60.7 38.2-52.1-17.7v-0.3h-0.3l-0.6-1.3-86.1-0.3-24.6 5.7 42.6 17.1 60.4-0.6-2.3 26.6-35.3-3.5 1.9 20.9-29.6-8.7-7.7 12.9 23.2 19.2 22.8-12.5h0.3l7.4 5.5 22.8-0.3 94.4-64 14.5-2.6 3.8 14.8-1.2 5.5-10 5.5 18 12.2 4.8-13.2 4.8 12.2h-0.3v0.3l-7 24.6 8 0.8h0.3v1.3l1.9 3.8-16.7 10 0.7 21.8 19.5-9.6 10.7 10.6-4.2 17.7 8-7.4 14.1 42.1-0.6 0.6 0.3 2.3 1 0.9-0.3 0.4-3.2 2.5 0.3 0.3 19.2 30.6-16 29.5 12.5 15.8-6.1 29.5-9-2.2 6.4 20.2-0.6-0.6-1.6 24.1-35 49.8-34.7 34.7-36 2.9-11.9 29.5-32.7 37.3-67.2 24.7-14.1 19.6-18.3 2.6h-1l-29.9-10.9-9.3-1.6-10.6-4.2 40.2-1.3 9-10.6-12.2-5.5-72.3 6.5 16.4 11.5-26.7-8.6-1.3-1-0.6-0.3v-0.3h-0.4v-0.4h-0.3l-0.6-0.3v-0.3l-4.2-1.6h-0.3v0.3l-1.9 2.3h-0.4v0.3l-4.8-2.3 2.3-2.2 0.9-1.6-23.4-16.4v-0.3h-0.3l-1-0.4-5.5-1.6-9.9-13.5v-1.6l0.3-0.6 0.3-0.3 25.1 18 2.5-11 51.1 10 7.7-12.2 9 9.3 22.2-8.3 1 9.3 8-15.1 20.5 2.2 55.9-38.2 1 1 0.6 0.3 0.4 0.3h1.3l0.9-1.3 0.3 0.3 0.4 20.6-22.5 18.3 13.5 6.8 5.4-12.6-2.5 14.5 9.6-1 0.3-0.3h0.7l0.3-0.3 13.5-17.7 15.4 1.9 20.9-30.8-5.2-16.1 12.9 9-12.5-12.5 16.3-33.7-9.6-2 2.9-19.6 8.7 3.6-5-5.7 1.8 0.5 0.3-0.3v-0.6h-0.3l4.4-8.7 0.7-0.3-2.9-16.7-16.1-6.5 20.9-12.2-0.6-22.8-11.3-3.2 11.6-12.9-11.2-1.2 25.7-32.5-28.6 3.2 9.6-7-8-7.1v-0.3h-0.4l17.7-7.4-0.9 14.8 10.6-3.6-16.1-58.1 14.8-9.3 4.5-58.5-7.4 13.8-3.9-28.9-18.9-0.3 4.8 12.8-20.9 8.4-10.6-7.1 2.6 18-4.8-9-8.6 7.3 2.1 4.6-38.8 49.1-43.4 2.3 52.7-38.3-2.9-11.2v9.6l-22.2 1-2.9-15.1 9.7-0.3 0.3 0.3 19.9-2.6-8.7-11.5-11.2 8-41.8-16.7-14.7 23.1-20.3-15.7h0.3v-0.3h-0.3l-21.5 4.8 12.5 9 1.9 32.1-26.6-8 16.7 21.8-8.4 4.8 24.1 17.1 11.3 43.3-13.8 19-34.4 10.6v-0.3h-0.3l-0.7-1v-0.3h-0.3l-6.1-4.5-57.5 7.1-25.4-17.7 5.8-17 36.6 16 28.6-11.5 48.5-5.5-17.3-10.9 12.2-1-12.2-18.6-32.2 10.9-16.3-14.5 4.5-21.2 21.2 2.3-8.7-24.1 16.7 14.1-8-30.5 0.3-0.3v-0.3l-1-2.9v-0.3h-0.3v-0.4h-0.3v-0.3h-0.3v-0.3h-0.4l1.3-24.7-24.7-11-13.5 18.3h-0.3v0.4l-14.8 37.2-10.3-24.7-14.8 10.6-16-7.7 11.5-24.1-39.8 12.5-18.3-6.7-9.6 2.9 4.8 23.1-33.4-8 24.7 183.7 0.3 0.7 17.6 62.9-13.4-21.2-5.5-14.7-0.9-3.9-6.4-29.9-0.4-2.9-7-53.6v-0.3l-0.7-15.1-0.3-1-5.5-79.4-18.9-49.1 5.7-11.7 1 0.8v-0.7l-0.3-0.6v-0.9-0.1l6.1 19.6 28.6 14.1 3.2-29.8-32.7-26.1h-0.4v-0.3h-0.3l-9-5.8 9.3-17.6 36.7-18.3-32.2-3.9 1.6-29.6 4.5-83.5 17.9-52.7h0.1v-0.3h-0.3v0.3h-0.3v0.3h-0.3v0.4l-1.7 0.3-13.1 12.2h-0.3l3.5-77.4 3.2-1.6 1.3-3.6-2.3-9 12.6-66.2 17.6 17.1-9.6 29.2 0.3 0.6v0.4l0.3 0.6v0.3l0.4 0.4 1.9 46.2 0.6-0.3 18.3 2.2-6.4-9.9 14.8-5.2-20.9-27.6 18.6-19.3-17.3-8.6 21.2-4.9-8 10.6 9.3-3.2 2.2 17.4-0.3 0.9v1.3l0.3 0.4 5.2 22.4 23.7 17.7-7.7-32.8 18.3 20.6 27 4.2 6.5-14.5 27.9-2.2 8.4-25.7 13.1 17.6-0.9-20.8 6.1 10.2 13.5-26.3 14.1 10.9 21.2 4.5 0.3-0.3h0.3l17.7-1-19.3-1.6 7.4-12.2 3.2 11.6 17.7-0.7 29.2-13.1 6.1 20.9 15.1-9-2.5 9 19.2 5.1 17.4-12.5-10.3 9.3 14.1 10.9h-0.3v0.3h-0.3v0.3h-0.3v0.4h-0.3v0.3h-0.4v0.3l-1.9 1.6 2.2-1.6h0.1l34-25.1 8.4 30.6 9.3-35.4 2.2 9 16.7-6.1-15.4-18.9 21.5-9.7 10.3-18-9-0.6-0.6-1.3 9.3-12.8 9.6 12.2zm-227.1 438.2v-0.3h0.3zm-221.3-238.4v0.3h-0.3v-0.3 0.3zm15.6-13.2h-0.2l0.3-0.3zm177.5 173.2l-2.3 0.6 2.9 9.3 35-18.2zm35.6-8.4l9.9-2.3-3.1-1.2zm238.1 69.5l-8.7-0.8 8 3.2zm13.8 28.1l-1-1 9.3-3.2zm-95.5 238.2l-2.4-0.7v-1.3l0.3-0.3zm-41.4-235.7l-0.1-0.3-0.4 0.7zm7.2-16.3l-14.4 0.3 7.1 15.7zm-315.9 269.4l3.7 5.9-2.6-1.9zm25.8 22.2l15.4 35.4 0.3 0.3v0.3l0.4 1.3 32.1 29.9 0.6 0.6 0.3 0.7v0.3l0.4 0.6v0.4l0.3 0.6v1l0.3 0.3v1.3l-19.3-8.7-9.6-12.5v-0.3h-0.3v-0.4h-0.3l-42.7-67.4zm-78.4-306.5l-0.7 1.4-0.6-0.5v-0.3h-0.3l0.3-0.9 1.3-1 0.3-0.3h0.3l0.4-0.4zm490.8-451.1l0.3-0.3v0.3zm64 57.5l0.3-0.3v0.3zm-0.3 0.4l0.3-0.4v0.4zm-0.3 0.3l0.3-0.3v0.3zm-0.3 0.3l0.3-0.3v0.3zm14.8 59.4l0.3-0.3v0.3zm-0.3 0.4l0.3-0.4v0.4zm-0.3 0.3l0.3-0.3v0.3zm-0.3 0.3l0.3-0.3v0.3zm-1 0.7l0.3-0.4v0.4zm-195.9 4.1l0.3-0.3v0.3zm-0.3 0.4l0.3-0.4v0.4zm-0.3 0.3l0.3-0.3v0.3zm-0.3 0.3l0.3-0.3v0.3zm0 0.3h-0.1-0.2l0.3-0.3zm-337 92.6l0.3-0.4v0.4zm-0.3 0.3l0.3-0.3v0.3zm335.1 157.7l0.3 0.4h-0.3zm124 51.4l0.3-0.4v0.4zm-487 1.6l0.3 0.3h-0.3zm-6.1 23.1l0.3 0.4h-0.3zm152.3 21.2l0.3-0.4v0.4zm37.3 17l0.3 0.3h-0.3zm0.3 0.3l0.3 0.3h-0.3zm0.3 0.4l0.3 0.3h-0.3zm0.3 0.3l0.4 0.3h-0.4zm209.5 98.3l0.3 0.4h-0.3zm-198.9 32.1l0.4 0.3h-0.4zm1 1.3l0.3 0.3h-0.3zm204 94.8l0.3 0.3h-0.3zm-305.5 91.3l0.3 0.3h-0.3zm0.3 0.3l0.3 0.3h-0.3zm48.2 39.9l0.3 0.3h-0.3zm27.6 20.2l0.3-0.3v0.3zm5.2 2l0.3 0.3h-0.3zm-7.4 0.6l0.3-0.3v0.3zm7.7-0.3l0.3 0.3h-0.3zm-109.8-857.2l-6.8 37.9-3.2-24.4 0.3-0.3h0.3l1.3-0.6-1.9-0.4 7.7-13.4 1.3 0.9zm622.6 20.6l8.6 39.2v37.9l-18.6 93.4-1-2.2-0.3-0.9 4.8-80-28.6-3.9-29.8-45 55.5-31.6v0.1h0.4v-0.6l0.6-0.6 1.3-0.7h0.3l0.3-0.3h0.7l0.3-0.3zm-10 170.5l0.4 0.7 0.3 0.3 1.3 2.6-0.7 0.7-5.4 16.7zm0.9-163.8l-0.3 0.2v-0.2zm-11.2 196.9l-9.7 13.2 1.3-7.4 0.3-0.3 1 0.6 0.3 0.4v0.3h0.3v-0.3h0.4l0.3-0.4 3.5-3.8zm-103.1 174.1l23.4-21.2 35.1-13.2-15.5 23.5 0.4 0.3-10.3 12.2h-0.3v0.3h-0.4l-0.3 0.7v0.3h-0.3v0.3l-10.9 7.1 8 7.7 13.2-12.8 12.4 6.4-0.9-10.3 19-10.6v-0.6l18.3 14.1-5.5 62.6-36.9 109.6-12.5 5.1-12.6-24.7-13.8-0.3 20.6 25.4-19.3 12.8-14.4-20.6 4.8-18.3 1.9-1.9h0.3l0.3-0.3 1-0.3-3.2-21.6 16.7-17.6 16.1 4.5 1.9-24.1-8 16-29.6-5.7v-11l-1.3 0.3-14.8-27.3 21.6 11.6 2.5 2.6 1.6-17.1 19 11.3 5.1-8.7-26-29.2-10.6 3.8 1-14.4v-0.3h-0.3v-0.4l-0.4-0.6v-0.6h-0.3zm54.5 11.6l2.4 30.4v-29.2zm-21.7-9.7l0.3-0.3v0.3zm-1 1.3l0.4-0.3v0.3zm-36 21.5l0.3 0.4h-0.3zm0.6 1.6l0.3 0.3h-0.3zm-599.7-9.3l16.4-0.7 1.2 11.3-0.3 0.9-2.9 1z"
       style="fill:#808080;opacity:1" />
    <path
       id="Path 3"
       fill-rule="evenodd"
       class="s0"
       d="m581.9 137h0.3v0.3h-0.3zm-90.2 22.9l3.5 14.1-8 13.2-4.5-10.3zm-223.6 45h0.3v0.3h-0.3zm273.4 15.7l19.5-13.1 1.3 9.9zm-75.5-2.2l-2.2 13.8-10.6-3.5zm75.2 2.2h0.3v0.3h-0.3zm-139.8 8.4h0.3v0.3h-0.3zm72.9 44.3l17.1 11.6-17.1 5.5zm-34.6 210.7h0.3v0.3h-0.3zm0.3 0.4h0.3v0.3h-0.3zm-152.9 13.8l23.1 6.1-33.1 8.4-10.6-10.6zm-217.5 7.7l3.2 13.1-16-1.6zm190.1 2.6h0.4v0.3h-0.4zm-21.2 10l18.4 15.4-0.4-11.6 10.6 13.2 40.2-4.2-18.6 19.6-42.8-3.2-0.3 46.3-29.9-43.1 5.8-9.9h0.3v-0.3zm117.2 3.2h0.3v0.3h-0.3zm-275 18.6l15.1 2.6-15.4 19.6-9-10.3zm141 0.3l-0.3 0.4v-0.4zm409.4 94.8l15.4 13.5-11.3 11.9zm-401.2 61l15.1 3.3-5.1 8.9-33.8-1.2zm253.2 89.3l9 4.2-9.7 12.8zm-12.8 36.3l18 6.1-18.3 34.1zm-304.3-262.2l0.4 0.3z"
       style="fill:#000000;opacity:1" />
    <path
       id="Path 4"
       fill-rule="evenodd"
       class="s1"
       d="m719.1 155.7l7.1 17-13.9 8.7-5.4-8.7zm-3.5 33.1l14.4 24.4-12.8-7.4-11 14.8-11.2-11.3 18.6-2.2zm-582.4 98.6l49.8-2.5 1.9-11 16.7 1.3-0.6-13.5 20.9 0.3v-12.5l72.3 7.1 2.2-16.1 29.6-16 14.3 6.3 3-6 19.3 26.3 20.2-4.5 2.6 19.3 15.7-11.2 8.7 13.8 7.1-7.1 15.4 19.3h-18.3l10.6 12.8-21.2-3.8 2.5 26 20-6.1 0.6 13.5-17.3 12.8 15.1 7.8-20 3.2 8.7 17-12.2-12.9-0.3 22.5 14.4 4.5-15.7 10.3 2.8 8.4 9 1.4 1.7 14.3-13.2 5.5v0.3h0.3l8.7 11.2-8.3 5.9-6.5-2.3-10.6 12.2 20.3 15.1-22.2 6.4-118.5 2.3-25.4 14.7-12.2 47.6-19.9 8.3-15.4-16.7 13.4-8.6-9.9-25.4-13.2 19.9-51.1-33.4-74.2 6.1 2-101.9 29.2-77.1 12.2-2.2 7.1-11.9zm207.1-56.6l-5.4 11 7.7-10zm61.7 165.9l-12.1-2 13.1 5.2zm9 1.4l-0.5-4.3 7.4 5.4zm-10.8 37.2l17 6-20.6-3.5zm163.8-193.5l24.4 16.1-31.4 6.1-4.2 13.8-16.1-15.4zm-147.4 19.2h0.3v0.4h-0.3zm125.9 20.2l10 23.1-29-17.6zm-106.9 43l17 4.5-18.6 14.2zm-35.8 93.8l-0.2-0.3h0.3v0.3zm-18.6 48.5h0.4v0.3h-0.4zm-265.3 37.9l19.6 8.7-1.6 11.6-61 11.2zm213.9 1.6l12.8 18-38.5-2.2zm-224.2 4.8h0.3v0.3h-0.3zm538.4 59.1l-17.4-17 19.3-10 8.4 21.6zm-222.3-23.2l11.5 4.2-11.3 5.5zm-4.1 11.9l-6.8-10.3 10.1 8.7zm3.3-1.7l1.1-0.5 0.1 1.5zm-222.1-0.9h0.3v0.3h-0.3zm207.2 11.6h0.3v0.3h-0.3zm242.2 1.6l10 13.5-5.5 19zm-183.1 7.4l11.2 11.8-14.7-1.6zm-229.1 76.5l-3.5 12.5-7.1-6.4zm-20.5 42.7h0.3v0.4h-0.3zm12.2 23.1h0.3v0.3h-0.3zm308 23.8l8.1 36.3-14.5 6.1-17.3-15.1zm-95.1 50.8h0.3v0.3h-0.3zm-156.5 154.5h0.4v0.3h-0.4z"
       style="fill:#ffffff;opacity:1" />
    <path
       id="Path 5"
       fill-rule="evenodd"
       class="s2"
       d="m530.8 115.8h0.4v0.3h-0.4zm45 14.2h0.3v0.3h-0.3zm-75.5 2.6h0.3v0.3h-0.3zm-9.9 6.1h0.3v0.3h-0.3zm171.8 37h0.4v0.3h-0.4zm-39.2 14.4l-11.8 19.6 1.2-11.8h0.4v-0.3zm-10.3 7.5l-0.3 0.2v-0.3h0.3zm-295.9 7.3h0.3v0.3h-0.3zm-28.6 1.6h0.4v0.4h-0.4zm283.4 4.5h0.3v0.3h-0.3zm-466.5 77.1h0.3v0.3h-0.3zm491.5 19.9h0.3v0.4h-0.3zm-37.2 28.2l-4.9 11-17.3 0.3 6.7-6.5h0.4v-0.1zm-15.1 4.8l-0.4 0.1v-0.4h0.4zm-7.4 6.6h0.3v0.3h-0.3zm-24.8 6.1h0.4v0.3h-0.4zm11.9 20.3h0.3v0.3h-0.3zm6.8 5.1l17.6 19.6-18.9-3.2zm-216.2 97.4h0.3v0.3h-0.3zm195 30.5h0.3v0.3h-0.3zm-1.3 5.5h0.3v0.3h-0.3zm-67.1 34.1h0.3v0.3h-0.3zm-67.2 12.5h0.3v0.3h-0.3zm-208.1 1h0.3v0.3h-0.3zm363 0h0.3v0.3h-0.3zm-362.7 0.4h0.3v0.3h-0.3zm262.8 7l10.9 5.8-15.4 5.2zm82.8 2.2h0.4v0.3h-0.4zm-429.5 2.9h0.4v0.4h-0.4zm225.2 0.3l6.8 17.6 17.6-2.2-14.7 10-6.5-15.8-14.1 6.4zm113.7 8.4l9 3.9-4.8 8zm-87.1 9.3l3.9 10.6-13.8-6.4zm-172.2 20.2l8 4.2-18.6 22.5-35.7 1.6zm278.2 35l-9.6 51.1-10-14.1 0.4 23.4-24.1-16.4 18-4.2-16.7-1.6 13.4-22.1 8.1 19.6 5.8-18.7 1.6 18.7zm-34.1 76.8l10 10.2-16.4-3.5zm-346.3 42.4h0.3v0.3h-0.3zm74.2 3.9l17.7 18.9 52.6 9 94.2-5.7 2.5-17.1 29.9 26.1-38.5 16.3-169.6-9.3-11.6-12.8 10.6 0.9zm144.9 47.9l9.6 5.8-13.8 9.6zm-91.9 38.6l-20.9-9.7-6.4-18.9 23.1 10.9 73.9-12.8 13.5 8.3-74.2 31.5 1-13.2zm0 0h0.3v0.4h-0.3zm-63.9 32.1h0.3v0.3h-0.3z"
       style="fill:#808080;opacity:1" />
    <path
       id="Path 6"
       fill-rule="evenodd"
       class="s0"
       d="m228.2 793.4l14.2 11.6-18.3 0.3zm25 0.3l41.1 4.8-37.5 9-12.9-2.2zm-93.5 3.5l0.3-0.3z"
       style="fill:#000000;opacity:1" />
    <path
       id="Path 7"
       fill-rule="evenodd"
       class="s2"
       d="m133.2 287.4h0.3v0.3h-0.3zm-35.1 12.9h0.4v0.3h-0.4zm0.4 0.3h0.3v0.3h-0.3zm304.8 19.6l11.9 6.8-10.6 7.4zm-22.2 6.1l24.4 10.2-8.9 28.3-15.8-18.9 5.8-12.9-13.2-1.9zm-257.6 6.1l1.9 12.8-13.2-3.2zm281.1 9.7h0.4v0.3h-0.4zm-27 72.9l20 11.6-19 16.7zm-120.8 118.9h0.3v0.3h-0.3zm275.3 239.3l-15.4-0.3 8.7-8.3zm0-0.3h0.3v0.3h-0.3zm-372 23.7h0.3v0.4h-0.3zm-0.3 0.3h0.3v0.3h-0.3zm229.3-447.2h0.4v-0.3h-0.4z"
       style="fill:#808080;opacity:0.99999999" />
  </g>
  <g
     id="Layer 1">
    <path
       id="path1"
       class="s0"
       d="m80.8 540.2l15.1 2.6-15.4 19.6-9-10z"
       style="fill:#000000;opacity:1" />
    <path
       id="path2"
       class="s0"
       d="m238.8 518.7l17.7 15.1v-11.6l10.6 13.2 40.2-4.2-17.7 19.3-43.7-2.9-0.6 46.3-31.2-46.6z"
       style="fill:#000000;opacity:1" />
    <path
       id="path3"
       class="s0"
       d="m262.9 503.9l13.5 11-20.5-1z"
       style="fill:#000000;opacity:0.99999999" />
    <path
       id="path4"
       class="s0"
       d="m121.6 482.4l56.5 32.8-10.6 10.3 24.1 11.8-18 47.6-13.8-36-7.7 18.3-26.7-6.7-0.3-18.7-15.4 3.3 15.1-13.5 23.8 18 8.6-7.1-8.6-30.5-40.2-20.9 8.7-8.7z"
       style="fill:#000000;opacity:1" />
    <path
       id="path5"
       class="s0"
       d="m310.2 505.2l-23.8 8.4-19.9-9.7 43.7 0.4z"
       style="fill:#000000;opacity:1" />
    <path
       id="path6"
       class="s0"
       d="m56.7 516.1l21.8-3.8-14.1 12.5-7.7-7.4z"
       style="fill:#000000;opacity:0.99999999" />
  </g>
</svg>
