<svg version="1.2" xmlns="http://www.w3.org/2000/svg" viewBox="0 0 1000 1000" width="1000" height="1000">
	<title>10</title>
	<style>
		.s0 { opacity: 1;fill: #ffffff } 
		.s1 { opacity: 1;fill: #818181 } 
		.s2 { opacity: 1;fill: #0a0a0a } 
	</style>
	<g id="Layer 1 copy">
		<path id="Path 0" fill-rule="evenodd" class="s0" d="m747.4 44.5c0.7 1.1 9.7 15.6 38.6 62.5v13.3c0 7.2-0.4 13.6-0.8 14.2-0.5 0.6-2.9 6.8-5.3 13.8-4.2 12.2-4.5 12.8-7.1 12.7-2.3 0-2.9-0.5-3.3-2.8-0.2-1.5-3-20-6-41.2-3.1-21.2-6.2-40.3-6.9-42.5-0.7-2.2-2.7-6.1-4.4-8.7-1.8-2.7-3.2-5.5-3.2-6.3 0-0.8-0.7-1.5-1.5-1.5-1.2 0-1.5-1.5-1.5-7.7 0-6.9 0.1-7.6 1.4-5.8zm-384.9 10.4l17.9 35.8c9.8 19.7 18 36 18.3 36.3 0.2 0.3 1.3-0.6 2.4-2 1-1.4 6.3-8.5 11.7-15.9 5.3-7.3 9.9-13.5 10.2-13.7 0.3-0.2 2 3.1 3.8 7.4 1.9 4.2 4 8.4 4.8 9.2 0.7 0.8 1.4 2.3 1.4 3.3 0 0.9 3.8 10.6 8.5 21.5 4.6 10.8 8.5 19.1 8.5 18.5 0-0.7-2.3-13.3-5-28-2.8-14.8-5.3-28.1-5.6-29.8-0.5-2.2 3.5 1.9 32.3 36l22.6 9.3c12.5 5 22.7 9 22.7 8.7 0-0.3-3.9-5.7-8.7-12-4.9-6.4-8.6-11.7-8.3-11.9 0.3-0.2 4.2-2.2 8.8-4.5 4.5-2.2 8.4-4.1 8.7-4.1 0.3 0 4.4 4.5 9.3 10 4.8 5.6 8.8 9.9 9 9.8 0.1-0.2 1.6-10.6 3.2-23.3 1.7-12.6 3-23.2 3-23.5 0-0.3 2.6 4.9 11.5 23.7l13.5-2.3c7.4-1.3 14.5-2.6 15.8-2.9 1.4-0.3 2.2-1.2 2.2-2.5 0-1.1 0.5-2 1-2 0.5 0 1.4 1 1.9 2.3 0.4 1.2 2.8 3.8 5.2 5.7 2.4 1.9 15.1 11.9 28.2 22.2 14.9 11.9 23.7 19.4 23.7 20.6 0 0.9-0.7 6.2-1.4 11.7-0.8 5.5-1.4 10.1-1.3 10.3 0.1 0.2 4-0.8 8.7-2.3 4.7-1.5 8.9-2.5 9.4-2.3 0.4 0.2 4.7 8.2 9.5 17.8 8.4 17 8.7 17.5 11.9 17.8 2.9 0.2 4.9 2.4 24.9 28.5 11.9 15.5 23.4 30.5 29.5 38.2l-11.8 1.4c-8.6 0.9-12 1-12.1 0.2-0.2-0.6-1-1.1-1.8-1.1-0.8 0-1.5 0.7-1.5 1.5 0 0.8 0.8 1.7 1.8 1.8 1 0.2 2.7 2.9 4.5 7 1.5 3.7 2.2 6.7 1.7 6.7-0.5 0-13.7-3.8-29.2-8.5-15.6-4.6-28.4-8.3-28.6-8.2-0.1 0.1 7 5.8 15.8 12.7 8.8 6.9 16 12.8 16 13.3 0 0.4 0.6 0.7 1.3 0.7 0.6-0.1 1.9 0.6 2.7 1.5 1.1 1.1 1.1 1.6 0.3 1.5-0.7 0-1.3 0.7-1.3 1.5 0 0.8 0.7 1.5 1.5 1.5 0.8 0 1.6-0.5 1.8-1 0.1-0.6 7.6 6.3 32.9 31.5l-2.7 12.5c-1.5 6.9-2.9 12.8-3.1 13.3-0.2 0.4-2.1 0-4.1-0.9-2.1-0.9-5.8-2.2-8.3-3-2.5-0.7-7.9-1.4-12-1.4-4.2 0-9.5 0.6-12 1.5-2.5 0.8-5.3 1.5-6.2 1.5-1 0-5.3 1.7-9.5 3.7-4.3 2.1-8.1 4.2-8.4 4.8-0.4 0.5-3.4 2.5-12.9 7.5h-33.5l-19.5 9.1c-10.7 5-21.3 9.8-23.5 10.7-2.2 0.8-5 2.6-6.2 3.9-1.3 1.3-3.7 2.6-5.3 3.1-1.7 0.4-3 1.4-3.1 2.2 0 1-5.5 4-15.5 8.5-8.6 3.9-15.8 7.2-15.9 7.5-0.2 0.3 5.8-0.2 13.3-1.1 7.6-0.8 14.8-2.1 16.2-2.7 1.4-0.6 16.9-4.1 34.5-7.7 17.6-3.6 37.7-7.8 44.7-9.3 7-1.5 12.9-2.5 13.2-2.2 0.3 0.3-2.8 11.4-6.7 24.7-4 13.3-7.4 24-7.7 23.7-0.3-0.4-1.7-6.8-5.7-27.9l-3.5 5.5c-1.9 3-4 6.5-4.7 7.8-0.6 1.2-1.8 2.2-2.6 2.2-0.8 0-1.5 0.6-1.5 1.3 0 0.6-2.7 2.6-6 4.2-3.3 1.6-6 3.6-6 4.3 0 0.6-0.7 1.4-1.5 1.7-0.8 0.3-1.5 1.2-1.5 2q0 1.5 3 1.5c2.7 0 3.2 0.5 6 9h-4.5c-3.3 0-4.5-0.4-4.5-1.5 0-0.8-0.7-1.5-1.5-1.5-0.8 0-1.5 0.7-1.5 1.5 0 0.8-0.7 1.5-1.5 1.5-0.8 0-1.5 0.7-1.5 1.5 0 0.8 0.7 1.5 1.5 1.5 0.8 0 1.5 0.6 1.5 1.3 0 0.6-1.7 2.1-4 3.2-2.2 1.1-4.3 1.6-4.7 1.2-0.5-0.4-0.1-5.2 0.8-10.5 0.9-5.3 1.5-9.8 1.3-9.9-0.2-0.2-3.2 1.4-6.6 3.5-3.5 2.1-6.8 4.1-7.3 4.5-0.5 0.3-4.5-3.6-8.7-8.8-4.3-5.2-7.8-9.9-7.8-10.5 0-0.6-0.7-1-1.5-1-0.8 0-1.5 0.8-1.5 1.8 0 1.3-1.4 2-5.7 3-5 1.2-7.3 1.2-16.8-0.2-6-0.9-12.1-1.8-13.5-2-1.4-0.2-5.2-0.7-8.5-1.1-3.3-0.3-14.9-2.4-25.7-4.6-10.9-2.1-21.4-3.9-23.3-3.9-1.9 0-5.2-0.7-7.2-1.5-2.1-0.9-5.7-1.5-8-1.5-2.4 0-5.5-0.6-7-1.4-1.6-0.7-6.2-1.6-10.3-1.9-4.1-0.3-12.4-1.5-18.5-2.7-6.1-1.1-15.3-2.8-20.5-3.6-5.2-0.8-13.3-1.9-18-2.4-4.7-0.4-9.9-1.2-11.5-1.8-1.6-0.6-10.6-1.5-20-2.1-9.4-0.7-19.6-1.5-22.8-1.9-3.5-0.4-5.7-1.2-5.7-1.9 0-0.7-0.7-1.3-1.5-1.3-0.8 0-1.5 0.7-1.5 1.5 0 1.2-1.4 1.5-6.7 1.5-3.8 0-12.7 0.7-19.8 1.5-7.1 0.8-15 2.2-17.5 3-4 1.4-5 2.4-9.2 9.3-3 4.9-4.7 8.9-4.8 11 0 1.7-1.4 9.4-3.1 17-1.7 7.5-3.8 15.1-4.7 16.7-0.8 1.6-4.8 6.9-8.9 11.8-6.3 7.5-7.1 8.8-5.5 9.5 0.9 0.5 4.9 1.9 8.7 3.2 7 2.3 7 2.3 12 0.5 2.8-1 7.7-3 17-7.2l-7.2-5.9c-4-3.2-6.9-6.1-6.3-6.4 0.5-0.3 3.2-9.1 5.8-19.5 2.7-10.4 5.6-20.4 6.5-22 0.9-1.6 2.4-4 3.4-5.2 1-1.2 3.6-2.6 5.8-3.2 2.4-0.6 14-1.1 28.5-1.1 13.5 0.1 28.8 0.6 34.2 1.3 5.3 0.7 9.9 1.4 10.2 1.7 0.3 0.3-0.6 2.1-1.9 4-1.8 2.5-2.2 3.6-1.3 3.8 0.7 0.2 7.4-0.8 14.8-2.3 13.2-2.7 13.6-2.7 21.5-1.2 4.4 0.9 14.3 2.4 22 3.3 9.2 1 23.7 4 42.5 8.6 15.7 3.8 42.2 10.3 59 14.4 16.8 4.1 39.7 9.8 51 12.5 11.3 2.7 21.3 5.2 22.3 5.4 1.5 0.4 1 2-3.8 11.5-3 6.1-5.4 11.2-5.2 11.4 0.1 0.3 5.2-3.3 11.2-7.9 10.5-8.1 11.2-8.4 21.5-8.5l21 42-11.5 1.3c-6.3 0.6-11.5 1.4-11.5 1.7 0 0.3 14.1 7.2 62.5 30.3l10.6 19.6c7.2 13.2 10.2 19.7 9.3 19.9-0.8 0.1-1.4 0.9-1.4 1.7 0 0.8 0.8 1.5 1.8 1.5 1.3 0 2.2 2.2 7 21.5l-10.7 28.6c-9.5 25.6-11.1 29.3-15.7 35-2.7 3.5-5.3 7-5.7 7.7-0.4 0.6 2.6-0.7 6.6-2.9 3.9-2.3 13.3-7.7 20.7-12 11.8-6.8 13.7-8.3 15.1-11.6 0.9-2.1 5.2-13.8 17.4-48.3l7 3.9c3.9 2.1 13.5 7.3 21.5 11.6 8 4.2 14.8 8 15.2 8.3 0.4 0.4-3.8 3.3-19.7 12.5l-7-1.2c-3.9-0.7-7.1-1.1-7.2-0.9-0.1 0.2 2.4 3.2 5.5 6.8 3.1 3.6 7.1 8.2 11.7 14l18-3c9.9-1.6 18.1-2.9 18.2-2.7 0.1 0.1-0.5 3.1-1.3 6.7-0.7 3.6-1.6 6.6-1.9 6.7-0.3 0.2-1.5-0.2-2.7-0.8-1.8-0.8-2.6-0.8-3.5 0.3-0.6 0.7-5.4 8-10.7 16.3-5.3 8.2-9.5 15.1-9.4 15.2 0.2 0.1 12.2-2.2 26.8-5.2 14.6-3.1 26.8-5.4 27.3-5.3 0.4 0.2-4.1 3.3-10 7-10.2 6.4-11.4 6.9-21.8 8.8-6 1.2-21.1 3.9-56 10.2l-7.5 6c-4.1 3.3-7.8 6.5-8.1 7.1-0.3 0.7-1.6 5-2.9 9.7-1.3 4.7-2.7 9-3.1 9.5-0.5 0.6-4.1-1.9-9.1-6.2-4.6-4-8.4-7.1-8.6-7-0.1 0.1 1.7 10 4 22 2.4 11.9 4.5 21.7 4.8 21.7 0.3 0 1.6-3.3 3-7.5 1.4-4.1 2.8-7.2 3.1-6.7 0.4 0.4 1.7 6.1 2.9 12.7 1.3 6.6 2.6 12.5 2.9 13.2 0.4 0.7 5.5-4.8 12.6-13.4 6.6-8 12.3-14.7 12.8-14.9 0.4-0.2-0.5 2.2-1.9 5.4-1.4 3.1-3.7 8.2-5.1 11.2-1.4 3-2.3 6.1-2.1 6.8 0.1 0.7 4.1 3.8 17.2 12.7l1.8 8.5c0.9 4.7 5.6 20 10.3 34 4.7 14 8.5 26 8.5 26.5 0 0.5-3.5 1.3-7.7 1.8-4.3 0.4-9.7 1-12 1.2-3.3 0.4-4.2 0.9-3.8 2 0.3 0.8-0.1 1.8-0.7 2.2-0.7 0.3-1.8-0.1-2.3-1-0.8-1.3-2.6-0.1-11 6.9-5.5 4.7-10.1 8.3-10.1 8.2-0.1-0.2 0.5-4.3 1.2-9.3 0.7-5 1.3-10.1 1.4-14l-23.8 2.9c-13 1.6-23.9 3.1-24.2 3.3-0.3 0.2 3.5 9.8 17.5 42.2l23.7 0.6-12.8 7c-6.9 3.9-12.8 7.2-13 7.5-0.2 0.3 5 5.1 11.4 10.8 6.4 5.6 11.9 10.3 12.2 10.3 0.3 0 1.6-2.3 3-5.1 1.4-2.7 2.6-4.9 2.6-4.7 0.1 0.1-0.4 4.2-1.2 9.2-0.8 5-1.6 9.1-1.9 9.3-0.3 0.1-4.7-2.4-9.7-5.7-5.1-3.2-15.6-9.8-23.3-14.6-7.7-4.8-14.5-8.8-15-8.8-0.5 0-7.1 1.9-28 8.4l-5.4-5.6-0.3 2.5c-0.3 2.1-2 0.4-24.5-26.5l3.1-0.7c1.7-0.3 6.6-0.9 10.9-1.2 6.5-0.5 7.7-0.9 7.7-2.3 0-1 1.2-6.9 2.7-13.1 2.2-9 3.1-11.2 4.6-11.2 0.9 0 1.7-0.6 1.7-1.3 0-0.6-4.9-3.3-10.8-5.9-5.9-2.6-11.3-4.8-11.9-4.8-0.7 0-1.3 1-1.3 2.2 0 1.3 0.7 6.8 1.5 12.3 0.8 5.5 1.3 10.1 1.2 10.1-0.1 0.1-3.2 2-6.9 4.3-3.8 2.2-7 4-7.3 3.8-0.2-0.1 0.7-6.5 2.1-14.2 1.3-7.7 2.7-14.8 2.9-15.8 0.3-1.1 1.5-1.7 6-1.8l-2.5-1c-1.6-0.6-2.8-0.6-3.4 0.1-0.6 0.5-1.4 1-1.8 1-0.4 0-0.8-0.7-0.8-1.5 0-0.9-1.4-1.9-3.2-2.3-1.8-0.5-12.5-3.3-23.8-6.2-11.3-2.9-20.8-5.6-21.2-5.9-0.3-0.3-1.1-10.7-1.7-23.1-0.6-12.4-1.4-25.2-2.2-34.5l-9.7-1.8c-5.3-0.9-12.5-2.2-15.9-2.7-3.5-0.6-6.3-1.5-6.3-2 0-0.5 1.2-2 5.1-5.5l-9-7.5c-4.9-4.1-8.9-7.6-8.8-7.7 0.1-0.1 4-0.9 8.7-1.7 4.7-0.9 8.6-1.4 8.7-1.3 0.1 0.1 1.8 4.7 3.8 10.2 2 5.5 4 10.7 4.5 11.5 0.5 0.8 1 1 1 0.5 0-0.5 0.7-9.1 1.5-19 0.8-9.9 1.4-18.1 1.2-18.2-0.1-0.1-6.7 1-14.7 2.6-11.5 2.2-14.6 3.1-14.7 4.4-0.2 1-1.2 1.7-2.3 1.7-1.1 0-2-0.7-2-1.5 0-0.8 0.8-1.6 1.7-1.7 0.9-0.2-2.8-2.8-8.2-5.8-5.4-3-10.2-5.6-10.7-5.7-0.4-0.2 1.2 5.7 3.7 13 2.5 7.2 4.5 13.3 4.5 13.5 0 0.1-4.1 0.2-9 0.2-8.8 0-9 0-8.5 2.3 0.3 1.2 2.3 9.2 4.3 17.7 3.7 15.2 3.8 15.5 1.8 15.8-1.2 0.1-9.2-0.3-33.6-2.3v21.5l13-4.5c7.1-2.5 12.7-3.9 12.3-3.2-0.4 0.6-4.9 6-10 12-5.1 5.9-9.6 10.5-10 10.3-0.5-0.2-3.8-2.2-7.5-4.5-3.8-2.2-7-4-7.2-3.8-0.2 0.1-1.6 4.5-3.1 9.7-1.5 5.2-2.8 9.7-3 10-0.2 0.3-0.9-3.4-2.5-17l-4.2-0.5c-2.4-0.3-9.2-1-15.3-1.6-6.1-0.6-11.5-1.4-12.1-1.7-0.6-0.4-3.9-2.9-7.2-5.7-4.9-4-5.8-5.1-4.4-5.6 0.9-0.4 5.8-1 10.7-1.4 5-0.4 10.7-1 16.7-2l-8.4-5.5c-4.5-3-10.6-7.1-18.7-12.5l10.5-9c5.7-5 11.7-9.6 13.2-10.3 1.7-0.9 2.9-1 3.2-0.4 0.3 0.5 1.1 5.6 1.8 11.3 0.7 5.7 1.5 10.6 1.7 10.9 0.3 0.3 6.4-2.9 13.7-7 12.5-7.1 13.3-7.7 13.6-10.8 0.1-2.5-0.2-3.2-1.5-3.3-1 0-7.5-0.5-14.4-1.2-7-0.7-13-1.5-13.3-1.9-0.3-0.5 1.2-4.4 3.4-8.8 2.2-4.4 3.9-8.2 3.8-8.4-0.2-0.2-6.8 2.2-29.3 11.1l-1 12.8-0.9-5c-0.4-2.7-1-5.6-1.2-6.2-0.2-0.7 0.3-1.3 1.1-1.3 1.2 0 1.5-1.5 1.5-7.5 0-6-0.3-7.5-1.5-7.5-0.8 0-7.7-6.9-15.2-15.3-7.6-8.3-14.4-16-15-17-1.1-1.4-0.7-2.5 3.1-7.4 3.8-5.1 4.5-6.8 5.7-14.5 0.8-4.8 1.2-8.8 0.9-8.8-0.3 0-5 3.1-10.5 7-5.5 3.9-10.8 7.1-11.7 7-1 0-1.8 0.7-1.8 1.5 0 0.8-0.7 1.5-1.5 1.5-0.8 0-1.5-0.5-1.5-1 0-0.5 0.7-1.2 1.5-1.5 0.8-0.3 1.5-1.2 1.5-2 0-1-0.6-1.3-1.7-1-1.5 0.4-3.3-2.9-18.8-39l-0.2 26.8c-0.3 22.7-0.5 26.8-1.8 27.2-0.8 0.3-1.5 1.1-1.5 1.8 0.1 0.6-2 2-4.5 3-2.5 0.9-4.5 2.2-4.5 2.7 0 0.5-0.8 1-1.7 1-1 0-3.4-2.4-5.5-5.3-2-2.8-5.3-7.4-10.9-15.2l12-24c6.6-13.2 12-23.4 12-22.7 0.1 0.6 0.8 1.2 1.6 1.2 0.8 0 1.5-0.7 1.5-1.5 0-0.8-0.7-1.6-1.6-1.7-0.9-0.2-6.6-9.5-13.7-22.5-6.7-12.2-12.6-22.5-13.1-23-0.4-0.4 1.5 3.8 4.3 9.5 2.8 5.6 5.1 10.7 5.1 11.2 0 0.5-4.5 2.9-10 5.3-5.5 2.3-10 4.3-10 4.5 0 0.1 5.9 3.3 13 7.2 7.1 3.9 13 7.5 13 8 0 0.5-5.7 10.3-12.7 21.8-7 11.4-14.3 23.4-20 32.7l-16.9-20.5c-9.3-11.2-22.9-27.7-30.2-36.5-7.4-8.8-14.7-18.6-16.3-21.8-1.6-3.1-2.3-5.4-1.6-5 0.6 0.3 2.4 1.5 4 2.5 1.5 1 2.9 1.7 3.1 1.5 0.3-0.1-0.1-14.2-0.9-31.2-0.8-17-1.5-32.1-1.6-33.5-0.1-1.4-0.5 0.2-0.9 3.5-0.4 3.3-1.8 16.9-3.1 30.2-1.3 13.3-2.7 23.7-3 23-0.3-0.7-6.2-18.7-13-40.1-6.8-21.5-12.5-38.3-12.7-37.5-0.1 0.8 1.5 16 3.7 33.9 2.2 17.9 3.9 32.6 3.8 32.8-0.1 0.1-2.7-3-11.5-14.3l-2.7-46.5c-1.6-25.6-3.1-46.8-3.4-47.2-0.3-0.4-4.4 12.9-9 29.5-4.6 16.6-8.6 30.5-9 30.9-0.3 0.4-1.7-4.3-3-10.5-1.3-6.1-2.8-11.7-3.2-12.2-0.4-0.6-1 0.4-1.3 2.3-0.3 1.7-0.9 3.4-1.3 3.6-0.5 0.2-4.2-15-15.8-68.3l48.5-47.6 3.6-17c2-9.4 4.1-17.3 4.8-17.7 0.6-0.3 0.8-1.3 0.4-2.2-0.5-0.9 0.5-7.7 2.2-15.3 1.6-7.6 3.2-14.8 3.5-16 0.3-1.5 1.2-2.3 2.5-2.3 1.1 0 2-0.7 2-1.5 0-0.8-0.9-1.5-2-1.5-1.3 0-5.5 3.9-11.7 11-5.4 6-9.9 10.9-10.1 10.7-0.1-0.1 0.8-3 2-6.5 1.7-4.4 2.8-6.2 4.1-6.2 0.9 0 1.7-0.7 1.7-1.5 0-0.8-0.6-1.5-1.2-1.5-0.7 0 9.7-11 23.1-24.5 16.1-16.2 23.7-24.5 22.5-24.5-1.1 0-10-0.7-19.9-1.5-9.9-0.7-18.1-1.3-18.1-1.2-0.1 0.1-3.4 6.6-7.3 14.5-3.9 7.8-7.1 14.6-7.1 15.2 0 0.6 1.7 1 7.5 1.1l-7 6.3c-5.2 4.7-7.5 6.2-8.9 5.7-1.5-0.5-1.8-0.2-1.5 1.6 0.3 1.8-1.7 4.2-10.1 11.7-5.8 5.2-10.6 9.4-10.7 9.3-0.1-0.1 1.8-8.5 4.2-18.7 2.4-10.2 4.3-18.6 4.2-18.8-0.1-0.2-4.1 0.9-9 2.5-6.6 2.1-8.7 3.2-8.7 4.6 0 0.9-0.7 1.7-1.5 1.7-0.8 0-1.6-0.5-1.7-1-0.2-0.6-4 0.5-8.5 2.5-4.6 1.9-8.5 3.4-8.8 3.3-0.3-0.2 1.5-7 3.9-15.3 3.5-11.4 6.6-19 13.2-32 4.8-9.4 9.4-17.5 10.3-18.2 0.9-0.7 4.3-1.5 7.6-1.8 3.3-0.3 7.5-0.9 12.8-2l-6.2 10.5c-3.3 5.8-5.8 10.6-5.4 10.7 0.5 0.1 6-0.4 23.8-2.4l-15.5-0.3 9.3-12.1c9-11.8 9.5-12.3 18.7-17.4 5.2-2.8 12.5-6.8 16.3-8.8 3.7-2.1 6.6-3.9 6.5-4.1-0.2-0.3-4.6-1-9.8-1.6-5.2-0.7-9.1-1.5-8.5-2 0.6-0.4 10.4-4.5 43-17.5l-36-0.5-7.5 4.1c-4.1 2.3-14 8-22 12.7-8 4.7-17.4 10.3-21 12.4-3.6 2.1-6.6 3.7-6.7 3.5-0.2-0.1 0.4-3.3 1.2-7.2 0.8-3.9 1.6-7 1.7-7.1 0.2 0 11.1-4.5 24.3-9.9 13.2-5.3 27.9-11.4 32.7-13.4 4.8-2 8.5-3.9 8.2-4.3-0.2-0.5-5.5-3.3-22.9-11.9l6-5.8 19 1.4c10.4 0.8 19.1 1.3 19.3 1 0.1-0.3-3.2-3.2-7.3-6.5-4.1-3.3-8.1-6-8.7-6-0.7 0-6-1.6-11.8-3.4-5.8-1.9-9.8-3.5-9-3.5 0.8-0.1 7.8 0.6 15.5 1.4 7.7 0.8 17.6 1.9 22 2.4 4.4 0.5 8.1 0.9 8.3 0.8 0.2-0.1-1-1.3-2.6-2.7-1.6-1.4-13-10.2-47.7-36.8l-4.5-11.6c-2.5-6.4-4.3-11.8-4-12 0.3-0.2 10.6 0.9 23 2.5 12.4 1.6 22.9 2.8 23.3 2.6 0.5-0.1-8.7-4.7-20.5-10.1-11.7-5.4-21.7-10.3-22.3-10.8-0.6-0.5 0.6-5.3 3.4-13.6 2.4-7 4.6-12.8 4.8-12.9 0.1-0.2 6.5 2.6 14.1 6.1 7.5 3.5 17.3 8 21.7 10 4.4 2.1 7.6 3.3 7 2.8-0.6-0.5-5.9-4-12-7.8-6.1-3.8-12.6-7.9-18-11.5l16.3 0.1c8.9 0 16.2-0.2 16.2-0.5 0-0.3-3.8-6.9-8.5-14.7-4.7-7.9-8.4-14.4-8.3-14.5 0.2-0.1 3.7 1.9 7.8 4.4 4.1 2.5 13.6 8.1 21 12.6 7.4 4.4 13.9 8.2 14.5 8.5 0.6 0.3 0.1-0.6-1.1-1.9-1.1-1.3-6.4-7.9-11.7-14.6-5.3-6.8-9.7-12.5-9.7-12.8 0-0.3 0.8-0.7 1.8-1 0.9-0.3 12.2-3 25-6 12.7-3 23.4-5.5 23.7-5.5 0.3 0 5.6 4.5 11.8 9.9 6.1 5.5 11.3 9.7 11.5 9.3 0.2-0.4-1.3-4.4-3.3-8.9-1.9-4.6-3.4-8.5-3.2-8.8 0.1-0.2 5.9 3.4 25.7 16.5l10.3-7.2c5.6-3.9 13.1-9.4 16.7-12zm381.9 285.1c0.8 0.8 6.2 7.5 22.7 28.5l-0.6 7c-0.3 3.8-1 15.1-1.6 25-0.5 9.9-1.1 18.1-1.2 18.3-0.1 0.1-3.4-3.7-7.4-8.5-3.9-4.9-7.9-10.9-8.8-13.3-1-3.1-2-12.4-3-29-0.8-13.5-1.5-25.7-1.5-27 0-2.2 0.1-2.4 1.4-1zm89.8 78.2c0.5 0.1 3.3 3.9 6.2 8.3 3 4.4 5.1 8.1 4.7 8.2-0.3 0.1-4.2 0.9-8.6 1.6-4.4 0.8-8.1 1.4-8.3 1.3-0.1-0.1 1-4.5 2.5-9.9 1.5-5.4 3.1-9.7 3.5-9.5zm69.9 23c0.5 1 1.3 5.5 1.9 10 0.5 4.6 1 12.5 1.1 27.3l2.9-9.5c1.9-6.2 3-11.7 3-15.8 0-4.9 0.3-6.2 1.5-6.2 1.3 0 1.5 2.6 1.2 18.7-0.3 17.3-0.6 19.5-3.3 28.5-1.6 5.4-3.4 10.1-4 10.5-0.6 0.4-1.5 1.9-1.9 3.3-0.5 1.3-1.7 3.4-2.7 4.5-1.4 1.5-2.5 1.8-4.6 1.3-1.5-0.4-3.6-0.5-4.7-0.3-1.1 0.3-2.9 2.3-4 4.5-1.1 2.2-2.3 4-2.7 4-0.5 0-1.5-0.3-2.3-0.5-1.2-0.4-1.3-1.2-0.6-3.8 0.5-1.8 1.5-5.3 2.1-7.7 0.6-2.5 0.8-4.8 0.5-5-0.3-0.3-2.7 0-5.3 0.8-3.8 1-4.8 1-5.4 0-0.4-0.8-2.4-1.8-4.5-2.4-3.7-0.9-3.8-1.2-4-5.7-0.3-4.5 0-5 5.2-10.5 4.3-4.5 7.2-9.1 20.8-36.7l1.3 4c0.7 2.2 1.3 5.4 1.3 7.2 0.1 2.4 0.6 3.3 1.9 3.3 1.5 0 1.9-1.8 3.1-12.8 0.9-8.7 1.6-12.2 2.2-11zm-90.3 20.8c2-0.1 6 0.7 13.7 3.2l-4.5 2.9c-2.5 1.6-5.8 2.9-7.5 2.9-2.6 0-3.2-0.5-4.2-3.8-0.7-2-1.3-4.1-1.3-4.5 0-0.4 1.7-0.7 3.8-0.7zm-612 201.1c0.9 0.6 2.5 2.1 3.5 3.5 1.7 2.3 1.7 2.4-0.8 2.4-1.9 0-2.7-0.8-3.5-3.3-0.6-1.8-1-3.4-1-3.5 0-0.1 0.8 0.2 1.8 0.9zm6 6l15.9 11.4c8.7 6.3 15.9 11.8 16.1 12.2 0.1 0.4-2.9 3.4-13.8 12.3l-4.9-9.8c-3.1-6.3-6.3-11-9-13.5-3.6-3.3-4.1-4.3-4.2-8.2z"/>
		<path id="Path 1" fill-rule="evenodd" class="s1" d="m522.7 29.1c1 0.9 6.5 5.8 12.3 10.8 5.8 5 11.1 9.1 11.7 9.1 0.7 0 1.3 0.7 1.3 1.5 0 0.8 0.7 1.5 1.5 1.5 0.8 0 1.5-0.7 1.5-1.5 0-0.8-0.7-1.5-1.5-1.5-1.2 0-1.5-1.4-1.5-12.5l30.5 30.4 8.5-7c4.7-3.9 8.7-7.3 9-7.4 0.3-0.2 1.8 7.5 3.5 17 1.6 9.6 3.1 17.3 3.3 17.2 0.1-0.1 1.3-7.9 2.7-17.2 1.3-9.4 2.7-18.6 3.6-24l36.1 36-0.6-11c-0.3-6-0.9-18-1.8-42l15.9 26c8.8 14.3 21.6 35.2 41 67l24.8 3.2 9-4.5c5.2-2.6 9.1-4 9.2-3.3 0.2 0.6 1 1.1 1.8 1.1 0.8 0 1.5-0.8 1.5-1.8 0-0.9 2.6-9.6 5.9-19.2 5.3-15.8 5.9-17.2 6.5-14 0.3 1.9 2.9 18.8 5.6 37.5 2.7 18.7 5.2 35.5 5.5 37.3 0.4 2.7 0.9 3.2 3.2 3.2 2.7 0.1 3-0.5 7.2-12.7 2.4-7 4.8-13.2 5.3-13.8 0.5-0.6 0.8 8.7 0.8 21.8 0 22-0.1 22.7-2 22.7-1.1 0-2 0.7-2 1.5 0 0.8 0.7 1.5 1.5 1.5 0.8 0 1.5 0.6 1.5 1.3 0 0.6-0.7 8.4-1.5 17.2-0.8 8.8-1.5 16.4-1.5 17 0 0.6-4.4-3.4-9.7-8.7-5.4-5.3-14.3-13.5-29.8-26.7l-11-2.7c-6.1-1.4-11.6-2.8-12.3-3-0.6-0.2-1.2 0.3-1.2 1.1 0 0.8-0.7 1.7-1.5 2-0.8 0.3-1.5 0.9-1.5 1.5 0 0.6 0.7 1 1.5 1 0.8 0 1.6-0.5 1.7-1.1 0.2-0.6 7 9 15.2 21.2 8.2 12.3 14.4 22.5 13.7 22.7-0.6 0.1-1.1 0.9-1.1 1.7 0 0.8 0.7 1.5 1.5 1.5 0.8 0 1.6-0.4 1.7-0.9 0.2-0.5 4.8 5.5 10.3 13.4 5.5 7.9 10.2 14.2 10.5 14 0.3-0.1 1.5-3 2.7-6.4 1.9-4.9 2.6-6 3.9-5.3 0.9 0.4 3.9 4.3 6.7 8.7 2.8 4.4 10 15.6 16 25 6 9.4 21.3 33.2 34 53 12.6 19.8 23.2 36.4 23.4 37 0.2 0.6-2.5 1.6-5.9 2.2-3.5 0.7-11.4 2.1-29.1 4.8l-6.1 7.5c-3.6 4.4-6 8.3-5.9 9.5q0.2 2.1-0.3 0.3c-0.2-1-1.1-1.8-1.9-1.8-0.8 0-1.5 0.8-1.5 1.8 0.1 0.9-5.3 8.3-12 16.5-9.4 11.5-12 15.3-12 17.7 0 2.3 0.4 3 2 3 1.1 0 8.9-3.8 17.2-8.4 8.4-4.6 18.9-10.5 23.3-13 4.4-2.5 8.6-4.6 9.2-4.6 0.7 0 3.9 1.6 7 3.6 3.2 2.1 11.5 7.2 18.5 11.5 7.1 4.4 13.1 7.9 13.5 7.9 0.5 0 2.7-5.8 5-13 2.4-7.1 4.5-13 4.8-13 0.3 0 4.4 6.6 9.2 14.8 4.8 8.1 9.5 16.7 10.4 19.2 1.6 4.1 1.6 5.4 0.4 15-0.8 5.8-1.5 11.3-1.5 12.3 0 0.9-0.7 1.7-1.5 1.7-0.8 0-1.7 0.8-1.9 1.8-0.2 0.9-0.5 0.1-0.6-1.8-0.1-1.9-0.7-5.3-2.6-11.5l-7.2 14c-3.9 7.7-7.2 13.8-7.2 13.5-0.1-0.3-0.9-11.5-3.5-49.5l-3.3 9.3c-2.1 6-3.6 9-4.5 8.8-0.6-0.3-8.9-2.1-18.2-4.1-9.4-2-17.9-3.9-19-4.4-1.5-0.6 0.2-1.1 6-2 4.4-0.7 8.1-1.3 8.1-1.4 0.1-0.1-2.2-3.8-5.2-8.2-2.9-4.4-5.7-8.1-6.1-8.3-0.5-0.1-2.1 4.2-3.6 9.5-1.6 5.4-3.5 11.3-4.3 13.1-0.8 1.7-2.1 3.2-2.9 3.2-0.8 0-1.5 0.7-1.5 1.5 0 0.8 0.5 1.6 1 1.8 0.6 0.1 0 3-1.5 6.7-1.4 3.6-2.4 6.9-2.1 7.5 0.2 0.6-1.6 0.9-4.8 0.6-5-0.4-5.1-0.3-4.4 2 0.4 1.3 1.1 3.5 1.6 4.9 0.5 1.4 12.4 15.6 26.3 31.5 20 22.9 25.8 28.9 27.4 28.6 1.6-0.3 1.9 0 1.3 1.5-0.5 1.4 0.7 3.4 9.2 13.4v55l-7 4.7c-3.9 2.7-14.6 10-24 16.3-9.3 6.3-16.9 11.8-17 12.2 0 0.5 6.6 12.6 14.6 27 8.1 14.5 17.4 31.2 20.8 37.2 5 8.9 5.8 11 4.6 11.6-0.8 0.4-6.9 1.3-13.5 1.9-6.6 0.7-23.9 1.8-38.5 2.6-14.6 0.9-26.6 1.4-26.7 1.3-0.1-0.2 4.5-3.2 10.3-6.8 5.7-3.6 10.1-6.6 9.7-6.8-0.5-0.1-12.7 2.2-27.3 5.3-14.6 3-26.6 5.3-26.8 5.2-0.1-0.1 4.1-7 9.4-15.2 5.3-8.3 10.1-15.6 10.7-16.3 0.9-1.1 1.7-1.1 3.4-0.3 1.3 0.6 2.5 1 2.8 0.8 0.3-0.1 1.2-3.1 1.9-6.7 0.8-3.6 1.4-6.6 1.3-6.7-0.1-0.2-8.3 1.1-36.2 5.7l-3-3.7c-1.7-2.1-5.6-6.7-8.7-10.3-3.1-3.6-5.6-6.6-5.5-6.8 0.1-0.2 3.3 0.2 14.2 2.1l10.2-5.9c5.7-3.3 9.9-6.2 9.5-6.6-0.4-0.3-7.2-4.1-15.2-8.3-8-4.3-17.7-9.5-28.5-15.5l-7.9 22.3c-4.3 12.2-8.6 23.9-9.5 26-1.4 3.3-3.3 4.8-15.1 11.6-7.4 4.3-16.8 9.7-20.8 12-3.9 2.2-6.9 3.5-6.5 2.8 0.4-0.6 3-4.1 5.7-7.6 4.6-5.7 6.2-9.4 26.4-63.6l-2.7-10.8c-2.1-8.5-3-10.7-4.4-10.7-0.9 0-1.7-0.7-1.7-1.5 0-0.8 0.6-1.6 1.4-1.8 0.9-0.1-2.1-6.6-19.9-39.4l-31.3-14.9c-17.1-8.2-31.2-15.1-31.2-15.4 0-0.3 5.2-1.1 23-3l-21-42h-5.3c-5 0.1-5.7 0.4-16.2 8.5-6 4.6-11.1 8.2-11.3 7.9-0.1-0.2 2.3-5.3 5.3-11.4 4.8-9.5 5.3-11.1 3.7-11.4-0.9-0.3-14.7-3.7-30.7-7.6-16-3.9-43-10.5-60-14.7-17.1-4.2-39.6-9.7-50-12.4-14.8-3.7-18-4.7-14.5-4.8 2.5-0.1 14.8 0.3 27.5 0.9 12.6 0.5 29.3 1.1 37 1.4 7.7 0.3 16.7 1 20 1.5 3.3 0.6 7.6 1.2 9.6 1.3 2.8 0.2 3.5 0.7 3.2 2-0.2 1.1 0.3 1.8 1.2 1.8 0.8 0 1.5-0.7 1.5-1.5 0-1 0.7-1.4 2.2-1.1 1.3 0.3 6.1 1 10.8 1.6 6.8 0.9 9.7 0.9 14.3-0.2 4.3-1 5.7-1.7 5.7-3.1 0-0.9 0.7-1.7 1.5-1.7 0.8 0 1.5 0.4 1.5 1 0 0.6 3.4 5.2 7.5 10.2 5.3 6.5 7.1 9.4 6 9.5-0.8 0.2-1.5 1-1.5 1.8 0 0.8-0.5 1.5-1 1.5-0.5 0-1 0.7-1 1.5 0 0.8 0.5 1.5 1 1.5 0.5 0 1-0.7 1-1.5 0-0.8 0.9-1.5 2-1.5 1.2 0 2-0.7 2-1.8 0-1 2.7-3.3 7-6 3.9-2.3 7.2-4.1 7.4-4 0.2 0.2-0.3 5-2.7 21.3l2.9 4.4c1.9 2.8 3 3.8 3.1 2.7 0.2-0.9 1-1.6 1.8-1.6 0.8 0 1.5 0.7 1.5 1.5 0 1 1 1.5 3.2 1.5 2 0 5.2-1.2 12.3-5.9l-3-1.1c-1.7-0.6-3.9-1.3-5-1.5-1.1-0.3-2.7-1.2-3.5-2-0.8-0.9-2.1-1.6-2.8-1.5-0.6 0-1.2-0.7-1.2-1.5 0-0.8-0.7-1.5-1.5-1.5-0.8 0-1.5-0.7-1.5-1.5 0-0.8 0.7-1.5 1.5-1.5 0.8 0 1.5-0.7 1.5-1.5 0-0.8 0.7-1.5 1.5-1.5 0.8 0 1.5 0.7 1.5 1.5 0 0.8-0.7 1.5-1.5 1.5-0.8 0-1.5 0.7-1.5 1.5 0 0.8 0.7 1.5 1.5 1.5 0.8 0 1.5 0.7 1.5 1.5 0 0.8 0.7 1.5 1.5 1.5q1.5 0 1.5-3c0-2.6 0.3-2.9 2.2-2.6 1.3 0.2 3.2 0.7 4.3 1.1 1.9 0.8 1.9 0.7 0.4-1.1-0.9-1-2.2-3.6-2.8-5.7-0.8-2.7-1.7-3.7-3.1-3.7q-2 0-2-2c0-1.3 0.4-1.7 1.2-1.3 0.8 0.6 1 0.2 0.5-1.2-0.6-1.7 0.2-2.4 5-4.8 3.2-1.5 5.9-2.6 6-2.5 0.2 0.2 0.9 2.1 3.2 8.3l0.1-4.3c0-3.1-0.4-4.2-1.5-4.2-0.8 0-1.5-0.7-1.5-1.5 0-0.8 0.7-1.5 1.5-1.5 0.8 0 2-1 2.6-2.3 0.7-1.2 2.8-4.7 8.2-13.2l2.6 13.6c1.4 7.5 2.8 13.9 3.1 14.3 0.3 0.3 3.7-10.4 7.7-23.7 3.9-13.3 7-24.4 6.7-24.7-0.3-0.3-6.2 0.7-13.2 2.2-7 1.5-24.9 5.2-39.7 8.3-14.9 3-27.4 5.4-27.9 5.3-0.5-0.2 2.2-1.5 6-3 3.8-1.5 14.8-5.7 24.4-9.4 16.4-6.3 17.7-6.6 21-5.5 3.3 1.2 4.6 0.8 23-6.3 14.7-5.6 19.6-7.1 19.7-6 0.2 0.8 1 1.4 1.8 1.4 0.8 0 1.5-0.7 1.5-1.5 0-0.8-0.6-1.7-1.3-2-0.6-0.2 0-0.2 1.5 0 2 0.4 2.8 0.1 2.8-1 0-0.9 0.9-1.5 2.5-1.5 2.1 0 2.3 0.3 1.6 1.7-0.5 1-4.3 6.3-8.5 11.8-4.2 5.5-7.6 10.2-7.6 10.5 0 0.3 7.1 1.6 15.7 2.9 8.7 1.2 19.6 2.9 24.3 3.7 4.7 0.7 14.3 2.2 21.5 3.4 7.1 1.1 13.8 2 14.7 2 1.3 0 0.4-1.6-3.5-5.9-3.3-3.8-6-6-7.5-6-1.5-0.1-2-0.6-1.7-1.6 0.3-0.9-3.2-5.6-9.3-12.2-5.3-5.8-11.3-12.4-16.8-18.8l7.5 1.8c4.2 1 12.1 2.9 27.6 6.9l6.4 19.6c3.5 10.9 6.9 21.1 7.5 22.7 1.2 2.8 1.4 2.1 2.6-9 0.7-6.6 1.6-12.6 1.9-13.3 0.4-0.8 3.1 1.9 7.3 7.3 3.8 4.7 7 8.4 7.3 8.2 0.2-0.1 1.1-11.5 1.9-25.2 0.8-13.8 1.2-25.4 0.8-26-0.3-0.6-5.6-7.2-11.7-14.8-6-7.6-11.1-13.6-11.3-13.5-0.2 0.2 0.2 9.5 0.8 20.8 0.6 11.3 1.3 22.5 2 29.5l-21.8-22 6-27-16.3-16.3c-9-8.9-16.5-15.8-16.7-15.2-0.1 0.5-0.9 1-1.7 1-0.8 0-1.5-0.7-1.5-1.5 0-0.8 0.6-1.5 1.2-1.5 0.9 0.1 0.9-0.4-0.2-1.5-0.8-0.9-2.1-1.6-2.8-1.5-0.6 0-1.2-0.3-1.2-0.8 0-0.4-7.2-6.3-16-13.2-8.8-6.9-15.9-12.6-15.8-12.7 0.2-0.1 13 3.6 28.5 8.2 15.6 4.7 28.8 8.5 29.3 8.5 0.5 0-0.2-3-1.8-6.7-1.7-4.1-3.4-6.8-4.5-7-0.9-0.1-1.7-1-1.7-1.8 0-0.8 0.7-1.5 1.5-1.5 0.8 0 1.6 0.5 1.7 1.1 0.2 0.8 3.6 0.7 24-1.6l-3.9-5c-2.2-2.8-13.7-17.7-25.6-33.3-20-26-22-28.2-25-28.5-3.1-0.2-3.4-0.7-11.8-17.7-4.8-9.6-9.1-17.6-9.5-17.8-0.5-0.2-4.7 0.8-9.4 2.3-4.7 1.5-8.6 2.5-8.7 2.3-0.1-0.2 0.5-4.8 1.3-10.3 0.7-5.5 1.4-10.8 1.4-11.8 0-1.1-8.8-8.6-23.8-20.5-13-10.3-25.7-20.3-28.1-22.2-2.4-1.9-4.8-4.5-5.2-5.8-0.5-1.2-1.4-2.2-1.9-2.2-0.5 0-1 0.9-1 2 0 1.3-0.8 2.2-2.3 2.5-1.2 0.3-8.3 1.6-29.2 5.2l-5.7-12.1c-3.2-6.7-5.8-11.9-5.8-11.6 0 0.3-1.3 10.8-3 23.5-1.6 12.6-3.1 23.1-3.2 23.3-0.2 0.1-4.2-4.2-9.1-9.8-4.8-5.5-8.9-10-9.2-10-0.3 0-4.2 1.9-8.8 4.1-4.5 2.3-8.4 4.3-8.7 4.5-0.3 0.2 3.4 5.5 8.2 11.9 4.9 6.3 8.8 11.7 8.8 12 0 0.3-10.2-3.7-45.3-18l-16.5-19.5c-12.3-14.6-16.3-18.7-15.8-16.5 0.3 1.6 2.8 15 5.6 29.7 2.7 14.8 5 27.4 5 28 0 0.7-3.9-7.6-8.5-18.5-4.7-10.8-8.5-20.5-8.5-21.5 0-0.9-0.7-2.4-1.4-3.2-0.8-0.8-2.9-5-4.8-9.2-1.8-4.3-3.5-7.6-3.8-7.4-0.3 0.2-4.9 6.4-10.2 13.7-5.4 7.4-10.7 14.5-11.7 15.9-1.1 1.4-2.2 2.3-2.4 2-0.3-0.3-8.5-16.6-36.2-72.1l-6.5 4.9c-3.6 2.6-11.1 8.1-27 19.2l-12.8-8.5c-7-4.6-12.8-8.2-13-8-0.1 0.3 1.4 4.2 3.3 8.7 2 4.6 3.5 8.6 3.3 9-0.2 0.4-5.4-3.8-11.6-9.3-6.1-5.4-11.4-9.9-11.7-9.9-0.3 0-11 2.5-23.8 5.5-12.7 3-24 5.7-25 6-0.9 0.3-1.7 0.7-1.7 1 0 0.3 4.4 6 9.7 12.7 5.3 6.8 10.6 13.4 11.7 14.7 1.2 1.3 1.6 2.2 1.1 1.9-0.6-0.3-7.1-4.1-14.5-8.5-7.4-4.5-16.9-10.1-21-12.6-4.1-2.5-7.6-4.5-7.8-4.4-0.1 0.1 3.6 6.6 8.3 14.4 4.7 7.9 8.5 14.5 8.5 14.8 0 0.3-7.3 0.5-32.5 0.4l3.5 2.3c1.9 1.3 8.4 5.4 14.5 9.2 6 3.8 11.4 7.3 12 7.8 0.5 0.5-2.6-0.7-7-2.8-4.4-2-14.2-6.5-21.8-10-7.5-3.5-13.9-6.3-14-6.2-0.2 0.2-2.4 6-4.8 13-2.8 8.3-4 13.1-3.4 13.6 0.5 0.5 10.6 5.4 22.3 10.8 11.8 5.4 21 10 20.5 10.1-0.4 0.2-10.9-1-23.3-2.6-12.4-1.6-22.7-2.7-23-2.5-0.3 0.2 1.5 5.6 8.5 23.6l22.4 17.2c12.3 9.4 23.7 18.2 25.3 19.6 1.6 1.4 2.8 2.6 2.6 2.7-0.2 0.1-3.9-0.3-8.3-0.8-4.4-0.5-14.3-1.6-22-2.4-7.7-0.8-14.7-1.5-15.5-1.4-0.8 0 3.2 1.6 9 3.5 5.8 1.8 11.1 3.4 11.7 3.4 0.7 0 4.7 2.7 8.8 6 4.1 3.3 7.4 6.2 7.2 6.5-0.1 0.3-8.8-0.2-38.2-2.4l-6 5.8 11.2 5.5c6.2 3.1 11.5 5.9 11.7 6.3 0.3 0.5-3.4 2.4-8.2 4.4-4.8 2-19.5 8.1-32.7 13.5-14.8 6-24.1 9.3-24.3 8.6-0.1-0.7-0.9-1.2-1.7-1.2-0.8 0-1.5 0.4-1.5 1 0 0.5 0.7 1 1.5 1 1 0 1.3 0.7 1 2.2-0.3 1.3-0.9 4.5-1.5 7.3-0.6 2.7-0.9 5.1-0.8 5.2 0.2 0.2 3.2-1.4 6.8-3.5 3.6-2.1 13-7.7 21-12.4 8-4.7 18-10.4 22.2-12.7 5.1-2.7 7.6-3.6 7.3-2.6q-0.5 1.5 1.5 1.5 2 0 1.5-1.5c-0.4-1.3 1.8-1.5 16-1.5 9.1 0 16.5 0.2 16.5 0.5 0 0.3-9.3 4.2-20.8 8.6-11.4 4.5-21.2 8.5-21.7 8.9-0.6 0.5 3.3 1.3 8.5 2 5.2 0.6 9.6 1.3 9.7 1.6 0.2 0.2-2.7 2-6.5 4.1-3.7 2-11 6-16.2 8.8-9.2 5.1-9.7 5.6-28 29.5l15.5 0.3-11.5 1.3c-6.3 0.7-11.8 1.2-12.3 1.1-0.4-0.1 2.1-4.9 11.6-21.2l-3.4 0.7c-1.9 0.4-6.1 1-9.4 1.3-3.3 0.3-6.7 1.1-7.6 1.8-0.9 0.7-5.5 8.8-10.3 18.2-6.6 13-9.7 20.6-13.2 32-2.4 8.2-4.2 15.1-3.9 15.2 0.3 0.2 4.2-1.3 8.7-3.2 4.6-2 8.4-3.1 8.5-2.5 0.2 0.5 1 1 1.8 1 0.8 0 1.5-0.8 1.5-1.8 0-1.3 2.1-2.4 8.7-4.5 4.9-1.6 8.9-2.7 9-2.5 0.1 0.2-1.8 8.6-4.2 18.8-2.4 10.2-4.3 18.6-4.2 18.7 0.1 0.1 4.9-4.1 10.7-9.3 8.4-7.5 10.4-9.9 10.1-11.7-0.3-1.8 0-2.1 1.5-1.6 1.4 0.5 3.7-1 15.9-12l-3.8-0.1c-2 0-3.7-0.5-3.7-1 0-0.6 3.2-7.4 7.1-15.3 3.9-7.8 7.2-14.3 7.3-14.4 0-0.1 8.2 0.5 18.1 1.2 9.9 0.8 18.9 1.5 19.9 1.5q1.9 0-22.5 24.5c-13.4 13.5-23.8 24.5-23.2 24.5 0.7 0 1.3 0.7 1.3 1.5 0 0.8-0.8 1.5-1.8 1.5-1.2 0-2.3 1.8-4 6.2-1.2 3.5-2.1 6.4-2 6.5 0.2 0.2 4.8-4.7 10.3-10.8 7-7.7 10.2-10.6 10.7-9.7 0.7 1 1 1 1.8-0.2 0.8-1.3 1-1.2 1 0.2 0 1.1-0.8 1.8-2 1.8-1.3 0-2.2 0.8-2.5 2.2-0.3 1.3-1.9 8.5-3.5 16-1.7 7.7-2.7 14.5-2.3 15.4 0.5 0.9 0.3 1.9-0.3 2.2-0.7 0.4-2.8 8.3-8.4 34.7l-48.5 47.6 7.5 34.4c4.1 18.9 7.8 34.1 8.2 33.9 0.5-0.2 1.1-1.9 1.4-3.7 0.3-1.8 0.9-2.8 1.3-2.2 0.4 0.5 1.9 6.1 3.2 12.2 1.3 6.2 2.7 10.9 3 10.5 0.4-0.4 4.4-14.3 9-30.9 4.6-16.6 8.7-29.9 9-29.5 0.3 0.4 1.8 21.6 6.1 93.7l5.7 7.3c3.1 4 5.7 7.1 5.8 7 0.1-0.2-1.6-14.9-3.8-32.8-2.2-17.9-3.8-33.1-3.7-33.9 0.2-0.8 5.9 16 12.7 37.5 6.8 21.4 12.7 39.4 13 40.1 0.3 0.7 1.7-9.7 3-23 1.3-13.3 2.7-26.9 3.1-30.2 0.4-3.3 0.8-4.9 0.9-3.5 0.1 1.4 0.8 16.5 1.6 33.5 0.8 17 1.2 31.1 0.9 31.2-0.2 0.2-1.6-0.5-3.2-1.5-1.5-1-3.3-2.2-4-2.5-0.6-0.4 0.1 1.9 1.7 5 1.6 3.2 8.9 13 16.3 21.8 7.3 8.8 20.9 25.3 47.1 57l3.6-6c2.1-3.3 9.4-15.3 16.4-26.8 7-11.4 12.7-21.2 12.7-21.7 0-0.5-5.9-4.2-13-8-7.1-3.9-13-7.1-13-7.3 0-0.1 4.5-2.1 10-4.5 5.5-2.3 10-4.7 10-5.2 0-0.5-2.3-5.6-5.1-11.3-2.8-5.6-4.7-9.8-4.3-9.4 0.5 0.5 6.4 10.8 13.1 23 7.1 13 12.8 22.3 13.7 22.4 0.9 0.2 1.6 1 1.6 1.8 0 0.8-0.7 1.5-1.5 1.5-0.8 0-1.5-0.6-1.6-1.3 0-0.6-5.4 9.5-12 22.5-6.7 13.5-11.6 24.3-11.2 25 0.4 0.7 3.5 5.2 7 10 3.5 4.9 6.2 9 6 9.2-0.1 0.2-8.1 0.5-17.7 0.6-9.6 0.2-18.3 0.2-19.3 0.1-0.9 0-1.7-0.8-1.7-1.6 0-0.8-1.7-2.8-3.8-4.3-2-1.6-10.6-8.1-19-14.5-8.3-6.4-15.2-12.2-15.2-12.7 0-0.5 2.9-3.4 6.5-6.3 3.6-2.8 6.4-5.5 6.3-5.9-0.2-0.4-7.4-5.9-31.8-23.8l-0.5 8.4-5.5-8.4 5.1-0.5-3.3-3.3c-1.8-1.8-3.8-3.3-4.3-3.3-0.6 0.1-0.7 2.2-0.3 5.8 0.4 3.2 1.1 9.6 2.3 22.7l-4.5-2.9c-2.5-1.6-7.7-4.8-11.5-7.3-3.9-2.4-9.2-5.9-16.8-10.7l6.4-0.5c5.7-0.4 6-0.6 2.9-1.2-1.9-0.4-5.5-1-8-1.3-2.5-0.3-5.3-1.3-6.2-2.3-1.5-1.5-1.5-2.3-0.3-8.2 0.8-3.6 1.4-7.1 1.5-7.8 0-0.6-0.7-1.2-1.5-1.2-0.8 0-1.5-0.5-1.5-1 0-0.5 0.7-1 1.5-1 0.8 0 1.6 0.6 1.8 1.2 0.2 0.9 1.9 0.2 5-2 2.6-1.7 5.1-3.2 5.7-3.2 0.5 0 1-0.7 1-1.5 0-1-0.6-1.3-1.8-1-1.3 0.4-2.3-0.9-4.5-6-2.2-5.2-2.4-6.5-1.2-6.5 0.8 0 1.5-0.7 1.5-1.5 0-0.8-0.7-1.5-1.5-1.5-0.8 0-1.5 0.6-1.5 1.2 0 0.7-1.3-0.7-5.8-7.7l-0.6 3c-0.3 1.6-1.5 8.9-2.7 16-1.2 7.1-2.5 13.7-2.9 14.5-0.4 0.9-2.2-3.7-4.6-12.3-2.1-7.5-4.1-13.7-4.4-13.7-0.3 0-1.7 4.5-3.3 10-2.6 9.7-2.8 10-5 8.9-1.2-0.7-4.8-2.8-8-4.8-5.2-3.3-6-4.2-11.4-17.6l9.2-6-6.8-0.3c-6.2-0.2-6.9-0.4-9.3-3.5-1.4-1.7-4.8-6.8-7.4-11.2-2.7-4.4-6-9.8-7.3-12-2.5-4-2.5-4-1.1-15 0.7-6 1.3-14.3 1.4-18.3 0-6.5-0.4-8.1-9-26.2l3.3-129.5-6.1-9.5c-3.7-5.6-6-10.1-5.6-11 0.3-0.8 9.2-25.1 38.9-106.5l0.2-9.8c0.3-8.1 0-9.7-1.2-9.7-0.8 0-1.5-0.7-1.5-1.5 0-0.8 0.3-1.5 0.7-1.5 0.5 0 1.2 0.4 1.8 1q1 1 4.9-4.3c2.2-2.8 4.1-4.6 4.3-4 0.2 0.7 1 1.3 1.8 1.3 0.8 0 1.5-0.7 1.5-1.5 0-0.8-0.7-1.5-1.5-1.5-0.8 0-1.5-0.2-1.5-0.5 0-0.3 1.8-6.2 3.9-13.3 2.1-7 4.1-13.6 4.2-14.6 0.3-1.6-0.6-2.1-5.1-3.1-3-0.7-9.1-2.1-21.5-4.8l17.5-8.8c9.6-4.8 18.3-8.8 19.2-8.8 1-0.1 6.6-2.8 12.5-6.2 6-3.3 11-6.3 11.3-6.5 0.3-0.2-4.1-5.4-9.7-11.6-5.6-6.2-10.2-11.6-10.3-12.1 0-0.4 4.3-0.8 19.3-1.2l-35.4-12 12.3-6.1c6.8-3.4 12.9-6 13.5-5.8 0.8 0.2 1.3-0.5 1.3-1.6 0-1.1-0.5-2-1-2-0.6 0-1.3 0.7-1.8 1.6-0.6 1.3-3.1 0.4-30.3-13.1l8.8-1.2c4.8-0.7 14.6-2 21.8-2.9 7.1-0.9 13.3-1.9 13.7-2.3 0.4-0.3-1.3-3.9-8.2-15.1l4.2-2.1c2.4-1.2 12.6-6.9 22.8-12.7 10.2-5.7 28.2-16 40-22.8 11.8-6.7 22.3-12.5 23.2-12.8 1.1-0.4 5.5 1.5 11.5 4.9 5.4 3.1 9.9 5.4 10.1 5.3 0.1-0.2-0.9-3.2-2.3-6.8-1.4-3.6-2.5-6.6-2.5-6.8 0-0.1 8.1 3.8 36 17.8l11.7-4.4c6.5-2.5 19.3-7.2 28.5-10.5 9.3-3.4 17-6.1 17.3-6.1 0.3 0 3.6 5.2 7.5 11.5 3.9 6.3 7.6 11.5 8.2 11.5 0.7 0 6.9-3.2 13.8-7 6.9-3.8 12.8-7 13.2-7 0.5 0 7.1 3.8 14.8 8.5 7.7 4.7 14.4 8.5 15 8.5 0.5 0 1.5-3.3 2.1-7.3 0.6-3.9 1.3-7.8 1.7-8.5 0.6-1 4.1-0.3 16.2 3.3 8.5 2.6 22 6.6 30 9 8 2.4 14.6 4.3 14.6 4.2 0.1-0.1 2.1-6.3 9-27.2l8.7 13.2c4.8 7.3 8.9 13.3 9.2 13.3 0.3 0-0.9-4.4-2.5-9.8-1.7-5.3-3.7-12-4.6-14.7-1.4-4.8-1.4-4.9 0.3-3.4zm222.9 12.9c0.2 0 0.4 3.5 0.2 15.5l-1.6-4.5c-1.3-3.7-1.3-5-0.3-7.8 0.7-1.7 1.5-3.2 1.7-3.2zm-45.6 319.4c5.2 0 7.2 0.1 4.5 0.3-2.8 0.2-7 0.2-9.5 0-2.5-0.2-0.2-0.3 5-0.3zm199.2 45.6c0.3 0.3 3.7 7.9 7.5 17 3.9 9.1 7.5 18 8.2 19.7 0.9 2.8 0.9 3.3-0.4 3.3-0.8 0-2.2-1.5-3.1-3.3-1.1-2.2-1.2-3.5-0.5-4.2 0.7-0.7 0.6-1.3-0.3-2-0.8-0.6-3.5-7.1-6.1-14.5-2.6-7.4-5-14.2-5.3-15-0.3-0.8-0.3-1.3 0-1zm-340.9 4.1c0.4-0.1 0.7 0.1 0.7 0.4 0 0.3-1.1 2.6-2.5 5.2-1.3 2.7-2.2 5-2 5.3 0.2 0.3-5.7 1.2-13 2-7.4 0.8-13.1 1.2-12.7 0.8 0.4-0.3 7-3.6 14.7-7.1 7.7-3.6 14.3-6.6 14.7-6.6zm-293.6 9.1c0.4 1.8-0.4 3.2-7.8 10.3l3.7-6.3c3.1-5.5 3.7-6.1 4.1-4zm42.4 2.2c12.9 0 18.1 0.2 11.5 0.3-6.6 0.2-17.2 0.2-23.5 0-6.3-0.1-0.9-0.3 12-0.3zm45 2.9c0.8 0.2 6.7 1 13 1.7 7.7 0.9 10.8 1.6 9.5 2.1-1.1 0.4-6.9 1.8-13 2.9-6.1 1.2-11.6 2-12.3 1.9-0.9-0.3-0.5-1.4 1.3-3.9 1.9-2.7 2.2-3.7 1.3-4.3-0.9-0.7-0.9-0.8 0.2-0.4zm557.3 32.2c1.2 0.4 2.5 1 2.8 1.4 0.3 0.3-0.7 4.9-5 19.6l0.1-10.8c0-10.6 0-10.8 2.1-10.2zm-649.5 12.6c0.1 0 0.2 0.3 0.2 0.9 0 0.6-0.6 1.6-1.4 2.2-1.2 1.1-0.3 2.3 12.9 13.1l-6 2.7c-3.3 1.5-8.2 3.5-11 4.5-5 1.8-5 1.8-12-0.5-3.8-1.3-7.8-2.7-8.7-3.2-1.6-0.7-0.9-1.9 5.2-9.3 3.9-4.7 7.3-8.5 7.8-8.5 0.4 0 1.3 1.9 3.3 8.5l3-3c1.6-1.6 2.8-3.8 2.7-4.7-0.2-1 0.5-1.8 1.7-2.1 1.1-0.3 2.1-0.5 2.3-0.6zm559.9 0c0.1-0.1 0.1 0.2-0.1 0.6-0.2 0.5 9.9 7.3 22.6 15.3 12.7 8 23.4 14.6 23.9 14.7 0.5 0.2 0.9-0.4 0.9-1.2 0-0.8-0.7-1.5-1.5-1.5-0.8 0-1.5-0.4-1.5-1 0-0.6 0.7-1 1.5-1 1 0 1.5-1.1 1.5-3.5 0-2.4 0.5-3.5 1.5-3.5 0.8 0 1.5-0.7 1.5-1.5 0-0.8 0.4-1.5 1-1.5 0.5 0 2.5-1.6 4.4-3.5 2-1.9 3.8-3.5 4.1-3.5 0.3 0 0.5 0.4 0.5 1 0 0.6-2.7 3.7-6 7-5.8 5.8-6 6.2-5.7 10.7 0.2 4.6 0.3 4.8 4 5.8 2.1 0.5 4.1 1.6 4.5 2.3 0.6 1 1.6 1 5.4 0 2.6-0.7 5-1.1 5.3-0.8 0.3 0.3 0.1 2.5-0.5 5-0.6 2.5-1.6 6-2.1 7.7-0.8 3-0.7 3.4 1.4 3.9 1.6 0.4 2.1 1.1 1.8 2.7-0.3 1.2-2.3 4.7-8.6 13.2l-1.1-5c-0.7-2.8-1.3-6-1.3-7.3-0.1-1.2 0.4-2.2 0.9-2.2 0.6 0 1-0.7 1-1.5 0-0.8-0.4-1.5-1-1.5-0.5 0-1 0.5-1 1 0 0.5-1.9 2.4-4.2 4-2.4 1.7-4.4 2.9-4.6 2.8-0.2-0.2 0.1-2.7 0.7-5.6 0.7-3.5 1.6-5.2 2.6-5.2 0.8 0 1.5-0.7 1.5-1.5 0-0.8-0.7-1.5-1.5-1.5-0.8 0-1.6 0.4-1.7 1-0.2 0.5-9.7-7-21.3-16.6-11.5-9.7-23.6-19.7-26.7-22.3-4.7-3.7-5.4-4.7-4-5.3 0.9-0.4 1.8-0.7 1.9-0.7zm86.8 37.9c0.3 0 0.5 1.4 0.5 3 0 2.3-0.5 3.1-2.1 3.2-1.2 0.2-2.6 1.1-3 2-0.5 1-1.2 2.4-1.6 3.2-0.5 0.7-2.3 3.3-4.1 5.7-2.5 3.3-3.9 4.3-5.5 4-1.9-0.3-2.1 0-1.4 1.8 0.4 1.4 0.3 2.2-0.5 2.5-1 0.2-1.1-0.7-0.3-4 0.7-3.3 1.6-4.6 3.5-5.3 1.4-0.5 3.3-1.2 4.3-1.5 0.9-0.3 1.7-1.1 1.7-1.6 0-0.5-0.7-1-1.5-1-0.8 0-1.5-0.7-1.5-1.5 0-0.8 0.7-1.7 1.5-2 0.8-0.3 1.5-1 1.5-1.5 0-0.5-0.7-1-1.5-1-0.8 0-1.5 0.7-1.5 1.5 0 0.8-0.9 1.5-2 1.5-1.2 0-1.8-0.5-1.5-1.3 0.2-0.6 1.5-1.5 2.7-1.9 1.3-0.4 3.5-0.4 5 0 2.2 0.5 3.2 0.2 4.8-1.6 1.1-1.2 2-2.6 2-3.2 0-0.6 0.2-1 0.5-1zm-15.2 112.1c0.4 0 0.5 2.7 0.2 6.2-0.2 3.4-1 13.4-1.6 22.2-0.6 8.8-1.6 16.8-2 17.8-0.5 0.9-3.9 3.2-14.4 8.6l-9.1-10.2c-5-5.6-10.3-11.7-11.8-13.4-2.5-3.2-2.5-3.4-0.8-5.2 0.9-1 7.1-5.2 13.7-9.4 6.6-4.2 14.9-9.6 18.5-12 3.6-2.5 6.8-4.5 7.3-4.6zm-0.4 44.9c0.6 0 1.1 0.9 1.1 2 0 1.1-0.7 2-1.5 2-0.8 0-1.7 0.7-2 1.5-0.3 0.8-0.9 1.5-1.5 1.5-0.5 0-1-0.7-1-1.5 0-0.8 0.7-1.5 1.5-1.5 0.8 0 1.7-0.9 1.9-2 0.3-1.1 0.9-2 1.5-2zm-570.3 11c0.4 0 4.3 8.8 8.8 19.5 6.7 16.2 8.4 19.4 9.9 19 1.1-0.3 1.7 0 1.7 1 0 0.8 0.8 1.5 1.8 1.5 0.9 0.1 6.2-3.1 11.7-7 5.5-3.9 10.2-7 10.5-7 0.3 0-0.1 4-0.9 8.8-1.2 7.7-1.9 9.4-5.7 14.5-3.8 4.9-4.2 6-3.1 7.4 0.6 1 7.4 8.7 15 17 7.5 8.4 14.4 15.3 15.2 15.3 1.2 0 1.5 1.5 1.5 7.5 0 6-0.3 7.5-1.5 7.5-0.8 0-1.3 0.6-1.1 1.3 0.2 0.6 0.8 3.5 2.1 11.2l1-12.8 14.5-5.7c8-3.2 14.6-5.6 14.8-5.4 0.1 0.2-1.6 4-3.8 8.4-2.2 4.4-3.7 8.3-3.4 8.8 0.3 0.4 6.3 1.2 13.3 1.9 6.9 0.7 13.4 1.2 14.4 1.2 1.3 0.1 1.6 0.8 1.5 3.3-0.3 3.1-1.1 3.7-13.6 10.8-7.3 4.1-13.4 7.3-13.7 7-0.2-0.3-1-5.2-1.7-10.9-0.7-5.7-1.5-10.8-1.8-11.3-0.3-0.6-1.5-0.5-3.2 0.4-1.5 0.7-7.5 5.3-23.7 19.3l5.2 3.5c2.9 1.9 9 6 21.9 14.5l-3.9 0.6c-2.1 0.4-7.8 1-12.8 1.4-4.9 0.4-9.8 1-10.7 1.4-1.4 0.5-0.5 1.6 4.4 5.6 3.3 2.8 6.6 5.3 7.2 5.7 0.6 0.3 6.1 1.1 12.1 1.7 6.1 0.6 12.9 1.3 19.5 2.1l1.1 8.8c0.5 4.8 1.2 8.5 1.4 8.2 0.2-0.3 1.5-4.8 3-10 1.5-5.2 2.9-9.6 3.1-9.7 0.2-0.2 3.4 1.6 7.2 3.8 3.7 2.3 7 4.3 7.5 4.5 0.4 0.2 4.9-4.4 10-10.3 5.1-6 9.6-11.4 10-12 0.4-0.7-5.1 0.7-25.3 7.7v-21.5l15.8 1.3c8.6 0.7 16.6 1.1 17.8 1 2-0.3 1.9-0.6-1.8-15.8-2-8.5-4-16.5-4.3-17.7-0.5-2.3-0.3-2.3 8.5-2.3 5 0 9-0.1 9-0.2 0-0.2-2-6.3-4.5-13.5-2.5-7.3-4.1-13.2-3.7-13 0.5 0.1 5.3 2.7 10.7 5.7 5.4 3 9.1 5.6 8.2 5.8-0.9 0.1-1.7 0.9-1.7 1.7 0 0.8 0.9 1.5 2 1.5 1.1 0 2.1-0.7 2.3-1.7 0.1-1.3 3.2-2.2 14.7-4.4 8-1.6 14.6-2.7 14.7-2.6 0.2 0.1-0.4 8.3-1.2 18.2-0.8 9.9-1.5 18.5-1.5 19 0 0.5-0.5 0.3-1-0.5-0.5-0.8-2.5-6-4.5-11.5-2-5.5-3.7-10.1-3.8-10.2-0.1-0.1-4 0.4-8.7 1.3-4.7 0.8-8.6 1.6-8.7 1.7-0.1 0.1 3.9 3.6 17.8 15.2l-2.5 2.3c-1.4 1.2-2.6 2.7-2.6 3.2 0 0.5 2.8 1.4 6.3 2 3.4 0.5 10.6 1.8 25.6 4.5l0.5 6c0.3 3.3 1.1 16.1 1.7 28.5 0.6 12.4 1.4 22.8 1.7 23.1 0.4 0.3 9.9 3 21.2 5.9 11.3 2.9 22 5.7 23.8 6.2 1.8 0.4 3.2 1.4 3.2 2.3 0 0.8 0.4 1.5 0.8 1.5 0.4 0 1.2-0.5 1.8-1 0.6-0.7 1.8-0.7 5.9 0.9h-2.7c-1.8 0.1-3 0.7-3.3 1.9-0.2 0.9-1.6 8-2.9 15.7-1.4 7.7-2.3 14.1-2.1 14.3 0.3 0.1 3.5-1.7 7.3-3.9 3.7-2.3 6.8-4.2 6.9-4.3 0.1 0-0.4-4.6-1.2-10.1-0.8-5.5-1.5-11-1.5-12.2 0-1.3 0.6-2.3 1.3-2.3 0.6 0 6 2.2 11.9 4.8 5.9 2.6 10.8 5.3 10.8 6 0 0.6-0.8 1.2-1.7 1.2-1.5 0-2.4 2.2-4.6 11.2-1.5 6.2-2.7 12.1-2.7 13.1 0 1.4-1.2 1.8-7.7 2.3-4.3 0.3-9.2 0.9-14 1.9l12.1 14.5c10.4 12.4 12.1 14.1 12.7 9.5l5.4 5.6 13.5-4.2c7.4-2.3 14-4.2 14.5-4.2 0.6 0 7.3 4 15 8.8 7.7 4.8 18.2 11.4 23.3 14.6 5 3.3 9.4 5.8 9.7 5.7 0.3-0.2 1.1-4.3 1.9-9.3 0.8-5 1.3-9.1 1.2-9.2 0-0.2-1.2 2-2.6 4.7-1.4 2.8-2.7 5.1-3 5.1-0.3 0-5.8-4.7-12.2-10.3-6.4-5.7-11.6-10.5-11.4-10.8 0.2-0.3 6.1-3.6 25.8-14.5l-23.7-0.6-9-20.9c-4.9-11.5-8.8-21.1-8.5-21.3 0.3-0.2 11.2-1.7 48-6.2l-0.1 2.5c0 1.4-0.6 6.5-1.3 11.5-0.7 5-1.3 9.1-1.2 9.3 0 0.1 4.6-3.5 10.1-8.2 8.4-7 10.2-8.2 11-6.9 0.6 0.9 1.6 1.3 2.3 1 0.6-0.4 1-1.4 0.7-2.2-0.4-1.1 0.5-1.6 3.8-2 2.3-0.2 7.7-0.8 12-1.2 4.2-0.5 7.7-1.3 7.7-1.8 0-0.5-3.8-12.5-8.5-26.5-4.7-14-9.4-29.3-12.1-42.5l-8.5-5.7c-4.6-3.2-8.6-6.3-8.7-7-0.2-0.7 0.7-3.8 2.1-6.8 1.4-3 3.7-8.1 5.1-11.2 1.4-3.2 2.3-5.6 1.9-5.4-0.5 0.2-6.2 6.9-12.8 14.9-7.1 8.6-12.2 14.1-12.6 13.4-0.3-0.7-1.6-6.6-2.9-13.2-1.2-6.6-2.5-12.3-2.9-12.7-0.3-0.5-1.7 2.6-3.1 6.7-1.4 4.2-2.7 7.5-3 7.5-0.3 0-2.4-9.8-4.8-21.7-2.3-12-4.1-21.9-4-22 0.2-0.1 4 3 8.6 7 5 4.3 8.6 6.8 9.1 6.2 0.4-0.5 1.8-4.8 3.1-9.5 1.3-4.7 2.6-9 2.9-9.7 0.3-0.6 4-3.8 15.6-13.1l23-4.2c12.7-2.2 26.8-4.8 31.5-5.6 4.7-0.8 9.4-1.7 10.5-2 1.1-0.3-5.4 3.5-14.5 8.5-13.1 7.2-16.7 8.7-17.2 7.6-0.5-0.8-1.2-1.5-1.8-1.5-0.5 0-1 0.9-1 2 0 1.4 0.6 2 2.3 1.9 1.2 0 18 2.5 37.2 5.5 19.3 3.1 44 7 55 8.7 11 1.6 20.8 3.3 21.7 3.7 1.5 0.6 1.2 2-2.8 12.2-2.4 6.3-4.5 11.6-4.7 11.7-0.1 0.1-8.3-0.5-18.2-1.2-9.9-0.8-18.7-1.5-19.5-1.5-0.8 0 6.4 5.2 16 11.6 9.6 6.4 17.8 11.9 18.2 12.3 0.4 0.3-1.3 8-3.8 17.1-2.5 9.1-4.4 16.6-4.2 16.7 0.2 0.1 2.8-0.3 5.8-0.8 3-0.5 6.9-1.1 8.5-1.4 1.8-0.3-2.3 2.4-10 6.7-7.1 3.9-13.2 7.3-13.5 7.5-0.3 0.2 3.8 4.7 9.1 10.1 8.9 9 9.6 10.1 10.7 15.5 0.9 4.3 0.9 6.3 0.1 8-0.7 1.2-2 4.9-3.1 8.2-1 3.3-1.8 6.5-1.8 7 0 0.5-1.3 2.4-3 4-1.7 1.6-3 3.6-3 4.3 0 0.6-0.7 1.2-1.5 1.2-0.8 0-1.5 0.8-1.5 1.8 0 0.9-1.7 4.2-3.8 7.2-2.1 3-5.6 8.3-7.8 11.8-3.3 5.3-4.3 6.3-6.6 6.2-1.8 0-2.8 0.5-2.8 1.5 0 0.8-0.7 1.5-1.5 1.5-0.8 0-1.7-0.7-2-1.5-0.4-1.1-1.4-1.4-3.7-1-1.8 0.3-13.9 1.7-26.8 3-12.9 1.4-28 3-33.5 3.5-5.5 0.6-11.8 1.3-14 1.6-3.6 0.6-2.3 1.2 15.5 6.1 10.7 3 22.9 6.5 34.5 9.9l-9 6.1c-4.9 3.3-14.4 10.8-21 16.7-8.9 7.8-12.7 10.5-14.7 10.6-1.6 0-2.8 0.6-2.8 1.3 0 0.7-2.9 2-6.7 3-3.8 0.9-8.7 1.7-11 1.7-3.2 0-4.3 0.4-4.3 1.5 0 0.8-0.7 1.5-1.5 1.5-0.8 0-1.5-0.7-1.5-1.5 0-1.1-1.6-0.7-13.5 5.3l-24 1.1c-13.2 0.6-34.6 1.1-47.5 1.1-18.2 0-24.6-0.3-28.2-1.5-2.9-0.9-4.8-2.1-4.8-3 0-0.8-0.7-1.5-1.5-1.5-0.8 0-1.5 0.7-1.5 1.5 0 1.2-1.7 1.5-9.7 1.5-6.6-0.1-10.6-0.5-12.3-1.5-1.4-0.8-4.5-1.5-7-1.5-2.5 0-8.3-0.9-13-1.9-4.7-1.1-10.1-2.5-12-3.1-1.9-0.7-6.2-2.4-9.5-3.8-3.3-1.4-9.6-4.2-14-6.2-4.4-2-10.7-4.9-14-6.4-3.9-1.8-6-3.3-6-4.4 0-0.9-0.7-1.7-1.5-1.7-0.8 0-1.5 0.8-1.5 1.8 0 1.2-0.6 1.6-2 1.3-1.1-0.3-8.1-1.7-15.5-3.1-7.4-1.5-14.6-3.3-16-4.1-1.4-0.7-1.9-1.3-1.2-1.4 0.6 0 1.2-0.9 1.2-2 0-1.1-0.4-2-1-2-0.5 0-1.3 0.9-1.7 1.9-0.7 1.8-1.5 1.5-9.5-3.7-4.8-3.1-14.1-9.2-20.8-13.4-7.2-4.7-12.2-8.6-12.5-9.8-0.3-1.1-1.3-2-2.2-2-1 0-12.4-9.5-25.3-21.2-12.9-11.6-26.5-24-30.2-27.5-5.5-5.1-6.8-6.9-6.8-9.3 0-1.9-4.3-11.1-12-25.5-6.6-12.4-12-23.2-12-24 0-0.8-0.7-1.5-1.5-1.5-0.8 0-3.5-3.4-6-7.5-2.5-4.1-4.5-8.2-4.5-9 0-0.8-0.7-1.5-1.5-1.5-0.8 0-5-2.4-9.2-5.4-4.3-2.9-9.8-6.4-12.3-7.8-4.4-2.5-4.5-2.6-4.2-7.2 0.2-4-0.1-4.6-1.8-4.8-1.1-0.2-7.9-6.2-15-13.3-7.1-7.1-12.9-13.1-12.7-13.3 0.1-0.1 7.2 0.2 15.7 0.8 8.5 0.5 17.8 1.3 25.5 2.2l9.5-12.6c5.2-6.9 10.1-12.5 10.8-12.5 0.6-0.1 1.2-0.6 1.2-1.1 0-0.5-0.7-1-1.5-1-0.8 0-1.5 0.5-1.5 1 0 0.5-0.7 1-1.5 1-0.8 0-1.5 0.7-1.5 1.5 0 0.8-0.7 1.7-1.5 2-0.9 0.3-1.5-0.1-1.5-1 0-0.8 0.7-1.7 1.5-2 1.3-0.4 1.5-4.3 1.5-27 0-14.6 0.3-26.5 0.6-26.5zm-111.7 3c0.3 0 2.2 1.7 4.3 3.7 2 2.1 5.7 8 12.8 22.3l-6.2-3.2c-4.4-2.3-6.4-4-6.9-5.8-0.3-1.4-1.5-5.8-2.7-9.7-1.1-4-1.7-7.3-1.3-7.3zm664.8 164.5c0.2 0.5-0.5 3.6-1.7 6.8-1.1 3.1-2.2 5.6-2.5 5.5-0.2-0.2 0.5-3.2 1.7-6.8 1.2-3.6 2.3-6 2.5-5.5z"/>
		<path id="Path 2" fill-rule="evenodd" class="s2" d="m610.3 0.1c7.4-0.1 8.5 0.2 27 7.4 10.5 4.2 28.4 11.1 39.7 15.5 11.3 4.4 30.6 11.9 65.5 25.7l2 6.1c1.1 3.4 2.6 6.2 3.3 6.2 0.6 0 2.5 2.1 4.2 4.8 1.6 2.6 3.6 6.6 6 13.2l-6 17.8c-3.3 9.7-6 18.5-6 19.4 0 1-0.7 1.8-1.5 1.8-0.8 0-1.6-0.5-1.7-1.1-0.2-0.7-4.1 0.7-18.3 7.8l-24.8-3.2-12.5-20.5c-6.9-11.3-19.7-32.2-44.4-72.5l0.6 15.5c0.3 8.5 0.9 20.5 1.8 37.5l-36.1-36-0.6 3.5c-0.3 1.9-1.7 11.2-3 20.5-1.4 9.3-2.6 17.1-2.7 17.2-0.2 0.1-1.6-7.6-3.3-17.2-1.6-9.5-3.2-17.2-3.5-17-0.3 0.1-4.3 3.5-17.5 14.4l-30.5-30.4v6.3c0 4.8 0.3 6.2 1.5 6.2 0.8 0 1.5 0.7 1.5 1.5 0 0.8-0.7 1.5-1.5 1.5-0.8 0-1.5-0.7-1.5-1.5 0-0.8-0.6-1.5-1.2-1.5-0.7 0-6-4.1-11.8-9.1-5.8-5-11.3-9.9-12.3-10.8-1.7-1.5-1.7-1.4-0.3 3.4 0.9 2.8 2.9 9.4 4.6 14.8 1.6 5.3 2.8 9.7 2.5 9.7-0.3 0-4.4-6-17.9-26.5l-4.4 13.5c-2.5 7.4-4.5 13.6-4.6 13.7 0 0.1-6.6-1.8-14.6-4.2-8-2.4-21.5-6.4-30-9-12.1-3.6-15.6-4.3-16.2-3.3-0.4 0.7-1.1 4.6-1.7 8.6-0.6 3.9-1.5 7.2-2.1 7.2-0.5 0-7.3-3.8-15-8.5-7.7-4.7-14.3-8.5-14.7-8.5-0.5 0-6.4 3.2-13.3 7-6.9 3.8-13.1 7-13.7 7-0.7 0-4.4-5.2-8.3-11.5-3.8-6.3-7.2-11.5-7.5-11.5-0.3 0-8 2.7-17.2 6.1-9.3 3.3-22.1 8-40.3 14.9l-18-9c-9.9-5-18-8.9-18-8.7 0 0.1 1.1 3.1 2.5 6.7 1.4 3.6 2.4 6.6 2.3 6.8-0.2 0.1-4.7-2.2-10-5.3-6.1-3.4-10.5-5.3-11.5-4.9-1 0.3-11.5 6.1-23.3 12.8-11.8 6.8-29.8 17.1-40 22.8-10.2 5.8-20.4 11.5-27 14.8l4.4 7.2c2.5 4 4.2 7.6 3.8 7.9-0.4 0.4-6.5 1.4-13.7 2.3-7.1 0.9-17 2.2-30.6 4.1l30.1 15-24.1 12 35.4 12-9.7 0.2c-5.3 0.2-9.6 0.6-9.6 1 0.1 0.5 4.7 5.9 10.3 12.1 5.6 6.2 10 11.4 9.7 11.6-0.3 0.2-5.3 3.2-11.2 6.5-6 3.4-11.6 6.1-12.5 6.2-1 0-9.7 4-36.8 17.6l8 1.8c4.4 0.9 10.5 2.3 13.5 3 4.5 1 5.4 1.5 5.1 3.1-0.1 1-2.1 7.6-4.2 14.6-2.1 7.1-3.9 13-3.9 13.3 0 0.3 0.7 0.5 1.5 0.5 0.8 0 1.5 0.7 1.5 1.5 0 0.8-0.7 1.5-1.5 1.5-0.8 0-1.6-0.6-1.8-1.3-0.2-0.6-2.1 1.2-4.3 4q-3.9 5.3-4.9 4.3c-0.5-0.6-1.3-1-1.7-1-0.5 0-0.8 0.7-0.8 1.5 0 0.8 0.7 1.5 1.5 1.5 1.2 0 1.5 1.6 1 19.5l-19.2 52.5c-10.5 28.9-19.4 53.2-19.7 54-0.4 0.9 1.9 5.4 11.7 20.5l-1.3 52.5c-0.7 28.9-1.5 56.3-1.9 61-0.5 7.5-1.4 0.3-15.2-135.5l9-40.5c5-22.3 13.1-58.7 18.1-81 5-22.3 9-41.5 9-42.8 0-1.3-0.6-2.2-1.5-2.2-1.3 0-1.3-0.3 0-2.3 0.8-1.2 3.7-16.8 6.7-35.8 3.4-21.4 5.8-34.2 6.8-35.4 0.9-1 1.1-2 0.5-2.2-0.6-0.2 0.3-8.8 2.5-22.8 2.3-15 4-22.9 5-23.8 0.8-0.7 7.6-5 15-9.4 7.4-4.4 22.5-13.3 33.5-19.8 11-6.5 28.8-17.1 39.5-23.5 10.7-6.4 23.8-14.2 38.5-22.8l17-0.6c9.4-0.3 36.4-1.3 60-2.1 23.7-0.8 64.6-2.1 91-3 26.4-0.8 59.3-1.9 73-2.5 13.8-0.5 41.9-1.4 62.5-2 20.6-0.6 38.6-1.2 40-1.4 1.4-0.2 6-0.4 10.3-0.5zm109.5 176.2c0.8 0.3 6.2 1.8 22.7 5.8l10 8.5c5.5 4.7 14.4 12.9 19.8 18.2 5.3 5.3 9.7 9 9.7 8.2 0-0.8 0.7-8.3 1.5-16.5 0.8-8.3 1.6-15.1 1.7-15.2 0.2-0.1 2.2 13.4 8.8 60.2l63.8 116 25.9 23.4c14.2 12.8 27.9 25.2 35.2 31.6l2.5 26.5c1.4 14.6 2.8 28.2 3.1 30.2 0.4 2.9 0.2 3.8-1 3.8-0.8 0-1.5 0.7-1.5 1.5 0 0.8 0.6 1.6 1.4 1.7 0.9 0.2-4.9 13.2-37.9 81.7l1.2 26.8c0.6 14.7 1.2 28.4 1.2 30.3 0.1 3.1-0.4 3.8-4.1 6.1-2.4 1.5-10.1 6.4-17.3 10.9-7.1 4.6-13.8 9.1-14.7 10.2-1.7 1.7-1.7 1.9 0.8 5 1.5 1.8 6.8 7.9 20.9 23.7l6.8-3.5c3.7-1.9 7-4 7.4-4.7 0.5-0.6 1.1-3.9 1.4-7.2 0.4-4.6 0.6-3.3 0.6 5 0 6 0.3 11.6 0.6 12.2 0.4 0.7 0.2 1.3-0.3 1.3-0.5 0-1 0.7-1 1.5 0 0.8 0.4 1.6 0.9 1.7 0.4 0.2 1.7 20 2.7 44 1.5 35.3 1.7 44 0.6 45-0.7 0.8-1.2 4-1.2 8.3 0 6.3-1.3 10.9-12.6 45-6.9 20.9-13.8 40.5-18.3 49l-1-4c-0.6-2.2-1.1-4.7-1.1-5.5-0.1-0.8-4.4-5.9-9.8-11.2-5.3-5.4-9.5-9.9-9.2-10.1 0.3-0.2 6.4-3.6 13.5-7.5 7.7-4.3 11.8-7 10-6.7-1.6 0.3-5.5 0.9-8.5 1.4-3 0.5-5.6 0.9-5.8 0.8-0.2-0.1 1.7-7.6 4.2-16.7 2.5-9.1 4.2-16.8 3.8-17.1-0.4-0.4-8.6-5.9-18.2-12.3-9.6-6.4-16.8-11.6-16-11.6 0.8 0 9.6 0.7 19.5 1.5 9.9 0.7 18.1 1.3 18.2 1.2 0.2-0.1 2.3-5.4 4.7-11.7 4-10.2 4.3-11.6 2.8-12.2-0.9-0.4-10.7-2.1-21.7-3.7-11-1.7-35.7-5.6-55-8.6-19.2-3-35.5-5.7-36-5.8-0.5-0.2 6.7-4.4 33-18.6l28.5-1.6c15.7-0.9 33.5-2.2 39.7-2.8 6.1-0.7 11.4-1.5 11.7-2 0.3-0.4-2-5.5-5.3-11.5-3.2-5.9-12.4-22.5-20.5-37-8-14.4-14.6-26.5-14.6-27 0.1-0.4 7.7-5.9 17-12.2 9.4-6.3 20.1-13.6 31-21v-55l-4.9-5.8c-3.6-4.2-4.8-6.2-4.3-7.6 0.6-1.5 0.3-1.8-1.3-1.5-1.6 0.3-7.4-5.7-27.4-28.6-13.9-15.9-24.8-29.1-24.2-29.3 0.6-0.1 3.5 1.6 6.4 3.8 2.8 2.2 15.1 12.4 27.2 22.5 12.1 10.2 22.1 18 22.3 17.5 0.1-0.6 0.9-1 1.7-1 0.8 0 1.5 0.7 1.5 1.5 0 0.8-0.7 1.5-1.5 1.5-1 0-1.9 1.7-2.6 5.2-0.6 2.9-0.9 5.4-0.7 5.6 0.2 0.1 2.2-1.1 4.6-2.8 2.3-1.6 4.2-3.5 4.2-4 0-0.5 0.5-1 1-1 0.5 0 1 0.7 1 1.5 0 0.8-0.5 1.5-1 1.5-0.5 0-1 1-0.9 2.2 0 1.3 0.6 4.5 2.4 12.3l4.3-5.8c2.3-3.1 4.2-6.2 4.2-6.7 0-0.5 0.8-2.6 1.8-4.5 1-2.1 2.4-3.5 3.5-3.5 0.9 0 1.7-0.7 1.7-1.5 0-0.8 0.7-1.5 1.5-1.5 0.8 0 1.5 0.5 1.5 1 0 0.5-0.7 1.2-1.5 1.5-0.9 0.3-1.5 1.7-1.5 3.2 0.1 2.1-0.6 3.1-2.7 4-2.1 1-3 2.3-3.8 5.6-1 4.2-0.9 4.3 1 3.5 1.1-0.5 3.2-2.8 4.7-5.1 1.4-2.3 3.6-5.1 4.8-6.2 1.1-1.1 2-2.7 2-3.5 0-0.8 0.5-2.1 1.2-2.8 0.7-0.6 2-1.2 3-1.2 1.4 0 1.8-0.8 1.8-3.5 0-2.1 0.5-3.5 1.3-3.5 0.7 0 2.4-4.4 4.1-10.8 2.6-9.6 2.9-12.6 3.3-29.7 0.3-15.4 0.1-19.9-1.2-23.5-0.9-2.5-4.6-11.6-8.3-20.2-3.7-8.6-6.8-15.6-6.9-15.5-0.1 0.1 2.2 7.4 5.3 16.2 3 8.8 6 17.4 6.6 19 0.6 1.6 1.3 6 1.8 16.5l-3-1c-2.5-0.8-3-1.5-3-4.3 0-1.7-1.2-7.5-2.6-12.7-1.4-5.2-3-10.4-3.6-11.5-0.6-1.1-4.8-8.4-9.4-16.3-4.6-7.8-8.6-14.2-8.9-14.2-0.3 0-2.4 5.9-4.7 13-2.4 7.2-4.6 13-5 13-0.5 0-6.5-3.5-13.5-7.9-7.1-4.3-15.4-9.4-18.5-11.5-3.2-2-6.4-3.6-7-3.6-0.7 0-4.9 2.1-9.3 4.6-4.4 2.5-14.9 8.4-23.2 13-8.4 4.6-16.2 8.4-17.3 8.4-1.6 0-2-0.7-2-3 0-2.4 2.6-6.2 12.1-17.8 6.8-8.2 12.9-14.8 14-15 1.2-0.1 1.8-0.9 1.7-2-0.2-1 2.5-5.1 11.9-16.7l11.4-1.8c6.3-0.9 14.2-2.3 17.7-3 3.4-0.6 6.1-1.6 5.9-2.2-0.2-0.6-10.8-17.2-23.4-37-12.7-19.8-28-43.6-34-53-6-9.4-13.2-20.6-16-25-2.8-4.4-5.8-8.3-6.7-8.8-1.3-0.6-2 0.5-3.8 5.4-1.3 3.4-2.5 6.3-2.8 6.4-0.3 0.2-5-6.1-10.5-14-5.5-7.9-10.1-13.9-10.2-13.4-0.2 0.5-1 0.9-1.8 0.9-0.8 0-1.5-0.7-1.5-1.5 0-0.8 0.5-1.6 1.1-1.8 0.7-0.1-5.5-10.3-13.7-22.6-8.2-12.2-15-21.8-15.1-21.2-0.2 0.6-1 1.1-1.8 1.1-0.8 0-1.5-0.4-1.5-1 0-0.6 0.7-1.2 1.5-1.5 0.8-0.3 1.6-1.2 1.7-2.1 0.1-1 0.7-1.4 1.6-1.1zm-20.3 185.8c7.7-0.1 11.5 0.4 16.5 2 5.9 2 7.6 3.3 18.3 13.8 7.4 7.3 11.7 12.3 11.7 13.6 0 1.1 0.6 3.8 1.4 6 1.2 3.5 1.2 5.6 0 16-0.8 6.6-1.6 12.7-1.7 13.5-0.2 0.8-3.5-8.7-14.3-43.9l-10.4-2.5c-5.8-1.4-13.9-3.3-25.6-6.1l3.5 4.1c2 2.3 8 8.9 13.4 14.7 6 6.6 9.5 11.3 9.2 12.2-0.3 1 0.2 1.5 1.8 1.6 1.4 0 4.1 2.2 7.5 6 3.8 4.3 4.7 5.9 3.5 5.9-1 0-7.6-0.9-14.8-2-7.1-1.2-16.8-2.7-21.5-3.4-4.7-0.8-15.6-2.5-24.3-3.7-8.6-1.3-15.7-2.6-15.7-2.9 0-0.3 3.4-5 7.6-10.5 4.2-5.5 8-10.8 8.5-11.8 0.7-1.4 0.5-1.7-1.6-1.7-1.6 0-2.5 0.6-2.5 1.5 0 1.1-0.8 1.4-2.7 1-1.6-0.2-2.2-0.2-1.5 0 0.6 0.3 1.2 1.2 1.2 2 0 0.8-0.7 1.5-1.5 1.5-0.8 0-1.6-0.6-1.7-1.4-0.2-1.1-5.1 0.4-19.8 6-18.4 7.1-19.7 7.5-23 6.3-3.3-1.1-4.5-0.8-18 4.4-8 3-19.8 7.6-26.2 10.1-6.5 2.5-12.8 4.6-14 4.6-1.3 0.1-3.4 0.7-4.8 1.5-1.4 0.8-2.8 1.4-3.2 1.5-0.5 0 0.6-2.7 2.2-6 1.7-3.3 3.7-6 4.5-6 0.8 0 1.5-0.7 1.5-1.5 0-0.9 1.9-2.3 4.5-3.3 2.5-0.9 4.5-2.2 4.5-2.7 0-0.6 10.4-5.8 46.5-22.5h16.5c16.5 0.1 16.5 0 22.3-3 3.1-1.6 6.4-3 7.2-3 0.8 0 1.7-0.8 2-1.8 0.3-0.9 3-2.9 6-4.5 3-1.5 6.5-2.7 7.8-2.8 1.2 0 3.8-0.7 5.7-1.4 2-0.8 7.7-1.4 13.5-1.4zm-385 48.5c7.2 0.2 21.3 1 31.5 1.8 11.3 0.8 20.2 1.9 23 2.9 2.5 0.9 6.8 1.7 9.5 1.7 2.8 0 9.3 0.7 14.5 1.5 5.2 0.8 12.9 2.2 17 3 4.1 0.8 11.3 2.1 16 3 4.7 0.8 10.5 1.5 13 1.5 2.5 0.1 5.6 0.7 7 1.5 1.4 0.8 4.8 1.5 7.5 1.5 2.8 0 6.1 0.7 7.5 1.5 1.4 0.8 4.8 1.4 7.5 1.5 2.8 0 8.2 0.7 12 1.5 3.9 0.8 9.9 2.1 20 4.3l-7-0.4c-3.8-0.2-21.6-0.9-39.5-1.4-17.9-0.6-38.1-1.8-45-2.6-6.9-0.8-16.1-2.1-20.5-2.9-4.4-0.8-9.6-1.7-11.5-2-1.9-0.2-7.3-0.9-12-1.5-4.7-0.5-15.2-1.9-23.5-3-11.2-1.5-20.4-2-36-1.9-16.8 0-22 0.4-25.9 1.7-3.8 1.3-5.6 2.7-8.1 6.2-2.4 3.5-4.1 8.5-7.5 22.4-3.5 14.1-4.9 18-6.2 18.3-1 0.1-1.8 1.1-1.8 2 0 1-1.3 3.2-5.8 7.8l-1.5-4.5c-1.2-3.7-1.2-4.9-0.2-7 0.7-1.4 2.7-8.5 4.4-15.8 1.7-7.2 3.1-15 3.1-17.2 0-3.3 0.7-4.8 4.4-8.8 2.7-2.8 4.5-5.9 4.8-7.7 0.2-2.5 1-3.2 4.8-4.6 2.5-1 10.6-2.4 18-3.3 8.6-0.9 18.3-1.3 26.5-1zm562 17.9l3.2 50-3.8 3.7c-2.2 2.1-4.4 3.8-4.9 3.8-0.5 0-1 0.7-1 1.5 0 0.8-0.7 1.5-1.5 1.5-1 0-1.5 1.1-1.5 3.5 0 2.4-0.5 3.5-1.5 3.5-0.8 0-1.5 0.4-1.5 1 0 0.5 0.7 1 1.5 1 0.8 0 1.5 0.7 1.5 1.5 0 0.8-0.2 1.5-0.5 1.5-0.3 0-11-6.6-23.7-14.6-12.8-8.1-23.4-14.8-23.5-15-0.2-0.2 1.5-1.5 3.7-2.9 2.2-1.4 3.8-3 3.5-3.5-0.3-0.6-1.8-1.2-3.5-1.5-1.6-0.3-3.2-1.1-3.5-1.8-0.3-0.6 0.6-4.1 2-7.7 1.5-3.7 2.1-6.6 1.5-6.8-0.5-0.1-1-0.9-1-1.7 0-0.8 0.7-1.5 1.6-1.5 0.8 0 2.1-1.4 2.7-3 0.7-1.7 1.8-3 2.5-3 0.6 0 8.5 1.6 17.5 3.6 8.9 1.9 17.9 3.8 23.6 4.9zm-257 12.5c1.1 0 1.5 1.1 1.4 8.5l-1.4-4c-0.8-2.2-1.5-4.1-1.5-4.3 0-0.1 0.7-0.2 1.5-0.2zm-42.5 18c1.1 0 2 0.7 2 1.5 0 0.8-0.9 1.5-2 1.5-1.1 0-2 0.7-2 1.5 0 0.8-0.5 1.5-1 1.5-0.6 0-1-0.7-1-1.5 0-0.8 0.4-1.5 1-1.5 0.5 0 1-0.7 1-1.5 0-0.8 0.9-1.5 2-1.5zm26 3c2.7 0 3 0.3 3 3q0 3-1.5 3c-0.8 0-1.5-0.7-1.5-1.5 0-0.8-0.7-1.5-1.5-1.5-0.8 0-1.5-0.7-1.5-1.5q0-1.5 3-1.5zm-2 6c0.8-0.1 2.2 0.6 3 1.5 0.8 0.8 2.4 1.7 3.5 2 1.1 0.2 3.3 0.9 8 2.6l-4.5 2.9c-2.6 1.8-5.8 3-7.8 3-2.2 0-3.2-0.5-3.2-1.5 0-0.8-0.7-1.5-1.5-1.5-0.8 0-1.6 0.8-1.8 1.7-0.1 1.3-0.9 0.7-2.7-2.2-1.4-2.2-2.6-4.3-2.7-4.8-0.2-0.4 0.5-0.7 1.4-0.7 1-0.1 2.9-0.7 4.3-1.5 1.4-0.8 3.2-1.5 4-1.5zm-507 70.5c3.5 7.3 3.9 8.7 3.8 16 0 4.4-0.5 12.5-1.2 18-1 8.2-1.4 9.4-1.9 6.5-0.4-1.9-1.6-12.7-2.7-24-1.1-11.3-2-21.4-1.9-22.5 0-1.1 1.8 1.6 3.9 6zm28.5 75.5c3 0 5.5 0.1 5.5 0.2 0.1 0.2-1.7 1.5-4 3-2.2 1.6-4.2 2.7-4.4 2.5-0.2-0.1-0.8-1.2-1.5-2.5-0.6-1.2-1.1-2.4-1.1-2.7 0-0.3 2.5-0.5 5.5-0.5zm39.7 2.5l2.9 4.5c1.6 2.5 4.1 7.5 5.6 11.3 2.2 5.3 3.2 6.6 4.5 6.2 1.2-0.3 1.8 0 1.8 1 0 0.8-0.5 1.5-1 1.5-0.6 0-3.1 1.5-5.7 3.2-3.1 2.2-4.8 2.9-5 2-0.2-0.6-1-1.2-1.8-1.2-0.8 0-1.5 0.5-1.5 1 0 0.5 0.8 1 1.7 1 1.5 0 1.7 0.5 1 3.2-0.4 1.8-1.1 5.1-1.5 7.2-0.4 2.1-1.2 4.1-1.7 4.3-0.6 0.2-4.2-0.9-8-2.5-3.9-1.6-9.7-3.5-18.8-5.7l-4.3-8.8c-2.4-4.8-4.1-8.7-3.7-8.7 0.5 0 2.1 0.9 3.8 2.1 1.6 1.1 4.7 2.9 10.5 5.9l2.7-10c1.6-5.5 3-10 3.3-10 0.3 0 2.3 6.2 4.4 13.7 2.4 8.6 4.2 13.2 4.6 12.3 0.4-0.8 1.7-7.4 2.9-14.5 1.2-7.1 2.4-14.4 2.7-16zm38.2 48.5c0.7 1.9 2.7 5.5 4.3 8 1.8 2.6 4.3 8.8 9 25.5l6.5 3.5c3.6 1.9 13.4 8.9 21.9 15.4 8.5 6.6 17.1 13.2 19.2 14.8 2 1.5 3.7 3.5 3.7 4.3 0 0.8 0.8 1.5 1.8 1.6 0.9 0 11 0.1 22.2 0 11.3 0 20.9 0 21.3-0.1 0.4 0 0.7-0.7 0.7-1.5 0-0.9 2-2.3 4.6-3.3 2.5-0.9 4.5-2.3 4.5-3-0.1-0.6 0.6-1.2 1.4-1.2 0.9 0 1.5-0.5 1.5-1 0-0.5 0.7-1 1.5-1 0.9 0 1.5 0.5 1.5 1 0 0.5-0.5 1-1.2 1.1-0.7 0-5.5 5.6-20.3 25.1l-5-0.6c-2.7-0.3-12.2-1.1-21-1.7-14-1-16.3-1.4-18.5-3.2-1.4-1.2-4.3-3-6.5-4-2.8-1.3-3.9-2.4-3.7-3.8 0.1-1.1-0.4-1.9-1.3-1.9-0.8 0-1.6 0.5-1.7 1-0.2 0.6-8.4-7.1-18.3-16.9-18-18-18-18-16.6-20.8 1.1-2.4 1.1-2.6 0-1.6-1.1 1-2.2 0.1-10.6-11.2l-1.1-12.5c-0.7-6.9-1.2-13.2-1.1-14 0-0.8 0.6 0.1 1.3 2zm-29.4 1.6c3.1 0.4 6.7 1.1 8 1.5 1.8 0.5 0.7 0.8-4 0.9-4.8 0.1-6.9-0.3-8-1.5-1.3-1.5-1-1.6 4-0.9zm648.8 260.5c0.7 0 1.5 0.6 1.7 1.4 0.3 0.8 1.2 1.5 2 1.5 0.9 0 1.5-0.7 1.5-1.5 0-0.9 1-1.5 2.5-1.5 1.4 0 2.5 0.2 2.5 0.5 0 0.3-4.6 4.4-10.2 9.2-5.6 4.9-15.7 13.5-22.3 19.3-6.6 5.8-12.8 11.2-13.8 12-1.6 1.4-2 1.3-4.3-1-2.5-2.4-2.6-2.4-1.5-0.3 0.6 1.3 1 2.5 0.9 2.7-0.2 0.2-5.7 3.4-12.3 7.1-6.6 3.7-12.4 7-13 7.3q-1 0.5 0-0.6c0.6-0.6 5.8-5.2 11.5-10.2 5.8-5.1 14.6-12 28.5-21.4l-7.5-2.2c-4.1-1.2-16.2-4.7-27-7.7-18.6-5.2-19.3-5.5-15-6.1 2.5-0.4 8.6-1.1 13.5-1.6 5-0.5 20.1-2 33.5-3.5 13.5-1.4 25.2-2.7 26-2.9 0.9-0.2 2.1-0.4 2.8-0.5zm-99 65.2c0.2 0.7 0 1.5-0.4 1.8-0.5 0.4-2.7 0.9-8.9 1.9l4.5-2.4c2.9-1.6 4.5-2 4.8-1.3zm11.7-1.1l-3.5 1.3c-1.9 0.7-3.8 1.4-4.2 1.4-0.4 0.1-0.8-0.6-0.8-1.4 0-1.1 1.1-1.5 8.5-1.3zm-131 2.8c0.9 0 1.5 0.7 1.5 1.5 0 0.9 1.8 2.1 8.5 4.3l-4.2 0.1c-3.2 0.1-4.3-0.3-4.3-1.4 0-0.8-0.6-1.5-1.5-1.5-0.8 0-1.5-0.7-1.5-1.5 0-0.8 0.7-1.5 1.5-1.5z"/>
		<path id="Path 3" class="s0" d="m390 67.5c0 0.5-0.7 5.3-1.5 10.5-0.8 5.2-1.3 9.6-1.2 9.7 0.1 0.1 4.7-0.5 10.2-1.2 5.5-0.8 10.1-1.6 10.2-1.7 0.1-0.2-3.8-4.3-8.7-9.3-5-5-9-8.5-9-8zm15 25c0 0.8 0.7 1.5 1.5 1.5 0.8 0 1.5 0.7 1.5 1.5 0 0.8 0.7 1.5 1.5 1.5 0.8 0 1.5-0.7 1.5-1.5 0-0.8-0.7-1.5-1.5-1.5-0.8 0-1.5-0.7-1.5-1.5 0-0.8-0.7-1.5-1.5-1.5-0.8 0-1.5 0.7-1.5 1.5zm55 0c0 0.8 0.7 1.5 1.5 1.5 0.8 0 1.5 0.7 1.5 1.5 0 0.8 0.7 1.5 1.5 1.5 0.8 0 1.5-0.7 1.5-1.5 0-0.8-0.7-1.5-1.5-1.5-0.8 0-1.5-0.7-1.5-1.5 0-0.8-0.7-1.5-1.5-1.5-0.8 0-1.5 0.7-1.5 1.5zm298.2 225.7c0.4 1.3 5 21.2 10.3 44.3 5.3 23.1 9.8 42.6 10.1 43.3 0.3 0.8 2.1 0 5.7-2.4 2.8-2 10.4-7.4 16.7-12l11.5-8.4c4.3-21.3 5.5-28.3 5.5-29.2 0-1.4-1.3-2-6.2-2.7l-6.3-0.8c13.6-0.2 17.5-0.6 17.5-1.1 0-0.4-14.7-8.1-32.7-17-28.2-14.1-32.6-16-32.1-14zm14.5 112.3c1.5 1.9 3.1 3.5 3.6 3.5 0.4 0 2.3-1.1 4.2-2.5l3.5-2.5c-7.7-1.5-10.9-2-12.1-2-1.9 0-1.9 0.2 0.8 3.5zm-44 13.5c-13.8 12.4-16.6 15.4-16.3 17.3 0.3 1.2 1 13.5 1.6 27.2 0.6 13.8 1.2 26.3 1.3 27.8 0.2 2.5 2.5-0.3 16.6-19.5l16.4-22.3c-1.9-34.9-2.6-45.1-2.7-45.3-0.2-0.2-7.8 6.5-16.9 14.8zm41.3 1.5c0 0.8-0.7 1.5-1.5 1.5-0.8 0-1.5 0.7-1.5 1.5 0 0.8 0.7 1.5 1.5 1.5 0.8 0 1.5-0.7 1.5-1.5 0-0.8 0.7-1.5 1.5-1.5 0.8 0 1.5-0.7 1.5-1.5 0-0.8-0.7-1.5-1.5-1.5-0.8 0-1.5 0.7-1.5 1.5zm32.1 7.2c-0.7 1.2-1.2 3.1-1.2 4.2 0.1 1.5 0.8 2.1 2.6 2.1 1.4 0 2.5-0.6 2.5-1.2-0.1-0.7-0.7-2.7-1.4-4.3-1.2-3-1.3-3-2.5-0.8zm-157.5 5.5c-1.2 1.4-2 4.3-2.2 7.5-0.3 4.2-0.1 5.3 1.1 5.3 0.8 0 2.9-0.7 4.5-1.5 2.7-1.3 3-2 3-6 0-3.3-0.4-4.5-1.5-4.5-0.8 0-1.5-0.7-1.5-1.5 0-0.8-0.4-1.5-0.8-1.5-0.4 0-1.6 1-2.6 2.2zm114 5.1c-1.3 2.3-9.6 18.2-18.5 35.2l-16.2 31-29.4 29.5c20.1-9.1 26.3-11.5 26.6-11.1 0.3 0.3 1.9 7 3.5 14.9 1.9 9.2 3.3 14.2 4.2 14.2 0.6 0 11.9-2.3 25-5 13-2.8 33.2-7.1 44.7-9.5 11.5-2.5 22.4-4.8 24-5 2.5-0.4 2.7-0.3 1 0.5-1.1 0.6-19.1 8.6-40 17.9l-38 16.9c-6.6 19.9-8.5 26-8.5 26.5 0 0.4 6 0.7 13.3 0.7 12.1 0.1 13.4-0.1 15.2-2 1.1-1.2 2.9-2.3 4-2.7 1.1-0.3 2.8-1.3 3.9-2.2 1-0.9 3.9-2.2 6.5-3 2.5-0.7 11.8-1.6 20.6-2 11.3-0.5 19.8-1.6 29-3.5 7.1-1.5 13.5-3.3 14.1-3.9 0.7-0.7 5.5-6.8 10.8-13.7 8.6-11.1 9.5-12.6 7.9-13.5-1-0.5-9-4.9-17.8-9.7-8.8-4.8-22.8-12.5-31.2-17-8.3-4.6-15.1-8.4-15-8.5 0.1-0.2 5.8-1 12.7-1.8 6.9-0.8 12.7-1.8 13-2 0.3-0.3-0.6-3.8-2-7.8-1.7-5-2.1-7.3-1.2-7 0.6 0.1 1.2-0.4 1.2-1.2 0-0.8-0.8-1.5-1.7-1.5-1.2 0-6.1-6.5-14.4-19.3-7-10.5-13.2-20.2-13.8-21.4-0.7-1.5-6.3-4.9-16.1-9.8l-15-7.5zm-119.5 19.9c-0.1 1.3-0.8 7.8-1.5 14.4-0.7 6.6-1.2 12.2-1 12.5 0.1 0.2 4 0.1 8.6-0.3 4.5-0.4 12.6-1 17.8-1.5l9.5-0.7c-9.4-7.8-16.5-13.6-21.9-18-5.4-4.4-10.1-8.2-10.6-8.4-0.4-0.2-0.8 0.7-0.9 2zm-522.1 11.9c-1.2 4.1-4.6 15.3-7.5 25-3 9.6-5.3 17.6-5.2 17.7 0.1 0.1 1.4-3.1 3-7.2 1.5-4.2 2.9-7.5 3.2-7.5 0.3 0 3.4 4.2 7 9.5 3.6 5.2 6.7 9.3 7 9.2 0.3-0.1-0.6-11.9-2-26.2-1.4-14.3-2.7-26.5-2.9-27-0.2-0.6-1.3 2.3-2.6 6.5zm781 23.5c0 0.8-0.7 1.5-1.5 1.5-0.8 0-1.5 0.6-1.5 1.5 0 0.8 0.3 1.5 0.8 1.5 0.4 0 1.5-0.9 2.5-2 0.9-1.1 1.7-2.5 1.7-3 0-0.6-0.4-1-1-1-0.5 0-1 0.6-1 1.5zm-112.8 99.9c-0.1 1 0.8 1.7 2.6 2 1.5 0.3 4.4 0.7 6.5 1 2 0.3 3.6 0.4 3.6 0.1-0.1-0.3-2.3-1.1-4.8-1.9-2.5-0.8-5.3-1.8-6.2-2.1q-1.6-0.8-1.7 0.9zm-524.9 109.1c2.5 3.8 5.3 7.4 6.4 8 1 0.5 2 1.3 2.3 1.8 0.3 0.4 1.3 0.7 2.3 0.5 1.3-0.3-0.4-2.5-6.9-8.8l-8.6-8.5zm93.7 49c0 0.8 0.7 1.5 1.5 1.5 0.8 0 1.5 0.6 1.5 1.5 0 0.8 0.7 1.5 1.5 1.5 0.8 0 1.5-0.7 1.5-1.5 0-0.9-0.7-1.5-1.5-1.5-0.8 0-1.5-0.7-1.5-1.5 0-0.9-0.7-1.5-1.5-1.5-0.8 0-1.5 0.6-1.5 1.5zm145.5 87.1c-0.5 0.4-0.8 1.1-0.7 1.5 0.1 0.5 1.1 0.9 2.2 0.9 1.1 0 2 0.6 2 1.5 0 0.8 0.7 1.5 1.5 1.5 0.8 0 1.5 0.6 1.5 1.5 0 0.8 0.7 1.5 1.5 1.5 0.8 0 1.5-0.4 1.5-0.8-0.1-0.4-1.8-2.4-3.8-4.4-2-2.1-4-3.8-4.3-3.8-0.3 0-0.9 0.3-1.4 0.6zm42.5 67.9c0 0.8-0.7 1.5-1.5 1.5-0.8 0-1.5 0.6-1.5 1.5 0 0.8 0.7 1.5 1.5 1.5 0.8 0 1.5-0.7 1.5-1.5 0-0.9 0.7-1.5 1.5-1.5 0.8 0 1.5-0.7 1.5-1.5 0-0.9-0.7-1.5-1.5-1.5-0.8 0-1.5 0.6-1.5 1.5zm179.5 12c-0.3 0.8-1.2 1.5-2 1.5-0.8 0-1.5 0.6-1.5 1.5 0 0.8 0.7 1.5 1.5 1.5 0.8 0 1.5-0.7 1.5-1.5 0-0.9 0.7-1.5 1.5-1.5 0.8 0 1.5-0.7 1.5-1.5 0-0.9-0.5-1.5-1-1.5-0.6 0-1.3 0.6-1.5 1.5z"/>
		<path id="Path 4" fill-rule="evenodd" class="s1" d="m151.5 173c0.8 0 1.5 0.7 1.5 1.5 0 0.8 0.7 1.5 1.5 1.5 0.8 0 1.5 0.7 1.5 1.5 0 0.8-0.7 1.5-1.5 1.5-0.8 0-1.5-0.7-1.5-1.5 0-0.8-0.7-1.5-1.5-1.5-0.8 0-1.5-0.7-1.5-1.5 0-0.8 0.7-1.5 1.5-1.5zm383 64c0.8 0 1.5 0.7 1.5 1.5 0 0.8-0.7 1.5-1.5 1.5-0.8 0-1.5 0.7-1.5 1.5 0 0.8-0.7 1.5-1.5 1.5-0.8 0-1.5-0.7-1.5-1.5 0-0.8 0.7-1.5 1.5-1.5 0.8 0 1.5-0.7 1.5-1.5 0-0.8 0.7-1.5 1.5-1.5zm-300.8 24c1.6 0 1.6 0.2 0.3 1.1-1.1 0.8-1.2 1.2-0.2 1.5 0.6 0.2 1.2 1.1 1.2 1.9 0 0.8-0.7 1.5-1.5 1.5q-1.5 0-1.5-3c0-2.2 0.5-3 1.8-3zm113.2 22l-4.7 3.8c-2.7 2-8.7 6.8-22.3 17.2l-4.2-10.1c-2.2-5.6-4.3-9.6-4.5-9-0.1 0.6-1 1.1-1.8 1.1-0.8 0-1.5-0.7-1.5-1.5 0-1.3 2.8-1.5 39-1.5zm-46.5 48c0.8 0 1.5 0.7 1.5 1.5 0 0.8 0.7 1.5 1.5 1.5 0.8 0 1.5 0.7 1.5 1.5 0 0.8-0.7 1.5-1.5 1.5-0.8 0-1.5-0.7-1.5-1.5 0-0.8-0.7-1.5-1.5-1.5-0.8 0-1.5-0.7-1.5-1.5 0-0.8 0.7-1.5 1.5-1.5zm35 109c0.1 0-0.8 2.4-2 5.3-1.3 2.8-3.9 8.7-5.9 13-2 4.2-3.3 7.7-2.8 7.7 0.4 0 4.8-4 9.7-9 4.9-4.9 9.1-8.8 9.3-8.7 0.1 0.1-0.9 7.6-2.4 16.7-1.5 9.1-3.2 16.9-3.9 17.5-0.6 0.6-7.4 1.6-15.1 2.3-7.6 0.6-14 1.1-14 1-0.1-0.2 5.9-10.5 13.3-23.1 7.5-12.5 13.6-22.7 13.8-22.7zm-153 11c0.2 0-1.5 3.7-3.7 8.3-2.3 4.5-4.3 7.6-4.5 7-0.1-0.7-1-1.3-1.8-1.3-0.8 0-1.5-0.7-1.5-1.5 0-0.8 0.7-1.5 1.5-1.5 0.8 0 1.6 0.6 1.8 1.3 0.2 0.6 2-1.8 4.1-5.5 2.1-3.8 3.9-6.8 4.1-6.8zm195.5 0c0.3-0.1 3.1 3.8 6.3 8.5 4.9 7.3 5.6 9 5.3 12.3-0.2 2.2-1.1 4.2-2.2 4.9-1.1 0.6-5.5 2.3-9.9 3.8-4.4 1.4-8.1 2.5-8.2 2.3-0.1-0.2 1.7-7.4 4-16.1 2.2-8.6 4.4-15.7 4.7-15.7zm-152.5 2.3c0.1 0.2-0.9 4.2-2.2 8.8-1.3 4.6-2.6 9.2-2.8 10.2-0.3 1.1 0.1 1.7 1 1.7 0.8 0 1.5 0.8 1.4 1.8 0 0.9-0.2 1.1-0.5 0.5-0.2-0.7-1.1-1.3-1.9-1.3-0.8 0-5.2 2.8-9.7 6.3-4.6 3.5-15.3 11.7-23.8 18.2-8.5 6.4-16.1 12.3-16.9 12.9-1.2 0.9-1.3 0.8-0.6-0.4 0.5-0.8 5.8-8.2 11.8-16.5 6.1-8.2 13.2-18 15.9-21.8 2.6-3.7 5.1-6.7 5.6-6.7 0.4 0 5.6-3.2 11.6-7 6-3.8 11-6.8 11.1-6.7zm424 2.7c0.8 0 1.5 0.7 1.5 1.5 0 0.9 0.9 1.5 2.5 1.5 1.8 0 2.4 0.4 2 1.5-0.3 0.8-1.2 1.5-2 1.5-1 0-1.6 1.2-1.8 3.3-0.3 2.3-0.4 1.8-0.5-1.5-0.2-3.5-0.6-4.8-1.7-4.8-0.8 0-1.5-0.7-1.5-1.5 0-0.8 0.7-1.5 1.5-1.5zm-462 9c0.8 0 1.5 0.7 1.5 1.5 0 0.8-0.7 1.5-1.5 1.5-0.8 0-1.5 0.7-1.5 1.5 0 0.8-0.7 1.5-1.5 1.5-0.8 0-1.5-0.7-1.5-1.5 0-0.8 0.7-1.5 1.5-1.5 0.8 0 1.5-0.7 1.5-1.5 0-0.8 0.7-1.5 1.5-1.5zm26.4 31c0.3 0 6.1 3.1 12.8 6.8 6.7 3.7 12.1 6.8 12 6.9-0.1 0.1-6.9-1.6-15.2-3.8-8.2-2.2-15.7-3.8-16.5-3.5-0.8 0.3 0.3-1 2.4-2.9 2.2-1.9 4.2-3.5 4.5-3.5zm115.1 20.5l18.5 18.4 9-6.5c5-3.6 9.7-6.9 10.5-7.3 1.2-0.7 0.6 4.4-7.3 53.4l7.4 18.2c6.4 15.9 7.1 18.2 5.4 17.9-1.1-0.2-4.5-0.9-13-2.6l-30.4-70.5zm555 18.5q2 0 1.5 1.5c-0.3 0.8-1.2 1.5-2 1.5-0.9 0-1.5 0.7-1.5 1.5 0 0.8-0.7 1.5-1.5 1.5-0.9 0-1.5-0.7-1.5-1.5 0-0.8 0.6-1.5 1.5-1.5 0.8 0 1.5-0.7 1.5-1.5 0-0.8 0.9-1.5 2-1.5zm-617 40c1.1 0 1.8 0.5 1.6 1.3-0.2 0.6-0.8 1.1-1.3 1-0.4-0.1-0.8 1.1-0.8 2.7 0 1.5-1 3.9-2.2 5.2-1.3 1.3-5.8 12.6-11 27.6-5.4 15.4-8.4 25.5-7.8 26 0.5 0.3 7 3.7 14.5 7.4 7.4 3.7 13 6.8 12.5 6.8-0.6 0-9.8-1.9-20.5-4.2-10.8-2.3-19.6-4.2-19.8-4.2-0.1-0.1-1.5-9.1-3.2-20.1-1.7-11-2.9-20-2.8-20.1 0.1-0.1 7.8-5.6 17-12.2 9.2-6.7 17.2-12.2 17.8-12.2 0.5 0 1-0.5 1-1 0-0.5 0.6-1 1.5-1 0.8 0 1.5-0.7 1.5-1.5 0-0.8 0.9-1.5 2-1.5zm114.4 20.8l4.5 3.8c2.5 2.1 5.8 4.8 10.1 8.4l-3.8 2.3c-2 1.3-5.4 3.3-11.2 6.7zm-64.5 30.7l9 9c4.9 5 8.8 9.1 8.7 9.2-0.1 0-3.7 1.3-7.9 2.7-4.3 1.5-8.2 2.6-8.8 2.6-0.6 0-1-4.5-1-11.7zm16.8 46.5c0.4 0 6.2 3.7 12.9 8.3 6.8 4.5 12.3 8.4 12.3 8.7 0 0.3-3.2 3.8-14.5 15l-2.7-8c-2.4-6.9-3.1-7.9-4.8-7.5q-2 0.5-2-1c0-0.8 0.7-1.5 1.5-1.5 1.2 0 1.1-1.2-1-6.8-1.4-3.7-2.5-6.8-2.5-7 0-0.1 0.4-0.2 0.8-0.2zm361.7 8c0.8 0 1.5 0.7 1.5 1.5 0 0.8 0.7 1.5 1.5 1.5 0.8 0 1.5 0.7 1.5 1.5 0 0.8-0.7 1.5-1.5 1.5-0.8 0-1.5-0.7-1.5-1.5 0-0.8-0.7-1.5-1.5-1.5-0.8 0-1.5-0.7-1.5-1.5 0-0.8 0.7-1.5 1.5-1.5zm-313 33c0.8 0 1.5 0.7 1.5 1.5 0 0.8 0.7 1.5 1.5 1.5 0.8 0 1.5-0.7 1.5-1.5 0-0.8 0.7-1.5 1.5-1.5 0.8 0 1.5 0.7 1.5 1.5 0 0.8-0.7 1.5-1.5 1.5-0.8 0-1.5 0.7-1.5 1.5 0 0.8-0.7 1.5-1.5 1.5-0.8 0-1.5-0.7-1.5-1.5 0-0.8-0.7-1.5-1.5-1.5-0.8 0-1.5-0.7-1.5-1.5 0-0.8 0.7-1.5 1.5-1.5zm444.1 6q1.4 0 1.4 3.5c0 2.4-0.4 3.5-1.5 3.5-0.8 0-1.7-0.3-1.9-0.8-0.2-0.4-0.2-1.9 0.1-3.5 0.3-1.5 1.1-2.7 1.9-2.7zm19.6 7c0.5 0 4.5 1.9 17.3 8.4l-6 0.7c-3.3 0.4-9.8 1-23 2.1l5.5-5.6c3-3.1 5.8-5.6 6.2-5.6zm-293.2 95.3c0.9 0.6 4.9 3.9 8.8 7.2 4.7 3.9 6.8 6.2 6 6.6-0.7 0.4-5.4 1.8-19.8 5.9l0.5-2.8c0.2-1.5 1-6.2 1.6-10.4 1.1-6.9 1.4-7.6 2.9-6.5z"/>
		<path id="Path 5" class="s2" d="m603 101.5c0 0.8-0.7 1.5-1.5 1.5-0.8 0-1.5 0.7-1.5 1.5 0 0.8 0.7 1.5 1.5 1.5 0.8 0 1.5-0.7 1.5-1.5 0-0.8 0.7-1.5 1.5-1.5 0.8 0 1.5-0.7 1.5-1.5 0-0.8-0.7-1.5-1.5-1.5-0.8 0-1.5 0.7-1.5 1.5zm-468 195c0 0.8-0.7 1.5-1.5 1.5-0.8 0-1.5 0.7-1.5 1.5 0 0.8 0.7 1.5 1.5 1.5 0.8 0 1.5-0.7 1.5-1.5 0-0.8 0.7-1.7 1.5-2 0.8-0.3 1.5-0.9 1.5-1.5 0-0.6-0.7-1-1.5-1-0.8 0-1.5 0.7-1.5 1.5zm522.5 144.6c-9.4 5-18 9.7-19.3 10.5l-2.2 1.4c5.4 8.3 5.5 8.3 5.8 5.7 0.1-1.6 0.8-2.7 1.7-2.7 0.8 0 1.5-0.7 1.5-1.5 0-0.8 0.7-1.5 1.5-1.5 0.8 0 1.5 0.7 1.5 1.5 0 0.8 0.7 1.5 1.5 1.5 0.8 0 1.5 0.7 1.5 1.5 0 0.9 0.9 1.5 2.3 1.5 1.2 0.1 3.3 0.7 4.7 1.5 2.5 1.4 2.4 1.4-1.7 1.5h-4.3c-0.8 9.3-1.5 12-2 12-0.5 0-1 0.7-1 1.5 0 0.8 0.5 1.5 1 1.5 0.5 0 1-0.7 1-1.5 0-1.3 2.4-1.5 15.5-1.5h15.5l0.5-17.3 11 14.5c4.3-5.2 9.3-11.3 13.8-17 4.5-5.7 8-10.5 7.7-10.7-0.3-0.2-8.1-2.7-17.5-5.5-9.4-2.9-18.4-5.4-20-5.7-2.3-0.2-7 1.8-20 8.8zm125.5 0.3c3 3.1 6.1 5.6 6.8 5.6 0.6 0 1.1 0.5 1 1.2-0.1 0.7 1.8 3.1 4.3 5.5l4.4 4.3c2.7-6.6 3.4-8.5 3.3-8.6-0.2 0-4.8-2.5-10.3-5.6-5.5-3-11.1-6.1-12.5-6.8-1.6-0.8-0.6 0.7 3 4.4zm100 74.1c0 0.8-0.7 1.5-1.5 1.5-0.8 0-1.5 0.7-1.5 1.5 0 0.8 0.3 1.5 0.8 1.5 0.4 0 1.5-0.9 2.5-2 0.9-1.1 1.7-2.5 1.7-3 0-0.5-0.5-1-1-1-0.5 0-1 0.7-1 1.5zm-715 94c0 0.8 0.7 1.5 1.5 1.5 0.8 0 1.5 0.7 1.5 1.5 0 0.8 0.7 1.5 1.5 1.5 0.8 0 1.5-0.7 1.5-1.5 0-0.8-0.7-1.5-1.5-1.5-0.8 0-1.5-0.7-1.5-1.5 0-0.8-0.7-1.5-1.5-1.5-0.8 0-1.5 0.7-1.5 1.5zm614.4 0.4c-3.4 0.9-7 2.3-8 3.2-1.1 0.9-3.2 2.3-4.8 3-1.6 0.8-3.4 2.2-4 3.2-0.9 1.4-0.6 2.2 1.7 4.2l2.7 2.5c6.6-4.4 9.6-6.3 11-7 1.4-0.7 8.8-3.5 16.5-6.1l14-4.8c-18.9 0.1-25.2 0.7-29.1 1.8zm-608.4 18.1c0 0.5 1.9 2.5 4.3 4.3 2.3 1.9 4.9 3.7 5.7 4.2 0.8 0.4-0.7-1.5-3.5-4.4-2.7-2.8-5.3-5.1-5.7-5.1-0.5 0-0.8 0.5-0.8 1zm87.3-44.5c1 2 1.5 2.2 2.5 1.2 0.7-0.6 1.3-1.8 1.2-2.4 0-0.7-1.1-1.3-2.5-1.3-2.3 0-2.3 0.2-1.2 2.5z"/>
	</g>
</svg>