<?xml version="1.0" encoding="UTF-8" standalone="no"?>
<svg
   version="1.2"
   viewBox="0 0 1000 1000"
   width="1000"
   height="1000"
   id="svg1"
   sodipodi:docname="castro.svg"
   inkscape:version="1.4 (1:1.4+202410161351+e7c3feb100)"
   xmlns:inkscape="http://www.inkscape.org/namespaces/inkscape"
   xmlns:sodipodi="http://sodipodi.sourceforge.net/DTD/sodipodi-0.dtd"
   xmlns="http://www.w3.org/2000/svg"
   xmlns:svg="http://www.w3.org/2000/svg">
  <defs
     id="defs1" />
  <sodipodi:namedview
     id="namedview1"
     pagecolor="#505050"
     bordercolor="#ffffff"
     borderopacity="1"
     inkscape:showpageshadow="0"
     inkscape:pageopacity="0"
     inkscape:pagecheckerboard="1"
     inkscape:deskcolor="#505050"
     inkscape:zoom="0.81"
     inkscape:cx="500"
     inkscape:cy="500"
     inkscape:window-width="1920"
     inkscape:window-height="1012"
     inkscape:window-x="0"
     inkscape:window-y="0"
     inkscape:window-maximized="1"
     inkscape:current-layer="svg1" />
  <title
     id="title1">castro-svg</title>
  <style
     id="style1">
		.s0 { fill: #000000 } 
		.s1 { fill: #ffffff } 
		.s2 { fill: #7f7f7f } 
	</style>
  <g
     id="Layer 2">
    <path
       id="Path 0"
       class="s0"
       d="m266.5 92.3l71.2-30.4 66.8-57.6 92.8 37.2 25.4-16.1 14.9 51.4 11.7-23.5 14.9 11.1 67.4-16.7 1.3 29.1-19.2-19.8-7.4 17.9-18.6-9.9 0.6 17.4 34.7 13 16.1-26.7 18.5 31.6 67.5 13.6 42.7 68.8 68.7 195-29.7-24.1-33.4-0.7-35.9 29.1-29.1-1.2-6.2 38.4-27.9 1.2 5-27.2-19.8-35.9 13.6-1.3-59.4-81.1-8.1-34 17.4-4.4-52.6-76.7-58.2-21.1-108.3-2.5-90.4 18.6-99 93.5-29.7 57.6-24.1-77.4 45.1-52.6-9.2-64.4 32.1-21.1 29.7 9.9zm-31.5 557.9l-10.5-49.5 16.7-27.3-14.3-17.9-14.2 14.2-2.5-54.5-16.7 31-29.7-94.8 19.2-89.1 29.7 6.8-2.5-22.9 29.7 9.9 10.6-16.1 13 39.6-23.6 179.6 14.9-14.3-8.7-27.8 18.6-3.1 51.4 24.7 24.1 31 8.7-16.1 101.5 16.1 54.4 58.8 63.1-10.5-13 18 19.8-9.9-18.5-24.8 23.5-9.9-3.1-30.4 19.2 1.9 14.2-26.6 14.9 20.4 26.6-30.3 8 20.4-20.4 19.2 29.7-11.2 4.3-18.5 8.1 14.2-4.3-26.6 26 4.3v-19.2l-24.8 6.2-5-15.5 26-17.3-4.9 14.2 27.2 3.8 26 54.4 27.2 5.6 24.8-15.5-44.6 61.3 1.3 62-50.8 101.5-26 24.2-16.1 13.6-5.5 4.3-21.7 21.7-4.9 2.5-17.4 13-44.5 37.1-15.5 13-36.5 31-10.5 13.6-45.2 34.1-7.4 5.5-14.3 5.6-9.9 5-6.8 4.9-32.2-16.7-5.5-21.1-26.6 13-81.1-29.7-21.7-61.3 13.6-27.2-10.5 11.7 5.6-18.5-31 6.8 16.1-19.2-27.2-10.5-24.7-63.8 7.4-16.1 14.8 7.4-6.2-17.3 16.1-11.2-11.1-35.3h23.5zm611.5-143l-19.2 129.4-13.6-95.3 32.8-65.7z"
       style="fill:#000000" />
    <path
       id="Path 1"
       class="s1"
       d="m231.2 87.3l82.9-20.4 34.1-23.6 17.3-37.7 26-5.6 10.5 5.6-39 29.1-3.1-11.2-11.1 25.4-82.3 43.4-8.1 8zm165.3-87.3l103.3 29.1 37.8-15.5 22.3 35.3 30.9-16.1 76.8 21.1 83.5 89.1 66.2 156.7-87.2-182.7-73.1-39.6 1.9 14.2-9.3-5.5-2.5-35.3-65.6-15.5-24.1 25.4-26.6-44.6-26 18.6zm-235.2 284.2l-9.3-57 42.1-47.7v-73l29.1-16.1-27.8 20.4 8 65-49.5 52zm685.1 185.8l-22.9 52.6-54.5 34.1-26.6-19.2 1.3-19.8h-19.8l-13.7-70-34 23.5-9.9-21.6-18.6 19.8 2.5 34.7 13.6-18.6 2.5 27.2-28.5 30.4-12.4-22.9-28.4-1.9 11.1 17.3-18.5-5.5-14.3 26.6-16.1-7.4 1.3 46.4-11.2-8.1-17.3 32.9-16.1-0.7-65.6-58.2-70.5-9.2 0.6-14.3-13 10.5 10.5-24.1-61.9-19.8-17.9 19.2-39.6-27.3 11.7-13-13.6-48.3 13.6-79.2-58.2-46.5v-55.7l105.9-95.4 77.9-19.1 160.3 12.3 37.2 47.7-5.6 56.4 22.9 37.7 11.8-9.3 30.9 60.7 21.7 51.4-6.8 21.1 36.5 21 4.3-53.8 55.1-17.4-8.1 39 14.3-22.3 33.4-2.4 32.2 56.3-11.8-58.8-57.5-13 32.1-13.6 40.3 30.3-21.1-81.1 24.2 76.8zm-683.3-182.7l24.2 22.3-24.8 164.7 53.2 189.5-11.7 1.2v39l24.1 17.4-34.7 30.9 17.4 67.5-18.6-53.2 7.4-117.7-41.4-181.4zm552 475.5l49.5-97.2 2.5-66.2 41.5-63.2 19.8 119.5 11.7 70zm-502.5 59.4l6.8-10.5 9.9 41.5zm19.8 38.4l29.7 8.6-11.8 26.7 31 55.1 34.7 18.5 14.8-9.9 14.2 19.2 37.2-4.9 39.6 26-139.3-39.6z"
       style="fill:#ffffff;opacity:1" />
    <path
       id="Path 2"
       class="s2"
       d="m266.5 92.3l82.3-43.4 11.1-25.4 3.1 11.2 39-29.1-10.5-5.6h5l108.3 34.7 26-18.6 26.6 44.6 24.1-25.4 65.6 15.5 2.5 35.3 9.3 5.5-1.9-14.2 73 39.6 87.3 182.7 0.6 1.8 21.1 81.2-40.3-30.4-32.2 13.6 57.6 13 11.8 58.9-32.2-56.4-33.4 2.5-14.3 22.3 8.1-39-55.1 17.3-4.3 53.9-36.6-21.1 6.9-21-21.7-51.4-31-60.7-11.7 9.3-22.9-37.8 5.6-56.3-37.2-47.7-160.3-12.4-77.9 19.2-105.9 95.4v55.7l58.2 46.4-13.6 79.3 13.6 48.3-11.8 13 39.7 27.2 17.9-19.2 61.9 19.9-10.5 24.1 13-10.5-0.7 14.2 70.6 9.3 65.6 58.2 16.1 0.6 17.3-32.8 11.2 8.1-1.3-46.5 16.1 7.5 14.2-26.7 18.6 5.6-11.1-17.3 28.4 1.8 12.4 22.9 28.5-30.3-2.5-27.3-13.6 18.6-2.5-34.7 18.6-19.8 9.9 21.7 34-23.5 13.6 69.9h19.8l-1.2 19.9 26.6 19.2 54.5-34.1 22.9-52.6v5.5l-32.8 65.7 13.6 95.3 19.2-129.4 0.6 1.3-18.6 146.1v1.2l-19.8-119.5-41.4 63.2-2.5 66.2-49.5 97.2-9.9 6.9 50.7-101.6-1.2-61.9 44.5-61.3-24.7 15.5-27.2-5.6-26-54.5-27.3-3.7 5-14.2-26 17.3 4.9 15.5 24.8-6.2v19.2l-26-4.4 4.3 26.7-8-14.3-4.3 18.6-29.7 11.1 20.4-19.2-8.1-20.4-26.6 30.4-14.8-20.5-14.3 26.6-19.1-1.8 3 30.3-23.5 9.9 18.6 24.8-19.8 9.9 13-17.9-63.1 10.5-54.5-58.8-101.5-16.1-8.7 16.1-24.1-31-51.4-24.8-18.5 3.1 8.6 27.9-14.8 14.2 23.5-179.5-13-39.7-10.5 16.1-29.7-9.9 2.5 22.9-29.8-6.8-19.1 89.2 29.7 94.7 16.7-30.9 2.5 54.5 14.2-14.3 14.2 18-16.7 27.2 10.5 49.6 7.5 39.6h-23.6l11.2 35.3-16.1 11.1 6.2 17.4-14.9-7.5-7.4 16.1 24.8 63.8 27.2 10.5-16.1 19.2 30.9-6.8-5.5 18.6 10.5-11.8-13.6 27.3 21.6 61.3 81.1 29.7 26.6-13 5.6 21 32.2 16.8-1.3 1.2-39.6-26-37.1 4.9-14.2-19.1-14.9 9.9-34.7-18.6-30.9-55.1 11.8-26.7-29.7-8.6-3.1-7.4-9.9-41.5-6.8 10.5-1.9-2.5-17.3-67.5 34.6-30.9-24.1-17.4v-39l11.7-1.2-53.2-189.5 24.8-164.7-24.2-22.3-1.8-3.1-7.4-56.3 49.5-52-8.1-65.1 27.9-20.4 8-3.1 27.2 13-29.7-9.9-32.1 21.1 9.2 64.4-45.1 52.6 24.1 77.4 29.7-57.6 99-93.5 90.4-18.6 108.3 2.5 58.2 21.1 52.6 76.7-17.4 4.4 8.1 34 59.4 81.1-13.6 1.3 19.8 35.9-5 27.2 27.9-1.2 6.2-38.4 29.1 1.2 35.9-29.1 33.4 0.7 29.7 24.1-68.7-195-42.7-68.8-67.5-13.6-18.5-31.6-16.1 26.7-34.7-13-0.6-17.4 18.6 9.9 7.4-17.9 19.2 19.8-1.3-29.1-67.4 16.7-14.9-11.1-11.7 23.5-14.9-51.4-25.4 16.1-92.8-37.2-66.8 57.6z"
       style="fill:#808080;opacity:1" />
    <path
       id="Path 3"
       fill-rule="evenodd"
       class="s0"
       d="m787 367.2l34.6 13 16.7 32.8-35.2-34.7-34.7 3.7zm-115.1 105.3l21.7 5-14.3 11.7zm-347.8 38.4l45.2 22.9-60.7-6.2z"
       style="fill:#000000;opacity:1" />
    <path
       id="Path 4"
       class="s1"
       d="m326.5 533.7l27.3 8.7-24.2 9.3z"
       style="fill:#ffffff;opacity:1" />
    <path
       id="Path 5"
       fill-rule="evenodd"
       class="s2"
       d="m470.1 48.9l22.3 22.3-34.1 18zm203.7 55.7l14.2 21-21.1 5.6-6.1-18.6zm0 58.2l14.2 27.3-19.2-5.6zm59.4 6.8l14.9 21.7-18-9.6zm-3.1 12.1l-3.1 12.1 2.5-12.4zm-318.1 100.6l65.6 22.3-52 19.8 89.1 36.5h-64.9l-42.7 56.4-39-6.2 8.6-16.1-29.7-3.7-10.5-35.3-74.3-24.2 5-25.4 11.8 12.4 19.1-16.7zm337.3 151.1l53.9 39.6-9.3 10.5-45.2-32.2zm-367 47.7l44 39-34.7-9.3zm-61.3 102.8l11.2 29.1-27.3 3.7zm27.3 4.4l30.9 9.9-35.3 3.1zm156 159.1l-37.1-5.6-18 19.2 0.6-15.4-14.2 8-23.5-29.1-19.8 14.9 1.2-16.8 27.2-7.4-24.1-26.6-55.1 14.9v-29.2l96.6-41.4 41.4 22.3 28.5-11.8-6.8 9.9 20.4 6.8 34.7-19.8-16.7 13.6 13 21.1-8.7 49.5-19.2 5.6-0.6 23.5zm113.2-84.2l5 44.6-17.3 6.2zm-31 51.4l-21.6 26-8.7-32.8z"
       style="fill:#808080;opacity:1" />
    <path
       id="Path 6"
       fill-rule="evenodd"
       class="s0"
       d="m427.4 287.9l40.2 18-47 22.3 86.6 30.9-45.8-3.7-38.3 18-12.4-10.6-14.2 26.7-32.8 0.6-19.8-32.2-57-36.5zm-40.2 105.8l19.8 5-21.7 6.2zm139.9 281.7l16.7 11.2-12.4 4.9z"
       style="fill:#000000;opacity:1" />
    <path
       id="Path 7"
       class="s1"
       d="m425.5 638.4h27.3l21 32.8 24.2-13-1.9 19.8 32.8 7.4-5 21.7 16.1-3.7-3.7 18-45.8 22.3-59.4-9.3-7.4-21.7 27.2-22.3-53.2-12.4v-21z"
       style="fill:#ffffff;opacity:1" />
  </g>
</svg>
