<?xml version="1.0" encoding="UTF-8" standalone="no"?>
<svg
   version="1.2"
   viewBox="0 0 770 1000"
   width="770"
   height="1000"
   id="svg1"
   sodipodi:docname="debord.svg"
   inkscape:version="1.4 (1:1.4+202410161351+e7c3feb100)"
   xmlns:inkscape="http://www.inkscape.org/namespaces/inkscape"
   xmlns:sodipodi="http://sodipodi.sourceforge.net/DTD/sodipodi-0.dtd"
   xmlns="http://www.w3.org/2000/svg"
   xmlns:svg="http://www.w3.org/2000/svg">
  <defs
     id="defs1" />
  <sodipodi:namedview
     id="namedview1"
     pagecolor="#505050"
     bordercolor="#ffffff"
     borderopacity="1"
     inkscape:showpageshadow="0"
     inkscape:pageopacity="0"
     inkscape:pagecheckerboard="1"
     inkscape:deskcolor="#505050"
     inkscape:zoom="0.81"
     inkscape:cx="384.5679"
     inkscape:cy="500"
     inkscape:window-width="1920"
     inkscape:window-height="1012"
     inkscape:window-x="0"
     inkscape:window-y="0"
     inkscape:window-maximized="1"
     inkscape:current-layer="svg1" />
  <title
     id="title1">debord</title>
  <style
     id="style1">
		.s0 { fill: #7f7f7f } 
		.s1 { fill: #010101 } 
		.s2 { fill: #ffffff } 
	</style>
  <g
     id="img1">
    <path
       id="Path 0"
       fill-rule="evenodd"
       class="s0"
       d="m413.5 4c7.9 0.5 12.8 1.8 40.5 10.9 17.3 5.6 35.3 11.1 40 12.2 4.7 1.1 10 2.4 11.8 3 2.6 0.7 3.4 1.6 4.2 4.9 0.5 2.2 1.5 5.8 2 8 0.8 3.2 1.5 4 3.2 4 1.3 0 5-0.9 8.3-2 3.3-1.1 7-2 8.2-2 1.3 0 3.3 0.5 4.5 1.1 1.3 0.6 6.1 5.1 19.3 18.7l6 0.6c3.3 0.3 10.3 1.5 25 4.9l60 44.5 15.6 19.9c8.5 10.9 19.1 24.5 23.5 30.3 4.5 5.8 8.5 11.2 8.9 12 0.7 1.1 0.1 1-2-0.4-1.7-1.1-6.4-4.5-10.5-7.7-4.1-3.1-11.3-8.7-16-12.3-4.7-3.7-9.5-7.3-10.8-8.1-2-1.3-2.6-1.3-6 0.4-2 1.1-7.3 4.4-11.7 7.5-4.4 3-8.1 5.2-8.3 4.8-0.1-0.4-2.4-10.4-5-22.3-2.6-11.9-4.9-21.9-5.2-22.1-0.3-0.3-7.5-4.4-31.5-17.7l-3.3 5c-1.7 2.7-3.4 4.9-3.7 4.9-0.3 0-1.6-2.4-2.9-5.2-1.4-2.9-2.3-5.6-2-6 0.2-0.5 6.4-0.8 26.9-0.8l-20-20-19-4.5c-18.2-4.3-19.1-4.5-20.8-2.8-1.1 1-4.1 4.8-6.8 8.6-2.7 3.7-5.1 6.7-5.4 6.7-0.3 0-0.5-4.6-0.4-10.2 0-5.7 0-10.8 0-11.3-0.1-0.5-2.8 2.7-6.1 7.3-3.3 4.5-6.3 8.2-6.7 8.2-0.5 0-6.4-10-13.2-22.2-6.8-12.3-12.6-22.5-12.9-22.8-0.2-0.3-4.8-1.5-10.1-2.7-5.3-1.3-27.8-6.4-50.1-11.4-22.3-5-40.7-9.3-41-9.5-0.3-0.3 0.3-1.2 1.3-2.2 1.1-1 4-1.9 7.5-2.2 3.1-0.3 9.7-0.3 14.7 0zm-191 35.1c0.6 0-0.3 1-1.9 2.2-1.6 1.2-12.4 8.2-24 15.6-11.6 7.3-29.4 18.6-39.6 24.9-10.2 6.3-27.5 17.2-38.5 24.2-11 7-21.6 13.5-27 16.4l2.5-3.2c1.4-1.7 10.6-10.6 20.5-19.9 10-9.2 20.1-18.4 22.5-20.4 2.5-2 6.3-4.6 8.5-5.7 2.2-1.2 6.5-3 9.5-4 3-1.1 18.6-7.8 34.5-15.1 15.9-7.3 29.7-13.6 30.5-14.1 0.8-0.5 1.9-0.9 2.5-0.9zm170.8 69c2 0 3.9 0.2 4.2 0.7 0.2 0.4-1.1 2.3-3.1 4.2-1.9 1.9-3.4 3.8-3.4 4.3 0 0.4 4.7 3.4 10.5 6.7 5.8 3.3 10.5 6.2 10.5 6.5 0 0.3-2.8 1.9-6.3 3.6-5.2 2.7-5.9 3.3-4.2 3.9 1.1 0.4 5.4 1.1 9.5 1.4 4.1 0.4 10.2 1.2 13.5 1.7 3.3 0.5 6.7 1.2 7.5 1.4 1.1 0.4-0.3 2.4-4.8 7-3.4 3.6-6 7.1-5.9 7.8 0.2 0.6 4.7 2.8 10.1 4.7 5.3 1.9 9.6 3.8 9.6 4.3 0 0.4-5 3.1-11 6-6.1 2.8-11 5.4-11 5.7 0 0.3 3.1 0.2 6.8-0.2 3.7-0.4 6.8-0.6 6.9-0.5 0.1 0.1 0.7 7.4 1.4 16.2 0.6 8.8 1.3 16.2 1.6 16.5 0.2 0.3 1-0.3 1.6-1.2 0.7-0.9 5.5-8.5 10.7-16.8 7.1-11.2 10-15 11.5-15 1.1 0 4.9 1.1 8.5 2.4 3.6 1.3 8.2 3.1 10.2 4 2.1 0.9 3.8 1.8 3.8 2.1 0 0.3-0.9 4.2-2 8.8-1.1 4.5-1.9 8.3-1.8 8.4 0.2 0.1 3.9-1.3 8.3-3.1 4.4-1.9 9.7-4.1 15.5-6.6l1.1 5.8c0.6 3.1 1.5 6.4 1.9 7.2 0.7 1.1 1.4 0.4 2.9-3 1.1-2.5 3.5-8.1 5.5-12.5 1.9-4.4 3.8-8.1 4.3-8.3 0.4-0.1 1.7 2.8 2.7 6.5 1 3.8 2.2 7.2 2.7 7.8 0.4 0.6 5.8 1.4 12.1 1.8 6.2 0.5 13 1.2 18.7 2.2l-4.3 9.5c-2.4 5.2-4.1 9.8-3.7 10.3 0.3 0.4 4.4 2 9.1 3.6 4.7 1.5 8.6 3.2 8.8 3.7 0.1 0.5-2.9 3.7-6.8 7.2-3.8 3.4-7 6.6-7 7.2 0 0.6 4.4-0.6 9.7-2.5 5.4-1.9 9.9-3.5 10-3.5 0.2 0 0.3 1.8 0.3 4 0 2.2 0.3 4 0.7 4 0.5 0 1.5-4.4 3.8-19.4l15.5-5.3c8.5-3 16.2-5.7 17-6.2 1.1-0.6 2.4-7.1 4.8-24.2 1.8-12.9 3.5-23.6 3.8-23.9 0.2-0.3 0.7-0.1 1.1 0.4 0.5 0.4 1.8 6.3 3 13 1.2 6.6 2.5 15.7 3.5 28.1l-6.7 7.5c-3.7 4.1-9.3 10.3-12.4 13.8-3.1 3.4-5.4 6.5-5.1 6.8 0.3 0.2 5.3-1 11.2-2.8 6-1.8 11-3.1 11.3-2.8 0.3 0.3-1.6 1.9-4.3 3.6-2.6 1.7-5.2 3.7-5.9 4.5-0.9 1.1-0.4 7.8 2 29.2 1.8 15.2 3.5 27.7 3.9 27.7 0.5 0 3.4-5.5 6.7-12.3 3.2-6.7 8.7-18.5 12.1-26.2 3.4-7.7 7.3-16.4 11-24.5l-18.5-19.1 3.5-20.6c1.9-11.3 3.8-20.7 4.2-20.9 0.5-0.2 9 9.9 37.3 45.5l12-18.4c6.6-10.1 12.2-18.4 12.5-18.5 0.3 0 3.9 4.4 8.2 9.7 4.2 5.4 8.1 10.9 8.6 12.3 0.5 1.4 1.9 8.1 3.1 15 1.1 6.9 3.6 25.6 5.6 41.5 1.9 15.9 4.4 36.4 7.6 62l-3.1 40c-1.7 22-3.7 46.1-4.5 53.5-0.9 7.4-2 16.2-2.6 19.5-0.5 3.3-1.6 8-2.4 10.5-0.8 2.5-2.6 5.6-4 7-2 2-2.6 2.2-2.9 1-0.3-0.8-1.4-10.9-2.6-22.5-1.1-11.6-3.2-31.4-4.5-44-1.4-12.6-2.7-24.5-3-26.3-0.5-2.9-0.7-3.1-2.4-1.9-1 0.6-3.5 2.6-9.2 7.2l-3.7-4.5c-2-2.5-5.9-6.9-8.7-9.8-2.7-2.9-5.3-5.3-5.8-5.2-0.4 0-0.9 2.4-1.2 5.3-0.3 2.8-1 5.9-1.4 6.7-0.7 1.1-1.9-0.5-8.8-14.5l-4.5 7c-2.5 3.9-5.3 7.6-6.2 8.3-1.4 1-2.3 0.3-6.4-5.3-2.6-3.6-4.8-6.5-5-6.5-0.1 0-4.2 5.2-18.2 23l-4 28.5 6.2 6.5c3.5 3.6 10 10.3 22.9 23.5l5.4 57c3 31.4 5.7 57.2 5.9 57.5 0.2 0.3 1.6-3.1 3-7.5 1.4-4.4 4.8-15.9 7.6-25.5 2.7-9.6 4.8-17.6 4.5-17.8-0.3-0.1-1.4 1.6-2.5 3.8-1.1 2.2-2.5 4.2-3 4.5-0.5 0.3-1-0.2-1-1 0-0.8 0.9-5.4 2-10.2 1.2-4.9 2.5-9.1 3-9.5 0.6-0.5 0.8-0.6 0.5-0.3-0.3 0.3 0 1.1 0.5 1.8 0.6 0.6 1.6 2 2.3 3.1 1.1 1.7 1.5 1.7 7.5-1.3 3.4-1.7 6.4-3 6.6-2.8 0.2 0.1-5.6 18-13 39.7-7.4 21.7-13.7 39.8-14.1 40.3-0.5 0.4-6-10.6-12.3-24.4-6.3-13.8-12.1-25.5-12.7-26-0.9-0.6-13.6 3.9-71.8 26.8l-14.1 17.4c-7.7 9.6-14.4 17.4-14.9 17.4-0.4 0-1.9-4.3-3.2-9.5-1.3-5.2-2.5-9.6-2.6-9.8-0.1-0.1-5.9-1-12.8-2-7-0.9-13.1-2-13.5-2.4-0.5-0.4 0.5-1.3 2.1-1.9 1.6-0.6 30.5-10.7 64-22.5 33.5-11.8 61.5-22 62.1-22.7 0.6-0.7 1.6-8.7 2.3-18.2 0.6-9.4 1.1-18.4 1.2-20 0-2.4-4.1-8.3-38.8-54l-1.2-38c-0.6-20.9-1.1-40.9-1.1-44.5 0-3.6-0.3-6.1-0.7-5.7-0.4 0.5-4.2 18-8.3 39-4.2 21-8 38.1-8.5 38-0.6-0.1-1.6-2.1-2.3-4.5-0.7-2.4-6.9-24.6-13.8-49.3-7-24.8-12.9-45.6-13.3-46.3-0.4-0.9-3.1 1.8-7.6 7.6-3.9 4.9-10.4 13.3-14.5 18.6-4.1 5.4-7.8 9.4-8.2 8.9-0.3-0.4 0.2-5.7 1.3-11.8 1-6.1 1.9-11.9 1.9-13 0-1.3-0.3-1.6-0.9-1-0.5 0.6-4.5 6.6-16.9 26l-8.8 2.6c-4.9 1.5-9.2 2.5-9.7 2.3-0.4-0.2 1.8-3.1 4.8-6.4 3-3.3 5.5-6.4 5.5-7 0-0.6-1.4-0.4-3.3 0.4-1.7 0.8-8.6 4-15.2 7.1-6.6 3.2-15.6 7.4-20 9.5-4.4 2.1-9.1 4.1-10.5 4.5-1.5 0.3-11.6-1.3-24.5-3.9-12.1-2.5-28.3-5.9-50-10.5l-28.5 8c-15.7 4.4-37.3 10.5-67.5 19.2l-23.5-1.2c-12.9-0.6-36.8-1.9-53-2.8-16.2-0.9-36.2-1.6-59.4-1.8l-2.3 9.7c-2.2 9.4-2.2 9.9-0.6 12.1 1 1.3 9.7 11.2 19.3 22.1 9.6 10.8 17.6 20.1 17.7 20.6 0.2 0.6-3.9 4.7-9.1 9.2-8.4 7.4-9.3 8.5-8.3 10.3 0.6 1.1 5.7 8.1 11.3 15.5 5.6 7.4 14.7 18.9 30.1 37.5l7.4 1.9c4.1 1 20 5.2 63.4 16.7l3.5 4.1c1.9 2.3 7.9 9.8 13.2 16.7 7.6 9.8 10.3 14.2 12.2 19.6 1.3 3.9 4.7 13.4 12.6 35.5l-14 6.5 0.5 4c0.3 2.2 1.7 17.5 3 34 1.3 16.5 2.9 38.8 4.7 69l-17 32 5.1 3.5c2.9 2 13.6 9.3 42.7 29l18.7-6.4c10.4-3.5 23.2-7.8 28.5-9.5 5.4-1.7 10.2-2.9 10.8-2.6 0.6 0.3-1.6 4-4.8 8.2-3.1 4.3-13.3 17.7-22.7 29.8-9.4 12.1-21.1 27.3-26 33.8-4.9 6.4-8.8 11.9-8.5 12.1 0.3 0.3 14 1.9 30.5 3.6 16.5 1.7 32.9 3.4 43 4.2l5.1-6.3c2.9-3.5 6.2-7.3 9.5-10.4l17.9 18c9.9 9.9 17.6 18.3 17.2 18.7-0.4 0.5-25.5 1.1-55.9 1.5-30.3 0.5-55.5 1.1-56 1.6-0.4 0.4 1.6 5.4 4.4 11.2 2.9 5.8 5.4 10.5 5.5 10.5 0.2 0 10 1.8 21.8 4 11.8 2.2 21.6 4.1 21.8 4.3 0.1 0.1-2.8 3.1-6.5 6.7-3.8 3.6-8.8 8.2-11.3 10.2-3.2 2.7-6.1 4-10 4.7-3 0.6-14.5 2.2-25.5 3.6-11 1.3-31.3 3.8-45 5.5-13.8 1.7-28.5 3.5-32.8 4-7 0.9-7.7 1.2-7.7 3.3 0 1.2 1 5.3 2.1 9.2 1.1 3.9 3.6 12 5.6 18 1.9 6 4.3 11.5 5.2 12.2 0.9 0.7 3.6 1.5 6.1 1.8 2.5 0.2 18 1.9 34.5 3.5 16.5 1.7 41.2 4.2 55 5.6 13.7 1.4 27 2.8 29.5 3.2 2.5 0.4 4.4 1.2 4.3 1.7-0.1 0.6-8 4.1-34.8 14.6l-7-1.1c-3.9-0.5-25.2-3.3-47.5-6.1-22.3-2.8-42.8-5.5-45.5-6-2.9-0.6-6.1-2-7.5-3.3-1.4-1.4-7-5-12.5-8.2-7.5-4.3-12.3-8.1-19-14.8-5-5-9.6-10.2-10.2-11.6-0.7-1.4-4.9-9.5-9.4-18-4.5-8.5-16.6-31.3-45.8-85.5l-24.2-100 1.1-12c0.6-6.6 1.4-13.5 1.8-15.3 0.6-2.8 1.9-4.1 7.7-7.6 3.9-2.4 10.5-6.5 22.7-14.1l-5.3-2.6c-3-1.5-13.5-6.3-23.4-10.7-9.9-4.4-23.3-10.3-29.8-13.1-6.4-2.8-12.2-5.1-12.7-5.1-0.6 0-1 3.3-1 7.8 0 4.2-0.7 26.6-1.5 49.7-0.8 23.1-1.4 43.8-1.4 46 0 2.2-0.3 3.8-0.6 3.5-0.3-0.3-3-17.6-6-38.5-3-20.9-6-40.7-6.6-44-0.5-3.3-4.8-17.5-9.4-31.5-4.6-14-9.5-30.7-11-37-1.5-6.3-4-16.5-5.6-22.5-1.5-6-7.9-27.2-14-47-6.2-19.8-11.4-37.1-11.6-38.5-0.2-1.5 0.8-4.6 2.4-7.5 1.6-2.7 3.2-4.9 3.8-4.8 0.5 0.1 3.2 12.4 6 27.3 2.7 14.9 5.4 27.2 5.9 27.3 0.5 0.1 1.4-1.6 2.1-3.8 0.7-2.2 3.8-12.5 6.9-23 3.1-10.5 5.5-19.4 5.3-20-0.2-0.6-5.9-3.5-12.6-6.5-10.7-4.8-12.1-5.7-11.5-7.5 0.4-1.1 3.1-7.2 6.1-13.5 3-6.3 6.5-14.1 10.3-23l-12.1-41.8c-6.6-22.9-14.2-48.9-16.9-57.7-2.6-8.8-7.8-26.4-11.4-39-3.6-12.6-7.7-27.7-9.2-33.5-1.7-7-2.4-11.8-2-14.5 0.3-2.2 2.4-7.8 4.6-12.5 2.3-4.7 11.1-21.6 19.6-37.5 8.5-15.9 17-31.7 18.9-35 1.9-3.3 3.5-5.8 3.5-5.5 0 0.3-2 5.2-4.4 11-2.4 5.8-11.6 27.4-36.8 85.5l1.2 5.5c0.7 3 7.5 28.4 15.1 56.5 7.7 28.1 17.1 62.4 20.9 76.3 3.9 13.8 7.3 25.2 7.7 25.2 0.5 0.1 4.7-9.1 9.4-20.2 4.8-11.2 13.1-30.9 18.4-43.8 5.4-12.9 10.5-24.3 11.4-25.4 0.9-1 2.7-2.4 4.1-3.1 1.4-0.7 12.6-5.4 47.5-19.4l48 8.5c26.4 4.6 49 8.4 50.2 8.4 2 0 2.6-1.1 4.9-8.8 1.5-4.8 6.6-16.7 11.5-26.5 4.9-9.7 8.9-18.1 8.9-18.7 0-0.6-1.6-1.3-3.6-1.8-2-0.4-3.7-1.1-3.7-1.7-0.1-0.6 2.7-1.1 6.3-1.2 3.6-0.2 8-0.5 9.7-0.8 3-0.4 3.7-1.3 7.2-8.3 2.1-4.2 6.4-13.8 9.6-21.2 3.2-7.4 6-13.7 6.2-14 0.1-0.3 0.6-0.3 0.9 0 0.3 0.3-1.1 8.6-3.1 18.5-2 9.9-3.3 18.1-3 18.2 0.3 0.2 9.2-8 19.7-18.1 10.6-10.2 19.6-18.3 20-18 0.5 0.2 0.8 4.2 0.8 8.9 0 6.1 0.3 8.5 1.2 8.5 0.7 0 3.8-0.7 12.3-3.2l8-14.1c4.4-7.7 8.4-14.2 9-14.4 0.6-0.2 0.1 5.5-1.1 14-1.2 7.8-2 14.3-1.8 14.4 0.2 0.2 4.3-1.8 9.1-4.4 4.9-2.5 12.7-7 26.3-15.3l-1.5-6.8c-0.8-3.7-3.5-15.1-6-25.5-3.9-16.3-4.7-18.6-6.3-18.1-0.9 0.3-11 7.3-22.5 15.5-11.4 8.2-20.9 14.7-21.2 14.4-0.3-0.3 7.4-7.6 17-16.3 9.7-8.6 17.5-16 17.5-16.5 0-0.4-0.2-0.7-0.5-0.7-0.3 0-5 2.2-10.5 5-5.5 2.7-10.2 4.8-10.5 4.5-0.3-0.3 0.3-1.6 1.2-2.9 1-1.3 7.4-9.3 14.2-17.7 7.7-9.6 11.9-15.5 11-15.7-0.8-0.2-6.8 0.6-13.4 1.7-6.6 1.2-13.2 2.1-14.8 2.1-2.6 0-2.6 0.1-1.2 2.2 1.1 1.7 1.4 4.7 1 22.1l-10 2.8c-5.5 1.6-10.1 2.6-10.3 2.4-0.1-0.3 3.7-8 8.5-17.2 4.9-9.1 9.4-16.8 10-17 0.7-0.1 1.4 0.5 1.6 1.4 0.2 1.3 3-0.8 10.3-8 9.6-9.6 9.8-9.9 6.4-9.3-1.9 0.3-5.2 1-7.3 1.6-2.8 0.8-3.7 0.7-3.7-0.3 0.1-0.6 2.9-6.6 12.5-25.2l11.5-1.1c6.3-0.6 13.2-1.2 15.2-1.3zm314.2 347.6c0.6 0.3-2.1 3.7-6.4 7.9-4.1 4.1-7.8 7.4-8.3 7.4-0.4 0-0.5-0.9-0.2-2 0.3-1.1 0.2-2-0.3-2-0.4 0-2.5 0.7-4.7 1.5-2.2 0.9-4.2 1.3-4.5 1-0.3-0.3-0.3-0.7 0-0.9 0.3-0.3 5.6-3.4 11.9-7 6.2-3.6 11.9-6.2 12.5-5.9zm-182.2 459.3c0.5 0 0.8 0.3 0.8 0.7 0 0.5-5.1 5.9-22.5 23.4l-25.5 10c-14 5.5-32.6 12.7-41.3 16-8.6 3.2-16 5.7-16.5 5.4-0.4-0.3-0.5-0.7-0.2-0.9 0.3-0.2 17.6-9.3 38.5-20.2 20.9-10.8 44.3-23 52-27 7.7-4.1 14.3-7.4 14.7-7.4z"
       style="fill:#808080;opacity:0.99999999" />
    <path
       id="Path 1"
       class="s1"
       d="m381.5 12.5l-6 3.3-106 1.4c-16.3 8.2-24.1 11.7-28 13.3-3.9 1.5-9.3 3.9-12 5.3-2.8 1.5-6.6 3.8-8.5 5.3-1.9 1.5-12.9 8.6-24.5 15.9-11.6 7.3-29.3 18.5-39.5 24.8-10.2 6.3-27.5 17.2-38.5 24.2-11 7-21.3 13.4-23 14.2-1.7 0.9-7.7 5.8-13.5 11-5.8 5.2-13.9 13.4-18.1 18.4-4.1 4.9-9 11.2-10.9 13.9-1.9 2.8-5.3 9.7-7.5 15.5-2.3 5.8-12.2 28.9-22 51.5l-17.7 41c1.9 8.5 8.7 33.9 16.3 62 7.7 28.1 17.1 62.4 20.9 76.3 3.9 13.8 7.3 25.2 7.8 25.2 0.4 0.1 4.6-9.1 9.3-20.2 4.8-11.2 13.1-30.9 18.4-43.8 5.4-12.9 10.5-24.3 11.4-25.4 0.9-1 2.7-2.4 4.1-3.1 1.4-0.7 12.6-5.4 25-10.3l22.5-9.1c74.4 13.1 97 16.9 98.3 16.9 1.9 0 2.5-1.1 4.8-8.7 1.5-4.9 6.6-16.8 11.5-26.5 4.9-9.8 8.9-18.2 8.9-18.8 0-0.6-1.6-1.3-3.6-1.7-2-0.5-3.5-1.2-3.5-1.8 0-0.6 2.9-1.1 6.3-1.2 3.5-0.2 7.8-0.5 9.6-0.8 2.9-0.4 3.6-1.3 7.1-8.2 2.1-4.3 6.4-13.9 9.6-21.3 3.2-7.4 6-13.7 6.2-14 0.1-0.3 0.6-0.3 0.9 0 0.3 0.3-1.1 8.6-3.1 18.5-2 9.9-3.3 18.1-3 18.3 0.3 0.1 9.2-8.1 19.8-18.2 10.5-10.2 19.5-18.3 20-18 0.4 0.2 0.7 4.2 0.7 8.9 0 6.1 0.3 8.5 1.3 8.5 0.6 0 3.7-0.7 6.7-1.6l5.5-1.6c12.4-21.8 16.4-28.3 17-28.5 0.6-0.2 0.1 5.5-1.1 14-1.2 7.8-2 14.3-1.8 14.4 0.2 0.2 4.3-1.8 9.2-4.4 4.8-2.5 12.6-7 17.5-10l8.7-5.3c-2.3-10.5-5-21.9-7.5-32.3-3.9-16.3-4.7-18.6-6.2-18.1-1 0.3-11.1 7.3-22.5 15.5-11.5 8.2-21 14.7-21.3 14.4-0.3-0.3 7.4-7.6 17-16.3 9.7-8.6 17.5-16 17.5-16.5 0-0.4-0.2-0.7-0.5-0.7-0.3 0-5 2.2-10.5 5-5.5 2.7-10.2 4.8-10.5 4.5-0.3-0.3 0.3-1.6 1.3-2.9 0.9-1.3 7.3-9.3 14.1-17.7 7.7-9.6 11.9-15.5 11-15.7-0.8-0.2-6.8 0.6-13.4 1.7-6.6 1.2-13.2 2.1-14.7 2.1-2.7 0-2.7 0.1-1.3 2.2 1.1 1.7 1.4 4.7 1.3 12.2l-0.3 9.9c-15.5 4.4-20.1 5.4-20.2 5.2-0.2-0.3 3.6-8 8.5-17.2 4.8-9.1 9.3-16.8 10-17 0.6-0.1 1.3 0.5 1.5 1.4 0.2 1.3 3-0.8 10.3-8 9.6-9.6 9.8-9.9 6.4-9.3-1.9 0.3-5.2 1-7.2 1.6-2.9 0.8-3.8 0.7-3.8-0.3 0.1-0.6 2.9-6.6 6.3-13.2l6.2-12c22.5-2 29.7-2.3 30.5-2 1.2 0.4 0.6 1.4-2.2 4.3-2.1 2-3.8 4-3.8 4.4 0 0.5 4.7 3.5 10.5 6.8 5.8 3.3 10.5 6.2 10.5 6.5 0 0.3-2.8 1.9-6.2 3.6-5.3 2.7-6 3.3-4.3 3.9 1.1 0.4 5.4 1.1 9.5 1.4 4.1 0.4 10.2 1.2 13.5 1.7 3.3 0.5 6.7 1.2 7.5 1.4 1.1 0.4-0.3 2.4-4.7 7-3.5 3.6-6.1 7.1-6 7.7 0.2 0.7 4.7 2.9 10.1 4.8 5.3 1.9 9.6 3.8 9.6 4.2 0 0.5-5 3.2-11 6-6.1 2.9-11 5.5-11 5.8 0 0.3 3.1 0.2 6.8-0.2 3.7-0.4 6.8-0.6 6.9-0.5 0.1 0.1 0.7 7.4 1.4 16.2 0.6 8.8 1.3 16.2 1.6 16.5 0.2 0.3 1-0.3 1.6-1.2 0.7-0.9 5.5-8.5 10.7-16.8 7.1-11.2 10-15 11.5-15 1.1 0 4.9 1.1 8.5 2.4 3.6 1.3 8.2 3.1 10.3 4 2 0.9 3.7 1.8 3.7 2.1 0 0.3-0.9 4.2-2 8.7-1.1 4.6-1.9 8.4-1.8 8.5 0.2 0.1 3.9-1.3 8.3-3.1 4.4-1.9 9.7-4.1 11.8-5l3.7-1.6c1.7 8.9 2.6 12.2 3 13 0.7 1.1 1.4 0.4 2.9-3 1.1-2.5 3.5-8.1 5.5-12.5 1.9-4.4 3.8-8.1 4.3-8.3 0.4-0.1 1.7 2.8 2.7 6.5 1 3.8 2.2 7.2 2.7 7.8 0.4 0.6 5.8 1.4 12.1 1.8 6.2 0.5 13 1.2 15 1.5l3.7 0.7c-6.7 14.7-8.4 19.3-8 19.8 0.3 0.4 4.4 2 9.1 3.6 4.7 1.5 8.6 3.2 8.8 3.7 0.1 0.5-2.9 3.7-6.8 7.1-3.8 3.5-7 6.7-7 7.3 0 0.6 4.4-0.6 9.8-2.5 5.3-1.9 9.8-3.5 10-3.5 0.1 0 0.2 1.8 0.2 4 0 2.2 0.3 4 0.8 4 0.4 0 1.4-4.4 2.2-9.7l1.5-9.7c24-8.3 31.7-11 32.5-11.5 1.1-0.6 2.4-7.1 4.8-24.2 1.8-12.9 3.5-23.6 3.8-23.9 0.2-0.3 0.7-0.1 1.2 0.4 0.4 0.4 1.7 6.3 2.9 13 1.2 6.6 2.5 15.7 2.9 20.1l0.6 8c-10.4 11.6-16 17.8-19.1 21.3-3.1 3.4-5.4 6.5-5.1 6.8 0.3 0.2 5.3-1 11.2-2.8 6-1.8 11-3.1 11.3-2.8 0.3 0.3-1.6 1.9-4.3 3.6-2.6 1.7-5.2 3.7-5.9 4.5-0.9 1.1-0.4 7.8 2 29.2 1.8 15.2 3.5 27.7 4 27.7 0.4 0 3.3-5.5 6.6-12.3 3.2-6.7 8.7-18.5 12.1-26.2 3.4-7.7 7.3-16.4 8.6-19.3l2.4-5.2-18.5-19.1c5.4-31.9 7.3-41.3 7.8-41.5 0.4-0.2 8.9 9.9 19 22.5l18.2 23c18.2-27.4 23.4-36.2 23.5-37.2 0-0.9-0.6-1.9-1.2-2.1-0.7-0.2-5.8-3.7-11.3-7.9-5.5-4.1-13.8-10.5-18.5-14.1-4.7-3.7-9.5-7.3-10.7-8.1-2.1-1.3-2.7-1.3-6 0.4-2.1 1.1-7.4 4.4-11.8 7.5-4.4 3-8.1 5.2-8.3 4.8-0.1-0.4-2.4-10.4-5-22.3-2.6-11.9-4.9-21.9-5.2-22.1-0.3-0.3-7.5-4.4-16-9.1l-15.5-8.6c-5 7.7-6.7 9.9-7 9.9-0.3 0-1.6-2.4-2.9-5.2-1.4-2.9-2.3-5.6-2-6 0.2-0.5 6.4-0.8 13.7-0.8h13.2l-20-20c-37.2-8.8-38.1-9-39.8-7.3-1.1 1-4.1 4.8-6.8 8.6-2.7 3.7-5.1 6.7-5.4 6.7-0.3 0-0.5-4.6-0.4-10.2 0-5.7 0-10.8 0-11.3-0.1-0.5-2.8 2.7-6.1 7.3-3.3 4.5-6.3 8.2-6.7 8.2-0.5 0-6.4-10-13.2-22.2-6.8-12.3-12.6-22.5-12.9-22.8-0.2-0.3-5.7-1.7-12.1-3.2-6.4-1.5-28.7-6.6-49.6-11.3-20.9-4.7-38.9-8.5-40-8.4-1.1 0.1-4.7 1.6-8 3.4zm274.3 336c-2.5 3.9-5.3 7.6-6.2 8.2-1.4 1.1-2.3 0.4-6.4-5.2-2.6-3.6-4.8-6.5-5-6.5-0.1 0-4.2 5.2-9.2 11.5l-9 11.5-4 28.5c9.7 10.1 16.2 16.8 20.8 21.5l8.3 8.5c8.4 88.4 11.1 114.2 11.3 114.5 0.2 0.3 1.6-3.1 3-7.5 1.4-4.4 4.8-15.9 7.6-25.5 2.7-9.6 4.8-17.6 4.5-17.8-0.3-0.1-1.4 1.6-2.5 3.8-1.1 2.2-2.5 4.2-3 4.5-0.5 0.3-1-0.2-1-1 0-0.8 0.9-5.6 2-10.5 1.1-5.1 2.4-8.8 3-8.5 0.5 0.3 0.8-0.2 0.5-1-0.3-1 0.9-2.4 3.5-4 2.2-1.4 4.6-2.5 5.2-2.5 0.7 0 2.4-0.9 3.8-2 1.4-1.2 7-4.6 12.5-7.7 5.5-3.1 10.5-5.7 11-5.7 0.5-0.1 2-1 3.2-2.1 1.1-1.1 1.9-2.7 1.7-3.5-0.2-0.8-1.3-10.7-2.4-22-1.1-11.3-3.2-30.9-4.5-43.5-1.4-12.6-2.7-24.5-3-26.3-0.5-2.9-0.7-3.1-2.4-2-1 0.7-3.5 2.7-5.5 4.3l-3.7 3c-5.7-7-9.6-11.4-12.4-14.3-2.7-2.9-5.3-5.3-5.8-5.2-0.4 0-0.9 2.4-1.2 5.2-0.3 2.9-1 6-1.4 6.8-0.7 1.1-1.9-0.5-4.9-6.5l-3.9-8zm-621.7 143.3c0 0.4 2.3 13.3 5.2 28.8 2.9 15.4 5.7 28.1 6.2 28.3 0.6 0.1 1.5-1.5 2.2-3.6 0.6-2.1 3.6-12.3 6.8-22.8 3.1-10.5 5.5-19.5 5.2-20-0.2-0.6-5.7-3.4-12.3-6.3-6.5-2.9-12.2-5.2-12.6-5.2-0.4 0-0.7 0.3-0.7 0.7zm60.9 174c0 3.8-0.6 26.8-1.5 51.3-0.8 24.5-1.5 46.1-1.6 48-0.1 2.2 3.4 13.2 9.6 30 5.3 14.6 10.7 27.9 11.8 29.5 1.2 1.6 14.8 18 30.2 36.4 15.4 18.4 36.9 43.9 47.8 56.8 10.9 12.8 20 23.2 20.3 23 0.3-0.1-3.1-7.2-7.6-15.7-4.5-8.5-16.7-31.3-27-50.5l-18.9-35-24.2-100c1.7-18.6 2.5-25.5 2.9-27.3 0.6-2.8 1.9-4.1 8-7.8 4-2.4 10.7-6.5 14.9-9.2l7.6-4.7c-8.3-4.1-18.9-8.9-28.8-13.3-9.9-4.4-23.2-10.3-29.7-13.1-6.5-2.8-12.2-5.1-12.8-5.1-0.5 0-1 2.9-1 6.7zm165.1 315.5c0.2 0.4 3.1 2.7 6.4 5.3 3.3 2.6 7.4 5.4 9 6.2 2 1 8 1.9 17 2.5 7.7 0.5 21.7 1.5 31 2.4 9.4 0.8 20.2 1.8 24 2.1 6.9 0.5 7.1 0.4 10-2.6 2.4-2.4 2.7-3.2 1.5-3.5-0.8-0.3-21.5-3-46-6.1-24.4-3.1-46.5-5.9-48.9-6.2-2.5-0.4-4.3-0.4-4-0.1z"
       style="fill:#000000;opacity:1" />
    <path
       id="Path 2"
       class="s2"
       d="m407.5 1.2c-2.2 0.5-6 1.3-8.5 1.7-3.4 0.6-1.4 0.8 8.3 0.9 11.6 0.2 12.7 0 12.4-1.5-0.2-1.3-1.2-1.8-4.2-2-2.2 0-5.8 0.3-8 0.9zm101.9 31.5c0.3 1 1 3.8 1.6 6.3 0.6 2.5 1.3 5.3 1.6 6.3 0.2 1 1.3 1.7 2.6 1.7 1.3 0 5.1-0.9 8.5-2 3.5-1.1 6.3-2.3 6.3-2.8 0-0.4-4.1-3-9.2-5.7-5.1-2.8-9.9-5.2-10.6-5.3-0.7-0.3-1 0.3-0.8 1.5zm29.1 270.1c-3.9 4.9-10.4 13.3-14.5 18.6-4.1 5.4-7.8 9.4-8.2 8.9-0.3-0.4 0.2-5.8 1.3-11.8 1-6.1 1.9-11.9 1.9-13 0-1.3-0.3-1.6-0.9-1-0.5 0.5-4.5 6.6-8.9 13.5l-8 12.5c-13.7 4.1-18 5.1-18.5 4.9-0.4-0.2 1.8-3.1 4.8-6.4 3-3.3 5.5-6.5 5.5-7 0-0.6-1.4-0.4-3.3 0.4-1.7 0.8-8.6 4-15.2 7.1-6.6 3.2-15.6 7.4-20 9.5-4.4 2.1-9.1 4.1-10.5 4.5-1.5 0.3-11.6-1.3-24.5-3.9-12.1-2.5-28.3-5.9-36-7.5l-14-3c-44.2 12.4-65.8 18.5-76.5 21.6l-19.5 5.6c-36.4-1.8-60.3-3.1-76.5-4-16.2-0.9-36.2-1.6-44.5-1.7l-14.9-0.1c-4.5 19.1-4.5 19.6-2.9 21.8 1 1.3 9.7 11.2 19.3 22.1 9.6 10.8 17.6 20.1 17.7 20.6 0.2 0.6-3.9 4.7-9.1 9.2-8.4 7.4-9.3 8.5-8.3 10.3 0.6 1.1 5.7 8.1 11.3 15.5 5.6 7.4 14.7 18.9 20.2 25.5l9.9 12c11.5 2.9 27.4 7.1 42.8 11.2l28 7.4c5.4 6.4 11.4 13.9 16.7 20.8 7.6 9.8 10.3 14.2 12.2 19.6 1.3 3.8 4.7 13.4 7.5 21.2l5.1 14.3-14 6.5c0.8 6.2 2.2 21.5 3.5 38 1.3 16.5 2.9 38.8 3.5 49.5l1.2 19.5-17 32c8 5.5 18.7 12.8 29 19.8l18.8 12.7c29.1-9.9 41.9-14.2 47.2-15.9 5.4-1.7 10.2-2.9 10.8-2.6 0.6 0.3-1.6 4-4.8 8.2-3.1 4.3-13.3 17.7-22.7 29.8-9.4 12.1-21.1 27.3-26 33.8-4.9 6.4-8.8 11.9-8.5 12.1 0.3 0.3 14 1.9 30.5 3.6 16.5 1.7 32.9 3.4 36.5 3.7l6.5 0.5c8-9.8 11.3-13.6 12.4-14.7l2.2-2c27.8 27.9 35.5 36.3 35.1 36.7-0.4 0.5-25.5 1.1-55.9 1.5-30.3 0.5-55.5 1.1-56 1.6-0.4 0.4 1.6 5.4 4.4 11.2 2.9 5.8 5.4 10.5 5.5 10.5 0.2 0 10 1.8 21.8 4 11.8 2.2 21.6 4.1 21.8 4.3 0.1 0.1-2.8 3.1-6.5 6.7-3.8 3.6-8.8 8.2-11.3 10.2-3.2 2.7-6.1 4-10 4.7-3 0.6-14.5 2.2-25.5 3.6-11 1.3-31.3 3.8-45 5.5-13.8 1.7-28.5 3.5-32.8 4-7 0.9-7.7 1.2-7.7 3.2 0 1.3 1 5.4 2.1 9.3 1.1 3.8 3.6 11.9 5.6 18 1.9 6 4.3 11.5 5.2 12.2 0.9 0.7 3.6 1.5 6.1 1.8 2.5 0.2 18 1.9 34.5 3.5 16.5 1.7 41 4.2 54.5 5.5 13.5 1.4 28.1 3.1 32.5 3.7 7.8 1.1 8.2 1 13.2-1.5 2.9-1.5 5.5-3.2 5.8-3.7 0.3-0.6 1.4-1 2.5-1 1.1 0 2.3-0.6 2.7-1.4 0.5-0.8 19.9-11.4 43.3-23.5 23.4-12.2 47-24.3 52.5-27 5.5-2.7 12.4-6 15.4-7.3 3-1.3 6.8-3.9 8.5-5.9 1.7-2 12.3-13.4 23.6-25.5 11.3-12 23-24.6 26-27.9 3-3.3 11.8-14.6 19.5-25l13.9-19c8.8-36.4 13.9-57.8 16.9-71 3.1-13.2 6-25.1 6.5-26.5 0.6-1.5 5.2-5.5 11.3-9.9 5.7-4.1 24.6-16.9 41.9-28.5l31.5-21.1 33.5-89 5.4-67-18.9-40.6c-7.8-2.1-15-4.3-21.2-6.1l-11.1-3.3c-6 5.3-11.5 10.9-16.2 15.7-4.7 4.9-8.8 8.9-9.3 8.8-0.4 0-0.5-0.9-0.2-2 0.3-1.1 0.2-2-0.3-2-0.4 0-4.3 1.3-8.7 2.8-4.4 1.5-9.3 3.5-10.8 4.4l-2.7 1.8c3.1 6.2 4.2 8 4.5 8 0.3 0 3.2-1.4 6.5-3 3.3-1.7 6.2-2.9 6.4-2.8 0.2 0.2-5.6 18.1-13 39.8-7.4 21.7-13.7 39.8-14.1 40.3-0.5 0.4-6-10.6-12.3-24.4-6.3-13.8-12.1-25.5-12.8-26-0.8-0.6-13.5 3.9-36.5 13l-35.2 13.8c-21.8 27-28.6 34.6-29.1 34.4-0.5-0.2-1.9-4.4-3.2-9.5-1.2-5-2.4-9.2-2.5-9.4-0.1-0.1-5.9-1-12.8-2-7-0.9-13.1-2-13.5-2.4-0.5-0.4 0.5-1.3 2.1-1.9 1.6-0.6 30.5-10.7 64-22.5 33.5-11.8 61.5-22 62.1-22.7 0.6-0.7 1.6-8.7 2.3-18.2 0.6-9.4 1.1-18.4 1.2-20 0-2.4-4.1-8.3-19.4-28.5l-19.4-25.5c-1.8-58.9-2.3-78.9-2.3-82.5 0-3.6-0.3-6.1-0.7-5.7-0.4 0.5-4.2 18-8.3 39-4.2 21-8 38.1-8.5 38-0.6-0.1-1.6-2.1-2.3-4.5-0.7-2.4-6.9-24.6-13.8-49.3-7-24.8-12.9-45.6-13.3-46.3-0.4-0.9-3.1 1.8-7.6 7.6z"
       style="fill:#ffffff;opacity:0.99999999" />
    <path
       id="Path 3"
       class="s0"
       d="m404.1 44c-3.4 2.2-6.2 4.4-6.2 5 0.1 0.5 0.3 1 0.6 1 0.3 0 3.1 0.7 6.2 1.5 3.2 0.8 6.6 1.7 7.5 2 1.6 0.4 1.7 0 1.2-3.8-0.3-2.3-0.6-5.4-0.8-7-0.2-1.5-0.7-2.7-1.3-2.7-0.5 0-3.7 1.8-7.2 4zm-62 23.3c-5.2 2.3-9.6 4.8-9.8 5.4-0.2 0.9 0.8 1.2 3.4 0.8 2.1-0.2 9.4-0.7 16.3-1 6.9-0.3 12.8-0.9 13.2-1.3 0.4-0.4-2-2.4-5.5-4.4-3.4-2.1-6.7-3.7-7.2-3.7-0.6 0-5.2 1.9-10.4 4.2zm-54.5 2.7c-0.3 0.5 0.5 3.5 1.9 6.5l2.5 5.5c10.5-5.6 14.2-7.8 15-8.5 1.3-1.1 0.2-1.5-7-2.5-4.7-0.6-9.2-1.3-10.1-1.6-0.9-0.3-2 0-2.3 0.6zm58.2 15.1c-6.2 4.9-11.5 9.5-11.7 10.1-0.4 0.9 0.1 1.1 1.5 0.5 1-0.5 7.3-2.8 13.9-5.2 6.6-2.3 13.2-4.8 14.7-5.4 1.6-0.6 2.8-1.3 2.8-1.5 0-0.2-2.2-2-5-3.9l-4.9-3.5zm188.2 49.4c0 0.3 1.6 2.5 3.5 5 1.9 2.5 3.7 4.2 4 3.8 0.2-0.5-1-2.7-2.8-5.1-1.8-2.3-3.6-4.2-4-4.2-0.4 0-0.7 0.2-0.7 0.5zm-68 8.5c-3.6 1.6-6.6 3.3-6.8 3.9-0.1 0.7 2.8 1.3 7.5 1.7 4.3 0.3 12.6 1.1 18.5 1.8 5.9 0.6 10.7 0.8 10.5 0.3-0.1-0.4-4.9-3-10.7-5.7-5.8-2.7-11-4.9-11.5-4.9-0.6 0-3.9 1.3-7.5 2.9zm72 6.7c-1.9 2.8-3.3 5.5-3.2 6.1 0.1 0.7 1.1 1 2.4 0.6 1.3-0.4 3.7-1.4 5.5-2.3l3.2-1.6-4.4-7.7zm6.1 7c-0.6 1-2.8 6.4-5.1 12-2.2 5.7-3.7 10.4-3.3 10.6 0.4 0.2 4.9-0.4 10-1.2 6.9-1.2 9.3-2 9.2-3.1 0-0.9-2-5.7-4.5-10.8-2.4-5.1-4.7-9.2-4.9-9.2-0.3 0-0.9 0.8-1.4 1.7zm-244.4 17.9c-2.5 3.8-8.4 13.6-13.2 21.9-4.7 8.2-8.4 15.2-8.1 15.5 0.3 0.2 10.1-3.6 21.6-8.5 11.6-5 21.3-9.6 21.5-10.3 0.3-0.7-3.5-6.7-8.4-13.3l-8.8-12.1zm-52.6 71.3c-3.4 5.5-6.2 11-6.2 12.3 0 1.2 0.7 4.7 1.6 7.7 0.9 3 1.9 6 2.2 6.5 0.3 0.6 0.9-0.1 1.4-1.5 0.5-1.4 2.4-8.6 4.2-16 1.9-7.4 3.6-14.7 3.8-16.2 0.3-1.6 0.2-2.8-0.2-2.8-0.3 0-3.4 4.5-6.8 10zm495.7 238c0 0.8-0.6 8-1.3 16-0.8 8-1 15.2-0.6 16 0.4 0.8 3.1 3.1 6 5 4.4 3 5.3 3.3 6.1 2 0.6-0.8 0.8-5.1 0.6-9.5-0.3-6.6-1.1-9.8-4.7-18.5-2.4-5.8-4.7-10.9-5.2-11.5-0.5-0.6-0.8-0.4-0.9 0.5zm-61.7 58.8c-2.2 3.7-4.4 7.7-5.1 9-0.6 1.2-1.1 2.8-1.1 3.5 0 0.6 5.5 3.5 12.2 6.4 6.8 2.8 13.5 5.4 15 5.7 1.6 0.4 2.8 0.4 2.8 0.1 0-0.3-1.7-3.5-3.9-7.2-2.1-3.8-6.4-10.7-9.5-15.5-3.1-4.9-5.8-8.8-6.1-8.8-0.2 0-2.2 3-4.3 6.8z"
       style="fill:#808080;opacity:1" />
    <path
       id="Path 4"
       class="s1"
       d="m417.2 191.7c-0.5 1-1.5 5.9-2.2 10.8-0.7 4.9-1.1 9.7-0.8 10.5 0.3 1.1 2.6-0.6 7.9-5.7l7.4-7.1c-4.6-5-7.2-7.3-8.7-8.3-2.5-1.9-2.7-1.9-3.6-0.2zm249.6 36.1l-6.6 6.7c3.9 25.6 5.3 33.4 5.7 33.8 0.3 0.5 2.2 0.2 4.1-0.7 1.9-0.8 4.5-2.6 5.8-3.8l2.3-2.3c-2.4-29.4-3.1-38.6-3.1-39.2 0-0.7-0.3-1.3-0.8-1.3-0.4 0-3.7 3-7.4 6.8zm-514.8 269.4v8.3c-15.1 2.7-27.8 5.1-38 7-10.2 1.9-18.6 3.6-18.7 3.7-0.1 0.2-1.4 5.7-2.9 12.3-2.1 9.9-2.4 12.1-1.3 12.8 0.8 0.4 7.2 0.4 14.4 0.1 7.1-0.3 14.1-1.1 15.4-1.8 1.5-0.7 4.8-5.2 8.5-11.8 3.4-5.8 6.5-11.2 7.1-11.8 0.7-0.9 5.2-0.1 17.5 3 9.1 2.4 25 6.5 35.5 9.2 18.7 5 19.3 5.2 41.5 16.8l22.5 11.8c6.6 25.3 8.3 33.2 8.2 33.7-0.2 0.5-4.9-5.9-10.5-14.2-7.1-10.7-10.9-15.4-12.5-15.8-1.2-0.2-11-1.8-21.7-3.5-10.7-1.6-19.8-3-20.3-3-0.4 0-0.5 1-0.2 2.3l0.5 2.2c-18.2-1.2-25.9-1.9-28.8-2.3-2.9-0.4-5.2-1-5.2-1.4 0-0.5 1.7-1 3.7-1.3 2.1-0.3 4.3-1 5-1.7 0.9-1-0.7-1.6-8-2.6-5.1-0.7-9.9-1.7-10.7-2.2-1.1-0.6-0.2-1.4 3.7-3.4 2.9-1.4 5.2-2.8 5-3.1-0.1-0.3-8.1 1-17.7 3-9.6 2-20 4.1-23 4.8l-5.5 1.2c-3.3 17.8-4.4 24.6-4.4 26.5-0.1 3.3 0.3 3.7 6.2 6.8 3.4 1.8 14.7 7.8 25.2 13.2 10.4 5.5 19.3 10 19.7 10 0.5 0 8.4-7.4 17.8-16.5 14.4-14 17.3-16.4 19.2-15.8 1.3 0.3 10.4 4 20.3 8 9.9 4.1 18.8 7.7 19.7 7.9 1 0.2 1.8 0.9 1.8 1.4 0 0.5-4.2 4-9.3 7.6-5 3.7-10.2 7.6-11.4 8.8l-2.2 2.1c13.6 17.8 20.2 26.2 23.3 30 3.2 3.9 6.1 7.1 6.4 7.3 0.4 0.2 5.3-4.7 10.9-10.7 5.7-6.1 10.5-10.8 10.7-10.3 0.2 0.4-2.7 9.2-6.6 19.7-3.8 10.5-6.7 19.7-6.6 20.4 0.2 0.8 5.5 3.6 11.8 6.2 8.1 3.4 11.7 4.4 12.2 3.6 0.3-0.7 2.7-22.8 5.3-49.2l4.7-48c-19.6-38-26.3-50.3-27.6-52-1.9-2.5-4.5-3.7-15.7-7.3-7.4-2.4-22.6-7.2-33.9-10.9-11.3-3.6-29.4-9.4-40.3-12.9-10.8-3.5-19.9-6.4-20.2-6.4-0.3 0-0.5 3.7-0.5 8.3zm241 14.8c-13.5 5.5-25.5 10.4-26.8 11-1.2 0.5-2.2 1.4-2.2 1.9 0 0.6 5.2 1 13.5 1h13.5c-0.9 4.3-1.4 7.4-1.8 9.8l-0.7 4.3q13.9-6.2 23-10.3c6-2.7 15.6-7 21.3-9.6 5.7-2.6 10.2-5.1 10-5.5-0.2-0.5-4.8-3.3-10.3-6.2-5.5-3-11.1-5.6-12.5-5.9-1.7-0.4-9.9 2.5-27 9.5zm16.5 34c-3.9 2.2-13.3 7.5-21 11.6-7.7 4.1-14.3 7.8-14.7 8.2-0.4 0.3 1.9 4.2 5.1 8.6 4.3 5.9 6.6 8.2 8.7 8.7 1.6 0.3 14 1.5 27.6 2.5 24.5 1.8 24.6 1.8 26.8-0.2 1.2-1.1 4.8-5.9 8.1-10.7 3.2-4.9 5.9-9.3 5.9-9.8 0-0.5-0.1-1-0.3-1-0.1 0-8.5-1.6-18.7-3.5-10.2-1.9-19-3.9-19.5-4.5-0.6-0.5 0.1-1.5 2.2-2.7 1.7-1 5.3-3.1 8-4.7l4.8-2.9c-7-2.1-10.6-3-12.5-3.2-2.8-0.4-4.9 0.3-10.5 3.6zm-160.6 139.2l-11.4 10.4c-11.2 40.1-14.8 53.2-15.1 54.8-0.4 2.2 2.2 11.3 9.9 35l10.6 32c12.9 5.8 16.4 7.8 16.1 8-0.3 0.3-12 2.3-26 4.5-14 2.1-30.6 4.7-36.8 5.7-6.2 1-11.2 2.1-11.2 2.6 0 0.4 2.1 1.1 4.7 1.7 2.7 0.5 15.6 3 28.8 5.5 13.2 2.5 26.9 5.2 30.5 6 3.6 0.7 14.4 2.8 24 4.5 9.6 1.7 19.7 3.2 22.5 3.2 2.7 0.1 16-1.5 29.5-3.6 13.5-2 28.8-4.3 34-5.1 5.2-0.8 20.7-3.1 34.5-5.1 13.7-2 25.9-4 27-4.5 1.2-0.5-16.1-0.6-41-0.2l-43 0.6c-12.4-4-24.3-8.1-34.5-11.6-10.2-3.6-19.3-6.8-20.3-7.1-1.4-0.5-0.3-2.3 6.5-10.8 4.5-5.7 10.9-13.4 14.2-17.3 3.2-3.8 6-7.2 6.2-7.5 0.2-0.3 4.3 3.2 9.1 7.7 4.8 4.5 9 8.3 9.3 8.3 0.3 0 0.9-4.4 1.3-9.7 0.4-5.4 1.1-12.6 1.5-15.9l0.7-6.2c-11.6-3.3-23.4-7-33.8-10.2-18.1-5.8-18.8-6.1-22.1-10.2-1.9-2.4-7.5-9.5-12.4-15.8-4.9-6.3-9.7-11.6-10.8-11.8-1-0.2-4.9 1.1-8.7 2.7-3.7 1.7-7.2 3.1-7.7 3.1-0.6 0-0.9-0.4-0.8-0.8 0.2-0.5 6.3-12.2 13.5-26 7.3-13.9 13.2-25.7 13-26.2-0.2-0.6-5.5 3.6-11.8 9.3zm-5.9 185.5c0.1 0.4 2.2 3.2 4.8 6.2 2.6 2.9 9.5 10.7 15.4 17.2 7.7 8.4 11.5 11.8 13 11.8 1.3 0 9.7-1.1 18.8-2.6 9.1-1.4 23.9-3.8 33-5.4 9.1-1.5 19.5-3.4 23.3-4.2 3.7-0.7 6.7-1.6 6.7-2 0-0.5-2.4-1.2-5.3-1.8-2.8-0.5-16.2-3-29.7-5.5-13.5-2.6-36.7-6.9-51.5-9.6-14.9-2.7-27.3-4.9-27.8-4.9-0.4 0-0.7 0.3-0.7 0.8z"
       style="fill:#000000;opacity:1" />
    <path
       id="Path 5"
       class="s2"
       d="m426.9 281.7c-4.6 4.2-15.6 14.4-24.4 22.7-8.8 8.3-16.1 15.4-16.2 15.8-0.2 0.5-0.2 0.8 0 0.8 0.1 0 8.3-3.1 18.2-7 9.9-3.9 18.1-6.9 18.3-6.8 0.1 0.2-1.4 2.4-3.3 5.1-1.9 2.6-3.4 4.9-3.2 5.1 0.1 0.3 9.2 2.9 20.2 6 11 3 20.5 5.2 21 4.8 0.5-0.3 7.1-5.1 14.5-10.5 7.4-5.4 14.2-10.5 15-11.2 1.3-1.2 1.3-1.6 0-3.1-0.8-0.9-9.3-8-18.9-15.7-16.6-13.3-17.4-13.8-19-12-0.9 1-6.5 7.9-12.5 15.3-6 7.4-11.1 13.7-11.3 14-0.2 0.3-0.5 0.3-0.8 0-0.3-0.3 2.2-6.8 5.6-14.5 3.3-7.7 6.3-14.3 6.5-14.7 0.2-0.5 0-1-0.5-1.2-0.4-0.3-4.6 3-9.2 7.1zm-249.4 269.4c-4.4 1-9.5 2.2-11.3 2.6-1.8 0.5-3.2 1-3.2 1.3 0 0.3 2.3 0.8 5.2 1.2 2.9 0.4 10.3 1.1 16.5 1.5 11.1 0.8 11.2 0.8 11-1.4-0.1-1.1-0.4-1.9-0.7-1.7-0.3 0.2-1.8-1-3.5-2.7-1.6-1.6-3.7-2.9-4.5-2.8-0.8 0-5.1 0.9-9.5 2zm-81.5 47.9v29c16.7 15.5 21.6 19.4 21.8 18.8 0.2-0.7-2-10.1-4.8-20.8-2.8-10.7-7.1-26.9-9.6-36-2.5-9.1-4.7-17.3-4.9-18.2-0.3-1-0.9-1.8-1.5-1.8-0.6 0-1 10.3-1 29zm161.5-0.3c1.1 2.3 1.8 2.7 4 2.3 1.9-0.4 2.5-1 2.3-2.5-0.2-1.5-1.2-2.1-4-2.3l-3.7-0.3z"
       style="fill:#ffffff;opacity:1" />
  </g>
</svg>
