<?xml version="1.0" encoding="UTF-8" standalone="no"?>
<svg
   version="1.2"
   viewBox="0 0 986 1500"
   width="986"
   height="1500"
   id="svg1"
   sodipodi:docname="engels.svg"
   inkscape:version="1.4 (86a8ad7, 2024-10-11)"
   xmlns:inkscape="http://www.inkscape.org/namespaces/inkscape"
   xmlns:sodipodi="http://sodipodi.sourceforge.net/DTD/sodipodi-0.dtd"
   xmlns="http://www.w3.org/2000/svg"
   xmlns:svg="http://www.w3.org/2000/svg">
  <defs
     id="defs1" />
  <sodipodi:namedview
     id="namedview1"
     pagecolor="#505050"
     bordercolor="#eeeeee"
     borderopacity="1"
     inkscape:showpageshadow="0"
     inkscape:pageopacity="0"
     inkscape:pagecheckerboard="0"
     inkscape:deskcolor="#505050"
     inkscape:zoom="0.55"
     inkscape:cx="493.63636"
     inkscape:cy="750"
     inkscape:window-width="1920"
     inkscape:window-height="1027"
     inkscape:window-x="1912"
     inkscape:window-y="-8"
     inkscape:window-maximized="1"
     inkscape:current-layer="svg1" />
  <title
     id="title1">engels</title>
  <style
     id="style1">
		tspan { white-space:pre }
		.shp0 { opacity: 0.984;fill: #ffffff } 
		.shp1 { opacity: 0.996;fill: #000000 } 
		.shp2 { opacity: 0.976;fill: #7f7f7f } 
		.shp3 { fill: #7f7f7f } 
	</style>
  <g
     id="Background">
    <path
       id="Path 0"
       class="shp0"
       d="M391 1.64C389.07 2.51 371.3 9.86 351.5 17.99C331.7 26.12 294.13 41.56 268 52.3C241.88 63.05 219.06 72.43 217.3 73.17C214.8 74.21 210.02 80.3 195.46 101C185.21 115.58 168.2 139.84 157.67 154.92L138.51 182.34C73.4 214.72 54.17 224.43 53.76 224.81C53.35 225.19 41.09 313.02 26.5 420C11.92 526.98 -0.01 616.3 -0.01 618.5C0 621.89 3.09 627.74 20.32 657C31.5 675.98 61.71 727.27 87.47 771C113.23 814.73 135.31 852.08 136.54 854L138.79 857.5C86.18 961.83 75 985.05 75 987C75 988.65 77.25 1008.11 80 1030.25L85 1070.5L85 1146.5L118 1146C118.1 1167.42 118.47 1172.62 118.9 1171.5C119.33 1170.4 121.67 1159.7 124.09 1147.73C126.52 1135.75 128.78 1126.08 129.12 1126.23C129.46 1126.38 136.8 1135.95 145.43 1147.5L161.12 1168.5C168.86 1208.03 171.28 1219.72 171.48 1220C171.68 1220.28 174.13 1213.41 176.92 1204.75L182 1189L213.5 1210.17C214.46 1200.35 216.84 1189.17 219.41 1179C221.98 1168.83 224.31 1159.83 224.57 1159C224.91 1157.98 216.65 1150.69 198.5 1136C183.89 1124.17 172.07 1114.39 172.22 1114.25C172.37 1114.12 185.89 1111.76 202.25 1109C218.61 1106.25 232.79 1104.01 233.75 1104.03C235.27 1104.05 234.82 1106.11 230.26 1119.78C227.37 1128.42 225.12 1135.57 225.26 1135.64C225.39 1135.72 234.05 1137.19 244.5 1138.9C254.95 1140.61 268.9 1142.93 275.5 1144.06C282.1 1145.19 288.06 1145.86 288.75 1145.56C289.44 1145.25 294.52 1135.89 300.04 1124.75L310.08 1104.5L342.96 1071.5C382.96 1051.52 385.01 1050.26 385.01 1048C385 1046.63 382.79 1029.97 380.09 1011C377.38 992.02 375.38 976.27 375.63 976C375.89 975.73 380.8 977.86 386.55 980.75L397 986L397 996C412.5 988.25 417.4 985.21 417.88 984.25C418.36 983.29 420.34 977.33 422.27 971C424.21 964.67 433.3 935.2 442.48 905.5C451.67 875.8 459.56 850.83 460.02 850C460.77 848.67 460.92 848.67 461.35 850C461.61 850.83 463.94 864.55 466.52 880.5C469.09 896.45 471.38 909.61 471.6 909.75C471.82 909.89 483.92 902.91 498.5 894.25L524.99 878.5L525.07 814.5L493 793L493 782L471.5 771.26L493.5 760.03L524.5 759.98L556.71 781.5C608.14 730.83 610 728.76 610 725.5C610 723.58 607.75 699.27 605 671.5L600 621L600 525L632.5 492.63L686.5 471L760 471C794.1 479.52 806.25 482 809 482C812.34 482 814 481.58 814 480.75C813.99 480.06 811.71 458.8 808.93 433.5C806.15 408.2 804.09 386.38 804.36 385C804.62 383.63 811.78 366.52 820.26 347L835.68 311.5C827.46 278.18 825.06 268.39 825.04 268.25C825.02 268.11 817.24 260.9 807.75 252.22C798.26 243.54 771.15 218.72 747.5 197.07C723.85 175.42 702.7 156 700.5 153.91L696.5 150.11L600 193C567.06 187.49 552.55 185.07 546.5 184.05C537.38 182.53 533.75 181.34 525.25 177.11L515 172L416.5 172L268.5 214.15L214 268.5L182.11 364.5C174.96 448.2 172.63 477 172.32 482.5L171.76 492.5C138.62 558.76 128.78 578 128.5 578C128.22 578 123.28 575.75 117.5 573C107.29 568.14 107.04 567.94 108.34 565.75C109.08 564.51 115.88 553.15 123.46 540.5C131.04 527.85 139.89 512.21 143.12 505.75C146.35 499.29 148.78 494 148.5 494C148.22 494 134.28 500.75 117.5 509C100.72 517.25 86.55 524 86 524C85.45 524 84.99 522.76 84.99 521.25C84.98 519.74 82.77 491.73 80.08 459C77.38 426.27 75.41 399.05 75.71 398.5C76 397.95 83.13 404.48 91.54 413C106.65 428.31 106.84 428.46 107.4 425.5C107.72 423.85 110.23 409.23 112.98 393L117.98 363.5L128.87 340.5C136.72 285.48 139 269.16 139 268.75C139 268.34 146.31 267.89 155.25 267.75L171.5 267.5C215.68 214.61 246.27 179.74 267.99 155.88C289.71 132.02 312.77 106.76 319.24 99.75C325.71 92.74 331.01 86.44 331.02 85.75C331.03 85.06 328.99 80 326.48 74.5C323.96 69 322.04 64.41 322.2 64.3C322.37 64.2 327.23 63.39 333 62.51C338.77 61.64 347.1 60.28 351.5 59.49C357.42 58.43 360.15 57.41 362 55.59C364.43 53.19 364.72 53.14 372 54.12C379.15 55.08 382.9 54.59 452.75 43.56C493.04 37.2 527.91 31.98 530.25 31.96C532.59 31.94 551.38 34.23 572 37.04L609.5 42.16L632.5 53.28C663.36 45.7 672.47 43.05 672.65 42.5C672.83 41.95 654.42 32.17 631.74 20.77L590.5 0.03C405.73 0.08 394.1 0.26 391 1.64Z"
       style="fill:#ffffff;opacity:1" />
    <path
       id="Path 1"
       class="shp1"
       d="M521.5 33.3C520.4 34.03 503.98 41.26 485 49.37L450.5 64.11C400.13 57.66 380.77 55.38 375 54.88C365.18 54.03 364.37 54.11 362.5 55.97C361.4 57.06 359.82 57.95 359 57.95C358.18 57.95 357.73 58.17 358 58.45C358.27 58.73 351.94 65.61 343.92 73.73C335.91 81.85 322.59 95.92 314.33 105C306.06 114.08 282.45 139.95 261.85 162.5C234.13 192.84 224.38 204.15 224.33 206C224.29 207.38 222.15 221.32 219.56 237C216.97 252.68 215.12 265.73 215.46 266C215.8 266.27 227.89 254.69 242.33 240.25C256.78 225.81 269.13 214 269.8 214C270.46 214 270.89 213.6 270.75 213.1C270.61 212.61 282.09 202.93 296.25 191.6L322 171C392.52 171 412.82 171.34 412.6 171.75C412.37 172.16 435.21 172.37 463.35 172.21L514.5 171.91C534.34 181.63 538.37 183.13 538.83 182.36C539.2 181.73 572.58 174.62 613 166.57C653.42 158.51 688.3 151.75 690.5 151.55C692.7 151.34 695 151.02 695.62 150.84C696.23 150.65 717.6 169.63 743.11 193C768.61 216.38 797.47 242.81 807.24 251.75C821.9 265.17 825.17 268.65 825.97 271.75C826.5 273.81 828.8 283.15 831.07 292.5C835.04 308.81 835.64 310.35 845.86 330.5L856.5 351.5C856.94 306.82 857.29 301.01 858.25 301.05C858.94 301.08 866.25 305.7 874.5 311.3L889.5 321.5C905.31 376.52 910.14 393.4 910.43 394.5C910.91 396.3 909.31 397.04 894.73 401.81C885.8 404.73 878.44 406.98 878.36 406.81C878.29 406.64 873.5 397.05 867.74 385.5L857.25 364.5L836 407C852.09 519.76 856.48 552.85 856.13 553.28C855.78 553.72 846.26 537.97 834.97 518.28L814.45 482.5C803.64 481.55 791.39 478.97 780.25 476.14L760 471L686.5 471C645.42 487.43 633.05 492.39 632.5 492.61C631.95 492.84 631.42 494.03 631.33 495.26C631.24 496.49 624.62 519.1 616.63 545.5C608.64 571.9 601.62 593.61 601.05 593.75C600.38 593.91 599.99 599.17 599.97 608.25C599.96 616.09 600.29 622.17 600.72 621.76C601.15 621.35 601.95 621.39 602.5 621.85C603.05 622.31 609.58 624.67 617 627.08C624.42 629.49 630.89 631.48 631.37 631.48C631.85 631.49 641.76 617.33 653.39 600L674.54 568.5L782 568L782 600C792.46 601.58 806.98 603.96 821 606.32C841.2 609.7 846.45 610.89 846.25 612.05C846.11 612.85 838.91 636.98 830.25 665.67L814.5 717.85C805.2 724.41 800.25 727.96 797.5 729.98C794.75 732 780.85 741.94 766.6 752.08C752.36 762.21 740.52 770.95 740.28 771.5C740.05 772.05 742.15 788.92 744.95 809C747.74 829.08 750.36 845.79 750.77 846.14C751.17 846.5 757.97 848.97 765.88 851.64C773.79 854.31 780.43 856.84 780.63 857.25C780.83 857.66 771.77 862.61 760.5 868.25L739.99 878.5C740 933.37 739.73 939.93 738.75 939.66C738.06 939.47 725.91 913.71 711.73 882.41C697.56 851.11 685.97 824.83 685.98 824C685.98 823.17 688.24 809.23 691 793C693.76 776.77 696.01 762.71 696.01 761.75C696 760.79 689.19 750.89 680.86 739.75C668.24 722.89 665.6 718.75 665.02 715L664.32 710.5C661.21 717.48 659.1 723.33 657.62 728C656.14 732.67 654.6 737.1 654.21 737.84C653.64 738.9 649.34 738.14 633 734.1C621.73 731.31 611.94 729.02 611.25 729.02C610.56 729.01 598.01 740.81 583.35 755.25L556.71 781.5L524.5 759.98L493 760L493 793L525 782C525.02 805.64 525.36 813 525.77 813.6C526.17 814.21 539.1 818.87 554.5 823.97C569.9 829.07 583.96 833.86 585.75 834.62C588.73 835.89 589 836.37 589 840.5C589 842.98 589.45 845 590 845C590.55 845 600 838.25 611 830C622 821.75 631.34 815 631.75 815C632.16 814.99 634.82 831.53 637.66 851.75C640.5 871.96 642.64 888.61 642.41 888.75C642.19 888.89 637.5 886.75 632 884C626.5 881.25 621.89 878.98 621.75 878.96C621.61 878.94 616.77 885.93 611 894.5C605.23 903.07 600.05 910.06 599.5 910.04C598.95 910.02 584.66 903.03 567.75 894.5C550.84 885.98 536.77 879 536.5 879C536.23 879 536 888.45 536 900C536 916.16 535.71 920.99 534.75 920.95C534.06 920.92 526.98 918.72 519 916.06C511.02 913.39 504.22 911.5 503.87 911.86C503.53 912.21 501.11 919.02 498.49 927C495.87 934.98 493.57 941.84 493.37 942.25C493.16 942.66 483.55 938.27 472 932.5C460.45 926.73 450.77 922 450.5 922C450.23 922 443.64 934.71 435.86 950.25C428.09 965.79 421 979.03 420.11 979.67C418.67 980.72 418.48 986.6 418.26 1036.67L418.02 1092.5C413.74 1094.62 396.75 1101.94 377.5 1110.14L342.5 1125.05C319.64 1109.51 312.36 1104.89 311.57 1104.75C310.62 1104.58 306.71 1111.35 299.87 1125C294.23 1136.28 289.52 1145.95 289.42 1146.5C289.32 1147.05 284.46 1168.76 278.62 1194.75C272.78 1220.74 268 1242.22 268 1242.5C268 1242.78 258.44 1238.25 246.75 1232.43C229.62 1223.91 225.28 1222.12 224.36 1223.18C223.73 1223.91 218.89 1230.91 213.61 1238.75C208.32 1246.59 204.11 1253.17 204.25 1253.38C204.39 1253.59 213.95 1256.1 225.5 1258.96L246.5 1264.15C265.11 1311 267.76 1316.74 268.65 1315.76C269.29 1315.07 280.27 1298.08 293.06 1278C305.84 1257.92 322.08 1232.5 329.14 1221.5C336.2 1210.5 342.09 1201.12 342.24 1200.66C342.38 1200.2 356.45 1202.14 373.5 1204.96C390.55 1207.79 404.98 1209.97 405.57 1209.8C406.26 1209.61 404.96 1201 401.88 1185.5C399.27 1172.3 397.1 1160.49 397.06 1159.25C397 1157.01 397.06 1157 413 1157L429 1157C428.21 1162.04 425.75 1183.53 423.02 1208C420.29 1232.47 418.27 1252.61 418.53 1252.75C418.79 1252.89 428.34 1248.32 439.75 1242.59L460.5 1232.18C469.02 1273.15 471.73 1285.03 472 1285.02C472.27 1285.02 479.48 1278.05 488 1269.54C496.52 1261.03 503.27 1253.86 503 1253.6C502.73 1253.35 493.5 1248.6 482.5 1243.05C471.5 1237.49 462.12 1232.4 461.66 1231.73C461.17 1231.01 462.97 1215.8 465.94 1195.5C468.77 1176.25 471.28 1160.28 471.54 1160C471.79 1159.72 472.16 1159.72 472.36 1160C472.56 1160.28 479.59 1181.2 487.97 1206.5L503.22 1252.5L525 1274.5C525 1167.16 525.23 1136 525.5 1136C525.77 1136 530.71 1138.36 536.46 1141.25L546.91 1146.5C546.13 1155.8 543.68 1198.1 540.96 1246.5C538.23 1294.9 536.01 1335.06 536 1335.75C536 1336.44 535.55 1337 535 1337C534.45 1337 527.25 1325.53 519 1311.5L504 1286C494.98 1295.69 475.78 1317.17 455.52 1340C435.26 1362.83 418.64 1381.61 418.59 1381.74C418.54 1381.88 402.75 1386.5 383.5 1392.01C364.25 1397.53 347.25 1402.37 345.73 1402.77L342.95 1403.5L343.01 1382.5C327.49 1398 322.99 1402.84 322.99 1403.25C323 1403.66 327.61 1403.96 333.25 1403.91L343.5 1403.83L407.5 1467.85C440.05 1451.52 449.6 1446.71 449.73 1446.64C449.86 1446.56 447.94 1440.42 445.47 1433C443 1425.58 441.14 1419.05 441.32 1418.5C441.51 1417.95 446.01 1424.03 451.34 1432L461.02 1446.5L525.5 1468C541.42 1452.11 546.26 1447.39 546.52 1447.25C546.78 1447.11 556.56 1458.99 568.25 1473.64L589.5 1500.29C603.45 1499.33 612.9 1498.61 619.5 1498.08C626.1 1497.54 645.45 1496.18 662.5 1495.06C679.55 1493.94 704.52 1492.32 718 1491.46C731.48 1490.6 744.35 1489.58 746.6 1489.2C750.48 1488.54 753.6 1485.4 801.57 1434C829.54 1404.03 863.13 1368.14 876.21 1354.25L900 1329L900 1211C917.05 1185.42 921.82 1177.89 921.59 1177.75C921.37 1177.61 911.93 1133.4 900.62 1079.5C889.3 1025.6 879.7 980.02 879.27 978.21C878.51 974.98 878.25 974.84 862.74 969.71C853.56 966.68 846.99 963.98 846.99 963.25C847 962.56 849.25 950.64 852 936.75C854.76 922.86 857.01 911.39 857 911.25C857 911.11 864.09 911 872.75 911L888.5 911L889.98 817.5L878.72 760.5L910.93 707.5L911.05 663.5C920.04 651.1 932.26 633.77 944.01 617C955.77 600.23 970.03 579.98 975.7 572L986.03 557.5L985.45 534.5C940.03 415.15 919.02 359.8 909.45 334.5C899.87 309.2 886.75 274.49 880.27 257.37L868.5 226.23L686 43C686 71.35 685.71 74.91 684.75 74.6C684.06 74.37 672.48 69.79 659 64.41C645.52 59.04 634.27 54.38 634 54.07C633.73 53.76 628.1 50.95 621.5 47.83L609.5 42.16C551.38 34.23 532.02 31.94 529 31.96C525.98 31.97 522.6 32.58 521.5 33.3Z"
       style="opacity:1;fill:#000000" />
    <path
       id="Path 2"
       class="shp2"
       d="M451 43.72C414.43 49.52 384.27 54.42 384 54.63C383.73 54.83 383.73 55.18 384 55.41C384.27 55.63 399.35 57.68 417.5 59.96L450.5 64.11C503.98 41.28 519.93 34.28 520.45 33.83C521 33.35 520.57 33.04 519.45 33.1C518.38 33.15 487.57 37.93 451 43.72ZM672 43.14C671.17 43.61 662.4 46.02 652.5 48.49C642.6 50.97 634.27 53.22 634 53.5C633.73 53.77 633.73 54.15 634 54.34C634.27 54.52 645.52 59.07 659 64.43C672.48 69.8 684.06 74.37 684.75 74.6C685.72 74.91 685.97 71.29 685.85 58.45L685.69 41.89C676.24 42.2 672.83 42.67 672 43.14ZM350.92 59.41C350.69 59.64 344.2 60.8 336.5 61.98C328.8 63.16 322.37 64.21 322.21 64.31C322.05 64.42 324.05 69.22 326.65 75C329.26 80.78 331.41 85.6 331.44 85.73C331.47 85.85 337.59 79.89 345.04 72.48L358.58 59C352.96 59 351.15 59.19 350.92 59.41ZM614.06 166.23C572.57 174.52 538.71 181.68 538.81 182.15C538.92 182.62 543.16 183.65 548.25 184.45C553.34 185.25 567.06 187.5 578.75 189.45L600 193C670.55 161.61 691.02 152.16 691.02 151.75C691.01 151.34 690.66 151.04 690.25 151.08C689.84 151.13 655.55 157.95 614.06 166.23ZM295.75 191.83C281.59 203.2 270.56 212.63 271.25 212.78C271.94 212.94 303.55 204.23 341.5 193.44C379.45 182.64 411.16 173.18 411.96 172.4C413.22 171.2 406.96 171.01 367.46 171.08L321.5 171.15L295.75 191.83Z"
       style="opacity:1;fill:#808080" />
    <path
       id="Path 3"
       class="shp3"
       d="M825.22 225L825.5 246.5C849.91 246.89 857 246.78 857 246.5C857 246.22 850.21 236.89 841.9 225.75C833.6 214.61 826.39 205.05 825.87 204.5C825.29 203.88 825.05 211.65 825.22 225Z"
       style="fill:#808080" />
    <path
       id="Path 4"
       class="shp2"
       d="M197.4 236.35L171.48 267.5C146.31 267.89 139 268.34 139 268.75C139 269.16 136.75 284.91 134 303.75C131.25 322.59 128.95 339.46 128.89 341.25C128.84 343.04 131.06 353.27 133.83 364L138.88 383.5C138.97 414.89 138.66 424.01 138.25 424.01C137.84 424.02 135.52 417.83 133.11 410.26C130.7 402.69 128.36 395.6 127.91 394.5C127.46 393.4 125.16 386.75 122.8 379.72C120.43 372.7 118.28 366.96 118 366.96C117.72 366.97 115.32 379.7 112.67 395.24C110.01 410.78 107.6 424.63 107.31 426C106.83 428.3 105.54 427.24 91.51 413C83.11 404.48 76 397.95 75.71 398.5C75.41 399.05 77.38 426.27 80.08 459C82.77 491.73 84.98 519.74 84.99 521.25C84.99 522.76 85.45 524 86 524C86.55 524 100.72 517.25 117.5 509C134.28 500.75 148.11 494.02 148.25 494.03C148.39 494.05 153.45 489.1 159.5 483.03C166.58 475.93 170.72 472.44 171.13 473.25C171.62 474.25 171.88 474.25 172.38 473.25C172.72 472.56 175.05 447.81 177.55 418.25L182.11 364.5C206.82 289.71 214.45 267.77 215 267.5C215.55 267.23 215.76 266.21 215.48 265.25C215.19 264.29 217.1 250.53 219.73 234.68C222.35 218.83 224.23 205.71 223.91 205.53C223.58 205.35 211.65 219.22 197.4 236.35ZM856.77 326.25L856.5 351.5C841 320.88 836.27 311.98 836 311.97C835.73 311.96 828.79 327.38 820.59 346.23C812.4 365.08 805.27 381.85 804.75 383.5C804.06 385.69 805.23 399.47 809.08 434.5L814.35 482.5C846.24 537.96 855.78 553.71 856.13 553.28C856.48 552.85 852.09 519.76 846.38 479.75L836 407L857.25 364.5C873.5 397.05 878.29 406.64 878.36 406.81C878.44 406.98 885.8 404.73 894.73 401.81C909.31 397.04 910.91 396.3 910.43 394.5C910.14 393.4 905.31 376.52 899.7 357L889.5 321.5C866.25 305.7 858.95 301.08 858.27 301.05C857.33 301.01 856.97 307.01 856.77 326.25Z"
       style="opacity:1;fill:#808080" />
    <path
       id="Path 5"
       class="shp1"
       d="M122.74 353.75C120.25 359.11 117.94 364.29 117.6 365.25C117.27 366.21 117.34 366.99 117.75 366.97C118.16 366.96 120.5 372.92 122.94 380.22C125.39 387.52 127.86 394.08 128.44 394.8C129.27 395.81 130.55 394.98 134.25 391.05C136.86 388.27 139 385.55 139 385C139 384.45 137.18 376.69 134.95 367.75C132.72 358.81 130.47 349.81 129.95 347.75C129.43 345.69 128.61 344 128.14 344C127.66 344 125.23 348.39 122.74 353.75Z"
       style="fill:#000000;opacity:1" />
    <path
       id="Path 6"
       class="shp0"
       d="M133.5 391.66C130.91 394.23 128.85 396.82 128.91 397.41C128.96 398.01 130.92 404.24 133.26 411.26C135.59 418.27 137.84 424.01 138.25 424.01C138.66 424 139 415.68 139 405.5C139 395.32 138.82 387 138.6 387C138.38 387 136.08 389.1 133.5 391.66Z"
       style="fill:#ffffff;opacity:1" />
    <path
       id="Path 7"
       class="shp3"
       d="M376 461.5C376 461.77 382.86 473.56 391.25 487.69C399.64 501.82 406.39 513.74 406.25 514.19C406.11 514.63 406.56 514.99 407.25 514.98C407.94 514.96 427.18 521.97 450 530.55C472.82 539.14 491.73 546.36 492 546.61C492.27 546.86 488 551.57 482.5 557.07C476.69 562.88 471.87 566.92 471 566.71C470.18 566.51 462.64 561.76 454.25 556.17C439.04 546.03 438.98 546 432.75 545.96C429.31 545.93 410.16 543.57 390.19 540.71C370.22 537.84 353.34 535.83 352.69 536.23C352.04 536.63 351.46 537.53 351.41 538.23C351.36 538.93 349.58 543.1 347.45 547.5C345.32 551.9 342.89 556.39 342.04 557.48C340.74 559.16 340.73 559.29 342 558.3C342.82 557.66 356.1 555.54 371.5 553.59C386.9 551.63 404.9 549.35 411.5 548.52C418.1 547.68 427.21 547 431.75 547L440 547L440 589L503.5 567.5C511.58 520.23 513.83 505.77 513.72 504.88C513.6 503.98 499.46 493.85 482 482.15L450.5 461.04C392.76 461.01 376 461.23 376 461.5ZM53.12 494.7L42.8 525.5L52.98 535.5L53 600L32.5 599.99L52.5 620.05C53.46 602.57 53.81 582.65 53.9 564.5L54.06 531.5C61.58 479.57 63.69 464.37 63.6 464.2C63.52 464.04 58.8 477.77 53.12 494.7Z"
       style="fill:#808080;opacity:1" />
    <path
       id="Path 8"
       class="shp1"
       d="M159.69 482.81C150.74 491.96 148.52 494.94 144.19 503.5L139.15 513.5L150.29 535.5L171.72 492.5C172.62 476.83 172.42 474.19 171.45 473.31C170.41 472.36 168.01 474.3 159.69 482.81Z"
       style="fill:#000000;opacity:1" />
    <path
       id="Path 9"
       class="shp3"
       d="M734.18 503.5L729 514L802.5 513.83C754.45 497.7 740.24 493.02 739.93 493.01C739.62 493 737.03 497.73 734.18 503.5Z"
       style="fill:#808080;opacity:0.99999999" />
    <path
       id="Path 10"
       class="shp2"
       d="M615 509.88L599.75 524.75C599.96 581.71 600.35 594 601 594C601.55 594 603.32 589.61 604.93 584.25C606.55 578.89 612.87 557.85 618.98 537.5C625.09 517.15 630.41 499.26 630.8 497.75C631.19 496.24 631.23 495 630.88 495C630.54 495 623.39 501.69 615 509.88ZM125 537.73C117.58 550.2 110.49 562.11 109.25 564.2L107 568C123.28 575.75 128.22 578 128.5 578C128.78 578 133.78 568.44 139.62 556.75L150.23 535.5C142.3 519.61 139.66 515.01 139.25 515.03C138.84 515.05 132.43 525.26 125 537.73Z"
       style="fill:#808080;opacity:1" />
    <path
       id="Path 11"
       class="shp1"
       d="M382 524.53C369.07 529.72 357.69 534.31 356.7 534.73C355.61 535.2 369.37 537.57 391.7 540.77C411.94 543.67 430.86 546.03 433.75 546.02C438.75 546 439.72 546.48 454.25 556.17C462.64 561.76 470.18 566.51 471 566.71C471.87 566.92 476.69 562.88 482.5 557.07C488 551.57 492.27 546.86 492 546.61C491.73 546.36 472.82 539.14 450 530.55C427.18 521.97 407.82 514.98 407 515.02C406.18 515.06 394.93 519.34 382 524.53ZM32 562.5L32 600L53 600L53.02 535.5C42.76 525.28 42.24 525.02 37.25 525.01L32 525L32 562.5ZM325.5 558.4L300.5 578.59C299.89 588.52 300.07 589.3 301.16 588.38C301.9 587.76 311.61 580.45 322.75 572.13L343 557C348.74 544.99 350.66 540.71 350.97 539.75C351.28 538.79 351.31 538.05 351.02 538.1C350.73 538.16 339.25 547.29 325.5 558.4Z"
       style="fill:#000000;opacity:1" />
    <path
       id="Path 12"
       class="shp2"
       d="M671.78 572.75C669.92 575.36 660.6 589.2 651.07 603.5C641.54 617.8 633.24 630.03 632.62 630.67C631.77 631.56 628.27 630.78 618 627.41C610.58 624.98 603.71 622.53 602.75 621.99C601.79 621.45 600.81 621.34 600.59 621.75C600.36 622.16 602.38 644.77 605.08 672C607.77 699.23 609.98 723.08 609.99 725L610 728.5C643.71 736.72 653.61 738.97 653.74 738.8C653.87 738.64 655.82 733.1 658.06 726.5C660.31 719.9 662.79 713.49 663.57 712.25C664.74 710.41 664.77 709.54 663.75 707.46C663.06 706.07 655.64 695.72 647.25 684.46L632 664C656.8 647.73 664 642.89 664.01 642.75C664.01 642.61 661.76 635.75 659 627.5C656.24 619.25 653.99 612.16 653.99 611.75C654 611.34 665.92 611 680.5 611C701.22 611 706.92 610.73 706.65 609.75C706.45 609.06 704.17 601.98 701.57 594C698.97 586.02 696.99 579.35 697.17 579.17C697.35 578.99 711.45 583.44 728.5 589.05C745.55 594.66 759.81 599.53 760.19 599.87C760.58 600.22 758.5 609.95 755.57 621.5L750.25 642.5L793.23 685.5C744.07 726.58 729.28 738.62 728.65 738.77C728.02 738.92 713.67 734.42 696.76 728.77C679.85 723.12 666.01 718.84 666.01 719.25C666 719.66 672.75 729 681 740C689.25 751 696 760.79 696.01 761.75C696.01 762.71 693.76 776.77 691 793C688.24 809.23 685.98 823.17 685.98 824C685.97 824.83 697.56 851.11 711.73 882.41C725.91 913.71 738.06 939.47 738.75 939.66C739.73 939.93 740 933.37 740 909.25L739.99 878.5C771.77 862.61 780.83 857.66 780.63 857.25C780.43 856.84 773.79 854.31 765.88 851.64C757.97 848.97 751.17 846.5 750.77 846.14C750.36 845.79 747.74 829.08 744.95 809C742.15 788.92 740.05 772.05 740.28 771.5C740.52 770.95 752.36 762.21 766.6 752.08C780.85 741.94 794.75 732 797.5 729.98C800.25 727.96 805.2 724.41 808.5 722.08L814.5 717.85C838.91 636.98 846.11 612.85 846.25 612.05C846.45 610.89 841.2 609.7 821 606.32C806.98 603.96 792.46 601.58 788.75 601.02L782 600L782 568L675.16 568L671.78 572.75Z"
       style="fill:#808080;opacity:1" />
    <path
       id="Path 13"
       class="shp3"
       d="M290.98 587.51C284.67 593.83 279.84 599.01 280.25 599.01C280.66 599 285.28 596.86 290.51 594.25L300.02 589.5C300.04 581.34 300.64 578.86 301.65 577.75C302.53 576.79 303.07 576 302.86 576C302.64 576 297.3 581.18 290.98 587.51Z"
       style="fill:#808080;opacity:1" />
    <path
       id="Path 14"
       class="shp0"
       d="M696.99 579.75C696.99 580.16 699.24 587.25 702 595.5C704.76 603.75 707.01 610.61 707.01 610.75C707 610.89 695.08 611 680.5 611C665.92 611 654 611.34 653.99 611.75C653.99 612.16 656.24 619.25 659 627.5C661.76 635.75 664.01 642.61 664.01 642.75C664 642.89 656.8 647.73 648 653.5L632 664C655.64 695.73 663.06 705.97 663.74 707.22C664.41 708.47 664.98 711.41 664.99 713.75C665 717.97 665.04 718.01 670.25 719.86C673.14 720.89 687.42 725.65 702 730.45C716.58 735.24 728.79 739.02 729.15 738.83C729.5 738.65 744.07 726.58 761.51 712L793.23 685.5L750.25 642.5C758.5 609.95 760.58 600.22 760.19 599.87C759.81 599.53 745.77 594.69 729 589.12C712.23 583.56 698.16 579 697.75 579C697.34 579 697 579.34 696.99 579.75Z"
       style="fill:#ffffff;opacity:1" />
    <path
       id="Path 15"
       class="shp3"
       d="M106.56 648.56L95.61 654.02C95.97 664.33 94.99 668.55 91 680.5C88.24 688.75 85.99 695.61 85.99 695.75C86 695.89 90.61 693.7 96.25 690.89C101.89 688.07 106.61 685.6 106.75 685.39C106.89 685.17 104.75 680.5 102 675C98.03 667.06 97.01 664.02 97.06 660.25L97.12 655.5C104.39 669.85 106.72 674.02 107 674.01C107.28 674.01 109.79 667.03 112.58 658.51C115.37 649.98 117.62 643.02 117.58 643.05C117.54 643.08 112.58 645.56 106.56 648.56Z"
       style="fill:#808080;opacity:1" />
    <path
       id="Path 16"
       class="shp1"
       d="M97.1 660.5C97.1 664.53 98.06 667.35 102 675L106.9 684.5C106.9 675.47 105.94 672.65 102 665L97.1 655.5L97.1 660.5Z"
       style="fill:#000000;opacity:1" />
    <path
       id="Path 17"
       class="shp2"
       d="M481.83 765.84L471.5 771.24C487.77 779.5 492.61 781.81 492.75 781.7C492.88 781.59 492.81 776.76 492.58 770.97L492.17 760.43L481.83 765.84ZM508.99 787.35C500.52 790.16 493.66 792.69 493.75 792.98C493.85 793.26 500.93 798.23 509.5 804L525.07 814.5C525.01 837.87 525.38 843.09 526.05 843.25C526.62 843.39 529.1 851.26 531.55 860.75L536 878C527.47 877.61 524.89 877.79 524.75 878.14C524.61 878.49 513.02 885.64 499 894.03C484.98 902.41 473.05 909.45 472.5 909.67C471.91 909.9 469.52 898.09 466.67 880.78C464.01 864.68 461.62 850.83 461.35 850C460.92 848.67 460.77 848.67 460.02 850C459.56 850.83 452.58 872.88 444.52 899C436.45 925.13 427.63 953.7 424.91 962.5C422.2 971.3 420.2 978.73 420.49 979C420.77 979.27 421.17 979.27 421.39 979C421.6 978.73 428.13 965.79 435.89 950.25C443.65 934.71 450.23 922 450.5 922C450.77 922 460.45 926.73 472 932.5C483.55 938.27 493.16 942.66 493.37 942.25C493.57 941.84 495.87 934.98 498.49 927C501.11 919.02 503.53 912.21 503.87 911.86C504.22 911.5 511.02 913.39 519 916.06C526.98 918.72 534.06 920.92 534.75 920.95C535.71 920.99 536 916.16 536 900C536 888.45 536.23 879 536.5 879C536.77 879 550.84 885.98 567.75 894.5C584.66 903.03 598.95 910.02 599.5 910.04C600.05 910.06 605.23 903.07 611 894.5C616.77 885.93 621.61 878.94 621.75 878.96C621.89 878.98 626.5 881.25 632 884C637.5 886.75 642.19 888.89 642.41 888.75C642.64 888.61 640.5 871.96 637.66 851.75C634.82 831.53 632.16 814.99 631.75 815C631.34 815 622 821.75 611 830C600 838.25 590.66 845 590.25 845C589.84 845 589.42 845.78 589.33 846.75C589.23 847.71 587.09 856.83 584.56 867C582.03 877.17 579.63 886.35 579.23 887.38C578.64 888.9 575.4 885.17 562.5 868.1C553.7 856.47 546.73 846.75 547 846.51C547.27 846.28 556.27 843.89 567 841.2C577.73 838.52 586.5 835.95 586.5 835.49C586.5 835.04 573 830.18 556.5 824.7C540 819.21 526.27 814.53 526 814.28C525.73 814.04 525.25 806.73 524.95 798.05L524.4 782.25L508.99 787.35Z"
       style="fill:#808080;opacity:1" />
    <path
       id="Path 18"
       class="shp0"
       d="M567 841.12C556.27 843.85 547.27 846.28 547 846.51C546.73 846.75 553.7 856.42 562.5 868C571.3 879.58 578.62 888.93 578.76 888.78C578.9 888.62 581.37 879.05 584.26 867.5C587.92 852.84 589.42 844.91 589.25 841.25C589.09 837.8 588.57 836.03 587.75 836.08C587.06 836.12 577.73 838.39 567 841.12Z"
       style="fill:#ffffff;opacity:1" />
    <path
       id="Path 19"
       class="shp1"
       d="M525.23 860.25L525.5 877.5L536 878C530.49 856.69 528.47 848.81 527.95 846.75C527.43 844.69 526.54 843 525.98 843C525.31 843 525.05 848.97 525.23 860.25Z"
       style="fill:#000000;opacity:1" />
    <path
       id="Path 20"
       class="shp2"
       d="M889 879L889 911C864.2 911 857 911.11 857 911.25C857.01 911.39 854.76 922.86 852 936.75C849.25 950.64 847 962.56 846.99 963.25C846.99 963.98 853.63 966.68 862.99 969.75C871.8 972.64 879 975.34 879 975.75C879 976.16 888.45 1021.5 900 1076.5C911.55 1131.5 920.99 1176.95 920.98 1177.5C920.97 1178.17 921.27 1178.17 921.87 1177.5C922.37 1176.95 929.8 1160.19 938.39 1140.25C947 1120.27 953.69 1103.44 953.31 1102.75C952.92 1102.06 943.23 1087.33 931.77 1070C911.68 1039.65 910.94 1038.35 911.47 1034.5C911.77 1032.3 914.26 1003.61 917.01 970.75L922 911C897.2 861.4 889.77 847 889.5 847C889.23 847 889 861.4 889 879ZM375.61 979.25C375.87 981.04 378.09 996.67 380.54 1014C383 1031.33 385.01 1046.63 385.01 1048C385.01 1050.26 383.03 1051.48 364.76 1060.49L344.5 1070.49C318.52 1096.07 310.98 1103.84 310.99 1104.25C310.99 1104.66 311.45 1105 312 1105C312.55 1105 319.64 1109.51 327.75 1115.02L342.5 1125.05C396.75 1101.94 413.75 1094.62 415.28 1093.87L418.06 1092.5L417.94 985.5L397 996L397 986C381.5 978.25 376.58 976 376.07 976C375.57 976 375.36 977.46 375.61 979.25Z"
       style="fill:#808080;opacity:1" />
    <path
       id="Path 21"
       class="shp3"
       d="M310.98 1017.75C310.97 1029.93 311.33 1038.09 311.86 1037.5C312.34 1036.95 316.77 1030.42 321.69 1023C326.61 1015.58 330.94 1008.94 331.32 1008.25C331.78 1007.4 328.82 1005.4 322.03 1002C316.55 999.25 311.82 997 311.53 997C311.24 997 310.99 1006.34 310.98 1017.75Z"
       style="fill:#808080;opacity:0.99999999" />
    <path
       id="Path 22"
       class="shp2"
       d="M201 1109.12C185.32 1111.8 172.37 1114.11 172.22 1114.25C172.07 1114.39 183.89 1124.17 198.5 1136C216.64 1150.68 224.91 1157.98 224.57 1159C224.31 1159.83 222.25 1167.92 220.01 1177C217.76 1186.08 216.1 1193.95 216.31 1194.5C216.53 1195.05 221.04 1186.84 226.35 1176.25L236 1157C260.03 1165.14 267.02 1167.72 267.03 1168C267.04 1168.28 255.51 1177.72 241.39 1189C227.28 1200.28 215.11 1209.61 214.36 1209.75C213.61 1209.89 206.03 1205.28 197.5 1199.5L182 1189C174.13 1213.41 171.68 1220.28 171.48 1220C171.28 1219.72 168.86 1208.03 166.11 1194L161.12 1168.5C136.8 1135.95 129.46 1126.38 129.12 1126.23C128.78 1126.08 126.52 1135.75 124.09 1147.73C121.67 1159.7 119.33 1170.4 118.9 1171.5C118.47 1172.62 118.1 1167.42 118.06 1159.75L118 1146C93.97 1146 86.79 1146.34 86.53 1146.75C86.27 1147.16 93.59 1154.93 102.78 1164C114.33 1175.4 127.47 1186.85 145.26 1201L171.01 1221.5L171 1254L203.5 1253.97C219.78 1229.78 224.84 1222.59 225.25 1222.38C225.66 1222.17 235.45 1226.72 247 1232.5C258.55 1238.28 268 1242.78 268 1242.5C268 1242.22 272.51 1221.86 278.03 1197.25C283.55 1172.64 288.44 1151.15 288.9 1149.5L289.73 1146.5C278.7 1144.68 264.25 1142.27 250.5 1139.96C236.75 1137.65 225.39 1135.7 225.26 1135.63C225.12 1135.56 227.37 1128.42 230.26 1119.78L235.5 1104.05C230.85 1104.19 216.68 1106.43 201 1109.12ZM525 1205.25L525 1274.5L503.22 1252.5C479.59 1181.2 472.56 1160.28 472.36 1160C472.16 1159.72 471.79 1159.72 471.54 1160C471.28 1160.28 468.77 1176.25 465.94 1195.5C462.97 1215.8 461.17 1231.01 461.66 1231.73C462.12 1232.4 471.5 1237.49 482.5 1243.05C493.5 1248.6 502.73 1253.35 503 1253.6C503.27 1253.86 496.52 1261.03 488 1269.54C479.48 1278.05 472.27 1285.02 472 1285.02C471.73 1285.03 469.02 1273.15 466 1258.61L460.5 1232.18C428.34 1248.32 418.79 1252.89 418.53 1252.75C418.27 1252.61 420.29 1232.47 423.02 1208C425.75 1183.53 428.21 1162.04 428.49 1160.25L429 1157C397.06 1157 397 1157.01 397.06 1159.25C397.1 1160.49 399.27 1172.3 401.88 1185.5C404.96 1201 406.26 1209.61 405.57 1209.8C404.98 1209.97 390.55 1207.79 373.5 1204.96C356.45 1202.14 342.38 1200.2 342.24 1200.66C342.09 1201.12 336.2 1210.5 329.14 1221.5C322.08 1232.5 305.44 1258.49 292.15 1279.25C278.87 1300.01 268 1317.67 268 1318.5C268 1319.33 269.82 1327.31 272.05 1336.25C274.28 1345.19 276.55 1354.3 277.1 1356.5C277.69 1358.86 278.44 1360.09 278.94 1359.5C279.4 1358.95 288.65 1342.97 299.5 1324C310.35 1305.03 319.64 1289.05 320.13 1288.5C320.69 1287.88 321.03 1288.44 321.01 1290C321 1291.38 318.72 1315.22 315.93 1343L310.87 1393.5L321.5 1404.02L343.01 1382.5L342.95 1403.5C347.25 1402.37 364.25 1397.53 383.5 1392.01C402.75 1386.5 418.54 1381.88 418.59 1381.74C418.64 1381.61 435.26 1362.83 455.52 1340C475.78 1317.17 494.98 1295.69 498.18 1292.25L504 1286C527.25 1325.53 534.45 1337 535 1337C535.55 1337 536 1336.44 536 1335.75C536.01 1335.06 538.23 1294.9 540.96 1246.5C543.68 1198.1 546.13 1155.8 546.41 1152.5L546.91 1146.5C530.71 1138.36 525.77 1136 525.5 1136C525.23 1136 525 1167.16 525 1205.25Z"
       style="fill:#808080;opacity:1" />
    <path
       id="Path 23"
       class="shp1"
       d="M226.36 1176.1C221.21 1186.5 216.51 1195.11 215.91 1195.25C215.32 1195.39 214.57 1198.42 214.25 1202C213.94 1205.58 214.09 1208.79 214.59 1209.14C215.09 1209.49 226.97 1200.61 241 1189.4C255.02 1178.19 266.62 1168.68 266.76 1168.26C266.9 1167.84 259.97 1165.18 251.37 1162.35L235.73 1157.21L226.36 1176.1ZM319.87 1288.5C319.53 1289.05 310.11 1305.3 298.93 1324.61C287.75 1343.92 278.69 1360.12 278.8 1360.61C278.91 1361.1 286.2 1368.7 295 1377.5C303.8 1386.3 311.01 1392.94 311 1392.25C311 1391.56 313.27 1368.61 316.04 1341.25C318.82 1313.89 320.95 1290.6 320.79 1289.5C320.63 1288.4 320.22 1287.95 319.87 1288.5Z"
       style="fill:#000000;opacity:1" />
    <path
       id="Path 24"
       class="shp2"
       d="M441 1418.75C441 1419.16 443.03 1425.69 445.5 1433.25L450 1447C459.6 1447 460.83 1446.68 460.32 1445.75C459.94 1445.06 455.67 1438.54 450.82 1431.25C445.97 1423.96 441.77 1418 441.5 1418C441.23 1418 441 1418.34 441 1418.75Z"
       style="fill:#808080;opacity:1" />
  </g>
</svg>
