<?xml version="1.0" encoding="UTF-8" standalone="no"?>
<svg
   version="1.2"
   viewBox="0 0 1117 1500"
   width="1117"
   height="1500"
   id="svg1"
   sodipodi:docname="engelsy.svg"
   inkscape:version="1.4 (86a8ad7, 2024-10-11)"
   xmlns:inkscape="http://www.inkscape.org/namespaces/inkscape"
   xmlns:sodipodi="http://sodipodi.sourceforge.net/DTD/sodipodi-0.dtd"
   xmlns="http://www.w3.org/2000/svg"
   xmlns:svg="http://www.w3.org/2000/svg">
  <defs
     id="defs1" />
  <sodipodi:namedview
     id="namedview1"
     pagecolor="#505050"
     bordercolor="#eeeeee"
     borderopacity="1"
     inkscape:showpageshadow="0"
     inkscape:pageopacity="0"
     inkscape:pagecheckerboard="0"
     inkscape:deskcolor="#505050"
     inkscape:zoom="0.55"
     inkscape:cx="559.09091"
     inkscape:cy="750"
     inkscape:window-width="1920"
     inkscape:window-height="1027"
     inkscape:window-x="1912"
     inkscape:window-y="-8"
     inkscape:window-maximized="1"
     inkscape:current-layer="svg1" />
  <title
     id="title1">engelsy</title>
  <style
     id="style1">
		tspan { white-space:pre }
		.shp0 { fill: #000000 } 
		.shp1 { fill: #7f7f7f } 
		.shp2 { opacity: 0.984;fill: #7f7f7f } 
		.shp3 { fill: #ffffff } 
	</style>
  <g
     id="Background">
    <path
       id="Path 0"
       class="shp0"
       d="M600 2.6C596.42 3.92 577.98 10.38 559 16.94C540.02 23.51 511.45 33.44 495.5 39.01C479.55 44.58 455.48 52.96 442 57.63C428.52 62.3 417.27 66.28 417 66.47C416.73 66.66 419.07 82.49 422.21 101.66C425.35 120.82 428.44 139.65 429.08 143.5L430.25 150.5C445.94 149.36 460.63 148.35 473 147.52C485.38 146.69 499.55 145.73 504.5 145.4C512.08 144.9 513.77 144.47 515.24 142.65C516.2 141.47 521.91 133.3 527.92 124.5C533.94 115.7 540.13 106.68 541.68 104.45L544.5 100.4C567.75 99.27 588.23 98.28 605 97.46C621.77 96.64 649 95.31 665.5 94.49C682 93.67 700.45 92.78 706.5 92.52L717.5 92.03L769.5 111.54C771.49 130.11 772.16 135.64 772.28 135.8C772.4 135.97 781.95 133.8 793.5 130.99C805.05 128.17 815.17 125.8 816 125.73C816.83 125.66 829.65 132.3 844.5 140.49C859.35 148.68 871.05 155.51 870.5 155.66C869.95 155.81 855.1 159.54 837.5 163.95L805.5 171.97C728.77 146.41 706.05 139.16 705.5 139.37C704.95 139.57 695.27 147.1 684 156.09L663.5 172.43C677.45 175.78 697.92 180.69 718 185.5C738.08 190.31 763.73 196.47 775 199.18C786.27 201.89 801.13 205.47 808 207.13C814.88 208.79 821.17 210.18 822 210.21C822.83 210.24 824.14 210.77 824.93 211.39C825.71 212 827.29 212.61 828.43 212.74C829.57 212.88 838.38 214.74 848 216.88C857.63 219.03 867.08 221.19 869 221.7C871.27 222.3 884.65 232.34 907 250.19C930.64 269.08 942.41 279.14 944.38 282.13C945.97 284.53 948.31 287.4 949.58 288.5C950.86 289.6 961.49 302.72 973.2 317.66L994.5 344.82C1002.7 393.4 1005.08 408.4 1005.07 409.5C1005.06 410.6 1002.05 435.57 998.39 465C994.72 494.43 991.52 518.73 991.26 519C991.01 519.27 986.01 519.85 980.15 520.28C974.29 520.71 967.14 521.27 964.25 521.53C960.97 521.82 959 522.47 959 523.25C959 523.94 962.48 536.75 966.75 551.71C971.01 566.68 974.27 579.19 974 579.51C973.73 579.83 960.45 579.61 944.5 579.03C928.55 578.44 914.04 577.74 912.25 577.48C910.06 577.16 909 577.41 908.99 578.25C908.98 578.94 915.54 598.17 923.56 621C931.58 643.83 938.45 662.84 938.82 663.25C939.19 663.66 947.26 662.87 956.75 661.5C966.24 660.12 975.01 659.02 976.25 659.04C977.99 659.06 980.95 662.48 989.25 674.04L1000 689L922.18 874.5C936.74 986.1 940.86 1018.89 940.73 1019.36C940.6 1019.83 931.92 1011.51 921.44 1000.86C910.95 990.21 886.43 965.17 866.94 945.21C847.45 925.25 831.27 908.94 831 908.95C830.73 908.97 829.9 916.75 829.16 926.24C828.42 935.73 827.74 943.6 827.66 943.73C827.57 943.86 818.73 944.4 808 944.95C797.27 945.49 782.99 946.17 776.25 946.47C765.16 946.95 763.96 946.83 763.53 945.25C763.28 944.29 756.5 920.1 748.48 891.5C740.45 862.9 733.66 839.27 733.38 839C733.11 838.73 721.77 839.79 708.19 841.37C694.61 842.96 683.44 844.31 683.36 844.37C683.28 844.44 682.02 852.38 680.56 862C679.09 871.63 678.03 879.62 678.2 879.77C678.36 879.91 683.79 875.98 690.25 871.02C696.71 866.06 702.22 862.11 702.49 862.25C702.76 862.39 705.41 871.5 708.38 882.5L713.79 902.5C706.59 915.75 699.77 928.23 694 938.79L683.5 957.98C663.35 968.08 657.27 971 657 970.98C656.73 970.96 660.4 959.82 665.16 946.22C669.92 932.62 674.08 920.71 674.41 919.75C674.73 918.79 674.66 917.99 674.25 917.98C673.84 917.97 660.23 929.39 644 943.35C626.7 958.24 614.25 968.27 613.89 967.62C613.55 967 612.28 962.67 611.06 958C609.84 953.33 608.16 947.02 607.33 944L605.82 938.5L561.78 982.5C562.78 967.77 563.34 960.35 563.66 956.5C564.17 950.36 564.07 949.68 562.79 951C561.99 951.83 556.98 957.34 551.67 963.25C546.35 969.16 541.66 973.96 541.25 973.91C540.84 973.87 540.19 974.43 539.8 975.16C539.42 975.9 538.16 977.63 537.01 979C535.86 980.38 526.05 991.43 515.21 1003.57C504.37 1015.71 488.3 1033.57 479.5 1043.27C464.02 1060.33 463.34 1060.93 458.5 1061.89C455.75 1062.44 440.23 1065.64 424 1069C407.77 1072.37 388.65 1076.24 381.5 1077.61L368.5 1080.11C327.82 1065.69 316 1061.28 315.98 1061C315.96 1060.72 319.89 1058.87 324.72 1056.88C329.55 1054.89 350.28 1046.34 370.78 1037.88C391.29 1029.42 408.05 1022.05 408.04 1021.5C408.02 1020.95 403.94 1010.6 398.96 998.5C393.97 986.4 389.36 975.98 388.7 975.34C388.04 974.7 383 972.83 377.5 971.19C372 969.54 356.25 964.72 342.5 960.48C328.75 956.24 317.38 952.71 317.23 952.63C317.08 952.56 318.47 949.13 320.32 945C322.17 940.88 323.98 936.49 324.34 935.25C324.92 933.27 322.67 931.13 305.25 917.2C294.39 908.51 284.94 901.09 284.25 900.7C283.39 900.22 281.28 903.43 277.5 911L272 922C257.66 921.11 248.55 920.46 242.5 919.99C236.45 919.52 231.19 919.44 230.81 919.81C230.43 920.19 227.17 930.96 223.56 943.75C219.95 956.54 217.01 967.79 217.01 968.75C217.02 969.71 222.02 979.27 228.12 990C236.27 1004.35 241.29 1014.72 247.1 1029.25L255 1049L255 1105C263.08 1115.46 275.93 1132 288.76 1148.5C311.37 1177.57 313.13 1179.54 345.48 1212L378.86 1245.5C497.91 1333.08 536.75 1361.69 541.98 1365.59C547.22 1369.48 566.35 1383.61 584.5 1396.97C602.65 1410.33 618.4 1421.65 619.5 1422.11C620.6 1422.58 626.23 1424.13 632 1425.57C639.49 1427.43 651.68 1432.2 674.5 1442.2C692.1 1449.91 726.19 1466.06 750.25 1478.11L794 1500L821.5 1500.04C909.64 1439.56 910.54 1438.88 912.35 1434.24C913.37 1431.63 927.82 1392.38 944.46 1347L974.71 1264.5C968.83 1194.75 967.48 1174.05 967.92 1173.5C968.36 1172.95 972.61 1167.44 977.36 1161.25C982.63 1154.38 986.68 1150.01 987.75 1150.03C988.71 1150.04 1000.08 1151.14 1013 1152.46C1025.92 1153.79 1036.57 1154.79 1036.64 1154.68C1036.72 1154.58 1026.6 1147.23 1014.14 1138.34L991.5 1122.19L977.79 1071.5L1011.1 912.5L999.91 846.5L1117 729.5L1117 669L1075.07 487.5L1080.03 271.5L1030.69 161.5L840.5 47.2C713.4 12.79 674.7 2.18 672.5 1.41C669.4 0.34 661.49 0.05 637.5 0.11C607.33 0.19 606.33 0.26 600 2.6Z"
       style="fill:#000000" />
    <path
       id="Path 1"
       class="shp1"
       d="M456.42 75.2C447.66 79.62 440.27 83.42 440 83.65C439.73 83.88 442.56 94.28 446.3 106.78C450.03 119.28 453.18 129.62 453.3 129.77C453.41 129.92 466.32 129.52 482 128.87C497.68 128.22 511.4 127.37 512.5 126.97C513.6 126.58 517.36 121.58 520.86 115.88C524.36 110.17 526.83 105.22 526.36 104.88C525.89 104.54 514.02 96.27 500 86.5C485.98 76.73 474.01 68.38 473.42 67.95C472.8 67.5 465.53 70.6 456.42 75.2Z"
       style="fill:#808080" />
    <path
       id="Path 2"
       class="shp2"
       d="M407.9 82.28L400.3 96.5C397.54 129.05 396.57 139.4 396.36 140.5C396.13 141.67 396.33 142.09 396.82 141.5C397.28 140.95 398.75 136.56 400.08 131.74C401.41 126.93 402.73 122.99 403 122.99C403.27 122.99 410.7 130.88 419.5 140.51L435.5 158.03C449.45 157.18 461.15 156.28 470.5 155.48C479.85 154.68 498.3 153.08 511.5 151.93L535.5 149.85C651.75 174.84 692.7 183.62 701.5 185.48C710.3 187.35 739.55 193.64 766.5 199.47C793.45 205.29 817.08 210.49 819 211.02C820.92 211.55 823.06 211.99 823.75 211.99C824.44 212 824.77 211.55 824.5 211C824.23 210.45 823.21 210.04 822.25 210.09C821.29 210.14 814.88 208.81 808 207.14C801.13 205.47 786.27 201.89 775 199.18C763.73 196.47 738.08 190.31 718 185.5C697.92 180.69 677.45 175.78 672.5 174.59L663.5 172.43C695.27 147.1 704.95 139.57 705.5 139.37C706.05 139.16 728.77 146.41 756 155.48L805.5 171.97C855.1 159.54 869.95 155.81 870.5 155.66C871.05 155.51 859.35 148.68 844.5 140.49C829.65 132.3 816.83 125.66 816 125.73C815.17 125.8 805.05 128.17 793.5 130.99C781.95 133.8 772.4 135.97 772.28 135.8C772.16 135.64 771.49 130.11 770.78 123.52L769.5 111.54L717.5 92.03C700.45 92.78 682 93.67 665.5 94.49C649 95.31 621.77 96.64 605 97.46C588.23 98.28 567.75 99.27 559.5 99.67L544.5 100.4C540.13 106.68 533.94 115.7 527.92 124.5C521.91 133.3 516.2 141.47 515.24 142.65C513.77 144.47 512.08 144.9 504.5 145.4C499.55 145.73 485.38 146.69 473 147.52C460.63 148.35 445.95 149.36 440.39 149.77L430.29 150.5C428.67 141.2 425.69 122.64 422.62 103.25C419.55 83.86 416.7 68.01 416.27 68.03C415.85 68.04 412.08 74.46 407.9 82.28Z"
       style="fill:#808080;opacity:1" />
    <path
       id="Path 3"
       class="shp0"
       d="M358.5 92.74C355.75 94.76 343.15 103.8 330.5 112.82C317.85 121.83 307.12 129.5 306.67 129.86C306.21 130.21 310.17 134.32 315.47 139L325.11 147.5C285.52 186.25 274.36 197.82 274.76 198.21C275.17 198.6 279.32 195.66 284 191.68C288.68 187.69 297.34 180.51 303.25 175.72L314 167C336.08 179.34 337.85 180.66 336.33 181.44C335.32 181.95 326.63 185.94 317 190.31C307.38 194.67 293.88 200.81 287 203.95C280.13 207.09 267.15 213 258.17 217.08L241.84 224.5C210.58 266.02 201.28 278.05 201 278.03C200.72 278.01 201.52 269.55 202.77 259.24C204.02 248.93 204.92 239.23 204.77 237.67C204.54 235.26 200.49 240.61 178 273.05C163.43 294.06 150.89 312.66 150.13 314.38C149.38 316.1 132.64 365.65 112.94 424.5L77.1 531.5C66.45 547 49.1 572.31 31.68 597.75C14.26 623.19 0 644.67 0 645.5C0 646.33 8.06 663.31 17.91 683.25L35.82 719.5C54.95 725.17 74.67 731.09 92 736.31C109.33 741.53 134.3 748.82 147.5 752.51C160.7 756.2 181.85 762.09 194.5 765.6C207.15 769.11 217.95 771.99 218.5 772.01C219.05 772.03 231.88 757.92 247 740.66C262.13 723.4 275.21 708.42 276.07 707.39C276.94 706.35 284.5 678.27 292.87 645C301.25 611.73 309.43 580.34 311.05 575.25C312.67 570.16 313.77 565.55 313.5 565C313.23 564.45 313.34 564 313.75 564C314.16 564 314.55 563.21 314.61 562.25C314.66 561.29 318.97 545.2 324.18 526.5L333.65 492.5C323.02 440.57 319.72 425.39 319.47 425.25C319.21 425.11 315.18 427.7 310.5 431C305.82 434.3 301.76 436.89 301.47 436.75C301.18 436.61 305.12 417.91 310.22 395.18C315.33 372.45 319.16 353.66 318.75 353.43C318.34 353.19 311.14 355.86 302.75 359.36C288.35 365.36 287.48 365.59 287.21 363.61C287.05 362.45 288.05 350.7 289.42 337.5C290.79 324.3 291.59 313.14 291.21 312.71C290.82 312.27 283.32 319.47 274.54 328.71C265.77 337.94 256.14 347.98 253.15 351C250.16 354.02 248.37 355.38 249.19 354C250 352.63 264.4 329.23 281.18 302L311.71 252.5C313.57 237.78 313.97 233.38 313.8 233.23C313.64 233.09 308.77 233.88 303 235C297.23 236.12 292.39 236.91 292.25 236.77C292.11 236.62 295.03 235.08 298.75 233.35C302.46 231.62 319 223.82 335.5 216.02C352 208.22 369.1 200.11 373.5 198L381.5 194.15C393.08 154.9 396.57 141.25 396.73 138.5C396.88 135.75 397.68 126.75 398.5 118.5C399.32 110.25 400 102.08 400.02 100.35C400.04 97.23 399.97 97.19 392.27 95.51C388 94.58 380 92.74 374.5 91.43C369 90.11 364.27 89.04 364 89.04C363.73 89.05 361.25 90.71 358.5 92.74Z"
       style="fill:#000000" />
    <path
       id="Path 4"
       class="shp3"
       d="M674.16 114.8C669.14 125.64 665.14 134.63 665.27 134.79C665.4 134.95 673.89 130.9 684.15 125.79L702.8 116.5C688.62 100.43 684.23 95.62 683.89 95.44C683.55 95.26 679.17 103.97 674.16 114.8ZM627.98 121.98C625.21 127.47 622.96 132.2 622.97 132.48C622.99 132.77 628.84 129.51 635.97 125.25C643.11 120.99 648.96 117.28 648.99 117C649.01 116.72 645.98 115.49 642.26 114.26C638.54 113.03 634.94 112.02 634.26 112.01C633.57 112 630.75 116.49 627.98 121.98ZM398.54 136.75C396.42 144.31 391.8 160.18 388.27 172C384.73 183.82 369.02 236.7 353.35 289.5L324.85 385.5L347.2 469.5C344.89 476.48 336.34 501.45 326.71 529.5C309.29 580.25 309.13 580.8 293.57 642.5L277.94 704.5C288.15 816.1 291.28 849.4 291.49 850.5C291.78 852.02 295.42 853.99 306.69 858.71C314.83 862.13 329.82 868.43 340 872.71L358.5 880.5C373.95 927.53 378.06 938.53 379 938.87C379.82 939.18 393.08 943.04 408.46 947.46L436.42 955.5L444.5 1025.35C430.11 1043.29 425.95 1048.84 425.97 1049.25C425.99 1049.66 431.06 1046.77 437.25 1042.82C443.44 1038.87 461.77 1027.12 478 1016.72C494.23 1006.31 514.57 993.23 523.22 987.65L538.93 977.5C547.12 955.42 549.27 948.83 549 948.61C548.73 948.38 539.84 952.21 529.25 957.1C518.66 962 509.63 965.89 509.17 965.75C508.71 965.61 511.98 951.77 516.43 935C520.88 918.23 524.8 904.05 525.15 903.5C525.5 902.95 529.32 902.13 533.64 901.68C537.96 901.23 542.85 900.62 544.5 900.32L547.5 899.79C535.1 887.6 531.73 883.86 532 883.62C532.27 883.37 544.88 882.67 560 882.07C575.13 881.46 589.75 880.74 592.5 880.47C597.27 880.01 598.36 879.26 616.5 863.83C626.95 854.95 644.5 840.03 655.5 830.68C672.17 816.52 675.24 813.5 673.92 812.59C673.05 811.99 666.18 805.88 658.65 799C651.11 792.13 645.3 786.21 645.73 785.85C646.15 785.49 653.59 782.23 662.25 778.6L678 772L733.5 783.11C787.75 759.83 805.19 752.38 807.25 751.54L811 750L777.71 683.5C778.95 617.03 778.84 613.58 776.92 602L774.85 589.5C779.71 573.91 780 571.31 780.01 557.75C780.02 549.36 780.29 540.92 780.61 539C781.17 535.68 782.86 534.4 813.85 513.78C831.81 501.84 847.4 492.06 848.5 492.04C849.6 492.02 868.5 494.9 890.5 498.44C912.5 501.98 935 505.6 940.5 506.48C946 507.37 958.38 509.37 968 510.94C977.63 512.5 985.58 513.72 985.68 513.64C985.77 513.56 981.61 500 976.42 483.5C971.22 467 966.98 453.05 966.99 452.5C966.99 451.95 973.76 432.6 982.02 409.5C990.28 386.4 996.77 366.82 996.44 366C996.11 365.18 983.78 345.15 969.04 321.5L942.23 278.5C888.96 235.78 873.05 223.11 872.5 222.79C871.95 222.47 866.1 220.99 859.5 219.52C852.9 218.04 840.3 215.32 831.5 213.48C822.7 211.64 793.45 205.35 766.5 199.5C739.55 193.66 710.3 187.35 701.5 185.48C692.7 183.62 651.75 174.84 610.5 165.97L535.5 149.85C498.3 153.08 479.85 154.68 470.5 155.48C461.15 156.28 449.45 157.18 444.5 157.48L435.5 158.03C410.7 130.88 403.25 122.99 402.95 123C402.64 123 400.66 129.19 398.54 136.75Z"
       style="fill:#ffffff" />
    <path
       id="Path 5"
       class="shp2"
       d="M295.46 140.25C290.56 145.34 269.22 167.28 248.03 189.02C226.84 210.76 208.72 229.43 207.76 230.52C206.44 232.03 205.36 237.93 203.26 255.24C201.74 267.75 200.72 278.01 201 278.03C201.28 278.05 210.58 266.02 221.67 251.28L241.84 224.5C267.15 213 280.13 207.09 287 203.95C293.88 200.81 307.38 194.67 317 190.31C326.63 185.94 335.32 181.95 336.33 181.44C337.85 180.66 336.08 179.34 326.08 173.75L314 167C297.34 180.51 288.68 187.69 284 191.68C279.32 195.66 275.17 198.6 274.76 198.21C274.36 197.82 285.52 186.25 299.57 172.5L325.11 147.5C310.3 134.71 305.63 131 305.18 131C304.73 131 300.35 135.16 295.46 140.25ZM374.82 197.27C371.89 198.79 354.88 206.93 337 215.36C319.13 223.78 301.69 231.98 298.25 233.58C294.81 235.19 292.11 236.62 292.25 236.77C292.39 236.91 297.23 236.12 303 235C308.77 233.88 313.64 233.09 313.8 233.23C313.97 233.38 313.57 237.78 312.91 243L311.71 252.5C264.4 329.23 250 352.63 249.19 354C248.37 355.38 250.16 354.02 253.15 351C256.14 347.98 265.77 337.94 274.54 328.71C283.32 319.47 290.82 312.27 291.21 312.71C291.59 313.14 290.79 324.3 289.42 337.5C288.05 350.7 287.05 362.45 287.21 363.61C287.48 365.59 288.35 365.36 302.75 359.36C311.14 355.86 318.34 353.19 318.75 353.43C319.16 353.66 315.33 372.45 310.22 395.18C305.12 417.91 301.18 436.61 301.47 436.75C301.76 436.89 305.82 434.3 310.5 431C315.18 427.7 319.21 425.11 319.47 425.25C319.72 425.39 323.02 440.57 326.79 459L333.65 492.5C319.47 543.65 315 559.63 314.56 561C314.06 562.6 314.12 563.14 314.73 562.5C315.26 561.95 317.08 557.45 318.77 552.5C320.47 547.55 327.56 526.85 334.53 506.5L347.21 469.5L324.85 385.5C368.41 238.25 380.85 195.27 380.6 194.99C380.35 194.72 377.75 195.74 374.82 197.27ZM951.59 293.75C953.63 296.91 964.42 314.13 975.57 332C986.71 349.88 996.11 365.18 996.44 366C996.77 366.82 990.28 386.4 982.02 409.5C973.76 432.6 966.99 451.95 966.99 452.5C966.98 453.05 971.22 467 976.42 483.5C981.61 500 985.77 513.56 985.68 513.64C985.58 513.72 977.63 512.5 968 510.94C958.38 509.37 946 507.37 940.5 506.48C935 505.6 912.5 501.98 890.5 498.44C868.5 494.9 849.6 492.02 848.5 492.04C847.4 492.06 831.81 501.84 813.85 513.78C782.86 534.4 781.17 535.68 780.61 539C780.29 540.92 780.02 548.01 780.01 554.75C780 561.49 780.34 567.01 780.75 567.03C781.16 567.04 783.08 562.04 785 555.92C787.63 547.55 789.12 544.36 791 543.04C792.38 542.08 809.7 531.84 829.5 520.29C849.3 508.75 866.51 498.78 867.75 498.15C869.69 497.16 873.43 498.37 895.25 507.11C909.14 512.67 921.63 517.78 923 518.46C925.42 519.65 925.11 519.92 913.5 526.67C906.9 530.51 890.64 539.92 877.37 547.58L853.23 561.5C851.51 582.42 851 589.74 851 591.25L851 594C888.2 581.21 899.22 577.84 899.5 578.25C899.77 578.66 897.52 582.83 894.5 587.5C891.48 592.17 889.11 596.18 889.25 596.4C889.39 596.62 892.53 596.28 896.24 595.65C902.03 594.66 903.04 594.71 903.46 596C903.72 596.83 908.71 616.17 914.53 639L925.13 680.5L903 702.5C913.09 718.77 916.47 723.61 917.01 723.75C917.55 723.89 922.61 719.95 928.25 714.99C933.89 710.04 938.84 705.99 939.25 705.99C939.66 706 944.7 709.49 950.44 713.75C956.19 718.01 960.92 721.73 960.96 722C961 722.27 953.58 725.65 944.46 729.5C935.17 733.42 927.71 737.16 927.48 738C927.25 738.83 919.16 766.05 909.5 798.5C899.85 830.95 891.73 857.61 891.47 857.75C891.21 857.89 887.06 855.76 882.25 853.02C877.44 850.28 873.41 848.14 873.29 848.27C873.18 848.4 881.17 869.42 891.04 895C900.92 920.58 909.45 942.51 910 943.75C910.55 944.99 910.66 945.84 910.25 945.64C909.84 945.44 903.2 937.29 895.5 927.53C887.8 917.76 879.14 906.68 876.25 902.89C873.36 899.1 870.21 895.72 869.25 895.37C868.29 895.02 861.2 895.94 853.5 897.4C845.8 898.86 839.27 899.78 839 899.43C838.73 899.09 837.73 887.26 836.79 873.15C835.85 859.04 833.45 824.33 831.45 796L827.8 744.5L791.72 660.5C803.01 631.83 807.12 621.36 808.14 618.75L810 614C798.63 626.01 792.67 632.35 789.41 635.84C783.87 641.79 783.46 642.04 782.9 639.84C782.56 638.55 781.67 633.45 780.91 628.5L779.52 619.5C778.53 635.77 778.19 650.29 778.12 662.25L778 684L811 750C805.19 752.36 801.15 754.04 798.27 755.27C795.39 756.5 793.03 757.73 793.02 758C793.02 758.27 799.65 762.75 807.76 767.94C815.87 773.13 822.58 777.4 822.68 777.44C822.78 777.47 820.31 802.67 817.18 833.44L811.5 889.38C787.48 893.69 780.45 894.84 780.38 894.72C780.32 894.6 776.11 883.7 771.02 870.5C765.93 857.3 761.26 845.97 760.63 845.33C760.01 844.68 752.08 840.69 743 836.46C733.92 832.22 726.14 828.47 725.71 828.13C725.27 827.78 739.36 812.42 757.02 794C774.68 775.58 788.76 760.38 788.31 760.23C787.87 760.08 775.35 765.16 760.5 771.53L733.5 783.11C693.2 775.21 681.41 773.05 681.3 773.21C681.19 773.37 688.5 777.44 697.55 782.25C706.6 787.06 713.73 791.34 713.39 791.75C713.06 792.16 701.25 793.68 687.14 795.11C673.04 796.55 661.39 797.56 661.25 797.36C661.11 797.16 664.6 791.6 669 785C673.4 778.4 676.66 773 676.25 773.01C675.84 773.01 668.98 775.75 661 779.11C653.02 782.46 646.15 785.49 645.73 785.85C645.3 786.21 651.11 792.13 658.65 799C666.18 805.88 673.05 811.99 673.92 812.59C675.24 813.5 672.17 816.52 655.5 830.68C644.5 840.03 626.95 854.95 616.5 863.83C598.36 879.26 597.27 880.01 592.5 880.47C589.75 880.74 575.13 881.46 560 882.07C544.88 882.67 532.27 883.37 532 883.62C531.73 883.86 535.1 887.6 539.5 891.92L547.5 899.79C542.85 900.62 537.96 901.23 533.64 901.68C529.32 902.13 525.5 902.95 525.15 903.5C524.8 904.05 520.88 918.23 516.43 935C511.98 951.77 508.71 965.61 509.17 965.75C509.63 965.89 518.66 961.99 529.25 957.1C539.84 952.2 548.63 948.49 548.78 948.85C548.94 949.21 547.27 954.45 545.09 960.5C542.9 966.55 540.98 972.02 540.81 972.65C540.64 973.28 540.73 973.95 541 974.13C541.27 974.32 545.96 969.53 551.42 963.48C556.87 957.44 561.99 951.83 562.79 951C564.07 949.68 564.17 950.36 563.66 956.5C563.34 960.35 562.78 967.77 562.42 973L561.78 982.5L605.82 938.5C608.16 947.02 609.84 953.33 611.06 958C612.28 962.67 613.55 967 613.89 967.62C614.25 968.27 626.7 958.24 644 943.35C660.23 929.39 673.84 917.97 674.25 917.98C674.66 917.99 674.73 918.79 674.41 919.75C674.08 920.71 669.92 932.62 665.16 946.22C660.4 959.82 656.73 970.96 657 970.98C657.27 971 663.35 968.08 670.5 964.5L683.5 957.98C699.77 928.23 706.59 915.75 709.14 911.05L713.79 902.5C705.41 871.5 702.76 862.39 702.49 862.25C702.22 862.11 696.71 866.06 690.25 871.02C683.79 875.98 678.36 879.91 678.2 879.77C678.03 879.62 679.09 871.63 680.56 862C682.02 852.38 683.28 844.44 683.36 844.37C683.44 844.31 694.61 842.96 708.19 841.37C721.77 839.79 733.11 838.73 733.38 839C733.66 839.27 740.45 862.9 748.48 891.5C756.5 920.1 763.28 944.29 763.53 945.25C763.96 946.83 765.16 946.95 776.25 946.47C782.99 946.17 797.27 945.49 808 944.95C818.73 944.4 827.57 943.86 827.66 943.73C827.74 943.6 828.42 935.73 829.16 926.24C829.9 916.75 830.73 908.97 831 908.95C831.27 908.94 847.45 925.25 866.94 945.21C886.43 965.17 910.95 990.21 921.44 1000.86C931.92 1011.51 940.6 1019.83 940.73 1019.36C940.86 1018.89 936.74 986.1 931.57 946.5L922.18 874.5L1000 689C980.95 662.48 977.99 659.06 976.25 659.04C975.01 659.02 966.24 660.12 956.75 661.5C947.26 662.87 939.19 663.66 938.82 663.25C938.45 662.84 931.58 643.83 923.56 621C915.54 598.17 908.98 578.94 908.99 578.25C909 577.41 910.06 577.16 912.25 577.48C914.04 577.74 928.55 578.44 944.5 579.03C960.45 579.61 973.73 579.83 974 579.51C974.27 579.19 971.01 566.68 966.75 551.71C962.48 536.75 959 523.94 959 523.25C959 522.47 960.97 521.82 964.25 521.53C967.14 521.27 974.29 520.71 980.15 520.28C986.01 519.85 991.01 519.27 991.26 519C991.52 518.73 994.72 494.43 998.39 465C1002.05 435.57 1005.06 410.6 1005.07 409.5C1005.08 408.4 1002.7 393.4 999.79 376.16L994.5 344.82C960.01 300.78 949.53 288 948.95 288C948.37 288 949.56 290.59 951.59 293.75Z"
       style="fill:#808080;opacity:1" />
    <path
       id="Path 6"
       class="shp1"
       d="M539.78 470.5C540.09 471.05 543.65 476.56 547.67 482.75C551.7 488.94 555.23 494 555.5 494C555.77 494 554.7 489.84 553.11 484.75C551.53 479.66 550.29 475.42 550.36 475.33C550.44 475.24 561.3 477.39 574.5 480.1C587.7 482.81 599.17 485.29 600 485.59C601.14 486.02 600.91 486.46 599 487.42C597.63 488.12 590.08 491.12 582.23 494.1C574.38 497.07 567.96 499.73 567.96 500C567.96 500.27 582.24 505.9 599.71 512.5C617.17 519.1 631.92 524.62 632.48 524.77C633.11 524.93 632.46 515.63 630.75 500.27C629.24 486.65 627.89 475.39 627.75 475.26C627.61 475.13 609.95 473.91 588.5 472.55C567.05 471.18 547.18 469.94 544.35 469.78C541.13 469.61 539.42 469.87 539.78 470.5Z"
       style="fill:#808080" />
    <path
       id="Path 7"
       class="shp0"
       d="M550.54 476.24C550.74 476.93 552.03 481.32 553.42 486L555.94 494.5L567 500C592.96 489.88 600.73 486.74 601 486.48C601.27 486.23 600.83 485.8 600 485.53C599.17 485.26 588.6 483.01 576.5 480.54C564.4 478.06 553.53 475.79 552.34 475.5C550.9 475.15 550.3 475.4 550.54 476.24ZM830 520.03C808.27 532.71 790 543.63 789.39 544.3C788.78 544.96 786.76 550.35 784.89 556.27C783.03 562.2 781.16 567.03 780.75 567.02C780.34 567.01 780.01 568.69 780.01 570.75C780.02 572.81 778.96 577.65 777.66 581.5L775.29 588.5C778.2 608.65 779.78 619.67 780.69 626C781.59 632.33 782.6 638.55 782.92 639.83C783.47 642.02 783.78 641.86 788.49 636.83C791.23 633.9 797.04 627.67 801.39 623C805.74 618.33 812.95 610.73 817.4 606.12L825.5 597.73L854.5 603.2C880.85 598.33 888.55 596.82 888.62 596.71C888.68 596.59 891.27 592.56 894.37 587.75C897.47 582.94 899.77 578.66 899.5 578.25C899.22 577.84 888.2 581.21 875 585.75L851 594C851 589.74 851.51 582.42 852.12 575L853.23 561.5C890.64 539.92 906.9 530.51 913.5 526.67C925.11 519.92 925.42 519.65 923 518.46C921.63 517.78 909.14 512.67 895.25 507.11C881.36 501.55 869.89 497 869.75 496.99C869.61 496.98 851.73 507.35 830 520.03Z"
       style="fill:#000000" />
    <path
       id="Path 8"
       class="shp1"
       d="M561.84 523.12C561.93 523.6 564.26 527.94 567.03 532.75C569.79 537.56 571.93 541.57 571.78 541.65C571.62 541.72 569.08 542.17 566.11 542.65C561.11 543.44 560.7 543.71 560.35 546.5C560.15 548.15 557.85 556.9 555.24 565.95C550.96 580.8 550.26 582.46 548 583.1C545.99 583.66 545.89 583.82 547.5 583.89C548.61 583.94 555.15 579.56 562.25 573.99L575 564C587.79 570.76 599.15 576.8 608.5 581.78C617.85 586.76 626.03 590.98 626.69 591.17C627.34 591.35 634.2 582.16 641.94 570.75L656 550C644.76 546.76 627.1 541.57 609.5 536.37C591.9 531.18 573.94 525.87 569.59 524.58C565.24 523.29 561.75 522.63 561.84 523.12Z"
       style="fill:#808080" />
    <path
       id="Path 9"
       class="shp3"
       d="M893.23 547.31C883.73 556.21 876.08 563.54 876.23 563.58C876.38 563.63 893.15 563.1 913.5 562.4C933.85 561.7 952.75 561.08 955.5 561.01C959.18 560.92 960.11 560.62 959 559.89C958.17 559.34 947.26 552.62 934.75 544.95C922.24 537.28 911.66 531.02 911.25 531.06C910.84 531.09 902.73 538.4 893.23 547.31Z"
       style="fill:#ffffff" />
    <path
       id="Path 10"
       class="shp1"
       d="M458.42 548.67C449.66 555.49 441.72 561.61 440.76 562.28C439.47 563.18 438.63 566.37 437.53 574.5C436.71 580.55 436.15 585.6 436.27 585.73C436.4 585.86 454.92 585.86 477.43 585.73L518.37 585.5C487.96 569.23 479.26 564.27 479.43 564C479.59 563.73 486.88 561.05 495.61 558.06C504.35 555.06 511.05 552.46 510.5 552.27C509.95 552.08 500.73 553.29 490 554.95C479.27 556.61 470.38 557.86 470.23 557.73C470.08 557.6 471.04 552.83 472.36 547.13C473.69 541.43 474.67 536.65 474.55 536.52C474.43 536.39 467.17 541.86 458.42 548.67Z"
       style="fill:#808080" />
    <path
       id="Path 11"
       class="shp0"
       d="M525 547.59C516.48 550.61 502.98 555.33 495 558.09C487.02 560.84 480.18 563.4 479.78 563.79C479.38 564.18 488.05 569.34 499.03 575.25L519 586C538.76 584.33 545.85 583.51 547.5 583.1C550.43 582.38 550.61 581.96 555.73 563.93C558.61 553.79 560.64 545.23 560.23 544.89C559.83 544.56 555.67 543.77 551 543.14C546.33 542.51 542.05 542.02 541.5 542.05C540.95 542.08 533.52 544.57 525 547.59Z"
       style="fill:#000000" />
    <path
       id="Path 12"
       class="shp3"
       d="M878 599.03C866.73 601.15 853.9 603.55 849.5 604.36C845.1 605.18 834.75 607.06 826.5 608.54L811.5 611.23L792 661L828.07 744.5C836.59 864.63 839.16 899.58 839.28 899.67C839.4 899.76 845.13 898.8 852 897.53C858.88 896.26 865.71 895.06 867.19 894.86C869.61 894.53 871.24 896.25 884.02 912.5C891.81 922.4 900.72 933.77 903.84 937.77C906.95 941.77 909.59 944.92 909.71 944.77C909.82 944.62 901.6 922.9 891.44 896.5C881.28 870.1 873.2 848.39 873.48 848.25C873.77 848.11 877.94 850.24 882.75 852.99C888.6 856.32 891.64 857.57 891.92 856.74C892.16 856.06 900.31 828.73 910.03 796C925.69 743.31 927.99 736.36 930.11 735.25C931.42 734.56 939.02 731.37 947 728.15L961.5 722.31C946 710.74 940.94 707.07 940.25 706.69C939.49 706.27 934.73 709.69 928 715.5L917 725L902.83 702.5L924.96 680.5C909.45 620.05 904.5 600.81 903.97 598.75C903.2 595.77 902.54 595.02 900.75 595.09C899.51 595.14 889.27 596.92 878 599.03Z"
       style="fill:#ffffff" />
    <path
       id="Path 13"
       class="shp2"
       d="M818.5 604.69C815.2 608.24 813.17 610.92 814 610.64C814.83 610.35 823.6 608.7 833.5 606.97C843.4 605.23 851.73 603.64 852 603.43C852.27 603.22 851.38 602.81 850 602.52C848.63 602.22 843 601.08 837.5 599.98C832 598.87 826.83 598.03 826 598.1C825.17 598.18 821.8 601.14 818.5 604.69ZM275.03 708.25C274.27 709.49 261.47 724.35 246.58 741.27C231.68 758.19 219.05 772.03 218.5 772.01C217.95 771.99 207.15 769.11 194.5 765.59C181.85 762.08 159.8 755.98 145.5 752.04C131.2 748.09 119.44 745.01 119.36 745.18C119.28 745.36 120.28 752.02 121.58 760C122.88 767.98 123.96 774.84 123.97 775.25C123.99 775.66 124.45 775.77 125 775.5C125.55 775.23 130.84 776.58 136.75 778.52C142.66 780.45 148.1 782.36 148.84 782.77C149.74 783.26 153.35 780.28 159.84 773.72L169.5 763.93C228.4 785.02 245.84 791.44 246.25 791.82C246.66 792.19 243.4 800.83 239 811C234.6 821.17 230.66 829.76 230.25 830.09C229.84 830.41 220.05 830.1 208.5 829.39C196.95 828.69 186.6 827.95 185.5 827.75C183.55 827.39 183.53 827.53 185 833.59C185.82 837 186.85 840.18 187.28 840.65C187.71 841.12 188.04 840.94 188.03 840.25C188.01 839.28 189.06 839.23 192.75 840.04C195.36 840.61 198.29 841.51 199.25 842.04C200.21 842.57 201 842.66 201 842.25C201 841.84 206.41 842.17 213.01 843L225.02 844.5C224.98 849.15 223.85 861.52 222.49 875C221.13 888.48 220.01 900.29 220.01 901.25C220 902.86 218.26 903 197.5 903C176.6 903 175.03 903.12 175.36 904.75C175.57 905.71 181.08 924.42 187.61 946.32L199.5 986.14C224.3 1000.27 233.04 1005.3 234.92 1006.44L238.35 1008.5C235.12 1002.3 230.32 993.75 225.6 985.5C220.87 977.25 217.01 969.71 217 968.75C217 967.79 219.95 956.54 223.56 943.75C227.17 930.96 230.43 920.19 230.81 919.81C231.19 919.44 236.45 919.52 242.5 919.99C248.55 920.46 257.66 921.11 262.75 921.42L272 922C281.28 903.43 283.39 900.22 284.25 900.7C284.94 901.09 294.39 908.51 305.25 917.2C322.67 931.13 324.92 933.27 324.34 935.25C323.98 936.49 322.17 940.88 320.32 945C318.47 949.13 317.08 952.56 317.23 952.63C317.38 952.71 328.75 956.24 342.5 960.48C356.25 964.72 372 969.54 377.5 971.19C383 972.83 388.04 974.7 388.7 975.34C389.36 975.98 393.97 986.4 398.96 998.5C403.94 1010.6 408.02 1020.95 408.04 1021.5C408.05 1022.05 391.29 1029.42 370.78 1037.88C350.28 1046.34 329.55 1054.89 324.72 1056.88C319.89 1058.87 315.96 1060.72 315.98 1061C316 1061.28 327.82 1065.69 342.26 1070.8L368.5 1080.11C388.65 1076.24 407.77 1072.37 424 1069C440.23 1065.64 455.75 1062.44 458.5 1061.89C463.34 1060.93 464.02 1060.33 479.5 1043.27C488.3 1033.57 504.39 1015.82 515.25 1003.82C526.11 991.82 535 981.55 535 981C535 980.45 528.14 984.44 519.75 989.86C511.36 995.28 492.57 1007.36 478 1016.71C463.43 1026.06 445.76 1037.38 438.75 1041.86C431.74 1046.34 425.99 1049.66 425.97 1049.25C425.95 1048.84 430.11 1043.29 435.22 1036.93L444.5 1025.35L436.42 955.5C393.08 943.04 379.82 939.18 379 938.87C378.06 938.53 373.95 927.53 368 909.41L358.5 880.5C329.82 868.43 314.83 862.13 306.69 858.71C295.43 853.99 291.78 852.02 291.49 850.5C291.28 849.4 288.37 818.35 285.03 781.5C281.69 744.65 278.75 712.59 278.51 710.25C278.27 707.91 277.7 706 277.24 706C276.78 706 275.78 707.01 275.03 708.25Z"
       style="fill:#808080;opacity:1" />
    <path
       id="Path 14"
       class="shp0"
       d="M789.75 758.62C788.79 758.83 788.21 759.34 788.47 759.75C788.74 760.16 774.54 775.58 756.93 794C739.32 812.42 725.27 827.78 725.71 828.13C726.14 828.47 733.92 832.22 743 836.46C752.08 840.69 760.01 844.68 760.63 845.33C761.26 845.97 765.93 857.3 771.02 870.5C776.11 883.7 780.32 894.6 780.38 894.72C780.45 894.84 787.48 893.69 796 892.16L811.5 889.38C820.31 802.67 822.78 777.47 822.68 777.44C822.58 777.41 815.75 773.03 807.5 767.71C799.25 762.4 792.27 758.09 792 758.14C791.73 758.19 790.71 758.4 789.75 758.62Z"
       style="fill:#000000" />
    <path
       id="Path 15"
       class="shp3"
       d="M160 773.27C154.79 778.37 150.64 782.87 150.77 783.27C150.9 783.67 158.2 793.67 167 805.5C175.8 817.33 183.56 827.22 184.25 827.5C184.94 827.77 195.4 828.6 207.5 829.33C219.6 830.07 229.84 830.41 230.25 830.09C230.66 829.76 234.6 821.17 239 811C243.4 800.83 246.66 792.19 246.25 791.82C245.84 791.44 228.4 785.02 207.5 777.55C186.6 770.08 169.49 763.98 169.48 763.98C169.47 763.99 165.2 768.17 160 773.27Z"
       style="fill:#ffffff" />
    <path
       id="Path 16"
       class="shp0"
       d="M669.25 784.53C664.71 791.39 661.11 797.16 661.25 797.36C661.39 797.56 673.04 796.55 687.14 795.11C701.25 793.68 713.06 792.16 713.39 791.75C713.73 791.34 708.71 788.23 702.25 784.85C695.79 781.47 687.91 777.19 684.75 775.35C681.59 773.51 678.66 772.01 678.25 772.03C677.84 772.04 673.79 777.66 669.25 784.53ZM125.4 780.25C125.79 783.14 128.1 798.1 130.54 813.5C132.98 828.9 135.24 842.85 135.55 844.5C135.86 846.15 144.77 859.88 155.35 875L174.58 902.5C218.34 902.98 220 902.87 220.01 901.25C220.01 900.29 221.13 888.48 222.49 875C223.85 861.52 224.98 849.15 224.99 847.5L225.02 844.5C203.5 841.81 200.92 841.76 200.51 842.75C200.23 843.44 200.45 847.71 200.99 852.25C201.54 856.79 202 861.85 202.01 863.5C202.02 865.38 201.69 866.13 201.12 865.5C200.61 864.95 197.1 858.88 193.32 852C189.36 844.81 185.93 837.16 185.24 834C184.21 829.26 181.78 825.45 167.71 806.5C158.72 794.4 150.72 784.02 149.93 783.43C149.14 782.84 143.44 780.7 137.25 778.68C131.06 776.66 125.71 775 125.35 775C125 775 125.02 777.36 125.4 780.25Z"
       style="fill:#000000" />
    <path
       id="Path 17"
       class="shp3"
       d="M187.86 840.89C187.97 841.78 190.79 847.45 194.12 853.5C197.46 859.55 200.64 864.95 201.19 865.5C201.87 866.17 201.98 863.54 201.52 857.5C201.14 852.55 200.54 846.95 200.17 845.05C199.53 841.75 199.23 841.54 193.58 840.44C188.3 839.4 187.68 839.45 187.86 840.89Z"
       style="fill:#ffffff" />
    <path
       id="Path 18"
       class="shp1"
       d="M700 975.62C693.13 976.93 687.42 978.12 687.32 978.25C687.22 978.39 690.14 983.81 693.82 990.3L700.5 1002.09C710.19 1002.02 713.79 1002.27 714.75 1002.59C715.81 1002.95 716.07 1002.86 715.39 1002.34C714.59 1001.73 714.66 998.36 715.65 990C716.4 983.67 717.13 978.44 717.26 978.36C717.39 978.28 721.33 979.99 726 982.16C730.67 984.33 734.05 985.72 733.5 985.26C732.95 984.79 729.13 981.86 725 978.74C720.26 975.16 716.58 973.1 715 973.15C713.63 973.19 706.88 974.31 700 975.62Z"
       style="fill:#808080" />
    <path
       id="Path 19"
       class="shp3"
       d="M716.86 978.81C716.89 979.19 716.31 984.45 715.59 990.5C714.86 996.55 714.32 1001.65 714.39 1001.83C714.45 1002.01 721.7 999.79 730.5 996.9L746.5 991.65C734.1 985.8 727.42 982.76 723.66 981.11C719.9 979.46 716.84 978.43 716.86 978.81Z"
       style="fill:#ffffff" />
    <path
       id="Path 20"
       class="shp1"
       d="M732 996.5L719.5 1000.84C728.02 1000.97 735.28 1000.67 741.13 1000.25L751.75 999.5C745.74 995.24 744.21 993.55 744.46 993C744.72 992.45 744.83 992.04 744.71 992.08C744.6 992.12 738.88 994.11 732 996.5ZM726.5 1060.75C718.25 1078.19 707.18 1101.46 701.9 1112.48C696.62 1123.49 692.57 1132.62 692.9 1132.77C693.23 1132.91 713.08 1135.49 737 1138.49C760.92 1141.49 780.78 1144.3 781.11 1144.72C781.45 1145.15 791.35 1166.72 803.11 1192.66C817.68 1224.79 824.73 1239.3 825.21 1238.16C825.6 1237.25 827.52 1228.4 829.48 1218.5C832.55 1202.97 833 1198.88 832.77 1188.71L832.5 1176.92C818.55 1194.81 814.27 1200 814 1200C813.73 1200 812.91 1182.56 812.19 1161.25L810.87 1122.5C797.83 1104.67 789.87 1093.83 784.77 1086.89C779.67 1079.96 768.3 1064.1 759.49 1051.64C750.69 1039.19 743.04 1029.01 742.49 1029.02C741.95 1029.03 734.75 1043.31 726.5 1060.75ZM563.93 1213.17C554.34 1227.54 546.19 1239.79 545.82 1240.4C545.39 1241.09 549.45 1243.41 556.82 1246.68C563.24 1249.54 568.77 1251.56 569.1 1251.18C569.44 1250.81 572.46 1236.39 575.82 1219.15C579.18 1201.91 581.8 1187.64 581.64 1187.43C581.48 1187.22 573.51 1198.8 563.93 1213.17ZM664.09 1267.71C658.4 1284.64 653.46 1298.85 653.12 1299.28C652.78 1299.71 647.77 1296.49 642 1292.12C635.25 1287.01 631.27 1284.59 630.86 1285.34C630.51 1285.98 629.19 1291.22 627.93 1297C625.67 1307.31 625.67 1307.55 627.5 1310.5C628.52 1312.15 633.01 1318.45 637.47 1324.5C641.93 1330.55 647.59 1338.3 650.04 1341.72C652.49 1345.14 654.73 1347.96 655 1347.97C655.27 1347.99 659.89 1323.22 665.26 1292.94C670.63 1262.65 674.89 1237.66 674.74 1237.39C674.58 1237.13 669.79 1250.77 664.09 1267.71ZM857.84 1259.23C855.83 1263.78 846.04 1286.4 836.07 1309.5C826.11 1332.6 817.96 1351.72 817.96 1352C817.97 1352.28 823.49 1354.02 830.23 1355.88C836.98 1357.74 849.92 1361.26 859 1363.7C868.08 1366.13 878.54 1369 882.25 1370.06L889 1372C889.12 1361.54 889.69 1345.32 890.33 1329.22L891.5 1299.94C874.15 1271.7 867.4 1260.68 865.3 1257.23L861.5 1250.96L857.84 1259.23Z"
       style="fill:#808080" />
    <path
       id="Path 21"
       class="shp3"
       d="M856 1319.43C852.98 1334.52 850.73 1347.07 851 1347.32C851.27 1347.57 858.36 1351.2 866.75 1355.39C875.14 1359.57 882.34 1363 882.75 1363C883.16 1363.01 884.09 1352.54 884.81 1339.75L886.12 1316.5L861.5 1291.99L856 1319.43Z"
       style="fill:#ffffff" />
  </g>
</svg>
