<svg version="1.2" xmlns="http://www.w3.org/2000/svg" viewBox="0 0 839 1000" width="839" height="1000">
	<title>gorter</title>
	<style>
		.s0 { fill: #ffffff } 
		.s1 { fill: #808080 } 
		.s2 { fill: #000000 } 
	</style>
	<g id="Layer 1">
		<path id="Path 0" class="s0" d="m246.5 73.9l116.2-66.9 161.9 8.8 209.5 135.6 38.8 66.9 31.7 262.3 28.1 10.6-19.3 37-28.2 33.4 42.2-5.3-5.2 125-42.3 51.1-42.2-26.4-3.6 89.8-36.9 54.6-28.2 73.9-3.5 5.3-37-14.1-47.5 28.2-107.4 14-15.9-15.8-21.1-8.8-73.9-14.1-3.6-21.1 40.5-1.8 40.5-61.6 38.8-7-107.4-19.4 3.5-24.6 218.3 17.6-31.7-49.3-14.1 21.1-79.2-24.7-7 21.2-95.1-44 12.3-28.2 38.7 19.3 14.1-44 28.2 35.2-15.9-51 74-15.9-33.5-51-28.1 10.6-47.6-45.8 1.8-167.3-135.6-38.7-88 24.6 3.5-36.9 47.6-3.6 40.5-73.9-24.7-59.9-45.8-65.1 14.1-58.1 24.7-1.8 5.3 3.6z"/>
		<path id="Path 1" fill-rule="evenodd" class="s1" d="m369.7 0l95.5 12.6-102.5-5.6-116.2 66.9-24.7 1.8-14.1 58.1 45.8 65.1 24.7 59.9-40.5 73.9-47.6 3.6-3.5 36.9 88-24.6 135.6 38.7-0.3 25.1-3.2-16.3-88-28.1-86.3 15.8-12.3 19.4-38.8-14.1-21.1 29.9 1.8-31.7-30 5.3 14.1-29.9 5.3-31.7 17.6-3.5-10.6-26.4 26.5-17.6-26.5-26.5h-3.5l-8.8-1.7-17.6-15.9 8.8-7 10.6-19.4-17.6-7-15.9-5.3-72.1 110.9 31.6-109.1 82.8-96.9 7-7 5.3-3.5 7.1-5.3 5.2-5.3 38.8-31.7 14-8.8 1.8-1.7 5.3-3.6 8.8-7h1.8l3.5-1.8h7l0.1-0.2v-0.1l1.7-5 5.3-1.7 3.5-1.8h1.7l7.1-3.5 1.7-1.8 8.8-1.7 7.1-1.8h1.7l40.5-8.8h3.6l22.8-3.5zm38.9 554.5l47.5 45.8 28.2-10.6 15.1 23.1-38 6.9-59.9-37-12.3-72.2 5.3-37-68.7-80.9 59.9 51 24.1-2.8zm147.8-529.9l169 112.7 7.9 13.5-199.7-129.2zm177 126.2l0.8 0.6 38.8 66.9zm-199.7-129.2l-68.4-9 59.4 3.2zm-118.2 418.5l-5.9 0.7 0.3-28.4zm102.2 200.7l-73.9 15.8 15.8 51.1-28.1-35.3-14.1 44.1-38.7-19.4-12.4 28.2 45.3 20.9-62.9-8.6-36.9 3.5-40.5 49.3 14-88v-1.8l65.2-49.7-0.1 0.1v2.2l0.1-0.2v0.1l58.1 31.7 38.7-47.6 63.4 1.8-9.2-23.1zm-56.4 128.5l7.1-21.1 79.2 24.7 14.1-21.2 31.7 49.3-196.9-15.9 63.1-7-11.1-14.7zm-64.8 15.8l-22 2.5 0.5-4.2zm82.5 42.3l-38.8 7.1-40.5 61.6-40.5 1.7 3.6 21.2 73.9 14.1 21.1 8.8 15.9 15.8 107.4-14.1 47.5-28.1 37 14-3.5 3.6-31.7 24.6h-1.8l-10.6 7 5.3-10.5-47.5 19.4-15.9 5.2-24.6 17.6h-7l-26.5 3.6h-14l-26.4-1.8 3.5-12.3-1.8-1.8-7-10.5-12.4-1.8-96.8-14.1-70.4-49.3v-105.6l19.4 28.1-1.8 35.3 31.7 21.1 103.9-61.6-43.2-14.9zm-107.1-21.7l14.6 5-14.9-2.7zm-39-13.6l41.6-4.6-2.6 18.1zm115.7-28.8l-37-17.1 27 3.7zm52.8-147.4l-2-3.2 0.7-0.2zm-239-586.2l-1.7-3.4h1.7zm-137.3 209.6l1.8-26.4 1.7 26.4zm688.4 288.8l19.3-37-28.1-10.6-31.7-262.3 40.5 176.1v1.7l1.7 8.8v5.3l-1.7 17.6v10.6l8.8 36.9 3.5 1.8 3.5 3.5 8.8 17.6v14.1l-1.7 8.8v1.8l-1.8 10.5v30l-1.8 14.1v35.2l1.8 8.8v24.6l-5.3 28.2-1.7 1.8v3.5l-1.8 1.7v1.8l-1.8 3.5v5.3l-3.5 7-3.5 8.8v1.8l-1.8 1.8-3.5 7-14.1 14.1-17-0.7 41.7-50.4 5.3-125-42.3 5.3zm-61.6 202.5l-7.1 49.3-1.7 7v3.5l-5.3 15.9-1.8 8.8-3.5 8.8-1.7 3.5-5.3 15.9-19.4 47.5-12.3 14.1-17.6 14.1-7.1 5.2 28.2-73.9 37-54.6 3.5-89.8 41.1 25.7zm27 1.1h1.7l-0.5 0.7zm-740.1-406h1.8v1.8h-1.8zm0 68.6v-3.5l3.6 3.5zm-12.4 65.2l3.6-7.1v5.3zm253.5 47.5l-28.2-21.1 44 1.8 17.6-33.5 37 35.2 1.8 42.3 29.9-19.4-5.3 42.3-84.5 98.6-17.6-1.8-29.9-3.5-8.8-1.8-8.8-33.4-100.4-68.7 21.1-1.7-8.8-21.2 7.1-7 70.4 17.6-12.3-45.8zm-271.1 109.2l-1.8-21.1 3.5 36.9-1.7-7zm3.5 37v-8.9l1.7 8.9zm338.2-0.2v-2.1l1.6-1.3zm93.1 343.4l7-10.6 5.3 12.4h-10.5z"/>
		<path id="Path 2" fill-rule="evenodd" class="s2" d="m262.3 26.4l1.8-1.8-1.8 5.3zm-3.5 1.8l1.8-1.8 1.7 3.6h-7l1.7-1.8zm-216.5 283.4l72.2-110.9 15.8 5.3 17.6 7-10.5 19.4-8.8 7.1-1.8-26.5-1.8 26.5h3.6l17.6 15.8 8.8 1.8h3.5l26.4 26.4-26.4 17.6 10.5 26.4-17.6 3.5-5.2 31.7-14.1 29.9 29.9-5.3-1.8 31.7 21.2-29.9 38.7 14.1 12.3-19.4 86.3-15.8 88 28.1 8.8 44.1-29.9 3.5-59.9-51.1 68.7 81-5.3 37 12.3 72.2 59.9 36.9 38.7-7 10.6 26.4-63.4-1.8-38.7 47.6-58.1-31.7 1.7-3.5-66.9 51v1.8l-14 88 40.4-49.3 37-3.5 89.8 12.3 21.1 28.2-126.7 14.1 96.8 33.4-103.9 61.6-31.7-21.1 1.8-35.2-19.4-28.2v105.7l70.5 49.3 96.8 14.1 12.3 1.7 7.1 10.6 1.7 1.7-3.5 12.4h-5.3l-5.3-12.4-7 10.6-177.8-29.9-128.5-96.9-3.6-12.3v-1.7l-3.5-14.1-1.7-10.6v-3.5l-1.8-7.1v-3.5l-7-17.6-1.8-1.7-5.3-15.9-1.7-3.5-1.8-5.3-5.3-5.3-10.6-5.3-17.6-5.2-17.6-10.6-17.6-17.6v-1.8l-22.9-54.5v-3.6l-3.5-12.3v-1.7h0.1v-1.7h-0.1v-0.1l-1.7-8.8v-5.3l-1.8-7-3.5-37-7.1-58.1v-5.3l22.9-65.1 2-2.5-0.2 0.7 5.3-7v-5.3l5.2-19.4 3.6-31.7v-7h3.5l-3.5-3.5v-63.4l1.7-1.8zm309.9 220.1l-1.8-42.3-37-35.2-17.6 33.5-44-1.8 28.2 21.1-75.7-21.1 12.3 45.8-70.4-17.6-7 7 8.8 21.2-21.2 1.7 100.4 68.7 8.8 33.4 8.8 1.8 29.9 3.5 17.6 1.8 84.5-98.6 5.3-42.3zm-322.2-73.9l-5 6.3 1.5-4.6zm-17.6 195.5h1.7v1.7h-1.7zm732.4 126.8l7-49.3 45.8 1.8-38.7 7zm-7.1 26.4l5.3-15.8v3.5l-1.8 3.5zm-161.9 167.3l47.5-19.4-5.3 10.6-7 1.7-3.5 1.8-72.2 28.1 24.6-17.6z"/>
		<path id="Path 3" fill-rule="evenodd" class="s0" d="m202.5 162h1.7v1.7h-1.7zm47.5 54.6h1.8v1.8h-1.8zm-8.8 8.8h1.7v1.7h-1.7zm26.4 22.9h1.8v1.8h-1.8zm-209.5 10.5h1.8v1.8h-1.8zm-1.8 1.8h1.8v1.7h-1.8zm181.4 63.4h1.7v1.8h-1.7zm158.4 117.9l1.8 22.9-28.2-8.8zm-188.4 52.8l114.5 35.2-70.5 5.3zm570.4 17.6h1.8v1.8h-1.8zm33.5 15.8h1.8v1.8h-1.8zm-632 10.6l123.2 51-28.2 33.5-82.7-47.6zm598.6-8.8h1.7v1.8h-1.7zm-598.6 7h1.8v1.8h-1.8zm114.4 77.5h1.8v1.7h-1.8zm417.3 31.7h1.7v1.8h-1.7zm-75.7 8.8h1.7v1.7h-1.7zm123.2 14.1h1.8v1.8h-1.8zm-114.4 5.3h1.7v1.7h-1.7zm-10.6 246.5h1.8v1.8h-1.8zm28.2 10.5h1.7v1.8h-1.7zm-227.1 1.7h1.7v1.8h-1.7zm15.8 7h1.8v1.8h-1.8zm130.3 10.6h1.8v1.7h-1.8zm-109.2 7.1h1.8v1.7h-1.8z"/>
		<path id="Path 4" fill-rule="evenodd" class="s1" d="m257 28.2h1.8v1.7h-1.8zm14.1 31.7h1.8v1.8h-1.8zm-31.7 28.1h1.8v1.8h-1.8zm7.1 102.1h1.7v1.8h-1.7zm-140.9 44h1.8v1.8h-1.8zm167.3 3.5h1.7v1.7h-1.7zm-153.2 7.1h1.8v1.7h-1.8zm28.2 40.5h1.7v1.8h-1.7zm-21.1 5.3h1.7v1.7h-1.7zm135.5 0h1.8v1.8h-1.8zm-133.8 1.8h1.8v1.7h-1.8zm-29.9 12.3h1.7v1.8h-1.7zm51 3.5h1.8v1.8h-1.8zm109.2 0h1.8v1.7h-1.8zm-221.8 15.9h1.7v1.8h-1.7zm86.2 1.7h1.8v1.8h-1.8zm653.2 26.4h1.7v1.7h-1.7zm-577.5 8.8h1.8v1.8h-1.8zm371.5 126.8l31.7 12.3-42.3 15.8-47.5-49.3-19.4 19.4-33.4-105.6 167.2-1.8v1.8h1l0.8 1.4v0.3h0.2l38.5 70.5 45.8 3.5-10.6 31.7zm206-123.3h1.8v1.8h-1.8zm-137.3 12.3l61.6 49.3-19.3 15.9zm-11.4 3.5l-1-1.8h1.8v1.8zm1 1.7l-0.2-0.3v-1.4h1.7v1.7zm133.7 12.4h1.7v1.7h-1.7zm15.8 1.8l5.3 24.6-3.5 93.3-8.8-35.2v-28.1zm-623.2 5.2h1.7v1.8h-1.7zm77.4 0h1.8v1.8h-1.8zm531.7 10.5h1.8v1.8h-1.8zm-542.2 3.5h1.7v1.8h-1.7zm-30 7h1.8v1.8h-1.8zm200.7 10.5h1.8v1.8h-1.8zm-65.1 12.3h1.8v1.8h-1.8zm-304.6 21.1l7.1-8.8-5.3 7zm684.8 15.9h1.8v1.7h-1.8zm-207.7 8.9h1.7v1.7h-1.7zm-251.8 1.8h1.8v1.7h-1.8zm258.8 7.1h1.8v1.7h-1.8zm1.8 1.8l102.1 56.3-26.4 17.6zm-371.5 17.6h1.8v1.8h-1.8zm464.8 15.9h1.8v1.7h-1.8zm179.6 7.1h1.7v1.7h-1.7zm-640.9 12.3h1.8v1.8h-1.8zm610.9 7h1.8v1.8h-1.8zm3.6 5.3h1.7v1.7h-1.7zm-33.5 70.5l54.6-61.7-29.9 118-5.3-49.3-30 8.8 3.6-17.6zm-350.4-59.9h1.8v1.8h-1.8zm103.9 12.3h1.8v1.8h-1.8zm-322.2 7h1.8v1.8h-1.8zm302.8 1.8h1.8v1.7h-1.8zm167.3 5.3h1.7v1.8h-1.7zm12.3 0h1.8v1.7h-1.8zm-575.7 1.8h1.8v1.7h-1.8zm635.6 7.1h1.7v1.7h-1.7zm-12.4 1.8h1.8v1.8h-1.8zm10.6 15.8l21.1 5.3-28.1 3.5 4.2-5.3h1v-1.2l0.1-0.1v-0.1zm-1.8 2.3l-1 1.2h-0.7v-1.8h1.8v0.4l-0.1 0.1zm-630.2-7.6h1.8v1.8h-1.8zm625 1.7h1.8v1.8h-1.8zm-235.9 5.3h1.7v1.8h-1.7zm214.8 0h1.7v1.7h-1.7zm-52.8 1.7h1.7v1.8h-1.7zm-272.9 12.3h1.7v1.8h-1.7zm338 1.7h1.8v1.8h-1.8zm-438.4 1.8h1.8v1.7h-1.8zm396.1 26.4l-26.4-21.1 28.2 1.8-5.3 14zm-362.6-24.6h1.7v1.8h-1.7zm28.1 1.7h1.8v1.8h-1.8zm-31.7 3.5h1.8v1.8h-1.8zm26.4 1.7h1.8v1.8h-1.8zm-12.3 1.7h1.8v1.8h-1.8zm29.9 0h1.8v1.8h-1.8zm331 15.8l5.3 1.8-14.1-1.8zm44-14.1h1.8v1.8h-1.8zm-466.5 3.5h1.8v1.8h-1.8zm566.9 0l5.3 29.9-28.2-12.3zm-73.9 3.5h1.7v1.8h-1.7zm-42.3 14h1.8v1.8h-1.8zm72.2 10.6h1.7v1.7h-1.7zm-461.3 7.1h1.8v1.7h-1.8zm-262.3 1.8h1.8v1.7h-1.8zm357.4 0h1.8v1.8h-1.8zm301 10.6h1.8v1.7h-1.8zm-302.8 3.6h1.8v1.7h-1.8zm269.4 7.1h1.8v1.7h-1.8zm-605.6 3.5h1.7v1.8h-1.7zm144.3 5.3h1.8v1.7h-1.8zm31.7 0h1.8v1.8h-1.8zm19.4 1.8h1.8v1.7h-1.8zm-179.6 10.6h1.8v1.7h-1.8zm581 1.8h1.7v1.8h-1.7zm95.1 3.5h1.7v1.8h-1.7zm-156.7 36.9h1.7v1.8h-1.7zm144.3 0h1.8v1.7h-1.8zm-10.5 1.8h1.7v1.8h-1.7zm-591.6 8.8h1.8v1.7h-1.8zm475.4 3.5h1.7v1.8h-1.7zm-262.3 5.3h1.7v1.8h-1.7zm-121.5 7h1.7v1.8h-1.7zm162 15.8h1.7v1.8h-1.7zm-105.7 10.5h1.8v1.8h-1.8zm429.6 1.7h1.7v1.8h-1.7zm-10.6 1.8h1.8v1.7h-1.8zm-367.9 15.9h1.7v1.7h-1.7zm81 37h1.7v1.8h-1.7zm-123.3 17.6h1.8v1.7h-1.8zm366.2 0h1.8v1.8h-1.8zm5.3 0h1.8v1.8h-1.8zm-323.9 22.8h1.7v1.8h-1.7zm7 17.6h1.8v1.8h-1.8zm52.8 0h1.8v1.7h-1.8zm1.8 1.8h1.7v1.7h-1.7zm153.1 0h1.8v1.8h-1.8zm-107.4 15.9h1.8v1.7h-1.8zm146.2 1.8h1.7v1.7h-1.7zm-1.8 3.6h1.8v1.7h-1.8zm-110.9 7.1h1.8v1.7h-1.8zm-359.1-216.6l5.2 5.3-3.5-3.5zm-89.8-112.6v-1.8 3.6z"/>
		<path id="Path 5" class="s2" d="m367.9 0h1.8v1.8h-1.8zm-68.6 12.3h1.7v1.7h-1.7zm-65.2 30h1.8v1.7h-1.8zm-54.5 42.3h1.7v1.7h-1.7zm-8.8 17.7h1.7v1.7h-1.7zm-14.1 1.8h1.7v1.7h-1.7zm-5.3 72.2h1.8v1.8h-1.8zm-19.4 14.1h1.8v1.7h-1.8zm14.1 7.1h1.8v1.7h-1.8zm3.5 0h1.8v1.8h-1.8zm8.8 3.5h1.8v1.8h-1.8zm-17.6 1.7h1.8v1.8h-1.8zm12.4 15.8h1.7v1.8h-1.7zm14 37h1.8v1.7h-1.8zm7.1 10.6h1.8v1.8h-1.8zm17.6 0h1.8v1.7h-1.8zm-1.8 1.8h1.8v1.7h-1.8zm-45.7 54.6h1.7v1.8h-1.7zm22.8 5.3h1.8v1.7h-1.8zm-15.8 3.5h1.8v1.8h-1.8zm7 44h1.8v1.8h-1.8zm653.2 19.3h1.8v1.8h-1.8zm0 33.4h1.8v1.8h-1.8zm-788.7 37h1.7v1.7h-1.7zm802.8 12.4h1.7v1.7h-1.7zm1.7 1.8h1.8v1.7h-1.8zm-544 17.7h1.8v1.7h-1.8zm552.8 1.8h1.8v1.7h-1.8zm0 3.6h1.8v1.7h-1.8zm-572.1 44h1.7v1.8h-1.7zm566.9 63.4h1.7v1.7h-1.7zm-514.1 12.4h1.8v1.7h-1.8zm-82.8 5.3h1.8v1.8h-1.8zm116.2 21.1h1.8v1.7h-1.8zm1.8 26.5h1.8v1.7h-1.8zm475.3 0h1.8v1.8h-1.8zm-454.2 1.7h1.8v1.8h-1.8zm452.5 3.5h1.7v1.8h-1.7zm-531.7 10.5h1.8v1.8h-1.8zm521.1 19.4h1.8v1.7h-1.8zm-5.3 8.8h1.8v1.8h-1.8zm-1.7 1.8h1.7v1.7h-1.7zm-459.5 17.6h1.7v1.8h-1.7zm14.1 5.3h1.7v1.7h-1.7zm1.7 1.8h1.8v1.7h-1.8zm-86.2 21.2h1.7v1.7h-1.7zm-174.3 1.8h1.7v1.8h-1.7zm170.7 0h1.8v1.7h-1.8zm-169 1.8h1.8v1.7h-1.8zm1.8 1.8h1.8v1.8h-1.8zm406.7 0h1.7v1.7h-1.7zm-241.2 10.6h1.7v1.7h-1.7zm107.4 77.5h1.7v1.8h-1.7zm-93.3 7h1.7v1.8h-1.7zm44 19.3h1.7v1.8h-1.7zm12.3 1.8h1.8v1.7h-1.8zm-12.3 1.8h1.7v1.7h-1.7zm1.7 8.8h1.8v1.8h-1.8zm45.8 44h1.8v1.8h-1.8zm255.3 3.5h1.7v1.8h-1.7zm-10.6 7h1.8v1.8h-1.8zm-179.6 17.6h1.8v1.7h-1.8zm114.5 7.1h1.7v1.7h-1.7zm-29.9 17.6h1.7v1.8h-1.7zm-84.6 1.8h1.8v1.7h-1.8z"/>
		<path id="Path 6" class="s0" d="m595.1 382h1.7v1.8h-1.7zm176 66.9h1.8v1.8h-1.8zm-278.2 3.5h1.8v1.7h-1.8zm52.9 24.7h1.7v1.8h-1.7zm-5.3 5.2l5.3-3.5-3.6 5.3zm28.2 5.3h1.8v1.7h-1.8zm61.6 181.4h1.8v1.7h-1.8z"/>
		<path id="Path 7" class="s1" d="m211.3 575.7h1.7v1.8h-1.7zm77.4 22.9h1.8v1.7h-1.8z"/>
		<path id="Path 8" fill-rule="evenodd" class="s2" d="m625 413.7l1.7 19.4-45.7 1.8 34.1 19.9-46.5 25.8-8.8-22.9-33.4 7.1-8.8-52.8-40.5-7.1 44-10.5 68.7-5.3zm-9.9 41.1l1.1-0.6 28.1 17.6zm18.7-28.8l51 38.8-26.4 5.3zm12.3 36.9h1.8v1.8h-1.8zm17.6 10.6h1.8v1.7h-1.8z"/>
		<path id="Path 9" class="s1" d="m540.5 482.4h1.7v1.8h-1.7z"/>
	</g>
</svg>