<svg version="1.2" xmlns="http://www.w3.org/2000/svg" viewBox="0 0 1500 1500" width="1500" height="1500">
	<title>lenin1-svg</title>
	<style>
		.s0 { fill: #ffffff } 
		.s1 { fill: #808080 } 
		.s2 { fill: #000000 } 
		.s3 { opacity: .8;fill: #fefefe } 
	</style>
	<g id="Layer 3">
		<path id="Path 0" class="s0" d="m841.3 1l11.5 3.4c6.3 1.9 22.7 6.7 36.5 10.6 13.7 3.9 29.2 8.4 34.4 9.9 5.2 1.6 16 4.8 24 7.1 7.9 2.3 15.8 4.9 17.4 5.8 1.7 0.8 16.7 10 33.5 20.4 16.7 10.5 36.9 23.1 44.9 28 13 8.1 14.2 9.2 12 9.8-1.4 0.4-7.1 1.3-22.9 3.4l2.7 3.5c1.4 1.9 13.2 17.2 26.2 33.9 12.9 16.8 32.9 42.6 44.4 57.4 11.5 14.9 27.6 35.8 51 65.9l15.8 33c8.7 18.1 18.9 39.4 29.5 61.4v117.4l3.1 11.5c1.8 6.3 3.2 12.1 3.1 12.9 0 0.9 2.2 12.8 10 51.5l-20.2 29.9v45.2c0 24.9 0.3 45.2 0.5 45.2 0.3 0 6.3-3.6 13.3-8 7-4.4 13-7.6 13.3-7.2 0.3 0.4 1.8 4.8 3.3 9.7 1.5 5 3 8.6 3.5 8 0.4-0.5 4.1-6.4 8.2-13 5.1-8.1 7.9-13.7 8.8-17.5 0.6-3 1.6-6.1 2.1-6.9 0.7-1.3 2.3-1.4 12.1-0.3 6.2 0.7 18.5 2.1 27.3 3.3 8.8 1.1 16.2 2.4 16.6 2.8 0.4 0.3 6.3 7.8 13.3 16.6 8.7 11.1 12.6 16.8 12.5 18.5 0 1.4-2 23.6-4.5 49.4-2.4 25.9-4.7 48.8-4.9 51-0.3 2.2-10 32-21.6 66.4-11.6 34.3-21.3 62.9-21.7 63.5-0.4 0.6-13.7 16.3-58.6 68.4l-7-0.6c-3.8-0.3-15.1-1.2-24.9-2-9.9-0.9-23.4-2-30-2.6-6.6-0.6-12.3-0.7-12.6-0.2-0.3 0.4-5.7 31.4-23.3 136.6l-6.6 12c-3.6 6.6-13.1 24.1-35.8 65.9l-20.2 17.5c-11.2 9.6-26.6 22.9-34.3 29.5-7.7 6.7-21.4 18.6-30.5 26.6-9.1 7.8-25.5 22-36.5 31.5-10.9 9.4-32 27.7-46.8 40.5-18.5 16.1-27 22.9-27.2 21.8-0.2-0.9 2.4-21.1 5.8-45 3.4-23.9 5.7-43.8 5.3-44.1-0.5-0.4-13.6-5.7-57.7-22.9l-2.5 2.8c-1.3 1.5-7.1 8.1-12.9 14.6-8.8 9.9-10.7 11.5-11.3 10-0.4-1-3.3-10.9-6.4-21.9-3.1-10.9-6.1-20.4-6.8-20.9-0.7-0.6-7.3-1.6-14.6-2.3-7.4-0.8-14.2-1.5-15.2-1.8-1.6-0.4-1.7 0.7-1.7 12.3 0 7.9-0.3 12.4-0.9 11.7-0.5-0.5-4.3-9.7-15.8-39.9l-10.1-0.2c-8.9-0.3-10.2-0.5-10.2-2 0-1-1.3-13.3-3-27.3-1.7-14-3.1-25.5-3.2-25.6-0.2-0.1-4.5 9-9.7 20.3-5.3 11.2-9.7 20.4-10 20.3-0.3 0-5.4-5.1-11.4-11.2-5.9-6.2-12.2-13-14-15.2-1.8-2.3-6.2-7.2-9.8-11-3.6-3.9-6.3-7.3-5.9-7.7 0.3-0.3 16.1-5.5 69.4-22.3l-6.9-0.7c-3.8-0.3-31.4-1.8-115.8-6.1l-26.4-19.7v-19.4l10.7-2.9c5.9-1.5 15.7-3.9 21.7-5.1 10.1-2.1 12.3-2.2 26.5-1.5 8.5 0.5 24.7 1.4 35.9 1.9 11.3 0.6 33.7 1.8 49.9 2.6 21.9 1.1 31.3 1.9 36.5 3.3 3.8 1.1 14.6 4.3 23.9 7.2 9.4 2.9 18.6 5.6 20.5 6.1 1.9 0.5 5.3 2.6 7.5 4.7 2.2 2.1 5 4.1 6.2 4.5 1.3 0.3 2.3 1.1 2.3 1.6 0 0.6 6.6 5.2 29.4 19.8l6.7-1.7c3.6-0.9 6.9-1.9 7.4-2.3 0.4-0.4 1.7-0.8 2.8-0.8 1.2 0 9-2 32.7-8.5l6.4-10c3.5-5.5 8.4-13.3 10.9-17.4 2.6-4.1 4.4-8 4.2-8.5-0.3-0.6-5.3-3.7-11.1-7-7.8-4.4-12.4-7.9-24.2-20l-2.8-12c-1.5-6.6-3.1-12.3-3.4-12.6-0.4-0.4-6.9-2.4-14.6-4.4-7.7-1.9-25.4-6.5-39.4-10.1-14-3.7-33.4-8.7-60.7-15.8l-19.3-21.1c-10.7-11.5-27.4-29.8-55.3-60.3l-4 2.4c-2.2 1.3-9.6 5.7-16.5 9.8-12.2 7.3-12.5 7.4-15.9 6.2-2-0.7-4.6-1.3-5.9-1.4-1.4 0-2.2-0.4-1.9-0.8 0.4-0.4 0.2-2-1.2-6.2h-9.8c-5.3 0.1-15 0.6-21.5 1.3-6.5 0.6-12 0.9-12.2 0.7-0.2-0.3 4.1-3.7 9.5-7.5 8.8-6.2 10-7.3 10-10 0-1.7-0.6-6.9-1.3-11.6-0.6-4.8-1.4-8.9-1.7-9.1-0.3-0.3-9-4.1-19.3-8.4-10.4-4.3-19.1-8.3-19.5-8.9-0.3-0.5-2-6.8-6.8-26.9l24.8-104.4c13.7-57.4 25.5-107 27.6-116.3l-22-38c-12.1-20.8-22.5-38.5-23.1-39.1-0.9-0.9-4.7 0.4-16.6 5.7-8.5 3.9-16.3 7.4-17.2 8-1 0.5-2.1 0.8-2.5 0.6-0.4-0.2-5-7.4-10.2-16-5.2-8.6-10-15.8-10.5-16-0.6-0.2-6.2-0.9-12.5-1.6-8.9-1-14.9-2.5-26.9-6.5-8.6-2.9-18.2-6.6-21.5-8.2-4.8-2.5-10-3.8-26.5-6.5-18-3.1-21.3-3.9-27.4-7.1-3.9-2.1-7.6-3.7-8.3-3.7-0.6 0-1.3-0.3-1.5-0.8-0.1-0.5-9.4-5.5-41.1-21.3l42.4-42.3-45.9-62.4-0.1-32.4 14.3-2.9c7.8-1.6 15.1-3.2 16.2-3.6 1.7-0.6 0.9-1.6-5.7-6.8-4.3-3.4-7.8-6.4-7.8-6.7 0-0.3 3.6-4 15.9-16l-2.9-50.4c-1.5-27.8-3-53.6-3.7-64.4l7.6-7.9c7.2-7.4 7.4-7.8 4.6-7.4q-3 0.3-2.7-1c0.1-0.7-0.5-7.2-1.3-14.4-0.8-7.3-1.5-13.7-1.5-14.3 0-0.5-2.9 3.4-6.5 8.8-3.5 5.3-6.7 9.7-7 9.7-0.2 0-3-2-6.2-4.5-3.2-2.4-6-4.1-6.3-3.7-0.4 0.4-2.1 9.1-6.9 38.2l-21.8 23.7c-12 13-28.2 30.7-36 39.2-13.4 14.6-14.3 16-18 24.9-2.2 5.3-10.3 24.4-32 75.4l9.7 16-16.2 0.6 13.2 13.4-8.9 38.4c-4.8 21.2-9.9 43.7-11.4 50-1.4 6.3-2.7 11.2-2.9 11-0.2-0.3-3.1-10.6-6.4-23-3.4-12.4-6.1-23.6-6.1-25 0-1.3 6.3-32.2 14-68.6 7.7-36.4 14-67.1 14-68.2 0-1.1 3.8-9.5 8.5-18.7 4.7-9.2 9-17 9.5-17.2 0.4-0.3 9-14.2 18.9-31 10-16.7 22.3-37.4 27.3-45.9 5-8.4 10-16 11.1-16.7 1.1-0.8 5.2-3.4 9-5.7 3.9-2.4 20-12.3 36-22.1 15.9-9.7 45.5-27.9 65.8-40.4 20.4-12.5 39.9-24.5 43.5-26.7 3.5-2.1 11.6-7.1 17.9-11 10.2-6.3 13.3-7.7 27-11.7 8.5-2.5 20-5.9 25.4-7.5 5.5-1.7 20.6-6.1 33.5-9.9 12.9-3.8 30.6-9 39.4-11.6 8.8-2.6 18.5-5.5 21.5-6.5 5.2-1.7 10.8-1.9 197.1-2z"/>
		<path id="Path 1" fill-rule="evenodd" class="s1" d="m1057 96c1.4-0.1 5.6 4 14.5 14.5 6.8 8.1 18.2 21.4 25.2 29.7 7.1 8.3 13.8 16.4 17.2 21l-5.8-0.7c-3.1-0.4-8.3-0.9-11.4-1.2-5.4-0.5-4.9-0.2 20.7 8.5l-5 8c-2.8 4.4-4.7 8.5-4.3 9.2 0.3 0.7 8.1 12.1 17.2 25.4 9.1 13.4 16.6 24 16.8 23.8 0.1-0.3-6.1-11.5-13.8-25-7.6-13.4-13.8-24.8-13.5-25.2 0.2-0.4 3.1-2.1 12.7-6.7l3.3 4c1.8 2.2 7.6 9.5 12.9 16.2 5.3 6.7 9.6 12.6 9.6 13 0 0.4-2 2.7-9 9.7l10.8 9.3c5.9 5.1 11.1 9.6 11.7 10.2 0.5 0.5 1.4 1.4 2 2 0.5 0.6 3.1 2.5 5.6 4.3 2.6 1.7 10.7 7.5 31.3 22.4l11.3 34.3c6.2 18.9 11.2 34.4 11 34.5-0.2 0.1-9.4-4.7-20.5-10.7-11.2-6-20.5-10.8-20.7-10.7-0.3 0.2 1.7 5.2 4.3 11.3 2.7 6 9.3 20.6 14.6 32.4 5.4 11.8 10.4 22.8 12.4 27.5l-15.9 12.5v-45l-6.8-14.2c-3.8-7.8-14-29.1-38.5-80.2l-15.5-19.9c-8.5-11-30-38.9-47.9-61.9-17.8-23.1-38.8-50.3-46.7-60.5-7.9-10.2-13.8-18.5-13-18.7 0.7-0.1 5.7-0.9 11.2-1.6 5.5-0.8 10.9-1.5 12-1.5zm-665.8 33.2c0.2 0.1 1 6.3 1.9 13.9 0.8 7.5 1.4 14.2 1.3 14.9q-0.3 1.3 2.7 1c2.8-0.3 2.6 0-12.2 15.3l0.4 7c0.3 3.8 1.8 29.6 6.2 107.8l-7.9 7.8c-4.4 4.2-8 7.9-8 8.2 0 0.3 3.5 3.3 7.8 6.7 6.6 5.2 7.4 6.3 5.7 6.8-1.1 0.4-8.4 2-30.5 6.5l0.1 32.4 45.9 62.4-42.4 42.3 20.9 10.5c11.6 5.8 20.3 10.6 19.5 10.6-0.8 0.1-10.9-2-22.5-4.5-11.5-2.5-36.7-7.9-55.9-12-19.2-4.1-35.4-7.7-35.9-7.9-0.6-0.2-5.3 3.3-10.5 7.7-5.2 4.4-13.2 11.1-17.7 14.9-6 5-8.1 7.3-7.7 8.6 0.3 1-0.7 5.3-2.1 9.7-1.4 4.4-2.2 8.3-1.8 8.7 0.5 0.3 9.7 4.7 20.6 9.7 10.8 5 20.1 9.1 20.7 9.1 0.5 0 4.1-1.9 8-4.3 3.8-2.3 7.3-3.8 7.7-3.4 0.4 0.4 0 4.5-0.9 9-0.9 4.5-1.6 8.3-1.5 8.5 0.1 0.2 8.9-1.9 39.1-9.4l49.4 16.5c27.2 9.1 48.5 16.7 47.4 16.8-1.1 0.2-9.9-1.2-37.4-6.7l-13.7 10.5c-7.6 5.8-13.9 10.9-14.1 11.3-0.1 0.3 12.2 6.9 55.1 28.6l-4.9 0.3c-2.7 0.1-16.8-0.4-31.4-1.2-14.5-0.8-26.7-1.3-26.9-1.1-0.3 0.1-6 6.4-12.8 13.8-6.7 7.5-12 13.9-11.7 14.2 0.3 0.2 8.1-3.4 17.5-8 9.3-4.7 17.2-8.3 17.4-8 0.3 0.3-1.6 4.4-4.1 9.2-2.6 4.8-6.7 12.4-9 16.7-2.4 4.4-4.2 8.1-4.1 8.2 0.2 0.1 13.1 3.1 57.2 13.6l8.5 7c4.6 3.9 8.9 7.4 9.4 7.8 0.6 0.4-1.5 3.8-5.2 8.3-3.4 4.2-6.2 7.8-6.2 8.1 0 0.3 2.5 1 5.7 1.7 5.4 1.2 4.5 1.3-33.7 1.8v26.9h20.5c11.2 0 20.4-0.3 20.4-0.7 0-0.4 3-1.9 6.6-3.3 3.7-1.3 6.8-2.7 7-3 0.2-0.2-3.2-11.2-7.6-24.4-6.9-20.8-7.7-24-6.2-24.3 1-0.1 6 0.4 11.2 1.2 7.2 1.1 9.8 1.1 10.6 0.3 0.6-0.7 5.7-8.5 11.3-17.4 5.5-8.9 10.4-16.2 10.8-16.2 0.4 0 7 11.9 14.7 26.5 7.7 14.6 14.3 27.1 14.7 27.7 0.4 0.7 5.4-3.1 13.4-10.2 7.1-6.3 13-11.5 13.1-11.5 0.2-0.1-0.4-5.3-1.2-11.6-0.8-6.3-1.4-11.5-1.3-11.6 0.2 0 7.9-0.7 17.2-1.6 9.4-0.8 17.1-1.5 17.3-1.4 0.1 0.1-4.1 6.5-9.3 14.4-5.2 7.8-9.5 14.3-9.5 14.5 0 0.1 3.6 3.1 8 6.7 4.5 3.6 8.1 6.7 8.1 7 0 0.3-2.8 11.9-6.1 25.9-3.4 14.1-6.3 26.3-6.5 27.3-0.4 1.5-1.8 1.7-19.9 1.7l19.4 19.5-12.7 3.3c-7 1.8-12.8 3.4-13 3.5-0.1 0.1-2.4 8-5 17.7-2.7 9.6-4.6 17.6-4.3 17.7 0.3 0.2 7-1.6 14.8-3.9 7.8-2.4 14.5-4 15-3.6 0.4 0.4-1.9 4.7-11 18.2l7.9 21.7c4.3 12 7.5 22.1 7.1 22.5-0.5 0.4-6.2-0.7-24.7-5.7l-0.7 2.7c-0.4 1.5-1.9 7.5-6.1 23.7l48.8 49-20.8 6.2c-11.4 3.4-23.6 7-33.7 9.8l-45.7 56.9c-25.1 31.3-45.6 57.2-45.6 57.6 0 0.5 2.1-0.1 4.7-1.2 2.6-1 11.4-4.4 19.5-7.4 8.1-3.1 14.9-5.4 15.2-5.1 0.3 0.3-6.2 10.6-14.5 23-8.2 12.3-15.1 22.9-15.2 23.4-0.1 0.5 1.8 4.5 4.2 9 2.5 4.4 4.8 8 5 7.9 0.3 0 12.8-12.9 27.8-28.7 15-15.7 27.6-29.1 28-29.7 0.3-0.6 3.8-2.1 7.6-3.4 3.9-1.3 7.6-2.4 8.3-2.6 0.6-0.2 1.2 0.1 1.2 0.6 0 0.6-10.9 13.2-24.2 28.2-13.3 15-29.7 33.4-36.4 41-6.8 7.5-12.2 13.9-12 14.2 0.1 0.3 14.6 2.7 32.2 5.3 21.4 3.3 31.8 5.3 31.7 6-0.2 0.7-7.2 14.3-15.7 30.4-8.5 16.1-16 29.7-16.7 30.3-0.7 0.5-9.9 4.8-20.3 9.4-10.4 4.6-21.7 9.5-25 11-3.2 1.5-7.5 3.4-12.9 5.7l-13 49.2-5-0.6c-2.7-0.3-9.7-1.1-26-2.9l8.8-3c4.8-1.6 8.8-3.4 8.7-4 0-0.5-2-5.1-9-19.5h-16.4c-12.5 0-16.5-0.3-16.5-1.2-0.1-0.7 7.4-4 17.4-7.8 9.6-3.5 17.3-6.5 17.2-6.6-0.1-0.1-8.7-0.9-19.1-1.8-10.5-0.9-19.2-1.9-19.5-2.2-0.3-0.3-5.8-24-12.2-52.6-6.5-28.7-15.8-69.8-20.7-91.5-5-21.7-11-48.5-13.5-59.5-2.5-11-4.7-20.9-5-22.2-0.3-1.2-4.9-7.3-19.8-24.7l-7.6-1.1c-4.1-0.6-10-1.4-18.5-2.5l1.1-18.2c0.7-10 1.4-21.7 2.2-34.1l-11.5 23c-6.4 12.6-11.8 22.5-11.9 21.9-0.2-0.5-2.9-14.2-5.9-30.4-3-16.3-5.5-30.4-5.4-31.5 0-1.1 1.3 1.4 5.4 13.3l10.7-7.6c5.8-4.3 10.9-7.9 11.2-8.2 0.3-0.3-2.1-26.1-5.5-57.4-3.3-31.3-6.4-57.7-6.7-58.7-0.6-1.5-2.3-0.6-22.8 13.7l-0.7-4.9c-0.3-2.8-1.8-18.1-6-63l7.6-9.5c4.1-5.2 10.7-13.4 21.7-26.9l-16.3-204.2 13.2-145.8 12.5-28c6.9-15.4 12.5-27.4 12.5-26.7 0 0.7-6.2 31-13.9 67.4-7.7 36.4-14 67.3-14 68.6 0 1.4 2.7 12.6 6.1 25 3.3 12.4 6.2 22.7 6.4 23 0.2 0.2 1.5-4.7 2.9-11 1.4-6.3 6.6-28.8 20.2-88.4l-13.1-13.4 16.2-0.6-9.7-15.9 14-33c7.7-18.1 15.8-37.2 17.9-42.5 3.7-8.9 4.7-10.3 18.1-24.9 7.8-8.5 24-26.2 57.8-62.9l3.1-18.8c1.7-10.3 3.4-19 3.8-19.4 0.3-0.4 3.1 1.3 6.3 3.7 3.1 2.5 6.1 4.3 6.5 4.1 0.4-0.2 3.4-4.4 6.6-9.4 3.3-4.9 6.1-8.9 6.2-8.8zm-69.8 30.1c0.2 0.3-6.3 11.6-14.3 25.2-8 13.6-20.1 33.8-26.7 44.9-6.6 11.1-12.2 20-12.3 19.7-0.2-0.2 6.9-15.5 15.7-33.9 8.8-18.4 15.9-33.8 15.7-34.2-0.1-0.4 4.7-5.5 10.7-11.4 6-5.9 11-10.5 11.2-10.3z"/>
		<path id="Path 2" class="s2" d="m1092.4 158.9c0.8-0.1 6.2 0.4 11.9 1.1 9.9 1.2 10.3 1.4 11.8 4.3 0.8 1.6 3.7 5.2 11.3 13l-6.1 3c-3.4 1.6-6.3 3.3-6.5 3.7-0.3 0.4 5.9 11.8 13.5 25.2 7.7 13.5 13.9 24.7 13.8 25-0.2 0.2-7.7-10.4-16.8-23.8-9.1-13.3-16.9-24.7-17.2-25.4-0.4-0.7 1.5-4.8 9.3-17.2l-13.3-4.4c-7.2-2.5-12.5-4.5-11.7-4.5zm-792.9 22c0.2 0.2-4.7 10.9-10.8 23.8-6.1 12.9-17.1 35.6-24.4 50.5-7.3 14.8-19.2 40.2-39.5 85.9l-13.2 145.8 16.3 204.2-7.1 8.7c-3.9 4.8-10.5 13-22.2 27.7l2.7 29c1.5 15.9 3 31.2 4 38.9l11-7.7c9.5-6.6 11.2-7.5 11.8-6 0.3 1 3.4 27.4 6.7 58.7 3.4 31.3 5.8 57.1 5.5 57.4-0.3 0.3-5.4 3.9-21.9 15.8l-3.8-10.7c-2.1-5.8-6.3-19.6-9.3-30.6-3-10.9-7.4-27.3-9.8-36.4-2.4-9.1-7.5-28.2-11.4-42.5-3.8-14.2-9.5-35.3-12.5-46.7-3.5-12.7-5.6-22.7-5.6-25.9 0-2.9 1.4-18.7 3-35.2 1.7-16.5 3.2-30.1 3.3-30.2 0.1-0.1 5.4 2 23.1 9.5l1.6-2.1c0.9-1.2 4.4-6.2 14.2-20.2l-19.7-194.7 6.3-76.4c3.4-42 6.4-78 6.7-79.9 0.4-2.7 3.7-7.1 14.6-19.5 7.7-8.7 16.7-19.1 20-22.9 3.3-3.9 7.9-9.1 10.2-11.5 2.2-2.5 10.4-11.7 18-20.5 7.7-8.8 14.4-16.5 15-17.1 0.5-0.6 4.1-4.6 8-8.8 3.8-4.3 7.4-8.5 7.9-9.2 0.5-0.8 1.1-1.3 1.3-1.2z"/>
		<path id="Path 3" class="s0" d="m1153 211.7c0.2 0 3.2 5.9 6.8 13 3.6 7.1 6.4 13.2 6.2 13.5-0.1 0.3-5-3.6-21.7-18l4.2-4.2c2.3-2.4 4.3-4.3 4.5-4.3z"/>
		<path id="Path 4" class="s2" d="m1186.8 315.6c0.2 0 9.8 5 21.2 11.1 11.4 6.2 21 11.7 21.4 12.3 0.4 0.6 2.3 7.6 4.2 15.5 1.9 8 5.3 22.4 11.6 49.5l4.9 67.4c2.6 37 4.6 68.9 4.4 70.9-0.2 1.9-1 23-1.9 46.9-1.1 32-1.9 45-3.1 49.4-0.8 3.3-1.8 6.3-2 6.5-0.3 0.3-8.9 1.9-19.2 3.6-10.2 1.8-18.9 2.9-19.2 2.5-0.4-0.3-1.3-17.2-3.7-74.5l19.5-25.9-4.9-16.5c-2.7-9.1-7.6-25.9-17.2-58.4l-0.6-76.4 15.9-12.5-1.3-3c-0.7-1.7-5.7-12.7-11.1-24.5-5.3-11.8-11.9-26.4-14.6-32.4-2.7-6.1-4.9-11.1-4.9-11.3 0.1-0.1 0.3-0.2 0.6-0.2zm-898.7 143.3c0.7 0.3 16.9 3.8 36.1 7.9 19.3 4.1 45.5 9.8 58.4 12.5 18.9 4.1 24.9 5.8 30.5 8.7 6.1 3.1 9.6 4 27.4 7.1 17 2.8 21.6 4 27 6.7 3.6 1.8 13 5.4 35.4 12.9l21.2 16.8c11.7 9.2 21.7 16.8 22.3 16.8 0.5 0 1.3 0.6 1.7 1.3 0.4 0.7 4.8 4.7 9.7 8.9 5 4.2 9.4 7.7 9.8 7.7 0.4 0 2.8-4.2 10.2-19l17.5 28.7c9.6 15.8 17.6 29.2 17.7 29.7 0.2 0.6-4 6-9.2 12.1-5.2 6-9.5 11.4-9.4 12 0 0.5 2.1 16 4.7 34.4 2.8 19.3 4.5 34.5 4.1 36-0.4 1.3-11.1 37.1-23.9 79.4-12.7 42.2-23.4 78.1-23.8 79.6-0.5 1.9-0.3 2.8 0.6 2.8 0.7 0 12.8 4.2 26.9 9.5 14.2 5.2 27.7 10.2 34.2 12.4l-14.4 19.2c-7.9 10.6-14.1 19.4-13.7 19.5 0.4 0.2 8.5-1.5 18.1-3.6 9.7-2.2 18.9-4.3 20.5-4.6 2-0.4 6.3 0.3 12.5 2.1 5.2 1.5 10 3.2 10.7 3.8 0.7 0.6 3.5 8.7 6.4 18 2.8 9.4 5.2 17.1 5.2 17.3 0.1 0.1 7.6-10 33-45.2l3.3 16.5c1.9 9 3.5 16.5 3.6 16.5 0.1 0 7.6 4.9 16.7 10.8 9 6 25.6 16.8 57.4 37.6h-25.5l5 10c3.4 6.9 5.5 10 6.7 10 1 0 17.1 0.6 35.7 1.4 18.7 0.9 36.2 1.5 43.9 1.5l13.3 23.5 6.3-8.2c3.5-4.5 6.7-8.1 7.1-7.9 0.3 0 6 4.7 12.4 10.3 6.5 5.6 14.4 12.8 17.6 16 4.9 5 6.6 7.8 12.1 20.3 3.6 7.9 6.2 14.8 5.8 15.2-0.4 0.3-11.2 7-24.1 14.7-12.9 7.7-23.9 14-24.5 14-0.5 0.1-11.1-4-23.5-9-12.3-4.9-23.4-9.8-24.6-10.7-1.2-1-6.5-5.2-11.7-9.5-5.3-4.3-9.6-8.1-9.6-8.5 0-0.4 2.2-0.6 4.8-0.4 2.6 0.1 11.6 0.8 19.9 1.5 8.4 0.6 15.2 1.1 15.2 0.9 0.1-0.1-1.8-3.3-4.1-7-2.2-3.7-9.3-15-15.6-25.2-6.3-10.1-11.7-18.8-12.1-19.2-0.3-0.4-16.3-1.4-35.5-2.3-19.2-0.8-37.2-1.4-40-1.4-2.7 0-17.8-2.8-61.9-12.7l-19.4-0.3c-10.7-0.1-19.8-0.5-20.1-0.9-0.3-0.3-2.6-5.3-5-10.9-2.4-5.6-4.7-9.9-5-9.5-0.4 0.4-2.5 7.1-4.9 14.8-2.3 7.6-4.2 14.4-4.3 14.9-0.1 0.5-5.6 2.3-12.3 4-6.7 1.7-12.4 3.3-12.7 3.5-0.3 0.3 4 3.2 9.7 6.4 5.6 3.2 11.5 6 13.1 6.1 1.7 0.2 11.1-0.6 21-1.6 9.9-1 22.9-2.4 39.9-4.1l31.5 10.1c17.3 5.6 32.2 10.1 33.2 10.1 0.9 0 7 2 13.5 4.4 6.4 2.4 13.5 5.1 15.7 6 3.5 1.3 4.1 2.1 5.2 6.3 0.7 2.6 1.2 4.9 1 5-0.1 0.1-2.7-0.5-5.7-1.3-3.4-0.9-16.9-2-35-2.9-16.2-0.8-38.6-2-49.9-2.6-11.2-0.5-27.4-1.4-35.9-1.9-14.2-0.7-16.4-0.6-26.5 1.5-6 1.2-15.8 3.6-21.7 5.1-6.4 1.7-10.7 3.4-10.7 4.1 0 0.7-2.4 2.1-5.3 3.1-2.8 1-9.5 3.3-24.2 8.4l5 3.2c2.8 1.7 13.1 8.4 41 26.3l12.9 1.1c7.2 0.6 20.9 1.8 30.5 2.7 9.6 0.8 18.6 1.6 20 1.9 1.3 0.2 4.5 0.4 11.4 0.6l-10.4 5.5c-7.4 3.9-16.3 7.3-30 11.5-10.7 3.3-20 6.6-20.6 7.2-0.6 0.7-3 7.5-5.2 15.2-2.3 7.6-3.9 14-3.6 14.2 0.2 0.1 4.4-1.9 9.2-4.4 4.8-2.5 13.6-7.3 19.5-10.5 5.9-3.2 11-5.8 11.4-5.8 0.4 0 3 3 5.8 6.5 2.7 3.6 5.6 7.2 6.5 8 1.3 1.3 2.4 0.6 17.2-14l2.9 3.5c1.6 1.9 4 4.7 5.4 6.2 1.3 1.5 2.4 3.1 2.4 3.5 0.1 0.4 3.8 5.7 16.5 22.6l45.2 16.1 6.1 15.5c3.4 8.5 5.9 15.6 5.6 15.7-0.3 0.1-5.8-3-12.2-7-6.4-4-14.4-8.3-17.7-9.5-3.3-1.3-6.8-2.6-7.8-2.8-1.3-0.3-1.8 0.2-1.8 1.8 0 1.3 2.6 12.6 11.4 48.2l-3.9 3.6c-2.2 1.9-8.1 7.2-13.2 11.7-5.1 4.5-9.2 8.5-9.2 8.9 0 0.4-2.9 23.7-6.4 51.7-3.5 28-6.2 51.2-6 51.4 0.2 0.3 5.4-1.7 22.4-9.4v-16.3c0-15 0.1-16.2 1.7-15.6 1 0.3 6.6 2.4 12.5 4.7 7 2.7 11.1 3.8 11.6 3.2 0.5-0.6 1.2-3.7 1.5-7 0.3-3.3 1.5-14.3 2.7-24.5 1.1-10.1 2.3-19.1 2.6-20 0.3-0.8 3.4 6.9 6.8 17 4.4 13.1 6.6 18.4 7.6 18.2 0.8-0.2 3.9-1.9 6.9-3.7 3-1.9 5.8-3.4 6.2-3.5 0.4 0 0.9 2.4 1.1 5.3 0.1 2.8 0.4-0.4 0.7-19.8l5.2-4.1c2.9-2.3 9.5-7.6 14.7-11.9 5.2-4.2 11-9.1 16.3-13.9l-1.5-9c-0.9-5-1.4-9.2-1.2-9.5 0.2-0.3 7.9 3 17.1 7.2 9.2 4.3 17.1 7.8 17.5 7.8 0.4 0 0.9-9.4 1.2-41.6l22.5 9.6c18.2 7.8 22.5 10 22.5 11.6 0 1-0.7 9.9-1.5 19.6-0.9 9.8-1.5 17.8-1.5 17.8 0 0-4.7-2.1-10.5-4.5-5.8-2.5-10.8-4.5-11.1-4.3-0.4 0.1 1.3 6.3 3.7 13.7 2.4 7.5 4.1 13.8 3.8 14-0.2 0.3-8.2-1.7-34.8-9.1l-19.6 19.6 15.8 4.8c8.6 2.7 16 5 16.2 5.3 0.3 0.3-0.1 5.8-0.9 12.2-0.7 6.4-1.6 12.4-2 13.3-0.3 0.9-12.9 11.2-28 23-15.2 11.7-29.4 22.7-31.7 24.3-2.2 1.6-13.5 10.4-45.7 35.7l-24.9 6.8c-13.8 3.7-41.8 11.3-62.4 16.9-20.6 5.6-44 11.9-51.9 14.1-8 2.1-15.1 3.9-15.8 3.9-0.9 0-1.2-3.2-1.2-25.5l-9.2-2.8c-5.1-1.6-12.7-3.9-16.8-5.2-4.1-1.3-14.6-4.4-23.4-7-15.8-4.6-16.1-4.8-20.9-9.8-2.7-2.8-9.6-10.1-15.4-16.1-5.8-6.1-15.5-16.2-21.6-22.5-6.1-6.3-15.5-16.2-21-22-5.5-5.7-15.3-16.1-21.9-22.9-6.6-6.9-21.2-22.2-32.5-34-11.3-11.8-23.5-24.6-27.1-28.4-5.9-6.3-7.9-9.5-18.6-31-6.6-13.2-12.2-25-13.2-28.5h32.9l4.5 9.3c2.5 5.1 4.5 9.7 4.6 10.2 0 0.6-4 2.4-17.5 7l10.4 1.2c5.8 0.6 12.8 1.4 20.5 2.3l13-49.2 3.5-1.5c1.9-0.8 6.2-2.7 9.5-4.2 3.3-1.5 14.5-6.4 24.9-11 10.4-4.6 19.6-8.9 20.3-9.4 0.7-0.6 8.2-14.2 16.7-30.3 8.5-16.1 15.5-29.7 15.7-30.4 0.1-0.7-10.3-2.7-31.7-6-17.6-2.6-32.1-5-32.2-5.3-0.2-0.3 5.3-6.7 12-14.2 6.8-7.6 23.2-26 36.4-41 13.3-15 24.2-27.5 24.2-27.9 0-0.5 2.3-2.4 5.2-4.4 4.9-3.3 7.8-4.2 35.2-10.3 16.5-3.7 30.1-6.8 30.2-6.9 0.1-0.1 0.9-19.7 1.8-43.6 0.9-23.9 1.5-45.1 1-50.7l-26.3 18.6c-14.5 10.2-25.7 18.8-25 19 0.8 0.2 6.8-1 13.5-2.5 6.7-1.6 12.4-2.6 12.6-2.4 0.2 0.3 3.1 9.7 6.5 21 3.4 11.3 6 20.5 5.9 20.7-0.1 0.1-5.6-1.9-12.2-4.3-6.6-2.5-12.2-4.2-12.5-3.9-0.2 0.3 0.8 4.4 2.3 9 1.5 4.6 2.6 8.8 2.4 9.2-0.2 0.4-7.8 3.4-33.1 12.5l-12.5 12.2c-6.8 6.7-24.8 25.3-39.9 41.2-15.1 16-27.7 29.1-28 29.1-0.2 0-2.5-3.5-5-8-2.4-4.4-4.3-8.4-4.2-8.9 0.1-0.5 7-11.1 15.2-23.4 8.3-12.4 14.8-22.7 14.5-23-0.3-0.3-7.1 2-15.2 5.1-8.1 3-16.9 6.4-19.5 7.4-2.6 1.1-4.7 1.6-4.7 1.2 0-0.4 20.5-26.3 91.3-114.5l6.5-1.8c3.6-1 15.8-4.6 48-14.2l-48.7-49 2.6-10.5c1.5-5.7 3-11.7 4.1-15.9l11.9 3.2c6.6 1.8 12.4 2.9 12.8 2.5 0.4-0.4-2.8-10.5-15-44.2l5.9-8.7c3.2-4.8 5.5-9.1 5.1-9.5-0.5-0.4-7.2 1.2-15 3.5-7.8 2.4-14.5 4.2-14.8 4-0.3-0.1 1.6-8.1 4.3-17.8 2.6-9.6 4.9-17.5 5-17.6 0.2-0.1 6-1.7 25.7-6.8l-19.4-19.5h9.7c8.5 0 9.8-0.2 10.2-1.7 0.2-1 3.1-13.2 6.5-27.3 3.3-14 6.1-25.6 6.1-25.9 0-0.3-3.6-3.4-8.1-7-4.4-3.6-8-6.6-8-6.8 0-0.1 4.3-6.6 9.5-14.4 5.3-7.9 9.4-14.3 9.3-14.4-0.2-0.1-7.9 0.6-17.3 1.4-9.3 0.9-17 1.6-17.2 1.6-0.1 0.1 0.5 5.3 1.3 11.6 0.8 6.3 1.4 11.5 1.2 11.6-0.1 0-6 5.2-13.1 11.5-8 7.1-13 10.9-13.4 10.2-0.4-0.6-7-13.1-28.6-54.2l-15.4-7.8c-8.5-4.2-15.8-7.8-16.3-8-0.4-0.1 0.6 4.8 2.2 11 1.6 6.2 3 11.9 3 12.7 0.1 0.9-2.1 2.5-5.2 3.9-2.9 1.3-11.8 5-34.2 14l-27.5-6.5c-15.1-3.6-27.5-6.7-27.7-6.7-0.1-0.1 1.7-3.8 4.1-8.2 2.4-4.4 6.4-11.9 9-16.7 2.5-4.8 4.4-8.9 4.1-9.2-0.2-0.3-8.1 3.3-17.4 8-9.4 4.6-17.2 8.2-17.5 8-0.3-0.3 5-6.7 11.7-14.2 6.8-7.4 12.5-13.7 12.8-13.8 0.2-0.2 11.9 0.3 25.9 1 14 0.8 29.7 1.6 35 1.9 5.2 0.3 13.7 1.2 18.9 2.1 5.2 0.9 10.3 1.3 11.3 1 0.9-0.3 1.8-0.2 2 0.3 0.1 0.4 5.1 2.9 22.2 10.2l8.5-1.5c4.6-0.9 8.5-1.7 8.7-1.8 0.1-0.1-2.8-1.5-6.5-3.1-3.7-1.6-7.2-3.3-7.7-3.7-0.6-0.3-4.5-1.7-8.8-3-4.3-1.3-7.8-2.7-7.7-3.1 0-0.5 6.7-3.4 15-6.5 8.3-3.2 15-6.2 14.9-6.8-0.1-0.5-2.2-2.1-4.8-3.6-2.5-1.4-12.3-6.6-21.6-11.6-11.6-6.3-19.3-9.7-24.3-11-4-0.9-7-2.1-6.7-2.5 0.3-0.4-21.6-8.1-97.8-33.3l-19.5 4.9c-10.7 2.6-19.5 4.7-19.6 4.5 0-0.2 0.6-4 1.5-8.5 0.9-4.5 1.3-8.6 0.9-9-0.4-0.4-3.8 1.1-7.7 3.4-3.9 2.4-7.5 4.3-8 4.3-0.6 0-9.9-4.1-20.7-9.1-10.9-5-20.1-9.4-20.6-9.7-0.4-0.4 0.4-4.3 1.8-8.7 1.4-4.4 2.4-8.7 2.1-9.7-0.4-1.3 1.7-3.6 7.7-8.6 4.5-3.8 12.4-10.5 17.5-14.9 5.1-4.4 9.9-7.9 10.5-7.7z"/>
		<path id="Path 5" class="s1" d="m956 485.7c1 0.1 9.8 6.2 19.6 13.6 9.9 7.5 17.8 13.6 17.7 13.8-0.1 0.1-11.2-3.9-49.1-18l-33.5 2.7c-18.4 1.4-35 2.8-36.9 3-1.9 0.3-10.1 1-18.2 1.7-8 0.7-14.9 1.1-15.1 0.8-0.3-0.2 6.3-1.5 14.6-2.7 8.4-1.2 22.8-3.4 32.2-4.8 9.3-1.4 28.2-4.3 41.9-6.4 13.7-2.1 25.8-3.8 26.8-3.7z"/>
		<path id="Path 6" class="s2" d="m939.9 495.5c3.7-0.1 10 1.8 28.5 8.7 13 4.8 24.8 9.4 26.3 10.2 1.4 0.8 6.4 4.6 11.1 8.4 4.7 3.8 8.7 7.2 8.7 7.5 0 0.3-2.3 1-5.2 1.7-2.9 0.6-12 2.6-20.2 4.3-13.2 2.7-15.7 3-21.5 2.1-6.2-0.9-7-0.8-19.9 3.4-7.4 2.4-16.4 5.5-20 6.8-3.6 1.4-14.8 4.3-25 6.5-10.1 2.3-26.5 5.8-36.4 8-9.9 2.2-20.5 4.4-23.7 5-3.2 0.6-5.7 1.6-5.7 2.1 0 0.6 3.2 5.6 7.1 11.3 3.9 5.6 7.4 10.5 7.7 10.9 0.3 0.4 3.8 1.7 7.6 2.9 3.9 1.1 9 2.6 11.5 3.3 2.5 0.7 12.6 3.6 22.5 6.5 9.8 2.9 26.2 7.7 36.4 10.7 10.2 3 20.7 6.1 23.4 7 2.8 0.9 10 3.5 16 5.8 6.1 2.4 14.3 5.4 18.2 6.9 4 1.5 7.2 2.9 7 3.1-0.1 0.3-5.6 1.9-12.2 3.5-8.4 2.2-14.4 3.1-20 3.1-7.9 0-8.1-0.1-27.4-8.9-10.7-4.9-24.5-11.4-30.7-14.5-6.3-3.1-11.5-5.2-11.7-4.6-0.3 0.5 0.8 6.9 2.4 14.2 1.6 7.3 2.6 13.6 2.3 14-0.4 0.4-13.5 7.8-57.6 32.3l-22.3-9.5c-12.2-5.3-22.2-9.9-22.2-10.3 0-0.4 2.7-4.1 12-15.8l-8-11.4c-4.4-6.4-8.3-11.5-8.7-11.5-0.4 0-4.7 1.3-9.5 3-4.8 1.6-8.9 2.6-9.2 2.2-0.2-0.4 0.8-7 2.1-14.7 2-11.2 3.2-15.1 5.7-19.5 2.3-3.8 4.5-6.1 7.2-7.5 2.2-1.1 8.4-4 13.9-6.4 5.5-2.4 12.7-5.6 16-7 3.3-1.5 9-4 12.7-5.6 3.7-1.6 6.8-3.2 6.8-3.4 0-0.3-3.1-1.3-6.8-2.3-3.7-1-22-5.9-40.7-10.9-18.6-5-34.3-9.4-34.7-9.7-0.4-0.4 7.7-4.3 18-8.8 10.3-4.5 26.4-11.5 35.7-15.6 9.3-4.1 18.5-7.7 20.5-8.1 1.9-0.3 11.6-1.2 21.4-2.1 9.9-0.8 21.4-1.7 25.5-2 4.1-0.4 19.4-1.7 33.9-2.9 14.6-1.3 28.6-2.4 31.2-2.4z"/>
		<path id="Path 7" class="s1" d="m1208.6 496.3c0.2 0.3 3.8 12 7.9 26 4.2 14 7.7 26.2 7.9 27 0.1 0.9-4.1 7.4-19 27.4l1.5 37c0.9 20.3 1.8 37.2 2.2 37.5 0.3 0.4 8-0.6 17.1-2.2 9-1.5 17.7-3 19.2-3.3 2.6-0.5 2.4 0-4.9 11.7-4.2 6.7-8 12.7-8.4 13.2-0.5 0.6-2-3-3.5-8-1.5-4.9-3-9.3-3.3-9.7-0.3-0.4-6.2 2.8-25.6 14.8l-0.5-91.5 19.1-28.4-5-25c-2.8-13.7-5.1-25.4-5.1-26 0-0.5 0.1-0.7 0.4-0.5zm-384.2 9.2l-3 1.3c-1.7 0.7-11.1 4.9-21 9.2-9.9 4.4-24.6 10.9-32.7 14.4-8.1 3.5-14.4 6.6-13.9 7 0.4 0.3 16 4.7 34.6 9.7 18.7 5 37 9.9 40.7 10.9 3.7 1 6.8 2 6.8 2.2 0 0.3-3.1 1.9-6.8 3.5-3.7 1.6-9 3.9-11.7 5.1-2.8 1.3-9.3 4.2-14.5 6.4-5.2 2.3-11.4 5.1-13.7 6.1-2.3 1.1-4.5 1.7-4.8 1.4-0.2-0.2 0.9-2.8 2.5-5.7 1.7-2.9 3-5.7 3-6.3 0-0.5-12.1-5.2-26.9-10.5-14.8-5.2-27-9.8-27-10.2 0-0.4 7.9-9.3 35-38.7l8.2-1c4.5-0.5 15.2-1.8 23.7-2.9 8.5-1 16.8-1.9 21.5-1.9zm-148.1 2.9l15.5 12.4-9.1 4.7c-5 2.5-9.2 4.5-9.4 4.4-0.1 0 0.2-3.7 0.8-8.1 0.6-4.4 1.4-9.2 1.7-10.7zm-169.7 6.9c1.5 0 6.3 0.5 10.5 1.1 4.3 0.5 8.6 1.2 9.7 1.4 1.4 0.2 5 5.3 10.8 14.9 4.8 8 8.5 14.8 8.2 15.1-0.3 0.3-9.1-6.3-19.7-14.6-10.6-8.3-19.9-15.8-20.7-16.5-1.3-1.2-1.2-1.4 1.2-1.4z"/>
		<path id="Path 8" class="s0" d="m229.5 523.3c0.2 0.8 4.4 24.2 18.2 102.4l-1.7 7.7c-0.9 4.3-1.9 7.8-2.1 7.8-0.3 0-2.5-1.9-9.1-8.5l-2.9-51c-1.6-28-2.9-52.9-2.9-55.4 0.1-2.5 0.3-3.8 0.5-3z"/>
		<path id="Path 9" class="s1" d="m1014.7 530.8l7.5 6c4.1 3.3 8.5 6.8 9.6 7.7 1.6 1.3 1.8 1.7 0.7 1.8-0.8 0-12-1.4-24.9-3-12.9-1.6-25.1-3.3-27-3.6-2.9-0.6-0.3-1.4 15.3-4.8zm-429.8 4.8c0.6 0.7 11.1 18.3 45.2 77.1l-1.4 6c-0.8 3.3-12.6 53-51.1 214.7l3.1 13c1.8 7.1 3.4 13.4 3.8 14 0.3 0.5 9 4.5 19.4 8.9 10.4 4.3 19.1 8 19.4 8.3 0.2 0.3 1 4.4 1.7 9.1 0.6 4.8 1.2 10 1.2 11.6 0 2.7-1.2 3.8-9.9 10-5.5 3.9-9.8 7.2-9.6 7.5 0.2 0.3 3.7 0.2 7.7-0.2 4.1-0.5 7.4-0.7 7.6-0.5 0.1 0.1-7.3 1.9-16.5 4-9.2 2.1-16.8 3.7-16.9 3.5-0.1-0.2 6.3-8.9 28.7-38.7l-4.3-1.5c-2.3-0.8-15.8-5.7-29.9-11-14.2-5.2-26.3-9.5-27-9.5-0.8 0-1-0.8-0.6-2.7 0.4-1.6 11.1-37.4 23.9-79.7 12.7-42.3 23.4-78 23.8-79.4 0.4-1.4-1.3-16.7-4.1-36-2.6-18.4-4.7-33.9-4.7-34.4 0-0.6 4.2-5.9 9.4-12 5.2-6 9.4-11.4 9.2-12-0.1-0.6-8.1-14-35.2-58.4l-4.7 9.5c-2.6 5.2-5.1 9.5-5.5 9.4-0.4 0-4.9-3.6-19.2-15.9l5.2-2.2c2.8-1.3 10.8-4.9 17.7-8 9.6-4.4 12.7-5.4 13.6-4.5zm377.8 2.2c1.3 0.2 4.7 0.7 7.4 1 2.8 0.3 4.8 0.8 4.5 1-0.2 0.2-11 2.6-23.9 5.5-12.9 2.8-24.8 5.3-26.5 5.6-2.5 0.4-2.4 0.2 1-1.2 2.2-0.9 11-4 19.5-6.9 8.5-3 16.6-5.2 18-5zm292 5.5c0.2 0 0.5 20 0.5 44.5 0 43.7-0.1 44.4-2 44.4-1.3 0-2-0.7-2-1.8 0-0.9 0.7-18.8 1.5-39.7 0.8-20.8 1.4-40 1.4-42.6 0.1-2.7 0.3-4.8 0.6-4.8z"/>
		<path id="Path 10" class="s0" d="m404.6 555c1.9 0.3 13.1 2.5 46.4 9.2l25.5 25.5-18.7 7.3c-10.3 4-20.3 7.7-22.3 8.2-3.3 1-4.9 0.3-32.4-13.5-15.9-8-29-14.9-29-15.4 0-0.5 6.1-5.6 13.5-11.4 12.5-9.8 13.8-10.5 17-9.9z"/>
		<path id="Path 10 copy" class="s0" d="m647.7 493.5c1.9 0.3 13.1 2.5 46.4 9.2l25.5 25.5-18.7 7.3c-10.3 4-20.4 7.7-22.3 8.2-3.3 1-4.9 0.3-32.4-13.5-15.9-7.9-29-14.9-29-15.4 0-0.4 6.1-5.6 13.5-11.4 12.5-9.8 13.7-10.5 17-9.9z"/>
		<path id="Path 11" class="s1" d="m907.2 554.4c1.1 0-9.4 4-23.4 8.9-14 4.9-26.1 8.9-26.7 8.9-0.7 0-1.3 0.4-1.3 0.8 0 0.4 4.9 3.5 10.8 6.9 5.9 3.3 22 12.5 35.9 20.4 13.8 7.9 25.1 14.5 24.9 14.5-0.1 0.1-11.7-3.1-25.7-7.2-14-4.1-27.7-8.1-30.4-8.8-2.8-0.8-8.1-2.4-12-3.5-3.8-1.2-7.3-2.5-7.6-2.9-0.3-0.4-3.8-5.3-7.7-10.9-3.9-5.7-7.2-10.7-7.2-11.3 0-0.5 0.3-1 0.5-1 0.3 0 11.2-2.3 24.3-5.1 13-2.8 28.2-6.2 33.6-7.4 5.5-1.2 10.9-2.3 12-2.3z"/>
		<path id="Path 12" class="s2" d="m349.2 564.3c0.3 0 3 1.2 6 2.7 3 1.5 5.5 3 5.5 3.2 0 0.3-4.7 3.2-10.5 6.5-6 3.5-10.5 6.7-10.5 7.5 0 0.8 1.4 6 3 11.5 2.7 9.5 2.8 10.1 1.2 12-0.9 1.1-9 9.9-34.1 37.4h-16v-45.4l9.1-1.5c5-0.8 9.2-1.7 9.4-2 0.2-0.3-6.7-4-15.3-8.3-8.6-4.3-15.5-7.9-15.2-8.1 0.3-0.2 10.4-3.1 22.5-6.5 12-3.4 22-6 22.1-5.9 0 0.2 2.2 3.9 9.5 16.3l6.4-9.7c3.5-5.4 6.6-9.7 6.9-9.7z"/>
		<path id="Path 13" class="s1" d="m452.8 565.2c0.4 0 8.5 4.2 17.9 9.2 9.5 5.1 19.5 10.4 22.2 11.9 2.8 1.5 4.8 3.1 4.5 3.6-0.2 0.4-6.8 3.3-14.4 6.3-7.7 3.1-16 7-18.5 8.6-2.5 1.7-5.4 3.4-6.5 3.8-1.1 0.4-6 0.2-11-0.5-4.9-0.6-9.5-1.5-10.3-1.8-0.7-0.3 8-4.2 39.8-16.6l-12.2-12.2c-6.8-6.8-11.9-12.3-11.5-12.3z"/>
		<path id="Path 14" class="s3" d="m1199 598.7c0.1 12.6 0.1 33.5 0 46.4-0.2 12.9-0.3 2.6-0.3-22.9 0-25.6 0.1-36.1 0.3-23.5z"/>
		<path id="Path 15" class="s1" d="m774.7 600.6c0.1 0.3-0.5 5.1-1.4 10.8-0.9 5.6-2 10.7-2.4 11.3-0.5 0.6-1.9 0.1-6.9-3.5l5.2-9.5c2.8-5.2 5.3-9.3 5.5-9.1z"/>
		<path id="Path 16" class="s0" d="m466.6 603.4l5.2 1.8c5.1 1.7 5.2 1.8 6.4 7.1 0.7 3 1.2 5.5 1 5.6-0.1 0.2-4.8-1.6-10.5-4-5.6-2.3-10.2-4.4-10.2-4.7 0-0.3 1.8-1.7 4.1-3.2z"/>
		<path id="Path 17" class="s1" d="m478.5 607.2c0.5 0 3.6 1.2 6.7 2.6 3.2 1.4 7.4 3.3 9.5 4.2 2.1 0.9 3.6 1.8 3.5 1.9-0.1 0.1-4.1 0.9-8.8 1.7-4.6 0.9-8.7 1.6-8.9 1.6-0.3 0-1.1-2.3-1.8-5-0.7-2.8-1.2-5.5-1.2-6 0-0.6 0.4-1 1-1zm311.2 12c0.7 0 4.8 5.1 17.2 22.9l-6 7.5c-3.3 4.1-6 7.9-6 8.3 0 0.4 10 5 44.5 19.8l18.7-10.3c10.3-5.6 18.9-10.2 19.2-10 0.3 0.1-0.8 1.1-5.5 4.2l11 9.5c6.1 5.2 11 9.7 11 10 0 0.3-4.8 3.3-21.5 12.8l-0.7 5.3c-0.4 3-1.3 11-1.9 17.8-0.6 6.9-1.2 12.6-1.3 12.8 0 0.1-8-0.5-35-2.9l-9.1-9.2c-4.9-5-18.1-18.8-29.2-30.6-11.1-11.8-20.2-21.7-20.2-22 0-0.3 5-4.3 11.2-9 6.2-4.6 11.9-9 12.8-9.6 1.2-0.9-0.9-2.9-26.4-21.7l8-2.7c4.3-1.5 8.5-2.8 9.2-2.9z"/>
		<path id="Path 18" class="s0" d="m448.3 620.4c0.4 0.2 7.5 3.6 15.6 7.6 8.2 4 14.8 7.6 14.7 8-0.1 0.4-4.7 7.8-10.3 16.6-5.5 8.8-10.6 16.5-11.2 17.2-0.8 0.8-3.4 0.8-10.6-0.3-5.2-0.8-10.2-1.3-11.2-1.2-1.5 0.3-0.7 3.5 6.2 24.3 4.4 13.2 7.6 24.2 7.2 24.6-0.4 0.3-3.7 1.8-7.4 3.2-6.5 2.5-7.6 2.6-45.7 2.6v-24.9h21.7c12 0 21.5-0.2 21.2-0.5-0.2-0.3-3.8-1.2-7.9-2.1-4.2-0.8-7.7-1.7-7.8-2-0.1-0.2 2.6-3.8 6-8 3.8-4.5 5.8-7.9 5.2-8.3-0.5-0.4-4.9-4.1-9.7-8.2-4.8-4-8.7-7.5-8.5-7.5 0.1-0.1 3.9-1.6 8.3-3.4 4.3-1.7 12.8-5.2 18.7-7.8 7-3 10.8-5.2 10.7-6.2 0-0.8-1.4-6.5-3-12.7-1.6-6.2-2.6-11.1-2.2-11z"/>
		<path id="Path 19" class="s1" d="m967.1 627.1c0.6 0 4.4 1.1 8.5 2.5 4.1 1.3 14.8 4.7 39.9 12.5v8c0 4.4-0.1 8-0.2 8-0.1 0-10.1-2.8-22.2-6.3-12.1-3.5-21.5-6.6-21-6.9 0.6-0.3 5.1-1.5 10-2.7 4.9-1.2 9.9-2.4 11-2.7 1.6-0.5 1.7-0.7 0.5-1.4-0.8-0.4-7.1-2.9-14-5.4-6.9-2.6-12.7-4.9-13-5.1-0.2-0.3 0-0.5 0.5-0.5zm-47.5 2.3c0.3 0.2 7.9 3.7 16.8 7.8 8.9 4.1 15.9 7.7 15.5 8.1-0.4 0.3-5.1 1.9-10.5 3.5-6.4 1.9-10 2.5-10.6 1.8-0.5-0.5-3.5-5.4-6.5-10.7-3.1-5.4-5.5-10-5.5-10.3 0.1-0.3 0.4-0.4 0.8-0.2zm-709.4 12.8c0.4 0 0.7 0.2 0.7 0.4 0 0.3-2.8 4.5-6.1 9.3-3.4 4.8-6.9 9.7-9.4 13l-6.9-3c-3.9-1.6-9.1-3.8-16-7l18.5-6.3c10.1-3.5 18.8-6.3 19.2-6.4z"/>
		<path id="Path 20" class="s2" d="m339.3 642.5c0.1 0.1 5.9 7.3 25.5 32.1l-12.8 1.3c-7 0.6-15 1.4-22.8 2.3l-4.7 13.9c-2.6 7.7-4.3 14-3.8 14 0.6 0 3.4-1.8 6.3-4 2.9-2.2 5.4-4.1 5.7-4 0.3 0 5.5 4.9 11.5 10.9 6 6.1 10.6 11 10.2 11-0.4 0-11.8-2.7-25.4-6.1-13.6-3.4-24.9-6.3-25-6.5-0.1-0.2 4.1-7.7 9.4-16.6 9.5-16.1 9.5-16.2 7.7-18.4-1-1.2-4.7-5.6-8.1-9.8-3.4-4.1-6.1-7.5-6-7.5 0.1 0 7.4-2.9 16.2-6.4 8.7-3.5 16-6.3 16.1-6.2z"/>
		<path id="Path 21" class="s1" d="m1285.3 662.1c0.7 0 6.5 0.7 12.8 1.6 6.3 0.8 11.5 1.6 11.6 1.7 0.1 0.1-1.2 12.1-2.7 26.7-2 18.3-2.7 22.9-2.3 15 0.3-6.4 0.7-12.4 0.9-13.5 0.2-1.1 0.5-4.4 0.9-12.5l-7.4-7.5c-4.2-4.1-7.8-7.1-8.1-6.7-0.4 0.4-1.2 12.6-1.8 27.2-0.7 14.5-1.4 28.5-1.6 30.9-0.2 2.5-0.7 10.8-1.1 18.5-0.4 7.7-1 19.4-1.4 26-0.4 7.4-0.8-10.9-0.9-47.7-0.1-47.2 0.1-59.7 1.1-59.7z"/>
		<path id="Path 22" class="s2" d="m1299.1 673.9c4.4 4.5 7.8 8.8 7.5 9.4-0.2 0.7-0.6 4.7-0.9 8.8-0.4 4.1-1.3 16-2.2 26.4-0.8 10.5-1.7 19.9-1.9 21-0.2 1.1-2 21.6-4 45.5-2 23.9-3.9 44-4.1 44.6-0.3 0.9-1.8 0.4-9.4-4.7v-16.7c0-9.2 0.4-25.3 1-35.7 0.5-10.5 1.2-24 1.5-30 0.3-6 0.7-13.7 1-17 0.2-3.3 0.9-17.4 1.5-31.4 0.6-14 1.4-26.2 1.6-27 0.3-1 2.9 1 8.4 6.8z"/>
		<path id="Path 23" class="s0" d="m235 671.6l12.9 13v52.4h-16v-5.7c0-3.2 0.4-15.4 1-27.2 0.6-11.9 1.3-24 1.6-27z"/>
		<path id="Path 24" class="s3" d="m435 696.3c0.6-0.1 1.7 0.2 2.5 0.8 1 0.6-5.8 0.9-41.9 1v24.9l40.4 0.6-41.4 0.4v-26.9l19.7-0.3c10.9-0.1 20.2-0.4 20.7-0.5z"/>
		<path id="Path 25" class="s0" d="m287.3 721c0.3 0 12.7 8 54.9 35.6l12.5 0.7c6.8 0.4 21 1.4 31.4 2.2 10.5 0.7 26.2 1.9 35 2.5 8.8 0.6 16 1.2 16.1 1.3 0 0.1 0.6 7.2 1.2 15.7 0.7 8.5 1.4 17.9 2.3 26.4l-11.3 2.9c-6.2 1.6-12 3.2-12.8 3.7-1.1 0.5 0 1.5 4.2 3.6 3.2 1.5 5.8 3 5.7 3.3 0 0.3-2.1 2.1-4.7 3.9-2.6 1.9-7 5.1-9.7 7.1-2.8 2.1-11.1 8.1-18.5 13.5-7.4 5.4-13.8 10-14.2 10.4-0.5 0.3 0.3 3.5 1.6 7.1 1.3 3.5 2.8 7.3 3.3 8.3 0.5 1.2-2.8-0.5-9.2-4.7-8.5-5.7-10.2-6.5-11.4-5.3-0.9 0.7-5.8 4.9-11 9.3-5.2 4.3-12.6 10.3-16.4 13.3-4.9 3.9-6.7 4.9-6.3 3.5 0.3-1.1 2.5-8.3 4.7-16 2.3-7.7 4-14.1 3.8-14.2-0.2-0.1-3.7 0.9-7.8 2.3-4.1 1.3-7.6 2.3-7.7 2.2-0.2-0.1 7.6-5.5 17.2-12 9.6-6.4 17.4-11.9 17.2-12.1-0.1-0.1-8.4 0.4-18.4 1.3-10 0.9-18.5 1.2-18.9 0.7-0.5-0.4-1.5-8.3-2.2-17.4-0.8-9.2-1.7-17-2-17.4-0.4-0.3-7.1-2.1-29.2-7.3l0.1-37.2c0-20.4 0.2-37.2 0.5-37.2z"/>
		<path id="Path 26" class="s1" d="m1205.7 759.8l12.6 12.7-7.8 28.2c-4.3 15.5-8 28.2-8.3 28.2-0.2 0-2.4-10.2-4.8-22.7-2.4-12.5-4.2-22.8-4-22.9 0.2-0.1 3.6 1.8 7.6 4.2 4 2.5 7.4 4.1 7.6 3.7 0.2-0.4 1-5.1 1.7-10.4 0.8-5.4 1.2-9.9 0.9-10.2-0.3-0.3-3.6 0.2-7.5 0.9-3.8 0.8-7.1 1.4-7.2 1.2-0.1-0.1 1.9-3.1 4.5-6.5z"/>
		<path id="Path 27" class="s2" d="m1210.5 770c0.4 0 0.7 0.9 0.7 2 0 1.1-0.5 5.5-1.1 9.7-0.6 4.3-1.2 8.3-1.5 9q-0.4 1.2-8-3.5c-6.2-3.9-7.5-5.1-7-6.7 0.3-1.1 1-3.3 1.6-4.8 0.9-2.3 1.9-2.9 6.8-3.8 3.1-0.6 6.2-1.2 6.7-1.4 0.6-0.2 1.3-0.4 1.8-0.5z"/>
		<path id="Path 28" class="s0" d="m233.8 778.5c1 2.2 5.3 11.4 9.4 20.4 4.2 9.1 7.5 16.6 7.4 16.6-0.1 0.1-3.1 1.6-6.5 3.3-3.4 1.7-6.2 3-6.2 2.8 0-0.1-1.4-10.1-3-22.2-1.7-12-3-22.6-2.9-23.4 0-0.9 0.8 0.3 1.8 2.5z"/>
		<path id="Path 29" class="s1" d="m1248.6 822.9c0.6 0.1 3.7 1.7 7 3.7 3.3 2 6.6 4 7.3 4.4 0.9 0.7-0.7 4.9-14.2 32l-1-17.3-11.8 14.8c-6.5 8.2-11.8 14.3-11.7 13.6 0-0.7 5.3-12.5 11.7-26.2 6.4-13.8 12.2-25 12.7-25zm45.4 8.5l-2.8 5c-1.6 2.7-5.5 9.9-8.7 15.9-3.3 6-6 10.2-6.2 9.5-0.1-0.8 1.6-9.2 3.8-18.7 2.2-9.5 4-17.4 4-17.7 0-0.3 2.2 1 9.9 6z"/>
		<path id="Path 30" class="s2" d="m473.6 834.7c0.3 0.4 5.5 15.3 22.3 65.9l19.3 6.7-10.9 9.2c-6 5.1-11.1 9.1-11.3 9-0.2-0.1-3.2-10.8-6.6-23.7-3.4-12.9-6.4-23.7-6.6-24-0.2-0.3-3.9 1-8.1 2.8-4.2 1.7-7.8 3.1-7.9 3 0-0.2 2-11.4 4.5-25 2.6-13.5 5-24.3 5.3-23.9zm773.3 12.2c0.1 0 0.3 3.9 0.3 17.4l-10.8 5.3c-5.9 2.9-10.8 5.1-11 4.8-0.1-0.3 4.6-6.6 10.5-14 5.9-7.4 10.9-13.5 11-13.5z"/>
		<path id="Path 31" class="s1" d="m698.6 858.1l32.9-0.2 5.7 10.7c3.2 5.9 7.6 14 13.8 25.2l-7.5 4.5c-4.1 2.5-8 4.5-8.7 4.5-0.7-0.1-10.1-5.6-21-12.3-10.8-6.7-19.6-12.3-19.4-12.3 0.1-0.1 8.3 1.8 18.2 4.2 9.9 2.4 20.2 5.1 22.9 5.9 2.8 0.8 5.8 1.5 6.8 1.5 1.3 0-0.7-3.7-17.2-28.4l-13.3-1.7z"/>
		<path id="Path 32" class="s2" d="m699.9 858.9c2 0 8.5 0.5 25.2 2.5l9.4 14.2c7.1 10.6 9.1 14.2 7.8 14.2-1 0-4-0.7-6.8-1.5-2.7-0.8-13.3-3.5-23.4-6-10.2-2.5-18.7-4.8-19-5.1-0.3-0.2 0.1-4.1 0.9-8.7 0.7-4.5 1.5-8.5 1.8-8.9 0.2-0.4 2.1-0.7 4.1-0.7z"/>
		<path id="Path 33" class="s0" d="m346.4 874.8c0.1 0 5.1 2.8 11 6.2 5.9 3.3 10.8 6.1 11 6.2 0.1 0.1-3.4 2.3-7.8 4.9-4.3 2.6-8.1 4.6-8.2 4.4-0.2-0.1-1.7-5-3.4-10.9-1.6-5.9-2.8-10.8-2.6-10.8z"/>
		<path id="Path 34" class="s1" d="m695.6 903.9l2.1 2.2c1.2 1.2 14.6 15.9 29.9 32.6 15.4 16.7 31.3 34.1 42.9 46.8l17.9 4.6c9.9 2.5 27.4 7 39 9.9 11.5 3 29 7.6 38.9 10.1 9.9 2.6 18.2 5 18.6 5.4 0.3 0.3 1.9 5.7 3.5 11.9 1.6 6.1 2.6 11.4 2.4 11.7-0.3 0.3-5.3-3.5-11-8.4-5.8-5-10.7-9-11-9-0.3 0-3.4 3.7-13.3 16.4l-13.2-23.5h-4.9c-2.8 0-20.3-0.6-39-1.4-18.7-0.9-34.7-1.5-35.7-1.5-1.2 0-3.3-3.1-11.7-20h25.5l-20.5-13.4c-11.3-7.4-27.9-18.2-37-24.2-9-5.9-16.5-10.8-16.6-10.8-0.2 0-1.7-7.5-6.9-33l-16.4 22.7c-9.1 12.5-16.5 22.7-16.6 22.5 0-0.1-2.4-7.9-5.2-17.2-2.8-9.4-4.9-17.3-4.6-17.5 0.3-0.3 2.7 0.2 9.9 2.6l16.5-9.8zm-62.9 10.1l17.5-0.2 1 3c0.9 2.9 0.9 3-1.2 2.5-1.3-0.3-5.7-1.6-9.8-2.9z"/>
		<path id="Path 35" class="s2" d="m247.5 918.1c0.1 0.1-0.5 11.2-1.3 24.6-0.8 13.5-1.7 25.1-1.9 25.8-0.3 0.9-2.9 0.4-9.7-1.9-5-1.8-9.3-3.2-9.5-3.3-0.2 0 4.8-10.3 10.9-22.8 6.2-12.4 11.3-22.5 11.5-22.4z"/>
		<path id="Path 36" class="s0" d="m260.6 923.3l9.6 12.7c5.3 7 9.4 13.1 9.2 13.5-0.2 0.4-3.5 2.6-7.5 5-3.9 2.3-7.2 4.1-7.5 4-0.2-0.2-0.9-5.9-1.5-12.8-0.6-6.8-1.4-14.7-1.7-17.4z"/>
		<path id="Path 37" class="s1" d="m586.5 926.9l0.5 3.7c0.2 2-0.3 23.2-1.2 47.1-0.9 23.9-1.7 43.5-1.8 43.6-0.1 0.1-12.6 2.9-27.7 6.3-15.1 3.4-28.3 6.3-29.4 6.6-1.5 0.4-2.7-0.6-5-4.1-1.9-2.9-2.6-4.9-2-5.4 0.5-0.4 8.2-3.4 17-6.5 8.7-3.1 16.3-6 16.8-6.4 0.4-0.3-0.5-4.6-2-9.3-1.6-4.8-2.6-9-2.4-9.3 0.3-0.3 5.9 1.4 12.5 3.9 6.6 2.4 12.1 4.4 12.2 4.3 0.1-0.1-2.5-9.4-5.9-20.7-3.4-11.3-6.3-20.7-6.5-21-0.2-0.2-5.9 0.8-12.6 2.4-6.7 1.5-12.8 2.7-13.5 2.5-0.7-0.2 10.4-8.8 24.8-19zm34.4 59.8c0.1 0.3 2.2 5.2 9.2 21.4l17.3 0.5c14.7 0.4 16.4 0.6 11.3 1.3-3.3 0.5-15 2.4-26 4.3-11 1.9-20.4 3.4-20.9 3.4-0.6 0 0.9-6.4 3.2-14.3 2.3-7.8 4.6-14.8 4.9-15.6 0.4-0.7 0.8-1.2 1-1zm-124.5 5.9c0.3 0 5.2 1.9 10.8 4.3 5.6 2.3 10.2 4.4 10.2 4.7 0 0.3-7.9 3.1-17.7 6.3-9.7 3.2-17.8 5.6-18 5.3-0.1-0.3 3-5.1 6.9-10.6 4-5.5 7.4-10 7.8-10z"/>
		<path id="Path 38" class="s0" d="m669 1008.8c0.1-0.1 15 3.2 32.9 7.2 18 4 33.5 7.8 34.6 8.4 1.1 0.6 8.1 3.4 15.5 6.3 7.4 2.9 18 7 23.5 9.1 5.5 2.1 10.5 3.8 11.2 3.8 0.7 0 5.4-2.7 10.5-6 5.1-3.3 9.3-5.8 9.4-5.7 0.2 0.1 1.6 8.1 3.3 17.7 1.7 9.6 2.9 17.6 2.8 17.6-0.2 0.1-9.1-0.4-19.8-1.2-10.7-0.7-20.8-1.6-22.4-1.8-1.7-0.2-11.8-3.8-22.5-7.9-10.7-4.2-26.2-10.5-34.4-14.1-8.3-3.7-22.2-9.8-47-20.7l-27.7 7.5c-15.2 4.2-28.6 7.6-29.7 7.6-1.4 0-1.8-0.5-1.5-1.7 0.2-1 0.9-5 1.5-9 0.6-4 1.4-7.4 1.8-7.7 0.4-0.2 10.2-2 21.7-4 11.5-1.9 24.3-3.9 28.4-4.4 4.2-0.5 7.7-0.9 7.9-1z"/>
		<path id="Path 39" class="s1" d="m608.5 1018.7c1 0 1.7 0.3 1.7 0.7 0 0.4-0.7 4.6-1.5 9.2-0.8 4.7-1.6 8.6-1.7 8.7-0.1 0.1-5.1-2.6-11-6-5.8-3.4-10.4-6.4-10.1-6.7 0.3-0.2 5.1-1.7 10.7-3.1 5.6-1.5 10.9-2.7 11.9-2.8zm57.1 3c0.6-0.1 9.8 3.7 20.5 8.4 10.7 4.7 25.9 11.4 33.7 14.8 7.8 3.4 14.1 6.3 13.9 6.5-0.1 0.2-14.6-4.2-64.1-20l-10.9 1.1c-6.1 0.6-19.3 2-29.5 3.1-10.2 1.1-18.6 1.9-18.7 1.7-0.1-0.1 4.4-1.5 10-3.1 5.6-1.6 17.8-5.1 27.2-7.7 9.3-2.6 17.4-4.8 17.9-4.8zm63.9 0h4c2.2 0 19.5 0.6 38.5 1.5 18.9 0.8 34.7 1.8 35 2.2 0.4 0.4 5.8 9.1 12.1 19.2 6.3 10.2 13.4 21.5 15.6 25.2 2.3 3.7 4.2 6.9 4.1 7 0 0.2-6.8-0.3-15.2-0.9-8.4-0.7-17.3-1.4-19.9-1.5-2.6-0.2-4.8 0-4.8 0.4 0 0.4 2.7 2.9 6 5.5 3.3 2.6 5.6 4.9 5.2 5.1-0.4 0.1-6.1-1.4-12.7-3.4-6.6-2-15.3-4.7-19.4-6-7.4-2.3-7.5-2.4-8.7-6.6-0.7-2.4-1-4.5-0.7-4.8 0.3-0.3 10.3 0.2 22.1 1.1 11.9 0.9 21.8 1.6 22 1.5 0.1-0.1-1.1-8-2.8-17.6-1.7-9.6-3.2-17.6-3.3-17.7-0.1-0.2-4.4 2.4-9.4 5.7-5.1 3.3-9.8 6-10.5 6-0.7 0-5.7-1.7-11.2-3.8-5.5-2.1-16.1-6.3-23.5-9.2-7.4-2.9-15.5-6.1-18-7.1z"/>
		<path id="Path 40" class="s0" d="m519.3 1025.7c0.2 0 1.5 1.7 2.7 3.9 1.3 2.2 2.4 4.2 2.4 4.5 0 0.3-2.1 1.9-4.8 3.7-2.6 1.7-8.4 4.4-12.9 6-4.6 1.5-8.3 2.5-8.3 2.1 0-0.5 4.6-5.2 10.3-10.5 5.6-5.3 10.4-9.7 10.6-9.7z"/>
		<path id="Path 41" fill-rule="evenodd" class="s1" d="m905.4 1054.6c0.2 0 4.9 2.7 10.6 5.9 5.6 3.3 10.2 6.5 10.2 7.3 0 0.7-1.8 4.3-4 8-2.2 3.7-4.2 6.7-4.5 6.7-0.3 0-3.2-6.2-6.5-13.9-3.4-7.7-6-14-5.8-14zm-321.9 22.1c0.5-0.1 0.8 3.7 0.8 16.8l26.4 19.7 54.4 2.8c30 1.5 57.6 3 68.3 4l-34.4 10.9c-18.9 5.9-34.7 11.1-35 11.4-0.4 0.4 2.1 3.6 11.6 13.6l-5.5 5.5c-3.1 3.1-6.8 6.6-10.9 10l-6-7.4c-3.3-4.2-5.9-7.8-5.8-8.1 0.2-0.3 3.5 0.8 7.5 2.5 7.2 3 7.2 3 6.7 0.8-0.2-1.2-1.6-7.4-3-13.7-1.3-6.3-2.5-11.8-2.5-12.3 0.1-0.4 4.4-2.9 19.5-10.6l-4.5-0.1c-2.4-0.1-5.6-0.3-7-0.5-1.3-0.3-10.3-1.1-19.9-1.9-9.6-0.9-23.3-2-43.4-3.8l-22.7-14.6c-12.5-8.1-22.6-14.7-22.5-14.9 0.2-0.1 6.3-2.4 13.7-5.1 7.4-2.7 13.8-5 14.2-5zm331.4 8.9c0.3 0 0.3 0.5 0 1.2-0.3 0.7-2.6 4.6-10 16.2l-16.3 4.3c-9 2.4-16.4 4.2-16.5 4-0.1-0.1 9.3-6 21-13 11.6-7 21.4-12.7 21.8-12.7zm-88.5 10.9c0.5 0 10.2 3.8 42.1 16.5l-13.2 3.3-14-9c-7.6-4.9-14.4-9.4-14.9-9.9q-1-0.9 0-0.9zm-268.6 30l-9 9c-4.9 4.9-9.1 8.8-9.2 8.7-0.2-0.1 0.2-3.6 0.8-7.7 0.6-4.1 1.3-8.1 1.5-8.7 0.3-0.9 2.8-1.3 15.9-1.3zm8.4 0c0.9 0 7.2 0.7 14.1 1.5 6.9 0.8 12.6 1.6 12.7 1.8 0.1 0.1-3.7 3.4-8.5 7.4-4.8 4-8.9 7-9.2 6.7-0.3-0.3 0.1-3.3 0.8-6.7 0.7-3.4 1.1-6.3 1-6.4-0.2-0.1-3.4 2.2-7.3 5.2-3.8 3.1-7.1 5.4-7.3 5.2-0.2-0.1 0.2-3.5 0.9-7.5 0.9-5.5 1.6-7.2 2.8-7.2z"/>
		<path id="Path 42" class="s0" d="m577 1131.3c0.2 0.4-0.3 3.6-1 7.2-1 4.9-2.9 8.9-7.5 16.2-3.4 5.4-6.4 9.8-6.7 9.8-0.3 0-0.6-4.9-0.9-21.7l7.9-6.1c4.3-3.4 8-5.8 8.2-5.4zm78.4 2.2c0.4 0 0.8 0.1 0.7 0.2 0 0.2 1.2 5.5 2.5 11.8 1.4 6.3 2.8 12.5 3 13.7 0.5 2.2 0.5 2.2-6.4-0.7-3.9-1.7-7.7-3-8.5-3-0.8 0-6.3 2.6-12.2 5.8-6 3.2-14.7 8-19.5 10.5-4.8 2.5-9 4.5-9.2 4.4-0.3-0.2 1.3-6.6 3.6-14.2 2.2-7.7 4.6-14.5 5.2-15.2 0.6-0.6 9.9-3.9 20.6-7.2 10.7-3.3 19.8-6 20.2-6.1z"/>
		<path id="Path 43" class="s1" d="m724.7 1146.8c0.2 0.1 1.6 11.6 3.3 25.6 1.7 14 3 26.3 3 27.3 0 1.5 1.3 1.7 20.3 2.2l7.4 19.5c4.1 10.7 7.9 19.9 8.4 20.4 0.5 0.7 0.9-3.8 0.9-11.7 0-11.6 0.1-12.7 1.7-12.3 1 0.3 7.8 1 15.1 1.8 7.4 0.7 14 1.7 14.7 2.3 0.7 0.5 3.7 10 6.8 20.9 3.1 11 6 20.9 6.4 21.9 0.6 1.5 2.5-0.1 11.3-10 5.8-6.5 11.6-13.1 15.3-17.4l28.5 11.1c15.6 6.1 28.8 11.4 29.3 11.8 0.4 0.3-1.9 19.9-5.3 43.6-3.3 23.6-6 44.1-6 45.7 0 2.4-1.8 3.8-17.3 13.7-9.4 6-17.6 10.9-18.2 10.9-0.6 0.1-0.4-4.4 0.5-12.3 0.8-6.9 1.3-12.7 1-13-0.3-0.3-7.6-2.6-32-10.1l19.5-19.6 17.2 4.8c9.5 2.6 17.5 4.6 17.7 4.3 0.3-0.2-1.4-6.5-3.8-13.9-2.4-7.5-4.1-13.7-3.8-13.8 0.4-0.2 5.4 1.8 11.2 4.3 5.7 2.5 10.5 4.5 10.5 4.5 0 0 0.6-8 1.5-17.8 0.8-9.7 1.5-18.6 1.5-19.6 0-1.6-4.3-3.8-45-21.2l-0.2 20.8c-0.2 11.4-0.6 20.8-1 20.8-0.4 0-8.3-3.5-17.5-7.8-9.2-4.2-16.9-7.5-17.1-7.2-0.2 0.3 0.3 4.5 2.7 18.5l-3.4 3.1c-1.9 1.7-7.7 6.6-12.9 10.8-5.2 4.3-11.8 9.6-19.9 16l-0.2 12.5c-0.1 6.9-0.4 10.1-0.5 7.3-0.2-2.9-0.7-5.3-1.1-5.2-0.4 0-3.2 1.5-6.2 3.4-3.1 1.8-6.1 3.5-6.9 3.7-1 0.2-3.2-5.1-7.6-18.2-3.5-10.1-6.5-17.8-6.8-16.9-0.3 0.8-1.5 9.8-2.6 19.9-1.2 10.2-2.4 21.2-2.7 24.5-0.3 3.3-1 6.4-1.5 7-0.5 0.6-4.6-0.5-11.6-3.2-5.9-2.3-11.5-4.4-12.5-4.7-1.6-0.6-1.7 0.6-1.7 31.9l-11 4.9c-6.1 2.8-11.2 4.8-11.4 4.5-0.3-0.2 2.5-23.6 12.4-103.3l4.3-4.3c2.3-2.3 4.5-4.2 4.9-4.2 0.4 0 0.8 3.9 0.7 17.5l13.3 4.4c7.3 2.4 13.9 4.6 14.7 4.8 0.8 0.3-4.9-6-27.1-28.2l7.5-6.5c4.1-3.6 7.5-7.1 7.6-7.7 0-0.7-2.5-11.3-5.5-23.5-3-12.2-5.4-22.9-5.3-23.7 0.2-0.8 6.9 12.2 14.8 28.8 8 16.7 14.6 29.9 14.8 29.4 0.1-0.4-3.2-13.3-7.5-28.5-4.3-15.2-7.7-27.7-7.5-27.7 0.1 0 5.6 3.3 12.2 7.5 6.6 4.1 12.2 7.3 12.5 7.2 0.3-0.1-2.2-7.2-11.7-31.2l-45.2-16.1-8.2-10.9c-4.5-6-8.2-11.4-8.2-12 0-0.5 4.1 3.4 9.2 8.8 5 5.4 9.4 9.8 9.7 9.8 0.2 0 4.7-9.2 9.9-20.4 5.2-11.3 9.6-20.4 9.7-20.3zm-163.9 2.2l1 15.9 3.5-5.2c1.9-2.9 3.6-5.1 3.8-4.8 0.1 0.3-2.5 5.8-5.8 12.3-3.3 6.5-5.8 10.6-5.6 9.2 0.3-1.3 1.1-8.1 1.8-14.9zm-4.1 36.2l6.1 0.6c3.3 0.3 8.9 0.9 12.5 1.2 3.6 0.3 7.4 0.7 8.5 0.9 1.1 0.2 2.3 0.4 2.7 0.4 0.4 0.1-3.3 4.7-8.4 10.3-5 5.7-10.8 12.1-12.8 14.3-2 2.2-10 11.1-17.9 19.9-7.8 8.8-14.7 16.1-15.1 16.3-0.5 0.1-3-2.5-9.9-11.8l-4.3 3.3c-2.3 1.8-9.7 7.6-16.4 13-10.3 8.1-12.3 10.1-12.3 12.4 0 1.5-0.3 6.2-0.6 10.3-0.3 4.1-0.9 13.1-1.3 20-0.6 10.6-0.8 8.2-1.1-46l13.3-9.4c7.2-5.2 15-10.7 17.2-12.3 2.2-1.6 11.7-8.4 38.4-27.2l0.7-8.1zm-66.8 20.2c0.3 0 3 1.2 6 2.7 3.1 1.5 5.5 3 5.5 3.2 0 0.3-4.2 3.6-9.5 7.3-5.2 3.7-9.7 6.6-10 6.5-0.3-0.2 0.7-3.2 2.1-6.8 1.5-3.5 3.3-7.9 4.1-9.7 0.7-1.8 1.6-3.2 1.8-3.2zm194.5 17.4c4 5.5 9.7 13.3 17.7 24.5l-7.8 2.9c-4.2 1.6-7.9 2.8-8.2 2.6-0.3-0.1-0.9-2-1.3-4.1-0.5-2.2-2.4-10.3-4.3-18.1-1.9-7.9-3.4-15.1-3.4-16 0-1 3.3 2.7 7.3 8.2z"/>
		<path id="Path 44" class="s0" d="m720.7 1219.4c0.5 0 3.5 1.1 6.8 2.5 3.3 1.3 6.3 2.8 6.7 3.2 0.3 0.4 4 12.9 8.2 27.7 4.2 14.9 7.6 27.4 7.4 27.8-0.2 0.5-6.8-12.7-14.8-29.3-7.9-16.6-14.6-30.6-14.8-31.1-0.2-0.4 0-0.8 0.5-0.8z"/>
		<path id="Path 45" class="s2" d="m342.9 1224.4c0.4 0 8.8 0.7 18.5 1.5 9.8 0.8 18.1 1.6 18.5 1.7 0.5 0.2-7 3.2-16.7 6.7-9.6 3.6-17.7 6.3-17.8 6-0.2-0.2-1.1-3.9-1.9-8.2-0.8-4.3-1.1-7.7-0.6-7.7z"/>
		<path id="Path 46" class="s0" d="m757.8 1250.6l16.3 3.3c9.2 1.9 16.7 3.9 17.1 4.6 0.4 0.7 3.9 6.9 7.7 13.8 3.8 6.9 7 13.1 7 13.7 0 0.7-2.8 5.2-6.2 10-3.4 4.8-7 9.8-9.8 13.3l-7.5-9.5c-4.1-5.2-7.7-9.5-8-9.5-0.4 0-4.9 4.1-19.4 18.5l-0.2-8.5c-0.1-4.7-0.1-9-0.1-9.5 0-0.6 0.5-8 1.2-16.5 0.6-8.5 1.3-17.3 1.5-19.6zm-42 33.7c0.5 0 7.1 6.3 14.8 14.1 7.7 7.8 13.3 13.9 12.4 13.6-0.8-0.3-7.4-2.4-27.9-9.2v-9.3c0-5.1 0.3-9.2 0.7-9.2z"/>
		<path id="Path 47" class="s1" d="m790.1 1421.1c0.5 0 0.8 6.5 0.8 29l-2.7 0.4c-1.5 0.3-10.8 1.7-20.7 3.1-9.9 1.5-18.8 2.5-19.9 2.3-1.3-0.2 3.4-4.5 16-14.3 9.8-7.6 19.6-15.4 21.8-17.2 2.1-1.8 4.3-3.3 4.7-3.3z"/>
	</g>
</svg>