<svg version="1.2" xmlns="http://www.w3.org/2000/svg" viewBox="0 0 1000 1000" width="1000" height="1000">
	<title>mao2-svg</title>
	<style>
		.s0 { fill: #ffffff } 
		.s1 { fill: #7f7f7f } 
		.s2 { fill: #000000 } 
	</style>
	<g id="Layer 1">
		<path id="Path 0" class="s0" d="m217.6 191.4l68.9-76.1 109.4-57 101.1 4.7 63.1 28.6 32.1 48.7 10.7 110.6-36.9 36.9-2.4 29.7-109.4 29.7 11.9 38.1 26.2-16.7 80.8 8.3 6 19.1-65.4-2.4 51.1 11.9-44 5.9-36.9 30.9 45.2-15.4 13.1 13.1 19 2.3 47.6 50 4.8-17.9 11.9 11.9-4.8-17.8 63-2.4 8.4 15.5-27.4 91.5-19 7.2-57.1 112.9-105.8-153.4 4.7-58.2-26.1-84.5-27.4 38.1 19 52.3-24.9 46.4-1.2 57.1-99.9 45.1 41.6 14.3 8.3-2.4 109.4 58.3-176 27.4-42.8 47.5 50-22.6 23.7 19 25-21.4 33.3 4.8-27.3 39.2-25 4.8 29.7 29.7 65.4 2.4-26.1 29.7 11.9 20.2-108.3 36.9-45.2-44-7.1-70.1-23.8 26.1-54.7-19 8.4 27.3-35.7-79.6-20.2-118.9-3.6-204.6zm-83.3 72.6l6 10.7-13.1 22.6 6-32.1zm661.1 457.8l40.5-26.2-20.2 29.7z"/>
		<path id="Path 1" fill-rule="evenodd" class="s1" d="m217.6 191.4l48.7-63 72.6-48.7 80.8-34.5 78.5 3.6 110.6 40.4 65.4 47.5 23.8 1.2 3.6-34.5 34.5 19.1v32.1l-36.9 1.2 41.6 10.7-36.9-4.8-9.5 20.2 23.8 45.2-16.6 1.2 13 57.1 16.7 39.2-16.7-17.8-3.5 17.8 51.1 101.1 14.3 91.5 23.8-52.3 34.5-3.5 11.8-25-1.1 34.5 16.6 149.8-26.2 74.9-40.4 26.2-25 109.4-36.8 26.1-13.1-10.7-45.2 60.7-2.4 2.3-9.5 2.4-10.7 14.3-9.5 8.3-15.5 8.3 19.1-33.3-28.6 2.4-42.8-9.5-7.1 19-16.7-8.3-39.2 28.5-176 21.4-71.4-14.2-54.7-84.5-11.9-15.4-1.1-4.8-8.4-27.3 54.7 19 23.8-26.1 7.1 70.1 45.2 44 108.3-36.9-11.9-20.2 26.1-29.7-65.4-2.4-29.7-29.7 25-4.8 27.3-39.2-33.3-4.8-25 21.4-23.7-19-50 22.6 42.8-47.5 176-27.4-109.4-58.3 40.5 9.6 46.3-21.5 21.4 14.3 25-25-29.7 6-32.1-20.2-64.2 21.4-27-10h-0.1l69.9-31.6 1.2-57.1 24.9-46.4-19-52.3 27.4-38.1 26.1 84.5-4.7 58.2 105.8 153.4 57.1-112.9 19-7.2 27.4-91.5-8.4-15.5-63 2.4 4.8 17.8-11.9-11.9-4.8 17.9-47.6-50 66.6 7.2-49.9-50 5.9 10.7-50.3 13.3 8.7 16.5-13.1-13.1-45.2 15.4 36.9-30.9 44-5.9-51.1-11.9 65.4 2.4-6-19.1-80.8-8.3-26.2 16.7-11.9-38.1 109.4-29.7 2.4-29.7 36.9-36.9-10.7-110.6-32.1-48.7-63.1-28.6-101.1-4.7-109.4 57zm139.5 431.2l-9.2 4.1 4.1-6 5 1.9zm-18.4 17.6l30 10.2-32.1-7.1zm-11.7-4l20.9-9.4-9.2 13.4zm206.5-212.6l-0.8-1.4-34.5 10.7zm-387.2-280.9l7.1-4.7 11.9 7.1zm-5.9 132l10.7 14.3 29.7-23.8 36.9-73.7-61.9 193.9 8.4-40.5-41.6 22.6-22.6-28.6-6-14.3-4.7-11.8-7.2-13.1 9.5-70.2-7.1 69 16.6 19 32.2-52.3-6 32.1zm-2.4 166.5l-5.9-40.5 13.8 15.8zm7.9-24.6l9.9-31.1-7.1 34.3zm735.4-44.3l35.7-98.7-4.8-49.9 5.9 55.9zm-746.8-108.2l28.6-15.5-22.6 26.2z"/>
		<path id="Path 2" fill-rule="evenodd" class="s2" d="m497 3.6l15.5-3.6h1.2l14.2 2.4 60.7 5.9 9.5 2.4 73.7 21.4 19.1 8.3 134.3 69 2.4 2.4 44 40.4 40.5 71.3 4.7 50-35.7 98.7-10.7 17.8-15.4 25-7.2 19-1.2 2.4-11.8 25-34.5 3.5-23.8 52.3-14.3-91.5-51.1-101.1 3.5-17.8 16.7 17.8-16.7-39.2-13-57.1 16.6-1.2-23.8-45.2 9.5-20.2 36.9 4.8-41.6-10.7 36.9-1.2v-32.1l-34.5-19.1-3.6 34.5-23.8-1.2-65.4-47.5-110.6-40.4-78.5-3.6-80.8 34.5-72.6 48.7-48.7 63-36.9 73.8-29.7 23.7-10.7-14.2 22.6-26.2-28.6 15.5-1.2 1.2-32.1 52.3-16.6-19 7.1-69 3.6-17.8 4.7-15.5 2.4-2.4 22.6-35.7h19l-11.9-7.1 14.3-8.3 19 2.4-11.8-7.2 1.1-7.1 94-60.6 5.9-2.4 66.6-27.4 29.8-8.3 14.2-5.9 66.6-14.3zm-374.6 363.8l41.6-22.5-15.4 74.9-16.7-19.1zm419.8 72.6l-8.7-16.5 50.3-13.3-5.9-10.7 49.9 50-66.5-7.2zm-8.8-16.4l-35.2 9.3 34.4-10.7zm142 483.7l45.2-60.6 13.1 10.7 36.8-26.2-54.7 64.3zm-57.1 4.7l28.6-2.4-19 33.3-209.3 57.1-82.1-36.9 176-21.4 39.2-28.5 16.7 8.3 7.1-19z"/>
		<path id="Path 3" fill-rule="evenodd" class="s0" d="m745.6 227.1v-8.3l17.8 17.8 2.4 17.9-16.7-17.9zm-478 193.8l15.4-13-16.6-1.2-35.7 21.4 32.1-6zm543.4 193.9l33.3 5.9-34.5-70.1zm-230.7 210.4l23.8-27.3-15.5-32.1zm-139.2 61.9l16.7 25 20.2-13.1 22.6-36.8-17.9-10.7z"/>
		<path id="Path 4" fill-rule="evenodd" class="s1" d="m218.8 97.5l9.5 8.3-26.2 2.4zm-116.5 96.3l24.7-35.7h-2.1zm24.7-35.6h16.9l-11.9-7.2zm-14.1 72.6l23.8-11.9v27.3l25-14.2-6-25-19 8.3v-22.6l26.2-8.3-16.7-22.6zm632.7-11.9l-1.2-4.7-32.1-29.8 33.3 42.8zm17.8 17.9l-0.9 14.2 3.3 3.6zm-1 14.3l-13.3-14.3 11.9 35.7zm-538.9 93.9l5.9 23.8 127.3 3.6-14.3-29.8-80.9-7.1zm8.3 99.9l31-22.6-32.1 5.9 26.3-15.8 9.7-5.5-0.4-0.1-9.3 5.6-50.1 28.9 15.4 1.2-17.8 20.2 60.6-28.5zm34.9-38l16.3 1.1-15.5 13.1 39.3-5.9-9.8-8.9-20-5.4zm35.9 0.9l32.8 16.9-1.2 19-23.8-9.5-17.9 15.5 14.3 2.4-2.4 26.1 29.8-1.2 26.1-53.5zm-8.8-4.5l3.4 3 5.4 1.5zm-41.6 239l-33.3 74.9 33.3 16.7 72.6-164.1z"/>
		<path id="Path 5" fill-rule="evenodd" class="s2" d="m605.2 323.4l39.3 41.6-28.6-1.1zm-76.1 11.8l21.4 4.8-5.9 22.6-58.3-10.7zm-261.6 85.6l39.2-5.9-13-11.9 41.6 21.4-1.2 19-23.8-9.5-17.8 15.4-27.4-15.4-33.3 10.7 30.9-22.6zm459.1 149.8l21.4 11.9-21.4 11.9zm16.6 26.2l47.6 27.3-3.6 57.1-58.2 39.2-60.7 7.2 44-91.6 23.8 3.6zm-374.6 53.5l-32.1-7.2 15.4-22.6 32.2 11.9 64.2-21.4 32.1 20.2 29.7-5.9-25 25-21.4-14.3-46.3 21.4-40.5-9.5zm66.6 74.9l73.7 7.1 38.1 23.8-51.1 21.4-40.5-22.6h-60.6z"/>
	</g>
</svg>