<svg version="1.2" xmlns="http://www.w3.org/2000/svg" viewBox="0 0 1000 1000" width="1000" height="1000">
	<title>mao3-svg</title>
	<style>
		.s0 { fill: #7f7f7f } 
		.s1 { fill: #0c0c0c } 
		.s2 { fill: #fefefe } 
	</style>
	<g id="Layer 1 copy">
		<path id="Path 0" class="s0" d="m138.9 163.5l15.6-30.3 65.4-52.7 158.5-60.6 28.3 9.8 19.9 15.3-20 3.2 2 12 19.1 4.1 20.3-26.9 12.9 10.2 23.3-15 149.8-6.9 44.9 17.4 31.7 36.9-12.8-15.4-14.2 7.5-8.3-13.1-77.7-17.1-27.8 37.3 69.3 28.8-80-18.8-93.5-0.3-52.7 10.6-77 50.5-9.7 47.8 25 109.8-26 143.8-56.2 58.4-12 33.8-37-38.2-45.8-16.2 14.9 28.4-19.6 18.6-19.2-11.2-16 104.2-13.1-43.1 8.2 19.2 5.4-17.3 5.2-75.8 14.2-19.7-10.6-8.6 38.6-15.4-4.2 11.9 16.8 2.4-9.1-18 12.9-15.4 5.9 29.8 36.3-16.1-8.2 24.9 28.1 2.6 10.2-12.9 0.7-72 21.9-16.9-6.3-19.5 15.9-3.6-10.6-27 21.7 0.6-11.2-18.7 18.2-20.4-31.2-21.6-6.8 27.7-29.8 25.4 18.1 16.6-37.4 22.4-17-29 17.9 9.4 2.8-33.3 7.1-13.5 15.6 7.8 8-33.1-15.7 4.6 2.9 18-18.6-7.3-19.6 12.4-2.5 15.8-18.5-44.2 14.6-11.6 26.3 23.4-11.2-18.7 7.4-17.6-18-9.4-9.7 16-18-3.3-2.4-21.2-7.7 21.8 12.9 4.1-4 38.6 17.4 31.1-15.2 1.4 1.2 26.5 15.8 14.9-20.7 11.6-6.8 21.6 15.9 2.5-28.1 23.1-1 32-27.5 1.3 0.6-33.9 12.2 11.3 6.9-14.4-29.3-15.8 0.5 47.1-27.9-38.6 9.3-18.9-11.3-18.7 16.4-0.6-11.4-19.7 17.3-6.9-3.3 24.1 24.2-2.9-19.4-24.6 12.1-52.2-17.1-10.6 32.3-9.3 8.7-41.5 33.5-28-36.1-26 13.2 5.1 11.4-30.6 16.3 5.6 17-22.3-11.5-13.5 22.2-14.9-40.9 0.5-21.9 36.4z"/>
		<path id="Path 1" class="s1" d="m282.2 198.7l12.4 7.2-7.8 34.2-22.5-5.6 3.8-15-21.9 10.7z"/>
		<path id="Path 2" class="s1" d="m356.2 79l27.9 20.1-50 39.9-30.4 2.9-33.2-21.3 14.9-22 20.9-4.4 9.4 13.9 14.8-22.9 18.8 8.2z"/>
		<path id="Path 3" class="s1" d="m266.8 65.7l15.6 1.6-16.7 4.8 9.5 7.7-46.2 18.8 9-20z"/>
		<path id="Path 4" class="s1" d="m316.2 47.5l28.5-1.6 13.6 14.2z"/>
		<path id="Path 5" class="s2" d="m406.7 29.7l191.4-29 31.5 10.3 4.4 14.7-149.8 6.9-23.3 15-12.9-10.2-20.3 26.9-19.1-4.1-2-12 20-3.2z"/>
		<path id="Path 6" class="s1" d="m639.1 108l-69.3-28.8 27.8-37.3 77.7 17.1 8.3 13.1 14.2-7.5 12.8 15.4 26.7-6.4 17.5 32.1 12.3-6.1 7.8 16.2 33.6 4.8 14 41.9 40.6 22.1 63.3 80.1 9.2 31.3-0.6 97.7 3.6 15.8 1.7 11-25.6 38-28.9 18.1-26-8.2-60.5-208.8-54.2-74.3-60.1-47.8z"/>
		<path id="Path 7" class="s1" d="m138.9 163.5l22.8-10.9 21.9-36.4 40.9-0.5-22.2 14.9 11.5 13.5-17 22.3-16.3-5.6-11.4 30.6-13.2-5.1 36.1 26-33.5 28-8.7 41.5-32.3 9.3 17.1 10.6-12.1 52.2 19.4 24.6-24.2 2.9 3.3-24.1-17.3 6.9 11.4 19.7-16.4 0.6 11.3 18.7-9.3 18.9 27.9 38.6-0.5-47.1 29.3 15.8-6.9 14.4-12.2-11.3-0.6 33.9 27.5-1.3 1-32 28.1-23.1-15.9-2.5 6.8-21.6 20.7-11.6-15.8-14.9-1.2-26.5 15.2-1.4-17.4-31.1 4-38.6-12.9-4.1 7.7-21.8 2.4 21.2 18 3.3 9.7-16 18 9.4-7.4 17.6 11.2 18.7-26.3-23.4-14.6 11.6 18.5 44.2 2.5-15.8 19.6-12.4 18.6 7.3-2.9-18 15.7-4.6-8 33.1-15.6-7.8-7.1 13.5-2.8 33.3-17.9-9.4 17 29 37.4-22.4-18.1-16.6 29.8-25.4 6.8-27.7 31.2 21.6-18.2 20.4 11.2 18.7-21.7-0.6 10.6 27-15.9 3.6 6.3 19.5-21.9 16.9-0.7 72-10.2 12.9-28.1-2.6 8.2-24.9-36.3 16.1-5.9-29.8-12.9 15.4 9.1 18-16.8-2.4 4.2-11.9-38.6 15.4 10.6 8.6-14.2 19.7-5.2 75.8-5.4 17.3-8.2-19.2-6.6-15.3 12-8.1-0.5-34.9-26.6 13.6 5.9-40-27.6-11.9 16.2-13.9 17.3 11.5-15.2-24.2 10.4-24.3-20.2 2.3 11.1-14.1-23.4-17.8-10 33.5-4.8-10.6 2.8-77.4 18.5 12.4 37.5-15.3-10.9-10.6-13.7 16.6-9.7-8.7 31.3-22.5-13.4-31.7-12.8 34.9-22.8 4.8-0.1-13.4 3.2-24.1 28.9-11.9 11.8 9.4 15.1-14.7-9.8-15.9 31.3-41-13.9-16.2 18.6-12.3-4.3-19.8-9.2 12.8-9.6-8.7z"/>
		<path id="Path 8" class="s0" d="m271.2 371.9l12.3 6.2-29.2 9.9z"/>
		<path id="Path 9" class="s0" d="m226.9 377l24.5 5.3-13.1 8.3z"/>
		<path id="Path 10" class="s2" d="m134.3 629.2l16-104.2 19.2 11.2 19.6-18.6-14.9-28.4 45.8 16.2 37 38.2 12-33.8 56.2-58.4 26-143.8-25-109.8 9.7-47.8 77-50.5 52.7-10.6 93.5 0.3 80 18.8 45.9 29.5 85.9 86.7 14.2 30.5-6.1 19.5 30.5 42.3-11.9 9.1 6.1 18.5 12.3 6.2-37.1 24.5-83.1 0.1-28.8 19.1 16.4 94.8 21.3 10.9-2.4-21.1 41.5-3.7 64.6 12.1 8.3 13.1-12.7 4.1-67.9-13.6-16.9 9.9 37.7 29.8 38.1 7.2 27.6-26.1-4.8-10.5 25.4 4.1 16 23.1-8.8 40.4-28.3 34.4 8.4 7.8-28.6 0.6-3.9 13.9-2.8-17-12.7 10.3-19.4-18.4 6.5-10.3-26.3-3.9-18.4-44.3 3.3 77.5-131.4 31.6 9.4 13.8 46.7-3.4 10.5 27 41.2-11.8 42.7 29-22.7 5.7 2 12-188.3 23.4-37.1 36.8 6.9 23.5-15.7 4.6 14.7 21.2 13.9-41.2 38.4-22.7 131.8 8.4-7.4 11.5-47.5-1.6 6.3 13.4-14.2 13.6-18.3-5.3 10.3 26.1 99.3 16.7-48.2 13 13.8 28.5-62.6-0.1-40.1 25-52.6-7.9-16.9 9.9-11.6-8.4 23.7-18.2-15.5 5.6-15.5-12.9 6.3-12.3-25 4.1 6-13.3-16.5-0.4-58.4 32 10.2 12.7-31 5.1 22.7 32.2-61.8-7.4 26.1 15.2-144.7-50.4-3.2-102.1 8.9-65.1-25.1-15.4-64.1-47.1z"/>
		<path id="Path 11" class="s0" d="m578.9 584.8l11.3 6.4-18.6 18.4-0.1 30.8-39.1 50.5-20.4 19.7-20-2.9-3.9-17.9-16.2 14z"/>
		<path id="Path 12" class="s0" d="m712.2 507.8l18 22.7-16.6-1.4z"/>
		<path id="Path 13" class="s0" d="m211.4 560.2l13.3 6.1-14.1 26.9-25.8 5.2z"/>
		<path id="Path 14" class="s0" d="m542.8 495.2l26.2-3.2-11.6 17.3-46.4 11.6-10.8-9.6z"/>
		<path id="Path 15" class="s0" d="m508.3 377.6l95.5-6.2 19.6 25.5-46.1 95.8-15.5-12.9-76.1-1-44.2 18.5-9.6-14.9 51.9-34.1 107.4-21.5-51.7-21.4-36.6 1.8z"/>
		<path id="Path 16" class="s1" d="m510.8 450.1l41.3 1.5 18 15.6-26-8.1-44.7 15.4-9.6-8.7z"/>
		<path id="Path 17" class="s0" d="m737.3 73.6l40.4 15 120 106.8 28.7 69.3-63.3-80.1-40.6-22.1-14-41.9-33.6-4.8-7.8-16.2-12.3 6.1z"/>
		<path id="Path 18" class="s0" d="m65.9 321l-3.9-36.3 26.1-66.8 39.9-39.3 9.6 8.7 9.2-12.8 4.3 19.8-18.6 12.3 13.9 16.2-31.3 41 9.8 15.9-15.1 14.7-11.8-9.4-28.9 11.9z"/>
		<path id="Path 19" class="s1" d="m80 256.1l14.6 1.8-8.1 25.9z"/>
		<path id="Path 20" class="s1" d="m116.4 189.7l11.2-0.8-9.5 42.6-13.3 19.6-17-3.4z"/>
		<path id="Path 21" class="s0" d="m372.8 953.8l-26.1-15.2 61.8 7.4-22.7-32.2 31-5.1-10.2-12.7 58.4-32 16.5 0.4-6 13.3 25-4.1-6.3 12.3 15.5 12.9 15.5-5.6-23.7 18.2 11.6 8.4 16.9-9.9 52.6 7.9 40.1-25 62.6 0.1-13.8-28.5 48.2-13-99.3-16.7-10.3-26.1 18.3 5.3 14.2-13.6-6.3-13.4 47.5 1.6 7.4-11.5-131.8-8.4-38.4 22.7-13.9 41.2-14.7-21.2 15.7-4.6-6.9-23.5 37.1-36.8 188.3-23.4-2-12 22.7-5.7-42.7-29-41.2 11.8-10.5-27-46.7 3.4-9.4-13.8 131.4-31.6-3.3-77.5 18.4 44.3 26.3 3.9-6.5 10.3 19.4 18.4 12.7-10.3 2.8 17 3.9-13.9 28.6-0.6-8.4-7.8 28.3-34.4 8.8-40.4-16-23.1-25.4-4.1 4.8 10.5-27.6 26.1-38.1-7.2-37.7-29.8 16.9-9.9 67.9 13.6 12.7-4.1-8.3-13.1-64.6-12.1-41.5 3.7 2.4 21.1-21.3-10.9-16.4-94.8 28.8-19.1 83.1-0.1 37.1-24.5-12.3-6.2-6.1-18.5 11.9-9.1-30.5-42.3 6.1-19.5-14.2-30.5-85.9-86.7 60.1 47.8 54.2 74.3 60.5 208.8 26 8.2 28.9-18.1-37 37.8 18.3 87.4-19 117-38.6 129.4-29.5 45.9-41.8 27.3-0.3 23.6-23.1-3.4 0.4 21.5-13-4.1 10 10.7-29.5-4.4-9.9 14.9 14.6 7.9-15.5 5.6-49.6 23.4-5 0.8-145.9-13.3z"/>
		<path id="Path 22" class="s1" d="m708.3 755.8l36.6-1.9 18.6 13.4-41.6 2.7z"/>
		<path id="Path 23" class="s1" d="m710.9 645.5l19.5 6.1-24.4 14.2-8.3-6.9z"/>
		<path id="Path 24" class="s1" d="m747.8 448.6l61.3-1.7 20.2 29.6-2.4 10.6-33.4-16.1-44.8 2.1z"/>
		<path id="Path 25" class="s2" d="m732.9 414.1l64.3-2.2 14.1 17.2-97.5 6.6z"/>
		<path id="Path 26" class="s0" d="m66 334.4l22.8-4.8 12.8-34.9 13.4 31.7-31.3 22.5 9.7 8.7 13.7-16.6 10.9 10.6-37.5 15.3-18.5-12.4-2.8 77.4-8.5-33.5-1.3-8z"/>
		<path id="Path 27" class="s0" d="m64 442.5l10-33.5 23.4 17.8-11.1 14.1 20.2-2.3-10.4 24.3 15.2 24.2-17.3-11.5-16.2 13.9 27.6 11.9-5.9 40 26.6-13.6 0.5 34.9-12 8.1-54-111.4-1.8-11z"/>
		<path id="Path 28" class="s0" d="m935.6 296l12.8 28.8 0.7 4-14.1 64.9z"/>
		<path id="Path 29" class="s0" d="m224.9 801.3l-16.2-80.5 25.1 15.4z"/>
		<path id="Path 30" class="s1" d="m700.8 975.6l15.5-5.6-14.6-7.9 9.9-14.9 29.5 4.4-10-10.7 13 4.1-0.4-21.5 23.1 3.4 0.3-23.6 41.8-27.3 4.6 9.5-67 80.6z"/>
	</g>
</svg>