<?xml version="1.0" encoding="UTF-8" standalone="no"?>
<svg
   version="1.2"
   viewBox="0 0 889 998"
   width="889"
   height="998"
   id="svg1"
   sodipodi:docname="marx2.svg"
   inkscape:version="1.4 (1:1.4+202410161351+e7c3feb100)"
   xmlns:inkscape="http://www.inkscape.org/namespaces/inkscape"
   xmlns:sodipodi="http://sodipodi.sourceforge.net/DTD/sodipodi-0.dtd"
   xmlns="http://www.w3.org/2000/svg"
   xmlns:svg="http://www.w3.org/2000/svg">
  <defs
     id="defs1" />
  <sodipodi:namedview
     id="namedview1"
     pagecolor="#505050"
     bordercolor="#ffffff"
     borderopacity="1"
     inkscape:showpageshadow="0"
     inkscape:pageopacity="0"
     inkscape:pagecheckerboard="1"
     inkscape:deskcolor="#505050"
     inkscape:zoom="0.81162325"
     inkscape:cx="444.1716"
     inkscape:cy="499"
     inkscape:window-width="1920"
     inkscape:window-height="1012"
     inkscape:window-x="0"
     inkscape:window-y="0"
     inkscape:window-maximized="1"
     inkscape:current-layer="svg1" />
  <title
     id="title1">marx2</title>
  <style
     id="style1">
		.s0 { opacity: 1;fill: #040404 } 
		.s1 { fill: #7f7f7f } 
		.s2 { fill: #ffffff } 
	</style>
  <g
     id="img1">
    <path
       id="Path 0"
       class="s0"
       d="m405.1 3.7c0 1 0.6 4.5 1.3 7.8 0.9 4.3 1.7 5.9 2.7 5.7 0.8-0.2 4.9-2.8 9.1-5.8 4.3-3 7.7-5.8 7.6-6.3-0.2-0.5-4.1-1.2-8.8-1.6-4.7-0.4-9.2-0.9-10.2-1.1q-1.6-0.5-1.7 1.3zm-122.4 10.5c-0.5 1.3 0.4 2.6 3.3 4.8 2.2 1.6 4 2.6 4 2 0-0.6-1.5-2.7-3.3-4.8-2.9-3.1-3.5-3.4-4-2zm391.3 150.1c-1.3 6.7-2.4 12.8-2.6 13.5-0.2 0.6 6.5 6.6 14.8 13.2 8.4 6.6 15.4 11.7 15.6 11.2 0.1-0.4-5.2-11.8-11.8-25.4-6.6-13.7-12.4-24.8-12.9-24.8-0.5 0-1.9 5.5-3.1 12.3zm-516 111.2c0 6.6-0.3 19.1-0.8 27.9l-0.7 15.9c-14.3 9.8-18.5 13-18.5 13.5 0.1 0.4 2.8 3.5 6 7 3.3 3.4 5.9 6.4 5.7 6.8-0.1 0.3-4.7-0.7-10.2-2.1-5.5-1.4-10.1-2.4-10.3-2.3-0.1 0.2-2.7 8.4-5.7 18.3-3 9.9-5.4 18.1-5.3 18.2 0.2 0.1 4.3 1 9.3 1.9 4.9 0.9 9.3 1.9 9.7 2.3 0.4 0.3-8.4 9.2-19.6 19.6-11.3 10.4-20.5 19.3-20.5 19.8-0.1 0.4 5.3 4.9 11.9 10 6.7 5 11.9 9.3 11.8 9.5-0.2 0.2-6.9-0.5-15-1.5-8.1-1-14.9-1.5-15.2-1-0.3 0.4 1.2 4.3 3.4 8.7 2.2 4.4 3.8 8.3 3.5 8.8-0.2 0.4-4.5-2.9-9.5-7.3-5-4.4-9.4-8.1-9.8-8.3-0.4-0.1-3 4.5-5.7 10.3-2.8 5.8-4.8 10.7-4.5 10.9 0.3 0.2 15.6 0.8 34 1.5 18.4 0.6 33.6 1.2 33.8 1.3 0.1 0.2-1.8 11.3-4.3 24.8-2.5 13.5-5 26.8-5.5 29.5l-1 5c-11.6 3.5-15 4.7-15 5 0 0.3 2.7 2.3 6 4.5 3.3 2.2 6 4.2 6 4.5 0 0.3-1.6 4-3.6 8.3l-3.5 7.7c5.1 4.5 12.2 11.3 19 17.9l12.4 12.1-11.8 40-21.9 1c-5 8.5-6.6 11.2-6.6 11.5 0 0.3 10.1 7.3 22.6 15.5 12.5 8.3 22.8 15.3 23 15.8 0.2 0.4-1.4 5.5-3.6 11.5-2.2 5.9-4 11.3-4 12 0 0.6 7.5 7.2 16.7 14.5 9.3 7.3 17.4 13.6 18 14 0.7 0.4 14.7-1.6 31-4.4 16.4-2.8 29.9-5.2 30.1-5.3 0.1 0-1-5.6-2.5-12.3-1.6-7-2.4-12.3-1.8-12.3 0.5 0 8 1.3 16.5 2.9 8.5 1.6 16.7 3.1 18.2 3.3 1.5 0.2 2.9 0 3-0.3 0.2-0.3 8.4-2.4 18.3-4.8 9.9-2.3 19.1-4.5 20.5-4.8 2.1-0.5 1.6 0.4-3.8 6.5-3.4 4-5.9 7.4-5.5 7.6 0.5 0.2 4.2 1 8.2 1.7 4.1 0.8 8.1 2 8.8 2.7 0.7 0.6 1.3 3.3 1.3 6 0 2.6 0.4 7.1 0.8 10 0.4 2.9 0.9 5.2 1.2 5.2 0.3 0.1 2.9-4.1 5.8-9.2 2.8-5.1 5.6-10 6.1-10.8 0.7-1.2 4.8 0.5 23.2 10.3 12.3 6.4 22.6 11.7 22.9 11.7 0.3 0 2.1-3.8 4-8.5 1.9-4.7 3.8-8.5 4.2-8.5 0.5 0 8 3.6 16.8 8 8.8 4.4 16.2 7.9 16.4 7.8 0.3-0.2 2.2-6.5 4.3-14l3.8-13.7c8.5 7.6 14.1 12.9 18 16.8 5.6 5.7 7.6 7.1 10 7.1 1.6 0 5.8-0.3 9.2-0.7l6.2-0.8 3.6-18.3c20.1 6.9 26.1 8.8 26.2 8.6 0.2-0.2 2-7 4.2-15.3 2.5-9.5 4.1-17.9 4.3-22.8l0.3-7.8-29-16.2 9-8.4-22.5-1.3-0.1-47.5c-56.6-47.3-73.9-61.8-75-62.8-1.1-1-2.1-1.3-2.4-0.7-0.3 0.5 7.1 8.8 16.5 18.3 9.3 9.4 17.6 18.1 18.4 19.2 0.8 1.1 2.6 8.1 4 15.5 1.4 7.4 2.3 13.7 2.1 14-0.3 0.3-4-1.9-8.2-4.7-4.3-2.9-8.4-5.3-9.1-5.3-0.6 0-1.2 0.2-1.2 0.5 0 0.3 1.4 8.7 3 18.8 1.7 10 2.9 18.6 2.8 19.1-0.2 0.5-3.5-3.2-7.3-8.2-3.9-5-7.2-8.9-7.5-8.8-0.3 0.2-2.8 3.3-5.5 7-2.8 3.6-5.3 6.6-5.8 6.6-0.4 0-6.6-11.7-13.7-26l-13-26 14-17c-5.8-0.9-8.6-1.5-10-1.9-1.4-0.4-5-0.4-8 0-3 0.4-15.2 2.1-27 3.8-11.8 1.6-21.6 2.9-21.6 2.8-0.1-0.1-6.3-7-13.9-15.2-7.5-8.3-14.2-15.1-14.8-15.3-0.7-0.2-3.9 0.8-7.2 2.2-3.3 1.5-6.1 2.5-6.3 2.4-0.2-0.2 0.1-4.8 0.6-10.3 0.6-5.5 0.7-10.3 0.4-10.7-0.4-0.3-10.4 10-22.2 23l-21.4 23.7 11.4 21.5c-25.2 10-32.6 12.8-32.7 12.7 0-0.1 0.8-4.7 1.9-10.2 1.2-5.5 1.9-10.7 1.6-11.5-0.3-0.8-8.6-5.3-18.4-9.9-9.9-4.7-18.1-8.7-18.4-8.9-0.3-0.2 0.5-10.8 1.8-23.5l2.3-23.2c10.1-19.4 13.2-25.1 13.5-25.3 0.2-0.1 3.4 2.1 7.1 4.8 3.8 2.8 7.1 5 7.5 5 0.5 0 0.6-1.9 0.3-4.3-0.2-2.3-0.7-7.5-1-11.4l-0.5-7.3c6.6-0.8 28.1-2.8 52-5 23.9-2.2 44.1-3.8 44.7-3.5 0.7 0.3 1.7-0.1 2.3-0.7 0.5-0.7 3.4-8.5 6.5-17.3 3.1-8.8 6-16.2 6.3-16.5 0.4-0.3 0.8-1.6 1-3 0.1-1.4 0.6-2.9 1-3.3 0.4-0.5 7.7 0 16.2 1l15.5 1.8c12 16.3 15.1 21.4 14.7 22-0.4 0.6-0.2 0.7 0.6 0.3 0.7-0.5 1.5-0.1 1.9 1 0.3 0.9 2.2 3.7 4.2 6.2 2 2.4 4.7 5.4 6.1 6.7 1.4 1.3 3.1 2.3 3.7 2.3 0.7 0 8.2 3.2 16.5 7.2 8.4 3.9 15.7 7.1 16.3 7.1 0.5 0 6.8-3.5 14-7.8 7.3-4.3 12.6-8.1 12-8.5-0.6-0.4-8.2-3.4-17-6.6l-16-5.9c31.2-0.5 35.6-0.2 57 3.1 13.2 2 24.4 3.6 25 3.5 0.5 0 7.4-1.1 15.1-2.3 7.8-1.3 14.4-2.5 14.7-2.8 0.3-0.3-0.6-4.6-2-9.5l-2.5-9c-76.6-47.5-85.9-52.9-88.3-52.7-1.7 0.1-35.3 4.7-74.8 10.2-39.4 5.5-72.5 10-73.5 10-0.9 0-13.2-7.9-27.2-17.5-14-9.7-26.4-17.5-27.5-17.5-1.1 0.1-9.9 1.8-19.5 3.8l-17.5 3.7c-3.9 12-5.2 15.5-5.5 15.5-0.3 0-3.1-2.6-6.3-5.7l-5.9-5.8c4.9-59.7 6.5-78.7 6.7-80.8l0.5-3.7c-8.9 3.1-11.6 4-11.8 4-0.1 0-1.6-4.4-3.3-9.7-1.7-5.4-3.6-10.2-4-10.8-0.6-0.6-0.9 3.9-0.9 11zm605.6 15.3l9.7 18.7c29.2 20.5 37.7 26.1 37.7 25.5 0-0.6-12.5-15-27.8-32-15.2-17.1-28.1-31.1-28.6-31-0.4 0 3.6 8.4 9 18.8zm75.1 94.2c-0.3 5.8-0.5 10.6-0.4 10.8 0.1 0.1 3.1 0.9 6.7 1.6 3.6 0.8 6.6 1.4 6.7 1.3 0.1-0.1-2.7-5.6-6.2-12.2l-6.3-12zm-227.4 61c0.3 1.4 0.9 7.9 1.3 14.5l0.7 12c-12.2 23.2-15.9 30.4-16 31-0.1 0.6 21.8 15.9 48.7 34 47.9 32.3 48.8 33 47.2 35-0.9 1.2-7.1 8.3-13.7 15.8-9.3 10.6-12.2 13.4-13.1 12.4-0.7-0.6-6.8-8.1-13.8-16.5-6.9-8.3-12.9-15.2-13.3-15.1-0.4 0.1-0.6 0.6-0.5 1.2 0.2 0.7 2.4 5.5 4.8 10.7 4.1 8.6 5.6 10.6 16.2 21.2l11.7 11.8c-3.8 11.9-4.9 13.8-5.7 13.3-0.7-0.4-3-1.7-5-3-2.1-1.3-4-2-4.2-1.6-0.3 0.5 5.8 7.1 13.4 14.8l13.9 14-6.9 13.5c9.7 8.2 13.9 11.8 15.5 13.2 1.7 1.5 9.6 8.1 17.5 14.9 8 6.7 15.5 13.1 16.8 14.3 1.2 1.2 2.4 1.9 2.7 1.6 0.3-0.3 1.4-5.2 2.6-11 1.1-5.8 2.1-10.6 2.2-10.8 0.1-0.1 15.1 5 33.2 11.3 18.2 6.3 33.4 11.5 33.8 11.5 0.4 0 6.7-3.7 14-8.1 7.3-4.5 14.2-9.1 15.3-10.3 1.2-1.2 13.1-19.9 26.4-41.6l24.3-39.5c5.2-43.4 6.7-56.1 6.7-56.3 0-0.1-0.3-0.2-0.7-0.2-0.4 0-7.7 14.9-16.3 33.1l-15.5 33.2c-19 15.7-25.1 20.4-25.8 20.6-0.6 0.2-5.3-1-10.4-2.5-5.1-1.6-9.5-2.7-9.8-2.4-0.3 0.3-1.5 7.7-2.6 16.5-1.1 8.8-2.3 16.2-2.6 16.5-0.2 0.3-4.6 0.7-9.6 0.9l-9.2 0.4c-13.6-23.9-17.5-31.1-17.5-31.6 0-0.4 3.4-3.4 7.5-6.7 6.6-5.3 7.5-6.3 7.1-8.8-0.3-1.5-0.8-9.4-1.3-17.6l-0.8-14.8c-13.9-12.3-18.2-15.8-18.5-15.8-0.2 0-2.7 4.9-5.5 11-2.7 6-5.2 11-5.5 11-0.2 0-1.6-3.3-3.1-7.2l-2.6-7.3c-9.1-1-15.9-1.3-21-1.4-5.1-0.1-9.5-0.4-9.7-0.9-0.2-0.4 3.6-5.1 8.5-10.5l8.9-9.7c-11.6-17-15.1-22-15.2-22-0.2-0.1-3.8 4.6-8.2 10.2-4.3 5.7-8.3 10.8-8.7 11.3-0.5 0.5-1.1 0.8-1.3 0.5-0.3-0.3 1.5-6.8 3.9-14.5 2.5-7.7 4.5-14.6 4.5-15.3 0-0.6-1.8-3.9-4-7.2-2.2-3.3-3.8-6.3-3.5-6.8 0.3-0.4 2.1 0.8 4 2.5 1.9 1.8 4 3.3 4.5 3.3 0.6 0 1-1.9 1-4.3 0-2.3-0.3-4.7-0.7-5.2-0.4-0.6-5.2-3.9-10.6-7.5-5.3-3.6-9.7-6.7-9.7-7 0-0.3 2.4-0.4 5.3-0.2 2.9 0.1 6.5 0.4 8 0.5 2.1 0.1 2.6-0.2 2.1-1.3-0.3-0.8-2.4-4.1-4.7-7.3-2.3-3.2-4.5-5.8-4.9-5.7-0.4 0-3.1 1.4-6 3.1-2.9 1.7-6.5 3.7-8 4.5l-2.8 1.4c-7.3-26.5-9.8-34.8-10.2-35.4-0.5-0.8-7.2 0.5-23 4.2-12.2 2.9-22.4 5.1-22.5 5-0.1-0.2-1.8-4.8-3.8-10.3-2-5.5-4.3-10.7-5.2-11.5-1.4-1.3-1.5-1.2-1 1zm-570.8 39.4l-8.8 3.1c-11.8 27.5-15.5 35.5-15.9 35.5-0.4 0-3.7-1.9-7.3-4.3-3.6-2.3-6.7-4-7-3.7-0.3 0.3 0.9 9 2.5 19.5 1.7 10.5 3.5 19.5 4.1 20 0.8 0.7 1 0.4 0.6-1-0.3-1.1-0.9-6.6-1.4-12.3-0.4-5.6-0.5-10.2-0.3-10.2 0.3 0 3.9 1.1 8 2.5 4.2 1.4 7.5 2.5 7.5 2.5 0 0 1.4-4.3 3-9.6 1.7-5.3 3.5-9.9 4-10.1 0.6-0.2 5.8 1.4 11.5 3.6 5.8 2.1 10.6 3.5 10.8 3 0.1-0.5-3.3-6.5-7.5-13.4l-7.8-12.6c11.7-11.4 14.5-14.9 13.9-15.2-0.6-0.2-5 1-9.9 2.7zm-10.8 203.8c0.4 1.8 0.7 3.4 0.7 3.5 0.1 0.1 6.9 2.2 15.1 4.7 8.3 2.5 15.3 4.3 15.5 4.1 0.3-0.3 0.3-0.7 0-0.9-0.2-0.2-6.1-3-13-6.1-6.8-3.2-13.9-6.4-15.7-7.1l-3.1-1.4zm702.7 36c0.3 1.8 2.9 18.1 5.6 36.2 2.8 18.2 5.3 33.3 5.5 33.5 0.2 0.3 0.6 0.3 0.8 0 0.2-0.2 2-4.7 4.1-10l3.7-9.5c-14.2-42.8-18.2-53.5-19-53.5-0.9 0-1.1 1-0.7 3.3zm-696 2.3c0.4 1.6 2.2 7 4 11.9 2.9 7.8 3.7 12 5.5 29.5 1.2 11.3 2.4 20.7 2.6 20.8 0.3 0.1 1-0.8 1.6-2 0.7-1.2 7.2-15.8 14.5-32.3 7.3-16.5 12.9-30.1 12.3-30.2-0.5-0.1-5.8 2.7-11.7 6.3-5.9 3.6-11.2 6.3-11.8 6.1-0.5-0.2-4.1-2.8-8-5.8-3.8-3-7.6-5.8-8.3-6.3-1-0.7-1.2-0.2-0.7 2zm55.4 45.3c-23.1 17.7-23.4 17.9-24.1 22.2-0.4 2.5-1 7.8-1.4 11.9l-0.6 7.5 22.8 31c13.9 7 18.4 9.2 18.9 9.5 0.5 0.3 0.6-4.6 0.1-12.5-0.4-7.1-0.8-13.1-0.9-13.2-0.1-0.1-4.4 1.1-9.7 2.7-5.2 1.7-9.8 3-10.2 3-0.4 0 0.2-2.5 1.3-5.7 1.1-3.2 2-6.3 2-7 0-0.7-2.4-2-5.3-2.9-2.9-0.9-5.6-1.9-6-2.2-0.5-0.4 3.8-2.5 9.5-4.8 5.6-2.2 11.9-4.7 14-5.5 2.1-0.7 3.8-1.7 3.8-2.1 0-0.4-3.9-4.8-8.6-9.8l-8.5-9c10.1-5.4 13.3-7 13.5-7 0.3 0-0.6 1.5-2 3.3-1.4 1.8-2.2 3.5-1.8 3.9 0.5 0.4 4 1.6 7.8 2.7 3.9 1.1 7.1 2 7.2 1.9 0.1-0.2 0.8-7.5 1.4-16.3 0.7-8.9 1-16.9 0.7-17.8-0.3-1.2-6 2.6-23.9 16.2zm624.5 21.7c-3.8 3-7.2 5.4-7.6 5.4-0.4 0-0.8 0.4-0.8 0.8 0 0.4 3.2 2.3 7 4.2 5.8 2.9 6.9 3.9 6.5 5.5-0.2 1.1-1.1 5.3-2 9.3-0.8 4-1.5 8.5-1.5 10 0 2.2 2.1-0.2 11-12.5 6.1-8.4 11.1-15.6 11.1-16 0-0.4-3.3-3-7.3-5.8-4-2.8-7.8-5.4-8.4-5.8-0.6-0.3-4.2 1.8-8 4.9zm-610.9 71.5c0 0.9 3.4 6.6 7.5 12.7 4.2 6.1 7.8 11.2 8 11.2 0.3 0 3.4-4.7 6.8-10.4 3.4-5.8 5.8-10.8 5.2-11.1-0.5-0.2-2.9 1.8-5.2 4.5l-4.3 5c-11.2-8.1-15.3-11.1-16.3-11.9-1.6-1.3-1.8-1.3-1.7 0zm529.1 31.5c-0.3 0.2 1.8 5.4 4.7 11.4l5.2 10.9c9-4.5 11.4-6.2 11.2-6.6-0.3-0.4-5-4.2-10.5-8.5-5.5-4.2-10.3-7.5-10.6-7.2zm-28.5 17.6c-0.1 0.2-1.7 5.5-3.5 11.8-1.8 6.4-2.9 11.7-2.4 11.8 0.5 0.1 9.3-4.1 19.6-9.4 10.3-5.2 18.3-9.9 17.7-10.3-0.5-0.5-5.9-1.3-12-2-6-0.6-12.8-1.4-15-1.8-2.3-0.3-4.2-0.4-4.4-0.1zm-79.6 36.3c-7.9 7.5-10.4 10.5-9 10.5 1.1 0 11.5-1.6 23-3.5 11.6-1.9 21.3-3.7 21.5-3.9 0.3-0.3 0.3-0.7 0-0.9-0.2-0.2-5.7-3.1-12.2-6.5-6.5-3.4-11.9-6.1-12-6.1-0.1 0-5.2 4.7-11.3 10.4zm-205.6 20.2c-0.3 0.5 1.5 6.6 4 13.6 4.5 12.4 4.7 12.8 7.1 12.2 1.4-0.4 5.2-1.2 8.5-1.8 3.3-0.7 5.9-1.6 5.6-2.2-0.2-0.5-4.7-4.7-10-9.4-5.2-4.6-10.7-9.5-12.1-10.8-1.4-1.3-2.8-2-3.1-1.6zm-17.6 9.3c0.2 0.9 0.6 2.1 1 2.8 0.4 0.7 0.6 1.4 0.5 1.6-0.1 0.2-2.6 1.6-5.5 3-2.9 1.5-5.3 3.1-5.3 3.6 0 0.6 4 1.3 8.8 1.6 4.8 0.3 8.9 0.4 9 0.2 0.1-0.1-1.1-2.2-2.8-4.5-1.6-2.3-2.7-4.6-2.5-5 0.3-0.4-0.4-1.7-1.5-2.8-1.4-1.4-1.9-1.5-1.7-0.5z"
       style="fill:#000000;opacity:1" />
    <path
       id="Path 1"
       fill-rule="evenodd"
       class="s1"
       d="m382 0.4c8 0.4 16.3 0.9 22.5 1.7l1.5 7.6c0.8 4.1 1.8 7.7 2.3 7.9 0.4 0.2 5.1-2.7 10.4-6.6 5.4-3.8 10.5-6.8 11.3-6.5 0.8 0.2 12.5 2.5 26 5 13.5 2.5 32.4 6.6 42 9.1 9.6 2.4 21.1 5.9 25.5 7.6 4.4 1.7 12.7 5.2 18.5 7.8 5.8 2.6 14.5 5.9 19.5 7.4 5.1 1.6 10.5 4 12.5 5.6 1.9 1.5 7.8 4.7 13 7 5.2 2.3 11.1 5.5 13 7.2 1.9 1.7 10.4 9.3 18.8 17 8.3 7.6 14.9 14 14.4 14.3-0.4 0.2-8.3-4.3-34.7-20.8l-56-4.1-27.4-18.1 3-5.2c1.6-2.9 2.8-5.5 2.6-5.8-0.1-0.2-5.6 1.3-24.2 7.5l-70.5-18-1.5 3.8c-0.9 2-1.8 4.7-2 6-0.3 1.2-0.8 2.2-1.3 2.2-0.4 0-17-5.9-73.2-26.5l-70.5 19c-38.8 10.5-70.5 19.3-70.5 19.8 0 0.4 5.1 8.1 11.3 17.2 7.4 11 11.8 16.6 13 16.5 0.9 0 5.9-0.9 11-2 5-1.1 10.2-2.2 11.5-2.5 1.3-0.3 2.2 0 2.2 0.8 0 0.6-2.4 7-10.8 27.2l5.1 8c2.7 4.4 6.8 10.8 8.9 14.3 2.1 3.4 3.8 6.4 3.8 6.7 0 0.3-7.1-1.4-15.7-3.6-8.7-2.3-16.2-4.5-16.8-4.9-0.6-0.4-3.6-5.8-6.7-11.9-3.2-6.1-6.1-11.1-6.5-11.1-0.5 0-4.4 4.5-16.8 20l-28-1.3-17 10.7c-9.3 5.9-17.1 11-17.3 11.4-0.1 0.4 0.9 5.9 2.2 12.2 1.4 6.3 2.2 11.9 1.9 12.5-0.3 0.6-2.6-1.1-9.8-8.5l-11.5 8c-6.3 4.3-11.8 7.9-12.2 8-0.5 0-0.8-0.4-0.8-1 0-0.6 5.3-7.9 11.7-16.2 6.4-8.4 14.1-17.8 17-20.8 3-3 14.5-16 45.8-52.1l10.3-19.7c5.7-10.8 10.9-20.2 11.5-20.8 0.7-0.7 18.4-8.4 77.7-33.4l4 3c2.2 1.7 4 2.6 4 2 0-0.5-1.6-2.8-3.5-5-2.3-2.6-3.1-4.2-2.2-4.4 0.6-0.3 6.8-1.9 13.7-3.6 6.9-1.8 15-3.6 18-4.1 3-0.5 15.6-1.3 28-1.9 12.4-0.6 22.7-1.3 23-1.6 0.3-0.4 7-0.3 15 0zm272.9 110.5c2.5 2.1 5.6 5 6.8 6.2 1.2 1.3 4.6 7.1 7.7 12.9 3 5.8 6 12.5 6.6 15 0.9 3.8 0.6 6.7-1.9 19-2.8 13.6-2.8 14.6-1.3 16.1 0.9 0.9 8.5 7 31.7 25.2l21.9 28.6c12.1 15.7 23.4 30.7 25.3 33.4 1.8 2.6 3.1 4.7 2.8 4.7-0.3 0 3.8 8.4 18.8 37.5l18.6 13c10.2 7.1 18.6 12.8 18.6 12.5 0.1-0.3 2.5 1.8 5.4 4.5 2.9 2.8 9.2 10.6 22.6 30v13.3c0 10.9 0.3 13.3 1.5 13.6 0.8 0.3 4 0.9 7 1.5 3 0.6 6.5 1.8 7.6 2.8 1.2 1 8.8 14.4 31.7 57.8l0.8 29.5c0.4 16.2 0.8 36.9 0.9 46 0.1 9.1 0 17.2-0.1 18-0.2 0.8-0.7 1.7-1 2-0.4 0.3-7.6 15.3-31.4 66.3l-12.3 10.1c-6.8 5.6-12.8 10.3-13.5 10.5-0.7 0.2-5.3-1-10.4-2.5-5.1-1.6-9.5-2.7-9.8-2.4-0.3 0.3-1.5 7.7-2.6 16.5-1.2 8.8-2.3 16.2-2.6 16.5-0.3 0.3-4.6 0.7-18.8 1.3l-8.8-15.4c-4.8-8.5-8.7-15.7-8.7-16.1 0-0.5 3.4-3.5 7.5-6.8 6.6-5.3 7.4-6.3 7-8.7-0.2-1.6-0.8-9.5-2-32.5l-9-7.9c-5-4.4-9.2-7.9-9.5-7.9-0.3 0-2.7 4.9-5.5 11-2.7 6-5.2 11-5.5 11-0.3 0-1.7-3.3-5.7-14.5l-5.9-0.6c-3.2-0.4-10.1-0.7-15.1-0.8-5.1-0.1-9.5-0.4-9.7-0.8-0.3-0.5 3.6-5.2 17.4-20.3l-7.5-11c-4.1-6-7.6-11-7.7-11-0.2-0.1-3.9 4.6-8.2 10.2-4.4 5.7-8.3 10.8-8.7 11.3-0.5 0.5-1.1 0.8-1.4 0.5-0.2-0.3 1.6-6.8 4-14.5 2.5-7.7 4.5-14.6 4.5-15.2 0-0.7-1.8-4-4-7.3-2.2-3.3-3.8-6.3-3.5-6.7 0.2-0.5 2 0.7 4 2.5 1.9 1.7 4 3.2 4.5 3.2 0.5 0 1-1.9 1-4.2 0-2.4-0.4-4.8-0.8-5.3-0.4-0.6-5.1-3.9-10.5-7.5-5.4-3.6-9.8-6.7-9.7-7 0-0.3 2.4-0.4 5.3-0.2 2.8 0.1 6.4 0.4 7.9 0.5 2.1 0.1 2.7-0.2 2.2-1.3-0.3-0.8-2.4-4.1-4.7-7.3-2.3-3.2-4.5-5.8-4.9-5.7-0.5 0-3.2 1.4-6 3.1-2.9 1.7-6.5 3.7-10.8 5.9l-4.7-17.1c-2.7-9.4-5.1-17.7-5.5-18.3-0.5-0.8-7.2 0.5-23 4.2-12.3 2.9-22.4 5.1-22.5 5-0.1-0.2-1.9-4.8-3.8-10.3-2-5.5-4.3-10.7-5.2-11.5-1.4-1.3-1.5-1.2-1 1 0.3 1.4 0.9 7.9 2 26.5l-7.9 15c-4.3 8.3-8 15.4-8.1 16-0.2 0.6 21.7 15.9 48.6 34 47.9 32.3 48.9 33 47.3 35-1 1.2-7.1 8.3-13.7 15.8-9.3 10.6-12.3 13.4-13.1 12.4-0.7-0.6-6.9-8.1-13.8-16.4-6.9-8.4-12.9-15.2-13.3-15.1-0.5 0.2-0.7 0.7-0.5 1.3 0.2 0.5 2.4 5.3 4.8 10.5 4.1 8.6 5.5 10.6 27.9 33l-2.2 7c-1.6 4.9-2.7 6.8-3.5 6.3-0.7-0.4-3-1.7-5-3-2.1-1.3-4-2-4.2-1.5-0.3 0.4 5.7 7 27.2 28.7l-3.1 6.3c-1.8 3.4-3.5 6.2-3.9 6.2-0.5 0-17.2-17.8-37.3-39.5-20.1-21.7-37-39.5-37.5-39.5-0.6 0-1.1 4.9-1.5 24.5l-9.5 4.9c-7.1 3.6-9.1 5-8 5.7 0.8 0.5 4.2 0.9 7.5 0.9 3.3 0 6.5 0.4 7.1 0.8 0.7 0.4 6.3 16.6 12.5 36 6.3 19.3 11.2 35.4 11 35.7-0.2 0.3-5.1 0.5-10.8 0.5-5.6 0-10.3-0.2-10.3-0.5 0-0.3 0.9-5.3 2-11.2 1.1-6 1.8-11 1.4-11.3-0.3-0.3-9.4-2.2-20.3-4.2-10.8-2.1-20.6-3.8-21.8-3.8-1.9 0 0.2 3.1 12.2 17.5 8 9.6 14.5 17.8 14.5 18.3-0.1 0.4-15.7-7.3-34.8-17-19.1-9.8-35-17.8-35.4-17.8-0.5 0 1.7 6.4 4.8 14.3 4.4 11.3 5.3 14.6 4.5 16.2-0.6 1.1-2.5 3.8-7.3 10l8.6 16.8c4.7 9.2 8.5 16.9 8.4 17-0.2 0.2-5 0.9-10.8 1.5-5.8 0.7-10.6 1.3-10.7 1.4-0.2 0.2-1.6 4.6-3.2 9.8-1.6 5.2-2.6 9.6-2.2 9.8 0.3 0.1 2.6-0.2 5.1-0.7 2.5-0.6 4.8-0.7 5.1-0.3 0.3 0.4 2.7 9 5.3 19.2 2.6 10.2 4.6 18.6 4.4 18.7-0.2 0.1-4.6-0.5-9.9-1.5-5.3-0.9-9.9-1.9-10.2-2.2-0.4-0.3-1.8-6.6-3.2-14-1.4-7.4-2.7-13.6-3-13.7-0.3-0.2-3 3.3-11.5 15.7l10 28-5.2 3c-2.9 1.6-5.8 3-6.3 3-0.5 0-1.6-1.9-2.3-4.2-0.8-2.4-3.1-10-5.3-17-2.1-7.1-4.4-12.8-4.9-12.8-0.5 0-1.1 2.9-1.2 6.4-0.2 3.5-0.6 6.7-1 7-0.5 0.3-2.7-0.7-9.3-5.1l-0.7-8.4c-0.4-4.6-1.1-13.7-1.5-20.2-0.5-6.4-1.1-11.7-1.5-11.7-0.5 0-3.5 2.5-12.8 11l-14.7-13.5 1.9-4.2c1-2.4 1.7-4.5 1.6-4.8-0.2-0.2-4.1 6.4-8.8 14.7-4.7 8.3-8.9 15.3-9.5 15.5-0.5 0.2-2.8-6.6-4.9-14.9-2.2-8.4-4.3-16.8-5.6-21.8l-7.5 6c-4.1 3.3-7.6 6-7.7 6-0.2 0-3.2-4.2-6.8-9.5-3.6-5.2-6.7-9.5-7-9.5-0.3-0.1-1.3 1.6-2.3 3.7-1 2.1-2.5 4.6-3.3 5.6-1.3 1.6-1.7 1.5-6.1-1.2-2.7-1.6-8.7-5.2-22.3-13.1l-39.5 36.1-3.7-8c-2.2-4.7-4.3-8-5-7.8-0.9 0.2-2.2 6.7-3.8 19-1.4 10.2-2.3 18.8-2 19 0.3 0.3 14.2-2.1 31-5.4 16.8-3.2 31.5-6.1 32.8-6.4 1.4-0.3 2.2 0 2.2 0.8 0 0.6-1.9 4.3-4.1 8.2-2.2 3.9-3.8 7.5-3.6 8 0.2 0.5 3.4 3.3 7 6 3.6 2.8 6.6 5.7 6.6 6.5 0.1 0.8-1.5 7.4-3.4 14.5-2 7.1-3.6 13.1-3.8 13.3-0.1 0.1-5.8-5.7-12.7-12.9-6.9-7.3-12.6-12.8-12.8-12.3-0.1 0.5-2.4 9.8-9.7 40.6l-23 8.5-0.3-7.1c-0.1-3.9-0.1-7.2 0-7.4 0.2-0.2 3.5 0.2 7.3 0.8 3.9 0.5 7.1 0.9 7.2 0.8 0.1-0.2-1.7-10.1-4-22-2.3-12-4.4-21.8-4.7-21.8-0.3 0-7.7 3.3-32.5 14.7l0.5 15.3h-2.7c-1.6 0-6.2 0.3-17.8 1.3l-8.7-7.2c-4.9-3.9-8.6-7.7-8.4-8.3 0.2-0.7 4.5-8.7 9.5-17.8 5-9.1 9-16.5 8.9-16.6-0.2 0-10.1 2.7-22.1 6-12 3.4-22 6-22.2 5.9-0.3-0.2 2-3.9 10.5-16.3h-32.5l0.8-6.2c0.4-3.5 1-8.8 1.4-11.8 0.4-3.3 0.3-5.2-0.3-4.8-0.5 0.3-2.9 5.6-5.4 11.7-2.9 7.1-5 11.1-6 11.1-0.8 0-6.1-1.2-11.7-2.8-5.6-1.5-10.3-2.5-10.3-2.2 0 0.3 2.5 3 11.1 11.5l-3.5 13.5c-2 7.4-3.6 14-3.6 14.5 0 0.6 4.6 0.1 11.3-1.3 6.1-1.3 11.8-2.2 12.5-2 0.8 0.2-5.2 5.6-27.8 23.8l5.3 1c2.8 0.5 9.5 1.7 14.8 2.7 5.3 1 10.1 2.2 10.5 2.6 0.5 0.5 1.2 6.6 1.7 13.5 0.4 7 0.8 12.8 1 12.8 0.1 0.1 4.4 2.7 9.5 5.8 5 3.1 9.2 5.9 9.2 6.4 0 0.4-2.1 6.7-4.8 13.9-2.6 7.3-4.5 13.5-4.2 13.7 0.3 0.2 12.9-2.5 28-6.1 15.1-3.5 27.6-6.5 27.8-6.6 0.1-0.1 0.7-10.3 1.4-22.7 0.6-12.4 1.5-23 2-23.5 0.6-0.7 4.4-0.6 11.6 0.3 5.9 0.7 11.7 1.5 13 1.7 1.2 0.3 2 0.8 1.8 1.3-0.2 0.4-4.7 2.3-10 4.2-5.3 1.9-9.6 4.1-9.6 4.8 0 0.6 1.4 4.7 3.1 9 1.7 4.2 3.3 7.8 3.5 8 0.2 0.1 7.4-3.4 15.9-7.8 8.5-4.4 15.5-7.5 15.5-7 0 0.5-3.8 5.6-16.8 21.5l10.9 1c9.4 0.9 11.1 0.8 11.9-0.5 0.5-0.8 1.6-4.4 2.6-8 0.9-3.6 2.1-7 2.6-7.5 0.7-0.6 0.9 1.3 0.3 12.3l4-2.1c2.2-1.1 8.1-4.2 13-6.9 5-2.7 9.2-4.5 9.5-4 0.3 0.6 2.1 9.6 7.5 39.2l-6.5 6.5c-4.1 4.1-6.1 6.8-5.5 7.4 0.6 0.5 8.8 6.8 18.3 14 9.4 7.2 17.5 13.1 18 13.1 0.4 0 0.3-14.1-0.9-62.5l10.1-8.2c5.5-4.6 10.3-8.1 10.8-7.8 0.4 0.3-1.6 4-9.7 16l2.3 2.5c1.2 1.4 10.5 11.8 38.6 44l0.5-3.7c0.2-2.1 1.6-16.4 3-31.8 1.4-15.4 2.8-29.1 3.1-30.5 0.3-1.6 0.8-2.1 1.4-1.5 0.4 0.5 4.9 9.9 19 40.5l9.5-6.5c5.2-3.6 9.7-6.5 10-6.5 0.3 0 0.5 4.6 0.4 20.5l-8.4-9.6-8.5 11.1 13.8 21.6c7.5 11.9 14 21.8 14.5 22 0.4 0.2 4.3-4.1 8.7-9.6 5.1-6.4 8.4-9.8 9.3-9.3 0.6 0.4 5.8 3.7 11.5 7.5 5.6 3.7 10.4 6.8 10.7 6.8 0.3 0 4.8-2.9 10-6.5 6.3-4.3 9.3-6.9 8.8-7.7-0.4-0.7-5.6-7.3-22.3-27.8l0.5-41.5 13.2-5.5c7.3-3 13.3-5.7 13.3-6 0-0.3-7.3-6.1-16.2-12.9-9-6.8-16.5-12.6-16.8-12.7-0.3-0.2 3.4-5.5 17-23.4l3.3 2c1.7 1.1 6.2 3.9 16.5 10.5l2.8 23.5c1.5 12.9 3 23.8 3.3 24.3 0.3 0.4 4.8-0.3 9.9-1.5 6.7-1.7 9.5-2 10-1.2 0.4 0.7 1.6 10 2.7 20.9 1.1 10.8 2.3 20.2 2.7 20.9 0.4 0.7 6.5-2.1 18-8.2 9.5-5.1 17.5-9.3 17.8-9.3 0.3 0 7.7 3.2 16.5 7.1 8.8 3.8 16.1 6.9 16.3 6.8 0.1-0.2-3.4-6.8-7.9-14.8-4.5-8-8.3-14.7-8.5-15-0.2-0.3 6.5-8.1 14.9-17.3 8.3-9.2 15.4-16.7 15.7-16.5 0.3 0.2 4.2 2.3 8.8 4.8 4.5 2.5 8.2 5 8.2 5.5 0 0.5-1.1 6.9-2.5 14-1.3 7.1-2.3 13.1-2.2 13.3 0.1 0.1 4.5-3 9.7-6.9 5.2-3.9 9.6-7.2 9.7-7.3 0.1 0-5.5-8.5-25.2-37.5l6.3-16.8c3.4-9.2 6.5-16.9 6.7-17 0.3-0.2 3.2 1.8 6.4 4.5 3.3 2.6 6 5.2 6 5.7 0 0.5-3.5 5.4-7.9 10.8-4.4 5.3-7.9 10-7.7 10.5 0.1 0.4 2.2 4.3 4.6 8.7 2.5 4.4 4.6 7.5 4.7 7 0.2-0.5 1.8-6.3 3.6-12.8 1.8-6.5 3.5-11.8 3.8-11.8 0.3 0 1.3 2.2 2.4 4.8 1 2.6 2.2 5.3 2.7 5.8 0.5 0.6 1.4-1.3 2.3-4.5 0.8-3 2.5-9.3 6.1-22.4l10.7-4.1c5.8-2.2 11-4.3 11.5-4.8 0.4-0.4-8.5-23-19.9-50.2-11.5-27.2-20.6-49.8-20.3-50.2 0.3-0.5 1.3-0.1 2.2 0.8 1 0.8 9.5 8 18.8 16 16.4 13.8 17.1 14.6 17.8 18.9 0.4 2.5 1 6.5 1.2 9 0.2 2.5 2.7 19.1 5.5 37 2.7 17.9 5.2 33.4 5.5 34.5 0.3 1.1-0.2 2.8-1 3.8-1.4 1.6-2.1 1.3-10.2-4.3-7.5-5.1-9-5.8-10.5-4.8-0.9 0.7-4.3 3.3-7.6 5.8-3.4 2.5-6.1 4.7-6.2 5 0 0.3 3.1 2.1 7 4 5.7 2.9 6.9 3.9 6.5 5.5-0.3 1.1-1.2 5.3-2 9.3-0.8 3.9-1.5 8.3-1.5 9.7 0 1.5-1.2 3.7-2.9 5.3-1.6 1.5-3.7 4.7-4.6 7.2-1 2.5-6.4 10.6-12 18-5.6 7.4-14.7 19.8-20.2 27.5-5.6 7.7-12.9 16.7-22.1 26l-10.4-8.2c-5.6-4.5-10.6-8-11-7.8-0.5 0.3 1.5 5.3 4.2 11.3 2.8 5.9 4.9 10.8 4.8 11-0.2 0.1-2.3-0.2-4.8-0.8-2.5-0.5-10.8-1.7-18.5-2.5-7.7-0.9-14.3-1.2-14.6-0.8-0.3 0.4-1.8 5.5-3.4 11.3-1.5 5.8-3.1 11.1-3.4 11.8-0.3 0.7-8.4 4.7-35.1 16.2l-26-14-12 11c-6.6 6-12.5 11-13 11-0.5 0-1.3-0.6-1.6-1.2-0.3-0.7 0.8-4.4 2.5-8.3 1.7-3.9 3-7.1 2.9-7.2-0.2-0.1-3.9 0.4-8.3 1.3-4.4 0.8-8.1 1.6-8.2 1.7-0.2 0.1 1.5 2.9 3.8 6.2 2.2 3.3 3.7 6.3 3.2 6.7-0.4 0.3-9.7 5.8-40.3 23.8l-83.5-0.5-10.2-15c-5.7-8.2-10.7-15.1-11.1-15.3-0.4-0.1-1.3 4.8-2 11-0.7 6.2-1.6 12.9-2.5 18.3l6.7 2.3c3.6 1.2 6.8 2.7 7.1 3.2 0.3 0.5-1 1.2-2.7 1.5-1.8 0.3-6.4 1-10.3 1.5-3.8 0.5-7.9 1-9 1-1.2 0-7.5-4.8-15-11.4-7.1-6.3-13.3-11.2-13.7-11-0.5 0.2-0.3 1.6 0.3 3.2 0.6 1.5 2.6 7 4.5 12.2 1.8 5.2 3.2 9.6 3.1 9.7-0.1 0.2-3.7-0.3-8.1-1-7.7-1.2-7.9-1.3-11.2-5.9-1.9-2.7-3.2-5.1-2.9-5.5 0.2-0.5-0.4-1.7-1.5-2.8-1.7-1.7-2-1.7-1.7-0.3 0.1 0.9 0.6 2 1 2.5 0.4 0.4 0.8 1 0.7 1.3 0 0.3-3.1 2.1-13.9 7.5l-7.3-5.2c-4-2.8-8.1-5.4-9-5.7-1.1-0.4-5 1.2-18.3 8.8l-23-4.4c-12.6-2.4-25.7-5.3-29-6.5-4.8-1.8-8.4-4.4-18.1-13.1-9.5-8.6-12.8-12.3-15.5-17.3-2.3-4.3-11.1-15.1-49.9-58.6l1.9-3c1-1.6 4-6.5 6.5-10.7 2.5-4.3 4.2-8 3.6-8.3-0.5-0.3-2.9 1.7-9.5 9.4l-9-6.4c-4.9-3.5-9.1-6.2-9.2-6-0.2 0.3-1.8-1.2-3.6-3.2-1.8-2.1-5-6-7.2-8.8-2.1-2.7-4.3-5.6-4.9-6.3-0.9-1.1-0.6-1.2 1.4-0.4 1.4 0.5 5.4 2.5 9 4.3 3.6 1.9 6.9 3.6 7.4 3.9 0.6 0.3 0.6-4.7 0.2-12.5-0.5-7.1-0.9-13.1-1-13.2 0-0.2-4.4 1.1-9.6 2.7-5.2 1.6-9.8 3-10.2 3-0.5 0 0.1-2.6 1.2-5.7 1.1-3.2 2-6.4 2-7 0-0.7-2.4-2-5.2-2.9-2.9-0.9-5.7-1.9-6.1-2.3-0.4-0.3 3.9-2.4 9.5-4.7 5.7-2.3 12-4.7 14.1-5.5 2-0.8 3.7-1.7 3.7-2.1 0-0.5-3.8-4.8-17-18.8l6.5-3.5c3.6-1.9 6.7-3.5 7-3.5 0.3 0-0.7 1.5-2.1 3.3-1.4 1.7-2.1 3.5-1.7 3.9 0.4 0.3 4 1.5 7.8 2.7 3.9 1.1 7.1 1.9 7.2 1.8 0.1-0.1 0.7-7.4 1.4-16.2 0.6-8.8 1-16.8 0.8-17.7-0.3-1.3-6.2 2.7-47.9 34.2l-0.5 5.3c-0.3 2.8-0.9 8.1-2 18.2l-4.1-6c-2.3-3.3-6.2-8.4-13.4-16.5l1.7-3.2c0.9-1.8 7.6-16.8 14.9-33.3 7.4-16.5 12.9-30.1 12.4-30.2-0.6-0.2-5.8 2.6-11.7 6.2-6 3.6-11.2 6.4-11.8 6.2-0.5-0.3-5.2-3.7-10.2-7.6-6.9-5.3-9.4-7.8-9.8-9.8-0.2-1.6-1.1-8.2-2-14.8-0.8-6.6-1.4-12.1-1.3-12.2 0.2-0.2 7.1 1.7 15.3 4.2 8.3 2.4 15.2 4.2 15.5 4 0.3-0.3 0.3-0.7 0-0.9-0.3-0.2-7.2-3.4-15.5-7.2-8.2-3.7-15.4-7-15.8-7.3-0.4-0.3-0.2-15.9 1.6-68.6l-10.7-20c-7.6-14.3-10.7-21-10.7-23.5 0-1.9-0.5-6.9-1.2-11.1-0.7-4.4-0.8-7.4-0.3-7 0.6 0.3 0.7-0.2 0.3-1.4-0.3-1.1-0.9-6.6-1.4-12.3-0.4-5.6-0.6-10.2-0.3-10.2 0.3 0 3.9 1.1 8 2.5 4.1 1.4 7.5 2.5 7.5 2.5 0 0 1.4-4.3 3-9.6 1.7-5.3 3.5-9.9 4-10.1 0.6-0.2 5.7 1.4 11.5 3.6 5.8 2.1 10.6 3.5 10.8 3 0.1-0.5-3.3-6.5-15.3-26l7.5-7.3c4.1-4.1 7.1-7.6 6.5-7.9-0.5-0.2-5 0.9-18.9 5.8l-7.5 17.8c-4.2 9.7-7.8 17.7-8.1 17.7-0.3 0.1-4-2.1-15.9-9.5l0.5-5c0.3-2.7 3.4-39.2 13.1-157l33-66c18.2-36.3 33.8-66.7 34.8-67.5 1.6-1.4 1.7-1.3 1.2 0.5-0.3 1.1-2.7 11.2-5.2 22.5-2.6 11.3-4.7 21-4.8 21.5-0.1 0.6 0.3 1.2 0.8 1.3 0.6 0.1 8.6-6.4 17.9-14.5 9.3-8.2 17.5-15.1 18.2-15.5 1.1-0.6 1.9 1.2 3.7 7.7 1.2 4.6 2.5 8.1 2.8 7.7 0.3-0.4 3.9-8.6 7.9-18.2 4-9.6 7.7-17.8 8.4-18.2 0.6-0.3 3.6-0.9 6.6-1.2 3-0.3 5.6-0.5 5.8-0.3 0.2 0.1-0.7 5.1-1.8 11.2-1.2 6.1-2 11.5-1.8 12.2 0.2 0.7 15.2-19.8 66.7-92.2l16.3-2.8c9-1.6 16.8-2.9 17.3-3 0.6-0.1 1.2 0.1 1.3 0.6 0.1 0.4-2.6 6.1-6 12.7-5.4 10.4-6.7 12.2-9.3 12.9-1.6 0.4-6.6 1.6-11 2.5-4.4 1-8.7 2.1-9.5 2.6-1.3 0.8-1.2 3.7 0.8 25.2 1.3 13.4 2.5 25.1 2.8 26.1 0.3 1.1-2.1 4.3-14.1 16.6l14.7 15.6-2.8 2.3c-1.6 1.2-4.8 3.5-7.1 5-2.4 1.5-4.2 3-4 3.3 0.1 0.4 3.6 3.5 7.7 6.9 4.1 3.4 8.5 7.1 12 10l-9.5 33.5c-5.2 18.4-9.5 33.8-9.5 34.3 0 0.4 6.6 0.4 29.5-0.7l24.5 16.1c13.5 8.8 25.1 16.2 25.8 16.4 0.6 0.2 5.4-4.3 10.5-10.1 5-5.8 9.4-10.5 9.7-10.5 0.3 0 4.1 2.9 16.5 13l20-0.5 0.3-6c0.1-3.3 0.5-6.6 0.7-7.2 0.3-0.9 3.9 0.7 21 11l76-9.4 54.5 34.1 16.5-1c9.1-0.6 17-0.8 17.5-0.5 0.6 0.3-1.2 4.7-9 19.5l13 16.5c7.1 9.1 12.9 16.7 12.8 16.9-0.2 0.2-6.5 3.8-14 8-7.6 4.2-14.1 7.6-14.5 7.6-0.5-0.1-3.2-2.2-6.1-4.8-3-2.6-6.8-5.9-8.5-7.4-1.8-1.4-2.8-3-2.3-3.5 0.4-0.4 7-1.7 14.6-2.8 7.6-1.1 14-2.2 14.3-2.5 0.3-0.3-0.6-4.6-4.5-18.5l-42.6-26.5c-34-21-43.3-26.4-45.7-26.2-1.6 0.1-35.3 4.7-74.7 10.2-39.5 5.5-72.6 10-73.5 10-1 0-13.3-7.9-27.3-17.5-14-9.7-26.4-17.5-27.5-17.5-1.1 0.1-9.9 1.8-37 7.5l-2.5 7.8c-1.4 4.2-2.7 7.7-3 7.7-0.3 0-3.1-2.6-12.2-11.5l3.1-38.5c1.8-21.2 3.4-40.2 4.1-46l-5.7 2c-3.2 1.1-5.9 2-6 2-0.2 0-1.7-4.4-3.4-9.7-1.7-5.4-3.6-10.2-4-10.8-0.6-0.6-0.9 3.9-0.9 11 0 6.6-0.3 19.1-1.5 43.8l-9.2 6.3c-5.1 3.5-9.3 6.7-9.3 7.2 0.1 0.4 2.8 3.5 6 7 3.3 3.4 5.9 6.4 5.8 6.8-0.2 0.3-4.8-0.7-10.3-2.1-5.5-1.4-10.1-2.4-10.3-2.3-0.1 0.2-2.7 8.4-5.7 18.3-3 9.9-5.4 18.1-5.3 18.2 0.2 0.1 4.4 1 9.3 1.9 5 0.9 9.3 1.9 9.7 2.3 0.4 0.3-8.4 9.2-19.6 19.6-11.3 10.4-20.5 19.3-20.5 19.8-0.1 0.4 5.3 4.9 11.9 10 6.7 5 11.9 9.3 11.8 9.5-0.2 0.2-6.9-0.5-15-1.5-8.1-1-14.9-1.5-15.2-1-0.3 0.4 1.2 4.3 3.4 8.7 2.2 4.4 3.8 8.3 3.5 8.8-0.2 0.4-4.5-2.9-9.5-7.3-5-4.4-9.4-8.1-9.8-8.3-0.4-0.1-2.9 4.5-5.7 10.3-2.7 5.8-4.8 10.7-4.5 10.9 0.3 0.2 15.6 0.8 34 1.5 18.4 0.6 33.6 1.2 33.8 1.3 0.1 0.2-1.8 11.3-4.3 24.8-2.5 13.5-5 26.8-6.5 34.5l-7.5 2.3c-4.1 1.2-7.5 2.4-7.5 2.7 0 0.3 2.7 2.3 6 4.5 3.3 2.2 6 4.2 6 4.5 0 0.3-1.6 4-7.1 16l3.3 2.9c1.8 1.6 8.9 8.4 28.1 27.1l-11.8 40-21.9 1-3.2 5.5c-1.8 3-3.4 5.7-3.4 6 0 0.3 10.1 7.3 22.6 15.5 12.5 8.3 22.8 15.3 23 15.8 0.2 0.4-1.4 5.5-3.6 11.5-2.2 5.9-4 11.3-4 12 0 0.6 7.5 7.2 16.8 14.5 9.2 7.3 17.3 13.6 18 14 0.6 0.4 14.6-1.6 31-4.4 16.3-2.8 29.8-5.2 30-5.3 0.1 0-1-5.6-2.5-12.3-1.6-7-2.4-12.3-1.8-12.3 0.6 0 6.9 1.1 14 2.5 7.2 1.4 14.1 2.7 15.5 3 1.5 0.4 2.1 0.9 1.5 1.4-0.5 0.5-4.1 1.6-8 2.6-3.8 1-7.7 2.2-8.5 2.6-1.3 0.7-1.3 0.8 0 1.3 0.8 0.3 7.1 1.9 14 3.6 6.9 1.7 14.2 3.5 20 5v7c0 3.9-0.4 7.2-1 7.5-0.5 0.3-6.7-0.2-13.7-1-7.1-0.8-13-1.3-13.3-1.1-0.3 0.3 1.3 1.2 3.5 2.1 2.2 0.9 7.6 3.1 20 8.4l16.2-6.2c8.9-3.4 16.5-6.6 17-7 0.4-0.4-3.2-0.5-8.2-0.2-4.9 0.4-9.6 0.9-10.2 1.1-0.7 0.2-1.3 0.2-1.3-0.1 0-0.3 2.1-4.2 4.6-8.7 2.5-4.6 4.2-8.6 3.7-8.9-0.4-0.4-6.9-2.2-14.3-4.1-7.4-1.9-13.6-3.9-13.8-4.4-0.1-0.5 8.2-2.9 18.5-5.3 10.4-2.5 19.7-4.7 20.8-5 1.4-0.3 0 1.8-4.2 6.7-3.5 4-6 7.4-5.5 7.6 0.4 0.2 4.1 1 8.1 1.7 4.1 0.8 8.1 2 8.8 2.7 0.7 0.6 1.3 3.3 1.3 6 0 2.6 0.4 7.1 0.8 10 0.4 2.9 0.9 5.2 1.2 5.2 0.3 0.1 2.9-4.1 5.8-9.2 2.8-5.1 5.6-10 6.1-10.8 0.7-1.2 4.8 0.5 23.2 10.3 12.3 6.4 22.6 11.7 22.9 11.7 0.3 0 2.1-3.8 4-8.5 1.9-4.7 3.8-8.5 4.3-8.5 0.4 0 7.9 3.6 16.7 8 8.8 4.4 16.2 7.9 16.4 7.8 0.3-0.2 2.2-6.5 8.1-27.7l5.5 4.9c3 2.7 8.7 8 12.5 11.9 5.6 5.7 7.6 7.1 10 7.1 1.7 0 5.8-0.3 15.4-1.5l3.6-18.3 13 4.5c7.2 2.4 13.1 4.3 13.2 4.1 0.2-0.2 2-7 4.2-15.3 2.5-9.5 4.1-17.9 4.6-30.6l-29-16.2 9-8.4-22.5-1.3-0.1-47.5-36.2-30.2c-19.9-16.7-37.9-31.7-39.9-33.5-2-1.8-6.8-7-10.7-11.5-3.9-4.6-7-8.6-6.8-8.9 0.1-0.3 4.6 0.3 19.9 3.1l49.1 39.4c27.1 21.6 51.6 41.4 59.9 48.6l16.3-16.7 7 7.6c3.9 4.2 7.2 7.3 7.5 7 0.3-0.3 2.6-11.7 5.1-25.3 4-21.4 4.4-24.6 3-24.9-0.9-0.1-4.9 0.3-16.1 2.3l-1.9-6.5c-1.1-3.6-2.4-8.3-3-10.5-0.6-2.2-1.1-4.5-1.1-5-0.1-0.5 2.8-2.3 6.2-3.8 3.8-1.6 5.9-3.1 5.3-3.6-0.5-0.5-4.7-2.4-9.2-4.2-4.6-1.9-7.9-3.7-7.5-4.1 0.4-0.4 9.5-4.8 20.2-9.8 10.7-5 20-9.7 20.7-10.3 0.6-0.7 6.3-18.8 12.7-40.2 6.4-21.4 11.8-39.1 12.1-39.2 0.3-0.2 3.4 1.5 7 3.7 3.6 2.2 6.8 3.9 7.1 3.8 0.3-0.2-2.4-12.9-6-28.3-3.7-15.4-6.9-29-7.1-30.2-0.3-1.3-0.2-2.3 0.3-2.3 0.4 0 3.5 4.6 13.2 20.5l17.2 3.3c9.5 1.8 17.5 3.2 17.8 3.2 0.3 0 0.4-1.3 0.3-2.8-0.1-1.5-0.3-4.9-0.8-12.3l7 0.6c3.9 0.3 8.7 0.8 14.5 1.5l3.9 12.3c2.1 6.7 4.1 11.8 4.3 11.2 0.3-0.5 2.2-8 4.3-16.5 2.1-8.5 4-15.8 4.4-16.2 0.3-0.4 4.9 0 10.2 1 5.3 0.9 9.9 1.9 10.2 2.2 0.3 0.3-1 4.3-2.9 9-1.8 4.7-3.2 8.6-2.9 8.8 0.3 0.1 2.2-1.2 4.3-2.8 2-1.7 3.9-3 4.2-3.1 0.3 0 3 3.7 6 8.1 3 4.4 5.8 7.7 6.2 7.3 0.4-0.4 2.8-6 5.3-12.3 2.6-6.3 5.1-11.9 5.6-12.5 0.5-0.5 1-0.8 1.3-0.5 0.2 0.3 1.1 7.9 2 17 0.9 9.1 1.5 16.6 1.4 16.8-0.2 0.1-2.8-0.7-5.8-1.8-5.1-1.9-5.4-2-4.7-0.3 0.5 1 11.2 18.7 23.9 39.3 12.7 20.6 23.2 37.7 23.4 38 0.2 0.3 0.6 0.3 0.8 0 0.2-0.3 1.3-10.2 2.5-22 1.2-11.8 2.1-21.8 2.1-22.2 0-0.5-3.6 0.4-16.1 4.7l-4-7c-2.1-3.9-4.1-7.9-4.4-9-0.2-1.1-1.8-12.4-3.5-25-1.6-12.6-3-23.8-3-24.7 0-1 7 6.8 15.5 17.2 8.5 10.5 15.8 19 16.3 19 0.4 0 0.3-2.3-0.1-5.2-0.4-2.9-1.1-6.4-1.5-7.7-0.7-2.3-0.7-2.4 11.3-0.9l-9.2-8.6c-5.1-4.7-9.3-8.9-9.3-9.3 0-0.5 4-3.2 9-6 4.9-2.9 9.3-5.1 9.8-4.8 0.4 0.3 4.5 8.3 17.7 35l29.9 12 7.1 23.2c3.8 12.7 7.3 23.4 7.8 23.7 0.4 0.3 4.7-4.1 9.7-9.9 5-5.8 9-10.8 9-11.2 0-0.5-11-19.7-48.5-84.8l-7.3-1.5c-4-0.8-7.2-1.8-7.2-2.2 0-0.5 2.9-2.3 6.5-4 3.6-1.8 6.4-3.6 6.3-4-0.2-0.4-14-11-61.3-46.1l-23.5-3.4c-12.9-1.8-23.5-3.5-23.6-3.6 0-0.1-6.4-15.5-28.1-68.2l3.3-12.5c1.9-6.9 3.4-13.1 3.4-13.7 0-0.7-10.2-10.6-22.7-21.9-12.6-11.3-23.2-21.1-23.7-21.7q-0.9-1.2 5.8-10.2c3.7-4.9 6.6-9.2 6.6-9.5 0-0.3-7.1-4.1-15.7-8.4-8.7-4.3-15.3-8.1-14.8-8.3 0.5-0.2 9.2 1.2 19.3 3.2 10 1.9 18.7 3.5 19.2 3.5 0.6 0 0.8-1.8 0.5-4.5-0.3-2.5-0.2-5 0.1-5.5 0.4-0.6 2.6 0.6 5.3 2.9zm-331.1 300.1c1.6 0 8.7 0.8 28.6 3.5l8.8 11.7c4.8 6.5 8.6 12.4 8.4 13-0.3 0.9-0.5 0.9-1-0.2-0.3-0.8-3.8-4.9-7.7-9-3.9-4.1-8.3-9.1-9.8-11-1.9-2.6-3.2-3.4-5.1-3.2-1.4 0.1-7.7 0.6-14 1.1-6.3 0.5-11.8 0.6-12.3 0.2-0.4-0.3-0.3-1.8 0.3-3.4 0.7-2.1 1.6-2.7 3.8-2.7zm104 27c11.4 0 18.2 0.4 18.2 1 0 0.5 2 2 4.5 3.2 2.5 1.3 4.5 2.7 4.5 3.3 0 0.5-1.6 5-3.5 10-2 4.9-3.4 9.1-3.3 9.2 0.2 0.1 4.8 0.6 10.3 1.2 5.5 0.6 10.1 1.2 10.2 1.4 0 0.1-1.5 6.3-3.4 13.7-2 7.4-3.8 13.8-4.2 14.2-0.3 0.5-7.1 0-29.6-2.6l-23-18.4c-12.6-10.2-23.4-18.9-24-19.3-0.5-0.5-0.7-1.1-0.2-1.4 0.4-0.3 7.6 2.7 16 6.7 8.3 3.9 15.7 7.1 16.2 7.1 0.6 0 6.9-3.5 14-7.8 7.3-4.3 12.6-8.1 12-8.5-0.5-0.4-8-3.3-16.5-6.4-8.5-3.2-15.7-5.9-16-6.2-0.3-0.3 7.7-0.4 17.8-0.4zm-127 14.1c1.7 0 3.4 0.2 3.6 0.6 0.2 0.5-2.7 11.4-6.5 24.3-3.8 12.9-6.9 24.2-6.9 25 0 0.8 3.8 10 8.5 20.5 4.7 10.5 8.9 19.3 9.3 19.7 0.4 0.4 12 1.2 25.7 1.9 13.8 0.6 25.2 1.3 25.5 1.5 0.3 0.2 0.3 0.6 0 0.8-0.3 0.3-10.4 1.8-22.5 3.5-12.1 1.6-22.1 2.9-22.1 2.8-0.1-0.1-6.3-7-13.9-15.2-7.5-8.3-14.2-15.1-14.8-15.3-0.7-0.2-3.9 0.8-7.2 2.2-3.3 1.5-6.1 2.5-6.3 2.4-0.2-0.2 0.1-4.8 0.6-10.3 0.6-5.5 0.7-10.3 0.4-10.7-0.4-0.3-10.4 10-43.6 46.7l11.4 21.5-16.2 6.4c-9 3.6-16.4 6.4-16.5 6.3 0-0.1 0.8-4.7 1.9-10.2 1.2-5.5 1.9-10.7 1.6-11.5-0.3-0.8-8.6-5.3-18.4-9.9-9.9-4.7-18.1-8.7-18.4-8.9-0.3-0.2 0.5-10.8 4.1-46.7l6.5-12.5c3.6-6.9 6.7-12.6 7-12.8 0.2-0.1 3.4 2.1 7.2 4.8 3.7 2.8 7 5 7.5 5 0.4 0 0.5-1.9 0.2-4.3-0.2-2.3-0.7-7.5-1-11.5-0.3-3.9-0.2-7.2 0.3-7.3 0.4 0 20.7-2 45.2-4.4 24.5-2.3 46-4.3 47.8-4.4zm92.1 74.9c0.8 0 9.2 8.2 35.8 36.5l2.6 14c1.5 7.7 2.4 14.2 2.2 14.5-0.3 0.3-4-1.9-8.2-4.7-4.3-2.9-8.4-5.3-9-5.3-0.7 0-1.3 0.2-1.3 0.5 0 0.3 1.4 8.7 3 18.7 1.7 10.1 2.9 18.7 2.8 19.2-0.2 0.5-3.4-3.2-7.3-8.2-3.8-5-7.2-8.9-7.5-8.8-0.3 0.2-2.7 3.3-5.5 7-2.7 3.6-5.3 6.6-5.7 6.6-0.5 0-6.6-11.7-26.8-52l14-17-3.7-0.6c-2.1-0.3-4.9-0.9-6.3-1.3-2.3-0.6-1.8-1.3 8.4-9.9 6-5.1 11.6-9.2 12.5-9.2z"
       style="fill:#808080;opacity:1" />
    <path
       id="Path 2"
       fill-rule="evenodd"
       class="s2"
       d="m347.3 14.1c0.9-0.1 17.8 5.8 37.4 12.9 19.7 7.2 36.1 13 36.5 13 0.5 0 1-1 1.3-2.3 0.2-1.2 1.1-3.9 3.5-9.7l70.5 18 12-4c6.6-2.2 12.1-3.7 12.2-3.5 0.2 0.3-1 2.9-5.6 11l27.4 18.1 56 4.1 16.5 10.3c9.1 5.7 17 10.4 17.6 10.4 0.5 0.1 3.8 2.1 7.1 4.6 3.4 2.5 6 4.8 5.7 5.2-0.2 0.5 0.5 1 1.6 1.3 1.1 0.3 2 0.8 2.1 1.2 0 0.5 0.2 3.6 0.5 7 0.2 3.8 0 6.3-0.6 6.3-0.5 0-9.2-1.6-19.3-3.5-10-2-18.7-3.4-19.2-3.2-0.5 0.2 6.1 4 14.8 8.3 8.6 4.3 15.7 8.1 15.7 8.4 0 0.3-2.9 4.6-6.6 9.5q-6.7 9-5.8 10.2c0.5 0.6 11.1 10.4 23.6 21.7 12.6 11.3 22.8 21.2 22.8 21.8 0 0.7-1.5 6.9-6.7 26.3l14 34c7.7 18.7 14.1 34.1 14.1 34.2 0.1 0.1 10.7 1.8 47.1 7l30.5 22.7c16.8 12.4 30.6 23 30.8 23.4 0.1 0.4-2.7 2.2-6.3 3.9-3.6 1.8-6.5 3.6-6.5 4 0 0.5 3.2 1.5 14.5 3.8l24.2 42c13.3 23.1 24.3 42.3 24.3 42.7 0 0.5-4 5.5-9 11.3-5 5.8-9.3 10.2-9.8 9.9-0.4-0.3-3.9-11-14.8-46.9l-29.9-12-8.5-17.2c-4.7-9.5-8.8-17.5-9.3-17.8-0.4-0.3-4.8 1.9-9.7 4.7-5 2.9-9 5.6-9 6 0 0.5 4.2 4.7 18.5 18l-6-0.7c-6-0.8-6-0.7-5.3 1.6 0.4 1.3 1.1 4.8 1.5 7.7 0.4 2.9 0.5 5.2 0 5.2-0.4 0-7.7-8.6-16.2-19-8.5-10.4-15.5-18.2-15.5-17.3 0 1 1.4 12.2 3 24.8 1.7 12.6 3.3 23.9 3.5 25 0.3 1.1 2.3 5.1 8.4 16l8-2.8c4.5-1.5 8.1-2.4 8.1-2 0 0.5-0.9 10.5-2.1 22.3-1.2 11.8-2.3 21.7-2.5 22-0.2 0.3-0.6 0.3-0.8 0-0.2-0.3-10.7-17.4-23.4-38-12.7-20.6-23.4-38.3-23.9-39.3-0.7-1.7-0.4-1.6 4.7 0.3 3 1.1 5.6 1.9 5.8 1.8 0.1-0.2-0.5-7.7-1.4-16.8-0.9-9.1-1.8-16.7-2-17-0.3-0.3-0.8-0.1-1.3 0.5-0.5 0.5-3 6.2-5.6 12.5-2.5 6.3-4.9 11.9-5.3 12.3-0.4 0.4-3.2-2.9-6.2-7.3-3-4.4-5.7-8.1-6-8.1-0.3 0.1-2.2 1.4-4.3 3.1-2 1.6-3.9 2.9-4.2 2.7-0.3-0.1 1.1-4 2.9-8.7 1.9-4.7 3.2-8.7 2.9-9-0.3-0.3-4.9-1.3-10.2-2.2-5.3-1-9.9-1.4-10.2-1-0.4 0.4-2.3 7.7-4.4 16.2-2.1 8.5-4 15.9-4.3 16.5-0.2 0.5-2.2-4.5-8.2-23.5l-3.8-0.5c-2-0.2-6.8-0.7-17.7-1.6l0.3 4.8c0.2 2.6 0.4 6 0.5 7.5 0.1 1.5 0 2.8-0.3 2.8-0.3 0-8.3-1.4-35-6.5l-6.3-10.3c-3.4-5.6-6.5-10.2-7-10.2-0.4 0-0.5 1-0.2 2.2 0.2 1.3 3.4 14.9 7.1 30.3 3.6 15.4 6.3 28.1 6 28.2-0.3 0.2-3.5-1.5-7.1-3.7-3.6-2.2-6.7-3.9-7-3.8-0.3 0.2-5.7 17.8-12.1 39.3-6.4 21.4-12.1 39.5-12.7 40.2-0.7 0.6-10 5.3-20.7 10.3-10.7 5-19.8 9.4-20.2 9.8-0.4 0.4 2.9 2.2 7.5 4.1 4.5 1.8 8.7 3.7 9.2 4.2 0.6 0.5-1.5 2-5.3 3.6-3.4 1.5-6.3 3.3-6.2 3.8 0 0.5 0.5 2.8 1.1 5 0.6 2.2 1.9 6.9 4.9 17l7.2-1.3c4-0.7 8-1.1 8.9-1 1.4 0.3 1 3.5-3 24.9-2.5 13.6-4.8 25-5.1 25.3-0.3 0.3-3.7-2.8-14.5-14.6l-16.3 16.7-5.4-4.6c-2.9-2.6-27.4-22.4-103.6-83.4l-9.9-1.8c-5.4-1-9.9-1.7-10.1-1.5-0.2 0.2 3.5 4.8 8.2 10.3 4.9 5.8 8.2 10.5 7.8 11.2-0.4 0.6-5.9 5.5-23.7 20.6l-7-0.7c-3.9-0.3-17.1-1.1-29.5-1.7-12.4-0.6-22.8-1.4-23.2-1.7-0.4-0.4-4.6-9.2-9.3-19.7-4.7-10.5-8.5-19.7-8.5-20.5 0-0.8 3.1-12.1 6.8-25 3.8-12.9 7.6-24.6 8.4-26 0.9-1.4 4-9.3 12.3-32.9l4-0.5c2.2-0.3 8.9-0.8 26-1.8l7.2 8.4c4 4.6 9.6 10.8 12.5 13.9 2.9 3 6.7 7.1 8.4 9 1.8 1.9 4.5 4.5 6 5.9 1.6 1.4 13.2 10.9 48.9 39.6l14.5 1.7c8 0.9 14.8 1.4 15.1 0.9 0.4-0.4 2.2-6.8 4.2-14.2 1.9-7.4 3.4-13.6 3.4-13.7-0.1-0.2-4.7-0.8-10.2-1.4-5.5-0.6-10.1-1.1-10.3-1.2-0.1-0.1 1.3-4.3 3.3-9.2 1.9-5 3.5-9.5 3.5-10 0-0.6-2.1-2.1-4.7-3.4-2.8-1.5-4.2-2.6-3.3-2.8 0.8-0.2 11 1 43.5 5.8l5.4 4.7c2.9 2.6 6.9 6.1 9 7.9 2 1.8 3.9 3.2 4.3 3.3 0.5 0 7-3.4 14.5-7.6 7.6-4.2 13.9-7.8 14-8 0.2-0.2-5.6-7.8-25.7-33.4l5-9.5c2.8-5.3 4.6-9.7 4-10-0.5-0.3-8.4-0.1-34 1.5l-54.5-34.1-76 9.4-10.3-6.1c-6.8-4.2-10.4-5.8-10.7-5-0.2 0.7-0.6 4-1 13.3l-20 0.5-8-6.5c-4.4-3.6-8.2-6.5-8.5-6.5-0.3 0-4.7 4.7-9.8 10.5-5 5.8-9.8 10.3-10.5 10.1-0.6-0.2-12.2-7.6-50.2-32.5l-14.8 0.7c-8.1 0.4-14.7 0.4-14.7-0.1 0-0.4 4.3-15.8 19-67.7l-2.3-1.9c-1.2-1-5.6-4.7-9.7-8.1-4.1-3.4-7.6-6.5-7.7-6.9-0.2-0.3 1.6-1.8 4-3.3 2.3-1.5 5.5-3.8 9.9-7.3l-14.7-15.6 7.2-7.4c4.8-4.9 7.2-8.1 6.9-9.3-0.3-0.9-1.5-12.6-2.8-26-2-21.5-2.1-24.4-0.8-25.2 0.8-0.5 5.1-1.6 9.5-2.6 4.4-0.9 9.3-2.1 11-2.5 2.6-0.7 3.9-2.5 9.2-12.9 3.5-6.6 6.2-12.3 6-12.7-0.1-0.5-0.7-0.7-1.2-0.6-0.6 0.1-8.3 1.4-33.6 5.8l-33.2 46.7c-18.3 25.7-33.3 46.2-33.5 45.5-0.2-0.7 0.6-6.2 1.8-12.2 1.1-6.1 2-11.1 1.8-11.2-0.2-0.2-2.8 0-5.8 0.3-3 0.3-6 0.9-6.6 1.2-0.7 0.4-4.4 8.6-8.4 18.2-4 9.6-7.6 17.8-7.9 18.2-0.3 0.4-1.6-3.1-2.9-7.7-1.7-6.5-2.5-8.3-3.6-7.8-0.7 0.5-8.9 7.4-18.2 15.6-9.3 8.1-17.3 14.6-17.9 14.5-0.5-0.2-0.9-0.8-0.8-1.3 0.1-0.6 2.3-10.2 4.8-21.5 2.6-11.3 4.9-22.2 5.1-24.3 0.2-2.1 1.7-5.3 3.3-7.5 1.6-2 4.7-7.5 6.9-12.2 2.8-5.9 5.4-9.8 8.6-12.8 2.5-2.3 5.6-4.6 6.8-5.1 1.3-0.5 7.2-4.3 24.3-16.1l4.6 4.8c2.6 2.6 4.9 4.2 5.2 3.7 0.3-0.6-0.5-6.2-1.9-12.5-1.3-6.3-2.3-11.8-2.2-12.2 0.2-0.4 7.9-5.5 34.3-22.1l28 1.3 8-10c4.4-5.5 8.3-10 8.7-10 0.5 0 3.4 5 6.5 11.1 3.2 6.1 6.2 11.5 6.8 11.9 0.5 0.4 8.1 2.6 16.7 4.9 8.7 2.2 15.8 3.9 15.8 3.6 0-0.3-1.7-3.3-3.8-6.8-2.1-3.4-6.2-9.8-14-22.2l5.4-13c3-7.2 5.4-13.6 5.4-14.3 0-0.7-0.9-1-2.3-0.7-1.2 0.3-6.4 1.4-11.5 2.5-5 1.1-10 2-11 2-1.1 0.1-5.5-5.5-13-16.5-6.1-9.1-11.2-16.8-11.2-17.3 0-0.4 31.2-9.1 69.3-19.4 38-10.2 70-18.7 70.9-18.7zm254.8 570.9c0.6 0 18 18.3 38.8 40.8 20.8 22.4 40.6 43 44 45.7 3.9 3.1 6.5 6.1 7.1 8 0.5 1.6 9.9 24.6 21 51 11.1 26.4 20 48.4 19.9 48.9-0.2 0.5-5.3 2.7-22.3 9.2l-2.3 8.4c-1.3 4.7-3 11-3.8 14-0.9 3.2-1.8 5.1-2.3 4.5-0.5-0.5-1.7-3.2-2.7-5.8-1.1-2.6-2.1-4.8-2.4-4.8-0.3 0-2 5.3-3.8 11.8-1.8 6.5-3.4 12.3-3.6 12.8-0.1 0.5-2.2-2.6-4.7-7-2.4-4.4-4.5-8.3-4.7-8.7-0.1-0.5 3.4-5.2 7.8-10.5 4.4-5.4 7.9-10.3 7.9-10.8 0-0.5-2.7-3.1-6-5.7-3.2-2.7-6.1-4.7-6.4-4.5-0.2 0.1-3.3 7.8-13 33.8l12.7 18.7c7 10.3 12.6 18.8 12.5 18.8-0.1 0.1-4.5 3.4-9.7 7.3-5.2 3.9-9.6 7-9.7 6.9-0.1-0.2 0.9-6.2 2.2-13.3 1.4-7.1 2.5-13.5 2.5-14 0-0.5-3.7-3-8.2-5.5-4.6-2.5-8.5-4.6-8.8-4.8-0.3-0.2-7.4 7.3-15.7 16.5-8.4 9.2-15.1 17-14.9 17.3 0.2 0.3 4 7 8.5 15 4.5 8 8 14.6 7.9 14.8-0.2 0.1-7.5-3-16.3-6.8-8.8-3.9-16.2-7.1-16.5-7.1-0.3 0-8.3 4.2-17.8 9.3-11.5 6.1-17.6 8.9-18 8.2-0.4-0.7-1.6-10.1-2.7-20.9-1.1-10.9-2.3-20.2-2.7-20.9-0.5-0.8-3.3-0.5-10 1.2-5.1 1.2-9.6 1.9-9.9 1.5-0.3-0.5-1.8-11.4-6.1-47.8l-6.6-4.2c-3.7-2.4-8.2-5.2-13.2-8.3l-8.8 11.5c-4.8 6.4-8.5 11.7-8.2 11.9 0.3 0.1 7.8 5.9 16.8 12.7 8.9 6.8 16.2 12.6 16.2 12.9 0 0.3-6 3-26.5 11.5l-0.5 41.5 10.8 13.3c5.9 7.2 11.1 13.8 11.5 14.5 0.5 0.8-2.5 3.4-8.8 7.7-5.2 3.6-9.7 6.5-10 6.5-0.3 0-5.1-3.1-10.8-6.8-5.6-3.8-10.8-7.1-11.5-7.5-0.8-0.5-4.1 2.9-9.2 9.3-4.4 5.5-8.3 9.8-8.8 9.6-0.4-0.2-6.9-10.1-28.2-43.6l8.5-11.1 8.4 9.6 0.1-10.2c0-5.7-0.2-10.3-0.5-10.3-0.3 0-4.8 2.9-19.5 13l-9.1-19.7c-5-10.9-9.5-20.3-9.9-20.8-0.6-0.6-1.1-0.1-1.4 1.5-0.3 1.4-1.7 15.1-3.1 30.5-1.4 15.4-2.8 29.7-3.5 35.5l-18.2-20.7c-9.9-11.5-19.2-21.9-22.7-25.8l5.2-7.8c2.9-4.2 4.9-7.9 4.4-8.2-0.4-0.3-5.2 3.2-20.8 16l0.8 31.3c0.4 17.1 0.5 31.2 0 31.2-0.4 0-8.5-5.9-18-13.1-9.4-7.2-17.7-13.5-18.2-14-0.6-0.6 1.4-3.3 12-13.9l-3.5-19.1c-1.9-10.5-3.7-19.5-4-20.1-0.3-0.5-4.6 1.3-9.5 4-5 2.7-10.8 5.8-17 9l0.4-6.7c0.2-4.3 0-6.2-0.7-5.6-0.5 0.5-1.7 3.9-2.6 7.5-1 3.6-2.1 7.2-2.6 8-0.8 1.3-2.5 1.4-22.8-0.5l8.4-10.2c4.6-5.7 8.4-10.8 8.4-11.3 0-0.5-7 2.6-15.5 7-8.5 4.4-15.7 7.9-15.9 7.8-0.2-0.2-1.8-3.8-3.5-8-1.7-4.3-3.1-8.4-3.1-9 0-0.7 4.3-2.9 9.6-4.8 5.3-1.9 9.8-3.8 10-4.2 0.2-0.5-0.6-1-1.9-1.3-1.2-0.2-7-1-12.9-1.7-7.2-0.9-11-1-11.6-0.3-0.5 0.5-1.4 11.1-2 23.5-0.7 12.4-1.3 22.6-1.4 22.7-0.2 0.1-12.7 3.1-27.8 6.6-15.1 3.6-27.7 6.3-28 6.1-0.3-0.2 1.6-6.4 4.2-13.7 2.7-7.2 4.8-13.5 4.8-13.9 0-0.5-4.2-3.3-9.3-6.4-5-3.1-9.3-5.7-9.4-5.8-0.2 0-0.6-5.8-1-12.8-0.5-6.9-1.2-13-1.7-13.5-0.4-0.4-5.2-1.6-10.5-2.6q-7.9-1.5-20.1-3.7l14.6-11.7c8-6.5 14-11.9 13.2-12.1-0.7-0.2-6.4 0.7-12.5 2-6.7 1.4-11.3 1.9-11.3 1.3 0-0.5 1.6-7.1 7.1-28l-5.5-5.5c-3.1-3-5.6-5.7-5.6-6 0-0.3 4.7 0.7 10.3 2.2 5.6 1.6 10.9 2.8 11.7 2.8 1 0 3.1-4 6-11.1 2.5-6.1 4.9-11.4 5.4-11.7 0.6-0.4 0.7 1.5 0.3 4.8-0.4 3-1 8.3-2.2 18h32.5l-5.5 8c-3 4.4-5.3 8.1-5 8.3 0.2 0.1 10.2-2.5 22.2-5.9 12-3.3 21.9-6 22.1-6 0.1 0.1-3.9 7.5-8.9 16.6-5 9.1-9.3 17.1-9.5 17.8-0.2 0.6 3.5 4.4 17.1 15.5l7.5-0.7c4.1-0.3 8.7-0.6 13-0.6l-0.5-15.3 16-7.4c8.8-4 16.2-7.3 16.5-7.3 0.3 0 2.4 9.8 4.7 21.8 2.3 11.9 4.1 21.8 4 22-0.1 0.1-3.4-0.3-7.2-0.8-3.9-0.6-7.1-1-7.3-0.8-0.1 0.2-0.1 3.5 0.3 14.5l23-8.5 4.7-19.8c2.6-11 4.9-20.3 5-20.8 0.2-0.5 5.9 5 12.8 12.3 6.9 7.2 12.6 13 12.7 12.9 0.2-0.2 1.8-6.2 3.8-13.3 1.9-7.1 3.5-13.7 3.4-14.5 0-0.8-3-3.7-6.6-6.5-3.6-2.7-6.8-5.5-7-6-0.2-0.5 1.4-4.1 3.6-8 2.2-3.9 4.1-7.6 4.1-8.2 0-0.8-0.8-1.1-2.3-0.8-1.2 0.3-15.9 3.2-32.7 6.4-16.8 3.3-30.7 5.7-31 5.4-0.3-0.2 0.6-8.8 2-19 1.6-12.3 2.9-18.8 3.7-19 0.8-0.2 2.9 3.1 8.8 15.8l39.5-36.1 8.7 5.1c4.9 2.8 10.9 6.4 13.5 8 4.5 2.7 4.9 2.8 6.2 1.2 0.8-1 2.3-3.5 3.3-5.6 1-2.1 2-3.8 2.3-3.7 0.3 0 3.4 4.3 7 9.5 3.6 5.3 6.6 9.5 6.7 9.5 0.2 0 3.7-2.7 15.3-12l0.8 3.3c0.5 1.7 2.6 10.1 4.8 18.5 2.1 8.3 4.3 15.1 4.9 14.9 0.5-0.2 4.8-7.2 9.5-15.5 4.7-8.3 8.6-14.9 8.7-14.7 0.2 0.3-0.5 2.4-3.4 9l14.7 13.5 6-5.5c3.3-3 6.3-5.5 6.7-5.5 0.5 0 1.1 5.3 1.6 11.7 0.4 6.5 1.1 15.6 2.2 28.6l4.2 2.8c2.4 1.6 4.6 2.6 5 2.3 0.5-0.3 0.9-3.5 1-7 0.2-3.5 0.8-6.4 1.3-6.4 0.5 0 2.8 5.7 4.9 12.8 2.2 7 4.5 14.6 5.3 17 0.7 2.3 1.8 4.2 2.3 4.2 0.5 0 3.4-1.4 11.5-6l-10-28 5.5-8c3-4.4 5.7-7.9 6-7.7 0.3 0.1 1.6 6.3 3 13.7 1.4 7.4 2.8 13.7 3.2 14 0.3 0.3 4.9 1.3 10.2 2.2 5.3 1 9.7 1.6 9.9 1.5 0.2-0.1-1.8-8.5-4.4-18.7-2.6-10.2-5-18.8-5.3-19.2-0.3-0.4-2.6-0.3-5.1 0.3-2.5 0.5-4.8 0.8-5.1 0.7-0.4-0.2 0.6-4.6 2.2-9.8 1.6-5.2 3-9.6 3.2-9.8 0.1-0.1 4.9-0.7 10.7-1.4 5.8-0.6 10.6-1.3 10.7-1.5 0.2-0.1-3.6-7.8-16.9-33.8l3.1-4c1.7-2.2 3.6-4.9 4.2-6 0.8-1.6-0.1-4.9-4.5-16.3-3.1-7.8-5.3-14.2-4.9-14.2 0.5 0 16.4 8 35.5 17.8 19.1 9.7 34.7 17.4 34.8 16.9 0-0.4-6.5-8.6-14.5-18.2-12-14.4-14.1-17.5-12.3-17.5 1.3 0 11.1 1.7 21.9 3.8 10.9 2 20 3.9 20.3 4.2 0.4 0.3-0.3 5.3-1.4 11.3-1.1 5.9-2 10.9-2 11.2 0 0.3 4.7 0.5 10.3 0.5 5.7 0 10.6-0.2 10.8-0.5 0.2-0.3-4.7-16.4-11-35.7-6.2-19.4-11.8-35.6-12.5-36-0.6-0.4-3.8-0.8-7.1-0.8-3.3 0-6.7-0.4-7.5-0.9-1.1-0.7 0.9-2.1 17.5-10.6l0.3-12.2c0.1-7.1 0.7-12.3 1.2-12.3zm-332 107.3c1.4 0.3 8.8 2.2 16.5 4.2 7.7 2 14.4 4 14.8 4.4 0.5 0.3-1.2 4.3-3.7 8.9-2.5 4.5-4.6 8.4-4.6 8.7 0 0.3 0.6 0.3 1.2 0.1 0.7-0.2 5.3-0.7 10.3-1.1 4.9-0.3 8.6-0.2 8.2 0.2-0.5 0.4-8.1 3.6-33.2 13.2l-8-3.4c-4.4-1.9-9.8-4.1-12-5-2.2-0.9-3.8-1.8-3.5-2.1 0.3-0.2 6.2 0.3 13.2 1.1 7.1 0.8 13.2 1.3 13.8 1 0.5-0.3 1-3.6 1-14.5l-3.8-0.9c-2-0.6-9.3-2.4-16.2-4.1-6.9-1.7-13.2-3.3-14-3.6-1.3-0.5-1.3-0.6 0-1.3 0.8-0.4 4.6-1.6 8.5-2.6 3.8-1 7.4-2.2 8-2.7 0.5-0.5 2.1-0.7 3.5-0.5zm245.7 253.8c0.7 0 1.3 0.1 1.3 0.4 0 0.3-1.3 3.3-3 6.7-1.6 3.5-3 6.9-3 7.5 0 0.7-0.6 1.3-1.3 1.3-0.6 0-3.1-2.8-5.4-6.3-2.4-3.4-4.2-6.3-4-6.4 0.1-0.1 3.3-0.9 7.2-1.7 3.9-0.7 7.6-1.4 8.2-1.5zm-153.5 9.1c0.4 0.2 5.5 7.2 21.8 30.8l-5.3 2.6c-4.8 2.4-5.4 2.5-7.7 1.1-1.4-0.8-4.9-2.3-7.9-3.3-5.3-1.9-5.3-1.9-4.8-5.4 0.3-1.9 1.2-8.6 1.9-14.8 0.7-6.2 1.6-11.1 2-11z"
       style="fill:#ffffff;opacity:0.99999999" />
    <path
       id="Path 3"
       class="s0"
       d="m119.6 272.6c-0.5 0.3-0.5 5.6-0.1 11.7 0.4 6.2 0.8 11.3 0.9 11.5 0 0.2 3.3-0.6 7.1-1.8 3.9-1.3 7.4-2.5 7.8-2.9 0.5-0.3-1.9-4-5.4-8.1-3.4-4.1-6.9-8.3-7.8-9.3-0.9-1-2-1.5-2.5-1.1zm-65.9 83.1l-8.9 8.8c1.8 8.5 2.7 11.6 3 12.4 0.5 1 3.8-0.6 12.9-6l12.2-7.4c-4.6-7.8-6.8-11.5-7.7-13.3-0.9-1.8-1.9-3.2-2.2-3.2-0.3 0-4.5 3.9-9.3 8.7zm2.8 26.4c-8.2 6.6-14.9 12.4-14.7 12.9 0.1 0.6 6.2 8.6 13.5 17.9 7.2 9.3 13.3 16.8 13.4 16.7 0.1 0 1.1-11.1 2.2-24.6 1.1-13.5 2.3-26.9 2.5-29.8 0.3-3.5 0-5.2-0.7-5.1-0.7 0-7.9 5.4-16.2 12zm553.7 47.1c0 2.9 0.3 6.3 0.6 7.5 0.7 2.2 1 2 6.9-3.2 3.5-3 6.1-5.8 5.9-6.3-0.2-0.4-2.1-1.1-4.2-1.5-2.2-0.4-5.1-1-6.6-1.3-2.6-0.5-2.6-0.5-2.6 4.8zm46.1 1.5l-3.1 5.8c15.7 10.5 20.4 13.2 20.6 12.7 0.2-0.4-2.8-6-6.6-12.5-3.7-6.4-7-11.7-7.3-11.7-0.2 0-1.8 2.6-3.6 5.7zm-71.9 54.1c-1.7 7.5-3 13.8-3 14 0.1 0.1 3.4-1 7.4-2.5 3.9-1.6 7.2-3.3 7.2-3.8 0-0.6-1.5-5.5-3.3-11-1.9-5.5-3.8-10.1-4.3-10.2-0.5-0.2-2.3 5.9-4 13.5zm-6.8 18.4c-0.3 1.8-0.6 4.1-0.6 5 0 1 0.5 1.8 1 1.8 0.5 0 0.8-0.6 0.6-1.3-0.3-0.6-0.1-1.7 0.3-2.2 0.5-0.6 1-2.2 1.2-3.8 0.2-1.6-0.1-2.7-0.7-2.7-0.7 0-1.5 1.5-1.8 3.2zm10 8.6c-1.5 5.3-2.6 9.8-2.4 9.8 0.2 0.1 3.4 1.1 7.3 2.2 3.8 1.2 7.2 1.9 7.5 1.6 0.3-0.2-1.5-5.4-4-11.5-2.5-6.1-4.8-11.3-5.1-11.5-0.3-0.2-1.8 4-3.3 9.4zm140.5-6.1c-0.5 1-2.7 5.7-5 10.5l-4.1 8.8 13.5 8.9 6.5-11.9c-7-14-9.2-18-9.5-18-0.2 0-0.9 0.8-1.4 1.7zm-662.6 18.4c0.3 1.9 0.9 5.3 1.3 7.7 0.4 2.3 1 4.2 1.5 4.2 0.4 0 2-2.8 3.7-6.3 1.6-3.4 2.6-6.5 2.2-6.8-0.4-0.4-2.6-1-5-1.4l-4.3-0.7zm11.2 22.6c-4.7 9.4-5.6 12-4.5 12.8 0.7 0.6 4.7 3 8.8 5.2l7.5 4 15.7-14.3c-7.9-9.7-10.3-12.5-10.4-12.5-0.2 0-2.7 3.3-5.5 7.5-2.9 4.1-5.5 7.4-5.9 7.3-0.3-0.2-0.1-4.7 0.5-10.2 0.5-5.4 0.7-10.3 0.3-10.7-0.4-0.5-3.3 4.5-6.5 10.9zm722.4 60.9c-0.7 3.2-1.4 6.8-1.7 8.1-0.2 1.3 0.1 2.3 0.9 2.3 0.6 0 6.2 0.6 12.2 1.4 6.1 0.7 11.3 1 11.7 0.7 0.3-0.4-4.1-4.5-9.9-9.2-5.8-4.6-10.9-8.6-11.3-8.8-0.4-0.1-1.2 2.3-1.9 5.5zm-264.7 20.4c-0.6 0.8-2.5 7.2-4.2 14.2-1.8 7-3.2 13-3.2 13.2 0 0.3 2.7 0.5 6 0.5h6c-0.1-5-0.9-11.6-1.9-17.9-1.3-8.4-2-11-2.7-10zm-432.9 22.2c-0.2 1.2-1.7 11.1-3.2 22-1.6 10.8-2.5 19.7-2 19.7 0.4 0 1.8-2.7 3.2-6l2.5-6 19.7 10.5c11.9-10.4 15.3-13.8 15.3-14.2 0-0.4-3-2.6-6.7-4.8-3.6-2.2-6.7-4.4-6.9-5-0.1-0.5 1.7-2.5 4.1-4.5 2.4-1.9 4.4-3.7 4.5-4 0-0.2-6.4-2.6-14.2-5.2-7.9-2.6-14.6-4.8-15-4.8-0.4 0-1 1-1.3 2.3zm39.5 70.5c0 0.4 0.9 3.4 2 6.7 1.1 3.3 2.2 6.6 2.5 7.3 0.3 0.7 3.1-1.4 7-5.5 3.5-3.7 6.1-7 5.7-7.4-0.4-0.3-4.4-0.9-9-1.2-4.5-0.3-8.3-0.3-8.2 0.1zm-18.5 116.6c-5 4.6-8.5 8.5-8 8.8 0.6 0.3 4.7 0 9.1-0.6l8.2-1.1c1-10.7 0.9-14.2 0.4-14.6-0.4-0.4-4.8 3-9.7 7.5zm267.8 109.9c-2.8 2.3-5 4.6-4.7 5 0.2 0.4 4.2 0.7 8.9 0.7 4.7 0 8.7-0.3 8.9-0.7 0.3-0.4-1.1-2.7-3-5-1.9-2.4-3.7-4.2-4.1-4.2-0.5 0-3.1 1.9-6 4.2z"
       style="fill:#000000;opacity:1" />
    <path
       id="Path 4"
       class="s1"
       d="m420 395.7c-5.3 0.4-5.6 0.6-8 4.6-1.4 2.3-2.6 4.4-2.8 4.7-0.1 0.3 2.8 1.1 6.5 1.8 3.8 0.7 7 1 7.3 0.7 0.3-0.3-1.1-1.1-3-1.9l-3.5-1.3c12.8-4.9 17.1-6.3 17.8-6.3 0.6 0 5.4 1.6 10.4 3.5 5.1 1.9 9 3.8 8.7 4.3-0.3 0.4-3.1 1.4-6.2 2.3-3.1 0.9-5.8 2-6 2.5-0.1 0.5 9 2.7 20.3 4.9 11.2 2.2 20.7 3.7 21 3.3 0.3-0.5-3.4-6-8.3-12.3l-8.7-11.5c-31 0.3-42.5 0.5-45.5 0.7zm66.5 28.9c-3 1.5-4.6 2.9-4 3.4 0.5 0.4 4.7 2.2 9.3 3.9 4.5 1.7 8.6 3 9.1 2.9 0.6-0.2-1-3.1-3.5-6.5-2.4-3.5-4.7-6.3-5.2-6.3-0.4 0.1-3 1.2-5.7 2.6zm-246.1 7.6c-9.3 1.6-17.6 3.1-18.4 3.4-0.8 0.2-1.3 0.6-1 0.9 0.3 0.2 9.5 1.3 20.5 2.4 11 1.1 20.1 1.9 20.3 1.8 0.2-0.1-0.4-2.6-1.2-5.4-0.9-2.9-2-5.4-2.5-5.6-0.5-0.2-8.4 0.9-17.7 2.5zm11.6 120.1c-5.8 5.9-10.3 10.7-10 10.7 0.3 0 5 0.9 10.5 2 5.5 1.1 10.1 1.9 10.2 1.7 0.2-0.1 0.2-5.8 0-12.7l-0.3-12.4zm455.8 48.9c-2.7 5.1-4.5 9.6-4 9.9 0.4 0.4 6.7 2.7 14 5.3l13.3 4.6c2.4-5.8 3.3-8.6 3.6-10 0.5-2.2-0.7-3.5-10-10.8-5.9-4.5-11-8.2-11.4-8.2-0.4 0-2.9 4.2-5.5 9.2zm-403.3-4c-4.8 1.6-8.8 3.3-8.7 3.6 0.2 0.4 5.2 1.6 11.2 2.7 6.1 1.1 11 1.8 11 1.5 0.1-0.3-0.7-2.6-1.7-5.2-1-2.5-2-4.8-2.3-5.1-0.3-0.2-4.6 0.9-9.5 2.5zm129.3 1.9c-0.4 1.3-1.6 9.6-2.8 18.4l-2 16c11.3 11.2 14.8 14.2 15.1 14 0.2-0.2-1.7-11.5-4.3-25.2-2.6-13.6-4.8-25-5-25.2-0.2-0.2-0.6 0.7-1 2zm18.1 42.8c-0.2 3.4-0.3 6.7-0.3 7.3 0 0.9 2.6 1.5 8 2 4.4 0.3 8.3 0.3 8.7 0 0.4-0.4-2.1-3.2-5.5-6.2-3.4-3-7.1-6.3-8.3-7.3l-2.2-1.9zm-13.2 122.4c-0.3 1.2-1.5 7.4-2.6 13.7-1.2 6.3-2.4 12.2-2.6 13-0.4 1.1 1.9 2.5 8.3 5.3 4.8 2 8.8 3.6 8.9 3.5 0.2-0.2-2-8.7-4.7-19-2.8-10.3-5.4-18.8-5.9-18.8-0.5 0-1.1 1-1.4 2.3zm-45.9 23.7l-5.8 9 5.4 7.5c5.9-18.6 7.6-24.3 7.6-24.7 0-0.4-0.3-0.8-0.7-0.8-0.4 0-3.4 4.1-6.5 9zm104 40.3c-0.1 3.1-0.3 7-0.3 8.5 0 2.7 0.1 2.7 8 3.4 4.4 0.4 8.4 0.4 8.8 0 0.4-0.4-3.1-4.5-7.8-9.2l-8.5-8.5zm90 27.9c-0.3 0.8-1.7 7.2-3 14.4-1.4 7.1-2.4 13.1-2.4 13.1 0.1 0.1 4.5-1.6 9.7-3.7 5.2-2.2 9.8-4.3 10.2-4.7 0.4-0.4-2.5-5.2-6.6-10.6-4.7-6.3-7.5-9.4-7.9-8.5zm-86.7 25.6c0 1 0.7 8.5 1.6 16.8 0.9 8.2 1.9 15.3 2.3 15.8 0.3 0.4 3.6 1.3 7.3 2 6.3 1.1 6.7 1.1 7.2-0.8 0.3-1.1 0.6-4.8 0.6-8.3 0-3.4-0.1-6.2-0.3-6.2-0.1 0-3.6 1.1-7.7 2.4-4.1 1.4-7.6 2.4-7.6 2.3-0.1-0.1 1.8-5.1 4.2-11l4.4-10.7c-8.5-3.1-11.2-4-11.5-4-0.3 0-0.5 0.8-0.5 1.7z"
       style="fill:#808080;opacity:1" />
    <path
       id="Path 5"
       class="s2"
       d="m111 324.6c-10.7 9.1-20.3 17.3-21.3 18.2-1.6 1.6-1.2 1.9 9 4.9 6 1.8 11.1 2.9 11.5 2.5 0.3-0.4 5.4-9.7 11.2-20.7 5.8-11 10.6-20.3 10.6-20.8 0-0.4-0.3-0.7-0.7-0.6-0.5 0-9.6 7.4-20.3 16.5zm-18.7 70.4c-2.8 5.2-6.5 12.3-8.2 15.7-1.7 3.5-2.9 6.5-2.6 6.8 0.3 0.3 6.5-3.2 13.8-7.7 7.2-4.5 13.4-8.3 13.7-8.4 0.3-0.2-1.5-2.9-4-6-2.5-3-5.2-6.5-6.1-7.7-1.6-2.1-1.7-2-6.6 7.3zm535.9 0.7l0.3 9.8c9.3 1.8 13.2 2.6 14.8 2.9 2.2 0.5 2.6 0.3 2.1-1.2-0.3-0.9-3.9-6.1-8-11.5-4.1-5.3-7.9-9.7-8.4-9.7-0.7 0-1 3.5-0.8 9.7zm46.8-0.7c-4.1 3.3-7.6 6.3-7.8 6.7-0.1 0.4 3.3 3.8 7.8 7.5l8 6.8c0-5.8 0.3-11.9 0.6-17.3 0.3-5.3 0.2-9.7-0.3-9.7-0.4 0.1-4.2 2.7-8.3 6zm-250.5 6.2l-8 3.1c4.7 1.8 9.4 3.3 13.5 4.6l7.5 2.2c10.1-3.2 13.6-4.1 14.3-4.1 0.6 0 1.4-0.5 1.7-1 0.3-0.6-3.7-2.6-8.7-4.5-5.1-1.9-10-3.5-10.8-3.4-0.8 0-5.1 1.4-9.5 3.1zm-329.8 78.9c-0.4 0.8-1.6 6.6-2.7 12.9-1.2 6.3-2 11.9-1.8 12.4 0.2 0.5 2.9-2.6 6.1-6.8 3.1-4.2 5.9-8.2 6.2-8.9 0.3-0.6-1.2-3.4-3.4-6.1-2.6-3.2-4-4.4-4.4-3.5zm682.9 10.6l-3.6 7.8c16.7 4.8 21.6 6 21.8 5.8 0.1-0.2-2.9-5-6.8-10.8-3.8-5.8-7.2-10.5-7.4-10.5-0.2 0-2 3.5-4 7.7zm-542.1 0.9l-21 7.4c-10.1-7.8-13.2-9.8-13.5-9.5-0.3 0.3 1 3.8 2.9 7.8 3.3 6.9 3.3 7.2 1.5 8.5-1 0.7-5.6 4.2-10.1 7.7l-8.3 6.5c17.9 19.2 22.2 23.1 23.5 23 1.1-0.1 6.1-0.9 11.1-1.8l9.1-1.7c14.6-13.4 24.2-22.5 30.8-28.7l12-11.5c-10.8-11.9-14.7-15.3-15.5-15.2-0.8 0.1-10.9 3.4-22.5 7.5zm155.4 61.9c-5.1 5.7-9.1 10.8-9.1 11.2 0.1 0.4 7.7 1.8 16.9 3.1 9.3 1.3 18.3 2.5 20.1 2.8 1.7 0.2 3.2 0.1 3.2-0.4 0-0.4-5-6.6-11-13.9l-10.9-13.2zm-286.9 7.4c-2.9 4.6-4.1 7.5-3.5 8 0.6 0.5 4.4 2.3 8.5 4 4.1 1.7 7.6 3 7.8 2.8 0.1-0.1-1.4-4.7-3.4-10.2-2-5.5-3.9-10.4-4.3-10.9-0.4-0.4-2.7 2.4-5.1 6.3zm-13.5 29c-11.5 4.3-21.1 8.2-21.2 8.7-0.2 0.5 7.5 1.5 17 2.2 9.4 0.7 17.5 0.9 17.8 0.5 0.3-0.5 1.4-2.9 2.4-5.3 0.9-2.5 2.5-6.7 3.5-9.3 1-2.6 1.7-4.7 1.6-4.7 0 0.1-9.5 3.6-21.1 7.9zm471.6-0.7c-1.2 4-2.1 7.4-1.9 7.5 0.2 0.2 3.2 0.9 6.8 1.7 3.6 0.8 6.6 1.3 6.8 1.2 0.2-0.1-1.4-4.1-3.5-8.9-2.1-4.8-4.3-8.7-4.9-8.7-0.6 0-2.1 3.2-3.3 7.2zm18.3 4.8c-3.2 3.3-5.7 6.1-5.4 6.3 0.3 0.2 3.3 1.8 6.8 3.6l6.2 3.1c0.2-13.9-0.2-18.1-0.8-18.4-0.5-0.3-3.6 2.1-6.8 5.4zm-25.4 27c0 11.9 0 12 2.3 11.5 1.2-0.2 4.6-0.9 7.5-1.5 4.3-0.8 5.1-1.3 4.6-2.8-0.3-0.9-3.3-5.7-6.7-10.5-3.4-4.8-6.5-8.8-6.9-8.8-0.5 0.1-0.8 5.5-0.8 12.1zm-68.3 95.2l-5.6 7.3c8.8 4.5 13.8 6.8 16.7 8.1l5.2 2.4c-2.9-7.4-5-12.7-6.5-16.5-1.5-3.9-3.1-7.4-3.4-7.8-0.4-0.5-3.2 2.5-6.4 6.5zm-269.9 7.1c-9.8 1.8-17.4 3.5-17 3.8 0.4 0.4 8.1 4.1 17.2 8.3 9.1 4.2 17.1 7.6 17.8 7.6 0.6 0-1-3-3.8-6.5-2.7-3.6-5-6.8-5-7 0-0.3 2.7-2.2 6-4.3 3.3-2 6-4.1 6-4.5 0-0.4-0.8-0.7-1.7-0.6-1 0-9.8 1.5-19.5 3.2zm59 18.9c0.1 0.4 2.3 7.9 4.7 16.5 2.5 8.7 4.8 16 5 16.3 0.2 0.2 0.6-2.2 0.9-5.5 0.3-3.3 0.8-10.5 1.2-16l0.6-10c-9.8-1.7-12.6-1.8-12.4-1.3zm-16.7 34.2c0 8.5 0.3 13.6 0.9 13.6 0.6 0 3.3-3.6 6-8 2.8-4.4 5-8.4 5-8.8 0.1-0.4-2.1-2.6-4.7-4.8-2.6-2.2-5.3-4.4-5.9-4.8-0.9-0.6-1.2 2.9-1.3 12.8zm288.9 131.8c-0.6 2.4-2.1 7.8-3.3 12-1.5 5.1-1.9 8.1-1.2 8.7 0.6 0.5 4.4 2.8 8.5 5 4.1 2.3 7.6 4 7.7 3.8 0.1-0.1-1.8-7.8-4.2-17-2.5-9.2-4.9-16.7-5.5-16.7-0.5 0-1.4 1.9-2 4.2zm-379.8 14.6c-4.6 2-8.3 4.1-8.1 4.7 0.1 0.5 5.6 2.9 12.3 5.2 6.7 2.3 12.4 4.1 12.8 4 0.4-0.1-0.8-4.1-2.6-8.7-1.8-4.7-3.9-8.6-4.7-8.7-0.8-0.1-5.1 1.5-9.7 3.5zm257.7 11.1l-10.4 9.8c20.9 4 27.1 5.1 27.2 5 0.1-0.1-1.2-5.6-2.8-12.2-1.7-6.6-3.2-12.1-3.3-12.2-0.1 0-4.9 4.3-10.7 9.6zm-187.7-0.2c-1.3 4.3-2.2 7.8-2 7.9 0.2 0.1 4-1.3 8.6-3 4.5-1.7 8.2-3.4 8.3-3.6 0-0.3-1.7-1.7-3.8-3.1-2.1-1.4-4.9-3.4-6.3-4.3l-2.6-1.7zm39.9 10.6c-0.4 1.2-2.2 5.8-3.9 10.2-1.7 4.4-2.8 8.1-2.6 8.3 0.3 0.1 4.7-2.1 9.7-4.9l9.3-5.1c15.1 15.3 19.7 19.5 20 19.2 0.3-0.3-0.6-4.8-2.1-10-1.4-5.2-2.9-9.8-3.3-10.2-0.3-0.5-6.4-2.8-13.4-5.3l-12.8-4.5zm-60.9 14c-1.7 4-3 7.4-2.9 7.6 0.2 0.1 3.9-0.8 8.3-2 4.4-1.2 8.2-2.3 8.5-2.5 0.2-0.2-1.8-2.6-4.5-5.4-2.8-2.7-5.3-5-5.6-4.9-0.4 0-2 3.2-3.8 7.2z"
       style="fill:#ffffff;opacity:1" />
  </g>
</svg>
