<?xml version="1.0" encoding="UTF-8" standalone="no"?>
<svg
   version="1.2"
   viewBox="0 0 1220 1500"
   width="1220"
   height="1500"
   id="svg1"
   sodipodi:docname="marxy.svg"
   inkscape:version="1.4 (86a8ad7, 2024-10-11)"
   xmlns:inkscape="http://www.inkscape.org/namespaces/inkscape"
   xmlns:sodipodi="http://sodipodi.sourceforge.net/DTD/sodipodi-0.dtd"
   xmlns="http://www.w3.org/2000/svg"
   xmlns:svg="http://www.w3.org/2000/svg">
  <defs
     id="defs1" />
  <sodipodi:namedview
     id="namedview1"
     pagecolor="#505050"
     bordercolor="#eeeeee"
     borderopacity="1"
     inkscape:showpageshadow="0"
     inkscape:pageopacity="0"
     inkscape:pagecheckerboard="0"
     inkscape:deskcolor="#505050"
     inkscape:zoom="0.55"
     inkscape:cx="610.90909"
     inkscape:cy="750"
     inkscape:window-width="1920"
     inkscape:window-height="1027"
     inkscape:window-x="1912"
     inkscape:window-y="-8"
     inkscape:window-maximized="1"
     inkscape:current-layer="svg1" />
  <title
     id="title1">marxy</title>
  <style
     id="style1">
		tspan { white-space:pre }
		.shp0 { fill: #ffffff } 
		.shp1 { opacity: 0.984;fill: #7f7f7f } 
		.shp2 { fill: #000000 } 
		.shp3 { fill: #7f7f7f } 
	</style>
  <g
     id="Background">
    <path
       id="Path 0"
       class="shp0"
       d="M517 2.55C507.38 3.84 475.2 7.88 445.5 11.53L391.5 18.17C334.15 45.07 304.68 59 289 66.49C273.32 73.97 255.53 82.44 249.46 85.3L238.41 90.5C217.27 117.63 205.32 132.93 198.21 142L185.29 158.5C191.28 191.05 193.13 200.6 193.26 200.72C193.39 200.84 202.62 202.64 213.76 204.72C224.91 206.8 234.03 208.72 234.04 209C234.05 209.28 223.76 230.88 211.18 257C198.59 283.13 177.39 327.23 164.06 355C150.72 382.77 140.2 405.77 140.66 406.1C141.12 406.44 145.55 410.27 150.5 414.63C155.45 418.98 161.97 424.64 165 427.2L170.5 431.86C186.92 419.96 194.8 414.27 198.6 411.55C202.39 408.82 212.59 401.51 221.25 395.3C229.91 389.08 237.23 384.11 237.51 384.25C237.8 384.39 235.28 399.35 231.93 417.5C226.14 448.76 225.85 451.07 226.41 461.25C226.88 469.81 227.47 472.87 229.3 476.25C230.56 478.59 239.64 494.68 249.48 512C259.31 529.33 267.49 544.17 267.65 545C267.83 545.89 261.63 552 252.43 560C243.89 567.42 236.48 574.06 235.96 574.75C235.27 575.64 239.29 581.44 250 595C264.01 612.74 265.18 613.96 267.75 613.46C269.26 613.16 284.9 610.5 302.5 607.55L334.5 602.19C345.35 605.75 358.85 610.03 371.5 613.98C384.15 617.94 401.02 623.21 409 625.69C416.98 628.17 430.48 632.46 439 635.23L454.5 640.26C597.1 643.86 655.15 645.8 675.5 646.9C695.85 647.99 723.08 649.42 736 650.06L759.5 651.24C814.91 640.2 831.45 637 832 637C832.62 637 833.01 642.43 833.01 651.25C833.03 664.15 833.22 665.74 835.09 668C836.22 669.38 844.72 688.27 853.98 710C863.24 731.73 870.75 749.56 870.66 749.63C870.57 749.71 859.48 749.35 846 748.84C828.22 748.17 820.95 748.22 819.5 749.03C818 749.87 814.13 749.76 804 748.6C796.58 747.75 785.1 746.73 778.5 746.35L766.5 745.65C756.42 750.78 736.63 761.01 716 771.7C695.38 782.39 677.94 790.88 677.25 790.57C676.56 790.26 660.36 777.94 641.25 763.19C622.14 748.45 602.67 733.41 598 729.78L589.5 723.17C570.13 720.6 564.41 719.78 564.3 719.68C564.2 719.58 559.91 712.75 554.78 704.5L545.46 689.5L515.5 674.13C477.84 711.44 477.23 711.94 462.5 720.49C454.25 725.29 445.02 730.68 442 732.49C438.98 734.29 421.65 744.43 403.5 755.03C385.35 765.62 369.82 774.74 369 775.29C367.93 776.01 346.08 772.02 292 761.24C250.47 752.95 216.37 746.25 216.21 746.34C216.05 746.43 226.81 800.05 240.13 865.5C253.45 930.95 264.38 984.58 264.42 984.67C264.47 984.77 277.21 986.46 292.75 988.42C308.29 990.39 322.13 992 323.5 992C324.88 992 344.79 982.21 367.75 970.25C390.71 958.28 410.24 948.04 411.13 947.5C412.03 946.95 419.57 932.89 427.88 916.25L443 886C460.44 897.94 471.57 905.64 479 910.82L492.5 920.22C504.9 919.31 525.6 917.69 546.5 916.03C567.4 914.36 585.17 913 586 913C587.27 913 587.69 917.65 588.78 943.75C589.49 960.66 590.39 979.33 590.78 985.23L591.5 995.95C599.25 997.6 609.6 999.62 619.5 1001.49C629.4 1003.37 649.42 1007.19 664 1009.98L690.5 1015.07C709.49 1009.59 715.11 1008.01 715.25 1008.03C715.39 1008.05 714.04 1013.34 712.25 1019.78C710.45 1026.23 708.98 1032.17 708.98 1033C708.97 1033.83 710.43 1035.96 712.23 1037.73C714.03 1039.51 715.84 1040.98 716.25 1040.98C716.66 1040.99 726.34 1033.26 737.75 1023.81C749.16 1014.35 768.85 998.06 781.5 987.6C794.15 977.14 809.34 964.63 815.25 959.79C821.16 954.96 826.2 950.21 826.45 949.25C826.69 948.29 832.75 927.25 839.9 902.5C847.06 877.75 859.62 834.33 867.82 806L882.72 754.5L924.5 753.95C935.71 723.38 938.97 713.6 938.97 712.5C938.98 711.4 936.54 697.45 933.56 681.5C930.58 665.55 927.83 651.6 927.45 650.5C927.07 649.4 919.5 631.51 910.63 610.74C901.76 589.97 894.73 572.8 895 572.57C895.27 572.34 903.54 571.33 913.36 570.33C926.89 568.94 931.4 568.14 931.96 567C932.38 566.17 937.57 543.67 943.51 517C949.44 490.32 954.57 468.12 954.9 467.65C955.23 467.18 962.92 470.92 972 475.95C981.08 480.99 996.15 488.47 1005.5 492.59C1014.85 496.7 1022.63 499.94 1022.78 499.78C1022.93 499.63 1019.86 491.4 1015.95 481.5C1012.04 471.6 1008.54 463.16 1008.17 462.75C1007.8 462.34 1003.9 466.28 999.5 471.52C995.1 476.76 991.38 480.93 991.24 480.77C991.09 480.62 1001.58 458.45 1014.55 431.5L1038.13 382.5C1002.1 302.68 990.15 276.24 988.32 272.25L985 265C990.04 258.41 994.31 252.56 997.75 247.75C1001.19 242.94 1003.89 238.84 1003.75 238.64C1003.61 238.45 987.52 229.85 968 219.55C948.48 209.25 932.4 200.75 932.29 200.66C932.17 200.57 927.86 182.72 922.7 161L913.34 121.5C879.36 120.48 837.77 119.69 799 119.08C760.23 118.48 720.74 117.76 711.25 117.49L694 117L694 49C699.04 47.62 712.65 43.59 727.5 39.15C742.35 34.72 757.88 30.08 762 28.85C767.91 27.09 769.08 26.45 767.5 25.82C766.4 25.39 742.89 19.4 715.25 12.52L665 0C537.31 0.21 533.75 0.31 517 2.55Z"
       style="fill:#ffffff;opacity:1" />
    <path
       id="Path 1"
       class="shp1"
       d="M762 28.67C757.88 30.02 742.35 34.74 727.5 39.17C712.65 43.59 699.04 47.62 697.25 48.11L694 49L694 117C720.74 117.76 760.23 118.48 799 119.08C837.77 119.69 879.36 120.48 891.42 120.84L913.34 121.5C927.86 182.72 932.17 200.57 932.29 200.66C932.4 200.75 948.48 209.25 968 219.55C987.52 229.85 1003.61 238.45 1003.75 238.64C1003.89 238.84 1001.19 242.94 997.75 247.75C994.31 252.56 990.04 258.41 988.25 260.75L985 265C990.15 276.24 1002.1 302.68 1014.88 331L1038.13 382.5C1001.58 458.45 991.09 480.62 991.24 480.77C991.38 480.93 995.1 476.76 999.5 471.52C1003.9 466.28 1007.8 462.34 1008.17 462.75C1008.54 463.16 1012.04 471.6 1015.95 481.5C1019.86 491.4 1022.93 499.63 1022.78 499.78C1022.63 499.94 1014.85 496.7 1005.5 492.59C996.15 488.47 981.08 480.99 972 475.95C962.92 470.92 955.23 467.18 954.9 467.65C954.57 468.12 949.44 490.32 943.51 517C937.57 543.67 932.38 566.17 931.96 567C931.4 568.14 926.89 568.94 913.36 570.33C903.54 571.33 895.27 572.34 895 572.57C894.73 572.79 900.07 585.92 906.89 601.74C913.7 617.56 919.91 632.08 920.68 634C921.45 635.92 922.28 637.27 922.52 637C922.76 636.73 919.81 627.16 915.98 615.75L909 595C915.59 595.93 936.85 599.78 960.5 604.15C984.15 608.52 1013.4 613.88 1025.5 616.05C1037.6 618.22 1048.29 620.22 1049.25 620.5C1050.21 620.77 1050.96 620.66 1050.91 620.25C1050.85 619.84 1048.03 617.02 1044.63 614C1041.24 610.98 1025.53 596.91 1009.73 582.75C983.88 559.58 981.13 556.82 982.33 555.25C983.06 554.29 989.92 545.72 997.58 536.21C1005.23 526.69 1011.73 518.93 1012 518.94C1012.27 518.96 1016.1 520.07 1020.5 521.41C1024.9 522.75 1035.47 525.95 1044 528.52C1052.53 531.09 1059.95 533.63 1060.5 534.15C1061.05 534.68 1064.76 547.35 1068.74 562.31C1072.72 577.26 1076.1 589.64 1076.24 589.81C1076.38 589.99 1085.05 588.05 1095.5 585.52C1105.95 582.98 1115.29 580.71 1116.25 580.46C1117.23 580.2 1117.99 580.55 1117.98 581.25C1117.97 581.94 1115.83 583.92 1113.23 585.65C1110.63 587.38 1103.78 592.06 1098 596.04C1092.22 600.02 1081.42 607.41 1074 612.46L1060.5 621.64L1061 663C1070.04 672.69 1078.14 681.46 1084.83 688.75C1091.63 696.15 1096.67 702.44 1096.25 703C1095.77 703.63 1090.76 702.57 1082.5 700.09C1075.35 697.95 1068.71 695.92 1067.75 695.6C1066.79 695.27 1066 695.23 1066 695.5C1066 695.77 1075.79 700.88 1087.75 706.84C1099.71 712.8 1110.51 717.98 1111.75 718.34L1114 719C1114 680.25 1114.34 669 1114.75 668.99C1115.16 668.98 1120.29 678.55 1126.15 690.24L1136.8 711.5C1156.33 686.31 1162.34 678.99 1162.75 678.97C1163.16 678.95 1168.56 689.87 1174.73 703.22L1185.97 727.5C1166.78 747.65 1153.34 761.83 1143.72 772C1134.09 782.17 1126.39 790.61 1126.61 790.75C1126.82 790.89 1143.68 784.36 1164.06 776.25C1193.59 764.5 1201.21 761.09 1201.57 759.5C1201.82 758.4 1206.09 738.15 1211.05 714.5C1216.01 690.85 1219.71 671.21 1219.28 670.87C1218.85 670.52 1208.15 666.3 1195.5 661.49C1182.85 656.69 1172.05 652.35 1171.5 651.86C1170.87 651.29 1176.66 644.81 1187.25 634.23C1196.46 625.03 1203.99 617.16 1204 616.75C1204 616.34 1194.86 604.19 1183.69 589.75C1172.52 575.31 1155.06 552.7 1144.88 539.5C1134.71 526.3 1122.39 510.32 1117.5 504C1112.61 497.68 1104.79 487.55 1100.1 481.5C1095.42 475.45 1088.14 466 1083.92 460.5L1076.24 450.5L1084 349C1073.27 319.94 1061.31 287.43 1050.49 258L1030.82 204.5C952.5 99.88 929.47 69.17 929.13 68.76C928.78 68.35 919.95 65.74 909.5 62.97C899.05 60.19 873.17 53.4 852 47.88C830.83 42.36 804.27 35.38 793 32.38C781.73 29.38 771.83 26.77 771 26.57C770.17 26.38 766.13 27.32 762 28.67Z"
       style="fill:#808080;opacity:1" />
    <path
       id="Path 2"
       class="shp2"
       d="M748.63 64.25C721.38 86.67 718.24 89.54 720.72 89.82C722.25 89.99 731.15 89.4 740.5 88.51C749.85 87.62 757.76 86.57 758.08 86.19C758.41 85.81 761.96 78.3 765.97 69.5C769.99 60.7 774.74 50.24 776.52 46.25C778.3 42.26 779.66 39 779.54 39C779.42 39 765.51 50.36 748.63 64.25Z"
       style="fill:#000000;opacity:1" />
    <path
       id="Path 3"
       class="shp1"
       d="M157.48 199.25C142.68 220.84 125.12 246.38 118.47 256C111.82 265.63 103.65 277.55 100.32 282.5L94.26 291.5C73.84 408.52 67.59 443.02 67.21 443.66C66.82 444.3 51.54 462.18 33.25 483.41C4.29 517.03 0 522.42 0.01 525.25C0.01 527.04 2.26 539.08 5 552C7.74 564.92 10.19 576.4 10.45 577.5C10.89 579.42 11.63 579.49 29.96 579.25C44.66 579.06 49 579.28 48.99 580.25C48.98 580.94 46.5 591.17 43.47 603C40.45 614.83 38.32 624.82 38.74 625.22C39.16 625.62 52.32 633.99 68 643.83C83.68 653.67 96.61 661.33 96.75 660.86C96.89 660.39 91.38 646.27 84.5 629.5C77.63 612.73 71.98 598.89 71.97 598.75C71.95 598.61 74.76 597.43 78.22 596.13C81.67 594.83 97.1 589.13 112.5 583.46C127.9 577.79 141.29 572.89 142.25 572.57C143.85 572.05 143.73 571.3 140.89 563.75C139.18 559.21 136.51 551.9 134.97 547.5C132.38 540.13 132.08 539.7 131.15 542C130.59 543.38 127.39 551.48 124.03 560C120.66 568.52 117.82 575.62 117.71 575.76C117.59 575.9 102.2 574.38 83.5 572.38C64.8 570.38 49.4 568.69 49.29 568.62C49.17 568.56 43.89 553.88 37.56 536C31.23 518.13 26.15 503.45 26.27 503.39C26.4 503.33 42.59 490.62 62.25 475.14C81.91 459.66 98.22 447 98.5 447C98.78 447 110.59 456.06 124.75 467.14C138.91 478.22 150.82 487.55 151.22 487.89C151.62 488.23 149.74 494.13 147.06 501C144.38 507.88 142.38 513.73 142.62 514C142.85 514.27 143.82 513.38 144.77 512C145.71 510.63 150.76 504.57 155.99 498.55C161.22 492.53 170 482.39 175.5 476.02C181 469.65 193.71 454.89 203.75 443.22C213.79 431.55 222.45 422 223 422C223.59 422 224.21 427.17 224.5 434.5C224.78 441.38 225.34 447 225.75 447.01C226.16 447.01 229.09 432.95 232.26 415.76C235.42 398.57 237.78 384.39 237.51 384.25C237.23 384.11 229.91 389.08 221.25 395.3C212.59 401.51 202.39 408.82 198.6 411.55C194.8 414.27 186.92 419.96 181.1 424.18L170.5 431.86C161.97 424.64 155.45 418.98 150.5 414.63C145.55 410.27 141.12 406.44 140.66 406.1C140.2 405.77 150.72 382.77 164.06 355C177.39 327.23 198.59 283.13 211.18 257C223.76 230.88 234.05 209.28 234.04 209C234.03 208.72 224.91 206.8 213.76 204.72C202.62 202.64 193.39 200.84 193.25 200.72C193.11 200.6 191.4 191.39 189.46 180.25C187.51 169.11 185.58 160 185.16 160C184.74 160 172.29 177.66 157.48 199.25Z"
       style="fill:#808080;opacity:1" />
    <path
       id="Path 4"
       class="shp3"
       d="M268.5 164.51C267.95 164.7 261.65 166.44 254.5 168.38C247.35 170.31 239.47 172.42 237 173.06L232.5 174.23C271.25 185.4 282.61 188.5 282.75 188.32C282.89 188.15 280.75 182.6 278 176C274.24 166.98 272.57 164.02 271.25 164.08C270.29 164.12 269.05 164.32 268.5 164.51ZM424.5 173.98C419 175.52 395.82 182.06 373 188.52C350.18 194.98 328.57 201.05 325 201.99L318.5 203.71C327.02 204.7 361.45 206.34 400.5 207.98C439.55 209.63 474.43 211.23 478 211.54L484.5 212.11C489.93 193.04 491.5 187.09 491.5 186.6C491.5 186.1 479.13 182.4 464 178.36C448.88 174.33 436.05 171.06 435.5 171.11C434.95 171.15 430 172.45 424.5 173.98ZM551 195.56C536.42 202.43 522.7 208.87 520.5 209.9L516.5 211.75C521.15 212.66 534.2 214.97 548.5 217.47C562.8 219.97 575.5 222.13 576.73 222.26L578.96 222.5C578.99 191.89 578.66 183.02 578.25 183.05C577.84 183.07 565.58 188.7 551 195.56ZM707 199.19C688.02 206.35 663.5 215.58 652.5 219.7C641.5 223.82 624.63 230.11 615 233.67C605.38 237.24 596.97 240.45 596.33 240.82C595.69 241.2 597.94 241.37 601.33 241.21C604.72 241.06 629.77 239.6 657 237.97C684.23 236.34 722.92 234.05 743 232.87C763.08 231.69 779.6 230.67 779.73 230.61C779.85 230.55 780.84 223.07 781.92 214C783.01 204.93 783.8 197.4 783.7 197.28C783.59 197.16 774.5 194.58 763.5 191.55C752.5 188.52 743.05 186.07 742.5 186.11C741.95 186.15 725.98 192.04 707 199.19ZM852.22 225.25C855.25 230.89 863.52 246.48 870.61 259.89L883.5 284.28C892.02 283.27 896.75 282.78 899.5 282.54C902.25 282.3 907.2 281.84 910.5 281.52C913.8 281.2 918.3 280.98 920.5 281.03C922.7 281.08 925.2 281.66 926.06 282.31C926.92 282.96 925.83 281.93 923.65 280C921.46 278.07 903.55 262.66 883.84 245.75C864.13 228.84 847.71 215 847.36 215C847 215 849.19 219.61 852.22 225.25Z"
       style="fill:#808080;opacity:1" />
    <path
       id="Path 5"
       class="shp2"
       d="M901 282.56C894.13 283.27 887.26 283.88 885.75 283.93C883.07 284 883.29 284.43 894.25 300.88L905.5 317.76C927.06 285.55 927.66 284.39 926.13 282.72C924.9 281.37 923.15 280.98 919 281.1C915.98 281.19 907.88 281.85 901 282.56Z"
       style="fill:#000000;opacity:1" />
    <path
       id="Path 6"
       class="shp3"
       d="M916.67 300.99C910.8 309.8 906.11 317.23 906.25 317.5C906.39 317.78 913.7 319.6 922.5 321.56C931.3 323.51 938.59 324.97 938.7 324.8C938.8 324.64 936.55 315.88 933.7 305.34C930.84 294.8 928.24 285.91 927.92 285.59C927.61 285.26 922.55 292.19 916.67 300.99Z"
       style="fill:#808080;opacity:1" />
    <path
       id="Path 7"
       class="shp0"
       d="M135.62 310.79L116.91 329.5C130.41 340.35 134.93 343.84 135.66 344.25C136.68 344.82 139.09 338.82 145.81 318.96C150.65 304.63 154.55 292.73 154.47 292.49C154.4 292.26 145.91 300.49 135.62 310.79Z"
       style="fill:#ffffff;opacity:1" />
    <path
       id="Path 8"
       class="shp2"
       d="M203.84 443.22C193.75 454.89 181 469.65 175.5 476.02C170 482.39 161.07 492.76 155.66 499.05C150.25 505.35 144.8 511.63 143.55 513C142.3 514.38 139.19 520.79 136.64 527.25L132 539C136.48 551.79 139.18 559.21 140.89 563.75C143.73 571.3 143.85 572.05 142.25 572.57C141.29 572.89 127.9 577.79 112.5 583.46C97.1 589.13 81.67 594.83 78.22 596.13C74.76 597.43 71.95 598.61 71.97 598.75C71.98 598.89 77.63 612.73 84.5 629.5C91.38 646.27 96.89 660.39 96.75 660.86C96.61 661.33 83.68 653.67 68 643.83C52.32 633.99 39.16 625.62 38.74 625.22C38.32 624.82 40.45 614.83 43.47 603C46.5 591.17 48.98 580.94 48.99 580.25C49 579.29 44.64 579 30.5 579C18.83 579 12 579.37 12 580C12 580.55 27.07 610.36 45.5 646.25C63.92 682.14 78.99 712.06 79 712.75C79 713.44 75.86 724.91 72.01 738.25C68.17 751.59 65.01 763.17 65 764C64.98 764.98 72.84 769.27 87.73 776.38C100.26 782.37 118.04 790.92 127.25 795.38C141.72 802.4 143.93 803.77 143.5 805.5C143.24 806.6 138.97 830.23 134.02 858C129.07 885.77 124.1 913.23 122.97 919C121.84 924.77 116.66 963.14 111.46 1004.25L102 1079C117.34 1120.46 125.89 1143.64 130.89 1157.25L140 1182C131.47 1238.19 129 1255.29 129 1256.25C129 1257.21 137.89 1271.39 148.75 1287.76C167.54 1316.08 169.01 1318.65 179 1340.7L189.5 1363.88C214.3 1372.35 236.57 1380.05 255 1386.46L288.5 1398.1C297.8 1406.97 313.1 1421.27 328.5 1435.61C343.9 1449.95 365.73 1470.32 377 1480.87L397.5 1500.05C409.9 1499.44 429.7 1498.08 449.5 1496.64C469.3 1495.21 492.02 1493.57 500 1493C507.98 1492.43 520.58 1491.54 528 1491C535.42 1490.47 545.77 1489.74 551 1489.38L560.5 1488.73C579.88 1447.12 585.84 1435.03 586.25 1435.02C586.66 1435.01 587 1446.25 587 1460L587 1485C593.59 1485.9 601.8 1487.25 609.5 1488.59C617.2 1489.93 631.38 1492.39 641 1494.06C650.63 1495.72 661.42 1497.74 665 1498.54C668.58 1499.35 672.42 1500 673.55 1500C674.68 1500 676.03 1499.58 676.55 1499.06C677.07 1498.54 686.76 1493.03 698.08 1486.81C709.4 1480.59 725.66 1471.67 734.21 1467L749.76 1458.5C828.29 1344.42 841.44 1326.08 844 1324.45C845.92 1323.22 870.45 1310.43 898.5 1296.02C926.55 1281.62 949.78 1269.53 950.12 1269.16C950.45 1268.8 948.2 1260.3 945.12 1250.27C942.03 1240.25 939.73 1231.84 940 1231.59C940.27 1231.33 946.8 1232.69 954.5 1234.61C962.2 1236.53 969.06 1237.97 969.74 1237.8C970.42 1237.64 979.34 1228.28 989.57 1217C1008.08 1196.58 1008.19 1196.44 1015.45 1182L1022.73 1167.5C1026.08 1090 1027.03 1064.58 1027.01 1061C1026.97 1055.58 1023.79 1043.67 1007.93 989.5C997.46 953.75 986.42 914.6 983.4 902.5C980.39 890.4 978.1 880.05 978.33 879.5C978.55 878.95 989.44 877.68 1002.62 876.68C1016.58 875.61 1027.12 874.37 1028 873.68C1028.83 873.04 1036.47 866.63 1045 859.45C1053.53 852.26 1070.85 837.64 1083.5 826.94C1096.16 816.25 1110.51 804.13 1115.4 800C1120.29 795.88 1135.36 780.8 1148.87 766.5C1162.39 752.2 1176.28 737.58 1179.72 734L1186 727.5C1168.56 689.87 1163.16 678.95 1162.75 678.97C1162.34 678.99 1156.26 686.43 1149.25 695.52L1136.5 712.04C1120.22 717.43 1114.83 719.01 1114 719.02C1113.17 719.04 1100.92 713.3 1086.78 706.27L1061.05 693.5C1061.01 630.06 1060.72 621.9 1059.75 621.57C1059.06 621.34 1056.03 620.91 1053 620.62C1049.97 620.33 1037.6 618.29 1025.5 616.1C1013.4 613.9 984.15 608.52 960.5 604.15C936.85 599.78 915.59 595.93 913.25 595.6L909 595C919.15 624.84 922.26 634.63 922.47 636C922.67 637.38 924.04 641.65 925.5 645.5C927.08 649.63 930.41 664.58 933.66 682C936.68 698.23 939 712.69 938.82 714.14C938.65 715.6 938.84 716.61 939.25 716.39C939.66 716.18 939.77 719.49 939.5 723.75C939.22 728.01 938.27 762.77 937.39 801C936.46 841.08 935.38 870.92 934.83 871.5C934.31 872.05 920.75 879.02 904.69 887L875.5 901.5C867.75 924.93 857.4 956.52 847.5 986.81L829.5 1041.89C815.55 1044.26 800.48 1046.78 787 1049.03C773.52 1051.27 762.38 1053.2 762.24 1053.31C762.1 1053.41 765.98 1063.17 770.87 1075C775.75 1086.83 779.58 1096.61 779.38 1096.75C779.17 1096.89 777.95 1096.21 776.68 1095.25C775.4 1094.29 763.14 1083.62 749.43 1071.54C735.72 1059.45 716.63 1041.85 707 1032.41C697.38 1022.97 688.6 1014.99 687.5 1014.67C686.4 1014.35 674.7 1012.02 661.5 1009.5C648.3 1006.97 629.4 1003.37 619.5 1001.5C609.6 999.62 599.25 997.6 596.5 997.02L591.5 995.95C590.39 979.33 589.49 960.66 588.78 943.75C587.69 917.65 587.27 913 586 913C585.17 913 567.4 914.36 546.5 916.03C525.6 917.69 504.9 919.31 500.5 919.64L492.5 920.22C471.57 905.64 460.44 897.94 454.25 893.7L443 886C419.54 932.89 412.09 946.95 411.3 947.5C410.52 948.05 390.81 958.4 367.51 970.5C344.21 982.6 325.34 992.84 325.57 993.25C325.81 993.66 325.65 994.11 325.23 994.25C324.8 994.39 318.87 1003.27 312.04 1014C305.21 1024.72 299.6 1033.63 299.56 1033.78C299.53 1033.94 292.57 1031.46 284.1 1028.28L268.71 1022.5L215.3 922.5L181.85 669.5L230.99 534.5C228.07 488.77 227.19 474.82 227.16 474C227.12 473.18 226.86 469.8 226.58 466.5C226.3 463.2 225.56 451.84 224.93 441.25C224.31 430.66 223.43 422 222.99 422C222.54 422 213.93 431.55 203.84 443.22Z"
       style="fill:#000000;opacity:1" />
    <path
       id="Path 9"
       class="shp0"
       d="M63.5 474.14C44.8 488.98 28.72 501.65 27.78 502.31C26.2 503.4 27 506.18 37.57 536C43.9 553.88 49.17 568.56 49.29 568.62C49.4 568.69 64.8 570.38 83.5 572.38C102.2 574.38 117.59 575.9 117.71 575.76C117.82 575.62 120.66 568.52 124.03 560C127.39 551.48 131.21 541.35 132.5 537.5C133.8 533.65 136.29 527.13 138.05 523C139.8 518.88 143.65 509.43 146.59 502C149.54 494.57 151.63 488.23 151.23 487.89C150.83 487.55 138.91 478.22 124.75 467.14C110.59 456.06 98.66 447.04 98.25 447.08C97.84 447.13 82.2 459.3 63.5 474.14Z"
       style="fill:#ffffff;opacity:1" />
    <path
       id="Path 10"
       class="shp1"
       d="M227.44 481.25C227.79 485.24 228.72 498.85 229.53 511.5L230.99 534.5L181.85 669.5L215.3 922.5L268.71 1022.5C292.57 1031.46 299.53 1033.94 299.56 1033.78C299.6 1033.63 305.21 1024.72 312.03 1014C318.85 1003.27 324.89 994.19 325.46 993.8C326.11 993.37 325.94 992.92 325 992.62C324.18 992.35 310.23 990.5 294 988.49C277.77 986.49 264.47 984.78 264.42 984.68C264.38 984.58 253.45 930.95 240.13 865.5C226.81 800.05 216.05 746.43 216.21 746.34C216.37 746.25 250.47 752.95 292 761.24C346.08 772.02 367.93 776.01 369 775.29C369.82 774.74 385.35 765.63 403.5 755.04C421.65 744.46 438.52 734.57 441 733.05C443.48 731.54 451.91 726.63 459.75 722.15C467.59 717.67 474 713.55 474 713C474 712.43 472.4 712.21 470.25 712.48C468.19 712.75 457.5 713.43 446.5 713.99C435.5 714.55 424.02 715.24 421 715.52C417.98 715.79 399.75 716.93 380.5 718.04C361.25 719.15 334.93 720.69 322 721.47C309.07 722.24 282.52 723.88 263 725.11L227.5 727.34C206.91 709.64 200.96 704.05 200.98 703.5C201.01 702.95 203.76 693.95 207.08 683.5C210.4 673.05 214.66 659.77 216.54 654C219.32 645.43 220.36 643.38 222.22 642.86C223.48 642.5 230.13 640.11 237 637.54C243.88 634.96 257.38 629.99 267 626.49C276.63 622.99 292.6 617.13 302.5 613.45C312.4 609.78 321.97 606.27 323.77 605.64C325.57 605.01 327.03 604.27 327.01 604C326.99 603.73 314.27 605.62 298.74 608.2C283.21 610.79 269.26 613.15 267.75 613.45C265.18 613.96 264.01 612.75 250 595C239.29 581.44 235.27 575.64 235.96 574.75C236.48 574.06 243.89 567.42 252.43 560C261.61 552.01 267.83 545.89 267.66 545C267.5 544.17 258.74 528.31 248.18 509.75C237.63 491.19 229 475.55 229 475C229 474.45 228.51 474 227.91 474C227.16 474 227.01 476.29 227.44 481.25Z"
       style="fill:#808080;opacity:1" />
    <path
       id="Path 11"
       class="shp0"
       d="M997.44 536.25C989.86 545.74 983.06 554.29 982.33 555.25C981.13 556.82 983.49 559.23 1005.75 579.2C1019.36 591.41 1035.34 605.81 1041.25 611.2C1051.67 620.7 1052.15 621 1056.75 621.02C1061.17 621.04 1062.63 620.27 1077.5 610.09C1086.3 604.07 1099 595.4 1105.72 590.82C1112.43 586.24 1117.95 581.94 1117.97 581.25C1117.98 580.55 1117.23 580.2 1116.25 580.46C1115.29 580.71 1105.95 582.98 1095.5 585.52C1085.05 588.05 1076.38 589.99 1076.24 589.81C1076.1 589.64 1072.72 577.26 1068.74 562.31C1064.76 547.35 1061.05 534.68 1060.5 534.15C1059.95 533.63 1052.53 531.09 1044 528.52C1035.47 525.95 1024.9 522.75 1020.5 521.41C1016.1 520.07 1012.21 518.98 1011.86 518.99C1011.51 519 1005.02 526.76 997.44 536.25Z"
       style="fill:#ffffff;opacity:1" />
    <path
       id="Path 12"
       class="shp2"
       d="M330.14 602.74C328.85 603 327.5 603.54 327.14 603.94C326.79 604.34 325.15 605.15 323.5 605.74C321.85 606.33 312.4 609.81 302.5 613.47C292.6 617.13 276.63 622.99 267 626.49C257.38 629.99 243.88 634.96 237 637.54C230.13 640.11 223.48 642.5 222.22 642.86C220.36 643.38 219.32 645.43 216.54 654C214.66 659.77 210.4 673.05 207.08 683.5C203.76 693.95 201.01 702.95 200.98 703.5C200.96 704.05 206.91 709.64 214.22 715.92L227.5 727.34C282.52 723.88 309.07 722.24 322 721.47C334.93 720.69 361.25 719.15 380.5 718.04C399.75 716.93 417.98 715.79 421 715.52C424.02 715.24 435.5 714.52 446.5 713.93C457.5 713.33 468.98 712.68 472 712.47C476.66 712.16 477.99 711.59 480.69 708.8C482.44 706.98 483.67 705.05 483.42 704.5C483.17 703.95 488.38 692.02 495 678C501.63 663.98 506.7 652.22 506.27 651.87C505.85 651.52 496.5 649.34 485.5 647.03C474.5 644.72 464.04 642.19 462.25 641.42C460.46 640.64 457.88 640 456.5 640C455.13 640 447.14 637.79 438.75 635.09C430.36 632.39 413.82 627.19 402 623.53C390.18 619.87 375.77 615.36 370 613.51C364.23 611.65 353.65 608.31 346.5 606.08C339.35 603.85 333.27 602.08 333 602.15C332.73 602.22 331.44 602.48 330.14 602.74Z"
       style="fill:#000000;opacity:0.99999999" />
    <path
       id="Path 13"
       class="shp0"
       d="M1187.45 633.98C1178.13 643.3 1170.87 651.28 1171.32 651.71C1171.77 652.15 1182.8 656.6 1195.82 661.62C1208.84 666.64 1219.72 670.57 1220 670.35C1220.28 670.13 1217.17 658.38 1213.09 644.23C1209.02 630.08 1205.4 618.17 1205.04 617.77C1204.69 617.37 1196.77 624.66 1187.45 633.98Z"
       style="fill:#ffffff;opacity:1" />
    <path
       id="Path 14"
       class="shp3"
       d="M316.17 651.39L303.13 666.5C308.84 667.01 324 667.94 340.5 668.9C357 669.85 370.63 670.6 370.79 670.57C370.95 670.53 365.1 665.53 357.79 659.46C350.48 653.39 341.06 645.69 336.86 642.35L329.22 636.27L316.17 651.39Z"
       style="fill:#808080;opacity:1" />
    <path
       id="Path 15"
       class="shp1"
       d="M795.5 643.94C777.35 647.61 761.83 650.88 761 651.19C759.93 651.59 760.22 651.93 762 652.37C763.38 652.72 779.13 655.92 797 659.48C814.88 663.05 830.4 666.18 831.5 666.44C833.44 666.9 833.49 666.47 833.23 651.96C832.96 637.2 832.92 637 830.73 637.13C829.5 637.2 813.65 640.26 795.5 643.94ZM463.5 641.81C464.05 642.27 473.73 644.58 485 646.93C496.27 649.29 505.85 651.51 506.27 651.86C506.69 652.21 501.52 664.09 494.77 678.25C488.02 692.42 482.85 704.34 483.29 704.75C483.72 705.16 491.14 698.45 499.79 689.83L515.5 674.15C538.36 685.66 545.18 688.89 545.4 688.75C545.61 688.61 546.57 681.3 547.52 672.5C548.47 663.7 549.53 656.2 549.87 655.83C550.22 655.46 558.6 653.75 568.5 652.02C578.4 650.3 590.77 648.19 596 647.33C601.23 646.48 606.17 645.39 607 644.92C608.03 644.33 607.24 644.04 604.5 644.01C602.3 643.98 574.85 643.3 543.5 642.5C512.15 641.7 481.1 641.03 474.5 641.01C467.9 640.98 462.95 641.34 463.5 641.81Z"
       style="fill:#808080;opacity:1" />
    <path
       id="Path 16"
       class="shp2"
       d="M607 644.92C606.17 645.39 601.23 646.48 596 647.33C590.77 648.19 578.4 650.3 568.5 652.02C558.6 653.75 550.22 655.46 549.87 655.83C549.53 656.2 548.47 663.7 547.52 672.5C546.57 681.3 545.61 688.84 545.39 689.25C545.18 689.66 546.24 690.75 547.75 691.68C549.26 692.6 559.05 699.93 569.5 707.96L588.5 722.57C631.9 727.65 649.67 729.76 656 730.53C662.33 731.31 673.13 732.62 680 733.46C686.88 734.3 709.83 737 731 739.47C752.17 741.94 772.42 744.64 776 745.48C779.69 746.34 790.06 747.25 800 747.59C809.63 747.91 817.73 748.32 818 748.49C818.27 748.67 818.56 748.29 818.63 747.65C818.71 747.02 822.65 730.3 827.4 710.5C832.15 690.7 836.48 673.71 837.02 672.75C837.74 671.47 837.53 670.48 836.25 669.05C834.87 667.52 827.04 665.61 799.5 660.07C780.25 656.2 762.92 652.58 761 652.04C759.08 651.5 747.83 650.59 736 650.01C724.17 649.44 692.9 647.85 666.5 646.49C640.1 645.13 616.25 644.02 613.5 644.04C610.75 644.05 607.83 644.45 607 644.92Z"
       style="fill:#000000;opacity:1" />
    <path
       id="Path 17"
       class="shp0"
       d="M1061 679L1061 694C1066.81 695.4 1074.58 697.65 1082 699.9C1089.42 702.15 1095.88 703.66 1096.34 703.25C1096.8 702.84 1090.05 694.68 1081.34 685.12C1072.63 675.55 1064.94 666.89 1064.25 665.87C1063.56 664.84 1062.55 664 1062 664C1061.38 664 1061 669.67 1061 679Z"
       style="fill:#ffffff;opacity:1" />
    <path
       id="Path 18"
       class="shp3"
       d="M722.5 670.03C712.05 671.57 701.34 673.2 698.7 673.66L693.9 674.5C726.14 688.33 737.86 693.39 740.75 694.67L746 697C746 667.08 745.99 667 743.75 667.12C742.51 667.19 732.95 668.5 722.5 670.03Z"
       style="fill:#808080;opacity:0.99999998" />
    <path
       id="Path 19"
       class="shp0"
       d="M1114 694C1114 707.75 1114.34 719 1114.75 719C1115.16 719 1119.78 717.59 1125 715.88C1130.22 714.16 1134.95 712.35 1135.5 711.85C1136.15 711.27 1132.96 703.54 1126.48 689.98C1120.97 678.44 1115.9 669 1115.23 669C1114.29 669 1114 674.9 1114 694Z"
       style="fill:#ffffff;opacity:1" />
    <path
       id="Path 20"
       class="shp1"
       d="M836.61 673C836.33 673.83 832.25 690.59 827.55 710.25C822.85 729.91 818.89 746.44 818.75 746.98C818.6 747.57 826.07 748.16 838 748.48C848.73 748.76 860.54 749.22 864.25 749.5L871 750C868.89 744.96 861.65 727.98 853.55 709C845.45 690.02 838.44 673.83 837.98 673C837.23 671.67 837.08 671.67 836.61 673Z"
       style="fill:#808080;opacity:1" />
    <path
       id="Path 21"
       class="shp3"
       d="M547.23 691.38C547.1 691.72 550.94 698.31 555.75 706.03C560.56 713.74 564.95 720.06 565.5 720.06C566.05 720.06 571.23 720.69 577 721.46C582.77 722.23 587.62 722.78 587.77 722.68C587.92 722.58 579.37 715.79 568.77 707.6C558.17 699.4 549.04 692.26 548.48 691.73C547.92 691.19 547.36 691.04 547.23 691.38Z"
       style="fill:#808080;opacity:1" />
    <path
       id="Path 22"
       class="shp1"
       d="M938.33 717.23C937.78 717.93 934.45 726.48 930.92 736.23L924.5 753.95L882.72 754.5C859.62 834.33 847.06 877.75 839.9 902.5C832.75 927.25 826.69 948.29 826.45 949.25C826.2 950.21 821.16 954.96 815.25 959.8C809.34 964.64 792.58 978.45 778 990.49C763.42 1002.53 743.51 1019.05 733.75 1027.19L716 1042C741.08 1064.09 755.15 1076.47 763.43 1083.76C771.72 1091.06 778.84 1097.02 779.25 1097.01C779.66 1097.01 778.92 1094.41 777.59 1091.25C776.27 1088.09 772.21 1078.3 768.58 1069.5C764.94 1060.7 762.09 1053.41 762.23 1053.31C762.38 1053.2 773.52 1051.27 787 1049.03C800.48 1046.78 815.55 1044.26 820.5 1043.42L829.5 1041.89C857.4 956.52 867.75 924.93 870.5 916.61L875.5 901.5L935.5 871.5C935.95 859.1 936.89 824.23 937.88 786C938.87 747.77 939.6 716.38 939.51 716.23C939.41 716.08 938.89 716.53 938.33 717.23ZM591 724.33C591.83 725.07 600.38 731.74 610 739.15C619.63 746.57 638.41 761.04 651.75 771.32C665.09 781.59 676.56 790.26 677.25 790.57C677.94 790.88 696.05 782.05 717.5 770.93C738.95 759.82 758.52 749.66 761 748.36C764.19 746.69 767.11 746 771 746.03C774.02 746.04 776.27 745.81 776 745.51C775.73 745.21 757.05 742.74 734.5 740.03C711.95 737.31 687.65 734.38 680.5 733.52C673.35 732.65 662.1 731.29 655.5 730.49C648.9 729.69 632.25 727.68 618.5 726.03C604.75 724.37 592.6 723.01 591.5 723C589.75 722.98 589.69 723.14 591 724.33Z"
       style="fill:#808080;opacity:1" />
    <path
       id="Path 23"
       class="shp3"
       d="M802 748C802.83 748.42 807.1 749.08 811.5 749.47C816.71 749.93 819.15 749.84 818.5 749.2C817.95 748.66 813.67 748 809 747.73C804.33 747.46 801.17 747.58 802 748Z"
       style="fill:#808080;opacity:1" />
    <path
       id="Path 24"
       class="shp1"
       d="M998.58 876.89C987.62 877.78 978.5 878.95 978.29 879.5C978.09 880.05 980.21 889.73 983 901C985.78 912.27 988.3 922.17 988.59 923C989.02 924.22 989.44 924.09 990.81 922.34C991.74 921.15 999.48 911.1 1008 900.01C1016.52 888.92 1024.29 878.76 1025.25 877.42L1027 875C1020.41 875.22 1009.54 876.01 998.58 876.89ZM701.5 1011.72L689.5 1015.21C706.1 1031.58 708.6 1033.51 708.88 1032.23C709.09 1031.28 710.66 1025.45 712.38 1019.28C714.09 1013.11 715.05 1008.1 714.5 1008.14C713.95 1008.18 708.1 1009.79 701.5 1011.72Z"
       style="fill:#808080;opacity:1" />
    <path
       id="Path 25"
       class="shp3"
       d="M475 1097.89C445.02 1105.96 419.82 1112.82 419 1113.12C418.18 1113.43 427.63 1113.97 440 1114.33C452.38 1114.69 482.75 1115.44 507.5 1115.99C532.25 1116.54 555.99 1117.21 560.25 1117.49C564.51 1117.77 567.84 1117.66 567.64 1117.25C567.44 1116.84 558.89 1108.96 548.64 1099.75C538.39 1090.54 529.89 1083.04 529.75 1083.1C529.61 1083.15 504.98 1089.81 475 1097.89ZM602.23 1202.8C594.38 1209.79 588.08 1215.62 588.23 1215.76C588.38 1215.9 596.6 1216.87 606.5 1217.91C616.4 1218.95 624.62 1219.73 624.77 1219.65C624.91 1219.57 623.51 1212.86 621.65 1204.75C619.79 1196.64 617.87 1190.02 617.38 1190.05C616.9 1190.08 610.08 1195.82 602.23 1202.8Z"
       style="fill:#808080;opacity:1" />
    <path
       id="Path 26"
       class="shp1"
       d="M940.13 1231.64C940.02 1232.11 942.31 1240.49 945.22 1250.26C948.12 1260.02 950.95 1267.85 951.5 1267.65C952.05 1267.46 956.42 1261.04 961.22 1253.4C966.01 1245.75 969.94 1239.26 969.93 1238.96C969.93 1238.67 963.75 1236.91 956.21 1235.07C948.67 1233.22 942.01 1231.5 941.41 1231.25C940.81 1230.99 940.23 1231.17 940.13 1231.64ZM160.6 1331.5C157.54 1340.85 155.36 1348.77 155.76 1349.09C156.17 1349.41 160.32 1351.3 165 1353.27C169.68 1355.25 176.99 1358.47 181.25 1360.43C187.63 1363.37 188.92 1363.69 188.53 1362.25C188.27 1361.29 183.5 1350.6 177.94 1338.5C172.38 1326.4 167.46 1316.05 167 1315.5C166.54 1314.93 163.78 1321.83 160.6 1331.5ZM573 1461.52C566.13 1476.08 560.73 1488.19 561 1488.43C561.27 1488.66 565.77 1488.23 571 1487.47C576.23 1486.7 581.96 1485.84 583.75 1485.54L587 1485C587 1446.25 586.66 1435.01 586.25 1435.02C585.84 1435.03 579.88 1446.96 573 1461.52Z"
       style="fill:#808080;opacity:1" />
  </g>
</svg>
