<?xml version="1.0" encoding="UTF-8" standalone="no"?>
<svg
   version="1.2"
   viewBox="0 0 1608 1500"
   width="1608"
   height="1500"
   id="svg1"
   sodipodi:docname="marxengels.svg"
   inkscape:version="1.4 (86a8ad7, 2024-10-11)"
   xmlns:inkscape="http://www.inkscape.org/namespaces/inkscape"
   xmlns:sodipodi="http://sodipodi.sourceforge.net/DTD/sodipodi-0.dtd"
   xmlns="http://www.w3.org/2000/svg"
   xmlns:svg="http://www.w3.org/2000/svg">
  <defs
     id="defs1" />
  <sodipodi:namedview
     id="namedview1"
     pagecolor="#505050"
     bordercolor="#eeeeee"
     borderopacity="1"
     inkscape:showpageshadow="0"
     inkscape:pageopacity="0"
     inkscape:pagecheckerboard="0"
     inkscape:deskcolor="#505050"
     inkscape:zoom="0.55"
     inkscape:cx="803.63636"
     inkscape:cy="750"
     inkscape:window-width="1920"
     inkscape:window-height="1027"
     inkscape:window-x="1912"
     inkscape:window-y="-8"
     inkscape:window-maximized="1"
     inkscape:current-layer="svg1" />
  <title
     id="title1">marxengels</title>
  <style
     id="style1">
		tspan { white-space:pre }
		.shp0 { fill: #ffffff } 
		.shp1 { opacity: 0.996;fill: #000000 } 
		.shp2 { opacity: 0.996;fill: #7f7f7f } 
	</style>
  <g
     id="Background">
    <path
       id="Path 0"
       class="shp0"
       d="M1037.5 11.87C1023.2 18.38 1009.92 24.27 1008 24.97C1004.96 26.06 1002.82 25.88 991.75 23.61L979 21C890.26 48.75 851.67 60.86 836 65.81C820.33 70.76 803.67 75.98 799 77.41L790.5 80C772.67 100.49 758.07 117.25 746.54 130.47C735.01 143.69 716.52 164.85 705.46 177.5C694.4 190.15 684.78 201.4 684.09 202.5C682.97 204.28 686.71 212.27 717.42 273.75C736.44 311.84 751.89 343.22 751.75 343.49C751.61 343.76 743.34 331.05 733.38 315.24C723.41 299.43 704.21 268.95 690.72 247.5L666.19 208.5L646.5 193.77C616.13 194.08 610.23 193.61 593 191.03C581.73 189.35 548.99 183.25 520.25 177.48L468 167C382.36 198.97 343.57 213.48 326.54 219.88L295.58 231.5C270.38 271.63 268.77 273.74 264.35 276.23C261.68 277.72 259.17 279.07 258.76 279.23C258.36 279.38 254.45 288.95 250.09 300.5C245.72 312.05 241.77 321.64 241.32 321.81C240.87 321.98 235.1 321.16 228.5 320C221.9 318.83 214.47 317.48 212 316.99C209.53 316.51 201.98 315.07 195.24 313.8L182.97 311.5C178.53 316.93 171.83 324.8 165.22 332.5C158.6 340.2 153.36 346.73 153.58 347C153.79 347.27 161.62 343.11 170.98 337.75L188 328C223.26 339.76 234.05 343.47 234.73 343.83C235.54 344.27 228.73 353.56 214.73 371.13C196.03 394.59 192.7 398.29 186.76 402.13C183.05 404.54 180.02 406.84 180.01 407.25C180 407.66 185.74 407.98 192.75 407.97L205.5 407.93C240.38 380.84 250.62 373.09 250.78 373.24C250.93 373.38 244.06 385.2 235.52 399.5C226.98 413.8 217.7 428.88 214.89 433L209.8 440.5C213.26 455.23 214.54 459.85 214.88 460.28C215.22 460.71 217.26 458.46 219.41 455.28C221.56 452.1 229.55 441.96 237.16 432.75C244.77 423.54 251.45 416 252 416C252.65 416 253 428.67 253 452C253 471.8 253.22 488.45 253.5 489C253.78 489.55 257.26 490.99 261.25 492.19C265.83 493.58 269.7 495.51 271.77 497.44L275.04 500.5L274.99 525.5L258.5 575.15L236.71 591.5C224.54 615.91 221 623.45 221 624C221 624.55 226.11 634.56 232.35 646.25C238.59 657.94 248.04 675.71 253.35 685.75C258.66 695.79 262.89 704.14 262.75 704.31C262.61 704.48 253.28 708.07 242 712.29C230.72 716.51 221.16 719.97 220.75 719.98C220.34 719.99 214.22 708.19 207.15 693.75L194.29 667.5L118.5 624.05L91.5 624C83.22 665.79 80.92 680.13 80.95 683.5C80.97 687.76 82.12 692.84 84.88 701C87.03 707.33 89.62 714.31 90.64 716.52C91.66 718.73 101.72 734.6 113 751.78C124.28 768.96 138.56 790.77 144.74 800.26L155.98 817.5L155.98 916.5C167.63 971.52 171.23 988.06 171.51 988.75C171.78 989.44 193.94 1004.59 220.75 1022.43C247.56 1040.26 270.68 1056.13 272.12 1057.68C273.56 1059.23 285.05 1073.1 297.65 1088.5C310.26 1103.9 333.13 1131.8 348.48 1150.5C363.84 1169.2 381.15 1190.26 386.95 1197.31C392.75 1204.36 397.95 1209.91 398.5 1209.65C399.05 1209.38 412.77 1203.06 429 1195.58C445.23 1188.11 460.64 1180.98 463.26 1179.74L468.01 1177.5L440.98 1139.5L489 1108C488.97 1057.84 489.21 1052.75 490.23 1053.8C490.93 1054.51 495.55 1067.53 500.5 1082.71C505.45 1097.9 509.95 1110.48 510.5 1110.66C511.05 1110.85 516.23 1095.7 522 1077C530.29 1050.15 532.82 1043.09 534 1043.46C534.83 1043.71 543.6 1045.96 553.5 1048.44C563.4 1050.93 572.29 1052.98 573.25 1052.98C574.25 1052.99 575 1053.75 574.99 1054.75C574.98 1055.71 573.85 1060.78 572.47 1066L569.95 1075.5C573.65 1086.35 575.23 1089.61 575.86 1089.75C576.49 1089.89 582.51 1085.6 589.25 1080.21C598.95 1072.46 603.21 1068.2 609.75 1059.71C617.13 1050.12 618 1048.55 617.98 1044.75C617.97 1042.41 616.84 1036.34 615.48 1031.25C614.12 1026.16 613.34 1021.84 613.75 1021.64C614.16 1021.44 618.72 1020.2 623.88 1018.89C629.03 1017.58 633.58 1016.05 633.99 1015.5C634.39 1014.95 638.17 1003.02 642.38 989C646.59 974.98 650.02 963.05 650.02 962.5C650.01 961.95 647.86 957.1 645.25 951.72C642.64 946.35 640.27 941.96 640 941.97C639.73 941.98 635.93 953.81 631.57 968.25L623.64 994.5C607.26 1011.55 596.65 1023.34 589.5 1031.69C582.35 1040.05 576.27 1046.66 576 1046.4C575.73 1046.13 579.07 1023.77 583.42 996.7C587.78 969.64 591.61 947.2 591.92 946.84C592.24 946.47 602.85 945.01 615.5 943.58C628.15 942.16 638.84 940.99 639.25 941C639.66 941 637.75 936.5 635 931C632.25 925.5 630.25 920.66 630.55 920.25C630.85 919.84 635.69 920.51 641.3 921.74C646.91 922.97 652.51 923.98 653.75 923.99C654.99 924 655.99 923.89 655.99 923.75C655.98 923.61 657.13 917.88 658.53 911C659.94 904.13 661.29 898.27 661.55 898C661.8 897.73 664.26 898.74 667 900.25L672 903C671.99 884.2 671.18 874.7 669.98 867.5C668.88 860.9 667.71 854.38 667.37 853C666.88 850.95 667.06 850.63 668.38 851.25C669.27 851.66 674.51 855.71 680.01 860.25C685.52 864.79 690.36 868.18 690.76 867.79C691.17 867.39 684.86 857.16 676.75 845.04C668.64 832.92 661.79 823.11 661.53 823.25C661.28 823.39 657.52 834.08 653.18 847L645.3 870.5C633.44 846.86 629.77 840 629.5 840C629.23 840 627.75 841.01 626.21 842.25C624.68 843.49 614.2 855.08 602.93 868C591.65 880.92 576.01 898.92 568.17 908C559.94 917.53 553.92 925.35 553.94 926.5C553.95 927.6 552.64 945.83 551.02 967C549.41 988.17 547.95 1005.55 547.79 1005.61C547.63 1005.68 538.27 1008.77 527 1012.48C515.73 1016.2 505.04 1019.86 503.25 1020.62C500.18 1021.92 500 1022.3 499.95 1027.25L499.9 1032.5C456.58 1067.76 443.75 1077.89 443.45 1077.75C443.15 1077.61 448.55 1066.14 455.45 1052.25L468 1027C458.74 1008.48 456.21 1001.67 454.5 994.5C453.13 988.73 452 982.88 452 981.5C452 980.13 451.66 979.01 451.25 979.03C450.84 979.04 436.32 986.04 419 994.57C401.68 1003.1 387.43 1009.95 387.34 1009.79C387.25 1009.63 388.41 990.83 389.91 968C391.42 945.17 392.48 926.27 392.29 926C392.09 925.73 383.63 933.83 373.5 944C363.37 954.17 354.87 962.27 354.63 962C354.38 961.73 345.66 943.95 335.24 922.5C324.82 901.05 299.81 849.64 279.65 808.25C259.49 766.86 243.25 732.66 243.54 732.25C243.84 731.84 258.13 733.89 275.29 736.81C292.46 739.73 306.55 742.21 306.61 742.31C306.68 742.42 317.48 762.87 330.61 787.77C353.11 830.4 354.7 833.13 358 834.41C359.93 835.15 376.91 841.33 395.74 848.13L429.97 860.5C452.08 838.79 491.91 800.2 532.75 760.74C573.59 721.28 607.34 688.99 607.75 688.97C608.16 688.96 611.88 693.51 616 699.09C620.13 704.67 623.73 709.38 624 709.54C624.27 709.71 631.36 711.01 639.75 712.42L655 715C689.49 706.54 707.83 702.88 718 701.41C730.22 699.65 737.19 698.19 738.52 697.12C739.64 696.23 746.95 690.21 754.77 683.75L769 672L736.26 606.5C711.77 520.48 704.48 495.27 704.26 495C704.04 494.73 694.11 496.45 682.18 498.84C670.26 501.23 658.48 503.59 656 504.09C651.76 504.95 650.87 505.78 640.36 518.75L629.23 532.5C633.31 560.7 634.27 569.13 634 569.43C633.73 569.73 625.85 571.1 616.5 572.48C607.15 573.86 599.05 574.97 598.5 574.95C597.95 574.93 594.31 579.09 590.42 584.2C586.53 589.32 572.13 607.13 558.42 623.79C544.71 640.45 533.4 653.95 533.27 653.79C533.14 653.63 535.08 644.27 537.58 633C540.08 621.73 542.21 611.6 542.31 610.5C542.47 608.78 541.72 608.41 537 607.89C533.8 607.54 519.37 602.86 502.5 596.7L473.5 586.13C440.95 589.91 429.93 591.01 428 591.01C424.84 591.01 423.22 589.72 411.28 577.75L398.06 564.5C420.81 546.67 437.89 533.29 450.71 523.25L474 505C548.79 484.01 578.38 475.68 588 472.96L605.5 468.02L707.5 468C742.38 458.54 756.1 454.77 760.5 453.52L768.5 451.25C793.52 455.32 800.98 456.73 801.22 457C801.46 457.27 802.83 475.73 804.26 498L806.86 538.5C803.11 560.2 802.02 567.51 802.01 568.75C802 570.07 813.88 588.36 830.75 613C846.56 636.1 859.77 654.66 860.09 654.25C860.42 653.84 870.92 596.8 883.43 527.5C895.95 458.2 906.37 400.49 906.59 399.25C906.82 398.01 907.45 397 908 397C908.61 397 909 401.33 909 408C909 414.05 909.23 419 909.5 419C909.77 419 917.99 416.74 927.75 413.97C937.51 411.2 945.73 409.2 946 409.52C946.27 409.84 945.72 414.91 944.76 420.8C943.8 426.68 936.48 477.17 928.48 533L913.94 634.5C938.04 694.95 945.36 713.09 945.76 713.81C946.17 714.53 951.9 717.37 958.5 720.12C965.1 722.87 977.02 727.85 985 731.19C992.98 734.52 1005.13 739.6 1012 742.47C1018.88 745.34 1030.8 750.3 1038.5 753.48C1046.2 756.67 1057.67 761.46 1064 764.13L1075.5 768.98C1080.15 766.14 1105.24 750.62 1134.25 732.66C1163.26 714.7 1187.34 699.99 1187.75 699.99C1188.16 699.98 1190.48 707.97 1192.91 717.74C1195.33 727.51 1197.7 736.96 1198.16 738.75L1199 742C1245.65 742 1246.57 741.92 1284.5 736.5C1316.61 731.91 1323.83 730.58 1328 728.5C1330.75 727.13 1333.01 725.66 1333.02 725.25C1333.04 724.84 1322.23 694.35 1309.02 657.5C1295.81 620.65 1284.98 589.38 1284.96 588C1284.93 586.37 1281.45 581.16 1274.91 573C1269.41 566.13 1264.48 560.39 1263.95 560.25C1263.43 560.11 1258.16 562.42 1252.25 565.39C1244.15 569.44 1237.68 573.85 1226 583.26C1217.06 590.46 1204.16 602.26 1195.5 611.14C1184.47 622.47 1176.66 631.76 1166 646.23C1158.03 657.06 1150.94 665.94 1150.25 665.96C1149.56 665.98 1139.21 663.05 1127.25 659.44C1115.29 655.83 1103.92 652.42 1102 651.87C1100.08 651.31 1098.72 650.68 1099 650.47C1099.28 650.26 1110.3 647.13 1123.5 643.51C1136.7 639.89 1148.29 636.72 1149.25 636.47C1150.21 636.21 1151.01 635.66 1151.02 635.25C1151.03 634.84 1139.22 629.82 1124.77 624.09L1098.5 613.69L1027.5 623.8C997.27 612.26 988.27 608.69 988 608.43C987.73 608.16 994.7 607.97 1003.5 607.99L1019.5 608.04L1054 596.5L1054 575C1038.11 574.9 1033.41 574.79 1033.3 574.69C1033.18 574.58 1035.29 571.13 1037.97 567L1042.85 559.5C1065.83 549.93 1085.33 541.91 1101 535.5C1116.67 529.09 1130.85 523.21 1132.5 522.43C1134.15 521.66 1142.25 518.76 1150.5 516L1165.5 510.99L1327.5 511.03C1343.78 499.97 1359.3 489.31 1372.5 480.21C1385.7 471.11 1396.85 463.4 1397.28 463.08C1397.7 462.76 1393.88 457.98 1388.78 452.46C1383.67 446.93 1367.61 429.61 1353.08 413.96C1338.54 398.31 1325.83 384.6 1324.82 383.5C1323.03 381.54 1323.63 379.81 1352.08 305C1368.08 262.93 1381.43 228.05 1381.74 227.5C1382.05 226.95 1388.77 244.72 1396.69 267C1404.6 289.27 1416.48 322.8 1423.09 341.5C1429.7 360.2 1434.97 375.58 1434.8 375.67C1434.64 375.76 1430.67 375 1426 373.96C1421.33 372.93 1411.2 370.71 1403.5 369.02C1395.8 367.33 1389.28 366.17 1389 366.45C1388.72 366.72 1389.84 368.65 1391.47 370.73C1393.1 372.8 1408.13 391.82 1424.87 413C1441.61 434.18 1457.64 454.43 1460.5 458C1463.35 461.57 1470.93 471.14 1477.34 479.25C1483.75 487.36 1489 494.23 1489 494.5C1489 494.77 1479.44 503.58 1467.75 514.07C1456.06 524.55 1445.04 535.24 1443.26 537.82C1441.48 540.39 1440.36 542.79 1440.76 543.13C1441.17 543.48 1446.9 544.5 1453.5 545.39C1460.1 546.29 1470.45 547.69 1476.5 548.52C1482.55 549.35 1494.03 550.89 1502 551.96C1509.97 553.03 1516.56 553.81 1516.64 553.7C1516.71 553.59 1514.41 540.23 1511.52 524L1506.27 494.5C1520 476.23 1522.05 472.72 1522.03 470.5C1522.01 468.85 1520.88 441.18 1519.51 409C1517.14 353.19 1516.92 350.27 1514.76 345.5C1513.52 342.75 1511.76 339.82 1510.87 339C1509.97 338.18 1500.1 322.2 1488.94 303.5C1472.59 276.11 1468.5 269.89 1467.87 271.5C1467.44 272.6 1463.89 291.5 1459.98 313.5C1456.07 335.5 1452.68 353.73 1452.46 354C1452.23 354.27 1451.85 353.38 1451.6 352C1451.35 350.63 1450.18 327.9 1449.01 301.5C1447.83 275.1 1447.24 253.22 1447.69 252.88C1448.13 252.55 1453.9 251.24 1460.5 249.99C1467.1 248.74 1472.95 247.38 1473.5 246.96C1474.05 246.55 1475.57 242.9 1476.87 238.85L1479.25 231.5L1452.83 167.5C1436.19 144.25 1424.22 127.6 1415.51 115.5C1406.79 103.4 1396.59 89.22 1392.84 84C1389.09 78.78 1385 73.31 1383.76 71.85C1381.8 69.56 1379.29 68.73 1365 65.63C1355.92 63.67 1338.38 59.77 1326 56.96C1313.63 54.15 1294.72 49.9 1284 47.5C1273.28 45.11 1249.42 39.76 1231 35.62C1212.58 31.49 1191.42 26.71 1184 25.01C1176.58 23.3 1164.42 20.6 1157 19C1149.58 17.4 1130.45 13.15 1114.5 9.55C1098.55 5.95 1082.69 2.33 1079.25 1.5C1075.81 0.68 1070.86 0.01 1068.25 0.02C1064.34 0.04 1058.9 2.13 1037.5 11.87ZM417 37.98C415.63 38.41 404.38 41.77 392 45.45C379.63 49.13 360.27 54.84 349 58.15C337.73 61.46 312.75 68.88 293.5 74.65C274.25 80.41 250.85 87.37 241.5 90.11C232.15 92.86 216.63 97.67 207.02 100.8C197.4 103.94 188.76 107.17 187.81 108C186.86 108.83 171.19 130.65 152.99 156.5C134.79 182.35 112.38 214.23 103.2 227.35C93.01 241.91 79.98 258.86 69.77 270.85C58.72 283.83 53.24 291.01 53.64 292C53.97 292.82 55.15 297.1 56.26 301.5C57.37 305.9 58.55 309.85 58.89 310.27C59.23 310.69 66.65 300.34 75.39 287.27C90.65 264.43 91.23 263.38 90.15 260.5C89.53 258.85 89.01 257.05 89 256.5C88.98 255.95 90.66 257.22 92.73 259.33L96.5 263.16L112.98 252.5C145.93 199.21 155.72 183.62 156 183.48C156.28 183.34 163.47 187.28 172 192.24C180.53 197.21 194.59 205.48 203.25 210.63C211.91 215.78 219.45 220 220 220C220.55 220 238.21 211.48 259.25 201.06C293.88 183.92 298.97 181.7 313 177.6C321.52 175.11 344.93 168.31 365 162.5C385.07 156.69 414.1 148.3 429.5 143.86C444.9 139.43 458.18 135.45 459 135.03C459.92 134.56 454.86 133.21 446 131.57C438.02 130.08 421.15 126.9 408.5 124.49C395.85 122.08 378.3 118.72 369.5 117.02C360.7 115.33 353.27 113.73 353 113.47C352.73 113.21 352.73 112.78 353 112.5C353.27 112.23 374.37 108.52 399.87 104.25L446.24 96.5L484.5 63.96C499.61 63.99 514.01 65.14 526.25 66.54C538.49 67.94 553.9 69.97 560.5 71.05C567.1 72.12 573.17 72.96 574 72.9C574.83 72.84 573.02 72.23 570 71.53C566.98 70.84 551.67 67.31 536 63.69C520.33 60.07 494.45 54.17 478.5 50.59C462.55 47.01 443.43 42.7 436 41.02C428.57 39.33 421.82 37.78 421 37.57C420.18 37.36 418.38 37.55 417 37.98Z"
       style="fill:#ffffff;opacity:1" />
    <path
       id="Path 1"
       class="shp1"
       d="M465.32 80.25L446.24 96.5C374.37 108.52 353.27 112.23 353 112.5C352.73 112.78 352.73 113.21 353 113.47C353.27 113.73 360.7 115.33 369.5 117.02C378.3 118.72 395.85 122.08 408.5 124.49C421.15 126.9 438.02 130.08 446 131.57C454.86 133.21 459.92 134.56 459 135.03C458.18 135.45 444.9 139.43 429.5 143.86C414.1 148.3 385.07 156.69 365 162.5C344.93 168.31 321.75 175.08 313.5 177.53C305.25 179.98 297.94 181.99 297.25 181.99C296.56 182 291.16 187 285.25 193.1L274.5 204.2C223.74 229.62 208.66 237.08 208.25 237.18C207.84 237.28 206.94 237.95 206.25 238.68C205.56 239.41 205 240.34 205 240.75C205.01 241.16 198.27 248.25 190.04 256.5C181.81 264.75 174.83 271.16 174.54 270.75C174.24 270.34 175.8 266.4 178 262C180.2 257.6 181.55 254 181 254C180.45 254 171.9 258.05 162 263C152.1 267.95 143.79 271.89 143.53 271.75C143.27 271.61 148.88 265.65 155.99 258.5C163.1 251.35 168.48 245.39 167.96 245.25C167.43 245.11 164.64 246.27 161.75 247.82C158.86 249.37 149.53 254.53 141 259.29C132.47 264.05 124.94 267.95 124.25 267.97C123.56 267.99 122.99 268.56 122.98 269.25C122.97 269.94 120.27 274.21 116.98 278.75C113.69 283.29 111.22 287 111.5 287C111.78 287 107.89 293.19 102.86 300.75C97.83 308.31 93.55 314.73 93.36 315C93.16 315.27 92.66 315.14 92.25 314.71C91.84 314.27 92.63 307.4 94 299.45C95.38 291.49 96.84 284.99 97.25 284.99C97.66 285 98 284.55 98 284C98 283.45 101.26 277.58 105.25 270.96C109.24 264.33 112.72 258.93 113 258.95C113.28 258.96 113.39 257.63 113.25 255.99C113.11 254.35 112.78 253 112.5 253C112.22 253 108.63 255.25 104.5 258C100.38 260.75 96.55 262.77 96 262.5C95.45 262.23 95 262.45 95 263C95 263.55 94.21 263.87 93.25 263.71C91.95 263.5 87.28 269.73 75.25 287.71C61.26 308.62 58.65 312 56.5 312C55.13 312 50.29 314.47 45.75 317.49L37.5 322.98L-0.13 499.5L15.94 725.5C58.37 824.7 72.89 858.63 75.59 864.89L80.5 876.29L156 914L155.98 817.5C138.56 790.77 124.28 768.96 113 751.78C101.72 734.61 91.83 719.04 91 717.19C90.17 715.34 89.05 713.92 88.5 714.04C87.95 714.16 84.49 709.36 80.81 703.38C77.13 697.4 69.7 685.77 64.31 677.54C58.91 669.32 51.96 658.74 48.85 654.04L43.2 645.5L75 597.5L75 693C80.61 688.71 80.89 687.94 80.94 682.5C80.96 679.2 83.35 664.81 86.24 650.51C91.38 625.11 91.58 624.44 95 620.9C96.92 618.91 104.01 612.72 110.75 607.14C117.49 601.56 123.11 597.21 123.25 597.47C123.39 597.73 122.38 603.83 121 611.01L118.5 624.09C176.63 657.31 193.53 666.86 193.57 666.73C193.6 666.6 199.18 657.5 205.96 646.5C212.75 635.5 218.79 626.05 219.4 625.5C220 624.95 224.1 617.12 228.5 608.11L236.5 591.71L258.5 575.13L274.99 525.5L274.97 500.5L268.9 494.5C249.21 514.3 243.16 520.04 242.75 520.03C242.34 520.01 244.26 513.36 247.03 505.25C249.8 497.14 252.61 490.21 253.28 489.85C254.13 489.4 253.72 488.48 251.95 486.85C250.55 485.56 244.63 476.85 238.79 467.5C232.95 458.15 227.91 449.71 227.59 448.75C227.27 447.79 226.55 447 226 447C225.45 447 222.86 450.39 220.25 454.53L215.5 462.05C169 485.33 155.28 491.82 155 491.48C154.72 491.14 156.98 488.53 160.01 485.68C163.04 482.83 174.97 471.9 186.51 461.39C198.06 450.88 207.84 442.21 208.25 442.14C208.66 442.06 211.59 438.15 214.75 433.45L220.5 424.91L203.5 408L177 408C177.8 403.74 180.05 387.2 182.51 368.5C184.97 349.8 187.21 333.26 187.49 331.75C187.77 330.24 187.55 329 187 329C186.45 329 178.79 333.16 169.98 338.25C161.18 343.34 153.79 347.27 153.58 347C153.37 346.73 158.99 339.75 166.08 331.5C173.17 323.25 179 316.05 179.03 315.5C179.07 314.9 178.58 314.94 177.79 315.61C177.08 316.22 165.81 324.43 152.75 333.86C139.69 343.29 128.32 351.23 127.5 351.5C126.67 351.77 126 351.66 126 351.25C126.01 350.84 135.12 336.91 146.25 320.3L166.5 290.09C175.8 285.92 195.38 276.96 216 267.49C236.63 258.02 262.05 246.38 272.5 241.63C282.95 236.87 292.2 232.98 293.05 232.99C293.9 232.99 295.03 232.57 295.55 232.05C296.07 231.53 316.3 223.7 340.5 214.64C364.7 205.59 403.29 191.17 426.25 182.59L468 167C548.99 183.25 581.61 189.32 592.75 190.98C608.49 193.33 616.42 194 628.33 194C636.77 194 643.95 193.66 644.29 193.25C644.63 192.84 631.66 166.06 615.46 133.75C593.33 89.61 585.56 75 584.25 75.01C583.29 75.01 574.85 73.68 565.5 72.04C556.15 70.4 538.49 67.92 526.25 66.53C514.01 65.14 499.59 64 494.2 64L484.39 64L465.32 80.25Z"
       style="fill:#000000;opacity:1" />
    <path
       id="Path 2"
       class="shp2"
       d="M266 134.03C254.18 141.65 241.57 149.71 238 151.94C234.43 154.16 232.06 155.99 232.75 155.99C233.44 156 240.64 157.15 248.75 158.55L263.5 161.09C272.09 152.47 275.32 147.44 279.93 138.28C283.46 131.25 286.87 124.26 287.5 122.75C288.13 121.24 288.39 120.04 288.07 120.09C287.76 120.14 277.82 126.41 266 134.03ZM155.25 184.25C154.71 184.94 145.11 200.35 133.93 218.5C122.75 236.65 113.43 252.85 113.21 254.5C112.88 257.04 113.64 258.31 118.16 262.76C121.1 265.66 123.95 268.01 124.5 267.98C125.05 267.96 130.9 264.95 137.5 261.29C144.1 257.63 153.32 252.46 158 249.81C162.68 247.15 167.18 245 168 245.03C168.82 245.07 170.18 244.24 171 243.21C172.21 241.69 175.79 240.89 189.5 239.07C198.85 237.83 206.95 236.94 207.5 237.1C208.05 237.26 223.35 229.91 241.5 220.78L274.5 204.17C288.45 190.14 292.27 185.83 292 185.53C291.73 185.24 275.64 192.88 256.25 202.5C236.86 212.13 220.55 220 220 220C219.45 220 214.61 217.36 209.25 214.14C203.89 210.91 191.18 203.44 181 197.54C170.82 191.63 161.09 185.95 159.37 184.9C156.92 183.4 156.04 183.26 155.25 184.25ZM675.46 206.38C672.16 207.55 668.9 208.84 668.23 209.25C667.37 209.78 672.43 218.6 685.13 238.75C695.11 254.56 714.12 284.71 727.38 305.74C740.65 326.77 751.61 343.75 751.75 343.49C751.89 343.22 736.67 312.29 717.94 274.75C699.2 237.21 683.33 206 682.67 205.38C681.77 204.55 679.91 204.81 675.46 206.38ZM1381.81 227.62C1381.46 228.1 1368.08 262.93 1352.08 305C1323.63 379.81 1323.03 381.54 1324.82 383.5C1325.83 384.6 1338.54 398.31 1353.08 413.96C1367.61 429.61 1383.67 446.93 1388.78 452.46C1393.88 457.98 1397.7 462.76 1397.28 463.08C1396.85 463.4 1385.7 471.11 1372.5 480.21C1359.3 489.31 1343.78 499.97 1338 503.89L1327.5 511.03C1211.25 510.96 1177.72 511.18 1178 511.46C1178.28 511.74 1204.38 514.88 1236 518.43C1267.63 521.98 1297.66 525.36 1302.75 525.94L1312 527C1341.06 509.44 1364.8 495.18 1383.5 483.99C1402.2 472.81 1418.17 463.51 1419 463.33C1419.99 463.12 1426.6 471.84 1438.5 489.05C1448.4 503.37 1456.61 515.52 1456.75 516.04C1456.89 516.57 1454.97 519.92 1452.5 523.5C1450.03 527.08 1448.34 530.2 1448.75 530.45C1449.16 530.7 1458.39 522.83 1469.25 512.95C1480.11 503.08 1489 494.77 1489 494.5C1489 494.23 1483.75 487.36 1477.34 479.25C1470.93 471.14 1463.35 461.57 1460.5 458C1457.64 454.43 1441.61 434.18 1424.87 413C1408.13 391.82 1393.1 372.8 1391.47 370.73C1389.84 368.65 1388.72 366.72 1389 366.45C1389.28 366.17 1395.8 367.33 1403.5 369.02C1411.2 370.71 1421.33 372.93 1426 373.96C1430.67 375 1434.64 375.76 1434.8 375.67C1434.97 375.58 1429.7 360.2 1423.09 341.5C1416.48 322.8 1404.63 289.33 1396.76 267.12C1388.88 244.91 1382.16 227.13 1381.81 227.62ZM272 241.73C261.82 246.43 236.63 258.02 216 267.49C195.38 276.96 175.8 285.92 172.5 287.4L166.5 290.09C134.72 337.3 125.84 351.23 126.25 351.5C126.66 351.78 127.61 351.66 128.37 351.25C129.12 350.84 140.62 342.63 153.93 333C167.24 323.38 178.53 315.5 179.02 315.5C179.51 315.5 180.5 314.65 181.21 313.61C182.47 311.76 182.77 311.77 195 313.91C201.88 315.12 209.53 316.51 212 316.99C214.47 317.48 221.9 318.83 228.5 320C235.1 321.16 240.87 321.98 241.32 321.81C241.77 321.64 245.73 312.05 250.11 300.5C254.49 288.95 258.18 279.44 258.29 279.37C258.41 279.3 260.75 278.13 263.5 276.77C268.22 274.43 269.21 273.17 281.25 254.15C288.26 243.07 294 233.78 294 233.5C294 233.22 293.21 233.04 292.25 233.09C291.29 233.14 282.18 237.03 272 241.73Z"
       style="fill:#808080;opacity:1" />
    <path
       id="Path 3"
       class="shp0"
       d="M187 239.41L172.5 241.55C149.7 264.76 143.29 271.61 143.54 271.75C143.79 271.89 152.66 267.69 163.25 262.41C173.84 257.14 188 249.61 194.73 245.66C201.45 241.72 206.97 238.16 206.98 237.75C206.99 237.34 205.76 237.06 204.25 237.13C202.74 237.2 194.97 238.22 187 239.41Z"
       style="fill:#ffffff;opacity:1" />
    <path
       id="Path 4"
       class="shp2"
       d="M192 247.11C185.68 250.92 180.84 254.03 181.25 254.02C181.66 254.01 180.2 257.6 178 262C175.8 266.4 174.24 270.34 174.54 270.75C174.83 271.16 181.81 264.75 190.04 256.5C198.27 248.25 205.01 241.16 205 240.75C205 240.34 204.66 240.04 204.25 240.09C203.84 240.14 198.32 243.3 192 247.11ZM1458.32 250.33C1452.72 251.53 1447.86 252.72 1447.52 253C1447.17 253.28 1447.85 275.1 1449.02 301.5C1450.19 327.9 1451.35 350.63 1451.6 352C1451.85 353.38 1452.23 354.27 1452.46 354C1452.68 353.73 1456.07 335.5 1459.98 313.5C1463.89 291.5 1467.44 272.6 1467.87 271.5C1468.5 269.89 1472.59 276.1 1488.96 303.5C1500.13 322.2 1509.89 338.18 1510.65 339C1511.4 339.82 1512.03 340.05 1512.03 339.5C1512.03 338.95 1503.58 318.25 1493.24 293.5C1474.6 248.88 1474.42 248.5 1471.47 248.33C1469.84 248.24 1463.92 249.14 1458.32 250.33ZM88.98 256.75C88.99 257.44 89.67 259.35 90.5 261C91.33 262.65 92.67 264 93.5 264C94.33 264 95.01 263.44 95.02 262.75C95.03 262.06 93.67 260.15 92 258.5C90.33 256.85 88.97 256.06 88.98 256.75Z"
       style="fill:#808080;opacity:1" />
    <path
       id="Path 5"
       class="shp0"
       d="M105.11 271C101.2 277.6 98 283.45 98 284C98 284.57 101.11 285.02 105.25 285.04L112.5 285.09C120.64 273.39 122.99 269.44 122.99 268.75C122.98 268.06 121.07 265.58 118.74 263.24C116.41 260.89 113.99 258.98 113.36 258.99C112.73 258.99 109.01 264.4 105.11 271Z"
       style="fill:#ffffff;opacity:1" />
    <path
       id="Path 6"
       class="shp2"
       d="M93.92 299.46C92.59 307.41 91.84 314.27 92.25 314.71C92.66 315.14 93.16 315.27 93.36 315C93.55 314.73 97.72 308.42 102.61 300.99C107.5 293.56 111.61 286.92 111.75 286.24C111.93 285.34 109.87 285 104.17 285L96.34 285L93.92 299.46ZM44.69 307.5C40.46 316.02 37.56 322.7 38.25 322.32C38.94 321.95 42.76 319.48 46.75 316.82C50.74 314.17 55.13 312 56.5 312L59 312C56.62 302.31 55.49 297.81 54.96 295.75C54.43 293.69 53.63 292 53.19 292C52.74 292 48.92 298.98 44.69 307.5ZM187.29 328.75C187.55 329.16 185.41 347.05 182.51 368.5C179.62 389.95 177.42 407.61 177.62 407.75C177.83 407.89 181.49 405.69 185.75 402.87C192.86 398.16 195.26 395.53 214.73 371.12C228.73 353.56 235.54 344.27 234.73 343.83C234.05 343.47 223.26 339.76 210.75 335.58C198.24 331.41 187.73 328 187.4 328C187.07 328 187.02 328.34 187.29 328.75ZM227.57 390.59C215.05 400.27 204.85 408.49 204.89 408.85C204.94 409.21 208.36 412.88 212.48 417C217.19 421.71 220.3 424.13 220.85 423.5C221.33 422.95 228.33 411.48 236.4 398C244.47 384.52 250.91 373.38 250.7 373.24C250.5 373.09 240.09 380.9 227.57 390.59ZM906.68 399.25C906.41 400.49 895.95 458.2 883.43 527.5C870.92 596.8 860.42 653.84 860.09 654.25C859.77 654.66 846.95 636.66 831.62 614.25C816.29 591.84 803.01 572.74 802.12 571.81C800.61 570.23 799.81 570.53 790 576.41C784.23 579.88 770.73 587.78 760 593.99C749.27 600.19 739.71 605.88 738.75 606.63C737.13 607.9 738.18 610.36 752.89 639.75L768.78 671.5C780.86 712.58 784.62 724.83 784.93 725.23C785.24 725.63 793.6 724.63 803.5 723.02C813.4 721.4 836.13 717.82 854 715.06C871.88 712.3 886.58 710.14 886.69 710.27C886.79 710.4 882.07 721.19 876.19 734.26C870.31 747.33 865.73 758.17 866 758.35C866.27 758.53 873.48 763.77 882 770C890.52 776.23 907.63 788.75 920 797.83C932.38 806.9 943.46 815.27 944.63 816.41C946.31 818.05 949.6 829.91 959.95 871.5L973.14 924.5C1014.49 969.6 1036.17 993.2 1048 1006.05C1059.83 1018.9 1072.38 1032.58 1075.9 1036.45C1079.42 1040.33 1085.27 1046.55 1088.9 1050.29C1092.53 1054.02 1095.72 1056.8 1096 1056.47C1096.28 1056.14 1095.34 1044.53 1093.93 1030.68L1091.35 1005.5C1106.58 982.64 1111.45 976 1112 976C1112.55 976 1113 976.34 1113 976.75C1113 977.16 1111.9 984.92 1110.55 994C1109.2 1003.08 1108.19 1010.55 1108.3 1010.61C1108.41 1010.67 1115.47 1013.02 1124 1015.84C1132.53 1018.65 1139.57 1020.85 1139.65 1020.73C1139.73 1020.6 1142.21 1005.33 1145.15 986.79C1148.09 968.26 1150.13 952.73 1149.68 952.29C1149.22 951.86 1131.22 952.7 1109.68 954.17C1088.13 955.64 1070.42 956.76 1070.32 956.67C1070.23 956.58 1072.58 944.8 1075.55 930.5C1078.52 916.2 1081.17 904.27 1081.45 904C1081.72 903.73 1089.83 908.11 1099.47 913.75C1109.11 919.39 1117.45 924 1118 924C1118.55 924 1125.75 913.88 1134 901.5C1142.25 889.13 1149 878.55 1149 878C1149 877.45 1148.89 877 1148.75 877C1148.61 876.99 1138.38 880.36 1126 884.47C1113.63 888.59 1103.36 891.85 1103.19 891.73C1103.02 891.6 1105.14 883.4 1107.9 873.5C1110.66 863.6 1112.77 855.27 1112.59 855C1112.4 854.73 1107.64 853.15 1102 851.5C1096.36 849.85 1091.63 848.27 1091.49 848C1091.35 847.73 1093.1 847.82 1095.37 848.21C1097.64 848.59 1106.12 850.17 1114.21 851.71L1128.91 854.5C1150.91 876.18 1151.9 876.9 1159.25 879.38L1167 882C1167.6 877.74 1168.84 869.18 1170.14 860.24L1172.5 843.98C1180.25 841.82 1198.41 836.99 1217.85 831.85L1253.2 822.5C1266.71 800.16 1268.58 796.27 1267.71 795.68C1267.05 795.23 1252.7 790.28 1235.84 784.68L1205.18 774.5C1164.35 782.63 1152.21 784.65 1151.86 784.24C1151.51 783.84 1157 773.15 1164.06 760.5C1171.12 747.85 1177.48 737.4 1178.2 737.27C1178.91 737.14 1185.35 740.57 1192.5 744.89L1205.5 752.73C1231.08 746.09 1239.85 743.71 1241.5 743.16C1243.68 742.44 1238.26 742.15 1221.75 742.09L1199 742C1197.7 736.96 1195.33 727.51 1192.91 717.74C1190.48 707.97 1188.16 699.98 1187.75 699.99C1187.34 699.99 1163.26 714.7 1134.25 732.66C1105.24 750.62 1080.15 766.14 1078.5 767.15L1075.5 768.98C1057.67 761.46 1046.2 756.67 1038.5 753.48C1030.8 750.3 1018.88 745.34 1012 742.47C1005.13 739.6 992.98 734.52 985 731.19C977.02 727.85 965.1 722.87 958.5 720.12C951.9 717.37 946.17 714.53 945.76 713.81C945.36 713.09 938.04 694.95 929.49 673.5L913.94 634.5C936.48 477.17 943.8 426.68 944.76 420.8C945.72 414.91 946.27 409.84 946 409.52C945.73 409.2 937.51 411.2 927.75 413.97C917.99 416.74 909.77 419 909.5 419C909.23 419 909 414.05 909 408C909 401.95 908.59 397 908.09 397C907.59 397 906.96 398.01 906.68 399.25ZM238.59 431L226 446C228.71 451.1 234.22 460.11 240 469.32C245.78 478.53 251.06 486.05 251.75 486.03C252.73 486.01 253 478.32 253 451C253 430.61 252.62 416 252.09 416C251.59 416 245.51 422.75 238.59 431ZM190.45 457.74C180.58 466.83 168.45 477.99 163.5 482.52C158.55 487.06 154.72 491.07 155 491.43C155.28 491.8 169.11 485.32 185.75 477.05C212.38 463.8 215.88 461.79 215.01 460.25C214.47 459.29 213.12 454.9 212.02 450.5C210.92 446.1 209.65 442.21 209.21 441.85C208.76 441.49 200.32 448.64 190.45 457.74Z"
       style="fill:#808080;opacity:1" />
    <path
       id="Path 7"
       class="shp1"
       d="M760.5 453.5C756.1 454.76 742.71 458.42 730.75 461.64C718.74 464.88 709.18 467.95 709.4 468.5C709.61 469.05 708.7 474.9 707.36 481.5C706.02 488.1 704.38 493.79 703.71 494.14C702.94 494.55 702.88 494.91 703.55 495.14C704.13 495.34 711.72 520.48 720.42 551C729.12 581.52 736.41 606.84 736.62 607.25C736.83 607.66 737.79 607.39 738.75 606.63C739.71 605.88 749.27 600.19 760 593.99C770.73 587.79 783.89 580.08 789.25 576.86C794.61 573.63 799.54 570.89 800.21 570.75C800.95 570.6 802.46 564.3 804.12 554.5L806.83 538.5C802.82 475.73 801.46 457.27 801.22 457C800.98 456.73 794.64 455.51 787.14 454.3C779.64 453.09 772.38 451.9 771 451.66C769.63 451.42 764.9 452.25 760.5 453.5ZM1403 472.32C1394.47 477.46 1370.4 491.87 1349.5 504.35L1311.5 527.03C1297.55 525.37 1267.63 521.92 1236 518.3C1204.38 514.67 1175.8 511.5 1172.5 511.24C1167.25 510.82 1164.49 511.42 1150.5 515.98C1141.13 519.04 1133.88 521.97 1133 523.06C1132.17 524.08 1131.15 524.6 1130.72 524.21C1130.29 523.82 1129.96 524.06 1129.97 524.75C1129.99 525.44 1121.89 533.09 1111.99 541.75C1102.08 550.41 1094.09 557.63 1094.24 557.79C1094.38 557.95 1102.15 556.22 1111.5 553.95C1120.85 551.68 1130.3 549.63 1132.5 549.39C1135.3 549.09 1141.14 550.32 1152 553.49C1160.53 555.98 1167.72 558.24 1168 558.51C1168.28 558.78 1168.28 559.17 1168 559.37C1167.72 559.58 1157.6 560.74 1145.5 561.96C1133.4 563.18 1122.38 563.87 1121 563.5C1119.63 563.14 1118.84 563.1 1119.25 563.42C1119.66 563.74 1105.6 571.2 1088 580C1070.4 588.8 1055.55 595.77 1055 595.5C1054.45 595.23 1053.89 595.38 1053.75 595.85C1053.61 596.32 1046.41 599.02 1037.75 601.85C1029.09 604.68 1021.99 607.11 1021.99 607.25C1021.98 607.39 1023.11 610.76 1024.49 614.75C1025.87 618.74 1026.66 621.99 1026.25 621.98C1025.84 621.97 1025.95 622.4 1026.5 622.94C1027.15 623.56 1039.83 622.14 1062.5 618.9C1081.75 616.14 1098.5 614.03 1099.73 614.2C1100.96 614.36 1101.97 614.16 1101.98 613.75C1101.99 613.34 1103.24 612.76 1104.75 612.46C1106.47 612.12 1107.74 612.4 1108.14 613.21C1108.59 614.12 1108.89 614.16 1109.14 613.35C1109.36 612.64 1122.15 610.42 1142.5 607.56C1160.65 605.01 1175.95 603.1 1176.5 603.3C1177.05 603.51 1177.95 603.14 1178.5 602.49C1179.05 601.83 1186.92 599.21 1196 596.65C1205.08 594.1 1213.06 592 1213.75 592C1214.44 592 1220.96 587.21 1228.25 581.37C1238.47 573.16 1244.24 569.38 1253.5 564.84C1260.1 561.6 1265.05 558.98 1264.5 559.01C1263.95 559.05 1270.25 554.57 1278.5 549.07C1286.75 543.57 1294.06 539.05 1294.75 539.03C1295.44 539.01 1296.01 539.11 1296.02 539.25C1296.02 539.39 1293.77 549.51 1291.02 561.75C1288.26 573.99 1286 584.23 1286 584.5C1286 584.77 1285.66 584.83 1285.25 584.61C1284.84 584.4 1284.8 586.31 1285.17 588.86C1285.53 591.41 1286.1 594.29 1286.42 595.25C1286.74 596.21 1287.34 596.79 1287.75 596.54C1288.16 596.29 1293.67 603.28 1300 612.07C1306.33 620.87 1311.84 628.05 1312.25 628.03C1312.66 628.01 1316.44 622.49 1320.65 615.75C1324.86 609.01 1332.96 596.19 1338.65 587.25C1344.34 578.31 1349.34 570.99 1349.75 570.98C1350.16 570.96 1369.4 595.73 1392.5 626.02C1415.6 656.31 1434.84 681.07 1435.25 681.05C1435.66 681.02 1436 660.98 1436 636.5C1436 594.78 1435.89 592 1434.25 592.03C1433.29 592.04 1426.42 593.12 1419 594.43C1411.58 595.74 1405.16 596.63 1404.75 596.41C1404.34 596.18 1411.99 584.09 1421.75 569.53C1431.95 554.31 1439.93 543.36 1440.5 543.77C1441.1 544.19 1441.2 543.98 1440.75 543.24C1440.3 542.49 1441.68 539.72 1444.24 536.25C1446.57 533.09 1448.49 530.27 1448.51 530C1448.52 529.73 1450.44 526.69 1452.77 523.25C1455.1 519.81 1456.89 516.57 1456.75 516.04C1456.61 515.52 1448.4 503.39 1438.5 489.08C1428.6 474.78 1420.05 463.06 1419.5 463.03C1418.95 463 1411.53 467.18 1403 472.32ZM589 472.62C580.48 475.07 552.27 483.03 526.32 490.29C500.37 497.56 479.1 503.95 479.05 504.5C479 505.1 488.8 506.14 503.73 507.12C517.35 508.01 534.69 509.02 542.25 509.37C552.27 509.83 555.99 510.34 555.98 511.25C555.97 511.95 544.76 516.94 530.73 522.5C516.85 528 504.94 532.39 504.25 532.25C503.56 532.11 502.98 532.56 502.95 533.25C502.92 533.94 494.31 540.8 483.83 548.5C473.34 556.2 464.03 563.2 463.13 564.06C462.23 564.91 456.77 568.93 451 572.98C445.23 577.03 438.25 582 435.5 584.02C432.75 586.04 429.38 588.44 428 589.35L425.5 591.02C430.15 591.01 441.06 589.88 452.75 588.5C473.3 586.08 474.08 585.91 476.36 583.25C478.48 580.78 480.13 580.26 492.61 578.17C500.25 576.88 507.51 575.65 508.75 575.42C510.69 575.06 512.38 577.07 521 590C526.5 598.25 530.77 605.45 530.5 606C530.23 606.55 531.01 607.21 532.25 607.46C533.49 607.71 536.41 608.04 538.75 608.21C541.08 608.37 542.98 608.27 542.97 608C542.96 607.73 550.5 605.28 559.72 602.57C568.95 599.86 577.37 597.61 578.42 597.57C579.67 597.53 583.32 593.48 588.85 586C593.53 579.67 603.89 565.73 611.88 555C619.87 544.27 627.64 534.15 629.14 532.5C630.65 530.85 636.07 524.17 641.19 517.64L650.5 505.79C637.33 493.89 627.76 485.39 620.75 479.22C613.74 473.05 607.21 468.03 606.25 468.08C605.29 468.12 597.52 470.16 589 472.62Z"
       style="fill:#000000;opacity:1" />
    <path
       id="Path 8"
       class="shp2"
       d="M613.03 472.27C615.52 474.6 624.97 482.99 634.03 490.92L650.5 505.34C686.92 498.01 699.19 495.46 701.25 494.94C704.85 494.04 705.05 493.76 706.1 488.25C706.7 485.09 707.79 479.57 708.51 476C709.24 472.43 709.65 469.16 709.42 468.75C709.19 468.34 686.39 468.01 658.75 468.02L608.5 468.05L613.03 472.27ZM247.07 505C244.28 513.25 242.34 520.01 242.75 520.02C243.16 520.03 249.13 514.34 256 507.38L268.5 494.73C257.65 491.05 253.97 489.99 253.32 489.99C252.67 490 249.86 496.75 247.07 505ZM475.24 504.72C474.55 505.02 463.5 513.43 450.7 523.39C437.89 533.35 420.81 546.67 412.73 553L398.05 564.5L424.85 591.5C429.23 588.58 432.75 586.07 435.5 584.03C438.25 582 445.45 576.84 451.5 572.57C459.37 567.03 462.54 564.2 462.64 562.66C462.71 561.47 463.83 552.96 465.14 543.74C467 530.56 467.82 526.99 469 526.99C469.82 527 477.7 528.12 486.5 529.48C495.3 530.85 503.18 532.08 504 532.23C504.82 532.38 516.85 528 530.73 522.5C544.6 517 555.97 512.05 555.98 511.5C556 510.93 551.12 510.17 544.76 509.73C538.57 509.31 521.58 508.27 507 507.42C492.43 506.57 479.71 505.45 478.75 504.93C477.79 504.42 476.89 504.04 476.75 504.08C476.61 504.12 475.93 504.41 475.24 504.72ZM1360.26 532.12L1349.5 543.01L1409.5 543.02C1395.55 535.04 1386.89 530.14 1381.26 526.97L1371.03 521.22L1360.26 532.12ZM1101.5 535.18C1085.55 541.77 1066.42 549.64 1059 552.68C1051.58 555.71 1045.05 558.58 1044.5 559.06C1043.86 559.61 1045.41 562.76 1048.73 567.71L1053.97 575.5C1053.99 590.73 1054.44 595.22 1055 595.5C1055.55 595.77 1070.4 588.8 1088 580C1105.6 571.2 1119.66 564 1119.25 564.01C1118.84 564.01 1121.65 560.88 1125.5 557.04C1129.35 553.2 1132.28 549.85 1132 549.59C1131.72 549.34 1123.4 551.12 1113.5 553.56C1103.6 555.99 1095.12 557.88 1094.65 557.74C1094.18 557.61 1101.94 550.41 1111.9 541.75C1121.85 533.09 1130 525.55 1130 525C1130 524.45 1130.45 524.23 1131 524.5C1131.55 524.77 1132 524.55 1132 524C1132 523.45 1131.66 523.04 1131.25 523.1C1130.84 523.15 1117.45 528.59 1101.5 535.18Z"
       style="fill:#808080;opacity:1" />
    <path
       id="Path 9"
       class="shp0"
       d="M464.94 545.02C463.08 558.75 462.8 562.97 463.76 562.77C464.46 562.62 473.54 556.2 483.96 548.5C494.37 540.8 502.92 533.94 502.95 533.25C502.98 532.56 501.99 531.79 500.75 531.54C499.51 531.28 492.2 530.16 484.5 529.03C476.8 527.91 469.8 527 468.94 527C467.67 527 466.92 530.38 464.94 545.02Z"
       style="fill:#ffffff;opacity:1" />
    <path
       id="Path 10"
       class="shp2"
       d="M612.28 554.26C603.93 565.39 597.41 574.63 597.8 574.78C598.18 574.94 606.38 573.92 616 572.52C625.63 571.12 633.73 569.73 634 569.43C634.27 569.13 633.38 561.19 632 551.78C630.63 542.37 629.04 534.52 628.48 534.34C627.93 534.16 620.63 543.12 612.28 554.26ZM1278.88 548.78C1265.58 557.62 1264.35 558.68 1265.33 560.5C1265.92 561.6 1270.19 567.23 1274.8 573C1279.42 578.77 1283.83 583.84 1284.6 584.25C1285.37 584.66 1286 584.77 1286 584.5C1286 584.23 1288.26 573.99 1291.02 561.75C1293.77 549.51 1296.02 539.39 1296.02 539.25C1296.01 539.11 1295.44 539.01 1294.75 539.03C1294.06 539.05 1286.92 543.43 1278.88 548.78ZM1421.43 569.67C1411.84 584.15 1404.34 596.18 1404.75 596.41C1405.16 596.63 1411.58 595.74 1419 594.43C1426.42 593.12 1433.29 592.04 1434.25 592.03C1435.89 592 1436 594.78 1436 636.5C1436 660.98 1435.66 681.02 1435.25 681.05C1434.84 681.07 1415.6 656.31 1392.5 626.02C1369.4 595.73 1350.16 570.96 1349.75 570.98C1349.34 570.99 1344.34 578.31 1338.65 587.25C1332.96 596.19 1324.86 609.01 1320.65 615.75C1316.44 622.49 1312.66 628.01 1312.25 628.03C1311.84 628.05 1306.33 620.81 1300 611.94C1293.67 603.08 1288.37 596.43 1288.2 597.16C1288.04 597.9 1298.09 626.85 1310.52 661.5C1322.96 696.15 1333.33 724.84 1333.57 725.25C1333.81 725.66 1338.72 726 1344.5 726L1355 726C1335.93 749.87 1334.09 752.72 1335.16 753.62C1335.9 754.24 1362.83 771.28 1395 791.49C1427.17 811.7 1458.55 831.45 1464.72 835.37C1470.88 839.29 1475.95 842.84 1475.97 843.25C1475.98 843.66 1474.99 843.79 1473.75 843.54C1472.51 843.29 1463.63 842.13 1454 840.97C1444.38 839.81 1436.41 839 1436.29 839.18C1436.18 839.35 1439.45 850.98 1443.56 865C1447.68 879.02 1450.81 890.61 1450.52 890.75C1450.23 890.89 1442.01 884.86 1432.25 877.37C1422.49 869.87 1414.05 863.37 1413.5 862.93C1412.86 862.41 1411.86 867.53 1410.7 877.31C1409.71 885.67 1409.04 892.57 1409.2 892.66C1409.37 892.75 1418.72 896.51 1430 901.02C1441.28 905.52 1458.94 912.53 1469.25 916.6C1479.56 920.67 1488.22 924.45 1488.5 925C1488.78 925.55 1485.51 930.84 1481.25 936.75C1476.98 942.66 1468.88 954.14 1463.25 962.25C1457.61 970.36 1453.01 977.56 1453.02 978.25C1453.04 978.94 1458.01 985.8 1464.07 993.5C1470.13 1001.2 1480.56 1014.48 1487.25 1023C1493.93 1031.53 1501.9 1041.75 1504.95 1045.71C1508 1049.68 1510.79 1052.61 1511.15 1052.21C1511.51 1051.82 1515 1044.08 1518.92 1035C1522.83 1025.92 1526.03 1018.16 1526.02 1017.75C1526.01 1017.34 1523.97 1017 1521.5 1017C1518.22 1017 1516.76 1016.53 1516.12 1015.25C1515.63 1014.29 1512.03 1001.58 1508.12 987C1504.2 972.42 1501 959.94 1501 959.25C1501 958.56 1501.34 958 1501.75 958.01C1502.16 958.01 1508.58 961.66 1516 966.11C1523.42 970.57 1534.34 977.09 1540.25 980.61C1546.16 984.12 1551.17 986.89 1551.39 986.75C1551.6 986.61 1543.76 975.02 1533.96 961C1519.29 940.01 1516.44 935.38 1517.82 934.8C1518.74 934.41 1528.5 931.39 1539.5 928.08C1550.5 924.77 1561.65 921.49 1564.27 920.78C1566.9 920.08 1568.87 919.05 1568.67 918.5C1568.46 917.95 1555.98 901.52 1540.94 882C1525.9 862.48 1505.81 836.38 1496.29 824C1486.78 811.63 1479.33 801.22 1479.75 800.88C1480.16 800.54 1494.72 796.72 1512.09 792.38L1543.69 784.5C1540 769.77 1538.69 764.83 1538.4 764C1538.11 763.17 1537.94 762.27 1538.02 762C1538.1 761.73 1537.73 761.27 1537.2 761C1536.66 760.73 1533.26 753.52 1529.63 745C1526 736.48 1523.26 729.27 1523.54 729C1523.82 728.73 1528.42 730.23 1533.77 732.35C1539.12 734.47 1543.77 735.82 1544.1 735.35C1544.43 734.88 1549.32 721.45 1554.97 705.5C1560.61 689.55 1566.5 673.13 1568.06 669L1570.88 661.5C1549.74 635.92 1543.49 628.95 1543.34 629.5C1543.19 630.05 1537.63 650.08 1530.98 674C1524.33 697.92 1518.69 717.73 1518.46 718C1518.22 718.27 1517.62 717.38 1517.11 716C1516.61 714.63 1506.49 690.77 1494.63 663C1477.06 621.87 1473.32 612.31 1474.46 611.5C1475.23 610.95 1485.12 602.4 1496.43 592.5L1517.01 574.5L1517 554C1511.96 553.25 1505.33 552.35 1499 551.51C1492.67 550.67 1482.33 549.29 1476 548.44C1469.67 547.59 1458.73 546.1 1451.68 545.12L1438.86 543.35L1421.43 569.67Z"
       style="fill:#808080;opacity:1" />
    <path
       id="Path 11"
       class="shp0"
       d="M1126.47 555.97C1120.31 562.13 1119.73 563.02 1121.5 563.62C1122.6 564 1133.4 563.28 1145.5 562.03C1157.6 560.78 1167.72 559.59 1168 559.38C1168.28 559.17 1168.28 558.78 1168 558.51C1167.72 558.24 1160.53 555.99 1152 553.51C1143.47 551.03 1135.81 549 1134.97 549C1134.13 549 1130.31 552.14 1126.47 555.97Z"
       style="fill:#ffffff;opacity:1" />
    <path
       id="Path 12"
       class="shp1"
       d="M1038.08 566.79L1033.03 574.5C1048.12 575.27 1052.61 575.16 1052.75 574.75C1052.89 574.34 1050.78 570.64 1048.07 566.54L1043.14 559.08L1038.08 566.79Z"
       style="fill:#000000;opacity:1" />
    <path
       id="Path 13"
       class="shp2"
       d="M494 577.71C482.78 579.64 478.98 580.69 477.22 582.35C475.97 583.53 474.95 584.95 474.95 585.5C474.94 586.05 486.99 590.88 501.72 596.23C516.45 601.58 529.06 605.96 529.75 605.98C530.44 605.99 531 605.77 531 605.5C531 605.23 526.5 598.25 521 590C515.5 581.75 510.44 575.05 509.75 575.11C509.06 575.17 501.98 576.34 494 577.71Z"
       style="fill:#808080;opacity:1" />
    <path
       id="Path 14"
       class="shp0"
       d="M1498.4 590.75C1488.46 599.41 1478.68 607.96 1476.67 609.75L1473 613C1506.48 690.89 1516.66 714.63 1517.22 716L1518.24 718.5C1519.86 713.85 1525.57 693.6 1531.98 670.5L1543.62 628.5C1522.99 587.04 1516.88 575 1516.73 575C1516.58 575 1508.33 582.09 1498.4 590.75ZM78.52 588.12C76.32 589.63 75.6 590.86 75.76 592.83C75.98 595.41 76.03 595.43 77.34 593.5C78.08 592.4 79.45 590.26 80.36 588.75C81.28 587.24 81.92 586.01 81.77 586.03C81.62 586.05 80.16 586.99 78.52 588.12Z"
       style="fill:#ffffff;opacity:1" />
    <path
       id="Path 15"
       class="shp2"
       d="M1195 596.91L1178.5 601.68C1178.05 606.97 1178.89 611.42 1180.08 615C1181.27 618.58 1182.53 621.83 1182.87 622.23C1183.22 622.63 1190.47 616 1198.99 607.48C1207.5 598.97 1213.8 592.03 1212.99 592.07C1212.17 592.11 1204.08 594.29 1195 596.91ZM108.6 608.88C101.04 615.27 94.44 621.29 93.93 622.25C93.06 623.88 93.88 623.98 105.75 623.75L118.5 623.5C122.38 603.65 123.24 597.74 122.92 597.57C122.61 597.4 116.16 602.49 108.6 608.88ZM560.5 602.15L543.5 607.1C535.4 643.06 533.26 653.61 533.52 653.75C533.78 653.89 543.9 641.85 556 627C568.1 612.15 578.17 599.33 578.38 598.5C578.59 597.67 578.47 597.05 578.13 597.1C577.78 597.16 569.85 599.43 560.5 602.15Z"
       style="fill:#808080;opacity:1" />
    <path
       id="Path 16"
       class="shp0"
       d="M60.5 619.14C52.8 630.74 45.76 641.42 44.85 642.87C43.21 645.5 43.24 645.54 59.09 669.5L74.96 693.5C74.99 619.49 74.89 598.01 74.75 598.02C74.61 598.04 68.2 607.54 60.5 619.14ZM1140.5 607.69C1123.45 610.16 1109.28 612.37 1109 612.59C1108.72 612.82 1108.72 613.24 1109 613.53C1109.28 613.82 1121.03 615.06 1135.12 616.28L1160.73 618.5C1175.37 608.75 1177.92 606.47 1177.74 605.25C1177.57 604.07 1176.5 603.45 1174.49 603.34C1172.85 603.26 1157.55 605.21 1140.5 607.69Z"
       style="fill:#ffffff;opacity:1" />
    <path
       id="Path 17"
       class="shp1"
       d="M1168.66 612.91C1163.96 615.98 1160.09 619.06 1160.06 619.75C1160.03 620.44 1158.2 623.7 1156 627C1153.8 630.3 1152 633.23 1152 633.5C1152 633.77 1153.01 634 1154.25 634C1155.49 634 1161.67 631.97 1168 629.49C1174.33 627.01 1180.06 625.21 1180.75 625.49C1181.44 625.77 1182.22 625.33 1182.5 624.5C1182.78 623.67 1181.7 619.47 1180.1 615.16L1177.21 607.32L1168.66 612.91Z"
       style="fill:#000000;opacity:1" />
    <path
       id="Path 18"
       class="shp2"
       d="M988 608.41C988.27 608.68 996.83 612.05 1007 615.89C1017.17 619.74 1025.84 622.68 1026.25 622.44C1026.66 622.2 1025.95 618.96 1024.66 615.25L1022.32 608.5C995.33 608.04 987.73 608.14 988 608.41ZM1103.75 612.62C1102.79 612.83 1102.11 613.48 1102.25 614.06C1102.39 614.64 1113.3 619.41 1126.5 624.65C1139.7 629.89 1150.72 634.36 1151 634.59C1151.28 634.81 1151.28 635.22 1151 635.49C1150.72 635.76 1139.03 639.16 1125 643.04C1110.97 646.92 1099.28 650.26 1099 650.47C1098.72 650.68 1100.08 651.31 1102 651.87C1103.92 652.42 1115.29 655.83 1127.25 659.44C1139.21 663.05 1149.56 665.98 1150.25 665.96C1150.94 665.94 1158.25 656.93 1166.5 645.93C1174.75 634.94 1181.16 625.73 1180.75 625.47C1180.34 625.21 1174.71 627.02 1168.25 629.49C1161.79 631.97 1155.49 633.99 1154.25 633.99C1153.01 634 1152 633.77 1152 633.5C1152 633.23 1153.8 630.3 1156 627C1158.2 623.7 1160 620.33 1160 619.5C1160 618.53 1159.02 618 1157.25 617.99C1155.74 617.99 1144.15 617.1 1131.5 616.01C1118.49 614.89 1108.39 613.58 1108.25 613.01C1108.11 612.46 1107.44 612.05 1106.75 612.12C1106.06 612.18 1104.71 612.4 1103.75 612.62ZM206.71 645.23C199.75 656.38 194.05 665.84 194.03 666.25C194.01 666.66 199.85 678.92 207 693.5C214.15 708.08 220.34 719.99 220.75 719.98C221.16 719.97 230.72 716.51 242 712.29C253.28 708.07 262.61 704.48 262.75 704.31C262.89 704.14 258.18 694.89 252.29 683.75C246.41 672.61 237 654.95 231.39 644.5C225.78 634.05 220.78 625.38 220.28 625.23C219.77 625.08 213.67 634.08 206.71 645.23Z"
       style="fill:#808080;opacity:1" />
    <path
       id="Path 19"
       class="shp0"
       d="M1350.09 650.68C1350.04 651.13 1354.56 662.98 1360.15 677C1365.73 691.02 1370.57 702.88 1370.9 703.34C1371.23 703.8 1379.93 694.57 1390.23 682.84C1400.54 671.1 1408.86 661.38 1408.73 661.24C1408.61 661.1 1404 660.12 1398.5 659.07C1393 658.01 1380.63 655.74 1371 654.01C1361.38 652.29 1352.75 650.65 1351.84 650.37C1350.93 650.09 1350.14 650.23 1350.09 650.68Z"
       style="fill:#ffffff;opacity:1" />
    <path
       id="Path 20"
       class="shp1"
       d="M1447.74 668.75C1442.94 677.96 1431.17 700.35 1421.59 718.5C1412.01 736.65 1403.79 751.64 1403.33 751.81C1402.87 751.97 1393.16 746.91 1381.75 740.56C1370.34 734.2 1360.78 729.23 1360.5 729.5C1360.22 729.77 1361.69 731.51 1363.75 733.35C1365.81 735.19 1386.29 753.42 1409.25 773.85C1432.21 794.28 1451.22 811 1451.5 811C1451.78 811 1452.41 809.99 1452.91 808.75C1453.42 807.51 1459.46 791.88 1466.34 774L1478.84 741.5C1467.94 708.85 1466.54 702.84 1462.56 679.25C1460.03 664.26 1457.62 652 1457.22 652C1456.81 652 1452.55 659.54 1447.74 668.75ZM139.74 686.25C131.25 701.79 124.34 714.56 124.4 714.63C124.45 714.71 132.82 715.97 143 717.44L161.5 720.11L177 715C170.71 697.56 166.2 684.74 162.92 675.25C159.64 665.76 156.55 658 156.07 658C155.58 658 148.23 670.71 139.74 686.25ZM756.4 682.2C749.86 687.69 742.7 693.67 740.5 695.48C736.68 698.63 735.69 698.89 718 701.43C707.83 702.89 689.38 706.55 677 709.56C664.63 712.57 653.83 715.4 653 715.84C652.17 716.28 644.41 718.64 635.75 721.07C627.09 723.51 620.01 725.73 620.01 726C620.02 726.27 627.99 729.42 637.73 733C647.47 736.58 655.79 739.39 656.22 739.25C656.65 739.11 657 739.45 657 740C657 740.55 657.67 741 658.5 741C659.33 741 660.23 741.45 660.5 742C660.77 742.55 657.4 751.33 653 761.5L645 780C647.88 785.81 651.59 795.26 655.11 804.75L661.5 821.99C674.58 822 678 822.41 678 823C678 823.55 678.45 824 679 824C679.55 824 679.8 823.66 679.56 823.25C679.32 822.84 684.16 821.46 690.31 820.19C696.47 818.92 702.4 817.6 703.5 817.26C704.9 816.82 705.27 816.99 704.75 817.82C704.28 818.56 704.47 818.79 705.25 818.44C705.94 818.14 711.67 819.94 718 822.45C724.33 824.96 729.84 827.01 730.25 827.01C730.66 827 731 812.6 731 795C731 770.07 731.28 763 732.25 763C732.94 763 742.73 761.84 754 760.43C765.27 759.02 774.57 758 774.64 758.18C774.72 758.36 779.36 773.35 784.95 791.5C790.54 809.65 795.31 825.29 795.56 826.25C795.97 827.89 793.98 828 764 828C732.75 828 731.75 828.06 721.25 830.65C715.34 832.11 710.38 833.35 710.23 833.4C710.09 833.46 711.21 838.33 712.73 844.23C714.25 850.13 715.27 855.12 715 855.32C714.73 855.53 709.74 859.25 703.92 863.6C697.57 868.34 689.08 873.5 682.71 876.5L672.1 881.5L672 903C664.26 898.74 661.8 897.73 661.55 898C661.29 898.27 659.89 904.13 658.43 911C656.97 917.88 655.82 924.4 655.88 925.5C655.93 926.6 655.07 934.02 653.96 942C652.86 949.98 651.74 957.51 651.48 958.75C651.21 959.99 650.55 960.77 650 960.5C649.44 960.22 649.24 960.76 649.55 961.75C649.85 962.71 646.71 974.75 642.57 988.5C638.43 1002.25 634.58 1014.29 634.02 1015.25C633.46 1016.21 633 1017.45 633 1018C633 1018.55 629.96 1024.18 626.25 1030.5C622.54 1036.83 619.15 1041.66 618.72 1041.25C618.29 1040.84 617.96 1042.41 617.97 1044.75C618 1048.56 617.14 1050.11 609.75 1059.71C603.21 1068.2 598.95 1072.46 589.25 1080.21C582.51 1085.6 576.55 1090 576 1090C575.45 1090 575.01 1090.56 575.02 1091.25C575.02 1091.94 569.24 1101.95 562.16 1113.5C555.08 1125.05 543.1 1144.63 535.53 1157C527.96 1169.38 520.59 1181.41 519.14 1183.75C517.69 1186.08 515.83 1187.99 515 1187.97C514.17 1187.96 504.73 1185.74 494 1183.04C483.27 1180.34 474.35 1178.21 474.18 1178.31C474 1178.42 479.76 1205.95 486.98 1239.5C494.19 1273.05 500.19 1300.6 500.3 1300.71C500.41 1300.83 509.5 1299.75 520.5 1298.31C531.5 1296.86 541.17 1295.92 542 1296.21C543.2 1296.63 543.97 1302.16 545.85 1324.12C547.14 1339.18 548.39 1351.72 548.63 1352C548.86 1352.28 549.04 1352.28 549.01 1352C548.99 1351.72 551.23 1342.72 554 1332C556.77 1321.28 559.25 1312.39 559.52 1312.25C559.78 1312.11 570.69 1316.72 583.75 1322.49C596.81 1328.26 607.43 1333.32 607.35 1333.74C607.27 1334.16 603.72 1340.35 599.47 1347.5L591.74 1360.5C612.31 1425.6 619.56 1448.55 621.12 1453.5L623.96 1462.5C650.73 1477.93 665.14 1486.37 673.25 1491.2C681.36 1496.04 688.67 1500 689.5 1500C690.33 1500 691.79 1499.56 692.75 1499.03C693.71 1498.49 701.92 1495.84 711 1493.12C720.08 1490.4 729.08 1487.74 731 1487.21C732.92 1486.67 743.73 1483.45 755 1480.05C766.27 1476.65 780 1472.5 785.5 1470.83C794.45 1468.1 798.7 1465.81 826 1449.02C842.77 1438.7 868.88 1422.62 884 1413.28C899.13 1403.94 926.58 1386.96 945 1375.55L978.5 1354.8C994.77 1351.8 1004.23 1350.09 1010 1349.07C1015.77 1348.06 1037.38 1344.18 1058 1340.46C1078.63 1336.75 1095.85 1333.43 1096.28 1333.1C1096.71 1332.77 1101.77 1312.7 1107.53 1288.5C1113.29 1264.3 1118 1244.16 1118 1243.75C1118 1243.34 1118.45 1243 1119 1243C1119.55 1243 1127.54 1248.39 1136.75 1254.97C1145.96 1261.56 1153.61 1266.73 1153.75 1266.47C1153.89 1266.21 1152.27 1262.74 1150.15 1258.75C1148.03 1254.76 1141.17 1242.15 1134.9 1230.72C1128.63 1219.29 1123.72 1209.76 1124 1209.54C1124.28 1209.33 1135.17 1205.63 1148.22 1201.32L1171.94 1193.5C1138.4 1138.47 1128.63 1122.38 1128.58 1122.24C1128.54 1122.1 1127.83 1121.87 1127 1121.73C1126.17 1121.59 1115.49 1114.84 1103.25 1106.74C1091.01 1098.63 1081 1091.78 1081 1091.5C1081 1091.22 1084.59 1083.91 1088.97 1075.25C1093.36 1066.59 1096.96 1058.94 1096.97 1058.25C1096.99 1057.56 1096.55 1057 1096 1057C1095.45 1057 1092.14 1053.96 1088.65 1050.25C1085.16 1046.54 1079.42 1040.33 1075.9 1036.45C1072.38 1032.58 1059.83 1018.9 1048 1006.05C1036.17 993.2 1014.49 969.6 999.82 953.6L973.14 924.5C949.6 829.91 946.31 818.05 944.63 816.41C943.46 815.27 932.38 806.9 920 797.83C907.63 788.75 890.52 776.23 882 770C873.48 763.77 866.27 758.53 866 758.35C865.73 758.17 870.31 747.33 876.19 734.26C882.07 721.19 886.79 710.4 886.69 710.27C886.58 710.14 871.88 712.3 854 715.06C836.13 717.82 813.4 721.4 803.5 723.02C793.6 724.63 785.24 725.63 784.93 725.23C784.61 724.83 781.07 713.25 777.06 699.5C773.04 685.75 769.43 673.98 769.03 673.35C768.56 672.61 764.13 675.7 756.4 682.2Z"
       style="fill:#000000;opacity:1" />
    <path
       id="Path 21"
       class="shp2"
       d="M76.92 691.47L74.5 693.94C80.92 703.67 83.96 708.41 85.39 710.75C86.83 713.09 88.26 714.89 88.58 714.75C88.89 714.61 87.32 708.76 85.08 701.75C82.83 694.74 80.63 689 80.17 689C79.71 689 78.25 690.11 76.92 691.47Z"
       style="fill:#808080;opacity:1" />
    <path
       id="Path 22"
       class="shp1"
       d="M597.5 729.52C592 751.77 587.73 769.98 588 769.98C588.27 769.98 593.67 760.65 600 749.25C606.33 737.85 612.29 727.73 613.25 726.76C614.21 725.79 614.79 724.66 614.54 724.25C614.29 723.84 615.94 720.8 618.22 717.5C620.49 714.2 622.83 711.22 623.42 710.87C624.07 710.5 621.27 705.95 616.5 699.6C612.1 693.75 608.27 688.98 608 689.01C607.73 689.03 603 707.26 597.5 729.52Z"
       style="fill:#000000;opacity:1" />
    <path
       id="Path 23"
       fill-rule="evenodd"
       class="shp2"
       d="M606.73 690.5C606.93 691.05 602.73 708.83 597.4 730C592.08 751.17 587.72 769.17 587.72 770C587.73 770.83 587.36 771.95 586.92 772.5C586.47 773.05 583.72 781.96 580.8 792.31C577.89 802.65 575.84 811.31 576.25 811.56C576.66 811.8 586.34 810.86 597.75 809.46C609.16 808.07 618.56 807.05 618.62 807.21C618.69 807.37 619.72 814.48 620.9 823C622.09 831.52 623.3 839.63 623.59 841C624.03 843.08 622.32 845.58 613.26 856C607.29 862.88 591.5 881.1 578.17 896.5C563.76 913.14 553.93 925.31 553.94 926.5C553.95 927.6 552.64 945.83 551.02 967C549.41 988.17 547.95 1005.55 547.79 1005.61C547.63 1005.68 537.15 1009.16 524.5 1013.36C511.85 1017.56 501.16 1021 500.75 1021C500.34 1021 502.26 1015.49 505.02 1008.75C507.78 1002.01 510.14 996 510.27 995.38C510.4 994.77 503.75 985.18 495.5 974.07C487.25 962.96 480.38 954.46 480.23 955.18C480.08 955.91 484.28 972.7 489.56 992.5C494.85 1012.3 499.36 1029.4 499.58 1030.5C499.91 1032.1 494.36 1037.08 472 1055.25C456.6 1067.76 443.75 1077.89 443.45 1077.75C443.15 1077.61 448.55 1066.14 468 1027L462.5 1016C458.74 1008.48 456.21 1001.67 454.5 994.5C453.13 988.73 452 982.88 452 981.5C452 980.13 451.66 979.01 451.25 979.03C450.84 979.04 436.32 986.04 419 994.57C401.68 1003.1 387.43 1009.95 387.34 1009.79C387.25 1009.63 388.41 990.83 389.91 968C391.42 945.17 392.48 926.27 392.29 926C392.09 925.73 383.63 933.83 373.5 944C363.37 954.17 354.87 962.27 354.63 962C354.38 961.73 345.66 943.95 335.24 922.5C324.82 901.05 299.81 849.64 279.65 808.25C259.49 766.86 243.25 732.66 243.54 732.25C243.84 731.84 258.13 733.89 275.29 736.81C292.46 739.73 306.55 742.21 306.61 742.31C306.68 742.42 317.48 762.87 330.61 787.77C353.11 830.4 354.7 833.13 358 834.41C359.93 835.15 376.91 841.33 429.97 860.5L444.24 846.49C452.08 838.79 491.77 800.31 532.44 760.99C573.1 721.67 606.54 689.95 606.73 690.5ZM318.85 690.5C319.35 691.05 335.84 711.08 391.24 778.5L367.87 778.73C355.02 778.86 344.42 778.86 344.33 778.73C344.23 778.61 338.92 760.73 332.52 739C326.13 717.27 320.23 697.25 319.42 694.5C318.6 691.75 318.35 689.95 318.85 690.5ZM625.5 710.08C626.05 710.1 632.27 711.11 639.32 712.31C646.37 713.52 652.14 714.95 652.13 715.5C652.12 716.05 644.67 718.64 635.56 721.25C622.34 725.04 618.5 725.8 614 724L618.17 717.75C620.47 714.31 622.83 711.17 623.42 710.77C624.02 710.36 624.95 710.05 625.5 710.08ZM176.5 715.42C177.05 715.56 180.73 721.04 184.67 727.59C188.61 734.14 191.65 739.61 191.42 739.75C191.19 739.89 184.25 735.5 161 720L168.25 717.58C172.24 716.25 175.95 715.28 176.5 715.42Z"
       style="fill:#808080;opacity:1" />
    <path
       id="Path 24"
       class="shp0"
       d="M613.77 726.25C612.85 726.94 606.19 738.08 598.96 751C585.85 774.46 585.81 774.53 580.66 792.84C577.62 803.66 575.91 811.36 576.5 811.61C577.05 811.85 586.5 810.88 597.5 809.46C608.5 808.05 617.59 806.8 617.7 806.69C617.81 806.59 624.07 800.42 631.6 793L645.3 779.5C656.72 753.15 660.26 744.71 660.52 743.75C660.87 742.47 660 741.58 657.25 740.44C655.19 739.58 645.17 735.76 635 731.95C624.83 728.14 616.26 725.01 615.97 725.01C615.69 725 614.7 725.56 613.77 726.25Z"
       style="fill:#ffffff;opacity:1" />
    <path
       id="Path 25"
       class="shp1"
       d="M1328.5 728.21C1324.06 730.62 1319.12 731.55 1284.5 736.47C1263.05 739.52 1243.47 742.65 1241 743.44C1238.53 744.22 1229.97 746.5 1222 748.51C1214.03 750.52 1206.83 752.21 1206 752.27C1204.76 752.37 1204.5 754.35 1204.5 763.61C1204.5 769.78 1204.72 774.78 1205 774.71C1205.28 774.63 1219.45 779.21 1236.5 784.87C1253.55 790.52 1267.81 795.46 1268.18 795.83C1268.55 796.2 1265.34 802.35 1261.03 809.5L1253.2 822.5C1198.41 836.99 1180.25 841.82 1177.5 842.59L1172.5 843.98C1168.84 869.18 1167.6 877.74 1167.39 879.25L1167 882C1151.9 876.9 1150.91 876.18 1140.21 865.63L1128.91 854.5C1106.12 850.17 1097.64 848.59 1095.37 848.21C1093.1 847.82 1091.35 847.73 1091.49 848C1091.63 848.27 1096.36 849.85 1102 851.5C1107.64 853.15 1112.4 854.73 1112.59 855C1112.77 855.27 1110.66 863.6 1107.9 873.5C1105.14 883.4 1103.02 891.6 1103.19 891.73C1103.36 891.85 1113.63 888.59 1126 884.47C1138.38 880.36 1148.61 876.99 1148.75 877C1148.89 877 1149 877.45 1149 878C1149 878.55 1142.25 889.13 1134 901.5C1125.75 913.88 1118.55 924 1118 924C1117.45 924 1109.11 919.39 1099.47 913.75C1089.83 908.11 1081.72 903.73 1081.45 904C1081.17 904.27 1078.52 916.2 1075.55 930.5C1072.58 944.8 1070.23 956.58 1070.32 956.68C1070.42 956.78 1086.7 955.75 1106.5 954.39C1126.3 953.03 1144.41 952.05 1146.75 952.21C1149.09 952.37 1151 952.16 1151 951.75C1151 951.34 1151.56 950.98 1152.25 950.96C1152.94 950.94 1153.95 950.34 1154.5 949.63C1155.05 948.92 1172.15 938.38 1192.5 926.2C1212.85 914.03 1230.06 904.05 1230.75 904.03C1231.72 904.01 1232 910.45 1232 933L1232 962C1237.04 962.8 1244.69 963.93 1252.25 965.02C1259.81 966.11 1266.67 967 1267.5 967C1268.43 967 1268.83 966.34 1268.56 965.25C1268.31 964.29 1267.98 961.81 1267.81 959.75L1267.5 956C1285.33 955.22 1299.95 954.13 1311.5 953.07C1323.05 952.02 1332.62 951.45 1332.77 951.83C1332.92 952.2 1334.27 952.32 1335.77 952.09C1337.27 951.86 1347.18 947.36 1357.78 942.09C1368.39 936.82 1377.26 932.73 1377.51 933C1377.75 933.27 1374.24 936.68 1369.72 940.57C1365.2 944.45 1358.91 949.74 1355.75 952.32L1350 957L1372 968L1404 968C1408.41 982.95 1408.7 983.37 1413.5 986.12C1416.25 987.69 1418.84 988.99 1419.25 988.99C1419.66 989 1421.13 986.75 1422.5 984C1423.88 981.25 1425.45 979.23 1426 979.5C1426.55 979.77 1427 979.55 1427 979C1427 978.45 1429.25 978 1432 978C1434.75 978 1436.82 978.34 1436.59 978.75C1436.37 979.16 1439.97 979.39 1444.59 979.25C1449.36 979.11 1453 978.57 1453 978C1453 977.45 1457.61 970.36 1463.25 962.25C1468.88 954.14 1476.98 942.66 1481.25 936.75C1485.51 930.84 1488.78 925.55 1488.5 925C1488.22 924.45 1479.56 920.67 1469.25 916.6C1458.94 912.53 1441.28 905.52 1430 901.02C1418.72 896.51 1409.37 892.75 1409.2 892.66C1409.04 892.57 1409.71 885.67 1410.7 877.31C1411.86 867.53 1412.86 862.41 1413.5 862.93C1414.05 863.37 1422.49 869.87 1432.25 877.37C1442.01 884.86 1450.23 890.89 1450.52 890.75C1450.81 890.61 1447.68 879.02 1443.56 865C1439.45 850.98 1436.18 839.35 1436.29 839.18C1436.41 839 1444.38 839.81 1454 840.97C1463.63 842.13 1472.51 843.29 1473.75 843.54C1474.99 843.79 1475.98 843.66 1475.97 843.25C1475.95 842.84 1470.88 839.29 1464.72 835.37C1458.55 831.45 1427.17 811.7 1395 791.49C1362.83 771.28 1335.9 754.24 1335.16 753.62C1334.09 752.72 1335.93 749.87 1344.41 739.25L1355 726C1334.2 725.52 1333.17 725.68 1328.5 728.21Z"
       style="fill:#000000;opacity:1" />
    <path
       id="Path 26"
       class="shp0"
       d="M1523.24 730.25C1523.55 730.94 1526.59 738.02 1529.99 746C1533.4 753.98 1536.6 760.61 1537.09 760.75C1537.59 760.89 1537.78 761.45 1537.5 762C1537.22 762.55 1537.34 763 1537.75 763.01C1538.16 763.01 1539.52 757.95 1540.76 751.76C1542 745.57 1543.26 739.6 1543.55 738.5C1544.02 736.76 1542.82 736.01 1534.3 732.73C1528.91 730.65 1524.09 728.96 1523.59 728.98C1523.09 728.99 1522.94 729.56 1523.24 730.25ZM1164.19 760.25C1157.06 773.04 1151.52 783.84 1151.87 784.25C1152.21 784.66 1163.97 782.7 1178 779.9C1192.03 777.09 1203.83 774.28 1204.23 773.65C1204.64 773.02 1205 768.45 1205.03 763.5C1205.07 756.25 1204.74 754.09 1203.29 752.37C1202.31 751.2 1196.44 747.26 1190.25 743.62C1184.06 739.98 1178.58 737 1178.07 737C1177.56 737 1171.31 747.46 1164.19 760.25Z"
       style="fill:#ffffff;opacity:1" />
    <path
       id="Path 27"
       class="shp2"
       d="M760 759.49C755.33 760.17 746.89 761.24 741.25 761.86L731 763C731 812.6 730.66 827 730.25 827.01C729.84 827.01 724.44 824.99 718.25 822.51C712.06 820.03 706.55 818 706 818C705.45 818 706.13 821.38 707.5 825.5C708.88 829.63 710.56 832.99 711.25 832.98C711.94 832.97 716.77 831.85 722 830.5C731.13 828.14 732.77 828.04 763.75 828.02C793.96 828 795.97 827.89 795.55 826.25C795.31 825.29 790.47 809.53 784.8 791.23L774.5 757.97C769.85 758.19 764.67 758.81 760 759.49ZM633.66 790.72L623.86 800.5L629.2 838.5L645.3 870.5C657.47 833.69 661.45 823 662 823C662.55 823 663.23 823.67 663.5 824.5C663.77 825.33 670.19 835.24 677.75 846.54C685.31 857.83 691.17 867.39 690.76 867.79C690.36 868.18 685.52 864.79 680.01 860.25C674.51 855.71 669.27 851.66 668.38 851.25C667.06 850.63 666.88 850.95 667.37 853C667.71 854.38 668.92 861.13 670.06 868C671.21 874.88 672.36 880.73 672.62 881C672.88 881.27 677.8 879.14 683.55 876.25C689.3 873.36 698.71 867.51 704.46 863.25C710.21 858.99 714.93 854.94 714.96 854.25C714.98 853.56 714.55 853 714 853C713.45 853 706.36 847.32 698.25 840.38C690.14 833.43 682.04 826.46 680.25 824.88C677.27 822.24 676.36 822 669.25 821.99L661.5 821.98C649.31 789.44 645.78 781.39 644.9 781.22C644.1 781.07 639.04 785.34 633.66 790.72Z"
       style="fill:#808080;opacity:1" />
    <path
       id="Path 28"
       class="shp0"
       d="M1510 792.94C1490.87 797.81 1479.59 801.13 1479.75 801.85C1479.89 802.48 1487.73 813.01 1497.19 825.25C1506.64 837.49 1526.51 863.25 1541.33 882.5C1556.16 901.75 1568.46 917.95 1568.67 918.5C1568.87 919.05 1566.9 920.08 1564.27 920.78C1561.65 921.49 1550.5 924.77 1539.5 928.08C1528.5 931.39 1518.74 934.41 1517.82 934.8C1516.44 935.38 1519.29 940.01 1533.96 961C1543.76 975.02 1551.6 986.61 1551.39 986.75C1551.17 986.89 1546.16 984.12 1540.25 980.61C1534.34 977.09 1523.42 970.57 1516 966.11C1508.58 961.66 1502.16 958.01 1501.75 958.01C1501.34 958 1501 958.56 1501 959.25C1501 959.94 1504.2 972.42 1508.12 987C1512.03 1001.58 1515.63 1014.29 1516.12 1015.25C1516.76 1016.53 1518.22 1017 1521.5 1017C1523.97 1017 1526.01 1017.34 1526.02 1017.75C1526.03 1018.16 1522.83 1025.92 1518.92 1035C1515 1044.08 1511.51 1051.83 1511.15 1052.24C1510.79 1052.64 1508.19 1049.94 1505.36 1046.24C1502.54 1042.53 1494.89 1032.71 1488.36 1024.4C1481.84 1016.1 1471.1 1002.46 1464.5 994.11L1452.5 978.91C1440.49 978.98 1437 979.23 1437 979.5C1437 979.77 1440.6 984.5 1445 990C1449.4 995.5 1452.89 1000.24 1452.75 1000.53C1452.61 1000.83 1446.54 996.1 1439.25 990.03C1431.96 983.96 1425.78 979 1425.5 979C1425.22 979 1423.88 981.25 1422.5 984C1421.13 986.75 1419.66 989 1419.25 988.99C1418.84 988.99 1416.25 987.69 1413.5 986.12C1408.7 983.37 1408.41 982.95 1406.25 975.63L1404 968L1371.5 967.96C1346.7 955.04 1339.05 951.41 1338.5 951.56C1337.95 951.7 1336.38 952.07 1335 952.36C1333.01 952.79 1331.5 954.91 1327.65 962.7L1322.79 972.5C1286.42 964.75 1275.72 962.73 1275.54 963C1275.36 963.27 1279.21 968.56 1284.11 974.75C1289 980.94 1292.89 986.22 1292.75 986.48C1292.61 986.75 1286.2 983.82 1278.5 979.99C1270.8 976.15 1264.28 973 1264 972.99C1263.72 972.98 1261.3 980.74 1258.6 990.24C1255.91 999.73 1253.43 1007.82 1253.1 1008.21C1252.77 1008.61 1248 998.77 1242.5 986.35C1237 973.92 1232.05 963.78 1231.5 963.81C1230.95 963.83 1226 973.78 1220.5 985.92C1215 998.07 1210.28 1007.74 1210 1007.42C1209.72 1007.11 1207.25 995.55 1204.5 981.74L1199.5 956.63C1167.72 953.13 1156.81 951.86 1154.75 951.56C1152.21 951.18 1150.87 951.4 1150.61 952.25C1150.4 952.94 1147.88 968.58 1145.01 987C1142.14 1005.42 1139.73 1020.6 1139.65 1020.73C1139.57 1020.85 1132.53 1018.65 1124 1015.84C1115.47 1013.02 1108.41 1010.67 1108.3 1010.61C1108.19 1010.55 1109.2 1003.08 1110.55 994C1111.9 984.92 1113 977.16 1113 976.75C1113 976.34 1112.55 976 1112 976C1111.45 976 1106.58 982.64 1101.17 990.75L1091.33 1005.5L1096.69 1058.5C1126.23 1117.46 1134.28 1131.86 1150.93 1159L1172.11 1193.5C1192.56 1205.67 1198.61 1209.38 1198.75 1209.6C1198.89 1209.82 1191.83 1220.69 1183.06 1233.75C1174.29 1246.81 1167.43 1257.79 1167.81 1258.15C1168.19 1258.5 1178.4 1262.74 1190.5 1267.56C1202.6 1272.37 1213.17 1276.86 1214 1277.52C1214.83 1278.19 1216.63 1279 1218 1279.32C1219.7 1279.72 1222.99 1283.29 1228.25 1290.45C1232.51 1296.25 1236.34 1300.99 1236.75 1300.97C1237.16 1300.95 1245.83 1294.97 1256 1287.67L1274.5 1274.4C1311.31 1295.01 1322.15 1300.66 1322.33 1300.25C1322.52 1299.84 1319.16 1280.83 1314.87 1258C1310.59 1235.17 1307.17 1216.23 1307.29 1215.89C1307.4 1215.56 1317.96 1219.95 1330.75 1225.64C1343.54 1231.34 1354.22 1235.89 1354.49 1235.75C1354.76 1235.61 1353.93 1219.3 1352.65 1199.5C1351.37 1179.7 1350.47 1163.28 1350.66 1163C1350.85 1162.72 1351.2 1162.72 1351.45 1163C1351.7 1163.28 1354.89 1173.63 1358.55 1186C1362.2 1198.38 1365.48 1208.8 1365.84 1209.17C1366.21 1209.55 1375.95 1211.03 1387.5 1212.48C1399.05 1213.93 1408.58 1214.97 1408.68 1214.8C1408.77 1214.64 1407.75 1202.13 1406.4 1187C1405.06 1171.88 1404.08 1158.9 1404.23 1158.16C1404.38 1157.41 1415.71 1166.57 1430 1179.01C1444.03 1191.22 1461.96 1206.89 1469.86 1213.85L1484.21 1226.5L1500.5 1210.01C1488.42 1185.59 1485.19 1178.28 1485.52 1178C1485.85 1177.72 1497.68 1178.74 1511.81 1180.26C1525.94 1181.78 1537.72 1182.74 1538 1182.41C1538.28 1182.07 1543.05 1151.13 1548.62 1113.65C1554.18 1076.17 1559.03 1043.7 1559.38 1041.5L1560.03 1037.5L1529.67 1017.5L1558.5 1016.95C1575.11 1000.41 1580.23 993.74 1592.51 975.5L1607.98 952.5L1608 935C1574.39 893.54 1560 876.77 1554.34 871L1544.04 860.5C1544 787.44 1543.89 785.01 1542.25 785.09C1541.29 785.14 1526.78 788.68 1510 792.94Z"
       style="fill:#ffffff;opacity:1" />
    <path
       id="Path 29"
       class="shp1"
       d="M620.92 803.52L618.5 805.98C622.67 834.28 623.9 842.84 623.94 843.25C623.97 843.66 625.29 842.99 626.87 841.75C628.45 840.51 629.61 839.27 629.46 839C629.31 838.73 627.98 830.17 626.5 820C625.03 809.83 623.72 801.4 623.58 801.28C623.44 801.16 622.25 802.17 620.92 803.52Z"
       style="fill:#000000;opacity:1" />
    <path
       id="Path 30"
       class="shp0"
       d="M691.25 819.61C682.58 821.3 679.14 822.37 679.47 823.25C679.72 823.94 687.37 830.91 696.47 838.75C705.56 846.59 713.45 853 714 853C714.56 853 713.91 848.75 712.51 843.25C711.13 837.89 709 830.23 707.76 826.23C706.52 822.23 705.16 818.97 704.75 818.98C704.34 818.99 704.17 818.55 704.38 818C704.59 817.45 704.47 817.05 704.13 817.11C703.78 817.16 697.99 818.29 691.25 819.61Z"
       style="fill:#ffffff;opacity:1" />
    <path
       id="Path 31"
       class="shp2"
       d="M1382.38 842.75C1382.7 844.26 1383.87 853.04 1384.98 862.25C1386.09 871.46 1387 879.23 1387 879.5C1387 879.77 1387.34 880.01 1387.75 880.03C1388.16 880.04 1392.21 874.87 1396.75 868.53C1404.81 857.26 1405.05 857.03 1407.25 858.51C1408.49 859.35 1410.07 860.36 1410.76 860.76C1411.45 861.17 1412.19 861.27 1412.39 861C1412.59 860.73 1413.07 856.9 1413.44 852.5L1414.13 844.5C1407.83 853.41 1405.66 856 1405.25 856.01C1404.84 856.01 1399.89 852.41 1394.25 848.01C1388.61 843.6 1383.51 840 1382.9 840C1382.23 840 1382.02 841.07 1382.38 842.75ZM1192 926.58C1171.38 938.95 1154.37 949.62 1154.22 950.29C1154.02 951.16 1160.42 952.21 1176.67 954L1199.41 956.5C1207.23 995.52 1209.72 1007.11 1210 1007.42C1210.28 1007.74 1215.04 997.99 1220.58 985.75C1226.12 973.51 1231.07 963.56 1231.58 963.63C1232.09 963.7 1237 973.92 1242.5 986.35C1248 998.77 1252.77 1008.61 1253.1 1008.21C1253.43 1007.82 1255.91 999.73 1258.6 990.24C1261.3 980.74 1263.72 972.98 1264 972.99C1264.28 973 1270.8 976.15 1278.5 979.99C1286.2 983.82 1292.61 986.75 1292.75 986.48C1292.89 986.22 1289 980.94 1284.11 974.75C1279.21 968.56 1275.36 963.27 1275.54 963C1275.72 962.73 1286.42 964.75 1299.31 967.5L1322.76 972.5C1330.76 956.23 1332.95 951.42 1332.79 951.33C1332.63 951.24 1323.05 952.03 1311.5 953.08C1299.95 954.13 1285.33 955.22 1279 955.5L1267.5 956C1267.98 961.81 1268.31 964.29 1268.56 965.25C1268.83 966.34 1268.43 967 1267.5 967C1266.67 967 1259.81 966.11 1252.25 965.02C1244.69 963.93 1237.04 962.8 1235.25 962.52L1232 962C1232 910.45 1231.72 904.01 1230.75 904.03C1230.06 904.05 1212.63 914.2 1192 926.58ZM630 920.5C630 920.77 632.25 925.5 635 931C637.75 936.5 639.66 941 639.25 941C638.84 940.99 628.15 942.16 615.5 943.58C602.85 945.01 592.24 946.47 591.92 946.84C591.61 947.2 587.78 969.64 583.42 996.7C579.07 1023.77 575.73 1046.13 576 1046.4C576.27 1046.66 582.35 1040.05 589.5 1031.69C596.65 1023.34 607.26 1011.55 613.07 1005.5L623.64 994.5C635.93 953.81 639.73 941.99 640 941.99C640.27 941.99 642.7 946.37 645.38 951.74C649.41 959.8 650.41 961.15 651.08 959.5C651.52 958.4 652.84 950.3 654.01 941.5C655.18 932.7 655.84 925.27 655.47 925C655.11 924.73 650.02 923.51 644.16 922.29C638.3 921.08 632.71 920.07 631.75 920.04C630.79 920.02 630 920.23 630 920.5ZM1358.28 941.46C1348.3 946.43 1340.1 950.73 1340.05 951C1340 951.27 1342 952.51 1344.48 953.75C1346.97 954.99 1349.56 956 1350.25 955.99C1350.94 955.99 1356.9 951.45 1363.5 945.92C1370.1 940.39 1376.17 935.26 1377 934.54C1377.89 933.76 1378.08 933.06 1377.47 932.82C1376.9 932.6 1368.27 936.48 1358.28 941.46Z"
       style="fill:#808080;opacity:1" />
    <path
       id="Path 32"
       class="shp1"
       d="M479.97 955C479.98 955.83 484.27 972.7 489.51 992.5C494.75 1012.3 499.27 1028.72 499.55 1029C499.83 1029.28 500.04 1027.81 500.03 1025.75C500.01 1023.62 500.54 1021.82 501.25 1021.58C502.25 1021.24 502.25 1021.14 501.25 1021.08C500.44 1021.03 501.89 1016.34 505.38 1007.75L510.76 994.5C504.41 985.98 497.88 977.2 492.15 969.5C486.42 961.8 481.34 955.05 480.85 954.5C480.29 953.86 479.97 954.04 479.97 955Z"
       style="fill:#000000;opacity:1" />
    <path
       id="Path 33"
       class="shp2"
       d="M1427 979C1427 979.55 1432.74 984.74 1439.75 990.54C1446.76 996.34 1452.61 1000.84 1452.75 1000.54C1452.89 1000.24 1449.29 995.39 1444.75 989.75C1440.21 984.11 1436.61 979.16 1436.75 978.75C1436.89 978.34 1434.75 978 1432 978C1429.25 978 1427 978.45 1427 979ZM1570.22 1005.22L1564.97 1010.5C1577.01 1026.43 1580.64 1030.93 1580.81 1030.78C1580.98 1030.63 1580.17 1024.42 1579.01 1017C1577.85 1009.58 1576.57 1002.7 1576.18 1001.72C1575.57 1000.2 1574.69 1000.71 1570.22 1005.22Z"
       style="fill:#808080;opacity:1" />
    <path
       id="Path 34"
       class="shp1"
       d="M1561.67 1013.75C1560.19 1015.26 1559.17 1016.73 1559.42 1017C1559.66 1017.27 1561.02 1024.25 1562.44 1032.5C1563.87 1040.75 1565.14 1047.6 1565.26 1047.72C1565.39 1047.84 1569.03 1044.47 1573.35 1040.22L1581.21 1032.5C1569.67 1015.84 1565.88 1011 1565.34 1011C1564.81 1011 1563.15 1012.24 1561.67 1013.75Z"
       style="fill:#000000;opacity:1" />
    <path
       id="Path 35"
       fill-rule="evenodd"
       class="shp2"
       d="M631.75 1017.09C632.44 1017.04 633 1017.45 633 1018C633 1018.55 629.9 1024.29 626.11 1030.75C621.1 1039.29 619 1042.09 618.42 1041C617.98 1040.17 616.58 1035.56 615.31 1030.75C613.55 1024.07 613.3 1021.89 614.25 1021.53C614.94 1021.28 618.88 1020.19 623 1019.12C627.13 1018.06 631.06 1017.14 631.75 1017.09ZM1545 1017C1553.25 1017 1560 1017.34 1560.01 1017.75C1560.01 1018.16 1561.09 1024.8 1562.4 1032.5C1563.71 1040.2 1568.47 1060.22 1572.99 1077C1578.26 1096.6 1581.98 1108.57 1583.39 1110.5C1584.6 1112.15 1587.02 1115.75 1591.96 1123.5L1586.44 1142.5C1583.4 1152.95 1580.82 1161.58 1580.71 1161.67C1580.59 1161.76 1571.28 1166.39 1560 1171.97C1548.72 1177.54 1539.25 1181.97 1538.95 1181.8C1538.65 1181.64 1542.97 1150.9 1548.57 1113.5C1554.16 1076.1 1559.03 1043.7 1560.03 1037.5L1544.98 1027.5C1536.7 1022 1529.94 1017.39 1529.96 1017.25C1529.98 1017.11 1536.75 1017 1545 1017ZM1317.74 1022C1317.88 1022 1327.11 1027.7 1338.25 1034.66C1349.39 1041.62 1358.88 1047.58 1359.33 1047.91C1359.79 1048.23 1355.6 1058.85 1350.02 1071.5C1344.43 1084.15 1339.56 1094.87 1339.18 1095.33C1338.81 1095.78 1334 1095.64 1328.5 1095.01C1323 1094.38 1313.33 1093.23 1307 1092.47C1300.67 1091.7 1286.5 1089.93 1275.5 1088.55C1264.5 1087.16 1255.05 1086.02 1254.5 1086.02C1253.95 1086.01 1267.9 1071.6 1285.49 1054C1303.09 1036.4 1317.6 1022 1317.74 1022ZM533.96 1043.46C534.81 1043.71 543.6 1045.96 553.5 1048.44C563.4 1050.93 572.17 1052.98 573 1052.99C574 1053 574.46 1053.93 574.38 1055.75C574.31 1057.26 574.15 1058.72 574.01 1059C573.87 1059.28 573.8 1059.72 573.84 1060C573.89 1060.28 573.04 1063.76 570 1075L575.5 1091.82L566.39 1106.66C561.38 1114.82 551.76 1130.5 545 1141.5C538.24 1152.5 529.07 1167.47 524.61 1174.77C519.89 1182.48 515.87 1188.02 515 1187.99C514.17 1187.97 504.73 1185.74 494 1183.04C483.27 1180.34 474.35 1178.21 474.18 1178.31C474 1178.42 479.76 1205.95 486.98 1239.5C494.19 1273.05 500.19 1300.6 500.3 1300.71C500.41 1300.83 509.5 1299.75 520.5 1298.31C531.5 1296.86 541.17 1295.92 542 1296.21C543.2 1296.63 543.95 1302.07 545.78 1323.62C547.04 1338.4 548.04 1350.95 548 1351.5C547.97 1352.05 548.16 1352.28 548.42 1352C548.68 1351.72 551.18 1342.72 553.97 1332C556.75 1321.28 559.25 1312.39 559.52 1312.25C559.78 1312.11 570.69 1316.72 583.75 1322.49C596.81 1328.26 607.43 1333.32 607.35 1333.74C607.27 1334.16 603.72 1340.35 591.74 1360.5L607.51 1410.5C616.18 1438 623.55 1461.08 623.89 1461.78C624.33 1462.71 622.85 1462.55 618.5 1461.2C615.2 1460.17 595.63 1454.05 537.5 1435.85L520.31 1410.67C510.85 1396.83 495.13 1373.8 467.61 1333.5L457.3 1302.5L428.15 1257.25C412.12 1232.36 398.99 1211.44 398.97 1210.75C398.95 1210.06 411.21 1203.81 426.22 1196.85C441.22 1189.9 456.77 1182.7 468.05 1177.5L440.98 1139.5L489 1108L488.98 1080.25C488.97 1057.84 489.21 1052.75 490.23 1053.8C490.93 1054.51 495.55 1067.53 500.5 1082.71C505.45 1097.9 509.95 1110.48 510.5 1110.66C511.05 1110.85 516.21 1095.7 521.96 1077C530.36 1049.7 532.72 1043.09 533.96 1043.46ZM1112.7 1090.15C1121.05 1106.84 1127.92 1120.84 1127.95 1121.25C1127.98 1121.66 1127.44 1121.88 1126.75 1121.74C1126.06 1121.59 1115.49 1114.84 1103.25 1106.74C1091.01 1098.63 1081 1091.78 1081 1091.5C1081 1091.22 1084.2 1084.59 1088.11 1076.75C1092.02 1068.91 1095.74 1061.89 1096.36 1061.15C1097.25 1060.09 1100.77 1066.34 1112.7 1090.15ZM430.28 1097.13C438.65 1102.71 445.59 1107.33 445.7 1107.39C445.82 1107.45 440.29 1110.88 433.43 1115C426.56 1119.13 420.63 1122.5 420.24 1122.5C419.86 1122.5 418.55 1115.75 417.34 1107.5C416.14 1099.25 415.13 1091.26 415.1 1089.73C415.06 1087.05 415.48 1087.25 430.28 1097.13Z"
       style="fill:#808080;opacity:1" />
    <path
       id="Path 36"
       class="shp1"
       d="M492.3 1139.71L474.22 1160.5C505.74 1160.92 515.13 1160.92 515.41 1160.77C515.7 1160.62 514.81 1151.5 513.44 1140.5C512.07 1129.5 510.82 1120.14 510.67 1119.71C510.51 1119.27 502.25 1128.27 492.3 1139.71ZM1591.67 1125.14C1591.35 1125.89 1588.86 1134.15 1586.15 1143.5C1583.43 1152.85 1581.28 1160.63 1581.36 1160.8C1581.44 1160.96 1586.45 1160.14 1592.5 1158.97C1598.55 1157.8 1604.51 1156.65 1605.75 1156.42C1607.91 1156.02 1608 1155.59 1608.04 1145.25L1608.08 1134.5C1599.88 1128.95 1596.32 1126.54 1594.88 1125.56C1592.77 1124.12 1592.15 1124.04 1591.67 1125.14Z"
       style="fill:#000000;opacity:1" />
    <path
       id="Path 37"
       class="shp2"
       d="M701.48 1172.01C694.44 1186.09 693.68 1188.14 695 1189.39C695.83 1190.17 703.02 1196.23 711 1202.87C718.98 1209.51 725.61 1214.84 725.76 1214.72C725.9 1214.6 722.56 1201.67 718.34 1186C714.12 1170.33 710.4 1157.17 710.07 1156.77C709.74 1156.36 705.87 1163.22 701.48 1172.01ZM1404.24 1158.63C1404.12 1159.66 1405.11 1172.65 1406.44 1187.5C1407.77 1202.35 1408.77 1214.64 1408.68 1214.8C1408.58 1214.97 1399.05 1213.93 1387.5 1212.48C1375.95 1211.03 1366.21 1209.55 1365.84 1209.17C1365.48 1208.8 1362.2 1198.38 1358.55 1186C1354.89 1173.63 1351.7 1163.28 1351.45 1163C1351.2 1162.72 1350.85 1162.72 1350.66 1163C1350.47 1163.28 1351.37 1179.7 1352.65 1199.5C1353.93 1219.3 1354.76 1235.61 1354.49 1235.75C1354.22 1235.89 1343.54 1231.34 1330.75 1225.64C1317.96 1219.95 1307.4 1215.56 1307.29 1215.89C1307.17 1216.23 1310.59 1235.17 1314.87 1258C1319.16 1280.83 1322.52 1299.84 1322.33 1300.25C1322.15 1300.66 1311.31 1295.01 1298.25 1287.7L1274.5 1274.4C1246.6 1294.34 1238.38 1300.43 1238.22 1300.81C1238.07 1301.19 1239.65 1301.85 1241.72 1302.28C1243.8 1302.71 1252.47 1304.39 1261 1306.01C1269.53 1307.64 1288.42 1311.25 1303 1314.04C1317.58 1316.83 1333.33 1319.78 1338 1320.59C1342.67 1321.4 1347.17 1322.29 1348 1322.57C1349 1322.91 1354.71 1317.31 1365.11 1305.79C1373.69 1296.28 1383.37 1285.47 1386.61 1281.76C1389.85 1278.05 1393.17 1275.01 1394 1275C1394.83 1274.99 1400.67 1275.88 1407 1276.97C1413.33 1278.05 1421.42 1279.42 1425 1280C1428.58 1280.58 1436.67 1281.95 1443 1283.03C1449.33 1284.12 1455.17 1285.03 1456 1285.04C1456.98 1285.06 1460.08 1279.41 1464.92 1268.79C1469 1259.83 1474.67 1247.55 1477.51 1241.5C1480.35 1235.45 1482.98 1229.49 1483.34 1228.25C1483.91 1226.3 1482.09 1224.34 1469.75 1213.61C1461.91 1206.79 1444.69 1191.83 1431.48 1180.36C1418.28 1168.89 1406.79 1158.88 1405.97 1158.13C1404.68 1156.95 1404.43 1157.02 1404.24 1158.63ZM742.24 1161.38C742.11 1161.72 743.37 1167.96 745.04 1175.25C746.71 1182.54 748.29 1188.95 748.54 1189.5C748.8 1190.05 748.78 1188.81 748.5 1186.75L748 1183C777.84 1198.46 787.06 1202.96 787.75 1202.97C788.44 1202.99 782.14 1196.83 773.75 1189.3C765.36 1181.76 754.9 1172.26 750.49 1168.17C746.08 1164.09 742.37 1161.03 742.24 1161.38ZM1485 1178.5C1485 1178.78 1488.38 1185.75 1492.5 1194C1496.63 1202.25 1500.45 1209 1501 1209C1501.55 1209 1509.88 1203.38 1519.5 1196.5C1529.13 1189.63 1536.89 1183.79 1536.75 1183.54C1536.61 1183.29 1525.92 1181.94 1513 1180.54C1500.08 1179.14 1488.49 1178 1487.25 1178C1486.01 1178 1485 1178.22 1485 1178.5ZM531.98 1190.5C531.99 1191.6 530.86 1211.4 529.47 1234.5C528.07 1257.6 527.06 1277.13 527.22 1277.9C527.39 1278.75 534.79 1273.07 546 1263.49C556.17 1254.79 564.36 1247.18 564.18 1246.59C564 1245.99 557.11 1233.13 548.85 1218C540.6 1202.88 533.43 1190.05 532.91 1189.5C532.3 1188.85 531.97 1189.21 531.98 1190.5ZM1147 1201.6C1134.63 1205.76 1124.28 1209.34 1124 1209.56C1123.72 1209.77 1128.51 1219.07 1134.64 1230.22C1140.77 1241.38 1147.93 1254.55 1150.56 1259.5C1153.19 1264.45 1155.38 1268.59 1155.42 1268.71C1155.46 1268.82 1167.65 1270.96 1182.5 1273.46C1197.35 1275.96 1210.85 1278.28 1212.5 1278.61C1215.01 1279.11 1215.29 1278.99 1214.18 1277.86C1213.45 1277.11 1202.65 1272.39 1190.18 1267.37C1177.71 1262.35 1167.57 1257.85 1167.66 1257.37C1167.75 1256.89 1174.83 1246.04 1183.41 1233.25C1191.98 1220.46 1198.89 1209.82 1198.75 1209.6C1198.61 1209.39 1192.88 1205.8 1186 1201.64C1179.13 1197.48 1172.6 1194.06 1171.5 1194.05C1170.4 1194.04 1159.38 1197.43 1147 1201.6Z"
       style="fill:#808080;opacity:1" />
    <path
       id="Path 38"
       class="shp1"
       d="M501 1303C501 1303.55 503.05 1312.21 505.55 1322.25C508.06 1332.29 510.33 1341.17 510.59 1342C510.88 1342.92 515.08 1337.49 521.42 1328C527.12 1319.47 531.49 1312.22 531.14 1311.87C530.79 1311.53 524.2 1309.17 516.5 1306.62C508.8 1304.08 502.16 1302 501.75 1302C501.34 1302 501 1302.45 501 1303ZM498.6 1359.22C499.76 1360.48 511.18 1374.1 523.98 1389.5C536.78 1404.9 547.53 1417.87 547.87 1418.31C548.22 1418.76 555.7 1415.56 564.5 1411.21C580.29 1403.41 580.47 1403.28 578 1401.78C576.63 1400.95 562 1392.69 545.5 1383.44C529 1374.19 511.56 1364.46 506.75 1361.81C501.94 1359.17 497.66 1356.99 497.25 1356.97C496.84 1356.96 497.45 1357.97 498.6 1359.22Z"
       style="fill:#000000;opacity:1" />
  </g>
</svg>
