<?xml version="1.0" encoding="UTF-8" standalone="no"?>
<svg
   version="1.2"
   viewBox="0 0 1192 1500"
   width="1192"
   height="1500"
   id="svg1"
   sodipodi:docname="marxo.svg"
   inkscape:version="1.4 (86a8ad7, 2024-10-11)"
   xmlns:inkscape="http://www.inkscape.org/namespaces/inkscape"
   xmlns:sodipodi="http://sodipodi.sourceforge.net/DTD/sodipodi-0.dtd"
   xmlns="http://www.w3.org/2000/svg"
   xmlns:svg="http://www.w3.org/2000/svg">
  <defs
     id="defs1" />
  <sodipodi:namedview
     id="namedview1"
     pagecolor="#505050"
     bordercolor="#eeeeee"
     borderopacity="1"
     inkscape:showpageshadow="0"
     inkscape:pageopacity="0"
     inkscape:pagecheckerboard="0"
     inkscape:deskcolor="#505050"
     inkscape:zoom="0.55"
     inkscape:cx="596.36364"
     inkscape:cy="750"
     inkscape:window-width="1920"
     inkscape:window-height="1027"
     inkscape:window-x="1912"
     inkscape:window-y="-8"
     inkscape:window-maximized="1"
     inkscape:current-layer="svg1" />
  <title
     id="title1">35 Scrisori, Ianuarie 1881 14 martie 1883-1</title>
  <style
     id="style1">
		tspan { white-space:pre }
		.shp0 { opacity: 0.996;fill: #ffffff } 
		.shp1 { fill: #7f7f7f } 
		.shp2 { fill: #000000 } 
	</style>
  <g
     id="Layer 3">
    <path
       id="Path 0"
       class="shp0"
       d="M604.5 0.55C603.4 0.75 595.52 1.62 587 2.48C578.48 3.35 562.5 4.94 551.5 6.02C540.5 7.1 520.02 9.1 506 10.47C491.98 11.85 476.45 13.42 471.5 13.96C466.55 14.51 459.35 15.24 455.5 15.58L448.5 16.2C415.18 41.73 390.43 60.67 372 74.76C353.57 88.85 330.18 106.78 320 114.62C309.82 122.45 284.55 141.83 263.83 157.68C243.11 173.53 221.29 190.2 215.33 194.73L204.5 202.96C191.87 225.85 173.82 258.82 156.23 291C138.65 323.18 120.26 358.21 115.38 368.86L106.5 388.21L113.28 415.5L79.5 515.84C48.5 550.43 35.79 564.64 31.25 569.74L23 579L36 663L0.02 705.5C0.1 724.88 0.66 746.77 1.31 766.66C1.97 786.56 2.73 803.09 3 803.41C3.28 803.73 11.6 803.29 21.5 802.42C31.4 801.56 39.77 801.22 40.1 801.68C40.44 802.13 47.86 819.09 56.6 839.37C65.35 859.64 72.84 876.41 73.25 876.62C73.66 876.83 79.77 875.54 86.83 873.75L99.66 870.5C111.94 881.24 124.05 891.87 134.5 901.05L153.5 917.73L166.84 954.5L156.84 1113.5C166.93 1141.4 170 1150.04 170.18 1150.69C170.36 1151.35 166.34 1153.93 161.25 1156.44C156.16 1158.95 151.55 1161 151 1161C150.45 1161 148.45 1157.96 146.55 1154.25C144.65 1150.54 143.08 1147.95 143.06 1148.5C143.04 1149.05 147.63 1161.38 153.26 1175.89L163.5 1202.28C184.43 1212.87 191.42 1216.74 192.55 1217.72C193.67 1218.7 199.83 1231.42 206.22 1246C212.62 1260.58 220.76 1279.25 224.32 1287.5C227.87 1295.75 232.17 1307 233.87 1312.5L236.97 1322.5C251.33 1326.87 259.55 1329.41 264.5 1330.95C269.45 1332.5 282.05 1336.52 292.5 1339.9C302.95 1343.28 311.56 1346.14 311.63 1346.27C311.71 1346.4 319.08 1358.42 328.02 1373C336.96 1387.58 349.05 1407.22 354.88 1416.65L365.5 1433.8C396.8 1449.41 407.46 1455.55 413.25 1459.81C418.34 1463.56 426.77 1469.7 432 1473.46L441.5 1480.31C452.35 1477.53 464.27 1474.36 475 1471.46C485.73 1468.57 502.15 1464.15 511.5 1461.63C525.27 1457.94 532.78 1455.15 551 1446.96C563.38 1441.41 578.59 1434.53 584.8 1431.68C591.02 1428.83 596.29 1425.83 596.51 1425C596.73 1424.17 597.6 1419.45 598.45 1414.5L599.99 1405.5L632.83 1372.5C647.3 1381.65 657.58 1387.98 665 1392.48C674.17 1398.03 680.59 1401.19 685 1402.33C688.58 1403.25 702.3 1406.85 715.5 1410.32L739.5 1416.63C780.58 1445.1 794.52 1454.78 797 1456.51C799.48 1458.24 809.83 1465.44 820 1472.52C830.17 1479.61 843 1488.52 848.5 1492.33C854 1496.14 858.95 1499.45 859.5 1499.68C860.05 1499.92 865.34 1485.8 871.25 1468.31C877.16 1450.81 883.37 1432.67 885.04 1428L888.07 1419.5C903.13 1410.46 920.17 1400.11 935.66 1390.67L963.82 1373.5C979.07 1348.06 983.95 1340.55 984.5 1340.4C985.05 1340.25 988.65 1343.92 992.5 1348.55C996.35 1353.18 1000.63 1358.34 1002 1360.02L1004.5 1363.09L1021.5 1339.93L1034.5 1339.97C1042.03 1318.68 1045.07 1310.14 1046.11 1307.25C1047.15 1304.36 1048.34 1302.19 1048.75 1302.42C1049.16 1302.65 1058.72 1304.91 1070 1307.44C1081.28 1309.97 1090.58 1311.92 1090.68 1311.77C1090.78 1311.62 1090.92 1293.05 1091 1270.5C1091.1 1240.81 1090.75 1225.91 1089.71 1216.5C1088.32 1203.85 1088.41 1201.39 1093.13 1125.5C1095.79 1082.6 1098.09 1046.92 1098.24 1046.22C1098.38 1045.52 1108.96 1056.88 1121.75 1071.47C1134.54 1086.06 1144.99 1097.66 1144.98 1097.25C1144.97 1096.84 1142.06 1087.05 1138.52 1075.5L1132.07 1054.5L1148.82 998.5C1125.81 975.4 1121.97 970.92 1123 970.6C1123.83 970.34 1132.83 968.27 1143 966.01C1153.17 963.75 1162.33 961.59 1163.34 961.2C1164.87 960.62 1164.12 959.68 1158.84 955.54C1155.35 952.82 1145.97 945.58 1138 939.45C1123.79 928.54 1122.98 928.08 1097.5 916.59C1083.2 910.15 1061.93 900.51 1050.23 895.18C1038.54 889.86 1029.31 885.38 1029.73 885.24C1030.16 885.09 1041.75 888.85 1055.5 893.59C1069.25 898.34 1085.79 903.97 1092.25 906.11C1098.71 908.25 1104.23 909.89 1104.51 909.75C1104.78 909.61 1107.29 900.5 1110.09 889.5L1115.16 869.5L1108.75 837.5C1084.92 822 1072.84 814.13 1066.54 810C1060.23 805.88 1047.63 797.66 1038.54 791.75C1029.44 785.84 1021.81 781.11 1021.59 781.25C1021.36 781.39 1019.72 801.08 1017.93 825C1016.15 848.92 1014.3 868.95 1013.82 869.5C1013.24 870.16 1004.2 869.38 987.22 867.21C973.08 865.41 961.43 864.06 961.34 864.21C961.25 864.37 965.41 877.89 970.59 894.25C975.76 910.61 979.77 924.45 979.5 925C979.23 925.55 979.45 926.23 980 926.5C980.55 926.77 980.99 927.79 980.99 928.75C980.98 929.71 985.14 935.04 990.24 940.59C995.33 946.15 1005.69 957.28 1013.25 965.34C1020.81 973.4 1027 980.34 1027 980.75C1027 981.16 1002.37 994.18 972.25 1009.68L917.5 1037.87C914.91 1056.18 913.41 1066.67 912.5 1073C911.57 1079.47 910.48 1084.06 910.01 1083.5C909.55 1082.95 901.65 1069 892.45 1052.5C883.25 1036 873.09 1017.66 869.86 1011.75L864 1001C850.32 1015.34 839.16 1027.15 830.36 1036.5C821.57 1045.85 814.02 1053.72 813.59 1054C813.17 1054.28 796.32 1042.43 776.16 1027.68L739.5 1000.85L725.5 1007.92C704.28 1005.27 697.75 1004.86 697.31 1005.29C696.86 1005.72 698.65 1016.75 701.29 1029.79C703.92 1042.83 705.95 1053.57 705.79 1053.66C705.63 1053.75 697.42 1044.97 687.55 1034.16L669.6 1014.5C656.83 1075.72 652.31 1097.44 651.31 1102.26C650.32 1107.07 649.27 1111.03 649 1111.04C648.73 1111.06 638.94 1101.38 627.25 1089.53L606 1068C623.79 1045.14 628.63 1038.2 628.23 1037.83C627.83 1037.46 612.65 1030.31 594.5 1021.95C576.35 1013.58 550.02 1001.46 536 995C521.98 988.55 508.25 982.2 505.5 980.89C502.75 979.57 500.27 978.24 500 977.93C499.73 977.61 493.2 976.56 485.5 975.6C477.8 974.64 470.38 973.74 469 973.6C467.63 973.47 453 970.3 436.5 966.56C420 962.82 398.18 957.86 388 955.54C377.82 953.22 369.5 950.83 369.5 950.23C369.5 949.64 374.97 942.48 381.66 934.32C388.35 926.17 394.99 918.26 396.41 916.75C398.84 914.17 399 913.41 398.93 904.25C398.88 896.15 399.45 892.3 402.33 881.5C404.41 873.71 408.25 863.09 411.92 855C415.29 847.58 418.03 841.16 418.02 840.75C418.01 840.34 409.37 830.66 398.83 819.25C388.29 807.84 378.59 797.38 377.28 796L374.9 793.5C384.66 787.86 392.23 783.54 398 780.26C403.77 776.98 420.65 767.42 435.5 759.03C450.35 750.63 465.31 742.24 468.75 740.38L475 737L475 683C471.51 683.78 461.95 685.61 451.5 687.58C441.05 689.55 430.25 691.53 427.5 691.98C424.75 692.43 422.36 692.73 422.19 692.65C422.02 692.57 428.44 671.46 436.44 645.75C444.45 620.04 451 598.33 451 597.5C451 596.67 450.66 596 450.25 596C449.84 596 440.95 596.72 430.5 597.6L411.5 599.2C383.6 614.51 374.71 618.96 373.75 618.98C372.79 618.99 353.89 616.1 331.75 612.56C309.61 609.01 291.46 606.2 291.42 606.31C291.38 606.41 292.73 619.63 294.42 635.68C296.11 651.73 297.95 665.33 298.5 665.89C299.05 666.46 309.63 671.25 322 676.55C334.38 681.85 344.61 686.26 344.75 686.35C344.89 686.43 336 692.46 325 699.75C314 707.04 304.82 712.89 304.6 712.75C304.37 712.61 295.1 688.65 283.98 659.5C272.87 630.35 263.15 604.81 262.39 602.75L261 599C279.29 583.11 304.16 561.33 328.05 540.35L371.5 502.21C424.98 500.45 459.4 499.3 482.5 498.51C505.6 497.72 535.3 496.82 548.5 496.49C561.7 496.17 573.96 495.7 575.75 495.45L579 495L579 613C525.14 651.99 508.66 664.02 507.63 664.9C505.84 666.44 506.07 667.07 513.75 681.5C518.14 689.75 530.63 713.38 541.51 734C552.38 754.63 561.56 771.86 561.89 772.31C562.23 772.75 566.97 768.03 572.43 761.81C577.89 755.59 582.39 750.42 582.43 750.31C582.47 750.21 587.67 751.6 594 753.4C603.62 756.15 607.01 757.69 614.75 762.84C619.84 766.23 624.67 769.23 625.5 769.5C626.52 769.84 627.6 768.65 628.89 765.75C629.93 763.41 640.21 745.52 651.73 726L672.68 690.5C662.06 620.94 659.19 605.04 657.93 602.25C656.87 599.91 653.78 589.11 651.07 578.25C648.35 567.39 643.86 552.42 641.08 545L636.03 531.5C638.53 496.63 639.53 486.18 639.88 485.79C640.22 485.4 669.52 475.39 705 463.55C740.48 451.7 769.61 442.01 769.75 442C769.89 442 765.5 435.25 760 427C752.67 416.01 750.33 411.77 751.25 411.14C751.94 410.67 768.25 402.48 787.5 392.94C806.75 383.4 822.73 375.43 823 375.23C823.27 375.03 822.54 374.11 821.36 373.18C820.19 372.26 804.71 358.9 786.97 343.5C769.23 328.1 753.08 314.15 751.07 312.5C749.07 310.85 742.59 305.23 736.67 300C730.75 294.77 725.93 289.82 725.95 289C725.98 288.18 724.62 270.4 722.95 249.5C721.27 228.6 720.26 211.2 720.7 210.83C721.14 210.46 728.7 206.54 737.5 202.12C746.3 197.7 753.05 194.06 752.5 194.04C751.95 194.01 734.85 190.36 714.5 185.91C694.15 181.47 677.16 177.53 676.75 177.16C676.33 176.8 673.07 165.47 669.49 152C665.92 138.53 663.11 127.39 663.25 127.26C663.39 127.13 679.92 125.46 700 123.54C720.08 121.63 743.92 119.35 753 118.48C762.08 117.61 776.48 116.25 785 115.46C793.52 114.67 801.29 114.02 802.25 114.01C803.26 114.01 826.54 137.3 857.25 169.05L910.5 224.09C950.51 307.33 966.53 340.73 971.92 352C977.31 363.27 993.52 397.25 1007.94 427.5C1029.06 471.81 1033.9 482.72 1032.83 483.62C1032.1 484.23 1023.29 490.87 1013.25 498.37C1003.21 505.87 995.01 512.56 995.02 513.25C995.02 513.94 998.51 528.74 1002.77 546.14C1007.02 563.54 1010.89 578.16 1011.37 578.64C1011.84 579.11 1020.84 581.16 1031.37 583.19C1041.89 585.23 1064.67 589.64 1082 593C1099.33 596.35 1117.44 599.87 1122.25 600.8C1127.06 601.74 1130.89 602.79 1130.75 603.14C1130.61 603.5 1123.05 610.25 1113.94 618.14C1104.83 626.04 1093.95 635.42 1089.76 639C1085.58 642.58 1082.12 645.73 1082.09 646C1082.06 646.27 1092.02 650.77 1104.23 656L1126.43 665.5C1083.82 665.98 1082 666.14 1081.99 667.75C1081.99 668.71 1083.38 680.08 1085.08 693C1086.78 705.92 1088.47 716.78 1088.83 717.11C1089.2 717.45 1099.85 727.09 1112.5 738.54C1125.15 749.98 1137.75 761.37 1140.5 763.85C1143.25 766.33 1148.42 771.11 1152 774.47C1158.48 780.55 1158.54 780.58 1171.69 784.04C1178.94 785.94 1185.05 787.27 1185.26 787C1185.48 786.73 1184.94 776.15 1184.07 763.5L1182.49 740.5C1161.57 690.51 1155.28 676.01 1155 676.03C1154.72 676.05 1146.17 671.27 1136 665.41C1125.83 659.55 1116.97 654.25 1116.32 653.63C1115.43 652.78 1118.24 649.69 1127.79 641C1134.75 634.67 1143.88 626.35 1148.09 622.5L1155.74 615.5C1166.22 586.83 1171.41 572.88 1174.03 566C1177.61 556.63 1179.24 550.49 1180.55 541.5C1182.19 530.2 1182.2 528.51 1180.64 512.5C1179.72 503.15 1178.87 495.45 1178.74 495.39C1178.61 495.33 1169.72 490.83 1159 485.4C1144.73 478.17 1138.49 474.45 1135.74 471.51C1133.68 469.31 1119.31 451.07 1103.81 431C1088.32 410.93 1066.49 382.69 1055.32 368.25C1044.14 353.81 1035 341.55 1035 341C1035 340.45 1040.21 326.61 1046.59 310.25L1058.17 280.5C1026.8 212.3 1013.56 183.5 1008.51 172.5C1003.47 161.5 995.32 143.77 990.42 133.11L981.5 113.72C959.8 97.68 945.63 87.15 936 79.96L918.5 66.89C879.75 67.82 857.02 68.53 843 69.08L817.5 70.07C808.98 63.91 803.58 60.09 800 57.6C794.36 53.67 790.58 52.2 771.5 46.47C759.4 42.84 742.3 37.68 733.5 35C724.7 32.33 705.58 26.54 691 22.14C676.42 17.74 654.6 11.1 642.5 7.36C625.35 2.08 618.96 0.54 613.5 0.39C609.65 0.29 605.6 0.36 604.5 0.55Z"
       style="fill:#ffffff;opacity:1" />
    <path
       id="Path 1"
       fill-rule="evenodd"
       class="shp1"
       d="M800.25 114.13C803.94 114 804.85 114.88 910.5 224.09L936.31 277.8C950.51 307.33 966.53 340.73 971.92 352C977.31 363.27 993.52 397.25 1007.94 427.5C1029.06 471.81 1033.9 482.72 1032.83 483.62C1032.1 484.23 1023.29 490.87 1013.25 498.37C1003.21 505.87 995.01 512.56 995.02 513.25C995.02 513.94 998.51 528.74 1002.77 546.14C1007.02 563.54 1010.89 578.16 1011.37 578.64C1011.84 579.11 1020.84 581.16 1031.37 583.19C1041.89 585.23 1064.67 589.64 1082 593C1099.33 596.35 1117.44 599.87 1122.25 600.8C1127.06 601.74 1130.89 602.79 1130.75 603.14C1130.61 603.5 1123.05 610.25 1113.94 618.14C1104.83 626.04 1093.95 635.42 1089.76 639C1085.58 642.58 1082.12 645.73 1082.09 646C1082.06 646.27 1092.02 650.77 1126.43 665.5L1104.22 665.75C1083.82 665.98 1082 666.14 1081.99 667.75C1081.99 668.71 1083.37 680.08 1085.05 693C1087.46 711.45 1088.49 716.82 1089.85 718C1090.81 718.83 1103.26 730.08 1117.52 743C1131.78 755.92 1146.61 769.42 1150.48 773C1154.34 776.58 1157.5 779.9 1157.5 780.4C1157.5 780.89 1153.9 783.3 1149.5 785.74C1145.1 788.19 1138.8 791.68 1129.5 796.82L1112 795.37C1102.38 794.57 1093.6 794.04 1092.5 794.21C1091.4 794.37 1099.14 795.85 1128.88 800.5L1118.95 818.5C1113.49 828.4 1108.45 836.45 1107.76 836.39C1107.07 836.33 1096.6 829.77 1084.5 821.82C1072.4 813.86 1055.75 802.93 1047.5 797.52C1039.25 792.11 1030.14 786.18 1027.25 784.34C1024.36 782.5 1021.81 781.11 1021.59 781.25C1021.36 781.39 1019.72 801.08 1017.93 825C1016.15 848.92 1014.3 868.95 1013.82 869.5C1013.24 870.16 1004.2 869.38 987.22 867.21C973.08 865.41 961.43 864.06 961.34 864.21C961.25 864.37 965.41 878 970.59 894.5C975.77 911 979.78 924.61 979.5 924.75C979.23 924.89 978.44 924.29 977.75 923.43C977.06 922.56 975.83 921.09 975 920.15C974.17 919.2 972.33 916.87 970.91 914.97C969.48 913.06 967.68 910.83 966.91 910C966.13 909.17 964.31 906.92 962.85 905C961.4 903.08 959.37 900.6 958.35 899.5C957.33 898.4 955.16 895.7 953.53 893.5C951.89 891.3 944.8 882.41 937.78 873.75C930.75 865.09 925 857.55 925 857C925 856.45 926.24 854.73 927.75 853.19C929.26 851.64 933.61 847.03 937.42 842.94C941.23 838.85 947.08 832.55 950.42 828.94C953.76 825.34 959.42 819.24 963 815.4C966.58 811.55 973.55 803.97 978.5 798.54C983.45 793.12 989.3 786.8 991.5 784.49C993.7 782.18 998 777.63 1001.06 774.39C1004.11 771.15 1006.9 768.05 1007.25 767.5C1007.59 766.95 1007.44 762.23 1006.91 757C1006.38 751.77 1005.71 745.25 1005.43 742.5C1005.15 739.75 1004.72 735.48 1004.46 733C1004.21 730.52 1003.78 725.8 1003.5 722.5C1003.23 719.2 1002.69 713.8 1002.32 710.5C1001.94 707.2 1001.76 703.83 1001.91 703C1002.06 702.17 1002.37 701.39 1002.6 701.25C1002.82 701.11 1004.24 701.86 1005.75 702.91C1007.26 703.96 1009.63 705.33 1011 705.96C1012.38 706.58 1014.4 707.64 1015.5 708.31C1016.6 708.98 1019.3 710.66 1021.5 712.05C1023.7 713.43 1026.4 715.08 1027.5 715.72C1028.6 716.36 1034.22 719.82 1040 723.41C1045.78 727 1051.06 729.95 1051.75 729.97C1052.44 729.99 1053.11 730.36 1053.25 730.79C1053.39 731.23 1056.2 733.23 1059.5 735.24C1064.57 738.33 1065.55 738.63 1065.8 737.2C1065.96 736.26 1065.31 734.38 1064.35 733C1063.39 731.63 1061.05 727.58 1059.15 724C1057.26 720.42 1054.3 715.25 1052.58 712.5C1050.86 709.75 1048.9 706.38 1048.22 705C1047.54 703.63 1045.07 699.05 1042.74 694.83C1040.41 690.62 1038.12 686.79 1037.66 686.33C1037.2 685.87 1036.19 684.15 1035.4 682.5C1034.62 680.85 1032.98 677.8 1031.74 675.73C1030.51 673.65 1027.76 668.7 1025.63 664.73C1023.5 660.75 1021.4 657.05 1020.95 656.5C1020.5 655.95 1018.71 652.8 1016.96 649.5C1015.21 646.2 1013.16 642.83 1012.41 642C1011.66 641.17 1011.03 640.05 1011 639.5C1010.97 638.95 1008.63 634.45 1005.81 629.5C1002.99 624.55 1000.14 619.83 999.47 619C998.79 618.17 997.97 615.48 997.63 613C997.29 610.52 996.77 605.35 996.48 601.5C996.18 597.65 995.74 592.25 995.51 589.5C995.27 586.75 994.84 581.8 994.54 578.5C994.24 575.2 993.77 569.8 993.49 566.5C993.22 563.2 992.75 557.58 992.46 554C992.17 550.42 991.74 545.7 991.52 543.5C991.3 541.3 990.85 535.23 990.51 530C990.18 524.77 989.71 519.38 989.47 518C989.24 516.63 988.79 512.13 988.49 508C988.19 503.88 987.74 498.25 987.5 495.5C987.26 492.75 986.81 487.13 986.51 483C986.21 478.88 985.73 473.48 985.45 471C985.18 468.52 984.76 464.02 984.52 461C984.28 457.98 983.84 452.57 983.55 449C983.25 445.43 982.7 439.35 982.32 435.5C981.94 431.65 981.74 428.05 981.87 427.5C982 426.95 981.86 425.26 981.55 423.75C981.2 422.02 980.17 420.77 978.75 420.38C977.51 420.04 975.83 419.18 975 418.48C974.17 417.77 970.8 415.76 967.5 414.01C964.2 412.26 959.85 409.85 957.83 408.66C955.82 407.47 944.81 401.1 933.36 394.5C921.91 387.9 911.98 382.39 911.28 382.25C910.51 382.1 910.06 382.91 910.15 384.25C910.23 385.49 909.98 390.55 909.61 395.5C909.23 400.45 908.73 407.2 908.5 410.5C908.26 413.8 907.84 419.65 907.57 423.5C907.29 427.35 906.81 434.1 906.5 438.5C906.19 442.9 905.74 449.2 905.51 452.5C905.28 455.8 904.8 462.77 904.45 468C904.1 473.23 903.62 477.73 903.39 478C903.15 478.27 897.9 477.01 891.73 475.19C885.55 473.37 879.83 471.77 879 471.63C878.17 471.5 875.92 470.87 874 470.23C872.08 469.59 869.38 468.87 868 468.63C866.63 468.38 864.15 467.66 862.5 467.02C860.85 466.38 859.5 465.94 859.5 466.05C859.5 466.15 856.35 465.3 852.5 464.17C848.65 463.03 844.38 461.89 843 461.63C841.63 461.37 838.7 460.5 836.5 459.69C834.3 458.89 831.15 457.97 829.5 457.65C827.85 457.34 822.67 455.96 818 454.6C813.33 453.23 808.38 451.94 807 451.71C805.63 451.49 804.05 451.05 803.5 450.72C802.95 450.4 798.34 448.98 784 445L778.25 448.14C775.09 449.87 771.83 451.82 771 452.49C770.17 453.15 768.83 454.01 768 454.4C767.17 454.79 765.11 455.87 763.41 456.8C761.71 457.74 749.11 465.17 735.41 473.33C721.71 481.49 709.6 488.67 708.5 489.3C707.4 489.93 704.7 491.57 702.5 492.94C700.3 494.32 696.48 496.53 694 497.85C691.52 499.18 687.59 501.55 685.25 503.13C682.91 504.71 680.66 506 680.25 505.99C679.84 505.99 677.25 507.47 674.5 509.28C671.75 511.09 668.83 512.9 668 513.3C667.17 513.7 665.15 514.89 663.5 515.94C661.85 517 658.25 519.07 655.5 520.55C652.75 522.02 650.05 523.61 649.5 524.07C648.95 524.53 646.92 525.73 645 526.74C643.08 527.75 640.23 529.46 635.84 532.5L636.51 524.5C636.88 520.1 637.71 509.52 639.5 485.5L692.5 467.76C721.65 458 751.01 448.22 770 442L760 427C752.67 416.01 750.33 411.77 751.25 411.14C751.94 410.67 768.25 402.48 787.5 392.94C806.75 383.4 822.73 375.43 823 375.23C823.27 375.03 822.54 374.11 821.36 373.18C820.19 372.26 804.71 358.9 786.97 343.5C769.23 328.1 753.08 314.15 751.07 312.5C749.07 310.85 742.59 305.23 736.67 300C730.75 294.77 725.93 289.82 725.95 289C725.98 288.18 724.62 270.4 722.95 249.5C721.27 228.6 720.26 211.2 720.7 210.83C721.14 210.46 728.7 206.54 737.5 202.12C746.3 197.7 753.05 194.06 752.5 194.04C751.95 194.01 734.85 190.36 714.5 185.91C694.15 181.47 677.16 177.53 676.75 177.16C676.33 176.8 673.07 165.47 669.49 152C665.92 138.53 663.11 127.39 663.25 127.26C663.39 127.13 679.92 125.46 700 123.54C720.08 121.63 743.92 119.34 753 118.46C762.08 117.58 775.58 116.28 783 115.57C790.42 114.85 798.19 114.21 800.25 114.13ZM1060.26 285C1061.3 287.48 1072.3 314.02 1084.69 344C1097.09 373.98 1111.52 408.85 1116.76 421.5C1122 434.15 1128.92 451.02 1132.15 459C1135.38 466.98 1137.79 473.61 1137.51 473.75C1137.23 473.89 1135.73 472.31 1134.18 470.25C1132.62 468.19 1118.81 450.3 1103.49 430.5C1088.17 410.7 1066.49 382.69 1055.32 368.25C1044.14 353.81 1034.91 341.59 1034.81 341.09C1034.7 340.6 1039.7 327.43 1045.9 311.84C1052.11 296.25 1057.45 282.82 1057.77 282C1058.16 281 1058.99 282 1060.26 285Z"
       style="fill:#808080;opacity:1" />
    <path
       id="Path 2"
       class="shp2"
       d="M910.25 384.18C910.27 385.45 909.98 390.55 909.61 395.5C909.23 400.45 908.73 407.2 908.5 410.5C908.26 413.8 907.81 420.1 907.5 424.5C907.19 428.9 906.74 435.2 906.5 438.5C906.26 441.8 905.85 447.65 905.58 451.5C905.31 455.35 904.8 462.77 904.45 468C904.1 473.23 903.62 477.73 903.39 478C903.15 478.27 897.9 477.01 891.73 475.19C885.55 473.37 879.83 471.77 879 471.63C878.17 471.5 875.92 470.87 874 470.23C872.08 469.59 869.38 468.87 868 468.63C866.63 468.38 864.15 467.66 862.5 467.02C860.85 466.38 859.5 465.94 859.5 466.05C859.5 466.15 856.35 465.3 852.5 464.17C848.65 463.03 844.38 461.89 843 461.63C841.63 461.37 838.7 460.5 836.5 459.69C834.3 458.89 831.15 457.97 829.5 457.65C827.85 457.34 822.67 455.96 818 454.6C813.33 453.23 808.38 451.94 807 451.71C805.63 451.49 804.05 451.05 803.5 450.72C802.95 450.4 798.34 448.98 793.25 447.57L784 445C775.09 449.87 771.83 451.82 771 452.49C770.17 453.15 768.83 454.01 768 454.4C767.17 454.79 765.11 455.87 763.41 456.8C761.71 457.74 749.11 465.17 735.41 473.33C721.71 481.49 709.6 488.67 708.5 489.3C707.4 489.93 704.7 491.57 702.5 492.94C700.3 494.32 696.48 496.53 694 497.85C691.52 499.18 687.59 501.55 685.25 503.13C682.91 504.71 680.66 506 680.25 505.99C679.84 505.99 677.25 507.47 674.5 509.28C671.75 511.09 668.83 512.9 668 513.3C667.17 513.7 665.15 514.89 663.5 515.94C661.85 517 658.25 519.07 655.5 520.54C652.75 522.02 649.83 523.74 649 524.37C648.17 525 645.92 526.32 644 527.3C642.08 528.28 639.55 529.85 638.39 530.79L636.28 532.5C643.91 552.65 648.35 567.39 651.06 578.25C653.78 589.11 656.9 599.8 658 602C659.1 604.2 660.34 606.03 660.75 606.08C661.16 606.12 662.17 606.34 663 606.57C663.83 606.8 670.35 608.33 677.5 609.96C684.65 611.6 691.85 613.21 693.5 613.53C695.15 613.85 697.4 614.3 698.5 614.52C699.6 614.73 703.2 615.57 706.5 616.37C709.8 617.17 713.85 618.07 715.5 618.36C717.15 618.65 719.4 619.11 720.5 619.38C721.6 619.66 728.35 621.24 735.5 622.91C742.65 624.57 748.77 625.61 749.11 625.22C749.44 624.82 748.67 619.1 747.39 612.5C746.11 605.9 744.78 598.7 744.42 596.5C744.07 594.3 742.97 588.23 741.98 583C741 577.77 740.26 573.39 740.35 573.25C740.43 573.11 741.4 572.94 742.5 572.86C743.6 572.79 747.88 573.03 752 573.4C756.13 573.78 763.33 574.5 768 575.01C772.67 575.52 780.33 576.2 785 576.53C789.67 576.85 794.63 577.28 796 577.48C797.38 577.68 801.76 578.1 805.75 578.42C810.59 578.81 812.99 579.42 812.98 580.25C812.97 580.94 811.79 585.77 810.36 591C808.92 596.23 807.67 600.95 807.57 601.5C807.47 602.05 806.87 604.08 806.23 606C805.59 607.92 804.83 610.74 804.54 612.25C804.24 613.76 804.34 615.17 804.75 615.38C805.16 615.59 809.1 615.16 813.5 614.43C817.9 613.69 822.63 612.85 824 612.55C825.38 612.26 828.52 611.78 831 611.49C833.48 611.19 836.17 610.76 837 610.51C837.83 610.27 840.08 609.79 842 609.45C843.92 609.11 846.63 608.67 848 608.47C849.38 608.27 852.08 607.88 854 607.61C855.92 607.34 861.77 606.39 867 605.49C872.23 604.6 878.08 603.62 880 603.33C881.92 603.03 887.1 602.17 891.5 601.4C895.9 600.64 901.3 599.77 903.5 599.48C905.7 599.18 909.98 598.44 913 597.83C916.02 597.21 919.74 596.55 921.25 596.35C922.97 596.13 924 596.47 923.99 597.25C923.99 597.94 923.39 599.63 922.67 601C921.95 602.38 920.34 606.65 919.1 610.5C917.86 614.35 916.58 618.17 916.26 619C915.94 619.83 915.6 620.73 915.5 621C915.41 621.27 914.86 622.63 914.28 624C913.71 625.38 912.65 628.52 911.94 631C911.23 633.48 910.34 635.95 909.96 636.5C909.58 637.05 908.04 641.33 906.54 646C905.05 650.67 903.24 655.85 902.53 657.5C901.82 659.15 900.25 663.65 899.03 667.5C897.82 671.35 896.24 675.85 895.53 677.5C894.82 679.15 893.48 682.98 892.54 686C891.61 689.02 890.58 692.17 890.26 693C889.94 693.83 889.63 694.73 889.57 695C889.52 695.27 889.2 695.95 888.87 696.5C888.54 697.05 887.27 700.65 886.05 704.5C884.82 708.35 883.24 712.85 882.53 714.5C881.82 716.15 880.47 719.98 879.53 723C878.59 726.02 877.24 729.85 876.53 731.5C875.82 733.15 874.25 737.65 873.03 741.5C871.82 745.35 870.24 749.85 869.53 751.5C868.82 753.15 867.25 757.65 866.03 761.5C864.82 765.35 863.24 769.85 862.53 771.5C861.82 773.15 860.48 776.98 859.54 780C858.61 783.02 857.58 786.17 857.26 787C856.94 787.83 856.6 788.73 856.5 789C856.41 789.27 855.81 790.74 855.17 792.25C854.52 793.76 853.98 795.56 853.97 796.25C853.95 796.94 854.73 798.63 855.72 800C856.7 801.38 858.36 804.08 859.42 806C860.48 807.92 863.06 812.09 865.17 815.25C867.28 818.41 869 821.23 869 821.5C869 821.77 870.8 824.7 873 828C875.2 831.3 877.01 834.34 877.03 834.75C877.04 835.16 878.17 836.96 879.53 838.75C880.89 840.54 882.01 842.34 882.03 842.75C882.04 843.16 883.17 844.96 884.53 846.75C885.89 848.54 887 850.23 887 850.5C887 850.77 889.25 854.6 892 859C896.98 866.97 896.99 867 894.25 866.42C892.74 866.1 890.38 865.44 889 864.95C887.63 864.46 882.9 863.1 878.5 861.93C874.1 860.76 870.05 859.71 869.5 859.6C868.95 859.48 866.92 858.87 865 858.23C863.08 857.59 860.38 856.84 859 856.56C857.63 856.27 851.9 854.79 846.28 853.27C840.65 851.75 836.04 850.61 836.03 850.75C836.01 850.89 835.21 850.59 834.25 850.08C833.29 849.57 831.38 848.92 830 848.62C828.63 848.33 824.8 847.34 821.5 846.44C818.2 845.54 814.83 844.62 814 844.41C813.17 844.2 803.73 841.54 793 838.52C782.27 835.49 772.6 832.8 771.5 832.55C770.4 832.29 762.98 830.26 755 828.03C747.02 825.8 739.6 823.77 738.5 823.52C737.4 823.27 734.48 822.54 732 821.89C729.52 821.23 727.39 820.54 727.25 820.35C727.11 820.16 728.53 816.96 730.4 813.25C732.27 809.54 737.15 800.42 741.24 793C745.34 785.58 750.88 775.45 753.55 770.5C756.22 765.55 759.88 758.8 761.68 755.5C763.48 752.2 766.09 747.25 767.47 744.5C769.87 739.72 769.9 739.41 768.24 737.53C767.28 736.45 766.05 735.06 765.5 734.45C764.95 733.83 763.6 732.09 762.5 730.58C761.4 729.07 759.83 727.02 759 726.01C758.17 725.01 756.83 723.2 756 722C755.17 720.79 750.96 715.24 746.63 709.65C742.3 704.07 735.68 695.45 731.92 690.5C728.16 685.55 724.05 680.3 722.79 678.84C721.53 677.38 719.83 675.19 719 673.98C718.17 672.76 716.71 670.7 715.75 669.38C714.63 667.86 713.51 667.27 712.64 667.75C711.89 668.16 709.39 670.75 707.08 673.5C704.77 676.25 702.1 679.4 701.15 680.5C700.2 681.6 697.41 684.94 694.96 687.92C692.51 690.9 689.43 694.5 688.13 695.92C686.83 697.34 684.58 700.05 683.13 701.95C681.68 703.84 679.43 706.54 678.13 707.95C676.83 709.35 674.58 712.06 673.13 713.97C671.68 715.87 669.83 718.16 669 719.05C668.17 719.93 666.38 721.97 665 723.58C663.63 725.19 658.75 731 654.16 736.5C649.57 742 643.72 748.93 641.16 751.89C638.6 754.86 634.31 760.04 631.63 763.39C628.95 766.75 626.59 769.73 626.39 770C626.18 770.27 621.39 767.39 615.75 763.6C606.87 757.62 603.97 756.26 594 753.41C587.67 751.61 582.47 750.21 582.43 750.31C582.39 750.42 578 755.56 572.68 761.75C567.36 767.94 563 773.23 563 773.5C563 773.77 565.81 776.28 569.25 779.07C572.69 781.86 577.7 786.02 580.39 788.32C583.09 790.62 586.24 793.15 587.39 793.94C588.55 794.74 589.73 795.69 590 796.07C590.27 796.44 593.65 799.3 597.5 802.42C601.35 805.54 605.17 808.64 606 809.3C606.83 809.96 609.88 812.53 612.78 815C615.69 817.48 618.05 819.84 618.03 820.25C618.01 820.66 605.29 821.01 589.75 821.02L561.5 821.05L548.98 827.5L549 860C545.51 858.17 543.6 856.81 542.5 855.8C541.4 854.79 540.27 853.98 540 854.01C539.73 854.04 538.15 852.92 536.5 851.53C534.85 850.14 533.27 849.02 533 849.03C532.73 849.05 531.15 847.92 529.5 846.53C527.85 845.14 525.94 844 525.25 844C524.56 844 524 844.45 524 845C524 845.55 523.44 846 522.75 846C522.06 846 519.92 847.34 518 848.98C516.08 850.62 512.59 852.98 510.26 854.23C506.69 856.14 505.79 857.28 504.5 861.5C503.66 864.25 502.78 867.4 502.55 868.5C502.31 869.6 500.97 874.21 499.56 878.75C498.15 883.29 496.98 887.34 496.96 887.75C496.93 888.16 496.71 889.51 496.46 890.75C496.21 891.99 495.66 893.02 495.25 893.03C494.84 893.05 492.7 891.68 490.5 889.99C488.3 888.3 485.82 886.36 485 885.69C484.18 885.01 478.55 880.5 472.5 875.67C466.45 870.84 460.3 865.9 458.82 864.69C457.35 863.49 455 861.6 453.58 860.5C452.17 859.4 449.89 857.49 448.51 856.25C447.13 855.01 445.79 854.11 445.52 854.25C445.26 854.39 444.79 855.63 444.49 857C444.18 858.38 443.75 859.73 443.54 860C443.33 860.27 442.91 861.63 442.61 863C442.31 864.38 439.3 874.95 435.92 886.5C432.55 898.05 429.68 908.17 429.55 909C429.42 909.83 428.9 910.5 428.4 910.49C427.91 910.48 423.68 908.65 419 906.41C414.32 904.17 408.81 901.81 406.75 901.17C404.69 900.53 402.77 899.55 402.5 899C402.23 898.45 401.32 898 400.5 898C399.27 898 399 899.69 399 907.25C399.01 915.92 399.4 917.67 405.25 935.26C408.69 945.57 411.84 954.01 412.25 954.01C412.66 954 413.3 952.99 413.67 951.75C414.04 950.51 415.4 947.92 416.7 946C418 944.08 419.1 942.95 419.15 943.5C419.19 944.05 419.18 945.29 419.12 946.25C419.03 947.58 425.33 951.14 445.25 961L471.5 973.99C491.96 976.54 500.27 976.99 504 976.66C507.57 976.34 512.75 975.81 515.5 975.47C518.25 975.14 525.23 974.19 531 973.37C536.77 972.55 542.4 971.73 543.5 971.56C544.6 971.38 548.2 970.93 551.5 970.54C554.8 970.16 562.23 969.17 568 968.35C573.77 967.52 580.75 966.63 583.5 966.36C586.25 966.09 590.9 965.56 593.83 965.18L599.15 964.5C605.62 971.64 609.08 975.65 611 978.01C612.92 980.38 615.4 983.32 616.5 984.55C617.6 985.78 619.93 988.52 621.67 990.64C623.41 992.76 626.34 996.3 628.17 998.5C630 1000.7 632.63 1003.72 634 1005.22L636.5 1007.94C646.58 1002.66 654.34 998.85 660.25 996.07C666.16 993.28 675.84 988.72 681.75 985.92C687.66 983.13 695.55 979.42 699.27 977.67L706.03 974.5C709.88 979.54 711 981.23 711 981.5C711 981.77 712.22 983.91 713.72 986.25C715.21 988.59 717.53 992.52 718.87 995C720.21 997.48 722.36 1001.19 723.65 1003.25C724.94 1005.31 726.56 1006.99 727.25 1006.98C727.94 1006.97 730.75 1005.68 733.5 1004.11C737.68 1001.73 740.47 1001.06 750.5 1000.06C757.1 999.4 764.75 998.66 767.5 998.43C770.25 998.19 777.23 997.52 783 996.94C788.77 996.36 795.08 995.7 797 995.48C798.92 995.25 803.42 994.79 807 994.45C810.58 994.11 814.17 993.82 815 993.8C815.83 993.79 819.88 993.39 824 992.92C828.13 992.46 834.65 991.82 838.5 991.52C842.35 991.22 847.3 990.72 849.5 990.42C851.7 990.11 855.52 989.72 858 989.54C860.48 989.36 865.88 988.91 870 988.55L877.5 987.88C896.88 1004.34 903.89 1010.32 905.58 1011.81C907.28 1013.29 910.6 1016.08 912.97 1018C915.34 1019.92 917.89 1022.06 918.64 1022.75C919.73 1023.75 920.25 1023.75 921.25 1022.75C921.94 1022.06 924.19 1018.91 926.25 1015.75C928.31 1012.59 930 1009.55 930 1009C930 1008.45 930.45 1008 931 1008C931.55 1008 932 1007.55 932 1007C932 1006.45 933.56 1003.86 935.47 1001.25C937.37 998.64 938.95 995.94 938.97 995.25C938.98 994.56 939.37 993.89 939.82 993.75C940.26 993.61 942.81 990.13 945.48 986C948.15 981.88 950.84 977.6 951.46 976.5C952.08 975.4 956.95 967.86 962.29 959.75C967.63 951.64 972 944.77 972 944.5C972 944.23 974.01 941.19 976.46 937.75C978.92 934.31 980.94 930.6 980.96 929.5C980.98 928.4 979.99 926.26 978.75 924.75C977.51 923.23 975.52 920.76 974.33 919.25C973.14 917.74 970.89 914.92 969.35 913C967.8 911.08 966.3 909.27 966.01 909C965.72 908.73 964.3 906.92 962.85 905C961.39 903.08 959.37 900.6 958.35 899.5C957.33 898.4 955.16 895.7 953.53 893.5C951.89 891.3 944.8 882.41 937.78 873.75C930.75 865.09 925 857.55 925 857C925 856.45 926.24 854.73 927.75 853.19C929.26 851.64 933.61 847.03 937.42 842.94C941.23 838.85 947.08 832.55 950.42 828.94C953.76 825.34 959.42 819.24 963 815.4C966.58 811.55 973.55 803.97 978.5 798.54C983.45 793.12 989.3 786.8 991.5 784.49C993.7 782.18 998 777.63 1001.06 774.39C1004.11 771.15 1006.9 768.05 1007.25 767.5C1007.59 766.95 1007.44 762.23 1006.91 757C1006.38 751.77 1005.71 745.25 1005.43 742.5C1005.15 739.75 1004.72 735.48 1004.46 733C1004.21 730.52 1003.78 725.8 1003.5 722.5C1003.23 719.2 1002.69 713.8 1002.32 710.5C1001.94 707.2 1001.76 703.83 1001.91 703C1002.06 702.17 1002.37 701.39 1002.6 701.25C1002.82 701.11 1004.24 701.86 1005.75 702.91C1007.26 703.96 1009.63 705.33 1011 705.96C1012.38 706.58 1014.4 707.64 1015.5 708.31C1016.6 708.98 1019.3 710.66 1021.5 712.05C1023.7 713.43 1026.4 715.08 1027.5 715.72C1028.6 716.36 1034.22 719.82 1040 723.41C1045.78 727 1051.06 729.95 1051.75 729.97C1052.44 729.99 1053.11 730.36 1053.25 730.79C1053.39 731.23 1056.2 733.23 1059.5 735.24C1064.57 738.33 1065.55 738.63 1065.8 737.2C1065.96 736.26 1065.31 734.38 1064.35 733C1063.39 731.63 1061.05 727.58 1059.15 724C1057.26 720.42 1054.3 715.25 1052.58 712.5C1050.86 709.75 1048.9 706.38 1048.22 705C1047.54 703.63 1045.07 699.05 1042.74 694.83C1040.41 690.62 1038.12 686.79 1037.66 686.33C1037.2 685.87 1036.19 684.15 1035.4 682.5C1034.62 680.85 1032.98 677.8 1031.74 675.73C1030.51 673.65 1027.76 668.7 1025.63 664.73C1023.5 660.75 1021.4 657.05 1020.95 656.5C1020.5 655.95 1018.71 652.8 1016.96 649.5C1015.21 646.2 1013.16 642.83 1012.41 642C1011.66 641.17 1011.03 640.05 1011 639.5C1010.97 638.95 1008.63 634.45 1005.81 629.5C1002.99 624.55 1000.14 619.83 999.47 619C998.79 618.17 997.97 615.48 997.63 613C997.29 610.52 996.77 605.35 996.48 601.5C996.18 597.65 995.74 592.25 995.51 589.5C995.27 586.75 994.84 581.8 994.54 578.5C994.24 575.2 993.77 569.8 993.49 566.5C993.22 563.2 992.75 557.58 992.46 554C992.17 550.42 991.74 545.7 991.52 543.5C991.3 541.3 990.85 535.23 990.51 530C990.18 524.77 989.71 519.38 989.47 518C989.24 516.63 988.79 512.13 988.49 508C988.19 503.88 987.74 498.25 987.5 495.5C987.26 492.75 986.81 487.13 986.51 483C986.21 478.88 985.73 473.48 985.45 471C985.18 468.52 984.76 464.02 984.52 461C984.28 457.98 983.84 452.57 983.55 449C983.25 445.43 982.7 439.35 982.32 435.5C981.94 431.65 981.74 428.05 981.87 427.5C982 426.95 981.86 425.26 981.55 423.75C981.2 422.02 980.17 420.77 978.75 420.38C977.51 420.04 975.83 419.18 975 418.48C974.17 417.77 970.8 415.76 967.5 414.01C964.2 412.26 959.85 409.85 957.83 408.66C955.82 407.47 944.81 401.1 933.36 394.5C921.91 387.9 912.02 382.35 911.38 382.18C910.72 382 910.23 382.87 910.25 384.18Z"
       style="fill:#000000;opacity:1" />
    <path
       id="Path 3"
       class="shp0"
       d="M813.6 411.25C817.14 417.99 823.74 430.58 828.27 439.23C832.8 447.88 836.79 454.86 837.14 454.73C837.49 454.6 842.11 448.76 847.39 441.75C852.68 434.74 856.89 428.81 856.75 428.59C856.61 428.36 845.59 421.61 832.25 413.59C818.91 405.56 807.81 399 807.58 399C807.36 399 810.06 404.51 813.6 411.25Z"
       style="fill:#ffffff;opacity:1" />
    <path
       id="Path 4"
       class="shp1"
       d="M553.5 496.11C540.85 496.55 502.38 497.83 468 498.94C433.63 500.06 397.85 501.26 388.5 501.62L371.5 502.28C304.16 561.35 279.29 583.11 272.8 588.75L261 599C263.15 604.81 272.87 630.35 283.98 659.5C295.1 688.65 304.37 712.61 304.6 712.75C304.82 712.89 314 707.04 325 699.75C336 692.46 344.89 686.43 344.75 686.35C344.61 686.26 334.38 681.85 322 676.55C309.63 671.25 299.05 666.46 298.5 665.89C297.95 665.33 296.11 651.73 294.42 635.68C292.73 619.63 291.38 606.41 291.42 606.31C291.46 606.21 310.04 609.13 332.7 612.81C355.36 616.49 374.15 619.27 374.46 619C374.76 618.73 376.47 608.45 378.25 596.16C380.04 583.88 381.27 573.68 381 573.5C380.73 573.32 371.95 576.73 361.5 581.07C351.05 585.41 342.42 588.86 342.32 588.73C342.22 588.6 352.48 578.83 365.12 567C377.77 555.17 388.88 544.94 389.81 544.26C390.74 543.58 391.27 542.83 391 542.6C390.73 542.37 382.85 541.69 373.5 541.08C364.15 540.47 353.35 539.71 349.5 539.39L342.5 538.82C347.15 536.13 362.9 527.86 380.5 518.7L412.5 502.04C528.36 502.01 562 502.34 562.01 502.75C562.01 503.16 553.83 533.2 543.83 569.5C533.83 605.8 525.61 635.6 525.57 635.73C525.53 635.85 514.92 636.66 502 637.53C489.07 638.39 477.22 638.96 475.64 638.8C472.88 638.51 473.31 637.88 488.89 619.25C497.75 608.66 504.89 599.81 504.75 599.58C504.61 599.34 496.4 598.66 486.5 598.06C476.6 597.46 464.56 596.64 459.74 596.24C451.79 595.57 450.98 595.66 450.99 597.25C451 598.21 444.45 620.04 436.44 645.75C428.44 671.46 422.02 692.57 422.19 692.65C422.36 692.73 424.75 692.43 427.5 691.98C430.25 691.53 441.05 689.55 451.5 687.58C461.95 685.61 471.51 683.78 472.75 683.5L475 683L475 737C465.31 742.24 450.35 750.63 435.5 759.03C420.65 767.42 403.77 776.98 398 780.26C392.23 783.54 384.66 787.86 381.2 789.86L374.9 793.5C378.59 797.38 388.29 807.84 398.83 819.25C409.37 830.66 418.01 840.34 418.02 840.75C418.03 841.16 415.29 847.58 411.92 855C407.8 864.1 404.62 873.15 402.15 882.77L398.5 897.04C404.7 900 410.77 902.76 416 905.08C421.23 907.39 426.07 909.79 426.77 910.4C427.47 911 428.37 911.12 428.77 910.65C429.17 910.19 429.56 909.29 429.64 908.65C429.72 908.02 432.55 898.05 435.92 886.5C439.3 874.95 442.31 864.38 442.61 863C442.91 861.63 443.33 860.27 443.54 860C443.75 859.73 444.18 858.38 444.49 857C444.79 855.63 445.26 854.39 445.52 854.25C445.79 854.11 447.13 855.01 448.51 856.25C449.89 857.49 452.17 859.4 453.58 860.5C455 861.6 457.35 863.49 458.82 864.69C460.3 865.9 466.45 870.84 472.5 875.67C478.55 880.5 484.18 885.01 485 885.69C485.82 886.36 488.3 888.3 490.5 889.99C492.7 891.68 494.84 893.05 495.25 893.03C495.66 893.02 496.23 891.88 496.5 890.5C496.77 889.13 497.09 887.66 497.19 887.25C497.29 886.84 498.45 882.9 499.75 878.5C501.06 874.1 502.31 869.6 502.52 868.5C502.74 867.4 503.51 864.7 504.23 862.5C505.41 858.92 505.22 856.67 502.42 841C500.7 831.38 499.12 822.88 498.9 822.11C498.64 821.21 494 824.44 485.5 831.44C478.35 837.33 470.13 844.03 467.23 846.32C464.33 848.62 461.78 850.27 461.58 850C461.37 849.73 457.55 843.65 453.09 836.5C446.8 826.4 445.27 823.26 446.25 822.42C446.94 821.82 462.06 809.67 479.86 795.42L512.21 769.5L562.5 820L618.5 819.92C613.08 815.22 609.92 812.56 608 810.97C606.08 809.39 601.35 805.54 597.5 802.42C593.65 799.3 590.27 796.44 590 796.07C589.73 795.69 588.55 794.74 587.39 793.94C586.24 793.15 583.09 790.63 580.39 788.35C577.7 786.07 572.43 781.57 568.67 778.35C561.86 772.52 561.78 772.38 543.36 737.5C533.2 718.25 520.59 694.4 515.35 684.5C506.2 667.25 505.88 666.43 507.65 664.9C508.67 664.02 525.14 651.99 544.25 638.15L579 613C579 507.38 578.74 495.03 577.75 495.15C577.06 495.24 566.15 495.67 553.5 496.11Z"
       style="fill:#808080;opacity:1" />
    <path
       id="Path 5"
       class="shp2"
       d="M399 509.07C391.57 512.94 375.94 521.15 364.26 527.3C352.57 533.46 343.12 538.59 343.26 538.71C343.39 538.82 353.85 539.6 366.5 540.45C379.15 541.3 390.85 542.2 392.5 542.45C394.15 542.7 396.63 543.22 398 543.61C399.38 544 404.32 544.35 409 544.38C413.68 544.42 419.52 544.1 422 543.69C424.48 543.27 433.48 541.83 442 540.47C450.52 539.11 459.07 537.77 461 537.49C462.93 537.21 465.74 536.76 467.25 536.49C468.76 536.22 470 536.23 470 536.5C470 536.77 459.99 541.9 447.75 547.89C435.51 553.88 423.81 559.5 421.75 560.39C419.69 561.28 418 561.77 418 561.5C418 561.23 413.73 562.58 408.5 564.5C403.27 566.42 399 567.77 399 567.5C399 567.23 396.64 567.94 393.75 569.08C390.86 570.23 388.39 571.13 388.25 571.08C388.11 571.04 387.89 571.03 387.75 571.08C387.61 571.12 386.6 571.34 385.5 571.56C384.4 571.78 383.05 572.45 382.5 573.04C381.95 573.63 380.06 584.1 378.31 596.31C376.56 608.51 375.21 618.58 375.31 618.69C375.41 618.79 383.6 614.44 393.5 609.03L411.5 599.19C449.23 596.07 455.21 595.98 469.5 596.91C478.85 597.52 490.66 598.24 495.75 598.51C500.84 598.78 505 599.23 505 599.5C505 599.77 497.75 608.66 488.89 619.25C473.31 637.88 472.88 638.51 475.64 638.8C477.22 638.96 489.07 638.39 502 637.53C514.92 636.66 525.53 635.85 525.57 635.73C525.61 635.6 533.83 605.8 543.83 569.5C553.83 533.2 562.01 503.16 562.01 502.75C562 502.34 528.36 502.01 487.25 502.02L412.5 502.04L399 509.07Z"
       style="fill:#000000;opacity:1" />
    <path
       id="Path 6"
       class="shp1"
       d="M1076.38 532.22C1077.13 534.03 1082.15 545.63 1087.52 558C1092.9 570.38 1097.57 580.82 1097.9 581.21C1098.23 581.59 1104.4 572.37 1111.61 560.71C1118.82 549.04 1124.67 539.4 1124.61 539.29C1124.55 539.17 1114.38 537.04 1102 534.55C1089.63 532.07 1078.49 529.79 1077.26 529.49C1075.08 528.97 1075.06 529.05 1076.38 532.22ZM467.92 536.39C467.69 536.6 465.48 537.01 463 537.29C460.52 537.57 451.3 538.95 442.5 540.37C433.7 541.78 424.7 543.2 422.5 543.52C420.3 543.84 416.58 544.42 414.24 544.8C411.89 545.19 409.98 545.84 409.99 546.25C409.99 546.66 413.38 549.7 417.5 553C421.63 556.3 425.34 558.88 425.75 558.73C426.16 558.58 436.29 553.63 448.25 547.73C460.21 541.83 470 536.77 470 536.5C470 536.23 469.63 536 469.17 536C468.71 536 468.15 536.18 467.92 536.39Z"
       style="fill:#808080;opacity:1" />
    <path
       id="Path 7"
       class="shp0"
       d="M389.5 544.11C388.4 545.24 377.29 555.69 364.82 567.33C352.34 578.97 342.22 588.61 342.32 588.74C342.42 588.87 350.6 585.59 360.5 581.46C370.4 577.32 379.18 573.82 380 573.67C380.82 573.52 382.51 572.86 383.75 572.2C384.99 571.54 385.98 571.34 385.96 571.75C385.93 572.16 386.63 571.83 387.5 571C388.37 570.17 389.07 569.84 389.04 570.25C389.02 570.66 391.25 570.1 394 569C396.75 567.9 399 567.23 399 567.5C399 567.77 402.71 566.63 407.25 564.95C411.79 563.28 416.4 561.75 417.5 561.55C418.6 561.35 420.74 560.69 422.25 560.09L425 559C413.38 549.7 409.89 546.59 409.75 546.08C409.61 545.57 407.48 544.94 405 544.67C402.52 544.4 399.6 543.96 398.5 543.68C397.4 543.41 395.38 542.94 394 542.63C392.27 542.24 390.89 542.69 389.5 544.11Z"
       style="fill:#ffffff;opacity:1" />
    <path
       id="Path 8"
       class="shp1"
       d="M741.63 572.7C740.64 572.88 740.17 573.68 740.44 574.75C740.68 575.71 741.55 580.33 742.38 585C743.21 589.67 744.11 594.85 744.39 596.5C744.67 598.15 745.99 605.13 747.31 612C748.64 618.88 749.44 624.82 749.11 625.22C748.77 625.61 742.65 624.57 735.5 622.91C728.35 621.24 721.6 619.66 720.5 619.38C719.4 619.11 717.15 618.65 715.5 618.36C713.85 618.07 709.8 617.17 706.5 616.37C703.2 615.57 699.6 614.73 698.5 614.52C697.4 614.3 695.15 613.85 693.5 613.53C691.85 613.21 684.65 611.61 677.5 609.97C670.35 608.34 663.49 606.78 662.25 606.5C660.58 606.13 660 606.45 660.01 607.75C660.02 608.71 662.88 627.73 666.36 650L672.69 690.5C638.83 748.24 629.11 765.2 629.25 765.45C629.39 765.69 631.23 763.78 633.34 761.2C635.45 758.61 639.13 754.25 641.5 751.5C643.88 748.75 649.57 742 654.16 736.5C658.75 731 663.63 725.19 665 723.58C666.38 721.97 668.17 719.93 669 719.05C669.83 718.16 671.68 715.87 673.13 713.97C674.58 712.06 676.83 709.35 678.13 707.95C679.43 706.54 681.68 703.84 683.13 701.95C684.58 700.05 686.83 697.34 688.13 695.92C689.43 694.5 692.51 690.9 694.96 687.92C697.41 684.94 700.2 681.6 701.15 680.5C702.1 679.4 704.77 676.25 707.08 673.5C709.39 670.75 711.89 668.16 712.64 667.75C713.51 667.27 714.63 667.86 715.75 669.38C716.71 670.7 718.17 672.76 719 673.98C719.83 675.19 721.53 677.38 722.79 678.84C724.05 680.3 728.16 685.55 731.92 690.5C735.68 695.45 742.3 704.07 746.63 709.65C750.96 715.24 755.17 720.79 756 722C756.83 723.2 758.17 725.01 759 726.01C759.83 727.02 761.4 729.07 762.5 730.58C763.6 732.09 764.95 733.83 765.5 734.45C766.05 735.06 767.28 736.45 768.24 737.53C769.9 739.41 769.87 739.72 767.47 744.5C766.09 747.25 763.48 752.2 761.68 755.5C759.88 758.8 756.22 765.55 753.55 770.5C750.88 775.45 745.34 785.58 741.24 793C737.15 800.42 732.27 809.54 730.4 813.25C728.53 816.96 727.11 820.16 727.25 820.35C727.39 820.54 729.52 821.23 732 821.89C734.48 822.54 737.4 823.27 738.5 823.52C739.6 823.77 747.02 825.8 755 828.03C762.98 830.26 770.4 832.29 771.5 832.55C772.6 832.8 782.27 835.49 793 838.52C803.73 841.54 813.17 844.2 814 844.41C814.83 844.62 818.2 845.54 821.5 846.44C824.8 847.34 828.63 848.33 830 848.62C831.38 848.92 833.29 849.57 834.25 850.08C835.21 850.59 836.01 850.89 836.03 850.75C836.04 850.61 840.65 851.75 846.28 853.27C851.9 854.79 857.63 856.27 859 856.56C860.38 856.84 863.08 857.59 865 858.23C866.92 858.87 868.95 859.48 869.5 859.6C870.05 859.71 874.1 860.76 878.5 861.93C882.9 863.1 887.63 864.46 889 864.95C890.38 865.44 892.74 866.1 894.25 866.42C896.99 867 896.98 866.97 892 859C889.25 854.6 887 850.77 887 850.5C887 850.23 885.89 848.54 884.53 846.75C883.17 844.96 882.04 843.16 882.03 842.75C882.01 842.34 880.89 840.54 879.53 838.75C878.17 836.96 877.04 835.16 877.03 834.75C877.01 834.34 875.2 831.3 873 828C870.8 824.7 869 821.77 869 821.5C869 821.23 867.28 818.41 865.17 815.25C863.06 812.09 860.48 807.92 859.42 806C858.36 804.08 856.7 801.38 855.72 800C854.73 798.63 853.95 796.94 853.97 796.25C853.98 795.56 854.52 793.76 855.17 792.25C855.81 790.74 856.41 789.27 856.5 789C856.6 788.73 856.94 787.83 857.26 787C857.58 786.17 858.61 783.02 859.54 780C860.48 776.98 861.82 773.15 862.53 771.5C863.24 769.85 864.82 765.35 866.03 761.5C867.25 757.65 868.82 753.15 869.53 751.5C870.24 749.85 871.82 745.35 873.03 741.5C874.25 737.65 875.82 733.15 876.53 731.5C877.24 729.85 878.59 726.02 879.53 723C880.47 719.98 881.82 716.15 882.53 714.5C883.24 712.85 884.82 708.35 886.04 704.5C887.27 700.65 888.62 697.05 889.05 696.5C889.48 695.95 889.93 695.05 890.04 694.5C890.16 693.95 890.39 693.05 890.55 692.5C890.71 691.95 891.61 689.02 892.54 686C893.48 682.98 894.82 679.15 895.53 677.5C896.24 675.85 897.82 671.35 899.03 667.5C900.25 663.65 901.82 659.15 902.53 657.5C903.24 655.85 905.05 650.67 906.54 646C908.04 641.33 909.58 637.05 909.96 636.5C910.34 635.95 911.23 633.48 911.94 631C912.65 628.52 913.71 625.38 914.28 624C914.86 622.63 915.41 621.27 915.5 621C915.6 620.73 915.94 619.83 916.26 619C916.58 618.17 917.86 614.35 919.1 610.5C920.34 606.65 921.95 602.38 922.67 601C923.39 599.63 923.99 597.94 923.99 597.25C924 596.47 922.97 596.13 921.25 596.35C919.74 596.55 916.02 597.21 913 597.83C909.98 598.44 905.7 599.18 903.5 599.48C901.3 599.77 895.9 600.64 891.5 601.4C887.1 602.17 881.92 603.03 880 603.33C878.08 603.62 872.23 604.6 867 605.49C861.77 606.39 855.92 607.34 854 607.61C852.08 607.88 849.38 608.27 848 608.47C846.63 608.67 843.92 609.11 842 609.45C840.08 609.79 837.83 610.27 837 610.51C836.17 610.76 833.48 611.19 831 611.49C828.52 611.78 825.38 612.26 824 612.55C822.63 612.85 817.9 613.69 813.5 614.43C809.1 615.16 805.16 615.59 804.75 615.38C804.34 615.17 804.24 613.76 804.54 612.25C804.83 610.74 805.59 607.92 806.23 606C806.87 604.08 807.47 602.05 807.57 601.5C807.67 600.95 808.92 596.23 810.36 591C811.79 585.77 812.93 580.98 812.89 580.35C812.84 579.67 809.9 578.93 805.65 578.52C801.72 578.15 797.38 577.68 796 577.48C794.63 577.28 789.67 576.85 785 576.53C780.33 576.2 772.67 575.52 768 575.01C763.33 574.5 756.13 573.8 752 573.45C747.88 573.11 744.22 572.73 743.88 572.62C743.55 572.5 742.53 572.54 741.63 572.7ZM1147.15 623.25C1142.86 627.24 1133.9 635.45 1127.24 641.5C1118.08 649.83 1115.42 652.77 1116.32 653.63C1116.97 654.25 1125.83 659.55 1136 665.42C1146.17 671.28 1154.95 675.9 1155.5 675.68C1156.05 675.47 1160.55 669.79 1165.5 663.07C1170.45 656.35 1178.44 645.48 1183.25 638.92C1188.06 632.37 1192 626.66 1192 626.25C1191.99 625.84 1184.01 623.34 1174.25 620.71C1164.49 618.07 1156.15 615.93 1155.73 615.96C1155.3 615.98 1151.44 619.26 1147.15 623.25Z"
       style="fill:#808080;opacity:0.99999998" />
    <path
       id="Path 9"
       class="shp0"
       d="M736.98 633.25C736.96 633.39 742.63 644.52 749.56 658C756.49 671.48 769.21 696.13 777.83 712.79C786.45 729.44 793.73 743.07 794 743.06C794.27 743.06 796.98 741.97 800 740.64C803.02 739.32 808.88 736.69 813 734.8C817.13 732.91 829.4 727.35 840.27 722.43C851.14 717.52 860.03 712.94 860.02 712.25C860.01 711.56 855.64 696.49 850.31 678.75C844.99 661.01 840.6 646.4 840.56 646.29C840.53 646.17 830.15 644.74 817.5 643.1C804.85 641.46 787.3 639.18 778.5 638.02C769.7 636.87 757.33 635.27 751 634.47C744.67 633.67 738.94 633.01 738.25 633.01C737.56 633 736.99 633.11 736.98 633.25ZM779.43 763.31C779.14 765.06 777.63 773.25 776.09 781.5C774.55 789.75 773.33 796.61 773.39 796.75C773.45 796.88 782.5 798.95 793.5 801.35C804.5 803.74 815.08 806.02 817 806.41C820.3 807.09 820.41 807.02 819 805.31C818.17 804.32 810.78 795.63 802.57 786C794.35 776.38 785.91 766.61 783.8 764.31L779.96 760.12L779.43 763.31ZM478.5 796.65C460.35 811.23 445.65 823.69 445.84 824.33C446.02 824.98 449.39 830.63 453.34 836.91C457.28 843.19 460.8 848.81 461.17 849.41C461.59 850.1 463.81 848.95 467.17 846.32C470.1 844.03 478.35 837.33 485.5 831.43C497.78 821.31 498.53 820.85 499.11 823.11C499.44 824.42 501.02 832.75 502.61 841.6C505.17 855.88 505.67 857.54 507 856.24C507.82 855.43 509.85 854.15 511.5 853.39C513.15 852.62 516.08 850.65 518 849C519.92 847.35 522.06 846 522.75 846C523.44 846 524.11 845.65 524.25 845.21C524.39 844.78 529.45 840.88 535.5 836.55C541.55 832.21 549.42 827.07 553 825.12L559.5 821.56L618.5 820.43L562.5 820.01C523.75 781.25 512.27 770.02 512 770.06C511.73 770.09 496.65 782.06 478.5 796.65ZM1107 797.04C1116.08 798.59 1124.74 799.89 1126.25 799.93C1128.06 799.98 1129 799.49 1129 798.5C1129 797.57 1127.76 796.82 1125.75 796.53C1123.96 796.27 1116.42 795.59 1109 795.03C1101.58 794.46 1094.38 794.05 1093 794.11C1091.63 794.18 1097.92 795.5 1107 797.04Z"
       style="fill:#ffffff;opacity:1" />
    <path
       id="Path 10"
       class="shp1"
       d="M537.2 835.3L525.9 843.5C531.01 847.82 532.73 849.06 533 849.04C533.27 849.02 534.85 850.14 536.5 851.53C538.15 852.92 539.73 854.04 540 854.01C540.27 853.98 541.4 854.79 542.5 855.8C543.6 856.81 545.51 858.17 546.75 858.82L549 860C549 834.42 548.89 827.02 548.75 827.05C548.61 827.08 543.41 830.79 537.2 835.3ZM86 873.92C80.22 875.42 74.99 876.84 74.37 877.08C73.59 877.36 74.32 881.18 76.64 889C78.51 895.33 80.75 902.98 81.6 906C82.49 909.16 83.5 911.07 83.96 910.5C84.41 909.95 87.77 902.3 91.42 893.5C95.08 884.7 98.73 876.04 99.53 874.25C100.95 871.11 100.93 871 98.75 871.09C97.51 871.14 91.78 872.41 86 873.92ZM1114.7 872C1114.35 872.83 1112.03 881.6 1109.54 891.5C1107.05 901.4 1104.78 909.61 1104.5 909.75C1104.23 909.89 1098.71 908.25 1092.25 906.11C1085.79 903.97 1069.25 898.34 1055.5 893.59C1041.75 888.85 1030.16 885.09 1029.73 885.24C1029.31 885.38 1038.54 889.86 1050.23 895.18C1061.93 900.51 1082.64 909.96 1096.25 916.18C1109.86 922.41 1121.21 927.27 1121.46 927C1121.71 926.73 1120.78 916.6 1119.39 904.5C1117.99 892.4 1116.51 879.8 1116.09 876.5C1115.67 873.2 1115.05 871.17 1114.7 872ZM383.5 932.08C375.8 941.46 369.5 949.63 369.5 950.23C369.5 950.84 378 953.26 388.5 955.65C398.95 958.03 421.45 963.12 438.5 966.96C455.55 970.81 469.59 973.85 469.71 973.73C469.82 973.6 458.46 967.76 444.46 960.75C425.21 951.11 419.03 947.57 419.12 946.25C419.18 945.29 419.19 944.05 419.15 943.5C419.1 942.95 418 944.08 416.7 946C415.4 947.92 414.04 950.51 413.67 951.75C413.3 952.99 412.66 954 412.25 954.01C411.84 954.01 408.73 945.24 405.34 934.51C401.95 923.78 398.8 915.01 398.34 915.01C397.88 915.02 391.2 922.7 383.5 932.08ZM976.6 937.3C973.91 940.9 971.73 944.11 971.75 944.41C971.78 944.71 967.48 951.61 962.19 959.73C956.91 967.85 952.08 975.4 951.46 976.5C950.84 977.6 948.15 981.88 945.48 986C942.81 990.13 940.26 993.61 939.82 993.75C939.37 993.89 938.98 994.56 938.97 995.25C938.95 995.94 937.37 998.64 935.47 1001.25C933.56 1003.86 932 1006.45 932 1007C932 1007.55 931.55 1008 931 1008C930.45 1008 930 1008.45 930 1009C930 1009.55 928.31 1012.59 926.25 1015.75C924.19 1018.91 921.94 1022.06 921.25 1022.75C920.25 1023.75 919.73 1023.75 918.64 1022.75C917.89 1022.06 915.34 1019.92 912.97 1018C910.6 1016.08 907.28 1013.29 905.58 1011.81C903.89 1010.32 896.88 1004.34 890 998.5L877.5 987.88C865.88 988.91 860.48 989.36 858 989.54C855.52 989.72 851.7 990.11 849.5 990.42C847.3 990.72 842.35 991.22 838.5 991.52C834.65 991.82 828.13 992.46 824 992.92C819.88 993.39 815.83 993.79 815 993.8C814.17 993.82 810.58 994.11 807 994.45C803.42 994.79 798.92 995.25 797 995.47C795.08 995.7 789 996.34 783.5 996.91C778 997.47 770.8 998.16 767.5 998.43C764.2 998.7 757 999.41 751.5 1000C746 1000.6 741.37 1001.17 741.21 1001.29C741.05 1001.41 757.1 1013.42 776.87 1028C796.64 1042.58 813.09 1054.39 813.41 1054.25C813.74 1054.11 821.28 1046.24 830.18 1036.75C839.07 1027.26 850.32 1015.34 855.18 1010.25L864 1001C873.09 1017.66 883.25 1036 892.45 1052.5C901.65 1069 909.55 1082.95 910.01 1083.5C910.48 1084.06 911.57 1079.47 912.5 1073C913.41 1066.67 914.91 1056.18 915.83 1049.69L917.5 1037.87C1001.98 994.41 1026.61 981.61 1026.75 981.39C1026.89 981.18 1026.44 980.16 1025.75 979.14C1025.06 978.11 1015.9 968.1 1005.39 956.89C994.88 945.67 985.21 935.2 983.89 933.62L981.5 930.73L976.6 937.3ZM1143.33 965.83C1132.24 968.4 1122.92 970.73 1122.62 971C1122.32 971.27 1128.12 977.58 1135.51 985L1148.94 998.5C1152.7 989.98 1156.53 981.54 1159.89 974.25C1163.46 966.51 1165.48 961.04 1164.75 961.08C1164.06 961.13 1154.43 963.27 1143.33 965.83ZM594 965.02C591.52 965.43 587.02 966.01 584 966.3C580.98 966.6 573.77 967.51 568 968.34C562.23 969.16 554.8 970.16 551.5 970.54C548.2 970.93 544.6 971.38 543.5 971.56C542.4 971.73 536.77 972.55 531 973.37C525.23 974.19 518.25 975.13 515.5 975.45C512.75 975.76 508.13 976.36 505.24 976.76C502.35 977.17 499.98 977.73 499.98 978C499.98 978.27 501.22 979.02 502.74 979.65C504.26 980.29 518.1 986.64 533.5 993.78C548.9 1000.91 576.35 1013.59 594.5 1021.95C612.65 1030.32 627.83 1037.46 628.23 1037.83C628.63 1038.2 623.79 1045.14 617.48 1053.25L606 1068C638.94 1101.38 648.73 1111.06 649 1111.04C649.27 1111.03 650.32 1107.07 651.31 1102.26C652.31 1097.44 656.83 1075.72 661.36 1054L669.6 1014.5C697.42 1044.97 705.63 1053.75 705.79 1053.66C705.95 1053.57 703.92 1042.83 701.29 1029.79C698.65 1016.75 696.86 1005.72 697.31 1005.29C697.75 1004.86 704.28 1005.24 711.81 1006.15C719.34 1007.06 725.62 1007.74 725.78 1007.65C725.93 1007.57 724.01 1004.01 721.53 999.75C719.04 995.49 717 991.77 717 991.5C717 991.23 715.65 988.98 714 986.5C712.35 984.02 711 981.77 711 981.5C711 981.23 709.88 979.54 708.52 977.75L706.03 974.5C695.55 979.42 687.66 983.13 681.75 985.92C675.84 988.72 666.16 993.28 660.25 996.07C654.34 998.85 646.58 1002.66 643 1004.54L636.5 1007.94C632.63 1003.72 630 1000.7 628.17 998.5C626.34 996.3 623.41 992.76 621.67 990.64C619.93 988.52 617.6 985.78 616.5 984.55C615.4 983.32 612.92 980.37 611 978C609.08 975.62 605.48 971.56 603 968.98C598.59 964.37 598.41 964.29 594 965.02ZM1097.99 1046C1097.99 1046.83 1095.98 1079.9 1093.52 1119.5C1091.06 1159.1 1088.77 1194.65 1088.42 1198.5C1088 1203.22 1088.13 1205.17 1088.81 1204.5C1089.37 1203.95 1100.36 1183.7 1113.24 1159.5C1126.13 1135.3 1138.54 1111.79 1140.83 1107.25C1143.13 1102.71 1144.69 1098.44 1144.3 1097.75C1143.92 1097.06 1134.17 1085.7 1122.65 1072.5C1111.13 1059.3 1100.86 1047.6 1099.84 1046.5C1098.41 1044.96 1097.98 1044.85 1097.99 1046ZM148.34 1128.27L140.18 1141.5C147.79 1156.61 150.45 1161 151 1161C151.55 1161 156.28 1158.97 161.5 1156.5L171 1152C167.3 1142.31 164.41 1133.99 162.2 1127.25C159.98 1120.51 157.8 1115.01 157.34 1115.02C156.88 1115.03 152.83 1120.99 148.34 1128.27ZM193.62 1220C193.35 1220.83 190.95 1234.41 188.31 1250.2C185.66 1265.98 183.72 1279.1 184 1279.34C184.28 1279.58 195.07 1285.08 208 1291.55C220.93 1298.03 231.21 1302.69 230.86 1301.91C230.51 1301.14 226.16 1291.28 221.18 1280C216.21 1268.72 208.08 1250.28 203.13 1239C198.18 1227.72 193.9 1219.17 193.62 1220ZM1091 1280.5C1091 1297.83 1090.78 1312 1090.5 1312C1090.22 1312 1080.89 1309.94 1069.75 1307.42C1058.61 1304.9 1049.16 1302.65 1048.75 1302.42C1048.34 1302.19 1047.74 1302.79 1047.41 1303.75C1047.09 1304.71 1044.16 1312.81 1040.91 1321.75C1037.66 1330.69 1035 1338.22 1035 1338.5C1035 1338.78 1036.69 1339 1038.75 1339C1040.81 1338.99 1046.33 1338.54 1051 1338C1055.67 1337.45 1068.05 1336.07 1078.5 1334.92C1088.95 1333.78 1097.72 1332.62 1098 1332.35C1098.28 1332.08 1097.19 1313.21 1095.58 1290.43C1093.98 1267.64 1092.29 1249 1091.83 1249C1091.37 1249 1091 1263.17 1091 1280.5ZM238 1324C238 1324.55 241.39 1332.99 245.54 1342.75C249.69 1352.51 254.15 1362.97 255.45 1366C256.75 1369.03 259.19 1374.88 260.88 1379C263.95 1386.49 263.96 1386.5 270.72 1389.7C274.45 1391.46 289.54 1398.55 304.25 1405.45C318.96 1412.35 331.11 1417.99 331.25 1417.97C331.39 1417.95 338.7 1421.35 347.5 1425.51C356.3 1429.67 363.77 1432.95 364.1 1432.79C364.44 1432.63 359.94 1424.8 354.1 1415.39C348.27 1405.98 336.3 1386.52 327.5 1372.15L311.5 1346.01C302.2 1343.03 292.52 1339.91 284 1337.17C275.48 1334.43 261.98 1330.12 254 1327.61C246.03 1325.09 239.16 1323.02 238.75 1323.02C238.34 1323.01 238 1323.45 238 1324ZM982.6 1342.25C981.82 1343.49 977.31 1350.91 972.58 1358.75C967.86 1366.59 964.34 1372.99 964.75 1372.98C965.16 1372.97 973.83 1370.9 984 1368.38C994.17 1365.86 1002.86 1363.5 1003.3 1363.15C1003.74 1362.79 1000.04 1357.44 995.08 1351.25C990.12 1345.06 985.6 1340 985.05 1340C984.49 1340 983.39 1341.01 982.6 1342.25ZM615.99 1389.49L599.5 1406.01C607.64 1406 614.39 1405.54 619.75 1404.99C625.11 1404.43 639.85 1403.05 652.5 1401.92C665.15 1400.78 675.61 1399.66 675.75 1399.43C675.89 1399.19 672.06 1396.67 667.25 1393.81C662.44 1390.96 653.1 1385.27 646.5 1381.17C639.9 1377.07 634.04 1373.55 633.49 1373.35C632.93 1373.14 625.05 1380.41 615.99 1389.49Z"
       style="fill:#808080;opacity:1" />
  </g>
</svg>
