<?xml version="1.0" encoding="UTF-8" standalone="no"?>
<svg
   version="1.2"
   viewBox="0 0 1468 1500"
   width="1468"
   height="1500"
   id="svg1"
   sodipodi:docname="marx.svg"
   inkscape:version="1.4 (86a8ad7, 2024-10-11)"
   xmlns:inkscape="http://www.inkscape.org/namespaces/inkscape"
   xmlns:sodipodi="http://sodipodi.sourceforge.net/DTD/sodipodi-0.dtd"
   xmlns="http://www.w3.org/2000/svg"
   xmlns:svg="http://www.w3.org/2000/svg">
  <defs
     id="defs1" />
  <sodipodi:namedview
     id="namedview1"
     pagecolor="#505050"
     bordercolor="#eeeeee"
     borderopacity="1"
     inkscape:showpageshadow="0"
     inkscape:pageopacity="0"
     inkscape:pagecheckerboard="0"
     inkscape:deskcolor="#505050"
     inkscape:zoom="0.55"
     inkscape:cx="734.54545"
     inkscape:cy="750"
     inkscape:window-width="1920"
     inkscape:window-height="1027"
     inkscape:window-x="1912"
     inkscape:window-y="-8"
     inkscape:window-maximized="1"
     inkscape:current-layer="svg1" />
  <title
     id="title1">marx</title>
  <style
     id="style1">
		tspan { white-space:pre }
		.shp0 { fill: #7f7f7f } 
		.shp1 { opacity: 0.996;fill: #ffffff } 
		.shp2 { fill: #000000 } 
	</style>
  <g
     id="Background">
    <path
       id="Path 0"
       class="shp0"
       d="M648.5 1.15C646.3 1.65 610.75 8.35 569.5 16.03C528.25 23.72 492.14 30.46 489.25 31L484 32L484 67C479.74 67.76 468.15 69.49 455.5 71.33C442.85 73.17 431.94 74.98 431.25 75.34C430.36 75.81 430.94 77.13 433.25 79.91C435.04 82.06 445.61 93.99 456.75 106.41C467.89 118.83 476.66 129.38 476.25 129.84C475.84 130.3 474.15 131.19 472.5 131.81C470.85 132.43 439.8 144.43 403.5 158.47C367.2 172.52 336.15 184.61 334.5 185.36C332.85 186.1 328.13 189.58 324 193.09C319.88 196.6 308.85 206.49 299.5 215.06C290.15 223.63 276.66 236.01 269.53 242.57C262.39 249.13 254 256.98 250.88 260L245.21 265.5C197.54 434.45 183.43 484.34 183.1 485.37C182.77 486.4 166.78 500.13 147.56 515.87C128.34 531.62 107.95 548.33 102.25 553L91.88 561.5C84.46 581.65 74.08 610.23 64.01 638C53.95 665.77 45.67 688.59 45.61 688.7C45.55 688.81 35.54 690.61 23.36 692.7C11.19 694.79 0.84 696.87 0.36 697.32C-0.12 697.78 0.62 712.52 2.05 730.82L4.59 763.5C9.95 769.97 23.65 784.37 38.5 799.68C53.35 814.98 83.95 846.63 106.5 870C129.05 893.37 150.73 915.87 154.68 920L161.85 927.5C159.69 994.92 159.04 1016.75 159.01 1019.5C158.96 1024.27 159.11 1024.55 162.23 1025.64C164.03 1026.27 176.3 1030.69 189.5 1035.46C202.7 1040.24 216.2 1045.06 219.5 1046.19C222.8 1047.31 226 1048.75 226.62 1049.37C227.24 1049.99 229.62 1056.8 231.92 1064.5C234.23 1072.2 235.97 1078.79 235.81 1079.14C235.64 1079.49 230.55 1078.26 224.5 1076.39C218.45 1074.53 213.5 1072.99 213.5 1072.97C213.5 1072.95 211.03 1078.37 208 1085.01C202.71 1096.63 202.34 1097.16 198.23 1098.8C195.88 1099.73 194.31 1100.81 194.73 1101.19C195.15 1101.57 202.93 1100.87 212 1099.63C221.07 1098.4 228.64 1097.63 228.81 1097.94C228.98 1098.25 223.76 1111.55 217.21 1127.5L205.31 1156.5C217.86 1160.63 228.81 1164.12 237.75 1166.91C246.69 1169.71 254 1172.34 254 1172.75C254 1173.16 247.14 1174.56 238.75 1175.87C230.36 1177.17 215.18 1179.48 205 1181C194.82 1182.52 186.44 1183.71 186.37 1183.63C186.3 1183.56 186.89 1168.2 187.67 1149.5C188.45 1130.8 188.84 1114.94 188.54 1114.25C188.12 1113.29 180.64 1113 156 1113L124 1113C124.66 1116.49 129.45 1138.42 135.06 1164C140.67 1189.58 145.31 1210.6 145.38 1210.73C145.45 1210.86 159.45 1212.81 176.5 1215.06C193.55 1217.32 207.55 1219.24 207.62 1219.33C207.69 1219.42 206.49 1228.5 204.96 1239.5C202.39 1258.09 202.31 1259.61 203.85 1261.09C204.76 1261.97 216.73 1272.77 230.46 1285.09C244.19 1297.42 264.89 1316.01 276.46 1326.42C288.03 1336.83 300.46 1348.08 304.07 1351.42L310.65 1357.5C312.58 1375.33 313.29 1380.72 313.46 1381C313.63 1381.28 316.63 1383.25 320.13 1385.4C323.63 1387.54 333.36 1393.51 341.75 1398.65C350.14 1403.79 364.09 1412.34 372.75 1417.64C381.41 1422.94 393.45 1430.31 399.5 1434.03C405.55 1437.74 421.75 1447.65 435.5 1456.06C449.25 1464.46 467.48 1475.6 476 1480.81C484.52 1486.02 494.99 1492.47 499.25 1495.14C504.05 1498.15 508.14 1500 510 1500C511.65 1500 513 1499.66 513 1499.25C513 1498.84 508.92 1483.65 503.94 1465.5C498.95 1447.35 495.01 1432.44 495.19 1432.36C495.36 1432.29 503.15 1431.24 512.5 1430.04C521.85 1428.84 530.51 1427.66 531.75 1427.43C533.12 1427.17 533.99 1427.49 533.97 1428.25C533.95 1428.94 528.1 1439.29 520.97 1451.25L508 1473L540.5 1499.96L557 1500C579.09 1480.21 591.05 1469.53 597.83 1463.48C604.61 1457.44 610.68 1452.34 611.33 1452.15C611.97 1451.96 617.23 1452.95 623 1454.35C628.77 1455.75 649.02 1460.54 668 1465.01C686.98 1469.47 702.95 1472.94 703.5 1472.71C704.05 1472.48 725.42 1459.56 751 1443.99C776.58 1428.42 798.06 1415.19 798.75 1414.59C799.7 1413.77 796.17 1411.49 784.25 1405.26C775.59 1400.73 761.64 1393.41 753.25 1389.01L738 1381C719.07 1411.74 716.23 1415.62 715.37 1414.71C714.74 1414.04 706.93 1402.7 698.02 1389.5C689.1 1376.3 681.37 1365.05 680.84 1364.5C680.22 1363.86 680.21 1364.39 680.81 1366C681.33 1367.38 688.28 1381.55 696.26 1397.5C704.25 1413.45 711.95 1427.74 713.39 1429.25C714.82 1430.76 715.89 1432.2 715.75 1432.44C715.61 1432.68 705.04 1436.96 692.25 1441.94C679.46 1446.92 668.66 1451 668.25 1451.01C667.84 1451.01 665.29 1436.27 662.59 1418.26C659.89 1400.24 657.39 1384.6 657.03 1383.5C656.5 1381.86 653.8 1384.82 642.19 1399.75C634.39 1409.79 627.66 1418 627.25 1418.01C626.84 1418.02 620.65 1409.85 613.5 1399.87C606.35 1389.89 600.27 1381.58 600 1381.41C599.73 1381.24 579.7 1381.7 555.5 1382.44C531.3 1383.18 511.27 1383.56 511 1383.3C510.73 1383.03 509.38 1369.38 508 1352.98C506.63 1336.57 505.85 1322.78 506.27 1322.32C506.7 1321.87 514.12 1323.23 522.77 1325.33C531.42 1327.44 542.1 1330 546.5 1331.02C550.9 1332.04 563.5 1334.94 574.5 1337.45C585.5 1339.97 597.42 1342.75 601 1343.62C604.58 1344.5 607.99 1345.05 608.59 1344.86C609.19 1344.66 597.16 1330.89 581.84 1314.25C566.53 1297.61 554 1283.55 554 1283C554 1282.45 558.61 1283.98 564.25 1286.4C569.89 1288.81 577.65 1292.16 581.5 1293.83C586.25 1295.89 588.62 1296.48 588.88 1295.68C589.08 1295.03 588.75 1285.05 588.13 1273.5C587.51 1261.95 587 1250.59 587 1248.25C587 1245.14 586.6 1244 585.5 1244C584.67 1244 574.89 1246.7 563.75 1250.01C552.61 1253.31 542.94 1256.01 542.25 1256.01C541.56 1256 541 1255.66 540.99 1255.25C540.99 1254.84 542.54 1245.72 544.43 1235C546.33 1224.28 548.02 1214.46 548.19 1213.18C548.47 1211.07 546.69 1210.01 528.5 1201.53C517.5 1196.4 508.41 1192.5 508.3 1192.85C508.18 1193.21 506.92 1209.7 505.49 1229.5C504.06 1249.3 502.76 1265.95 502.6 1266.5C502.44 1267.05 478.28 1273.52 448.9 1280.88C419.53 1288.24 395.39 1294.43 395.25 1294.63C395.11 1294.83 403.3 1309.74 413.45 1327.75C423.59 1345.76 431.66 1360.72 431.36 1361C431.07 1361.28 430.31 1360.75 429.67 1359.84C429.03 1358.93 420.85 1346.91 411.5 1333.13L394.5 1308.08C380.73 1327.01 374.1 1336.1 370.9 1340.5L365.07 1348.5C364.27 1343.08 363.13 1331.94 362.02 1320.25C360.91 1308.56 360 1297.88 360 1296.5C360 1294.3 363.8 1291.65 391.96 1274.25C409.54 1263.39 423.91 1254.28 423.89 1254C423.87 1253.72 407.7 1238.42 387.96 1220C368.22 1201.58 349.58 1184.14 346.54 1181.25C343.49 1178.36 341.11 1175.8 341.25 1175.56C341.39 1175.32 352.98 1170.57 367 1165.01C381.02 1159.45 392.95 1154.48 393.5 1153.95C394.16 1153.32 392.32 1145.62 388.08 1131.25C384.55 1119.29 381.4 1109.17 381.08 1108.77C380.76 1108.37 365.2 1109.58 346.5 1111.45C327.8 1113.32 309.61 1115 306.07 1115.18L299.64 1115.5C283.62 1085.28 279.09 1076.39 279.23 1076.26C279.38 1076.12 288.05 1077.38 298.5 1079.05C308.95 1080.72 324.48 1083.21 333 1084.58C341.52 1085.95 359.52 1088.85 373 1091.04C386.48 1093.23 411.34 1097.26 428.25 1100.01C445.16 1102.75 460.01 1105 461.25 1105C462.49 1105.01 479.02 1100.9 498 1095.87C516.98 1090.84 546.45 1083.03 563.5 1078.5L594.5 1070.26C618.96 1027.82 626.38 1015.13 626.78 1014.68C627.18 1014.23 636.27 1020.26 647 1028.07C657.73 1035.89 666.95 1042.46 667.5 1042.67C668.05 1042.89 677.05 1041.46 687.5 1039.5C697.95 1037.54 711 1035.06 716.5 1034C722 1032.93 738.42 1029.78 753 1026.99C767.58 1024.19 782.88 1021.25 787 1020.45C794.44 1019 794.52 1019 797.5 1021.38C799.15 1022.69 811.3 1033.02 824.5 1044.32C845.09 1061.95 848.74 1064.7 850.19 1063.68C851.12 1063.03 860.99 1055.53 872.13 1047C883.26 1038.47 892.97 1031.16 893.69 1030.75C894.64 1030.21 896.93 1033.85 902 1044C905.85 1051.7 909.45 1058 910 1058C910.65 1058 910.8 1052.8 910.43 1043.25C910.11 1035.14 909.51 1015.67 909.08 1000C908.66 984.33 908.49 971.27 908.72 971C908.95 970.73 930.37 977.57 956.32 986.22C982.27 994.87 1003.61 1001.73 1003.75 1001.47C1003.89 1001.21 995.79 992.85 985.75 982.9L967.5 964.79C972.92 959.73 982.15 951.17 991.5 942.5C1000.85 933.83 1009.07 926.24 1009.76 925.62C1010.71 924.77 1005.07 922.79 986.61 917.5L962.2 910.5C962.91 905.08 964.17 893.83 965.46 882C966.74 870.17 967.73 860.37 967.65 860.21C967.57 860.05 963.45 862.35 958.5 865.33C953.55 868.31 941.06 875.98 930.75 882.37C920.44 888.77 911.33 894 910.5 894C909.67 894 889.76 886.53 866.25 877.41C842.74 868.28 819.23 859.2 814 857.23C805.41 853.99 801.86 851.7 777 833.3C761.88 822.11 743.99 808.92 737.25 803.98C730.51 799.04 724.83 795.11 724.62 795.25C724.41 795.39 741.71 821.83 763.07 854C798.72 907.71 802.3 912.74 806.7 915.39C809.34 916.98 817.8 921.75 825.5 925.99C833.2 930.24 853 941.25 869.5 950.46C886 959.68 899.61 967.39 899.75 967.61C899.89 967.82 891.62 980.49 881.37 995.75C871.12 1011.01 862.54 1023.72 862.31 1024C862.08 1024.28 849.66 1022.37 834.7 1019.76C819.74 1017.15 794.45 1012.75 778.5 1009.99C762.55 1007.23 740.5 1003.43 729.5 1001.54C718.5 999.66 698.92 996.28 686 994.04C673.08 991.8 654.74 988.62 645.25 986.98C635.76 985.34 627.66 984.19 627.25 984.41C626.84 984.64 623.13 991.62 619 999.92C614.88 1008.22 611.27 1015.02 611 1015.01C610.73 1015.01 607.58 1004.37 604 991.36L597.5 967.71C544.8 968.71 517.01 969.34 501.75 969.75C486.48 970.16 474 970.73 474 971C474 971.27 479.15 978.92 485.44 988C491.73 997.08 496.57 1004.64 496.19 1004.81C495.81 1004.98 492.57 1004.68 489 1004.14C485.43 1003.59 471.93 1001.31 459 999.05C446.07 996.79 431.9 994.29 427.5 993.49C423.1 992.69 419.39 992.03 419.25 992.02C419.11 992.01 422.6 999.2 427 1008C432.43 1018.87 434.6 1024.15 433.75 1024.46C433.06 1024.71 422.26 1026.62 409.75 1028.71C389.61 1032.07 386.85 1032.33 385.64 1031C384.88 1030.17 376.03 1016.67 365.96 1001C355.89 985.33 337.77 957.2 325.7 938.5C313.62 919.8 303.55 904.05 303.31 903.5C303.07 902.95 318.59 883.83 337.79 861C357 838.17 372.66 819.44 372.6 819.36C372.55 819.28 364.18 820.97 354 823.12C343.82 825.26 335.21 826.68 334.86 826.26C334.51 825.84 329.51 813.58 323.74 799L313.25 772.5C323.13 728.33 326.71 712.13 327.58 708C328.45 703.88 343.78 634.58 361.64 554C379.51 473.42 394.33 407.27 394.59 407C394.85 406.73 395.04 428.66 395.03 455.75C395.01 494.53 395.27 504.99 396.25 504.95C396.94 504.92 421.8 500.73 451.5 495.64L505.5 486.39C593.46 530.26 618.89 543.35 618.75 543.79C618.61 544.22 612.33 556.26 604.79 570.54C597.26 584.82 590.51 597.31 589.79 598.31C588.7 599.84 584.81 600.5 565 602.53C552.08 603.85 507.3 608.33 465.5 612.48C423.7 616.63 385.9 620.46 381.5 620.99C377.1 621.51 373.46 622.07 373.41 622.22C373.36 622.38 383.57 661.2 396.11 708.5C408.65 755.8 418.59 794.8 418.2 795.17C417.82 795.54 408.95 802.65 398.5 810.96C388.05 819.27 380.18 826.05 381 826.02C381.82 826 387.56 824.85 393.75 823.49C399.94 822.12 410.06 819.9 416.25 818.55C422.44 817.2 443.25 812.66 462.5 808.46C481.75 804.26 502.68 799.72 509 798.37C515.33 797.02 522.08 795.48 524 794.94C526.94 794.12 529.13 791.75 537.59 780.23C543.15 772.68 555.3 756.3 564.59 743.84C579.47 723.9 581.74 721.28 583.5 722.03C584.6 722.51 600.35 727.62 618.5 733.39C636.65 739.16 652.85 744.2 654.5 744.58C656.15 744.97 657.27 745.04 657 744.74C656.73 744.44 639.63 731.7 619 716.43C598.38 701.16 578.46 686.49 574.75 683.83L568 679C562.19 683.94 543.74 701.6 523.26 721.44C502.78 741.27 486.13 757.63 486.26 757.79C486.39 757.95 493.48 755.18 502 751.63C510.52 748.08 521.33 743.61 526 741.69C530.67 739.77 534.61 738.27 534.74 738.35C534.88 738.43 531.5 749.59 527.24 763.15C522.98 776.7 519.27 788.06 519 788.38C518.73 788.7 510.85 787.17 501.5 784.97C492.15 782.78 477.75 779.39 469.5 777.45C461.25 775.51 445.95 771.86 435.5 769.33C425.05 766.81 416.41 764.69 416.3 764.62C416.19 764.56 413.83 737.5 411.05 704.5C408.28 671.5 406.01 643.04 406 641.25L406 638L589.28 637.5C620.45 565.04 629.84 544 630.25 544C630.66 544 647.76 556.51 668.25 571.81C688.74 587.1 719 609.67 735.5 621.96C752 634.25 765.95 644.66 766.5 645.08C767.07 645.52 772.24 641.86 778.41 636.68C784.41 631.63 794.53 623.11 800.91 617.73C807.28 612.36 813.85 607.57 815.5 607.08L818.5 606.18C813.46 606.04 801.99 604.65 789.75 602.99C777.51 601.34 754.23 598.24 738 596.09L708.5 592.2C688.35 571.52 677.78 560.56 672.02 554.51C666.26 548.45 656.13 538.03 649.52 531.34C639.44 521.14 637.82 519.09 639.5 518.65C640.6 518.37 649.15 516.72 658.5 514.99C667.85 513.26 689.45 509.21 706.5 505.98C723.55 502.75 747.29 498.29 759.25 496.06C771.21 493.83 781.56 492.32 782.25 492.72C782.94 493.11 789.01 497.38 795.75 502.22L808 511C802.19 514.61 789.48 522.31 776 530.44C762.52 538.57 750.38 545.89 749 546.7C747.49 547.59 746.9 548.49 747.5 548.96C748.05 549.39 759.98 554.62 774 560.57C788.02 566.52 824.48 582.12 855 595.22C885.52 608.32 908.92 618.8 907 618.52C905.08 618.24 893.26 616.65 880.75 615C868.24 613.35 856.99 611.99 855.75 611.97C854.51 611.96 853.73 612.18 854 612.47C854.27 612.76 858.1 614.29 862.5 615.87C866.9 617.46 876.8 621.23 884.5 624.24C892.2 627.26 900.08 630.32 902 631.02C905.41 632.28 905.74 632.17 915.5 626.29C921 622.98 931.58 616.58 939 612.06C946.42 607.54 952.84 603.54 953.27 603.17C953.69 602.8 948.15 590.13 940.96 575C933.77 559.88 927.43 547.05 926.86 546.5C926.3 545.95 922.84 544.33 919.17 542.91C915.5 541.48 896.08 533.66 876 525.54C855.92 517.41 821.73 503.61 800 494.87C778.27 486.13 759.71 478.99 758.75 478.99C757.79 479 717.51 485.59 669.25 493.64L581.5 508.28C545.08 485.75 527.52 474.89 519 469.6C507.66 462.56 502.63 459.98 500.25 459.99C498.46 460 491.26 460.64 484.25 461.43C477.24 462.21 463.85 463.6 454.5 464.52C445.15 465.43 434.69 466.48 431.25 466.84C425.94 467.4 425.09 467.28 425.58 466C425.89 465.18 430.02 458.43 434.75 451C439.48 443.57 450.47 426.36 459.18 412.75C467.88 399.14 475 387.55 475 387C475 386.45 468.36 383.93 460.25 381.41C452.14 378.88 445.14 376.52 444.7 376.16C444.27 375.8 451.02 371.31 459.7 366.19L475.5 356.89C464.44 310.86 458.42 286.02 454.99 272L448.75 246.5C434.61 261.96 425.99 271.41 420.47 277.47C414.96 283.54 403.26 296.52 394.47 306.33C384.32 317.66 377.95 324.01 377 323.75C376.18 323.52 365.24 319.32 352.7 314.42L329.91 305.5C268.01 367.58 265.05 370.28 264.54 368C264.24 366.63 263.08 361 261.98 355.5C260.87 350 259.98 344.71 259.99 343.75C259.99 342.79 268.21 333.33 278.25 322.73C288.29 312.12 306.62 292.66 319 279.48C331.37 266.29 345.77 251 351 245.5C356.23 240 371.04 224.25 383.91 210.5C396.78 196.75 411.18 181.48 415.91 176.56L424.5 167.61C476.43 150.93 491.57 146.18 491.65 146.3C491.74 146.41 487.55 156.63 482.35 169C477.16 181.38 471.12 195.66 468.95 200.75C466.46 206.58 465.46 209.97 466.25 209.92C466.94 209.88 506.42 194.24 554 175.17L640.5 140.5L651.5 48.7C686.38 49.74 717.2 50.7 742.5 51.51C767.8 52.31 792.89 52.98 798.25 52.99C803.61 52.99 808 52.66 808 52.25C808 51.84 799.56 48.41 789.25 44.63C778.94 40.85 765.33 35.84 759 33.5C752.67 31.15 732.65 23.74 714.5 17.03C696.35 10.31 678.8 3.72 675.5 2.39C670.64 0.43 667.89 0 661 0.11C656.33 0.18 650.7 0.65 648.5 1.15Z"
       style="fill:#808080" />
    <path
       id="Path 1"
       class="shp1"
       d="M646 94.6L640.5 140.5C506.42 194.24 466.94 209.88 466.25 209.92C465.46 209.97 466.46 206.58 468.95 200.75C471.12 195.66 477.16 181.38 482.35 169C487.55 156.63 491.74 146.41 491.65 146.3C491.57 146.18 476.43 150.93 458 156.85L424.5 167.61C411.18 181.48 396.78 196.75 383.91 210.5C371.04 224.25 356.23 240 351 245.5C345.77 251 331.37 266.29 319 279.48C306.62 292.66 288.29 312.12 278.25 322.73C268.21 333.33 259.99 342.79 259.99 343.75C259.98 344.71 260.87 350 261.98 355.5C263.08 361 264.24 366.63 264.54 368C265.05 370.28 268.01 367.58 297.5 338L329.91 305.5C365.24 319.32 376.18 323.52 377 323.75C377.95 324.01 384.32 317.66 394.47 306.33C403.26 296.52 414.96 283.54 420.47 277.47C425.99 271.41 434.61 261.96 439.62 256.47L448.75 246.5C458.42 286.02 464.44 310.86 468.36 327.19L475.5 356.89C451.02 371.31 444.27 375.8 444.7 376.16C445.14 376.52 452.14 378.88 460.25 381.41C468.36 383.93 475 386.45 475 387C475 387.55 467.88 399.14 459.18 412.75C450.47 426.36 439.48 443.57 434.75 451C430.02 458.43 425.89 465.18 425.58 466C425.09 467.28 425.94 467.4 431.25 466.84C434.69 466.48 445.15 465.43 454.5 464.52C463.85 463.6 477.24 462.21 484.25 461.43C491.26 460.64 498.46 460 500.25 459.99C502.63 459.98 507.66 462.56 519 469.6C527.52 474.89 545.08 485.75 558 493.75L581.5 508.28C717.51 485.59 757.79 479 758.75 478.99C759.71 478.99 778.27 486.13 800 494.87C821.73 503.61 855.92 517.41 876 525.54C896.08 533.66 915.5 541.48 919.17 542.91C922.84 544.33 926.3 545.95 926.86 546.5C927.43 547.05 933.77 559.88 940.96 575C948.15 590.13 953.69 602.8 953.27 603.17C952.84 603.54 946.42 607.54 939 612.06C931.58 616.58 921 622.98 915.5 626.29C905.75 632.17 905.41 632.28 902 631.03C900.08 630.32 891.3 626.94 882.5 623.52C873.7 620.1 864.25 616.5 861.5 615.53C858.75 614.55 855.15 613.19 853.5 612.49C851.85 611.8 842.54 610.16 832.81 608.86L815.13 606.5C809.99 610.25 803.4 615.65 797.16 620.92C790.92 626.19 781.69 633.95 776.66 638.17C771.54 642.45 767.06 645.5 766.5 645.07C765.95 644.65 752 634.25 735.5 621.96C719 609.67 688.74 587.1 668.25 571.81C647.76 556.51 630.66 544 630.25 544C629.84 544 620.45 565.04 609.39 590.75L589.28 637.5L406 638C406.01 643.04 408.28 671.5 411.05 704.5C413.83 737.5 416.19 764.56 416.3 764.62C416.41 764.69 425.05 766.81 435.5 769.33C445.95 771.86 461.25 775.51 469.5 777.45C477.75 779.39 492.15 782.78 501.5 784.97C510.85 787.17 518.73 788.7 519 788.38C519.27 788.06 522.98 776.7 527.24 763.15C531.5 749.59 534.88 738.43 534.74 738.35C534.61 738.27 530.67 739.77 526 741.69C521.33 743.61 510.52 748.08 502 751.63C493.48 755.18 486.39 757.95 486.26 757.79C486.13 757.63 502.78 741.27 523.26 721.44C543.74 701.6 562.19 683.94 564.25 682.19L568 679C578.46 686.49 598.83 701.5 620 717.19L658.5 745.72L700.5 759.18L722.5 793.04C743.42 808.46 761.88 822.1 777 833.29C801.87 851.7 805.41 853.99 814 857.23C819.23 859.2 842.74 868.28 866.25 877.41C889.76 886.53 909.67 894 910.5 894C911.33 894 920.44 888.77 930.75 882.37C941.06 875.98 953.55 868.31 958.5 865.33C963.45 862.35 967.57 860.05 967.65 860.21C967.73 860.37 966.74 870.17 965.46 882C964.17 893.83 962.91 905.08 962.66 907L962.2 910.5C1005.07 922.79 1010.71 924.77 1009.76 925.62C1009.07 926.24 1000.85 933.83 991.5 942.5C982.15 951.17 972.92 959.73 971 961.53L967.5 964.79C995.79 992.85 1003.89 1001.21 1003.75 1001.47C1003.61 1001.73 982.27 994.87 956.32 986.22C930.37 977.57 908.95 970.73 908.72 971C908.49 971.27 908.66 984.33 909.08 1000C909.51 1015.67 910.11 1035.14 910.43 1043.25C910.8 1052.8 910.65 1058 910 1058C909.45 1058 905.85 1051.7 902 1044C896.93 1033.85 894.64 1030.21 893.69 1030.75C892.97 1031.16 883.26 1038.47 872.13 1047C860.99 1055.53 851.12 1063.03 850.19 1063.68C848.74 1064.7 845.09 1061.95 824.5 1044.32C811.3 1033.02 799.15 1022.69 797.5 1021.38C794.52 1019 794.44 1019 787 1020.45C782.88 1021.25 767.58 1024.19 753 1026.99C738.42 1029.78 722 1032.93 716.5 1034C711 1035.06 697.95 1037.54 687.5 1039.5C677.05 1041.46 668.05 1042.89 667.5 1042.67C666.95 1042.46 657.73 1035.89 647 1028.07C636.27 1020.26 627.18 1014.23 626.78 1014.68C626.38 1015.13 618.96 1027.82 610.28 1042.88L594.5 1070.26C546.45 1083.03 516.98 1090.84 498 1095.87C479.02 1100.9 462.49 1105.01 461.25 1105C460.01 1105 445.16 1102.75 428.25 1100.01C411.34 1097.26 386.48 1093.23 373 1091.04C359.52 1088.85 341.52 1085.95 333 1084.58C324.48 1083.21 308.95 1080.72 298.5 1079.05C288.05 1077.38 279.38 1076.12 279.23 1076.26C279.09 1076.39 283.62 1085.28 289.31 1096L299.64 1115.5C309.61 1115 327.8 1113.32 346.5 1111.45C365.2 1109.58 380.76 1108.37 381.08 1108.77C381.4 1109.17 384.55 1119.29 388.08 1131.25C392.32 1145.62 394.16 1153.32 393.5 1153.95C392.95 1154.48 381.02 1159.45 367 1165.01C352.98 1170.57 341.39 1175.32 341.25 1175.56C341.11 1175.8 343.49 1178.36 346.54 1181.25C349.58 1184.14 368.22 1201.58 387.96 1220C407.7 1238.42 423.87 1253.72 423.89 1254C423.91 1254.28 409.54 1263.39 391.96 1274.25C363.8 1291.65 360 1294.3 360 1296.5C360 1297.88 360.91 1308.56 362.02 1320.25C363.13 1331.94 364.27 1343.08 364.56 1345L365.09 1348.5C379.18 1329.13 385.8 1320.04 388.89 1315.81L394.5 1308.11C420.85 1346.92 429.03 1358.93 429.67 1359.84C430.31 1360.75 431.07 1361.28 431.36 1361C431.66 1360.72 423.59 1345.76 413.45 1327.75C403.3 1309.74 395.11 1294.83 395.25 1294.63C395.39 1294.43 419.53 1288.24 448.9 1280.88C478.28 1273.52 502.44 1267.05 502.6 1266.5C502.76 1265.95 504.06 1249.3 505.49 1229.5C506.92 1209.7 508.18 1193.21 508.3 1192.85C508.41 1192.5 517.5 1196.4 528.5 1201.53C546.69 1210.01 548.47 1211.07 548.19 1213.18C548.02 1214.46 546.33 1224.28 544.43 1235C542.54 1245.72 540.99 1254.84 540.99 1255.25C541 1255.66 541.56 1256 542.25 1256.01C542.94 1256.01 552.61 1253.31 563.75 1250.01C574.89 1246.7 584.67 1244 585.5 1244C586.6 1244 587 1245.14 587 1248.25C587 1250.59 587.51 1261.95 588.13 1273.5C588.75 1285.05 589.08 1295.03 588.88 1295.68C588.62 1296.48 586.25 1295.89 581.5 1293.83C577.65 1292.16 569.89 1288.81 564.25 1286.4C558.61 1283.98 554 1282.45 554 1283C554 1283.55 566.53 1297.61 581.84 1314.25C597.16 1330.89 609.19 1344.66 608.59 1344.86C607.99 1345.05 604.58 1344.5 601 1343.62C597.42 1342.75 585.5 1339.97 574.5 1337.45C563.5 1334.94 550.9 1332.04 546.5 1331.02C542.1 1330 531.42 1327.44 522.77 1325.33C514.12 1323.23 506.7 1321.87 506.27 1322.32C505.85 1322.78 506.63 1336.57 508 1352.98C509.38 1369.38 510.73 1383.03 511 1383.3C511.27 1383.56 531.3 1383.18 555.5 1382.44C579.7 1381.7 599.73 1381.24 600 1381.41C600.27 1381.58 606.35 1389.89 613.5 1399.87C620.65 1409.85 626.84 1418.02 627.25 1418.01C627.66 1418 634.39 1409.79 642.19 1399.75C653.8 1384.82 656.5 1381.86 657.03 1383.5C657.39 1384.6 659.89 1400.24 662.59 1418.26C665.29 1436.27 667.84 1451.01 668.25 1451.01C668.66 1451 679.46 1446.92 692.25 1441.94C705.04 1436.96 715.61 1432.68 715.75 1432.44C715.89 1432.2 714.82 1430.76 713.39 1429.25C711.95 1427.74 704.25 1413.45 696.26 1397.5C688.28 1381.55 681.33 1367.38 680.81 1366C680.21 1364.39 680.22 1363.86 680.84 1364.5C681.37 1365.05 689.1 1376.3 698.02 1389.5C706.93 1402.7 714.74 1414.04 715.37 1414.71C716.23 1415.62 719.07 1411.74 727.25 1398.46L738 1381C753.89 1389.35 767.95 1396.73 779.5 1402.78C794.56 1410.67 802.2 1414.11 806.5 1414.92C809.8 1415.54 818.35 1416.71 825.5 1417.52C832.65 1418.32 839.74 1418.99 841.25 1418.99C843.22 1419 845.62 1417.45 849.75 1413.52C854.76 1408.75 857.51 1407.2 871 1401.58C886.07 1395.3 887.03 1395.04 905.5 1392.4L924.5 1389.69C933.8 1382.49 936.95 1380.11 937.5 1379.75C938.05 1379.4 944.35 1380.45 951.5 1382.09C958.65 1383.72 974.17 1387.33 986 1390.11L1007.5 1395.16C1050.9 1391.81 1066.96 1390.54 1071.19 1390.17L1078.88 1389.5C1090.37 1330.16 1092.7 1320.15 1093.87 1319.25C1094.77 1318.57 1112.38 1311.91 1133 1304.46C1153.63 1297.01 1171.04 1290.59 1171.71 1290.2C1172.61 1289.68 1171.22 1280.98 1166.21 1255.8C1162.52 1237.26 1159.72 1221.9 1160 1221.65C1160.28 1221.41 1172.2 1219.56 1186.5 1217.55C1200.8 1215.54 1213.4 1213.66 1214.5 1213.37C1216.4 1212.88 1216.1 1211.56 1208.83 1188.18C1204.61 1174.6 1197.03 1150.45 1191.98 1134.5C1186.94 1118.55 1182.24 1104.6 1181.54 1103.5C1180.85 1102.4 1158.79 1049.97 1132.52 987C1106.25 924.02 1084.59 872.05 1084.37 871.5C1084.16 870.95 1081.18 869.71 1077.74 868.74C1074.31 867.77 1046.97 860 1017 851.46C987.02 842.92 960.14 835.28 957.25 834.47C954.36 833.66 951.99 832.44 951.98 831.75C951.97 831.06 954.4 823.75 957.4 815.5C960.39 807.25 974.83 767.65 989.48 727.5C1004.13 687.35 1016.32 654.39 1016.56 654.25C1016.8 654.11 1022.29 657.3 1028.75 661.34C1035.21 665.38 1045.34 671.68 1051.25 675.34C1057.16 679 1061.89 681.59 1061.75 681.09C1061.61 680.6 1051.94 672.5 1040.25 663.09C1028.56 653.69 1019 645.77 1019 645.5C1019 645.23 1025.06 630.71 1032.46 613.25L1045.91 581.5C1028.26 540.42 1022.99 528.05 1022.82 527.5C1022.64 526.95 1022.84 526.39 1023.25 526.25C1023.66 526.11 1031.08 536.46 1039.73 549.25C1048.38 562.04 1063.63 584.65 1073.62 599.5L1091.78 626.5C1098.54 626.07 1105.67 625.52 1112 625C1118.33 624.48 1123.6 623.93 1123.73 623.78C1123.85 623.62 1121.04 614.84 1117.48 604.25C1113.91 593.66 1111.34 584.82 1111.75 584.59C1112.16 584.36 1121.05 588.9 1131.5 594.66C1141.95 600.42 1155.9 608.1 1162.5 611.72C1169.1 615.34 1178.91 620.82 1184.3 623.9C1189.69 626.98 1193.74 629.81 1193.3 630.19C1192.86 630.57 1180.58 635.41 1166 640.95C1151.42 646.49 1139.28 651.26 1139 651.55C1138.72 651.84 1146.3 667.7 1155.83 686.79L1173.15 721.5C1198.27 678.94 1200.23 676.13 1201.75 677C1202.71 677.55 1212.95 686.47 1224.5 696.83L1245.5 715.67C1246.47 710.89 1247.82 698.36 1249.12 684.75C1250.43 671.13 1251.84 659.99 1252.25 660C1252.66 660 1258.29 662.3 1264.75 665.12C1271.21 667.93 1290 676.22 1306.5 683.54C1323 690.86 1337.74 697.33 1339.25 697.92C1340.76 698.52 1342 698.77 1342 698.5C1342 698.23 1327.98 676.74 1310.86 650.75C1293.73 624.76 1278.2 601.14 1276.36 598.25C1274.51 595.36 1273.11 592.54 1273.25 591.97C1273.39 591.4 1280.03 595.35 1288 600.76C1295.97 606.16 1322.3 623.9 1346.5 640.18C1370.7 656.46 1396.58 673.87 1404 678.86C1411.42 683.86 1417.61 687.85 1417.75 687.72C1417.88 687.6 1409.21 667.7 1398.47 643.5C1387.74 619.3 1378.85 598.49 1378.73 597.25C1378.6 596.01 1378.09 595 1377.58 595C1377.08 595 1376.96 594.66 1377.33 594.25C1377.69 593.84 1377.58 593.05 1377.08 592.5C1376.58 591.95 1371.86 582.84 1366.58 572.25C1361.31 561.66 1352.84 546.44 1347.75 538.42C1340.01 526.21 1337.4 522.95 1331.75 518.42C1328.04 515.44 1323.11 511.76 1320.8 510.25C1318.48 508.74 1313.19 503.99 1309.05 499.7C1304.9 495.41 1295.2 486.89 1287.5 480.78C1279.8 474.66 1270.36 467.14 1266.53 464.08C1260.98 459.64 1250.78 447.52 1216.8 405L1174.05 351.5L1174 313C1170.13 309.9 1169 308.55 1169 308C1169 307.45 1167.79 305.76 1166.32 304.25C1164.84 302.74 1161.32 298.35 1158.48 294.5C1155.65 290.65 1147.93 280.07 1141.33 271C1134.73 261.93 1114.32 233.8 1095.99 208.5C1077.65 183.2 1055.08 152.04 1045.82 139.25C1036.57 126.46 1029 115.55 1029 115C1029 114.45 1028.44 113.82 1027.75 113.6C1027.06 113.38 1019.75 113.61 1011.5 114.1C1003.25 114.6 994.92 115.18 993 115.39C990.54 115.65 982.49 113.42 966 107.89C953.08 103.56 941.49 100.01 940.25 100.01C938.51 100 936.24 102.53 930.25 111.16C925.99 117.3 921.6 123.37 920.5 124.64L918.5 126.95C907.56 117.3 896.34 107.75 886.5 99.5C876.67 91.25 866.34 82.55 863.56 80.18C860.78 77.8 856.25 73.88 853.5 71.48C850.75 69.07 845.13 64.22 841 60.69L833.5 54.28C815.67 53.29 806 53.01 800.5 53.03C795 53.05 769.35 52.39 743.5 51.56C717.65 50.72 686.38 49.74 674 49.37L651.5 48.69L646 94.6Z"
       style="fill:#ffffff;opacity:1" />
    <path
       id="Path 2"
       class="shp0"
       d="M850.96 68.75C850.94 69.16 854.2 72.26 858.21 75.62C862.22 78.99 868.9 84.62 873.05 88.12C877.2 91.63 887.32 100.19 895.55 107.14C903.77 114.09 912.3 121.38 914.5 123.36C918.25 126.72 918.6 126.83 920.09 125.22C920.96 124.27 925.13 118.44 929.34 112.25C933.55 106.06 936.97 100.66 936.94 100.25C936.91 99.84 932.98 98.01 928.19 96.19C923.41 94.37 904.42 87.29 886 80.45C867.58 73.62 852.16 68.02 851.75 68.01C851.34 68.01 850.98 68.34 850.96 68.75ZM1029.38 115.12C1029.17 115.6 1036.57 126.46 1045.82 139.25C1055.08 152.04 1077.65 183.2 1095.99 208.5C1114.32 233.8 1134.73 261.93 1141.34 271C1147.95 280.07 1155.86 290.97 1158.93 295.22C1161.99 299.46 1164.84 302.95 1165.25 302.97C1165.66 302.99 1165.97 302.44 1165.94 301.75C1165.9 301.06 1146.89 263.2 1123.69 217.62L1081.5 134.74C1041.4 118.85 1029.59 114.63 1029.38 115.12Z"
       style="fill:#808080;opacity:0.99999999" />
    <path
       id="Path 3"
       class="shp1"
       d="M248.63 421.13C238.25 429.58 228.66 437.4 227.32 438.5L224.87 440.5C247.06 446.31 258.33 449.23 264.22 450.75C274.06 453.27 274.95 453.36 274.97 451.75C274.99 450.79 273.4 440.44 271.45 428.75C269.5 417.06 267.82 407.11 267.7 406.63C267.59 406.16 259.01 412.68 248.63 421.13Z"
       style="fill:#ffffff;opacity:1" />
    <path
       id="Path 4"
       class="shp2"
       d="M394.24 407.25C394.11 407.66 379.41 473.81 361.58 554.25C343.75 634.69 328.45 703.88 327.58 708C326.71 712.13 323.13 728.33 319.62 744L313.25 772.5C329.51 813.58 334.51 825.84 334.86 826.26C335.21 826.68 343.82 825.26 354 823.12C364.18 820.97 372.55 819.28 372.6 819.36C372.66 819.44 357 838.17 337.79 861C318.59 883.83 303.07 902.95 303.31 903.5C303.55 904.05 313.62 919.8 325.7 938.5C337.77 957.2 355.89 985.33 365.96 1001C376.03 1016.67 384.88 1030.17 385.64 1031C386.85 1032.33 389.61 1032.07 409.75 1028.71C422.26 1026.62 433.06 1024.71 433.75 1024.46C434.6 1024.15 432.43 1018.87 427 1008C422.6 999.2 419.11 992.01 419.25 992.02C419.39 992.03 423.1 992.69 427.5 993.49C431.9 994.29 446.07 996.79 459 999.05C471.93 1001.31 485.43 1003.59 489 1004.14C492.57 1004.68 495.81 1004.98 496.19 1004.81C496.57 1004.64 491.73 997.08 485.44 988C479.15 978.92 474 971.27 474 971C474 970.73 486.48 970.16 501.75 969.75C517.01 969.34 544.8 968.71 563.5 968.36L597.5 967.71C607.58 1004.37 610.73 1015.01 611 1015.01C611.27 1015.02 614.88 1008.22 619 999.92C623.13 991.62 626.84 984.64 627.25 984.41C627.66 984.19 635.76 985.34 645.25 986.98C654.74 988.62 673.08 991.8 686 994.04C698.92 996.28 718.5 999.66 729.5 1001.54C740.5 1003.43 762.55 1007.23 778.5 1009.99C794.45 1012.75 819.74 1017.15 834.7 1019.76C849.66 1022.37 862.08 1024.28 862.31 1024C862.54 1023.72 871.12 1011.01 881.37 995.75C891.62 980.49 899.89 967.82 899.75 967.61C899.61 967.39 886 959.68 869.5 950.46C853 941.25 832.98 930.1 825 925.69C817.02 921.27 808.77 916.73 806.66 915.58C803.36 913.79 795.59 902.65 751.47 836.5L700.12 759.5C663.21 747.61 637.42 739.37 619 733.52C600.58 727.68 584.6 722.51 583.5 722.03C581.74 721.28 579.47 723.9 564.59 743.84C555.3 756.3 543.15 772.68 537.59 780.23C529.13 791.75 526.94 794.12 524 794.94C522.08 795.48 515.33 797.02 509 798.37C502.68 799.72 481.75 804.26 462.5 808.46C443.25 812.66 422.44 817.2 416.25 818.55C410.06 819.9 399.94 822.12 393.75 823.49C387.56 824.85 381.82 826 381 826.02C380.18 826.05 388.05 819.27 398.5 810.96C408.95 802.65 417.82 795.54 418.2 795.17C418.59 794.8 408.65 755.8 396.11 708.5C383.57 661.2 373.36 622.38 373.41 622.22C373.46 622.07 377.1 621.51 381.5 620.99C385.9 620.46 423.7 616.63 465.5 612.48C507.3 608.33 552.08 603.85 565 602.53C584.81 600.5 588.7 599.84 589.79 598.31C590.51 597.31 597.26 584.82 604.79 570.54C612.33 556.26 618.61 544.22 618.75 543.79C618.89 543.35 593.46 530.26 562.25 514.7L505.5 486.39C421.8 500.73 396.94 504.92 396.25 504.95C395.27 504.99 394.94 494.38 394.74 455.75C394.6 428.66 394.37 406.84 394.24 407.25Z"
       style="fill:#000000;opacity:1" />
    <path
       id="Path 5"
       class="shp1"
       d="M286.1 436.13C287 439.64 289.85 449.93 292.45 459C295.05 468.07 296.79 475.79 296.33 476.15C295.88 476.5 286.5 480.71 275.5 485.49C264.5 490.27 255.39 494.26 255.26 494.34C255.13 494.43 262.2 497.88 270.96 502C279.72 506.13 286.57 509.61 286.19 509.75C285.81 509.89 274.93 507.33 262 504.07C249.07 500.81 238.39 498.33 238.25 498.57C238.11 498.81 244.76 502.94 253.01 507.75L268.03 516.5C267.12 529.67 265.81 554.65 264.54 580.5C263.27 606.35 262.29 627.62 262.36 627.77C262.44 627.92 270.78 613.3 280.89 595.27C291.01 577.25 309.12 544.84 321.14 523.25L343 484C334.94 444.86 332.13 433.2 331.55 432.83C330.97 432.47 323.75 431.89 315.5 431.56C307.25 431.23 296.89 430.69 292.49 430.37L284.47 429.77L286.1 436.13Z"
       style="fill:#ffffff;opacity:1" />
    <path
       id="Path 6"
       class="shp2"
       d="M764 495.04C756.02 496.6 731.27 501.31 709 505.5C686.73 509.69 662.65 514.22 655.5 515.56C648.35 516.9 641.38 518.25 640 518.55C637.67 519.06 638.31 519.92 649.52 531.3C656.13 538.01 666.26 548.45 672.02 554.51C677.78 560.56 688.35 571.52 695.5 578.86L708.5 592.2C754.23 598.21 772.45 600.64 778.5 601.47C784.55 602.3 802.1 604.57 817.5 606.5C832.9 608.43 847.52 610.44 850 610.96C852.48 611.49 865.75 613.31 879.5 615.01C893.25 616.7 905.85 618.32 907.5 618.59C909.15 618.86 885.52 608.35 855 595.24C824.48 582.13 788.02 566.52 774 560.57C759.98 554.62 748.05 549.39 747.5 548.96C746.9 548.49 747.49 547.59 749 546.7C750.38 545.89 762.52 538.57 776 530.44C789.48 522.31 802.19 514.61 804.25 513.33L808 511C787.46 496.29 780.83 492.06 780 492.11C779.17 492.15 771.98 493.47 764 495.04Z"
       style="fill:#000000;opacity:1" />
    <path
       id="Path 7"
       class="shp0"
       d="M455.29 535.36C445.86 554.17 445.74 554.49 448.6 553.66C450.19 553.2 465.45 549.68 482.5 545.84C499.55 542 517.1 538.06 521.5 537.08L529.5 535.31C516.33 531.31 503.95 527.66 493.5 524.62C483.05 521.58 472.34 518.45 469.69 517.66L464.89 516.22L455.29 535.36Z"
       style="fill:#808080" />
    <path
       id="Path 8"
       class="shp1"
       d="M787.74 536.71L775.98 548.5C844.58 562.23 865.63 566.44 867 566.72C868.38 567 859.15 560.81 846.5 552.97C833.85 545.12 818.77 535.76 813 532.18C807.23 528.59 801.83 525.49 801 525.29C800.12 525.07 794.62 529.81 787.74 536.71Z"
       style="fill:#ffffff;opacity:1" />
    <path
       id="Path 9"
       class="shp0"
       d="M1022.78 525.5C1022.47 526.05 1027.55 538.88 1034.06 554L1045.91 581.5C1025.06 630.71 1019 645.23 1019 645.5C1019 645.77 1028.56 653.69 1040.25 663.09C1051.94 672.5 1061.61 680.6 1061.75 681.09C1061.89 681.59 1057.16 679 1051.25 675.34C1045.34 671.68 1035.21 665.38 1028.75 661.34C1022.29 657.3 1016.8 654.11 1016.56 654.25C1016.32 654.39 1004.13 687.35 989.48 727.5C974.83 767.65 960.39 807.25 957.4 815.5C954.4 823.75 951.97 831.06 951.98 831.75C951.99 832.44 954.36 833.66 957.25 834.47C960.14 835.28 987.02 842.92 1017 851.46C1046.97 860 1074.3 867.77 1077.73 868.74L1083.95 870.5C1127.58 975.13 1149.31 1027.22 1160.37 1053.76C1171.44 1080.3 1180.95 1102.01 1181.5 1102.02C1182.05 1102.02 1184.63 1099.88 1187.24 1097.26L1191.98 1092.5C1160.93 994.08 1152.18 965.27 1152.52 965C1152.85 964.73 1162.66 965.73 1174.31 967.24C1185.97 968.75 1217.78 972.7 1245 976.01C1272.22 979.33 1296.89 982.37 1299.8 982.77C1303.05 983.22 1305.41 983.11 1305.89 982.5C1306.32 981.95 1310.24 973.91 1314.59 964.63C1318.94 955.35 1322.84 947.59 1323.25 947.38C1323.66 947.17 1323.99 947.56 1323.98 948.25C1323.97 948.94 1322.96 955.91 1321.73 963.74C1320.5 971.57 1319.72 977.99 1320 978C1320.28 978.01 1330.63 973.71 1343 968.45C1355.38 963.2 1367.88 957.9 1370.79 956.7C1374.17 955.29 1376.24 953.78 1376.53 952.5C1376.78 951.4 1379.5 936.33 1382.56 919C1385.63 901.67 1389.15 881.88 1390.38 875L1392.63 862.5C1399.5 858.41 1409.26 852.9 1418.75 847.61L1436 838C1435.2 832.96 1433.38 815.52 1431.44 796C1429.51 776.48 1428.28 760.2 1428.71 759.84C1429.14 759.47 1435.8 757.56 1443.5 755.59C1451.2 753.63 1459.75 751.41 1462.5 750.68C1466.78 749.54 1467.49 748.99 1467.46 746.92C1467.44 745.59 1457.13 727.17 1444.56 706C1431.99 684.83 1412.51 651.98 1401.27 633C1390.02 614.02 1380.18 597.83 1379.4 597C1378.15 595.69 1378.09 595.88 1378.88 598.5C1379.38 600.15 1388.39 620.85 1398.89 644.5C1409.39 668.15 1417.88 687.6 1417.74 687.72C1417.61 687.85 1411.42 683.86 1404 678.86C1396.58 673.87 1370.7 656.46 1346.5 640.18C1322.3 623.9 1295.97 606.16 1288 600.76C1280.03 595.35 1273.39 591.4 1273.25 591.97C1273.11 592.54 1274.51 595.36 1276.36 598.25C1278.2 601.14 1293.73 624.76 1310.86 650.75C1327.98 676.74 1342 698.23 1342 698.5C1342 698.77 1340.76 698.52 1339.25 697.92C1337.74 697.33 1323 690.86 1306.5 683.54C1290 676.22 1271.21 667.93 1264.75 665.12C1258.29 662.3 1252.66 660 1252.25 660C1251.84 659.99 1250.43 671.13 1249.12 684.75C1247.82 698.36 1246.47 710.89 1246.12 712.58L1245.5 715.67C1212.95 686.47 1202.71 677.55 1201.75 677C1200.23 676.13 1198.27 678.94 1186.58 698.75L1173.15 721.5C1146.3 667.7 1138.72 651.84 1139 651.55C1139.28 651.26 1151.42 646.49 1166 640.95C1180.58 635.41 1192.86 630.57 1193.3 630.19C1193.74 629.81 1189.69 626.98 1184.3 623.9C1178.91 620.82 1169.1 615.34 1162.5 611.72C1155.9 608.1 1141.95 600.42 1131.5 594.66C1121.05 588.9 1112.16 584.36 1111.75 584.59C1111.34 584.82 1113.91 593.66 1117.48 604.25C1121.04 614.84 1123.85 623.62 1123.73 623.78C1123.6 623.93 1118.1 624.48 1111.5 625C1104.9 625.53 1097.81 626.19 1095.75 626.48L1092 627C1067.59 590.52 1052.63 568.27 1043 554.01C1033.38 539.75 1025.02 527.28 1024.43 526.29C1023.83 525.29 1023.1 524.94 1022.78 525.5Z"
       style="fill:#808080;opacity:1" />
    <path
       id="Path 10"
       class="shp1"
       d="M309.42 674.29C308.83 674.95 302.41 680.9 295.16 687.5C286.56 695.32 282.4 699.73 283.23 700.17C283.93 700.54 293.73 703.55 305 706.86C316.27 710.17 325.73 712.67 326 712.41C326.27 712.15 323.04 703.17 318.8 692.47C314.57 681.76 310.97 673.02 310.8 673.04C310.64 673.06 310.02 673.62 309.42 674.29ZM254.29 707.34L241.09 713.5C245.28 716.8 254.38 723.51 264 730.54C273.63 737.58 281.23 742.69 280.9 741.92C280.57 741.14 278.1 731.61 275.4 720.74C271.69 705.8 270.13 701.01 269 701.09C268.18 701.14 261.56 703.95 254.29 707.34Z"
       style="fill:#ffffff;opacity:1" />
    <path
       id="Path 11"
       class="shp2"
       d="M122.16 829.39L122 859C155.14 821.63 161.84 813.36 160.92 813.1C160.14 812.88 151.85 810.1 142.5 806.92C133.15 803.74 124.78 800.84 123.91 800.46C122.47 799.85 122.3 802.72 122.16 829.39Z"
       style="fill:#000000;opacity:1" />
    <path
       id="Path 12"
       class="shp1"
       d="M255.87 838.8C234.63 855.69 217.3 869.62 217.37 869.77C217.44 869.92 219.53 869.6 222 869.06C224.47 868.52 233.47 866.76 242 865.15C250.53 863.55 264.02 860.98 272 859.44L286.5 856.65C296.02 845.68 303.9 836.73 310.14 829.68C316.82 822.14 321.09 816.54 320.5 816.09C319.95 815.68 314.32 813.85 308 812.03C301.68 810.21 296.05 808.59 295.5 808.42C294.95 808.24 277.12 821.92 255.87 838.8Z"
       style="fill:#ffffff;opacity:1" />
    <path
       id="Path 13"
       class="shp2"
       d="M1315.63 962.6C1311.37 971.34 1307.68 979.4 1307.43 980.5L1306.98 982.5C1316.31 979.4 1319.21 977.83 1319.45 977C1319.68 976.17 1320.82 969.27 1321.97 961.66C1323.13 954.06 1323.91 947.57 1323.72 947.26C1323.53 946.95 1319.88 953.85 1315.63 962.6ZM1152.02 965.75C1152.03 966.16 1160.87 994.4 1171.66 1028.5C1182.45 1062.6 1191.55 1090.83 1191.89 1091.23C1192.23 1091.63 1200.83 1093.76 1211 1095.95C1221.17 1098.15 1229.6 1099.85 1229.73 1099.73C1229.86 1099.6 1237.2 1076.78 1246.05 1049C1254.9 1021.23 1262.34 998.16 1262.57 997.75C1262.81 997.34 1271.44 994.24 1281.75 990.88C1292.06 987.51 1300.95 984.38 1301.5 983.92C1302.07 983.45 1300.58 982.85 1298 982.53C1295.53 982.22 1271.45 979.27 1244.5 975.98C1217.55 972.69 1186.72 968.88 1176 967.5C1165.28 966.13 1155.49 965.01 1154.25 965C1153.01 965 1152.01 965.34 1152.02 965.75Z"
       style="fill:#000000;opacity:1" />
    <path
       id="Path 14"
       class="shp1"
       d="M284.02 1019.25L284.05 1048.5C290.6 1041.48 299.6 1031.81 308.29 1022.47C316.97 1013.14 323.94 1005.44 323.79 1005.37C323.63 1005.29 314.95 1001.81 304.5 997.62C294.05 993.44 285.16 990.01 284.75 990.01C284.34 990 284.01 1003.16 284.02 1019.25ZM563.5 1012.16C561.3 1012.69 544.2 1016.27 525.5 1020.13C506.8 1023.98 483.28 1028.79 473.24 1030.82C463.19 1032.84 454.98 1034.72 454.98 1035C454.99 1035.28 466.81 1036.58 481.25 1037.91C495.69 1039.23 507.73 1040.46 508 1040.63C508.27 1040.8 502 1047.82 494.05 1056.22C486.1 1064.63 478.23 1072.96 476.55 1074.75C473.81 1077.67 478.65 1075.85 524 1056.96C551.77 1045.39 580.8 1033.28 588.5 1030.04C601.09 1024.76 602.25 1024.07 600 1023.2C598.63 1022.67 591.42 1019.7 584 1016.6C576.58 1013.5 569.83 1011.01 569 1011.08C568.17 1011.15 565.7 1011.63 563.5 1012.16ZM365.55 1034.75C365.87 1038.46 366.43 1046.29 366.81 1052.15C367.19 1058.01 367.73 1063.09 368 1063.44C368.27 1063.79 374.24 1060.68 381.25 1056.54C388.26 1052.39 394.02 1048.89 394.04 1048.75C394.07 1048.61 387.77 1043.89 380.04 1038.25C372.32 1032.61 365.77 1028 365.49 1028C365.21 1028 365.24 1031.04 365.55 1034.75ZM256.64 1063.71C248.01 1072.95 241.29 1080.8 241.72 1081.17C242.15 1081.54 249.93 1084.11 259 1086.87C268.07 1089.64 275.55 1091.81 275.61 1091.7C275.67 1091.59 275.11 1081.6 274.36 1069.5C273.62 1057.4 272.85 1047.37 272.67 1047.21C272.48 1047.05 265.27 1054.48 256.64 1063.71ZM219.81 1060.76C216.16 1067.22 213.25 1072.6 213.34 1072.73C213.43 1072.85 218.45 1074.49 224.5 1076.37C230.55 1078.24 235.64 1079.49 235.81 1079.14C235.97 1078.79 234.22 1072.2 231.92 1064.5C229.61 1056.8 227.44 1050.17 227.09 1049.76C226.73 1049.35 223.46 1054.3 219.81 1060.76ZM211.88 1099.63C202.87 1100.85 195.16 1101.66 194.75 1101.42C194.34 1101.19 192.88 1101.22 191.5 1101.5C189.02 1102 189 1102.1 188.95 1112.75C188.92 1118.66 188.3 1137 187.57 1153.5C186.85 1170 186.31 1183.56 186.38 1183.63C186.44 1183.71 194.82 1182.52 205 1181C215.18 1179.48 230.36 1177.17 238.75 1175.87C247.14 1174.56 254 1173.16 254 1172.75C254 1172.34 246.69 1169.71 237.75 1166.91C228.81 1164.12 217.86 1160.63 213.4 1159.16L205.31 1156.5C223.76 1111.55 228.93 1098.25 228.69 1097.95C228.46 1097.65 220.89 1098.4 211.88 1099.63Z"
       style="fill:#ffffff;opacity:1" />
    <path
       id="Path 15"
       class="shp0"
       d="M522.25 1101.13C522.17 1101.89 524.44 1114.09 527.3 1128.26L532.5 1154.03L562.5 1124.21C558.63 1121.93 550.75 1117.24 542.5 1112.32C534.25 1107.4 526.35 1102.56 524.95 1101.57C522.97 1100.17 522.37 1100.08 522.25 1101.13Z"
       style="fill:#808080;opacity:1" />
    <path
       id="Path 16"
       class="shp1"
       d="M299.75 1128.21C299.36 1131.67 298.7 1138.24 298.27 1142.8L297.5 1151.1C323.5 1139.01 331.03 1135.28 331.01 1135C330.99 1134.72 324.41 1131.8 316.38 1128.5C308.36 1125.2 301.49 1122.37 301.12 1122.21C300.75 1122.06 300.13 1124.76 299.75 1128.21Z"
       style="fill:#ffffff;opacity:1" />
    <path
       id="Path 17"
       class="shp0"
       d="M557.14 1214.39C557.06 1224.08 557.23 1232 557.5 1232C557.77 1232 559.69 1230.71 561.75 1229.13C563.81 1227.55 569.77 1223.15 575 1219.34C580.23 1215.53 587.3 1210.41 590.72 1207.96C594.14 1205.51 596.9 1203.25 596.85 1202.94C596.81 1202.63 588.83 1201.36 579.13 1200.11C569.43 1198.87 560.55 1197.61 559.39 1197.32C557.31 1196.79 557.28 1197.01 557.14 1214.39ZM1187.5 1217.21C1172.65 1219.41 1160.28 1221.41 1160 1221.65C1159.72 1221.89 1162.37 1236.58 1165.88 1254.3C1169.39 1272.01 1172.54 1287.1 1172.88 1287.82C1173.31 1288.74 1177.03 1286.3 1185.08 1279.82C1191.45 1274.7 1198.2 1269.18 1200.08 1267.56C1202.41 1265.56 1204.78 1261.64 1207.5 1255.3L1211.5 1245.97C1226.4 1237.86 1236.86 1232.13 1244.36 1228C1251.86 1223.88 1258.03 1220.01 1258.06 1219.42C1258.1 1218.76 1251.02 1217.48 1239.81 1216.11C1229.74 1214.88 1219.92 1213.73 1218 1213.54C1216.08 1213.36 1202.35 1215 1187.5 1217.21Z"
       style="fill:#808080;opacity:1" />
    <path
       id="Path 18"
       class="shp1"
       d="M530.37 1268.81C522.14 1273.59 515.27 1277.95 515.12 1278.5C514.96 1279.05 519.93 1285.2 526.17 1292.18C532.4 1299.15 537.61 1304.77 537.73 1304.68C537.86 1304.58 539.74 1294.6 541.9 1282.5C544.06 1270.4 545.72 1260.42 545.59 1260.31C545.46 1260.21 538.61 1264.04 530.37 1268.81ZM513.5 1429.75C503.6 1431.11 495.36 1432.29 495.19 1432.36C495.02 1432.44 499.07 1447.69 504.19 1466.26L513.5 1500.02C538.48 1500.02 540.28 1499.82 539 1498.66C538.17 1497.91 530.86 1491.83 522.75 1485.15L508 1473C528.1 1439.29 533.95 1428.94 533.97 1428.25C533.98 1427.56 533.44 1427.06 532.75 1427.13C532.06 1427.21 523.4 1428.38 513.5 1429.75Z"
       style="fill:#ffffff;opacity:1" />
  </g>
</svg>
