<svg version="1.2" xmlns="http://www.w3.org/2000/svg" viewBox="0 0 1249 1249" width="1249" height="1249">
	<title>marxengels-svg</title>
	<style>
		.s0 { fill: #000000 } 
		.s1 { fill: #ffffff } 
		.s2 { fill: #7f7f7f } 
	</style>
	<g id="Layer 1 copy">
		<path id="Path 0" fill-rule="evenodd" class="s0" d="m695.9 182l112.6-20.5 201.3 27.3 85.3 68.3 13.6 64.8 3.4 44.3 6.9 34.1 3.4 13.7-3.4 13.6-47.8-112.6-47.8-44.3-102.3-17.1-81.9-17v-34.1l-58 40.9-58 23.9-44.3-17.1-51.2-6.8 58 23.9 17.1 13.6 10.2 30.7 10.2 41 3.4 30.7-13.6 10.2-6.8-6.8 3.4-20.5-23.9-27.3-3.4-6.8-40.9-44.3-30.7-37.6 13.6-13.6-20.5 6.8-3.4-10.2 44.4-27.3 71.6 10.2 34.1-30.7zm-23.9 218.4l51.2 47.7-10.2-37.5 13.6-3.4 27.3 54.6 6.8 58-6.8 34.1 30.7-6.9 6.8 17.1-13.6 34.1-20.5 27.3-51.1 10.3-3.5 23.8-10.2 30.7 23.9-20.4-27.3 37.5 47.8-10.2 3.4 3.4-23.9 23.9 27.3 3.4-23.9 13.6 17.1 6.8 27.3-23.8 3.4 40.9 10.2-20.5 3.4 13.7 44.4 6.8v20.5l13.6-13.7 3.4 17.1 17.1-6.9v13.7l23.9 3.4 10.2-17.1 3.4-10.2 17.1-27.3 3.4-3.4 20.4-13.6 54.6-27.3 13.7-17.1 10.2-6.8 3.4 13.6 3.4-23.8-23.9 6.8-23.8-10.3v-13.6l37.5-6.8h81.9l-10.3 27.3 10.3 10.2 17 34.1-6.8 23.9 10.2 6.8 3.4-23.9 17.1 30.7 20.5 34.2 20.4 44.3 3.5 6.8 3.4 27.3-3.4 34.1 54.5 88.7 3.4 30.7-13.6-27.2-17.1 13.6 3.5-34.1-30.7 10.2 3.4 27.3-13.7-10.2 6.8 20.4-13.6 10.3 23.9 34.1-41 17.1-17 27.3-30.7-6.9-64.8 23.9-68.3-6.8-92.1-30.7-156.9-150.1-23.9-13.7 20.5 17.1-23.9 17-58-23.8 23.9-6.9v-13.6l-20.5 10.2-20.5-20.4-13.6 3.4 27.3 17-20.5 6.8 20.5 10.3-44.4-10.3v13.7h-3.4l-13.6-10.2 6.8-10.3-17-10.2 17-6.8-40.9-20.5-13.7-13.6 6.8 17-10.2 3.4-13.6-3.4 6.8 17.1 10.2-6.9 13.7 34.2 10.2 13.6-17.1-6.8 23.9 40.9-10.2 23.9 20.5 13.6-30.7 13.7 3.4 13.6-20.5-6.8-3.4 27.3 27.3 13.7 10.2-6.9-17-13.6 47.7 10.2-88.7 51.2-68.2-40.9-68.2 20.4-27.3-20.4-27.3 6.8v-17.1l-23.9-10.2 44.4-44.4-30.8 27.3v-30.7l-51.1 34.1 6.8-10.2-27.3 3.4-47.8-40.9 3.5-17.1-47.8-27.3 6.8-20.4-13.6 3.4 10.2-27.3-17-10.3 30.7-34.1-30.7-3.4 3.4 20.5-13.7-3.4 17.1-30.7-23.9 10.2-3.4-10.2-6.8-13.7 20.4-17-13.6 6.8 6.8-17.1h-13.6l-3.5-23.9 17.1-3.4-13.6-20.4 27.3 6.8 10.2-23.9-34.1-10.2-6.9-13.7-23.8-64.8-41-27.3v-40.9l-6.8-27.3 17.1-41-3.4 51.2 30.7 37.5 10.2-6.8-17.1-6.8-3.4-61.4 10.3-6.8 3.1 25.2-3.1 5.5 10.2 34.1v-34.1l17-13.7-3.4 20.5 17.1 3.4-10.2 64.8 47.7-10.2v10.2l41-27.3 23.8 75.1 20.5 6.8-10.2 37.5 17-6.8 30.7 41 27.3-17.1-3.4 20.5 23.9-30.7 92.1 3.4 3.4-13.7 10.2 6.9v-30.8l-6.8-6.8 41-13.6 23.8 13.6 23.9-17 20.5-6.9 10.2 17.1 13.7 20.5 34.1 23.9-51.2-71.7-3.4-13.6 13.6 6.8 41 64.8 34.1 17.1 37.5-23.9 6.9-109.2-47.8 6.8-3.4-20.4-54.6 10.2 6.8-13.6 37.5-3.5-30.7-10.2-10.2-17.1-27.3 17.1-23.9 17.1-23.8-37.6-27.3-10.2-34.2 23.9-40.9 34.1-10.2-10.2 20.4-20.5h-27.2l-6.9-17.1-20.4 6.9-44.4 20.4-30.7-6.8 27.3-6.8-27.3-13.7 13.7-23.8 40.9-3.5-20.5 23.9 44.4-6.8 13.6-3.4 20.5-3.4-37.5-10.3 20.4-23.8 105.8 23.8 102.3-30.7 85.3 17.1v-85.3l20.5 20.5 34.1 3.4zm-617.7 148l10.5-18.4-10.3 20.5zm846.3-90h54.6l23.9 17 6.8 37.6-20.5 13.6-27.2-17 6.8 20.4h-23.9l-3.4-17-13.7 20.4-23.8-17-58 23.9v-17.1l23.8-13.6 23.9-3.5 47.8-10.2 30.7-3.4-34.1-20.5-23.9-6.8zm-34.1 3.4l3.4 10.3-64.8 47.7-13.7-6.8 34.1-30.7zm204.7 6.8l23.9-6.8 30.7 13.6-20.5 10.3-23.8 6.8 40.9 20.5 13.7 34.1v37.5l-3.5 10.2-17-34.1-10.3-17-30.7-6.9 6.9-17-30.7 6.8 6.8-10.2-10.2-10.3 13.6-30.7zm-464 580l-27.3-27.3 23.9-3.4 13.7 10.2z"/>
		<path id="Path 1" fill-rule="evenodd" class="s1" d="m317.3 147.9l85.3-20.5 13.6 10.2 13.6-13.6h3.5l167.1 109.2 3.4 10.2 6.9 6.8 30.7 37.6 40.9 44.3 3.4 6.8v27.3l27.3 27.3-23.9 6.8-23.9-17 6.9 17-3.5 27.3-10.2-3.4-23.9-71.6h-13.6l3.4 17-27.3 27.3-3.4 78.5-81.9 20.5-170.6-10.3-57.9 27.3-34.2-10.2-17 10.2v-27.3h-20.5l-20.5-23.9-20.4 17.1 3.4-13.6-13.7 3.4 10.3-44.4-13.7 13.7-10.2-37.6-17.1 23.9-23.8 3.4h23.8l-17 23.9 30.7 13.7-13.7 23.8 34.2-10.2-17.1 10.2 6.8 17.1-37.5 23.9 20.5 10.2v17.1l13.6-3.4-6.8-10.3 13.6 6.8v41l-27.3 3.4-17-6.8-20.5-3.4 6.8-54.6-17 6.8 3.4-17.1-17.1 10.3 13.7-34.1-44.4 23.8 6.8-30.7-20.4 6.9 10.2-47.8-6.8-10.2-17.1 10.2 20.5-64.8 129.6-146.7 30.7-13.7 27.3-37.5h17.1l95.5 13.7-17-17.1-23.9 3.4 6.8-17 30.7 6.8zm464 95.5l30.7-10.2 109.1 20.4 102.4 17.1 47.7 44.3 47.8 112.6 6.8 13.7v-13.7l10.3 44.4-41-10.3-23.9 6.9-10.2 6.8-17.1 10.2 3.5 20.5 10.2 10.2-6.8 10.3 30.7-6.9-6.9 17.1 30.8 6.8-23.9 17.1h34.1l17 34.1v85.3l-13.6 20.5-23.9-20.5-10.2-10.3 10.2-27.2 3.4-13.7-85.3 13.7-40.9-10.3 3.4 30.7 23.9 10.3 6.8 10.2-13.6 17.1-54.6 27.2-20.5 13.7-3.4 3.4h-13.6l-3.4 27.3-3.5 10.2h-30.7l-6.8-17-13.6 10.2 6.8-27.3h-23.9l-10.2-20.5-27.3 6.9-47.8-34.1-3.4-3.5v-17l-20.5-10.3-13.6-10.2 3.4-23.9 51.2-10.2 20.4-27.3 20.5-17.1-6.8-47.7 30.7 6.8 58-23.9 23.9 17.1h78.4l23.9-51.2-17 3.4 3.4-17-41-17.1-51.1 6.8-34.2 3.4-40.9 20.5-23.9 6.8-20.4 34.1-20.5-3.4-6.8-58-30.7-109.1-10.3-41-10.2-30.7-34.1-27.3 10.2-3.4 44.4 17.1zm88.7 228.6h44.3l17.1 13.6-13.7 10.2-47.7 10.3-23.9 3.4-13.7-3.4zm225.2 27.3l10.2-13.7 27.3 17.1 10.3-10.3-6.9 30.7-13.6-10.2zm-689.1 58l37.5-20.5 23.9 6.9 23.9 37.5 3.4 13.6 20.4-6.8 34.2 20.5 68.2 3.4 6.8 68.2-17.1 17.1-37.5-6.8-58-64.9-10.2 10.3 13.6 17-6.8 10.3-20.5 6.8-34.1 10.2-23.8-13.6-34.2 6.8 3.4 13.6 6.9 6.9-13.7 20.4-58 6.9v-20.5l44.4-47.8-78.5 61.4-44.3 10.3-17.1-10.3-17-27.3 13.6-34.1-13.6-81.8 40.9 13.6 13.6-13.6 30.7-3.5h0.1v0.1h0.3l23.5 6.8-10.2 10.2 13.6-3.4-3.4 13.6 34.1 3.4zm-98.6 10.3l-0.3-0.1 13.6-17 20.5-6.8 6.8 17.1 13.7 3.4-10.3 6.8zm207.8-3.5l27.2-17 10.3 17 6.8 10.3zm-446.9 184.2l3.4-17.1h13.7zm457.1 139.9l6.8-3.4 6.8 3.4 17.1 23.9 10.2 20.5h-13.6l17 17-13.6-3.4 3.4 13.7h27.3l-6.8-17.1h3.4l20.5 17.1-6.9 40.9 20.5 13.6-27.3-10.2-47.7-58-10.3-13.6-13.6-34.2-3.4-6.8zm92.1 139.9l-13.7-10.2 23.9 3.4zm600.4 30.7l-23.9-20.5 44.4-3.4zm-10.2 6.8l-10.3-6.8h20.5z"/>
		<path id="Path 2" fill-rule="evenodd" class="s2" d="m262.7 171.8l54.6-23.9 10.2 27.3-30.7-6.8-6.8 17 23.9-3.4 17 17.1-95.5-13.7zm382.1 34.1l51.1-23.9 54.6 3.5-34.1 30.7zm136.5 37.5l58-41v34.2l81.8 17-109.1-20.4zm-620.9-6.9l3.4-13.6h27.3zm443.5 6.8l20.5-6.8-13.7 13.6zm81.9 23.9l-58-23.9 51.2 6.9-10.3 3.4zm20.5 119.4l-20.5-20.5v-27.3l23.9 27.3zm-576.5 208.1l27.3-3.4v-40.9l-13.7-6.9 6.8 10.3-13.6 3.4v-17.1l-20.5-10.2 37.5-23.9-6.8-17.1 17.1-10.2-34.1 10.2 13.6-23.8-30.7-13.7 17.1-23.9h-23.9l23.9-3.4 17-23.9 10.3 37.6 13.6-13.7-10.2 44.4 13.6-3.4-3.4 13.6 20.5-17 20.4 23.8h20.5v27.3l17.1-10.2 34.1 10.2 58-27.3 170.6 10.3 20.4-5.1-85.3 25.5-105.7-23.8-20.5 23.8 37.5 10.3-20.4 3.4-13.7 3.4-44.3 6.8 20.4-23.9-40.9 3.5-13.6 23.8 27.3 13.7-27.3 6.8 30.7 6.8-13.7 13.7-40.9-13.7 13.6 81.9-13.6 34.1 17 27.3 17.1 10.2 44.3-10.2 78.5-61.4-44.3 47.8v20.4l58-6.8 13.6-20.5v30.7l-10.2-6.8-3.4 13.7-92.2-3.4-23.8 30.7 3.4-20.5-27.3 17.1-30.7-41-17.1 6.8 10.3-37.5-20.5-6.8-23.9-75.1-40.9 27.3v-10.2l-47.8 10.2 10.2-64.8-17-3.4 3.4-20.5-17.1 13.7v34.1l-10.2-34.1 3.2-5.5-3.2-25.2-10.2 6.8 3.4 61.4 17 6.8-10.2 6.8-30.7-37.5 3.4-51.2-17 41-6.9-17.1v-58l10.3-34.1 17-10.2 6.8 10.2-10.2 47.8 20.5-6.9-6.8 30.8 44.3-23.9-13.6 34.1 17-10.2-3.4 17 17.1-6.8-6.9 54.6 20.5 3.4zm-75-44.3l10.2-20.5-10.5 18.4zm539-75.1l3.4-78.5 27.3-27.3-3.4-17h13.6l23.9 71.6 10.2 3.4 3.4-27.3 17.1 41-34.1-3.4-20.5-20.5v85.3l-83.3-16.7h-0.1zm-42.4 10.6l-19 4.7 17.1-5.1 1.9 0.4h-0.1zm161.9-92.4l13.7-10.3-3.4-30.7 30.7 109.2-27.3-54.6-13.7 3.4 10.3 37.6-51.2-47.8-6.8-17.1 23.8 17.1zm406 34.1l3.4-13.6 3.4 13.6v13.7zm-218.3 30.7l51.2-6.9 40.9 17.1-3.4 17 17-3.4-23.8 51.2h-78.5l13.7-20.5 3.4 17.1h23.8l-6.8-20.5 27.3 17.1 20.5-13.7-6.8-37.5-23.9-17zm-34.1 3.4l34.1-3.4-10.3 6.8 23.9 6.8h-44.3zm238.8 23.9l20.4-10.3-30.7-13.6 41 10.2 6.8 20.5-10.2 10.2zm-279.8-3.4l-34.1 30.7 13.7 6.9 64.8-47.8-37.5 34.1 13.6 3.4-23.9 13.7v17l-30.7-6.8 6.8 47.8-20.4 17 13.6-34.1-6.8-17.1-30.7 6.9 6.8-34.1 20.5 3.4 20.4-34.1zm92.2 13.6l13.6-10.2-17.1-13.7 34.2 20.5zm129.6 10.2l-3.4-20.4 17-10.3zm47.8-6.8l-13.6-6.8 23.8-6.9zm41 47.8l-13.7-34.1 13.7 10.2zm-730.1 10.3l34.1-23.9 27.3 10.2-23.9-6.8zm709.6 3.4h-34.1l23.9-17.1zm-839.2 10.3l44.3-20.5-13.6 17.1zm71.6-10.3h27.3l-20.5 20.5 10.3 10.2 40.9-34.1-40.9 41-34.1-3.4 3.4-13.7-13.7 3.4 10.3-10.2-23.9-6.8 44.3 3.4 10.3-6.9zm143.2 20.5l23.9-17 44.4 10.2-6.8-10.2 30.7 10.2-37.6 3.4-6.8 13.7 54.6-10.3 3.4 20.5 47.8-6.8-6.9 109.1-37.5 23.9-34.1-17-40.9-64.9-13.7-6.8 3.4 13.7-13.6-17.1 10.2-10.2 58 64.8 37.5 6.8 17.1-17-6.8-68.3-68.3-3.4-34.1-20.5-20.4 6.9zm521.9 61.4l85.3-13.7-3.4 13.7zm-37.5 20.4l-3.4-30.7 40.9 10.3-37.5 6.8zm-467.4 0l6.8-10.2 51.2 71.6-34.1-23.9-13.7-20.4zm208.1 6.8h-0.1l-0.2 0.2-23.6 20.2 10.3-30.7zm-317.3 17.1l-3.4-13.6 34.1-6.9 23.9 13.7 34.1-10.3-23.9 17.1-23.8-13.6zm600.4-13.7l23.9-6.8-3.5 23.9-3.4-13.7-10.2 6.8zm-262.7 23.9l-47.8 10.3 27.1-37.4 0.3-0.2 20.4 10.3zm399.2 54.6l-17.1-30.8-3.4 23.9-10.3-6.8 6.9-23.9-17.1-34.1 23.9 20.5zm-242.2 30.7l-10.3 17-23.8-3.4v-13.6l-17.1 6.8-3.4-17.1-13.6 13.7v-20.5l-44.4-6.8-3.4-13.6-10.2 20.4-3.5-40.9-27.2 23.9-17.1-6.9 23.9-13.6-27.3-3.4 23.9-23.9 47.7 34.1 27.3-6.8 10.3 20.5h23.8l-6.8 27.3 13.7-10.3 6.8 17.1zm-822.2-51.2l6.8-13.6 6.9 13.6zm-3.5 17.1l17.1-17.1 34.1 10.2-10.2 23.9-27.3-6.8 13.6 20.5-17 3.4zm829 23.9l3.4-27.3h13.6zm279.8 58l-20.5-44.4 23.9 23.9zm-1095.1-23.9h13.6l-6.8 17.1 13.7-6.8-20.5 17 6.8 13.7-13.6-6.9zm10.2 51.2l23.9-10.2-17.1 30.7zm6.9 20.4l13.6 3.5-3.4-20.5 30.7 3.4-30.7 34.1 17 10.2-10.2 27.3-23.9-30.7zm426.5 10.3l-6.9-17.1 13.7 13.7zm-6.8 10.2l-10.3 6.8-6.8-17 13.7 3.4zm37.5 13.6l-17.1-23.9 34.1 17.1zm27.3 30.7v-13.6l44.4 10.2-20.5-10.2 20.5-6.9-27.3-17 13.6-3.4 20.5 20.4 20.5-10.2v13.6l-23.9 6.9 58 23.8-13.7 20.5-47.7 44.4-23.9-3.4-23.9 3.4 27.3 27.3-30.7 20.4-47.8-10.2 17.1 13.6-10.2 6.9-27.3-13.7 3.4-27.3 20.5 6.8-3.5-13.6 30.7-13.6-20.4-13.7 10.2-23.9-23.9-40.9 17.1 6.8 47.8 58 27.2 10.2-20.4-13.6 6.8-40.9zm-17.1-10.3l-10.2-20.4 17.1 10.2zm146.7 6.8l-20.5-17 23.9 13.6zm-597-3.4l13.6-3.4-6.8 20.4zm463.9 6.9l6.9 17h-27.3l-3.4-13.6 13.6 3.4-17-17.1h13.6zm607.2 119.4l-23.8-34.1 13.6-10.2-6.8-20.5 13.6 10.3-3.4-27.3 30.7-10.3-3.4 34.1 17.1-13.6 13.6 27.3-3.4-30.7 13.6 23.9-10.2 23.8-44.3 3.5 23.8 20.4h-20.4l10.2 6.9zm-951.8-17.1l51.2-34.1v30.7l30.7-27.3-44.4 44.3 23.9 10.3v17l-27.3-3.4zm-20.4-6.8l27.2-3.4-6.8 10.2z"/>
		<path id="Path 3" fill-rule="evenodd" class="s0" d="m375.3 226.3l-3.4 13.7-3.5-17.1zm-146.7 41l23.9-3.4-27.3 20.4h-27.3zm-85.2 143.3l10.2 27.3-20.5 13.7zm47.8 75l-20.5 75.1-30.7-34.1 6.8-13.7 23.9 6.8zm-17 0l-3.5 20.5-13.6-3.4zm-61.4 102.3l6.8 13.7-17-3.4zm17 6.8l10.2 13.6-13.6 3.5zm545.8 382.1l-30.7-3.5 27.3-10.2z"/>
		<path id="Path 4" fill-rule="evenodd" class="s1" d="m753.9 229.8l17.1-20.5-10.2 23.9h-6.9zm-552.6 293.4l17 27.3-37.5 20.4zm436.7 440.1l-6.8 13.7-20.5-23.9zm583.3 37.5l13.7 23.9-34.1 3.4z"/>
		<path id="Path 5" fill-rule="evenodd" class="s2" d="m753.9 229.8l-37.5-3.5 40.9-30.7 13.7 13.7h-0.1l-0.1 0.2zm17.1-20.5l23.8-6.8 13.7-6.8v17l-23.9 13.7-23.9 6.8 10.1-23.6 0.2-0.3zm92.1-6.7l92.1 10.3-10.2 20.4-78.5 3.4-13.6-10.2zm143.3 3.4l17 3.4-23.9 30.7zm-723.2 37.6l23.9 3.4-6.8-13.7 47.7-6.8 6.8-13.6 13.7 10.2 3.4 17 3.4-13.6 17.1 13.6-6.8 10.3h-71.7l-88.7 34.1 27.3-20.5-23.9 3.4 3.4-23.8zm685.7-27.3l17.1 20.4h-20.5zm-566.3 3.4l17.1 13.7v13.6h-20.5l-10.2-20.4zm112.6 3.4l51.1 20.4 10.3 20.5-54.6-20.5zm-81.9 3.5l10.2 13.6-20.4 3.4zm324.1 6.8l-10.3 13.7 6.8-13.7zm-532.1 51.2l-27.3 27.3v-27.3zm-85.3 30.7l10.2 10.3-27.3 6.8zm-64.8 58l20.5 17 34.1-6.8 3.4 20.5-37.5 23.9-17.1-20.5 10.3-13.7-30.8 3.5zm634.6 126.2l13.6 13.6h-20.4zm347.9 17.1l23.9-10.2 17.1 6.8zm-501.5 13.6l-3.4-10.2h30.7l-3.4 13.6-20.5-3.4zm-423 102.4l20.4 3.4-20.4 13.6zm907.4 71.7l10.3 30.7 10.2-10.3-3.4 27.3-6.8-13.6-3.5 27.3-10.2-3.4zm-54.6 37.5l10.3 27.3-30.7 37.5-6.9-13.6-13.6 40.9 3.4-51.2-27.3 64.9 20.5-68.3 27.3-20.4 3.4 30.7zm-856.3 44.3l23.9 3.4-23.9 17.1zm324.1 3.4l37.5 6.8-54.6 17.1-10.2-6.8zm279.7 3.4l34.2 3.4 13.6 34.1-17.1 71.6-17 6.9 6.8-10.3-27.3-10.2 17.1 34.1-20.5-20.5-23.9 6.9 3.4-20.5 20.5-3.4-23.9-10.3-6.8-23.8 34.1 30.7 34.1-10.3-20.4-10.2 23.8-13.7-17-17 20.5-6.8zm-545.9 51.1l6.8 13.7-17 3.4zm204.7 20.5l10.2 6.8-23.9 10.2zm-245.6 20.5l27.3 6.8-40.9 20.5-3.5-20.5zm221.8 41l-20.5-3.5-20.4 20.5 3.4-30.7 6.8 13.7 37.5-20.5 3.4 17zm0 0l6.8 10.3h-23.8zm-30.7 13.6l20.4 6.9-23.8 13.6zm-27.3 44.3l-30.7 6.9 13.6-23.9 23.9 6.8zm58-17l17 6.8-20.4 10.2zm-58 17.1v27.3l-20.5-6.9zm-68.2 6.9l27.3 13.6-13.7 6.8zm167.2 0l6.8 10.3-20.5 6.8zm-30.7 17l10.3 10.3-58 34.1zm-68.3 47.8l37.6 13.6-34.1 3.4z"/>
		<path id="Path 6" class="s0" d="m330.9 233.2l34.1 6.8-51.1 6.8z"/>
	</g>
</svg>