<?xml version="1.0" encoding="UTF-8" standalone="no"?>
<svg
   version="1.2"
   viewBox="0 0 1522 2510"
   width="1522"
   height="2510"
   id="svg1"
   sodipodi:docname="panneckoek2.svg"
   inkscape:version="1.4 (86a8ad7, 2024-10-11)"
   xmlns:inkscape="http://www.inkscape.org/namespaces/inkscape"
   xmlns:sodipodi="http://sodipodi.sourceforge.net/DTD/sodipodi-0.dtd"
   xmlns="http://www.w3.org/2000/svg"
   xmlns:svg="http://www.w3.org/2000/svg">
  <defs
     id="defs1" />
  <sodipodi:namedview
     id="namedview1"
     pagecolor="#505050"
     bordercolor="#eeeeee"
     borderopacity="1"
     inkscape:showpageshadow="0"
     inkscape:pageopacity="0"
     inkscape:pagecheckerboard="0"
     inkscape:deskcolor="#505050"
     inkscape:zoom="0.32868526"
     inkscape:cx="762.12727"
     inkscape:cy="1258.0424"
     inkscape:window-width="1920"
     inkscape:window-height="1027"
     inkscape:window-x="1912"
     inkscape:window-y="-8"
     inkscape:window-maximized="1"
     inkscape:current-layer="svg1" />
  <title
     id="title1">portret2</title>
  <style
     id="style1">
		.s0 { opacity: 1;fill: #ffffff } 
		.s1 { fill: #000000 } 
		.s2 { opacity: 1;fill: #7f7f7f } 
		.s3 { opacity: 1;fill: #000000 } 
	</style>
  <g
     id="Folder 2 copy">
    <path
       id="Path 0"
       fill-rule="evenodd"
       class="s0"
       d="m239 371l92-79 178-16 41-76 16 6-3-108 24 104 14-102 36 29 44-15 5-27 27 23-3-33 51 22 25-19 60 6 102 62-17-36 73 6 24 22 8-21-108-57 151 51 62 81 132 64 113 152 43 159-37-17-17 40-27 5-20-55-22-7-6 27-34-38 27 89 16 11-12-55 61 99 6 81-25-32 1 30 37 19 22 60 34 24-26-64 28-11 63 65-1 19-38 5 63 130v54l-1 3-110 200-115 98-32 21-7 58-39-64 37-133-23-83 29-3-24-13-36-170-34-33 11 90-54 256 29 20-16 22-23-29-3 64-67 10 9 40-21-17-72 75 2 23-71-7-5 48-22 1-22 51-35 20 8 73-24 5-5-10-54-103-50-5-52-49-9 13-20-52-30 64-4-80-79-89 2-29 42 16 32 4 17-9-15-15v-4l-10-18-11-2-30-8-12-2-94-4-32-33-39-3-6-62 54-122-55 51-27-2 4-38 29-10 6-73-133-4 55-21 32-17 1-1 36 6-5 17 51-1 16 40 29-140 33-13 161 105 4 1 14 48 53 9 38-21-87-25 41-9-18-35 24-17 28 46 5 2 21-1 1-1 20-40-33-29 65 14 26 18 6 6 15 3 12 12 19 17 7-28-1-1-71-68-70-19-6-1h-3l-21-7 47-13 16-33-96-2h-12l-167 45-42-9-7 22-106-39-199-5 18-280 18-53 28-57 8-15zm478 489l60 7 66 47 11 13 8 6-7 2-19-4-104-53zm-433 66l-17-14 18 10zm974 702l1-17v21l-1-2zm-6 50l-13-40 17 13z"
       style="fill:#ffffff" />
    <path
       id="Path 1"
       fill-rule="evenodd"
       class="s1"
       d="m265 975l-31-7-17-49-2 50-29-3 1 25 70 18-23 18-67-8-34 24 12-94-51-128 26-346 51-240 50-69 155-96 97-9 123-51 111 21-31 1-17 37-39-14 6 30-71-7-5 56-29-10 9 49-44-37-72 27 31 86-132 34-74 88-25 35-8 15-28 57-18 53-31 115 2 185 30 16 86-23 91 12 67 55-4 81-22-29-36 9-36.5-18.9-8.5 23.9-1 1zm20-53l-18-10 17 14 11.5 1.4zm334 49l-117-105 28-23 24 26 8-27 38 14-14-34 77-25h12l78 12-69 38 45 5h3l6 1 70 19 71 68 1 1-18-8-8-6-11-13-66-47-60-7-25 18h40l104 53-9 6-6-6-26-18-65-14 33 29-59 3 39 37-1 1-21 1-5-2-28-46-1-15-23 11-16 53-15-19-10 20zm223-31l13-5-1 17zm-733 373l25-67-8-47 27 3 104 196-2 44-36 29 29 14 23-22 24 13 20-47-22-17 26-49-9-110 114 54 79-11 12 2 30 8 11 2 10 18v4l-2 24-32-4-57-26-38 176 17 44 4-46 21 21 14-18 39 55 19-22 9 28-21 2 17 27-130-2-10 17 96 15-29 18-127-11 6 65 36-29 8 44 44-28 23 71 31-9-23 26 22 7-8 44-12 10-6-54-26 46 19 46 40-46-27 84 8 71 32 29-21-79 15-17 21 51 8-136v77l22-8 16 43 11-14 61 36-25-21 20-9-57-32 12-20-34-48 46-52-52-59 20-32 31 45 22-32 25 11 18-23 10 16 7-33-58-91 4-31 59 30 36 60 46 27 5 10 77 92-10-25 18-10-50-64 22 5-15-35 28-57 29-7 12 23-3-42 30-26 40 33 7-20 24 3-17-28 19-26 27 21 22-13-23-23 6-29 41 9 3-41 26-20 29 34-3-43 51-37 21 5 5 56 41 41 4 57-48 67 8 94-43 21 49 18-4 50-29 8-42 115-34-11 30 40-30 2 3 71 27-3-59 32-9 54 63 25 2 38-18 42-37 14-7 131-69 86-54 15-20-17-5 23-45-2-13 32-64 24-12 12-3-5-11 2-25 6-53 19h-3l-16-9-6-1-121-2h-2l-35-12-19-1-52 20-30-28-41 2-5 19-60-11-84-51-36-55-21 8-78-62-56-57-3-30 16 8-4-31 14 7-39-81 1-49 2-27 3-19-4-24-1-17v-18l-10-5 5-31 32-15-9-88-16-1-2-29v-73l-4-17 7-218 45 1 22-23-7-30-2-26 2-24z"
       style="fill:#000000" />
    <path
       id="Path 2"
       fill-rule="evenodd"
       class="s2"
       d="m497 24l164-24 98 24 22 12 61 14 37 4 34 4 15 4 108 57-8 21-24-22-73-6 17 36-102-62-60-6-25 19-51-22 3 33-27-23-5 27-44 15-36-29-14 102-24-104 3 108-16-6-41 76-178 16-92 79 74-88 132-34-31-86 72-27 44 37-9-49 29 10 5-56 71 7-6-30 39 14 17-37 31-1-111-21-123 51-97 9-155 96-18 24.8 24-36.8 121-86 124-35zm-294 166.8l-33.6 51.6 1.6-7.4zm-83 284.2l-26 346 51 128-12 94 34-24 67 8 23-18-70-18-1-25 29 3 2-50 17 49 31 7-55 21 133 4-6 73-29 10-4 38 27 2 55-51-54 122 6 62 39 3 32 33 94 4-79 11-114-54 9 110-26 49 22 17-20 47-24-13-23 22-29-14 36-29 2-44-104-196-27-3 8 47-25 67 9-360-38-184 33-440 56.4-86.7zm1315 300l-28 11 26 64-34-24-22-60-37-19-1-30 25 32-6-81-61-99 12 55-16-11-27-89 34 38 6-27 22 7 20 55 27-5 17-40 37 17zm-1150 147l10.5 5.5-11.5-1.5zm58 30l36-9 22 29 4-81-67-55-91-12-86 23-30-16-2-185 31-115-18 280 199 5 106 39 7-22 42 9 167-45-77 25 14 34-38-14-8 27-24-26-28 23 117 105-161-105-33 13-29 140-16-40-51 1 5-17-36-6 8.5-23.8zm-36.4-18.9l-11-5.7 12.4 1.6zm368.5-136.2l96 2-16 33-47 13 21 7-45-5 69-38zm847 197l-63-130 38-5 1-19 5 20-29 8zm-790-116h-40l25-18zm-109 94l10-20 15 19 16-53 23-11 1 15-24 17 18 35-41 9 87 25-38 21-53-9zm120-4l-39-37 59-3zm48 706l24-5-8-73 35-20 22-51 22-1 5-48 71 7-2-23 72-75 21 17-9-40 67-10 3-64 23 29 16-22-29-20 54-256-11-90 34 33 36 170 24 13-29 3 23 83-37 133 39 64 2 183-1 17v2l1 2-3 19-17-13 13 40 7 15 12 24-6 18-8 23-79 83 13 20 2 19 2 57-25 25-8 30-1 25-2 14 12 57-83 180-7 77-46 21-57 73-164 51-10-14 64-24 13-32 45 2 5-23 20 17 54-15 69-86 7-131 37-14 18-42-2-38-63-25 9-54 59-32-27 3-3-71 30-2-30-40 34 11 42-115 29-8 4-50-49-18 43-21-8-94 48-67-4-57-41-41-5-56-21-5-51 37 3 43-29-34-26 20-3 41-41-9-6 29 23 23-22 13-27-21-19 26 17 28-24-3-7 20-40-33-30 26 3 42-12-23-29 7-28 57 15 35-22-5 50 64-18 10 10 25zm466-109h1v-1h-1zm-99 466h1v-1h-1zm-331-1094l9-6 19 4-13 5zm28-2l7-2 18 8-7 28-19-17zm441 414l115-98 110-200-107 204-59 51-9 34zm-510 315l-46-27-36-60-59-30-4 31 58 91-7 33-10-16-18 23-25-11-22 32-31-45-20 32 52 59-46 52 34 48-12 20 57 32-20 9 25 21-61-36-11 14-16-43-22 8v-77l-8 136-21-51-15 17 21 79-32-29-8-71 27-84-40 46-19-46 26-46 6 54 12-10 8-44-22-7 23-26-31 9-23-71-44 28-8-44-36 29-6-65 127 11 29-18-96-15 10-17 130 2-17-27 21-2-9-28-19 22-39-55-14 18-21-21-4 46-17-44 38-176 57 26-42-16-2 29 79 89 4 80 30-64 20 52 9-13 52 49 50 5zm-222-310l2-24 15 15zm-541 158l60-52 7 30-22 23zm-1 337l-22-23 20-6zm16 1l9 88-30.3 14.3zm-21.4 102.2l-6.6 31.8 5-31zm775.3 535.7l-13 10 10-15z"
       style="fill:#808080" />
    <path
       id="Path 3"
       class="s0"
       d="m479 193l19 17-11 46z"
       style="fill:#ffffff" />
    <path
       id="Path 4"
       fill-rule="evenodd"
       class="s3"
       d="m875 70l31 17-38 8zm301 1122l60 27-53 21zm-597 358l16 17-17 8zm53 0l7 28-37-21z"
       style="fill:#000000" />
    <path
       id="Path 5"
       fill-rule="evenodd"
       class="s2"
       d="m1109 189l89 47-28 56 51 104-67-110-24 35-51-54 18-6-17-48zm43 133l74 149 18 2 51 238 8-39 31 76-83-49 31-20-65-60 33 16v-16l-62-137h32zm57 331l47 28-36-1zm-1009 199l40 27-99 6 10-27zm1144 12l17 6-16 17h-27zm-766 34l15 7-10 11zm301 42h1v1h-1zm-582 17h1v1h-1zm445 11h1v1h-1zm500 50l57 36 62 6 23 47-19 30-23-51-76-21zm-627 832l50 21-5 17 40 28-72-30-8 15zm368 233l41 28 14-28 26 61-28-20-17 23zm-63 89l60 38 5 27-39-4-3 22-17-31-39 22z"
       style="fill:#808080" />
  </g>
</svg>
