<svg version="1.2" xmlns="http://www.w3.org/2000/svg" viewBox="0 0 1000 1000" width="1000" height="1000">
	<title>reed-svg</title>
	<style>
		.s0 { fill: #ffffff } 
		.s1 { fill: #7f7f7f } 
		.s2 { fill: #000000 } 
	</style>
	<g id="Layer 1">
		<path id="Path 0" class="s0" d="m145.3 466.6l15.2-201.7 25.5-74.9 89.3-126.9 86.3-48.8 62.8-13.9 114.3 24.5 71.2-22.9 43.6 6.3 80.9 56.4 100.4 135.8-111.8-139-68.8-48.5-55-7.9-62.7 26.6-121.1-28.4-91.9 32.3-73.4 61.3-54.8 91.8-30.9 82-3.6 160.3 1.6 22-1.2 3.3-1.3 1.7-1.3 1.9zm264.1-209.2l209.2-41.5 122.2 56.7 41.7 36.7 5 154.4-110.3 14.4-60.9 50 2.5 17 39.2-2.5 28.6 22.8 26.4-26 13.5 39.2 27.9-26.2 37.8 10.3-68.1 261.5-56.8 66.8-9.9 41-39.3 45.3-0.3-12.6-62.8 24.9-102.9-54.7-37.9-108.5-49.2-34-5.3-102.1 7.9-21.7-36.5-110.3 12.2-25.5 60.7 26 19.5 25.7 14.6-8.4-13.3-26.6 10.8-12.7 36.5 12.2 21.5-26.9 22.9 26.7 23.9-9.7-4.8 43.4 33.6-19.1 6.4-32.6-5.4-37.2-31.1-28.7-109.9-26.9-65.7 15.9 17.3-12-22.1-42.7 19-21.7-16.3-79.9zm453.3 70.4l-27.7-125.8 35 121.5-13.7 90.7-36 79.6 12.5 42.5-57.9 125.4 51.2-127.7-6.2-21.2-20.4 1.4 48.8-89.4 11.8-93.5 1.3-1.7zm-647.4 370.6l-67.6-116.8-17.7-78.1 15.3-37-9.7 31.4 20.6 87.3zm373.5 295.6l27.9-15.1-9.3 12.4z"/>
		<path id="Path 1" class="s1" d="m195.3 188.7l54.8-91.8 73.4-61.3 91.9-32.3 121.1 28.4 62.7-26.6 55 7.9 68.8 48.5 111.8 139 0.3 1.5 27.6 125.7-33-129.7-104.1-128.9-77.4-53.6-68.2-1.2-37.7 35.5-52-32.1-114.1-0.9-98.3 53.9zm-34.5 242.4l3.6-160.4 30.9-82-28.2 78.4zm374.9 567.6l-61.3-19.6-89.2-80.3-63.8-101.6-3.3-99.3-41.6-123.7 20.9-41-18.1-70.2 24.6-27.3-5-100.5 104.4-99.1 155.7-6.6 62.3-39.2 35.7 39.2 42.2-4.6-15.1 5.4 6.9 14.8 94.9 54.4 21.5 82.3-12.5 122 54.8-91.8 10.5-80.6-11.8 93.5-48.8 89.3 20.3-1.3 6.4 21.3-51.2 127.7-1.4 1.7 0.4 3.1-1 3.3-1.2 3.3 0.3 1.6-1.3 1.8-2.4 5-18 72.4-1.2 3.3 0.2 1.5-1.3 1.8 0.2 1.5-1.1 3.3-2.1 6.7-1.4 1.7 0.2 1.6-1.3 1.8-4 16.4-1.3 1.7-23.1 58.8-1.1 3.3-44.7 63.5-2.8 1.9-1.3 1.9-6.9 7.3 9.9-41.1 56.8-66.7 68.2-261.5-38-10.4-27.8 26.2-13.6-39.1-26.3 25.9-28.6-22.7-39.2 2.5-2.5-17.1 60.9-49.9 110.2-14.4-4.9-154.4-41.7-36.7-122.1-56.7-209.3 41.4-48 40.3 16.2 79.8-18.9 21.8 22 42.7-17.2 12 65.7-15.9 109.9 26.8 31.1 28.8 5.3 37.2-6.3 32.6-33.6 19.1 4.8-43.5-23.9 9.8-22.9-26.7-21.4 26.8-36.6-12.1-10.9 12.7 13.4 26.5-14.6 8.5-19.6-25.7-60.7-26-12.1 25.5 36.5 110.2-7.9 21.8 5.3 102 49.2 34.1 37.8 108.4 103 54.7 62.8-24.9 0.3 12.6-1.4 1.8-27.9 15.1-34.1 4.9zm-390.3-532.1l13.2-6.7-2.4 5.2 65.6 15.8 22.2 66.4-21.9-9.6-13 19.4 40.7-2.7 20 17.6-13.5 27.3 10.8 85.5-21.9 12.6-26.3 3.8-3.5-2.6-59.3-113.3-20.4-87.3z"/>
		<path id="Path 2" class="s2" d="m195.3 188.7l82.6-118 98.3-53.9 114.1 0.9 52 32.1 37.7-35.5 68.2 1.2 77.4 53.6 104.1 128.9 33 129.7-1.2 1.8-1.4 1.8-10.5 80.7-54.8 91.7 12.5-122-21.4-82.3-95-54.3-6.9-14.9 15.1-5.3-42.1 4.5-35.7-39.2-62.4 39.2-155.7 6.7-104.4 98.9 5.1 100.7-24.5 27.2 17.9 70.2-20.9 41.1 41.6 123.7 3.3 99.2 63.9 101.5 89.1 80.5 61.5 19.6-89.4-15.6-90.9-92.8-40.4-60.6-48-145-10.8-85.6 13.5-27.1-20-17.8-40.8 2.8 13.1-19.3 21.9 9.5-22.3-66.5-65.5-15.7 2.4-5.1 1.3-1.9 1.3-1.7 1.2-3.3-1.6-22 6.3-163.9z"/>
		<path id="Path 3" fill-rule="evenodd" class="s0" d="m407.6 256l1.6-0.2 0.2 1.6-1.6 0.2zm-56.5 57.2l1.5-0.2 0.2 1.6-1.5 0.2zm-171.6 159.3l40.5 17.9-5.2 18.2zm7.8 43.1l26.8 21.5-25.4 10zm-10.7 68.1l33.4 1.4 14.4-21.1 17.1 52.9-40.2 16.9zm151-28.2l1.5-0.2 0.2 1.6-1.5 0.2zm396-52.6l32.1 3.2 8.3 24.2-55.3-20.5zm-19.2 20.2l1.5-0.2 0.3 1.5-1.6 0.3zm-461.1 104.7l22.6 47.3-10 7.9-1.2-30-32.7 25.3-3.1-21.6zm530.4 33.9l1.5-0.2 0.2 1.6-1.5 0.2zm-2.9 13l1.6-0.2 0.2 1.6-1.5 0.2zm-393 139.2l1.6-0.2 0.2 1.5-1.6 0.2zm238.9 163.2l1.6-0.2 0.2 1.6-1.6 0.2z"/>
		<path id="Path 4" class="s1" d="m671.3 65.9l1.6-0.3 0.2 1.6-1.6 0.3zm-325.3 48.6l1.6-0.2 0.3 1.6-1.6 0.2zm39.9 177.8l1.6-0.2 0.3 1.6-1.6 0.2zm-19.5 18.6l1.6-0.3 0.2 1.6-1.6 0.3zm494.7 16.9l1.5-0.2 0.3 1.5-1.5 0.2zm-1.4 1.9l1.6-0.3 0.2 1.5-1.6 0.2zm-700.1 126.8l1.4-0.2 0.3 1.6-1.5 0.2zm-1.4 1.7l1.6-0.2 0.2 1.6-1.6 0.2zm111 121.6l1.6-0.2 0.2 1.5-1.6 0.2zm5.9 7.1l1.4-0.2 0.3 1.6-1.5 0.2zm1.7 1.3l1.6-0.2 0.2 1.6-1.6 0.2zm-11.4 8l1.6-0.3 0.2 1.5-1.6 0.2zm84.9 17.9l1.6-0.3 0.2 1.6-1.6 0.3zm214.9 19.4l35.2 67.8 45.3-3.4-24.3 28.8-91.7-10.5-15.5-19.8 7.6-34.4zm-21.9 155.1l99.8 21.9-46.5 17.8-89.5-6-12.6-10.9zm-115.5 88l1.5-0.2 0.2 1.5-1.5 0.3zm101-13.1l85.6 11.4-25.7 19.5-37-4.1z"/>
		<path id="Path 5" fill-rule="evenodd" class="s2" d="m156.2 465l-4.7 11.7 40.6 17.9-23.9 20.8-22.6-3-6.7-24.4zm138.5-16.9l1.5-0.2 0.2 1.5-1.5 0.2zm119.3 4.9l111.5 15.5 32.9 52.2-24.1 8.3-59.7-29.4 22.2-11-64.3-17.7-71.1 34.1zm52.7 79.4l-60 0.7 11.9-15.9 62.2-7.4 0.5 14.2-23.5 1.7zm250.2-53.6l52.3 0.4 12.4 42.4-22.7-26.7-25.5-1.1-107 37.7zm-38.9 48.4l29.1 3.7-37.7 13.3zm39.3 8.5l22.4 12.7-8.1 10.6zm90.5-10l8.2 13.1-17.7-2.1zm-492.3 207.3l1.5-0.2 0.2 1.6-1.5 0.2zm-1.3 1.8l1.6-0.3 0.2 1.6-1.6 0.3zm4.9 34l1.6-0.2 0.2 1.5-1.6 0.2zm429.1-9.8l1.6-0.2 0.2 1.5-1.5 0.2zm-4.4 13.3l1.5-0.2 0.2 1.5-1.5 0.2zm-1.2 3.3l1.6-0.2 0.3 1.6-1.6 0.2zm-5.3 18.2l1.6-0.2 0.2 1.5-1.6 0.2zm-73 129.3l1.6-0.2 0.2 1.5-1.6 0.2zm-111.2-232.3l48.5 29.3-56.1-15.5zm-18.5 111.8l91.7 10.5-95.7 6-21.5-6.5z"/>
	</g>
</svg>