<svg version="1.2" xmlns="http://www.w3.org/2000/svg" viewBox="0 0 1000 1000" width="1000" height="1000">
	<title>image</title>
	<style>
		.s0 { fill: #ffffff } 
		.s1 { opacity: 1;fill: #7f7f7f } 
		.s2 { fill: #000000 } 
	</style>
	<g id="Layer 1">
		<path id="Path 0" class="s0" d="m143.2 418.4l43.6-196 35.8-70 105.8-112 91.8-35.7 63.7-4.7 108.9 40.4 73.2-12.4 42 12.4 71.5 66.9 79.4 147.8-90.2-152.5-60.7-57.5-52.9-15.6-65.4 17.2-115.1-45.1-94.9 18.6-80.9 49.8-66.9 82.4-42 76.2-26.4 157.1-1.6 21.8-1.6 3.1-1.5 1.5-1.6 1.6zm289.4-168l211.6-10.9 112 73.1 35.8 42-17.1 152.4-110.5-1.5-66.9 40.4v17.1l38.9 3.1 24.9 26.5 29.6-21.8 7.7 40.4 31.2-21.7 35.7 15.5-104.2 247.3-65.3 57.5-15.6 38.9-45.1 38.9 1.5-12.4-65.3 15.5-93.3-68.4-21.8-112-43.6-40.4 9.3-101.1 10.9-20.2-20.2-113.6 15.6-23.3 56 34.2 15.5 28 15.6-6.2-9.3-28 12.4-10.9 34.2 17.1 24.9-23.3 18.7 29.5 24.9-6.2-10.9 42 35.8-14 10.9-31.1v-37.3l-26.5-32.7-104.2-42-66.9 6.2 18.7-9.3-15.6-45.1 21.8-18.6-4.7-80.9zm435.6 133.7l-9.3-127.5 17.1 124.4-26.4 87.1-46.7 73.1 6.2 43.6-74.7 115 68.5-118.2-3.1-21.7-20.3-1.6 60.7-80.9 24.9-90.2 1.6-1.5zm-689.2 272.1l-49.8-124.4-6.3-79.3 20.3-34.2-14 29.5 7.8 88.7zm325.1 343.7l29.6-10.9-10.9 10.9z"/>
		<path id="Path 1" class="s1" d="m231.9 152.4l66.9-82.4 80.9-49.8 94.9-18.6 115.1 45.1 65.4-17.2 52.9 15.6 60.7 57.5 90.2 152.5v1.5l9.3 127.5-14-132.2-84-141.5-68.4-63.7-66.9-10.9-42.1 29.5-46.6-38.9-112-17.1-104.3 38.9zm-68.4 233.3l26.4-157.1 42-76.2-38.9 73.1zm287.8 611.2l-57.5-28-76.3-91.7-48.2-108.9 10.9-98-23.3-127.5 26.4-37.3-7.8-71.6 28-23.3 9.4-99.5 116.7-82.5 154 15.6 66.9-29.6 29.5 43.6 42.1 1.5-15.6 3.1 4.7 15.6 85.5 66.9 9.4 84-29.6 118.1 66.9-82.4 21.8-77.7-24.9 90.2-60.7 80.8 20.2 1.6 3.2 21.8-68.5 118.2-1.6 1.5v3.1l-1.5 3.1-1.6 3.1v1.6l-1.5 1.6-3.1 4.6-28 68.5-1.6 3.1v1.5l-1.6 1.6v1.5l-1.5 3.1-3.1 6.3-1.6 1.5v1.6l-1.5 1.5-6.3 15.6-1.5 1.5-31.1 54.5-1.6 3.1-52.9 56-3.1 1.5-1.5 1.6-7.8 6.2 15.5-38.9 65.4-57.5 104.2-247.3-35.8-15.6-31.1 21.8-7.8-40.4-29.5 21.7-24.9-26.4-38.9-3.1v-17.1l66.9-40.4 110.4 1.5 17.2-152.4-35.8-42-112-73.1-211.6 10.9-52.9 32.7 4.6 80.8-21.7 18.7 15.5 45.1-18.6 9.3 66.9-6.2 104.2 42 26.4 32.7v37.3l-10.9 31.1-35.7 14 10.9-42-24.9 6.2-18.7-29.5-24.9 23.3-34.2-17.1-12.5 10.9 9.4 28-15.6 6.2-15.6-28-56-34.2-15.5 23.3 20.2 113.5-10.9 20.3-9.3 101 43.5 40.5 21.8 112 93.4 68.4 65.3-15.6-1.5 12.5-1.6 1.5-29.6 10.9h-34.2zm-308-578.5l14-4.7-3.1 4.7 62.2 24.9 12.4 68.4-20.2-12.5-15.5 17.2 40.4 3.1 17.1 20.2-17.1 24.9-1.6 85.5-23.3 9.3h-26.4l-3.1-3.1-42.1-119.7-7.7-88.7z"/>
		<path id="Path 2" class="s2" d="m231.9 152.4l98-104.2 104.3-38.9 112 17.1 46.6 38.9 42.1-29.5 66.9 10.9 68.4 63.7 84 141.5 14 132.2-1.5 1.6-1.6 1.5-21.8 77.8-66.9 82.4 29.6-118.2-9.3-83.9-85.6-66.9-4.7-15.6 15.6-3.1-42-1.5-29.6-43.6-66.9 29.6-154-15.6-116.7 82.4-9.3 99.6-28 23.3 7.7 71.5-26.4 37.4 23.3 127.5-10.9 98 48.3 108.8 76.2 91.8 57.6 28-85.6-28-76.2-104.2-31.1-65.3-26.5-149.3 1.6-85.6 17.1-24.8-17.1-20.3-40.5-3.1 15.6-17.1 20.2 12.5-12.5-68.5-62.2-24.8 3.1-4.7 1.6-1.6 1.5-1.5 1.6-3.1 1.6-21.8 29.5-160.2z"/>
		<path id="Path 3" fill-rule="evenodd" class="s0" d="m431 248.8h1.6v1.6h-1.6zm-63.7 48.2h1.5v1.6h-1.5zm-191.4 132.1l37.3 23.4-7.7 17.1zm1.5 43.5l23.3 24.9-26.4 6.2zm-20.2 65.4l32.6 6.2 17.2-18.7 9.3 54.4-42 10.9zm152.5-6.2h1.5v1.6h-1.5zm396.7 4.6l31.1 7.8 4.7 24.9-51.4-28zm-21.8 17.1h1.6v1.6h-1.6zm-468.2 37.3l15.5 49.7-10.9 6.3 3.1-29.6-35.8 20.2v-21.7zm516.6 108.8h1.5v1.6h-1.5zm-4.7 12.4h1.6v1.6h-1.6zm-406.1 80.9h1.6v1.5h-1.6zm211.6 194.4h1.6v1.6h-1.6z"/>
		<path id="Path 4" class="s1" d="m717.3 99.5h1.6v1.6h-1.6zm-326.7 1.5h1.6v1.6h-1.6zm14 180.4h1.6v1.6h-1.6zm-21.8 15.5h1.6v1.6h-1.6zm483.9 87.1h1.5v1.5h-1.5zm-1.6 1.6h1.6v1.5h-1.6zm-706.3 24.9h1.5v1.6h-1.5zm-1.6 1.5h1.6v1.6h-1.6zm91.8 135.3h1.6v1.5h-1.6zm4.7 7.8h1.5v1.6h-1.5zm1.5 1.5h1.6v1.6h-1.6zm-12.4 6.2h1.6v1.5h-1.6zm80.9 29.6h1.6v1.6h-1.6zm208.5 49.7l24.9 71.6 45.1 3.1-28 24.9-88.7-23.4-12.4-21.7 12.4-32.7zm-43.6 149.3l94.9 35.8-48.2 10.8-87.1-18.6-10.9-12.5zm-126 70h1.5v1.6h-1.5zm101.1 1.5l82.5 23.4-28 15.5-35.8-9.3z"/>
		<path id="Path 5" fill-rule="evenodd" class="s2" d="m154.1 418.4l-6.2 10.8 37.3 23.4-26.4 17.1-21.8-6.2-3.1-24.9zm138.5 3.1h1.5v1.5h-1.5zm116.6 21.8l107.4 31.1 24.9 56-24.9 4.7-54.5-37.4 23.4-7.7-60.7-26.5-74.7 23.4zm40.5 85.5l-59.1-7.8 14-14 62.2 1.6-1.6 14-23.3-1.6zm253.6-17.1l51.3 7.8 6.2 43.5-18.6-29.5-24.9-4.7-110.5 21.8zm-45.1 42l28 7.8-38.9 7.7zm37.4 14l20.2 15.6-9.4 9.3zm90.3 3.1l6.2 14-17.1-4.6zm-513.4 133.7h1.5v1.6h-1.5zm-1.6 1.5h1.6v1.6h-1.6zm0 34.2h1.6v1.5h-1.6zm423.2 51.4h1.6v1.5h-1.6zm-6.2 12.5h1.5v1.5h-1.5zm-1.6 3.1h1.6v1.6h-1.6zm-7.8 17.1h1.6v1.5h-1.6zm-90.2 116.7h1.6v1.5h-1.6zm-76.2-244.1l43.5 35.7-52.9-23.3zm-34.2 107.3l88.7 23.3-94.9-7.7-20.2-9.4z"/>
	</g>
</svg>