<?xml version="1.0" encoding="UTF-8" standalone="no"?>
<svg
   version="1.2"
   viewBox="0 0 1052 1500"
   width="1052"
   height="1500"
   id="svg1"
   sodipodi:docname="tucker.svg"
   inkscape:version="1.4 (86a8ad7, 2024-10-11)"
   xmlns:inkscape="http://www.inkscape.org/namespaces/inkscape"
   xmlns:sodipodi="http://sodipodi.sourceforge.net/DTD/sodipodi-0.dtd"
   xmlns="http://www.w3.org/2000/svg"
   xmlns:svg="http://www.w3.org/2000/svg">
  <defs
     id="defs1" />
  <sodipodi:namedview
     id="namedview1"
     pagecolor="#505050"
     bordercolor="#eeeeee"
     borderopacity="1"
     inkscape:showpageshadow="0"
     inkscape:pageopacity="0"
     inkscape:pagecheckerboard="0"
     inkscape:deskcolor="#505050"
     inkscape:zoom="0.55"
     inkscape:cx="525.45455"
     inkscape:cy="750"
     inkscape:window-width="1920"
     inkscape:window-height="1027"
     inkscape:window-x="1912"
     inkscape:window-y="-8"
     inkscape:window-maximized="1"
     inkscape:current-layer="svg1" />
  <title
     id="title1">tucker</title>
  <style
     id="style1">
		tspan { white-space:pre }
		.shp0 { fill: #f6f6f6 } 
		.shp1 { opacity: 0.996;fill: #7d7e7e } 
		.shp2 { opacity: 0.996;fill: #080808 } 
	</style>
  <g
     id="Background">
    <path
       id="Path 0"
       class="shp0"
       d="M475.05 0.21L558.97 0.5L560.27 13.49C561.33 24.15 561.33 26.68 560.27 27.61C559.55 28.22 549.3 34.34 516.01 53.68L465.56 50.84C437.81 49.27 407.69 47.54 398.62 46.99C389.55 46.43 377.74 45.64 372.38 45.22C364.29 44.6 362.72 44.21 363.2 42.97C363.52 42.15 364.93 37.43 368.85 23.48L379.99 21.12C386.12 19.82 394.72 17.94 399.12 16.94C403.52 15.94 410.48 14.4 414.61 13.51C418.73 12.63 434.01 9.27 448.57 6.06L475.05 0.21Z"
       style="fill:#ffffff;opacity:1" />
    <path
       id="Path 1"
       class="shp1"
       d="M558.94 0L596.43 0L590.5 7.25C587.23 11.23 584.65 14.58 584.75 14.7C584.86 14.82 588.77 13.52 601.93 8.75L618.41 11.35C627.48 12.78 646.36 15.76 685.85 21.98L710.32 35.61C723.79 43.11 751.44 58.55 771.77 69.92C792.1 81.3 824.76 99.56 879.98 130.41L897.24 179.88C906.73 207.09 915.26 231.15 916.19 233.34C917.12 235.54 927.04 248.39 938.23 261.9C949.43 275.4 965.85 295.19 990.84 325.28L996.81 375.25L993.77 384.24C992.09 389.19 990.57 393.46 990.38 393.74C990.18 394.01 983.18 391.66 974.81 388.52C966.44 385.37 959.03 382.78 958.34 382.77C957.65 382.76 957.09 383.87 957.09 385.24C957.09 386.62 955.52 409.21 953.6 435.46C951.68 461.7 949.99 483.92 949.85 484.83C949.71 485.74 936.84 459.2 892.91 365.26L884.29 357.45C879.55 353.16 870.54 344.84 852.9 328.28L854.11 303.8C854.78 290.33 855.52 278.53 855.76 277.56C856.15 275.98 857.34 275.87 868.42 276.34C875.16 276.63 883.11 276.97 891.53 277.32L897.28 268.32C900.44 263.37 903.04 258.65 903.06 257.83C903.08 257 897.55 235.87 878.43 165.39L872.55 162.07C869.32 160.24 849.82 149.94 829.21 139.19C808.61 128.44 789.72 118.54 787.25 117.19C784.78 115.84 782.42 114.44 782.01 114.08C781.6 113.72 783.5 109.83 786.24 105.43C788.97 101.03 791.11 97.36 790.98 97.28C790.85 97.19 783.33 92.21 774.26 86.22C765.14 80.19 756.22 75.03 754.28 74.65C752.36 74.28 738.65 72.2 723.81 70.02C708.98 67.84 687.62 64.68 676.36 62.99C665.09 61.3 652.5 59.46 648.38 58.9C644.26 58.34 632.57 56.63 603.93 52.3L584.53 65.46L587.23 68.03C588.72 69.45 595.21 74.84 601.66 80.02C608.1 85.2 613.27 89.5 613.15 89.58C613.02 89.65 592.01 87.36 520.01 79.26L513.26 84.6C509.55 87.54 506.86 90.12 507.27 90.34C507.68 90.56 512.06 92.32 517.01 94.26C521.95 96.19 528.25 98.73 535.99 102.03L524 107.57C517.41 110.62 508.19 114.87 503.52 117.02C498.85 119.16 495.25 121.12 495.53 121.35C495.8 121.59 517.83 126.12 544.48 131.42C571.13 136.72 608.22 144.1 660.87 154.61L701.3 184.38L700.79 193.37C700.51 198.32 700.07 204.73 699.34 212.86L776.52 270.32L775.89 324.78C775.55 354.74 774.99 430.29 774.02 606.1L785.13 648.82C791.24 672.31 796.24 692.21 796.24 693.04C796.24 694.09 790.26 696.58 776.01 701.45C764.89 705.25 726.56 718.55 690.84 731.01C655.13 743.47 601.4 762.21 571.46 772.65C541.51 783.09 516.22 792.04 515.26 792.55C514.3 793.06 513.52 794.48 513.53 795.72C513.54 796.96 511.9 827.42 506.24 928.88L517.89 979.35C524.3 1007.1 529.61 1030.71 529.69 1031.81C529.76 1032.91 522.95 1044.6 514.54 1057.79C506.13 1070.99 498.03 1083.58 496.53 1085.78C494.45 1088.82 491.8 1090.75 485.42 1093.86C480.82 1096.11 466.36 1103.08 453.3 1109.35C440.24 1115.62 429.57 1121.09 429.58 1121.5C429.58 1121.91 436.85 1128.44 445.72 1135.99C454.59 1143.55 470.01 1156.7 479.98 1165.22C489.95 1173.74 512.9 1193.3 530.97 1208.69C549.05 1224.08 564.99 1237.63 568.96 1240.92L560.97 1241.58C556.57 1241.94 527.12 1243.99 438.08 1250.02L422.6 1246.62C414.08 1244.74 393.18 1240.27 376.14 1236.68C359.11 1233.08 340 1228.99 333.68 1227.58C327.36 1226.17 321.38 1225.16 320.39 1225.35C319.15 1225.58 316.58 1230.18 312.1 1240.17C308.54 1248.14 305.75 1254.73 305.91 1254.82C306.08 1254.91 310.93 1255.46 316.7 1256.04C322.47 1256.63 330 1257.46 333.44 1257.88C339.03 1258.58 339.7 1258.47 339.69 1256.91C339.68 1255.95 340.01 1255.17 340.43 1255.18C340.84 1255.19 341.04 1256.21 340.86 1257.43C340.69 1258.66 341.49 1269.78 342.63 1282.15C343.78 1294.51 344.96 1304.86 345.26 1305.13C345.55 1305.4 353.07 1304.78 361.97 1303.74C370.86 1302.69 378.93 1301.57 379.9 1301.24C381.3 1300.75 377.96 1296.52 363.23 1280.15C353.1 1268.88 344.89 1259.54 344.99 1259.39C345.09 1259.24 360.23 1260.71 378.64 1262.65C397.05 1264.59 424.47 1267.52 439.58 1269.16C454.69 1270.8 481.89 1273.73 500.02 1275.67C518.16 1277.62 537.49 1279.65 542.98 1280.19C548.48 1280.73 553.99 1281.39 555.22 1281.66C556.75 1281.99 557.33 1282.7 557.04 1283.89C556.8 1284.86 555.89 1290.59 555.01 1296.64C554.13 1302.68 553.23 1308.53 553 1309.63C552.62 1311.42 551.24 1311.75 539.79 1312.87C532.75 1313.55 513.74 1315.48 497.53 1317.15C481.32 1318.83 463.78 1320.63 458.56 1321.15C453.34 1321.67 443 1322.77 435.59 1323.59C428.17 1324.42 421.99 1325.32 421.85 1325.6C421.71 1325.89 425.05 1331.85 429.27 1338.86C433.49 1345.87 436.97 1351.69 437.01 1351.81C437.05 1351.93 457.76 1356.47 529 1371.8L568.46 1367.39C590.16 1364.96 608.37 1362.84 608.92 1362.67C609.47 1362.5 618.24 1347.22 628.4 1328.71C638.57 1310.2 647 1295.07 647.13 1295.09C647.27 1295.12 647.37 1315.71 647.32 1386.58L621.63 1416.64C607.5 1433.17 593.91 1449.04 586.94 1457.09L562.47 1463.56C549 1467.12 532.14 1471.59 525 1473.5C517.86 1475.4 503.7 1479.19 475.05 1486.87L465.56 1483.05C460.34 1480.95 442.13 1473.54 425.1 1466.58C397.41 1455.28 393.6 1453.44 389.13 1449.29C386.38 1446.73 363.9 1425.48 339.18 1402.07C314.45 1378.65 291.85 1357.26 288.94 1354.54C286.04 1351.83 284.02 1349.3 284.45 1348.94C284.88 1348.57 290.62 1346.2 297.22 1343.66C303.81 1341.12 309.43 1338.85 309.71 1338.61C309.98 1338.36 305.48 1329.73 299.72 1319.42C293.95 1309.12 288.55 1299.92 287.73 1298.98C286.9 1298.05 278.47 1293.2 268.99 1288.21C259.52 1283.23 251.2 1279.14 250.51 1279.13C249.83 1279.11 245.67 1281.73 241.27 1284.94C236.87 1288.15 232.27 1291.31 231.03 1291.96C229.79 1292.61 228.59 1293.03 228.37 1292.89C228.14 1292.75 201.33 1238.9 168.79 1173.22C136.25 1107.54 109.62 1053.35 109.6 1052.8C109.59 1052.25 112.2 1043.03 115.39 1032.31C118.59 1021.59 121.15 1011.93 121.07 1010.83C120.99 1009.73 116 967.9 99 826.95L106.2 803.53C112.27 783.75 113.51 780.56 114.15 783.04C114.56 784.66 118.96 818.13 132.94 928.88L148.54 959.36C157.11 976.12 176.93 1014.8 192.57 1045.3C208.22 1075.81 221.3 1101.03 221.65 1101.35C222 1101.67 231.5 1100.95 263.25 1097.58L279.23 1086.56C288.03 1080.49 311.63 1064.21 331.68 1050.39C351.74 1036.56 368.27 1025.6 368.42 1026.03C368.56 1026.46 358.84 1049.75 346.81 1077.78C334.79 1105.81 321.93 1135.72 311.56 1159.73L341.74 1189.71C358.35 1206.2 372.88 1220.59 374.04 1221.7C375.19 1222.8 377.49 1224.94 379.14 1226.44C381.44 1228.54 384.35 1229.63 391.63 1231.11C396.85 1232.18 415.06 1235.83 432.09 1239.23C456.55 1244.12 464.84 1245.39 471.55 1245.31C476.22 1245.25 483.64 1244.93 496.03 1243.99L498.22 1230.84C499.42 1223.61 500.32 1217.57 500.21 1217.43C500.11 1217.29 487.44 1216.47 472.05 1215.61C456.67 1214.76 443.85 1213.67 443.58 1213.21C443.3 1212.75 440.88 1199.4 433.32 1154.73L415.72 1131.87C406.04 1119.3 397.9 1108.88 397.62 1108.72C397.35 1108.56 397.44 1105.36 397.82 1101.6C398.2 1097.84 398.54 1093.53 398.62 1089.27L375.67 1088.77L381.66 1081.28C384.96 1077.16 388.21 1073.82 388.89 1073.87C389.57 1073.92 405.75 1078.53 459.56 1094.27L464.81 1090.32C467.69 1088.15 476.12 1081.51 497.03 1064.79L497.55 774.98L518.27 767.27C529.67 763.02 551.8 754.8 567.46 748.99C583.12 743.18 605.82 734.76 617.91 730.28C630 725.81 651.39 717.84 690.98 703.03L725.43 670.05L716.51 658.06C711.61 651.47 698.7 633.93 687.81 619.09C676.93 604.25 663.05 585.44 656.96 577.3C650.11 568.15 646.27 562.19 646.89 561.68C647.43 561.22 653.17 557.43 671.36 545.64L669.37 542.89C668.27 541.38 663.55 534.86 650.38 516.66L652.24 513.41C653.27 511.62 658.89 500.83 664.73 489.42C670.58 478.02 675.36 468.24 675.36 467.69C675.36 467.14 665.64 450.61 632.17 395.24L612.83 292.31C602.19 235.69 593.36 189.26 593.21 189.13C593.06 188.99 577.65 187.33 558.97 185.44C540.29 183.55 510.84 180.64 493.53 178.96C476.22 177.29 457.57 175.43 452.07 174.83C446.58 174.23 431.74 172.73 419.1 171.48C400.13 169.61 395.6 169.43 393.13 170.46C391.48 171.15 368.32 181.69 341.68 193.89C315.03 206.1 285.58 219.55 276.24 223.79C266.9 228.04 254.53 233.67 238.27 241.11L128.7 349.27L122.82 405.23C119.58 436.01 116.91 462.32 116.88 463.69C116.82 465.81 118.85 467.54 143.82 484.18L143.91 488.17C143.95 490.37 145.26 517.36 149.64 604.1L143.5 675.24C140.13 714.37 137.71 746.63 138.12 746.94C138.53 747.25 148.65 743.62 182.33 730.23L204.81 732.44C217.17 733.66 233.58 735.29 241.27 736.06C248.96 736.84 265.6 738.55 278.24 739.86C293.29 741.42 302.59 742.84 305.21 743.98C307.41 744.94 321.57 751.32 336.68 758.16C351.79 765 374.49 775.35 410.11 791.72L404.03 806.33C400.68 814.37 392.91 832.87 386.76 847.44C380.61 862 375.17 874.59 374.66 875.42C373.86 876.73 372.2 876.76 361.45 875.68C354.7 875.01 327.59 872.44 301.21 869.97C274.84 867.5 240.9 864.32 225.79 862.9C210.67 861.49 198.03 860.01 197.69 859.63C197.35 859.24 196.79 856.57 196.44 853.68C195.91 849.25 196.09 848.33 197.56 847.74C198.52 847.36 205.94 843.54 228.78 831.45L249.26 831.84L228.56 832.94L236.31 841.44C240.56 846.11 244.32 850.31 244.66 850.77C244.99 851.24 249.54 851.1 254.76 850.48C259.98 849.86 277.74 847.8 294.22 845.91C316.65 843.34 324.44 842.1 325.19 841C325.74 840.18 326.53 839.5 326.94 839.48C327.35 839.46 330.27 837.8 333.43 835.8C339.04 832.25 339.12 832.14 336.68 831.19C335.31 830.65 328.34 828.04 308.21 820.55L349.92 820.5C372.86 820.47 391.79 820.12 391.98 819.7C392.18 819.29 389.04 811.76 377.68 786.98L361.42 780.71C352.49 777.26 338.43 771.78 330.19 768.53C321.94 765.28 306.66 759.29 277.24 747.81L247.26 752.63C230.78 755.29 216.28 757.47 215.05 757.48C213.81 757.49 212.79 757.83 212.79 758.24C212.79 758.66 218.29 760.63 225.03 762.63C231.76 764.63 241.77 767.44 247.26 768.87C252.76 770.3 263.02 772.94 282.87 777.98L250.08 789.75C232.05 796.22 215.27 802.25 212.8 803.15C208.87 804.58 206.11 807.38 191.07 825.11C181.59 836.29 173.83 845.89 173.83 846.44C173.83 846.99 173.5 847.43 173.09 847.43C172.67 847.42 169.86 850.57 166.84 854.43C163.82 858.29 161.12 861.44 160.85 861.44C160.57 861.43 159.74 849.18 158.99 834.2C157.7 808.36 157.51 806.81 155.33 803.96C154.06 802.32 134.74 778.26 71.78 700.03L72.37 562.62C72.7 487.05 73.23 420.72 73.55 415.22C73.92 408.8 73.79 405.59 73.17 406.23C72.64 406.78 66.36 422.07 46.22 473.18L44.99 536.14C44.3 570.77 43.46 603.05 42.46 616.67L1 509.16L27.97 416.72L65.73 378.5C86.49 357.47 124.28 319.14 195.91 246.34L209.6 216.89C218.44 197.88 224 187.07 225.29 186.41C226.38 185.84 233.8 181.96 241.77 177.78C249.74 173.6 275.81 159.96 299.72 147.45C323.62 134.95 351.81 120.15 362.37 114.57C372.93 109 381.47 104.3 381.35 104.14C381.24 103.98 369.67 105.92 355.66 108.44C341.65 110.97 325.47 113.97 319.7 115.11C309.42 117.14 308.31 117.65 265.25 140.13C241.07 152.75 218.14 164.8 207.3 170.74L177.33 168.85C160.85 167.82 145.11 166.8 142.36 166.6C137.59 166.25 137.11 166.46 131.38 171.38C128.08 174.21 114.03 185.82 100.15 197.19C86.28 208.56 74.69 217.74 74.39 217.6C74.09 217.47 95.11 191.72 121.1 160.39C147.08 129.06 171.27 99.93 181.33 87.88L221.29 67.79C243.27 56.75 267.1 44.65 287.23 34.1L315.2 30.49C330.59 28.5 348.79 26.21 355.66 25.4C362.53 24.58 368.25 24.04 368.38 24.2C368.5 24.36 367.52 28.31 366.19 32.98C364.86 37.65 363.51 42.15 363.19 42.97C362.72 44.21 364.3 44.6 372.38 45.22C377.74 45.64 389.55 46.43 398.62 46.99C407.69 47.54 437.81 49.27 516.01 53.68L537.49 41.2C549.3 34.34 559.56 28.22 560.28 27.61C561.36 26.68 561.35 24.15 560.26 13.24L558.94 0Z"
       style="fill:#808080;opacity:1" />
    <path
       id="Path 2"
       class="shp0"
       d="M596.48 0L602.45 0C607.17 0 608.26 0.28 607.67 1.35C607.26 2.1 605.8 4.04 604.43 5.67C602.74 7.67 599.18 9.65 593.44 11.77C588.77 13.5 584.86 14.82 584.75 14.7C584.65 14.58 587.24 11.23 590.52 7.25L596.48 0Z"
       style="fill:#ffffff;opacity:1" />
    <path
       id="Path 3"
       class="shp2"
       d="M605.92 52.57C607.02 52.79 615.56 54.1 624.91 55.49C634.25 56.88 645.04 58.44 648.88 58.97C652.73 59.49 665.09 61.3 676.36 62.99C687.62 64.68 708.98 67.84 723.81 70.02C738.65 72.2 752.36 74.28 754.28 74.65C756.22 75.03 765.14 80.19 774.26 86.22C783.33 92.21 790.85 97.19 790.98 97.28C791.11 97.36 788.97 101.03 786.24 105.43C783.5 109.83 781.6 113.72 782.01 114.08C782.42 114.44 784.78 115.84 787.25 117.19C789.72 118.54 808.61 128.44 829.21 139.19C849.82 149.94 869.32 160.24 878.43 165.39L890.76 210.86C897.55 235.87 903.08 257 903.06 257.83C903.04 258.65 900.44 263.37 891.53 277.32L886.1 277.09C883.11 276.97 875.16 276.63 868.42 276.34C857.34 275.87 856.15 275.98 855.76 277.56C855.52 278.53 854.78 290.33 852.9 328.28L864.28 338.96C870.54 344.84 879.55 353.16 892.91 365.26L921.25 425.87C936.84 459.2 949.71 485.74 949.85 484.83C949.99 483.92 951.68 461.7 953.6 435.46C955.52 409.21 957.09 386.62 957.09 385.24C957.09 383.87 957.65 382.75 958.34 382.77C959.03 382.78 966.22 385.25 974.32 388.26C982.43 391.27 989.4 393.74 989.81 393.75C990.22 393.76 991.82 389.82 993.37 385.01C994.91 380.19 996.33 376.47 996.52 376.75C996.7 377.02 1000.79 392.54 1014.37 445.2L1010.65 511.66C1008.59 548.21 1006.26 583.96 1005.45 591.11C1004.54 599.26 1004.1 611.13 1004.55 641.88L1051.07 663.06L1051 892.41L985.56 1012.39L935.61 1058.95L933.93 1065.37C933 1068.9 927.43 1092.02 910.86 1161.73L906.58 1167.22C904.23 1170.24 889.43 1188.68 873.7 1208.19C857.98 1227.71 829.19 1263.46 809.74 1287.64C790.28 1311.83 764.41 1343.98 752.24 1359.09C740.07 1374.21 725.1 1392.8 707.83 1414.25L685.35 1429.83C672.99 1438.41 653.2 1452.1 641.39 1460.27C629.58 1468.43 618.34 1475.52 616.41 1476.02C614.49 1476.52 592.91 1481.91 524 1499.09L487.04 1498.5L459.56 1490.71C444.45 1486.42 419.95 1479.53 405.11 1475.38C390.28 1471.24 376.57 1467.39 374.64 1466.82C371.71 1465.96 366.96 1460.71 345.17 1434.25C330.89 1416.9 309.76 1391.25 298.22 1377.26C286.68 1363.26 266.38 1338.72 253.12 1322.72C233.74 1299.34 229.29 1293.44 230.46 1292.64C231.26 1292.09 235.81 1288.82 240.59 1285.38C245.36 1281.93 249.83 1279.12 250.51 1279.13C251.2 1279.14 259.52 1283.23 268.99 1288.21C278.47 1293.2 286.9 1298.05 287.73 1298.98C288.55 1299.92 293.95 1309.12 299.72 1319.42C305.48 1329.73 309.98 1338.36 309.71 1338.61C309.43 1338.85 303.81 1341.12 297.22 1343.66C290.62 1346.2 284.88 1348.57 284.45 1348.94C284.02 1349.3 286.04 1351.83 288.94 1354.54C291.85 1357.26 314.45 1378.65 339.18 1402.07C363.9 1425.48 386.38 1446.73 389.13 1449.29C393.6 1453.44 397.41 1455.28 425.1 1466.58C442.13 1473.54 460.34 1480.95 475.05 1486.87L493.53 1481.91C503.7 1479.19 517.86 1475.4 525 1473.5C532.14 1471.59 549 1467.12 586.94 1457.09L591.44 1451.9C593.91 1449.04 607.5 1433.17 647.32 1386.58L647.35 1340.86C647.37 1315.71 647.27 1295.12 647.13 1295.09C647 1295.07 638.57 1310.2 628.4 1328.71C618.24 1347.22 609.47 1362.5 608.92 1362.67C608.37 1362.84 590.16 1364.96 529 1371.8L483.04 1361.91C457.76 1356.47 437.05 1351.93 437.01 1351.81C436.97 1351.69 433.49 1345.87 429.27 1338.86C425.05 1331.85 421.71 1325.89 421.85 1325.6C421.99 1325.32 428.17 1324.42 435.59 1323.59C443 1322.77 453.34 1321.67 458.56 1321.15C463.78 1320.63 481.32 1318.83 497.53 1317.15C513.74 1315.48 532.75 1313.55 539.79 1312.87C551.24 1311.75 552.62 1311.42 553 1309.63C553.23 1308.53 554.13 1302.68 555.01 1296.64C555.89 1290.59 556.8 1284.86 557.04 1283.89C557.33 1282.7 556.75 1281.99 555.22 1281.66C553.99 1281.39 548.48 1280.73 542.98 1280.19C537.49 1279.65 518.16 1277.62 500.02 1275.68C481.89 1273.74 456.94 1271.04 444.58 1269.69C432.21 1268.33 404.57 1265.38 383.14 1263.13C349 1259.53 343.96 1258.79 342.42 1257.09C341.46 1256.03 340.45 1255.16 340.18 1255.16C339.9 1255.16 339.68 1255.95 339.69 1256.91C339.7 1258.47 339.03 1258.58 333.44 1257.88C330 1257.46 322.47 1256.63 316.7 1256.04C310.93 1255.46 306.08 1254.91 305.91 1254.82C305.75 1254.73 308.54 1248.14 312.1 1240.17C316.58 1230.18 319.15 1225.58 320.39 1225.35C321.38 1225.16 327.36 1226.17 333.68 1227.58C340 1228.99 359.11 1233.08 376.14 1236.68C393.18 1240.27 414.08 1244.74 438.08 1250.02L495.53 1246.13C527.12 1243.99 556.57 1241.94 568.96 1240.92L566.4 1238.8C564.99 1237.63 549.05 1224.08 530.97 1208.69C512.9 1193.3 489.95 1173.74 479.98 1165.22C470.01 1156.7 454.59 1143.55 445.72 1135.99C436.85 1128.44 429.58 1121.91 429.58 1121.5C429.57 1121.09 440.24 1115.62 453.3 1109.35C466.36 1103.08 480.82 1096.11 485.42 1093.86C491.8 1090.75 494.45 1088.82 496.53 1085.78C498.03 1083.58 506.13 1070.99 514.54 1057.79C522.95 1044.6 529.76 1032.91 529.69 1031.81C529.61 1030.71 524.3 1007.1 506.24 928.88L509.89 863.42C511.9 827.42 513.54 796.96 513.53 795.72C513.52 794.48 514.3 793.06 515.26 792.55C516.22 792.04 541.51 783.09 571.46 772.65C601.4 762.21 655.13 743.47 690.84 731.01C726.56 718.55 764.89 705.25 776.01 701.45C790.26 696.58 796.24 694.09 796.24 693.04C796.24 692.21 791.24 672.31 774.02 606.1L774.65 492.67C774.99 430.29 775.55 354.74 776.52 270.32L699.34 212.86L699.81 207.61C700.07 204.73 700.51 198.32 701.3 184.38L660.87 154.61L626.9 147.83C608.22 144.1 571.13 136.72 544.48 131.42C517.83 126.12 495.8 121.59 495.53 121.35C495.25 121.12 498.85 119.16 503.52 117.02C508.19 114.87 517.41 110.62 535.99 102.03L531 99.9C528.25 98.73 521.95 96.19 517.01 94.26C512.06 92.32 507.68 90.56 507.27 90.34C506.86 90.12 509.55 87.54 520.01 79.26L566.46 84.49C592.01 87.36 613.02 89.65 613.15 89.58C613.27 89.5 608.1 85.2 601.66 80.02C595.21 74.84 588.72 69.45 584.53 65.46L594.23 58.82C600.38 54.6 604.66 52.32 605.92 52.57ZM380.14 104.03C381.42 103.98 380.53 104.88 377.64 106.54C375.17 107.96 360.78 115.54 345.67 123.39C330.56 131.24 304.71 144.75 288.23 153.4C271.74 162.05 251.29 172.79 242.77 177.26C234.25 181.72 226.38 185.84 225.29 186.41C224 187.07 218.44 197.87 195.91 246.34L149.69 293.3C124.27 319.14 86.71 357.25 66.22 378C45.73 398.75 28.75 415.72 28.47 415.72C28.2 415.72 27.97 406.84 27.97 395.99C27.97 385.13 28.43 372.43 28.99 367.75C29.54 363.08 31.58 349.14 37 314.29L70.43 221.58L94.91 201.52C108.37 190.49 123.47 178.03 128.46 173.82C137.45 166.24 137.59 166.17 142.45 166.57C145.15 166.79 160.85 167.82 207.3 170.74L214.3 166.91C218.14 164.8 241.07 152.75 309.21 117.16L322.69 114.55C330.11 113.12 345.62 110.18 357.16 108.02C368.7 105.87 379.04 104.07 380.14 104.03Z"
       style="fill:#000000;opacity:1" />
    <path
       id="Path 4"
       class="shp0"
       d="M397.86 169.5C399.1 169.69 410.01 170.76 422.1 171.88C434.19 173 447.9 174.36 452.57 174.89C457.24 175.42 475.45 177.24 493.03 178.93C510.61 180.62 540.29 183.55 558.97 185.44C577.65 187.33 593.06 188.99 593.21 189.13C593.36 189.26 602.19 235.69 632.17 395.24L653.76 430.96C665.64 450.61 675.36 467.14 675.36 467.69C675.36 468.24 670.58 478.02 664.73 489.42C658.89 500.83 653.27 511.62 650.38 516.66L658.88 528.4C663.55 534.86 668.27 541.38 671.36 545.64L659.62 553.24C653.17 557.43 647.43 561.22 646.89 561.68C646.27 562.19 650.11 568.15 656.96 577.3C663.05 585.44 676.93 604.25 687.81 619.09C698.7 633.93 711.61 651.47 725.43 670.05L690.98 703.03L665.43 712.59C651.39 717.84 630 725.81 617.91 730.28C605.82 734.76 583.12 743.18 567.46 748.99C551.8 754.8 529.67 763.02 497.55 774.98L497.03 1064.79L483.54 1075.58C476.12 1081.51 467.69 1088.15 459.56 1094.27L424.85 1084.12C405.75 1078.53 389.57 1073.92 388.89 1073.87C388.21 1073.82 384.95 1077.16 381.65 1081.28C378.36 1085.4 375.67 1089.22 375.69 1089.77C375.71 1090.32 378.91 1093.25 382.81 1096.27C386.71 1099.29 391.75 1103.38 394.01 1105.36C396.27 1107.34 406.04 1119.25 433.32 1154.73L438.2 1183.55C440.88 1199.4 443.3 1212.75 443.58 1213.21C443.85 1213.67 456.67 1214.76 472.05 1215.61C487.44 1216.47 500.11 1217.29 500.21 1217.43C500.32 1217.57 499.42 1223.61 496.03 1243.99L488.04 1244.6C483.64 1244.93 476.22 1245.25 471.55 1245.31C464.84 1245.39 456.55 1244.12 432.09 1239.23C415.06 1235.83 396.85 1232.18 391.63 1231.11C384.35 1229.63 381.44 1228.54 379.14 1226.44C377.49 1224.94 375.19 1222.8 374.04 1221.7C372.88 1220.59 358.35 1206.2 311.56 1159.73L318.25 1144.24C321.93 1135.72 334.79 1105.81 346.81 1077.78C358.84 1049.75 368.56 1026.46 368.42 1026.03C368.27 1025.6 351.74 1036.56 331.68 1050.39C311.63 1064.21 288.03 1080.49 263.25 1097.58L242.77 1099.76C231.5 1100.95 222 1101.67 221.65 1101.35C221.3 1101.03 208.22 1075.81 192.57 1045.3C176.93 1014.8 157.11 976.12 132.94 928.88L123.92 857.43C118.96 818.13 114.56 784.66 114.15 783.04C113.51 780.56 112.27 783.75 99 826.95L109.97 917.89C116 967.9 120.99 1009.73 121.07 1010.83C121.14 1011.93 118.54 1021.7 115.3 1032.54C112.05 1043.38 109.1 1051.93 108.75 1051.53C108.39 1051.13 102.24 1034.61 95.09 1014.82C87.94 995.04 77.33 965.69 60.94 920.39L60.94 874.17C60.93 838.66 61.28 825.34 63.94 805.46L46.96 755C37.61 727.24 29.97 703.18 29.97 701.53C29.97 699.88 32.9 680.43 43.01 618.09L46.07 474.18L59.14 440.71C66.32 422.29 72.64 406.78 73.17 406.23C73.79 405.59 73.92 408.79 73.55 415.22C73.23 420.72 72.7 487.05 71.78 700.03L112.4 750.5C134.74 778.26 154.06 802.32 155.33 803.96C157.51 806.81 157.7 808.36 160.35 861.39L165.84 860.83C168.86 860.53 174.48 859.89 178.33 859.42C182.36 858.93 188.5 858.95 192.82 859.47C196.94 859.97 212.22 861.53 226.78 862.93C241.35 864.34 274.84 867.5 301.21 869.97C327.59 872.44 354.7 875.01 361.45 875.68C372.2 876.76 373.86 876.73 374.66 875.42C375.17 874.59 380.61 862 386.76 847.44C392.91 832.87 400.68 814.37 410.11 791.72L387.13 781.16C374.49 775.35 351.79 765 336.68 758.16C321.57 751.32 307.41 744.94 305.21 743.98C302.59 742.84 293.29 741.42 278.24 739.86C265.6 738.55 248.96 736.84 241.27 736.06C233.58 735.29 217.17 733.66 182.33 730.23L160.6 738.86C148.65 743.62 138.53 747.25 138.12 746.94C137.71 746.63 140.13 714.37 149.64 604.1L146.81 548.13C145.26 517.36 143.95 490.37 143.82 484.18L130.32 475.18C118.85 467.54 116.82 465.81 116.88 463.69C116.91 462.32 119.58 436.01 128.7 349.27L238.27 241.11L248.76 236.31C254.53 233.67 267.35 227.83 277.24 223.33C287.13 218.84 315.45 205.91 340.18 194.62C364.9 183.33 387.49 172.98 390.37 171.62C393.24 170.27 396.62 169.32 397.86 169.5Z"
       style="fill:#ffffff;opacity:1" />
    <path
       id="Path 5"
       class="shp2"
       d="M277.24 747.99C277.79 748.13 285.43 751.05 294.22 754.47C303.01 757.89 318.07 763.78 327.69 767.56C337.3 771.34 352.49 777.25 377.68 786.98L385.01 802.96C389.04 811.76 392.18 819.29 391.98 819.7C391.79 820.12 372.52 820.45 306.71 820.45L304.45 831.95L298.84 834.19C293.86 836.17 291.63 836.41 279.23 836.26C268.23 836.13 266.74 835.96 279.23 834.91L271.24 834.12C266.85 833.68 259.09 832.91 254.01 832.39C248.93 831.87 241.17 831.45 228.78 831.45L213.8 839.44C205.55 843.84 198.47 847.44 198.06 847.44C197.65 847.44 194.5 849.92 191.07 852.94C185.37 857.95 184.24 858.51 178.08 859.42C174.37 859.97 171.23 860.3 171.09 860.17C170.95 860.04 171.52 856.67 173.83 845.44L191.07 825.11C206.11 807.38 208.87 804.58 212.8 803.15C215.27 802.25 232.05 796.22 282.87 777.98L270.06 774.73C263.02 772.94 252.76 770.3 247.26 768.87C241.77 767.44 231.76 764.63 225.03 762.63C218.29 760.63 212.79 758.66 212.79 758.24C212.79 757.83 214.03 757.47 215.55 757.43C217.06 757.4 231.33 755.2 247.26 752.55C263.2 749.9 276.69 747.85 277.24 747.99Z"
       style="fill:#000000;opacity:1" />
    <path
       id="Path 6"
       class="shp0"
       d="M211.6 773.51C211.76 773.49 213.78 776.42 216.09 780.01C218.4 783.59 220.07 786.71 219.79 786.93C219.52 787.15 209.4 790.49 197.31 794.37C185.22 798.24 175.26 801.31 175.18 801.19C175.09 801.07 183.19 794.79 193.16 787.25C203.14 779.7 211.43 773.52 211.6 773.51Z"
       style="fill:#ffffff;opacity:1" />
    <path
       id="Path 7"
       class="shp1"
       d="M626.59 811.45C626.97 811.46 626.7 812.47 625.99 813.71C625.27 814.94 620.14 822.48 614.57 830.45C609.01 838.42 604.56 844.99 604.69 845.06C604.82 845.13 624.48 845.48 691.84 846.49L671.45 837.22C653.19 828.91 651.37 827.87 653.97 827.22C655.57 826.81 672.39 824.89 691.34 822.94C710.3 820.99 727.79 819.07 734.59 817.95L733.97 821.95C733.63 824.15 732.2 837.64 730.79 851.93C729.38 866.22 728.35 877.98 728.51 878.06C728.68 878.14 746.9 874.2 809.23 860.43L829.46 872.55C840.59 879.22 850.7 885.29 854.19 887.41L847.82 900.65C844.33 907.93 823.36 951.67 801.24 997.83C779.12 1044 757.66 1088.75 753.56 1097.27C749.46 1105.79 745.06 1115.01 741.49 1122.75L727.16 1125.43C719.27 1126.9 699.11 1130.64 682.35 1133.73C665.59 1136.82 648.51 1140.03 644.39 1140.86C638.23 1142.1 636.75 1142.13 636.1 1141.05C635.67 1140.33 621.57 1113.88 604.78 1082.28C587.99 1050.67 569.14 1015.15 551.49 981.85L572.47 960.86L554.23 952.64C544.2 948.13 533.86 943.52 531.25 942.4C528.16 941.08 526.5 939.76 526.5 938.62C526.5 937.66 530.79 917.99 536.02 894.9C541.26 871.82 546.09 852.6 546.76 852.2C547.43 851.8 564.61 843.08 584.94 832.81C605.27 822.55 622.81 813.55 623.91 812.8C625.01 812.05 626.21 811.45 626.59 811.45Z"
       style="fill:#808080;opacity:1" />
    <path
       id="Path 8"
       class="shp0"
       d="M627.76 811.47L630.33 813.13C631.74 814.04 636.49 817.52 640.89 820.85C646.88 825.38 654.27 829.36 691.84 846.51L648.38 845.85C624.48 845.49 604.82 845.13 604.7 845.06C604.57 844.99 609.71 837.41 616.11 828.21L627.76 811.47ZM332.68 830.45L330.94 833.28C329.97 834.84 328.06 837.54 324.19 842.45L294.22 845.9C277.74 847.79 260.13 849.93 245.94 851.93L239.11 844.51C235.35 840.43 231.49 836.05 228.78 832.45L239.77 832.45C247.69 832.45 252.79 833 258 834.45C263.69 836.02 268.31 836.45 279.48 836.45C291.87 836.44 294.34 836.17 298.47 834.31C301.08 833.13 306.13 831.85 309.71 831.45C313.28 831.05 319.91 830.67 332.68 830.45ZM655.88 874.7C661.92 875.12 666.98 875.57 667.11 875.7C667.25 875.82 661.31 879.74 653.92 884.41C646.53 889.08 640.72 893.13 641.02 893.4C641.31 893.68 649.72 896.46 677.86 905.27L597.76 905.9L638.31 921.15C660.61 929.53 679.64 936.39 680.6 936.39C681.56 936.38 693.25 933.92 706.58 930.91C719.9 927.91 747.66 921.64 768.27 916.99C788.88 912.34 805.79 908.61 805.87 908.71C805.94 908.81 792.23 935.76 744.79 1028.31L736.8 1031.41C732.4 1033.11 722.74 1036.9 715.32 1039.83C707.9 1042.75 694.3 1048.11 668.36 1058.29L642.67 1044.05C628.55 1036.22 616.22 1029.14 615.27 1028.31C614.31 1027.47 609.63 1014.37 604.56 998.33C599.6 982.67 591.47 957.04 586.49 941.37C581.51 925.71 577.45 912.44 577.47 911.89C577.48 911.34 581.87 908.45 587.21 905.46C592.56 902.47 599.52 898.54 608.42 893.4L604.92 886.91C603 883.34 601.54 880.23 601.68 880.01C601.82 879.79 611.59 878.33 623.41 876.76C641.76 874.33 646.49 874.03 655.88 874.7Z"
       style="fill:#ffffff;opacity:1" />
    <path
       id="Path 9"
       class="shp2"
       d="M398.62 1089.27L398 1098.02C397.66 1102.83 397.21 1106.87 397 1107.01C396.79 1107.15 391.93 1103.55 386.19 1099.02C380.45 1094.48 375.73 1090.44 375.7 1090.02C375.67 1089.61 380.81 1089.27 398.62 1089.27Z"
       style="fill:#000000;opacity:1" />
    <path
       id="Path 10"
       class="shp1"
       d="M738.05 1171.24C738.46 1171.25 744.87 1174.01 752.28 1177.37C759.7 1180.72 766.11 1183.75 766.53 1184.09C766.94 1184.43 768.18 1191.01 769.27 1198.7C770.37 1206.4 771.26 1214.04 771.25 1215.69C771.24 1217.34 766.47 1230.38 760.64 1244.67C754.82 1258.96 749.89 1271.1 749.69 1271.65C749.48 1272.2 748.3 1272.93 747.06 1273.27C745.81 1273.62 737.37 1276.22 728.31 1279.07C719.24 1281.91 711.54 1284.11 711.2 1283.94C710.86 1283.78 716.56 1258.46 723.87 1227.68C731.18 1196.9 737.19 1171.61 737.23 1171.47C737.27 1171.33 737.64 1171.23 738.05 1171.24Z"
       style="fill:#808080;opacity:1" />
    <path
       id="Path 11"
       class="shp0"
       d="M302.64 1187.86C304.12 1188.88 308.55 1191.96 312.49 1194.7C316.42 1197.45 319.65 1199.93 319.68 1200.2C319.7 1200.47 313.99 1201.69 306.97 1202.9C299.96 1204.11 294.13 1205 294.02 1204.9C293.91 1204.79 294.93 1201.1 296.29 1196.7C297.66 1192.31 299.04 1188.1 299.36 1187.36C299.82 1186.29 300.49 1186.39 302.64 1187.86ZM257 1220.77C260.3 1223.36 262.94 1225.86 262.87 1226.33C262.81 1226.8 260.61 1228.98 253.26 1235.16L252.07 1227.92C251.42 1223.94 250.91 1219.64 250.95 1218.37C251.01 1216.21 251.39 1216.36 257 1220.77ZM341.18 1256.16C341.45 1256.16 350.68 1266.17 361.68 1278.4C377.7 1296.21 381.33 1300.75 379.91 1301.24C378.94 1301.57 370.86 1302.69 361.97 1303.74C353.07 1304.78 345.55 1305.4 345.26 1305.13C344.96 1304.86 343.81 1294.96 342.71 1283.14C341.61 1271.33 340.7 1260.42 340.69 1258.91C340.68 1257.4 340.9 1256.16 341.18 1256.16ZM375.92 1367.13C377.14 1368.52 379.38 1371.11 383.64 1376.08L404.62 1372.58C416.15 1370.66 426.72 1369.09 428.09 1369.09C429.47 1369.09 446.89 1373.82 466.81 1379.61C486.72 1385.4 510.22 1392.16 519.01 1394.65C527.8 1397.13 535.58 1399.48 536.3 1399.86C537.26 1400.38 533.47 1408.09 522.07 1428.8C507.96 1454.41 506.31 1456.98 504.27 1456.53C503.03 1456.26 494.16 1454.45 484.54 1452.5C474.92 1450.56 461.44 1447.85 454.57 1446.48C447.7 1445.12 440.06 1443.57 437.58 1443.04C433.37 1442.13 432.47 1441.28 423.03 1429.31C417.5 1422.3 406.29 1408.01 398.12 1397.57C389.95 1387.13 381.12 1375.88 378.49 1372.58C375.87 1369.29 373.72 1366.14 373.72 1365.59C373.71 1365.04 374.71 1365.73 375.92 1367.13Z"
       style="fill:#ffffff;opacity:1" />
  </g>
</svg>
