<svg version="1.2" baseProfile="tiny-ps" xmlns="http://www.w3.org/2000/svg" viewBox="0 0 2420 1269" width="2420" height="1269">
	<title>levos</title>
	<style>
		tspan { white-space:pre }
		.shp0 { fill: #1e1c1c } 
		.shp1 { fill: #5a5a5a } 
		.shp2 { fill: #9e0807 } 
	</style>
	<g id="Background">
		<path id="Path 0" class="shp0" d="M1217.92 0.45C1217.69 0.7 1210.97 1.81 1203 2.92C1195.03 4.04 1178.6 6.3 1166.5 7.96C1154.4 9.62 1126.28 13.47 1104 16.52C1081.72 19.57 1053.6 23.41 1041.5 25.07C1029.4 26.73 1012.75 28.97 1004.5 30.05C996.25 31.13 985.23 33.19 980 34.63C974.77 36.06 962.17 39.61 952 42.52C941.83 45.43 928.33 49.22 922 50.95C915.67 52.69 907.58 54.96 904 55.99C898.21 57.67 894.1 60.47 866.5 81.44C849.45 94.41 828.64 110.18 820.25 116.5C811.86 122.83 805 128.45 805 129C805 129.55 808.82 140.91 813.48 154.25C818.14 167.59 821.85 178.6 821.73 178.73C821.6 178.86 811.15 178.51 798.5 177.97C785.85 177.42 774.24 176.87 772.69 176.74C770.14 176.52 768.83 177.91 758.74 191.5L747.61 206.5C737.13 308.02 734.07 338.74 734.04 340.25C734.01 342.29 735.99 345.26 741.72 351.75C745.97 356.56 759.8 372.2 772.45 386.5C785.09 400.8 803.8 421.95 814.01 433.5C824.22 445.05 840.1 462.94 849.29 473.25C860.4 485.71 866 492.75 866 494.25C866 495.49 865.06 507.75 863.9 521.5C862.75 535.25 861.51 546.84 861.15 547.26C860.79 547.68 853.66 540.48 845.31 531.26C836.95 522.04 822.78 506.42 813.81 496.54C804.84 486.66 797.19 478.56 796.81 478.54C796.43 478.52 785.29 486.04 772.06 495.25L748 512C756.41 525.56 764.84 539.21 772.17 551.07C785.29 572.3 785.7 572.83 798.52 585.07C805.69 591.91 828.86 613.92 850.02 633.98C871.19 654.04 891.74 673.62 895.7 677.48L902.9 684.5C903.78 666.67 904.73 643.27 905.58 621C906.43 598.73 907.51 580.05 907.98 579.5C908.51 578.88 909.29 579.44 910.06 581C910.73 582.38 918.35 595.42 926.99 610C935.63 624.58 946.48 642.94 951.1 650.82L959.5 665.14C967.84 656.12 974.59 648.74 979.88 642.92C985.17 637.11 1000.75 620.04 1014.5 604.99C1028.25 589.94 1043.33 573.4 1048 568.23L1056.5 558.83C1056 548.5 1054.34 512.42 1052.49 472C1049.94 416.39 1048.74 397.16 1047.55 393C1046.68 389.98 1045.87 387.41 1045.74 387.29C1045.61 387.17 1036.39 391.11 1025.25 396.04C1014.11 400.97 1004.55 405 1004 405C1003.44 405 1003.21 403.57 1003.48 401.75C1003.75 399.96 1006.23 383.43 1008.99 365C1011.76 346.57 1014.47 330.71 1015.01 329.75C1015.71 328.52 1015.63 327.74 1014.75 327.14C1014.06 326.66 995.05 320.15 972.5 312.66C949.95 305.18 931.46 299.16 931.4 299.28C931.35 299.4 923.59 309.06 914.15 320.75C903.53 333.91 896.75 341.52 896.35 340.75C895.99 340.06 896.05 330.27 896.48 319L897.26 298.5C877.83 290.28 876.89 289.58 859.16 273.32C842.69 258.22 841.05 256.43 843.16 255.86C844.45 255.51 855.85 254.45 868.5 253.5L891.5 251.79C937.23 226.9 952.08 218.85 954 217.85C955.92 216.85 968.52 212.91 982 209.1C995.48 205.29 1013.7 200.15 1022.5 197.67L1038.5 193.16C1302.78 191.48 1389.17 191 1401 191.01L1422.5 191.04C1442.26 130.17 1447.98 112.05 1447.95 111.5C1447.93 110.95 1444.22 106.62 1439.7 101.88C1435.19 97.14 1421.83 84.97 1410 74.84C1397.16 63.84 1387.09 55.97 1385 55.3C1383.08 54.68 1346.4 42.45 1303.5 28.12C1260.6 13.79 1224.71 1.6 1223.75 1.03C1222.79 0.46 1221.17 0 1220.17 0C1219.16 0 1218.15 0.2 1217.92 0.45Z" />
		<path id="Path 1" class="shp1" d="M1440.12 137.18C1435.59 151.11 1429.82 168.8 1427.29 176.5L1422.71 190.5C1434.17 201.49 1444.26 210.94 1452.52 218.59C1460.78 226.24 1476.5 240.82 1487.45 251C1498.4 261.18 1514.15 275.76 1522.43 283.42C1530.72 291.07 1543.91 303.34 1551.75 310.67C1560.86 319.19 1566 323.37 1565.99 322.25C1565.98 321.29 1561.9 306.1 1556.91 288.5C1551.92 270.9 1542.25 236.81 1535.42 212.75C1528.59 188.69 1523.01 168.44 1523.02 167.75C1523.04 167.06 1520.23 164.43 1516.77 161.91C1513.32 159.39 1497 147.29 1480.5 135.02C1464 122.76 1450.02 112.53 1449.43 112.3C1448.8 112.05 1444.96 122.32 1440.12 137.18ZM787.48 151.81C778.16 164.45 770.64 175.28 770.77 175.89C770.9 176.53 773.22 177.01 776.25 177.01C779.14 177.02 790.5 177.47 801.5 178C812.5 178.54 821.6 178.87 821.72 178.74C821.84 178.61 818.39 168.38 814.06 156C809.72 143.63 805.77 132.45 805.29 131.17C804.51 129.08 802.76 131.09 787.48 151.81ZM359.88 158.66C359.58 159.12 368.37 201.98 379.42 253.91C390.46 305.83 399.95 348.47 400.5 348.67C401.08 348.87 403.98 336.16 407.33 318.76C410.53 302.12 413.34 288.39 413.58 288.25C413.81 288.11 421.99 292.87 431.75 298.82C441.51 304.77 453.44 311.97 458.25 314.82C463.06 317.67 467.49 319.89 468.08 319.75C468.67 319.61 467.18 316.57 464.75 313C462.33 309.43 438.16 273.43 411.05 233C383.93 192.57 361.45 159.12 361.09 158.66C360.72 158.2 360.18 158.2 359.88 158.66Z" />
		<path id="Path 2" class="shp0" d="M1523.1 167.94C1523.05 168.52 1528.59 188.69 1535.42 212.75C1542.25 236.81 1551.92 270.9 1556.91 288.5C1561.9 306.1 1565.98 321.29 1565.99 322.25C1566 323.24 1568.06 325.3 1570.75 327.01C1573.36 328.66 1576.4 330.28 1577.5 330.62C1578.97 331.06 1581.36 329.68 1586.58 325.36C1590.47 322.14 1606.57 308.48 1622.35 295L1651.03 270.5C1645.89 265.85 1632.12 254.6 1617.1 242.5C1602.09 230.4 1575.34 208.79 1557.65 194.47C1539.97 180.15 1524.98 168.09 1524.35 167.66C1523.72 167.23 1523.16 167.36 1523.1 167.94Z" />
		<path id="Path 3" class="shp1" d="M1688.22 220.62L1650.95 270.5C1601.91 312.35 1585.78 326.07 1583.46 328L1579.25 331.5C1607.34 351.51 1619.89 360.39 1625.25 364.16L1635 371L1633.85 378.5C1703.84 413.38 1724.4 423.95 1724.7 424.5C1725 425.05 1712.7 437.98 1697.37 453.24C1669.69 480.79 1669.51 480.99 1671.5 482.89C1672.6 483.94 1686.78 496.11 1703 509.93C1719.22 523.75 1732.72 535.04 1733 535.03C1733.28 535.02 1734.01 534.22 1734.63 533.25C1735.26 532.29 1750.7 507.65 1768.96 478.5C1787.22 449.35 1802.34 425.27 1802.56 425C1802.77 424.73 1803.53 425 1804.23 425.61C1804.93 426.23 1821.47 435.16 1841 445.47C1860.53 455.78 1883.14 467.77 1891.25 472.11C1901.39 477.54 1905.78 480.39 1905.3 481.25C1904.92 481.94 1896.06 495.55 1885.62 511.5C1875.18 527.45 1866.6 541.25 1866.57 542.16C1866.53 543.08 1876.4 558.06 1888.5 575.46C1900.6 592.86 1910.64 606.51 1910.8 605.8C1910.97 605.08 1908.6 590.55 1905.54 573.5C1902.48 556.45 1899.98 541.94 1899.99 541.25C1900 540.26 1924.97 540 2021.5 540C2088.32 540 2143 539.77 2143 539.5C2143 539.23 2140.53 525.05 2137.5 508C2134.47 490.95 2132 476.21 2132 475.25C2131.99 474.29 2136.94 466.86 2143 458.75L2154 444C2127.26 443.24 2088.68 442.56 2051 442C2013.33 441.44 1982.37 440.87 1982.21 440.74C1982.05 440.61 1984.47 433.75 1987.58 425.5C1990.7 417.25 1998.18 397.68 2004.21 382C2010.24 366.32 2024.55 329.2 2036 299.5C2047.45 269.8 2058.21 242.01 2059.91 237.75C2061.61 233.49 2063 229.55 2063 229C2063 228.45 2062.58 228.11 2062.06 228.25C2061.54 228.39 2034.41 255.05 2001.78 287.5C1969.15 319.95 1926.48 362.4 1906.97 381.84L1871.5 417.18C1825 400.6 1794.85 389.81 1774.5 382.49L1737.5 369.19C1717.35 369.77 1694.29 370.17 1673.25 370.47L1635 371C1673.88 293.11 1688.62 263.64 1692.84 255.25C1697.05 246.87 1700.84 240 1701.25 240C1701.66 240 1709.09 250.15 1717.75 262.55C1726.41 274.95 1733.95 285.08 1734.5 285.06C1735.13 285.04 1735.24 282.91 1734.78 279.26C1734.39 276.09 1732.45 251.68 1730.49 225C1728.52 198.32 1726.59 175.2 1726.2 173.62C1725.54 170.91 1723.12 173.91 1688.22 220.62ZM145.06 191.71C142.06 192.56 139.7 193.65 139.81 194.13C139.91 194.61 147.14 207.71 155.87 223.25C164.6 238.79 185.57 276.25 202.48 306.5C219.39 336.75 240.04 373.65 248.36 388.5L263.49 415.5C264.49 406.2 265.39 389.89 266.14 373.25C266.89 356.61 267.84 342.99 268.25 343C268.66 343 281.94 346.83 297.75 351.51C313.56 356.19 328.43 360.58 330.79 361.26C333.15 361.94 335.27 362.27 335.49 362C335.71 361.73 317.35 344.14 294.7 322.93C272.04 301.72 240 271.77 223.5 256.38C207 241 186.79 222.13 178.6 214.45C170.4 206.78 161.06 198.14 157.85 195.25C154.63 192.36 151.66 190.04 151.25 190.08C150.84 190.13 148.05 190.86 145.06 191.71Z" />
		<path id="Path 4" class="shp0" d="M1692.79 255.25C1688.6 263.64 1673.88 293.11 1660.09 320.75L1635 371C1694.29 370.17 1717.35 369.73 1724.5 369.48C1731.65 369.23 1737.54 368.91 1737.59 368.76C1737.64 368.62 1737.15 358.38 1736.49 346C1735.84 333.63 1735.23 323.84 1735.15 324.25C1735.07 324.66 1728.36 320.56 1720.25 315.13C1712.14 309.71 1702.24 302.96 1698.25 300.13C1694.26 297.31 1691.34 294.85 1691.75 294.67C1692.16 294.48 1701.5 295.81 1712.5 297.61C1723.5 299.42 1733.29 300.92 1734.25 300.95C1735.83 300.99 1735.93 300.23 1735.34 293.25C1734.89 287.86 1734.17 285.04 1733 284C1732.07 283.18 1724.6 272.92 1716.4 261.2C1708.21 249.49 1701.26 239.93 1700.96 239.95C1700.66 239.98 1696.98 246.86 1692.79 255.25Z" />
		<path id="Path 5" class="shp1" d="M864.5 253.68C854.6 254.46 845.21 255.42 843.64 255.8C840.87 256.48 841.31 256.98 859.14 273.25C869.24 282.47 877.59 289.89 877.69 289.75C877.8 289.61 880.83 281.18 884.44 271C888.04 260.82 890.99 252.39 890.99 252.25C891 252.11 889.09 252.06 886.75 252.13C884.41 252.2 874.4 252.9 864.5 253.68Z" />
		<path id="Path 6" class="shp0" d="M2024.67 291.25C2020.59 294.69 1992.15 318.88 1961.48 345C1930.81 371.13 1900.04 397.29 1893.11 403.14C1886.17 408.98 1878.73 415.28 1876.57 417.14L1872.64 420.5C1890.96 448.4 1899.03 460.68 1902.39 465.8C1905.75 470.91 1908.81 474.96 1909.18 474.8C1909.56 474.63 1918.81 460.77 1929.74 444C1940.67 427.23 1959 399.1 1970.47 381.5C1981.95 363.9 2000.31 335.77 2011.28 319C2022.25 302.23 2031.59 287.71 2032.04 286.75C2032.49 285.79 2032.69 285 2032.49 285C2032.28 285 2028.76 287.81 2024.67 291.25ZM412.99 288.75C412.99 289.16 410.44 302.77 407.34 319C404.23 335.23 401.2 348.8 400.59 349.17C399.82 349.65 399.95 350.9 401 353.4C401.82 355.35 412.85 369.75 425.5 385.41C438.15 401.06 448.79 413.56 449.13 413.19C449.48 412.81 454.77 393.15 460.89 369.5C467 345.85 471.99 325.82 471.97 325C471.95 324.18 471.39 322.73 470.72 321.79C470.05 320.85 468.82 320.04 468 320C467.18 319.96 462.68 317.61 458 314.78C453.32 311.95 441.51 304.77 431.75 298.82C421.99 292.87 413.77 288 413.5 288C413.23 288 413 288.34 412.99 288.75Z" />
		<path id="Path 7" class="shp1" d="M1691.46 294.9C1691.31 295.23 1700.93 302.12 1712.84 310.22C1724.75 318.31 1734.85 324.61 1735.28 324.22C1735.71 323.82 1736.04 318.44 1736.03 312.25L1736 301C1723.99 299.4 1714.03 297.89 1706.12 296.62C1698.2 295.35 1691.61 294.58 1691.46 294.9ZM896.42 318.79C896.02 330.18 895.99 340.06 896.35 340.75C896.75 341.52 903.46 334.02 914 321C923.35 309.45 930.89 299.84 930.75 299.64C930.61 299.44 923 299.01 913.82 298.68L897.15 298.08L896.42 318.79ZM471.6 328.25C471.27 329.49 466.23 348.95 460.39 371.5C454.55 394.05 449.49 412.81 449.14 413.19C448.79 413.56 438.15 401.04 425.5 385.35C412.85 369.66 402.16 356.63 401.75 356.41C401.34 356.18 396.16 356.88 390.25 357.97C384.34 359.05 371.63 361.29 362 362.96C352.38 364.63 343.6 365.98 342.5 365.97C341.11 365.96 334.83 372.73 321.85 388.23C311.6 400.48 300.57 413.65 297.35 417.5L291.5 424.5C227.31 457.3 226.69 457.68 207.71 472.26C197.15 480.39 179.5 493.83 168.5 502.13L148.5 517.24C140.5 542.24 131.37 571.1 123.05 597.5C114.72 623.9 108.16 645.73 108.46 646C108.77 646.27 110.51 644.7 112.35 642.5C114.19 640.3 131.37 619.6 150.53 596.5C169.69 573.4 195.12 542.8 207.03 528.5C218.94 514.2 229.32 502.03 230.1 501.45C230.87 500.87 234.88 499.45 239 498.3C243.13 497.14 271.25 489.19 301.5 480.64C331.75 472.08 366.63 462.23 379 458.74L401.5 452.4C422.43 465.02 445.6 479.05 466.5 491.71C487.4 504.38 525.88 527.69 552 543.51C578.13 559.34 606.81 576.72 615.75 582.14C624.69 587.56 632.24 591.89 632.53 591.75C632.82 591.61 630.58 574.85 627.56 554.5C624.53 534.15 622.27 517.27 622.53 517C622.79 516.73 623.16 516.73 623.35 517C623.55 517.27 649.25 565.42 680.47 624C711.68 682.58 737.29 730.65 737.36 730.83C737.44 731.01 753.7 725.9 773.5 719.46C793.3 713.03 809.61 707.7 809.74 707.63C809.86 707.56 807.28 692.88 803.98 675C800.69 657.13 797.99 642.05 797.98 641.5C797.97 640.83 798.29 640.83 798.94 641.5C799.48 642.05 805.8 656 812.98 672.5C820.17 689 826.15 702.59 826.27 702.69C826.4 702.8 829.65 702.48 833.5 701.98C837.35 701.49 855.58 699.24 874 697C892.42 694.75 918.52 691.58 932 689.95C945.48 688.32 960.55 686.47 965.5 685.85C970.45 685.22 974.61 684.55 974.75 684.36C974.89 684.16 971.46 679.61 967.14 674.25C962.82 668.89 955.55 658.2 950.98 650.5C946.42 642.8 935.62 624.58 926.99 610C918.35 595.42 910.73 582.38 910.06 581C909.29 579.44 908.51 578.88 907.98 579.5C907.51 580.05 906.43 598.73 905.58 621C904.73 643.27 903.78 666.67 903.47 673L902.9 684.5C891.74 673.62 871.19 654.04 850.02 633.98C828.86 613.92 805.69 591.91 798.52 585.07C785.7 572.83 785.29 572.3 772.17 551.07C764.84 539.21 756.41 525.56 753.42 520.75L748 512C785.05 486.04 796.16 478.5 796.6 478.5C797.05 478.5 804.77 486.6 813.76 496.5C822.76 506.4 836.95 522.04 845.31 531.26C853.66 540.48 860.79 547.68 861.15 547.26C861.51 546.84 862.75 535.25 863.9 521.5C865.06 507.75 866 495.49 866 494.25C866 492.75 860.4 485.71 849.29 473.25C840.1 462.94 824.22 445.05 814.01 433.5C803.8 421.95 784.9 400.57 772.01 386C759.12 371.43 745.63 356.23 742.04 352.23C738.44 348.23 735.37 345.08 735.2 345.23C735.04 345.38 734.36 356.6 733.7 370.16C733.04 383.73 732.27 395.08 732 395.38C731.73 395.68 721.15 392.84 708.5 389.07C695.85 385.29 678.3 380.09 669.5 377.51C660.7 374.93 646.3 370.63 637.5 367.96C628.7 365.29 621.27 363.31 621 363.56C620.73 363.81 625.18 374.25 630.89 386.76C636.6 399.27 642.68 412.53 644.39 416.24C646.1 419.95 647.27 423.18 647 423.42C646.73 423.66 640.88 422.38 634 420.57C627.13 418.76 609.13 414.02 594 410.04C578.88 406.07 566.39 402.63 566.25 402.41C566.11 402.18 574.77 392.77 585.5 381.5C596.23 370.23 604.89 360.79 604.75 360.53C604.61 360.27 583.58 354.63 558 348C532.42 341.37 502.84 333.71 492.25 330.97C481.66 328.24 472.82 326 472.6 326C472.37 326 471.92 327.01 471.6 328.25ZM1014.51 330.25C1014.27 330.94 1011.8 346.57 1009.02 365C1006.24 383.43 1003.75 399.96 1003.48 401.75C1003.21 403.57 1003.44 405 1004 405C1004.55 405 1012.99 401.46 1022.75 397.13C1032.51 392.8 1041.73 388.63 1043.22 387.88L1045.95 386.5C1023.69 341.94 1016.71 329 1016.09 329C1015.46 329 1014.75 329.56 1014.51 330.25Z" />
		<path id="Path 8" class="shp0" d="M266.13 371.75C265.46 387.56 264.64 403.88 264.31 408L263.71 415.5C273.62 419.11 279.65 421.31 283.5 422.72L290.5 425.28C295.93 419.22 306.27 406.95 317 394.12C327.73 381.29 337.18 369.71 338 368.38C339.14 366.55 339.23 365.56 338.39 364.24C337.78 363.28 336.65 362.46 335.89 362.42C335.12 362.38 332.48 361.77 330 361.07C327.52 360.38 312.79 356.02 297.25 351.4C281.71 346.78 268.63 343 268.18 343C267.73 343 266.8 355.94 266.13 371.75Z" />
		<path id="Path 9" class="shp1" d="M3.1 347.94C3.05 348.52 14.57 362.61 28.72 379.25C42.86 395.89 60.97 417.17 68.97 426.55C76.96 435.92 89.13 450.22 96 458.32C102.88 466.42 108.95 473.03 109.5 473.02C110.05 473.01 136.15 468.71 167.5 463.48C198.85 458.25 224.72 453.75 225 453.48C225.28 453.22 225.28 452.8 225 452.56C224.72 452.32 215.95 448.11 205.5 443.2C195.05 438.3 157.48 420.44 122 403.51C86.52 386.59 48.95 368.69 38.5 363.75C28.05 358.81 16.13 353.18 12 351.25C7.88 349.31 4.21 347.54 3.85 347.31C3.5 347.07 3.16 347.36 3.1 347.94Z" />
		<path id="Path 10" class="shp0" d="M585.75 381.06C574.89 392.58 566.11 402.18 566.25 402.41C566.39 402.63 578.88 406.07 594 410.04C609.13 414.02 627.13 418.76 634 420.57C640.88 422.38 646.73 423.66 647 423.42C647.27 423.18 646.1 419.95 644.39 416.24C642.68 412.53 636.63 399.15 630.94 386.5C625.26 373.85 620.58 363.4 620.55 363.29C620.52 363.17 617.8 362.58 614.5 361.98C611.2 361.38 607.83 360.71 607 360.5C606.07 360.26 597.99 368.08 585.75 381.06ZM1547.5 377.02C1544.75 377.45 1536.42 378.59 1529 379.56C1521.58 380.53 1514.73 381.59 1513.79 381.91C1512.44 382.37 1513.29 383.47 1517.79 387.06C1520.93 389.57 1547.8 410.48 1577.5 433.52C1607.2 456.57 1642.53 483.97 1656 494.41C1669.47 504.86 1687.19 518.6 1695.37 524.95C1703.54 531.3 1712.99 538.62 1716.37 541.2L1722.5 545.91C1739.83 626.19 1747.48 661.54 1750.68 676.26C1753.88 690.98 1756.84 703.02 1757.25 703.01C1757.66 703.01 1763.51 697.74 1770.25 691.32C1776.99 684.89 1787.11 675.22 1792.75 669.82C1798.39 664.42 1803.56 660.2 1804.25 660.45C1804.94 660.7 1815.17 663.59 1827 666.88C1838.83 670.17 1860.88 676.29 1876 680.49C1891.13 684.68 1907.33 689.19 1912 690.5C1916.67 691.81 1927.92 694.96 1937 697.49C1946.08 700.02 1953.61 701.84 1953.75 701.54C1953.89 701.24 1949.76 695.49 1944.57 688.75C1939.39 682.01 1931.51 671.89 1927.07 666.25C1922.63 660.61 1918.98 655.66 1918.97 655.25C1918.95 654.84 1923.11 650.84 1928.22 646.37C1933.32 641.89 1947.63 629.51 1960 618.84C1972.38 608.18 1992.4 590.93 2004.5 580.51C2016.6 570.09 2029.88 558.7 2034 555.19C2038.13 551.68 2041.76 549.19 2042.08 549.66C2042.4 550.12 2046.36 579.3 2050.88 614.5C2055.39 649.7 2059.31 679.63 2059.59 681C2060.04 683.22 2059.68 683.59 2056.3 684.32C2054.21 684.77 2038.1 688.52 2020.5 692.66C2002.9 696.79 1987.94 700.36 1987.25 700.59C1986.47 700.85 1991.58 709.55 2000.84 723.75C2009 736.26 2026.7 763.38 2040.15 784C2053.61 804.63 2066.96 825.21 2069.81 829.75C2072.67 834.29 2075.45 838 2076 838C2076.58 838 2077.22 833.24 2077.51 826.75C2077.8 820.56 2078.73 797.73 2079.59 776C2080.45 754.27 2081.46 736.19 2081.83 735.8C2082.2 735.42 2082.38 752.07 2082.24 772.8C2082.1 793.54 2081.71 831.65 2081.39 857.5L2080.8 904.5C2069.88 912.25 2057.89 920.9 2047.1 928.72C2036.32 936.54 2027.21 942.61 2026.86 942.22C2026.51 941.82 2018.19 923.56 2008.36 901.62C1998.54 879.69 1990.28 861.63 1990 861.48C1989.72 861.34 1980.28 862.29 1969 863.59C1957.72 864.89 1926 868.49 1898.5 871.6C1871 874.71 1848.18 877.53 1847.79 877.88C1847.4 878.22 1843.48 907.52 1839.08 943C1834.68 978.48 1830.72 1008.93 1830.29 1010.69C1829.75 1012.86 1819.65 1024.91 1798.5 1048.61C1781.45 1067.72 1754.22 1098.26 1738 1116.46C1721.78 1134.67 1699.29 1159.9 1688.03 1172.53C1676.77 1185.17 1658.09 1206.03 1646.53 1218.89C1634.96 1231.76 1624.83 1243.2 1624 1244.32C1622.57 1246.27 1622.63 1246.34 1625.5 1245.84C1627.15 1245.55 1652.13 1238.97 1681 1231.21C1709.88 1223.44 1744.53 1214.13 1758 1210.5C1771.47 1206.87 1795.1 1200.55 1810.5 1196.45C1825.9 1192.36 1842.33 1187.96 1847 1186.68L1855.5 1184.35C1895.8 1203.61 1910.2 1210.44 1913.5 1211.96C1916.8 1213.47 1927.6 1217.09 1937.5 1219.99C1947.4 1222.89 1960.67 1226.75 1967 1228.58L1978.5 1231.9C1987.8 1229.37 1990.61 1228.61 1990.75 1228.57C1990.89 1228.53 1991.46 1226.81 1992 1224.75C1992.98 1221.07 1992.9 1220.9 1987.63 1215.75C1984.68 1212.86 1974.63 1202.17 1965.29 1192C1955.96 1181.83 1939.61 1164.05 1928.97 1152.5C1918.33 1140.95 1902.35 1123.63 1893.48 1114C1884.6 1104.38 1866.4 1084.58 1853.05 1070C1833.83 1049.03 1828.89 1043.08 1829.35 1041.5C1829.68 1040.4 1835.89 1013.4 1843.16 981.5C1850.43 949.6 1856.41 923.38 1856.44 923.23C1856.47 923.08 1866.4 927.07 1878.5 932.1C1890.6 937.14 1904.66 942.99 1909.75 945.13C1914.84 947.26 1923.16 950.74 1928.25 952.87C1933.34 955 1951.9 962.81 1969.5 970.22C1987.1 977.64 2020.63 991.7 2044 1001.48C2076.56 1015.09 2087.08 1019.09 2089 1018.58C2090.38 1018.21 2103.77 1014.44 2118.76 1010.2C2138.04 1004.76 2145.87 1002.13 2145.51 1001.25C2145.23 1000.56 2132.4 984.25 2117 965C2101.6 945.75 2089.05 929.66 2089.1 929.25C2089.16 928.84 2100.07 918.17 2113.35 905.55C2126.63 892.93 2147.4 873.14 2159.5 861.58C2171.6 850.02 2190.88 831.54 2202.35 820.53C2213.81 809.51 2223.71 800.31 2224.35 800.09C2224.98 799.86 2225.95 799.1 2226.5 798.39C2227.05 797.69 2234.16 794.5 2242.3 791.31C2250.86 787.95 2257.26 784.87 2257.49 784C2257.71 783.17 2260.86 768.33 2264.5 751C2268.14 733.67 2271.31 718.71 2271.55 717.75C2271.92 716.32 2277.32 719.22 2301.25 733.72C2330.15 751.22 2330.69 751.5 2346.5 756.63C2355.3 759.48 2362.63 761.75 2362.79 761.66C2362.95 761.57 2350.88 718.08 2335.97 665C2321.05 611.92 2302.09 544.42 2293.82 515C2285.56 485.57 2278.5 461.16 2278.15 460.74C2277.79 460.33 2268.72 457.99 2258 455.56C2243.49 452.26 2233.89 450.73 2220.5 449.57C2210.6 448.71 2194.18 447.34 2184 446.52C2173.82 445.71 2162.91 444.81 2159.75 444.52L2154 444C2136.94 466.86 2131.99 474.29 2132 475.25C2132 476.21 2134.47 490.95 2137.5 508C2140.53 525.05 2143 539.23 2143 539.5C2143 539.77 2088.32 540 2021.5 540C1924.97 540 1900 540.26 1899.99 541.25C1899.98 541.94 1902.48 556.45 1905.54 573.5C1908.6 590.55 1910.97 605.08 1910.8 605.8C1910.64 606.51 1900.6 592.86 1888.5 575.46C1876.4 558.06 1866.53 543.08 1866.57 542.16C1866.6 541.25 1875.18 527.45 1885.62 511.5C1896.06 495.55 1904.92 481.94 1905.3 481.25C1905.78 480.39 1901.39 477.54 1891.25 472.11C1883.14 467.77 1860.53 455.78 1841 445.47C1821.47 435.16 1804.93 426.23 1804.23 425.61C1803.53 425 1802.77 424.73 1802.56 425C1802.34 425.27 1787.22 449.35 1768.96 478.5C1750.7 507.65 1735.26 532.29 1734.63 533.25C1734.01 534.22 1733.28 535.02 1733 535.03C1732.72 535.04 1719.22 523.75 1703 509.93C1686.78 496.11 1672.6 483.94 1671.5 482.89C1669.51 480.99 1669.69 480.79 1697.25 453.24C1712.51 437.98 1725 425.16 1725 424.75C1725 424.34 1704.41 413.69 1679.25 401.09L1633.5 378.18C1597.08 376.49 1578.85 376.05 1569.5 376.12C1560.15 376.18 1550.25 376.59 1547.5 377.02Z" />
		<path id="Path 11" class="shp1" d="M1493 388.51C1483.92 391.99 1465.03 399.11 1451 404.33C1436.97 409.55 1412 418.85 1395.5 424.99C1379 431.14 1350.65 441.72 1332.5 448.5C1314.35 455.28 1289.6 464.5 1277.5 468.98C1265.4 473.45 1250.33 479.09 1244 481.5C1237.67 483.91 1226.88 487.96 1220 490.51C1210.22 494.12 1206.51 496.04 1202.95 499.31C1200.44 501.62 1184.69 516.09 1167.95 531.49C1151.2 546.88 1117.92 577.46 1094 599.44C1070.08 621.42 1044.42 645.06 1037 651.98C1029.58 658.9 1018.87 668.82 1013.21 674.03C1007.55 679.24 1002.96 683.73 1003 684C1003.05 684.27 1005.36 686.3 1008.15 688.5C1010.94 690.7 1022.73 700.26 1034.36 709.75C1045.99 719.24 1055.72 726.98 1056 726.96C1056.28 726.94 1058.6 724.12 1061.16 720.71C1063.72 717.29 1072.51 705.95 1080.69 695.5C1088.87 685.05 1102.05 668.17 1109.98 658C1117.91 647.83 1129.85 632.52 1136.52 624C1143.19 615.48 1159.16 595 1172.03 578.5C1184.89 562 1200.33 542.2 1206.34 534.5L1217.27 520.5C1236.82 516.45 1258.25 512.06 1277.5 508.14C1296.75 504.22 1335.9 496.26 1364.5 490.45C1393.1 484.64 1419.88 479.22 1424 478.4L1431.5 476.9C1603.55 550.71 1654.57 572.67 1655.89 573.32C1657.93 574.33 1660.39 580.77 1673.12 618.5C1681.29 642.7 1689.78 668.01 1691.99 674.75C1694.19 681.49 1696.45 687 1697 687C1697.55 687 1697.68 686.44 1697.28 685.75C1696.88 685.06 1696.45 683.83 1696.31 683C1696.18 682.17 1689.96 662.83 1682.5 640C1675.04 617.17 1669.07 598.46 1669.22 598.41C1669.37 598.36 1679.51 596.23 1691.75 593.66C1703.99 591.1 1714.16 589.34 1714.37 589.75C1714.57 590.16 1729.24 634.15 1746.97 687.5L1779.2 784.5C1766.72 841.08 1753.81 900.02 1742.46 952C1731.12 1003.98 1718.51 1061.58 1714.45 1080L1707.08 1113.5C1690.24 1130.55 1666.72 1154.63 1643.93 1178C1621.15 1201.38 1602.06 1220.77 1601.51 1221.11C1600.95 1221.44 1588.13 1222.24 1573 1222.87C1557.88 1223.51 1529.08 1224.7 1509 1225.51C1488.92 1226.33 1461.7 1227.44 1448.5 1227.99C1435.3 1228.53 1413.25 1229.42 1399.5 1229.98C1385.75 1230.53 1364.83 1231.42 1353 1231.95C1341.17 1232.49 1324.97 1233.24 1317 1233.62L1302.5 1234.31C1283.05 1216.63 1266.2 1201.38 1252.51 1189C1238.82 1176.63 1214.73 1154.8 1198.99 1140.5C1183.24 1126.2 1163.89 1108.65 1155.98 1101.5C1148.07 1094.35 1133.91 1081.53 1124.5 1073C1115.09 1064.47 1098.3 1049.29 1087.2 1039.25C1076.09 1029.21 1066.76 1021.11 1066.46 1021.25C1066.16 1021.39 1078.23 1038.38 1093.28 1059C1108.32 1079.63 1135.33 1116.53 1153.28 1141L1185.92 1185.5C1225.12 1203.64 1246.17 1213.48 1258 1219.06C1269.83 1224.64 1285.13 1231.81 1292 1235C1298.88 1238.19 1317.55 1246.95 1333.5 1254.47C1360.14 1267.03 1362.87 1268.1 1367 1267.67C1369.47 1267.42 1391.3 1263.82 1415.5 1259.68C1439.7 1255.53 1468.72 1250.55 1480 1248.61C1491.28 1246.66 1511.08 1243.27 1524 1241.08C1536.92 1238.89 1558.3 1235.24 1571.5 1232.96C1584.7 1230.68 1606.75 1226.89 1620.5 1224.53L1645.5 1220.24C1657.13 1207.16 1671.3 1191.25 1684.5 1176.46C1697.7 1161.66 1721.78 1134.66 1738 1116.46C1754.22 1098.25 1781.45 1067.72 1798.5 1048.61C1819.65 1024.91 1829.75 1012.86 1830.29 1010.69C1830.72 1008.93 1834.68 978.48 1839.08 943C1843.48 907.52 1847.4 878.22 1847.79 877.88C1848.18 877.53 1871 874.71 1898.5 871.6C1926 868.49 1957.72 864.89 1969 863.59C1980.28 862.29 1989.72 861.34 1990 861.48C1990.28 861.63 1998.54 879.69 2008.36 901.62C2018.19 923.56 2026.51 941.82 2026.86 942.22C2027.21 942.61 2036.32 936.54 2047.1 928.72C2057.89 920.9 2069.88 912.25 2073.75 909.5L2080.8 904.5C2081.71 831.65 2082.1 793.54 2082.24 772.8C2082.38 752.07 2082.2 735.42 2081.83 735.8C2081.46 736.19 2080.45 754.27 2079.59 776C2078.73 797.73 2077.8 820.56 2077.51 826.75C2077.22 833.24 2076.58 838 2076 838C2075.45 838 2072.67 834.29 2069.81 829.75C2066.96 825.21 2053.61 804.63 2040.15 784C2026.7 763.38 2009 736.26 2000.84 723.75C1991.58 709.55 1986.47 700.85 1987.25 700.59C1987.94 700.36 2002.9 696.79 2020.5 692.66C2038.1 688.52 2054.21 684.77 2056.3 684.32C2059.68 683.59 2060.04 683.22 2059.59 681C2059.31 679.63 2055.39 649.7 2050.88 614.5C2046.36 579.3 2042.4 550.12 2042.08 549.66C2041.76 549.19 2038.13 551.68 2034 555.19C2029.88 558.7 2016.6 570.09 2004.5 580.51C1992.4 590.93 1972.38 608.18 1960 618.84C1947.63 629.51 1933.32 641.89 1928.22 646.37C1923.11 650.84 1918.95 654.84 1918.97 655.25C1918.98 655.66 1922.63 660.61 1927.07 666.25C1931.51 671.89 1939.39 682.01 1944.57 688.75C1949.76 695.49 1953.89 701.24 1953.75 701.54C1953.61 701.84 1946.08 700.02 1937 697.49C1927.92 694.96 1916.67 691.81 1912 690.5C1907.33 689.19 1891.13 684.68 1876 680.49C1860.88 676.29 1838.83 670.17 1827 666.88C1815.17 663.59 1804.94 660.7 1804.25 660.45C1803.56 660.2 1798.39 664.42 1792.75 669.82C1787.11 675.22 1776.99 684.89 1770.25 691.32C1763.51 697.74 1757.66 703.01 1757.25 703.01C1756.84 703.02 1753.88 690.98 1750.68 676.26C1747.48 661.54 1739.83 626.19 1733.68 597.7L1722.5 545.91C1712.99 538.62 1703.54 531.3 1695.37 524.95C1687.19 518.6 1669.47 504.86 1656 494.41C1642.53 483.97 1607.2 456.57 1577.5 433.53C1547.8 410.49 1520.8 389.47 1517.5 386.81C1514.2 384.16 1511.05 382.03 1510.5 382.09C1509.95 382.14 1502.08 385.03 1493 388.51Z" />
		<path id="Path 12" class="shp0" d="M1737.16 389.39C1737.07 389.73 1743.64 393.55 1751.75 397.88C1759.86 402.21 1774.26 409.86 1783.75 414.88C1793.24 419.9 1801.34 424.02 1801.75 424.04C1802.16 424.06 1803.74 422.26 1805.25 420.04C1806.76 417.82 1808 415.55 1808 415C1808 414.45 1806.54 413.59 1804.75 413.1C1802.96 412.6 1787.55 407.15 1770.5 400.97C1753.45 394.8 1739.01 389.53 1738.41 389.27C1737.81 389 1737.24 389.06 1737.16 389.39Z" />
		<path id="Path 13" class="shp1" d="M2294.92 422.75C2292.58 428.11 2287.88 438.57 2284.47 446L2278.28 459.5C2304.38 552.5 2323.56 620.58 2337.73 670.78C2352.16 721.89 2363.94 761.89 2364.5 761.67C2365.05 761.45 2374.45 754.35 2385.39 745.89C2396.32 737.42 2405.41 730.27 2405.59 730C2405.76 729.73 2399.44 710.38 2391.54 687C2383.63 663.63 2365.32 609.74 2350.83 567.27C2336.35 524.79 2324.72 489.78 2325 489.48C2325.28 489.18 2339.22 492.38 2356 496.61C2372.78 500.83 2388.84 504.78 2391.7 505.39C2394.56 506 2397.12 506.27 2397.38 506C2397.65 505.73 2395.36 496.5 2392.31 485.5C2389.25 474.5 2386.24 464.9 2385.62 464.16C2385.01 463.43 2380.45 460.46 2375.5 457.58C2370.55 454.69 2359.97 448.5 2352 443.81C2344.03 439.12 2328.95 430.26 2318.5 424.11C2308.05 417.96 2299.43 412.95 2299.34 412.97C2299.25 412.99 2297.26 417.39 2294.92 422.75Z" />
		<path id="Path 14" fill-rule="evenodd" class="shp0" d="M401.02 452.42L414.76 460.56C422.32 465.03 445.6 479.05 466.5 491.72C487.4 504.38 525.88 527.69 552 543.51C578.13 559.34 606.81 576.72 615.75 582.14C624.69 587.56 632.24 591.89 632.53 591.75C632.82 591.61 630.58 574.85 627.56 554.5C624.53 534.15 622.27 517.27 622.53 517C622.79 516.73 623.16 516.73 623.35 517C623.55 517.27 649.25 565.42 680.47 624C711.68 682.58 737.29 730.65 737.36 730.83C737.44 731.01 753.7 725.9 773.5 719.46C793.3 713.03 809.61 707.7 809.74 707.63C809.86 707.56 807.28 692.88 803.98 675C800.69 657.13 797.99 642.05 797.98 641.5C797.97 640.83 798.29 640.83 798.94 641.5C799.48 642.05 805.8 656 812.98 672.5C820.17 689 826.15 702.59 826.27 702.69C826.4 702.8 829.65 702.48 833.5 701.98C837.35 701.49 855.58 699.24 874 697C892.42 694.75 918.52 691.59 932 689.96C945.48 688.34 959.88 686.57 964 686.02C968.13 685.48 978.48 684.75 1002.5 683.76L1016.5 695.17C1024.2 701.45 1036.13 711.18 1043 716.79C1049.88 722.41 1055.72 726.98 1056 726.96C1056.28 726.94 1058.6 724.12 1061.16 720.71C1063.72 717.29 1072.51 705.95 1080.69 695.5C1088.87 685.05 1102.05 668.17 1109.98 658C1117.91 647.83 1129.85 632.52 1136.52 624C1143.19 615.48 1159.16 595 1172.03 578.5C1184.89 562 1200.33 542.2 1217.27 520.5L1229.88 517.89C1236.82 516.45 1258.25 512.06 1277.5 508.14C1296.75 504.22 1335.9 496.26 1364.5 490.45C1393.1 484.64 1419.88 479.22 1431.5 476.9L1542.5 524.52C1603.55 550.71 1654.57 572.67 1655.89 573.32C1657.93 574.33 1660.39 580.77 1673.12 618.5C1681.29 642.7 1689.78 668.01 1691.99 674.75C1694.19 681.49 1696.45 687 1697 687C1697.55 687 1697.68 686.44 1697.28 685.75C1696.88 685.06 1696.45 683.83 1696.31 683C1696.18 682.17 1689.96 662.83 1682.5 640C1675.04 617.17 1669.07 598.46 1669.22 598.41C1669.37 598.36 1679.51 596.23 1691.75 593.66C1703.99 591.1 1714.16 589.34 1714.37 589.75C1714.57 590.16 1729.24 634.15 1779.2 784.5L1771.15 821C1766.72 841.08 1753.81 900.02 1742.46 952C1731.12 1003.98 1718.51 1061.58 1707.08 1113.5L1696.22 1124.5C1690.24 1130.55 1666.72 1154.63 1643.93 1178C1621.15 1201.38 1602.06 1220.77 1601.51 1221.11C1600.95 1221.44 1588.13 1222.24 1573 1222.87C1557.88 1223.51 1529.08 1224.7 1509 1225.51C1488.92 1226.33 1461.7 1227.44 1448.5 1227.99C1435.3 1228.53 1413.25 1229.42 1399.5 1229.98C1385.75 1230.53 1364.83 1231.42 1353 1231.95C1341.17 1232.49 1324.97 1233.24 1302.5 1234.31L1289.95 1222.91C1283.05 1216.63 1266.2 1201.38 1252.51 1189C1238.82 1176.63 1214.73 1154.8 1198.99 1140.5C1183.24 1126.2 1163.89 1108.65 1155.98 1101.5C1148.07 1094.35 1133.91 1081.53 1124.5 1073C1115.09 1064.47 1098.42 1049.38 1087.45 1039.45C1076.48 1029.52 1066.83 1021.14 1066 1020.83C1065.17 1020.52 1063.95 1019.19 1063.27 1017.88C1062.59 1016.57 1055.05 963.64 1046.52 900.25C1037.98 836.86 1031 784.44 1031 783.75C1031.01 782.76 1025.1 782.66 1002.75 783.27C987.21 783.7 971.8 784.29 962.5 785.14L929.85 876.5L923.17 876.68C919.5 876.77 899.73 877.67 841.98 880.5L835.09 893C831.31 899.88 814.84 929.8 798.5 959.5C782.16 989.2 765.92 1018.79 762.4 1025.25C758.88 1031.71 755.78 1036.89 755.52 1036.75C755.25 1036.61 755.9 1033.8 756.96 1030.5C758.02 1027.2 768.84 993.23 781 955C793.17 916.77 802.98 884.92 802.81 884.22C802.64 883.51 791.25 895.41 777.5 910.67C763.75 925.92 737.42 955.1 719 975.5C700.58 995.9 664.79 1035.52 639.48 1063.54C614.16 1091.57 579.06 1130.4 529.5 1185.18L516.5 1184.56C509.35 1184.22 487.75 1183.28 468.5 1182.48C449.25 1181.67 416.85 1180.36 396.5 1179.56C376.15 1178.77 355.45 1178.1 350.5 1178.09C345.12 1178.07 341.3 1177.63 341 1176.99C340.73 1176.41 331.05 1173.75 319.5 1171.08C307.95 1168.41 296.81 1165.96 294.75 1165.62C292.69 1165.28 291.17 1164.66 291.38 1164.25C291.59 1163.84 277.1 1152.03 259.19 1138C241.29 1123.97 216.03 1104.16 203.07 1093.97C190.1 1083.78 173.51 1070.73 152.86 1054.5L79.2 866.5L86.09 812.5C89.89 782.8 96.21 733.52 107.32 647.5L111.55 643C113.88 640.52 131.44 619.6 150.58 596.5C169.71 573.4 195.12 542.8 207.03 528.5C218.94 514.2 229.32 502.03 230.1 501.45C230.87 500.87 234.88 499.45 239 498.3C243.13 497.14 271.25 489.19 301.5 480.64C331.75 472.08 366.52 462.23 378.76 458.75L401.02 452.42ZM226.41 453.09C226.9 453.04 227.47 453.9 227.66 455C227.91 456.49 226.17 458.39 220.75 462.5C216.76 465.52 207.2 472.79 199.5 478.66C191.8 484.52 177.18 495.58 148.5 517.15L140.92 508.82C136.75 504.25 127.89 494.43 121.23 487C114.57 479.57 109.2 473.42 109.31 473.33C109.41 473.23 134.25 469.05 164.5 464.03C194.75 459.01 220.85 454.52 222.5 454.05C224.15 453.57 225.91 453.14 226.41 453.09ZM1909.08 477C1909.59 477 1910.67 478.35 1911.5 480C1912.33 481.65 1912.66 483 1912.25 483.01C1911.84 483.01 1910.49 482.34 1909.25 481.51C1907.9 480.6 1907.23 479.4 1907.58 478.5C1907.91 477.68 1908.58 477 1909.08 477ZM2325.75 489.01C2326.16 489.02 2338.88 492.14 2354 495.96C2369.13 499.77 2384.2 503.6 2387.5 504.47C2390.8 505.34 2393.81 506.37 2394.19 506.77C2394.57 507.17 2400.36 529.33 2419.23 604.5L2416.44 716.5L2411.47 722.78C2408.74 726.23 2406.23 728.71 2405.89 728.28C2405.56 727.85 2402.93 720.52 2400.04 712C2397.16 703.48 2379.1 650.26 2359.9 593.75C2340.71 537.24 2325 490.55 2325 490C2325 489.45 2325.34 489.01 2325.75 489.01Z" />
		<path id="Path 15" class="shp2" d="M389.65 499.25C389.37 500.49 383.23 531.42 376.02 568C368.81 604.58 358.41 657.45 352.91 685.5C347.41 713.55 342.7 737.29 342.45 738.25C342.14 739.47 334.54 730.59 317.22 708.75C303.59 691.56 277.26 658.26 258.72 634.75C240.17 611.24 224.84 592.11 224.64 592.25C224.44 592.39 206.61 621.98 185 658C159.07 701.25 146.02 723.9 146.61 724.67C147.1 725.31 163.9 739.71 183.94 756.67C203.98 773.63 232.78 798.03 247.94 810.9C263.1 823.77 283.76 841.32 293.85 849.9L312.19 865.5C307.78 867.71 301.32 870.69 295 873.54C288.68 876.4 275.85 882.23 266.5 886.5C257.15 890.77 244.78 896.4 239 899.01C233.22 901.62 212.07 911.28 192 920.46C171.93 929.65 155.28 937.35 155 937.57C154.72 937.79 159.94 947.31 166.58 958.73C173.22 970.16 188.3 996.09 200.08 1016.36L221.5 1053.22C244.54 1066.57 246.32 1067.3 247.44 1066C248.14 1065.17 257.91 1053.47 269.13 1040C280.36 1026.53 290.21 1014.59 291.02 1013.48C291.84 1012.38 295.19 1009.23 298.47 1006.48C301.76 1003.74 319.76 988.47 338.47 972.54C357.19 956.61 377.45 939.39 383.5 934.27C389.55 929.15 394.57 925.09 394.65 925.23C394.73 925.38 406.59 967.35 421.01 1018.5C435.42 1069.65 447.38 1111.72 447.57 1112C447.77 1112.28 457.06 1106.59 468.21 1099.37C479.37 1092.15 496.38 1081.18 506 1074.99C515.63 1068.8 527.89 1060.98 533.25 1057.62C538.61 1054.25 543.01 1051.28 543.03 1051C543.04 1050.72 536.85 1039.26 529.28 1025.52L515.5 1000.53C468.23 969.81 441.95 952.7 426.62 942.7C411.29 932.69 398.5 924.05 398.21 923.5C397.91 922.95 396.86 906.3 395.87 886.5C394.88 866.7 394.08 847.35 394.09 843.5C394.1 837.21 394.25 836.7 395.51 838.5C396.28 839.6 417.29 867.96 442.2 901.52C467.12 935.08 493.13 970.08 500 979.3C506.88 988.53 512.84 996.06 513.25 996.04C513.66 996.02 507.94 977.66 500.52 955.25C493.11 932.84 483 902.35 478.05 887.5C473.1 872.65 469.28 860.27 469.56 860C469.84 859.73 475.56 860.99 482.28 862.81C489 864.64 502.82 868.32 513 871.01C523.17 873.69 550.4 880.89 573.5 887C596.6 893.11 623.15 900.13 632.5 902.61C641.85 905.08 649.73 906.81 650 906.46C650.27 906.12 652.83 876.28 655.67 840.17L660.85 774.5C648.43 730.33 644.75 717.38 644.66 717.24C644.57 717.09 635.5 718.59 624.5 720.57C613.5 722.55 600 725.01 594.5 726.03C589 727.05 558.63 732.63 527 738.42C495.38 744.21 462.07 750.31 453 751.96C443.93 753.62 436.4 754.87 436.27 754.74C436.14 754.61 456.74 711.08 482.04 658C507.33 604.92 528.06 561.27 528.1 561C528.13 560.72 511.81 552.97 491.83 543.77C471.85 534.57 441.08 520.28 423.46 512.02C405.85 503.76 391.15 497 390.8 497C390.46 497 389.94 498.01 389.65 499.25ZM1362.61 525.18C1362.33 525.91 1355.08 582.3 1346.49 650.5C1337.9 718.7 1330.11 780.24 1329.18 787.26C1328.26 794.28 1327.28 800.02 1327 800.02C1326.72 800.03 1305.58 776.77 1280 748.34C1254.42 719.91 1222.92 684.9 1210 670.54C1197.08 656.18 1184.58 642.2 1182.24 639.47C1179.89 636.73 1177.78 634.73 1177.53 635C1177.28 635.27 1165.22 658 1150.72 685.5C1136.22 713 1116.81 749.9 1107.58 767.5C1093.91 793.55 1091.04 799.71 1092.14 800.63C1092.89 801.25 1108.58 809.98 1127 820.03C1145.42 830.09 1186.15 852.34 1217.5 869.49C1248.85 886.63 1280.58 903.98 1288 908.05L1301.5 915.43C1283.67 919.55 1269.5 922.82 1258.5 925.37C1247.5 927.91 1217.13 934.97 1191 941.06C1164.88 947.14 1132.92 954.6 1120 957.63C1107.08 960.66 1096.37 963.22 1096.21 963.32C1096.04 963.42 1120.12 999.95 1149.71 1044.5L1203.5 1125.5C1224.42 1132.75 1231.17 1134.89 1232 1134.94C1232.83 1134.99 1245.88 1123.01 1261 1108.32C1276.13 1093.64 1304.7 1065.87 1324.5 1046.63C1344.3 1027.38 1368.05 1004.18 1377.27 995.07C1386.49 985.96 1394.27 978.73 1394.55 979C1394.84 979.27 1399.8 1023.15 1405.57 1076.5C1411.35 1129.85 1416.29 1173.72 1416.55 1174C1416.8 1174.28 1418.92 1173.74 1421.26 1172.81C1423.59 1171.88 1436.08 1167.23 1449 1162.48C1461.92 1157.73 1480.83 1150.75 1491 1146.98C1501.17 1143.21 1519.17 1136.56 1531 1132.2C1542.83 1127.85 1557.33 1122.53 1563.23 1120.39C1569.14 1118.25 1573.95 1116.28 1573.93 1116C1573.9 1115.72 1571.55 1113.71 1568.69 1111.53C1565.84 1109.35 1546.85 1094.53 1526.5 1078.6C1506.15 1062.68 1482.75 1044.38 1474.5 1037.93C1466.25 1031.48 1452.71 1020.87 1444.4 1014.35C1436.1 1007.83 1421.36 996.31 1411.65 988.75C1395.16 975.91 1393.97 974.75 1393.51 971.25C1393.25 969.19 1391.17 951.08 1388.9 931C1386.63 910.92 1384.49 894.19 1384.14 893.81C1383.79 893.43 1359.09 931.57 1329.25 978.56C1299.41 1025.55 1274.66 1063.99 1274.25 1063.98C1273.84 1063.97 1274.03 1060.94 1274.69 1057.23C1275.34 1053.53 1281.53 1020.8 1288.45 984.5C1295.36 948.2 1301.42 917.6 1301.91 916.5C1302.48 915.22 1315.32 907.99 1337.4 896.5C1356.43 886.6 1372.01 878.27 1372.01 878C1372.02 877.73 1352.11 871.03 1327.76 863.11C1303.42 855.2 1263.92 842.45 1240 834.78C1216.08 827.11 1196.05 820.45 1195.5 819.97C1194.91 819.47 1197.19 818.88 1201 818.57C1204.58 818.27 1225.28 816.65 1247 814.98C1268.72 813.31 1294.71 811.28 1304.75 810.47C1314.79 809.66 1323.9 809 1325 809C1326.38 809 1335.25 818.5 1353.5 839.5C1368.08 856.27 1380.45 870 1381 870C1381.59 870 1381.79 868.27 1381.47 865.75C1381.18 863.41 1376.89 814.25 1371.93 756.5C1366.97 698.75 1363.05 650.4 1363.21 649.05C1363.41 647.39 1372.24 664.55 1391 703.05C1406.12 734.1 1422.34 767.38 1427.05 777L1435.61 794.5C1443.11 780.55 1456.98 754.67 1471.28 728C1485.57 701.33 1509.13 657.34 1523.63 630.25C1538.14 603.16 1549.89 580.82 1549.75 580.61C1549.61 580.39 1542.75 578.19 1534.5 575.71C1526.25 573.23 1507.35 567.52 1492.5 563.02C1477.65 558.52 1451.55 550.64 1434.5 545.5C1417.45 540.37 1395.17 533.64 1385 530.56C1374.83 527.47 1365.74 524.7 1364.81 524.4C1363.88 524.1 1362.89 524.46 1362.61 525.18Z" />
		<path id="Path 16" class="shp0" d="M381.06 630C381.06 633.58 383.05 678.13 385.49 729C387.93 779.88 390.06 821.62 390.21 821.76C390.37 821.9 399.27 808.43 410 791.83C420.73 775.23 429.63 761.17 429.79 760.58C429.95 759.98 419.44 729.58 406.44 693C393.43 656.42 382.4 625.83 381.92 625C381.37 624.04 381.06 625.86 381.06 630Z" />
		<path id="Path 17" class="shp1" d="M2271.88 716.29C2271.9 716.41 2268.64 731.8 2264.64 750.5C2260.63 769.2 2257.62 784.64 2257.93 784.8C2258.24 784.97 2266.82 781.21 2277 776.44C2287.18 771.67 2301.13 765.08 2308 761.81C2314.88 758.53 2322.65 754.87 2325.28 753.68C2327.91 752.48 2329.71 751.21 2329.28 750.86C2328.85 750.5 2315.75 742.53 2300.18 733.15C2284.6 723.76 2271.87 716.18 2271.88 716.29Z" />
		<path id="Path 18" class="shp0" d="M536.93 766.67C522.94 773.55 492.38 788.41 469 799.71C445.63 811 420.31 823.34 412.75 827.12C405.19 830.9 399 834.34 398.99 834.75C398.99 835.16 404.5 836.55 411.24 837.83C417.98 839.12 428 841 433.5 842.01C439 843.02 450.93 845.26 460 846.99L476.5 850.12C481.93 844.2 500.38 824.08 521 801.6C541.63 779.12 559.51 759.44 560.75 757.86C561.99 756.29 562.85 754.81 562.68 754.59C562.5 754.36 550.91 759.8 536.93 766.67ZM320.5 760.55C313.35 761.27 290 763.55 268.61 765.61C247.22 767.67 229.77 769.62 229.83 769.93C229.89 770.24 234.79 772.39 240.72 774.69C246.65 777 268.38 785.15 289 792.82C309.63 800.48 338.98 811.42 354.23 817.12C369.49 822.83 382.2 827.16 382.48 826.75C382.77 826.34 372.76 810.94 360.25 792.52C342.68 766.66 337.05 759.07 335.5 759.14C334.4 759.2 327.65 759.83 320.5 760.55Z" />
		<path id="Path 19" class="shp2" d="M1589 793.74C1585.74 795.21 1585.66 795.36 1587.76 795.91C1589.77 796.43 1588.47 797.96 1576.26 809.43C1568.69 816.55 1546.08 837.89 1526 856.85C1505.92 875.82 1486.69 894.07 1483.25 897.42L1477 903.5C1460.34 900.05 1443.58 896.54 1429 893.46C1414.42 890.38 1400.6 887.56 1398.27 887.18C1395.95 886.81 1394.15 886.81 1394.27 887.19C1394.4 887.56 1403.93 899.94 1415.45 914.69C1426.97 929.43 1449.43 958.15 1465.37 978.5C1481.32 998.85 1501.06 1024.05 1509.26 1034.5C1517.45 1044.95 1524.57 1053.61 1525.08 1053.75C1525.59 1053.89 1524.23 1048.94 1522.06 1042.75C1519.9 1036.56 1508.44 1003.83 1496.6 970C1484.75 936.17 1475.16 908.37 1475.28 908.22C1475.4 908.07 1484.05 910.18 1494.5 912.92C1504.95 915.65 1522.05 920.18 1532.5 922.99C1542.95 925.8 1562.97 931.19 1577 934.98C1591.03 938.76 1615.33 945.29 1631 949.48C1646.67 953.67 1665.35 958.67 1672.5 960.59C1679.65 962.51 1685.72 963.8 1686 963.45C1686.28 963.1 1688.75 924.87 1691.5 878.48C1694.25 832.1 1696.28 793.91 1696 793.63C1695.72 793.34 1672.55 793.73 1644.5 794.49C1616.45 795.25 1593.16 795.67 1592.75 795.43C1592.34 795.2 1592.22 794.33 1592.48 793.5C1592.75 792.67 1592.86 792.04 1592.73 792.08C1592.6 792.13 1590.92 792.87 1589 793.74ZM1558 796.63C1554.97 796.77 1530.22 797.37 1503 797.95C1475.78 798.54 1448.33 799.27 1442 799.57L1430.5 800.11C1400.66 860.48 1392.11 878.19 1392.25 878.43C1392.39 878.66 1395.42 877.58 1399 876.02C1402.58 874.46 1422.38 865.89 1443 856.97C1463.63 848.05 1495.58 834.23 1514 826.26C1532.42 818.28 1550.42 810.5 1554 808.97C1557.58 807.44 1564.55 804.43 1569.5 802.28C1574.45 800.13 1579.4 797.85 1580.5 797.22C1582.1 796.29 1580.62 796.09 1573 796.22C1567.78 796.31 1561.03 796.49 1558 796.63Z" />
		<path id="Path 20" class="shp1" d="M2211.98 811.28C2205.64 817.45 2186.07 836.23 2168.49 853C2150.92 869.77 2125.88 893.63 2112.87 906C2099.85 918.38 2089.16 928.84 2089.1 929.25C2089.05 929.66 2101.94 946.18 2117.75 965.95C2133.56 985.73 2146.8 1001.59 2147.17 1001.2C2147.54 1000.82 2165.2 955.84 2186.42 901.25C2207.64 846.66 2225 801.55 2225 801C2225 800.45 2224.66 800.01 2224.25 800.03C2223.84 800.04 2218.32 805.1 2211.98 811.28Z" />
		<path id="Path 21" class="shp0" d="M350.92 851.39C320.53 862.98 316.45 864.79 315.73 867C315.29 868.38 310.2 899.2 304.43 935.5C298.66 971.8 293.67 1003.52 293.33 1006C292.99 1008.48 292.95 1010.27 293.23 1010C293.52 1009.73 312.08 975.75 334.49 934.5C356.9 893.25 377.67 855 380.64 849.5C383.62 844 385.88 839.23 385.67 838.89C385.47 838.56 369.83 844.19 350.92 851.39Z" />
		<path id="Path 22" fill-rule="evenodd" class="shp1" d="M926.25 876.16C927.76 876.07 929 876.45 929 877C929 877.55 906.05 908.71 878.01 946.25C849.96 983.79 800.57 1049.89 768.26 1093.15C735.94 1136.4 708.6 1172.98 707.5 1174.43C706.18 1176.18 702.78 1178.05 697.5 1179.96C693.1 1181.54 678.92 1186.75 666 1191.53C653.08 1196.31 634.63 1203.14 625 1206.69C615.38 1210.24 603.9 1214.52 599.5 1216.2C595.1 1217.88 589.92 1219.46 588 1219.72C586.08 1219.98 575.5 1219.24 564.5 1218.08C553.5 1216.91 542.81 1215.75 540.75 1215.48C538.69 1215.22 537 1214.55 537 1214C537 1213.45 537.79 1212.82 538.75 1212.6C539.71 1212.37 547.02 1209.49 555 1206.19C562.98 1202.89 580.98 1195.46 595 1189.69C609.02 1183.91 633.77 1173.71 650 1167.02C666.23 1160.33 682.99 1153.53 687.25 1151.93C691.51 1150.32 694.99 1148.66 694.97 1148.25C694.96 1147.84 700.36 1137.71 706.97 1125.75C713.59 1113.79 718.77 1103.78 718.5 1103.5C718.23 1103.22 714.96 1104.75 711.25 1106.89C707.54 1109.03 688.98 1119.45 670 1130.05C651.02 1140.65 626.95 1154.12 616.5 1159.99C606.05 1165.86 586.02 1177.1 572 1184.97C557.98 1192.85 540.57 1202.71 533.33 1206.89C526.08 1211.07 519.56 1215.04 518.83 1215.71C518.1 1216.37 516.6 1216.93 515.5 1216.95C514.4 1216.96 506.07 1215.19 497 1213C487.93 1210.81 452.38 1202.47 418 1194.45C383.63 1186.44 354.82 1179.68 354 1179.43C353.18 1179.18 352.73 1178.73 353 1178.43C353.27 1178.13 366.32 1178.37 382 1178.98C397.68 1179.58 431.43 1180.94 457 1182C482.57 1183.06 509.35 1184.21 529.5 1185.18L561.48 1149.84C579.06 1130.4 614.16 1091.57 639.48 1063.54C664.79 1035.52 700.58 995.9 719 975.5C737.42 955.1 763.75 925.92 777.5 910.67C791.25 895.41 802.64 883.51 802.81 884.22C802.98 884.92 793.17 916.77 781 955C768.84 993.23 758.02 1027.2 756.96 1030.5C755.9 1033.8 755.25 1036.61 755.52 1036.75C755.78 1036.89 758.88 1031.71 762.4 1025.25C765.92 1018.79 782.16 989.2 798.5 959.5C814.84 929.8 831.31 899.88 841.98 880.5L879.74 878.69C900.51 877.7 918.85 876.76 920.5 876.6C922.15 876.45 924.74 876.25 926.25 876.16ZM1856.74 923C1856.88 923 1866.79 927.11 1878.75 932.13C1890.71 937.14 1904.55 942.94 1909.5 945C1914.45 947.06 1926.15 951.98 1935.5 955.94C1944.85 959.89 1967.35 969.36 1985.5 976.97C2003.65 984.58 2033.13 996.96 2051 1004.48C2068.88 1012 2084.18 1018.5 2085 1018.92C2086.1 1019.49 2079 1025.57 2058.57 1041.6C2043.22 1053.64 2022.74 1069.72 2013.07 1077.33C2003.41 1084.94 1987.69 1097.31 1978.15 1104.83C1968.6 1112.35 1960.18 1118.95 1959.44 1119.5C1958.69 1120.05 1958.06 1120.84 1958.04 1121.25C1958.02 1121.66 1965.43 1143.26 1974.52 1169.25C1983.61 1195.24 1991.03 1216.84 1991.02 1217.25C1991.01 1217.66 1990.66 1218.01 1990.25 1218.02C1989.84 1218.04 1980.05 1207.82 1968.5 1195.31C1956.95 1182.8 1938.98 1163.33 1928.56 1152.04C1918.14 1140.74 1902.35 1123.63 1893.48 1114C1884.6 1104.38 1866.46 1084.69 1853.17 1070.25C1839.87 1055.81 1829.11 1043.36 1829.25 1042.58C1829.39 1041.79 1835.57 1014.57 1842.99 982.08C1850.42 949.58 1856.6 923 1856.74 923ZM594.2 1028C594.65 1028 593.99 1029.06 592.75 1030.35C591.51 1031.64 582.4 1039.16 572.5 1047.05C562.6 1054.94 539.65 1073.33 521.5 1087.92C503.35 1102.51 476.8 1123.81 462.5 1135.26C448.2 1146.71 435.82 1156.05 435 1156.02C434.18 1155.99 432.82 1155.55 432 1155.03C431.02 1154.41 430.84 1153.77 431.5 1153.16C432.05 1152.65 442.4 1144.62 454.5 1135.33C466.6 1126.04 491.13 1107.21 509 1093.49C526.88 1079.77 552.52 1060.11 566 1049.79C579.48 1039.47 591.15 1030.35 591.95 1029.51C592.75 1028.68 593.76 1028 594.2 1028ZM1667.65 1049.88C1667.88 1050.22 1660.74 1069.92 1635.5 1136.81L1567.5 1166.59C1530.1 1182.97 1491.4 1199.93 1481.5 1204.28C1471.6 1208.63 1462.15 1212.63 1460.5 1213.18C1457.89 1214.04 1453.41 1212.74 1426 1203.18C1408.67 1197.14 1371.1 1184.01 1342.5 1174.01C1313.9 1164.01 1283.64 1153.39 1275.25 1150.42C1266.86 1147.44 1259.55 1145 1259 1145C1258.45 1145 1258.01 1144.66 1258.02 1144.25C1258.03 1143.84 1267.82 1145.39 1279.77 1147.71C1291.72 1150.02 1322.42 1155.99 1348 1160.98C1373.58 1165.96 1397.65 1170.68 1401.5 1171.47C1405.35 1172.26 1424.81 1176.07 1481 1187L1486.25 1183.27C1489.14 1181.22 1500.28 1173.06 1511 1165.12C1521.72 1157.19 1536.8 1146.04 1544.5 1140.33C1552.2 1134.63 1582.97 1111.8 1612.87 1089.61C1642.77 1067.41 1667.42 1049.53 1667.65 1049.88ZM154.43 1055.78C155.02 1056.3 168.32 1066.78 184 1079.06C199.68 1091.33 220.86 1107.93 231.07 1115.94C241.28 1123.95 259.11 1137.92 270.68 1147C283.09 1156.73 291.06 1163.61 290.11 1163.78C289.23 1163.93 269.38 1159.52 246 1153.97C222.63 1148.43 198.78 1142.82 193 1141.51C187.22 1140.19 173.72 1137.05 163 1134.51C152.28 1131.98 143.43 1129.81 143.35 1129.7C143.28 1129.59 142.23 1125.9 138.84 1113.5L145.41 1086.5C149.03 1071.65 152.3 1058.45 152.67 1057.16C153.13 1055.59 153.7 1055.14 154.43 1055.78ZM229.5 1058C229.78 1058 234.39 1060.54 239.75 1063.65C245.11 1066.75 253.66 1071.7 258.75 1074.65C263.84 1077.59 267.77 1080.22 267.5 1080.5C267.23 1080.78 261.49 1078.5 254.75 1075.45C246.76 1071.84 240.15 1068.01 235.75 1064.45C232.04 1061.45 229 1058.78 229 1058.5C229 1058.22 229.22 1058 229.5 1058ZM288 1090.55C289.38 1090.97 293.88 1092.88 298 1094.78C302.13 1096.69 311.8 1101.07 319.5 1104.52C327.2 1107.96 342.05 1114.6 352.5 1119.28C362.95 1123.95 382.52 1132.71 396 1138.74C409.48 1144.77 422.75 1150.67 430.5 1153.98L422.5 1160.03C418.1 1163.35 414.27 1166.06 414 1166.04C413.73 1166.03 412.6 1165.39 411.5 1164.63C410.4 1163.87 401.85 1158.76 392.5 1153.28C383.15 1147.8 355.7 1131.71 331.5 1117.53C307.3 1103.35 287.05 1091.3 286.5 1090.76C285.84 1090.11 286.36 1090.04 288 1090.55Z" />
		<path id="Path 23" class="shp0" d="M712 1106.36C708.98 1108.17 690.52 1118.58 671 1129.49C651.48 1140.4 626.95 1154.12 616.5 1159.99C606.05 1165.86 585.58 1177.35 571 1185.53C556.42 1193.72 538.65 1203.65 531.5 1207.62C524.35 1211.59 518.39 1215.32 518.25 1215.92C518.11 1216.51 518.79 1216.8 519.75 1216.56C520.71 1216.32 524.99 1215.87 529.25 1215.56C533.51 1215.25 537 1214.55 537 1214C537 1213.45 537.79 1212.82 538.75 1212.6C539.71 1212.37 547.02 1209.49 555 1206.19C562.98 1202.89 580.98 1195.46 595 1189.69C609.02 1183.91 633.77 1173.71 650 1167.02C666.23 1160.33 682.99 1153.53 687.25 1151.93C691.51 1150.32 694.99 1148.66 694.97 1148.25C694.96 1147.84 700.19 1138.05 706.6 1126.5C713.01 1114.95 718.37 1104.94 718.51 1104.25C718.64 1103.56 718.47 1103.02 718.13 1103.04C717.78 1103.06 715.02 1104.55 712 1106.36Z" />
		<path id="Path 24" class="shp1" d="M1214.17 1129.64C1214.08 1130.11 1217.73 1132.15 1222.26 1134.16C1226.79 1136.18 1232.64 1138.31 1235.25 1138.91C1237.86 1139.51 1240.56 1140.01 1241.25 1140.02C1242.07 1140.03 1242.15 1139.72 1241.5 1139.13C1240.95 1138.63 1235.33 1136.42 1229 1134.2C1222.67 1131.99 1216.78 1129.86 1215.91 1129.48C1215.03 1129.1 1214.25 1129.17 1214.17 1129.64ZM294.97 1166.25C294.95 1166.39 297.76 1168.71 301.22 1171.41L307.5 1176.33C333.07 1177.3 340.73 1177.45 341 1177.29C341.27 1177.13 341.11 1176.66 340.63 1176.25C340.15 1175.84 330.47 1173.38 319.13 1170.79C307.78 1168.19 297.71 1166.06 296.75 1166.04C295.79 1166.02 294.99 1166.11 294.97 1166.25Z" />
	</g>
</svg>