<svg version="1.2" xmlns="http://www.w3.org/2000/svg" viewBox="0 0 448 512" width="448" height="512">
	<title>book-solid-svg</title>
	<style>
		.s0 { fill: #ffffff } 
	</style>
	<path id="Layer" fill-rule="evenodd" class="s0" d="m416 0c17.7 0 32 14.3 32 32v320c0 17.7-14.3 32-32 32v64c17.7 0 32 14.3 32 32 0 17.7-14.3 32-32 32h-320c-53 0-96-43-96-96v-320c0-53 43-96 96-96zm-352 416c0 17.7 14.3 32 32 32h256v-64h-256c-17.7 0-32 14.3-32 32zm80-256h192c8.8 0 16-7.2 16-16 0-8.8-7.2-16-16-16h-192c-8.8 0-16 7.2-16 16 0 8.8 7.2 16 16 16zm-16 48c0 8.8 7.2 16 16 16h192c8.8 0 16-7.2 16-16 0-8.8-7.2-16-16-16h-192c-8.8 0-16 7.2-16 16z"/>
</svg>