<svg version="1.2" xmlns="http://www.w3.org/2000/svg" viewBox="0 0 836 649" width="836" height="649">
	<title>image</title>
	<style>
		.s0 { fill: #ffffff } 
	</style>
	<path id="Path 0" fill-rule="evenodd" class="s0" d="m299.5 0.4c0.6 0.2 2.7 3.2 4.7 6.7 2 3.5 6.9 13.4 10.8 21.9 4 8.5 7.5 15.8 7.9 16.2 0.3 0.4 6.7-0.2 14.1-1.2 7.4-1.1 23.1-2.6 34.8-3.5 11.6-0.8 32.3-1.5 46-1.5 13.6 0 33.9 0.7 45.2 1.5 11.3 0.8 26.1 2.3 33 3.2 6.9 0.9 13.5 1.7 14.8 1.7 1.9 0.1 3.1-1.9 9-14.9 3.8-8.2 8.8-18.5 15.2-30.5l3.7 0.6c2.1 0.3 12.1 2.4 22.3 4.5 10.2 2.2 23.7 5.3 30 7 6.3 1.7 18.9 5.3 28 8.1 9.1 2.7 24.8 8.1 35 11.8 10.2 3.8 24.8 9.6 32.5 13 7.7 3.4 15.6 6.8 17.5 7.6 2.7 1.1 5 3.8 10.2 11.7 3.6 5.6 10.3 16.2 14.7 23.5 4.5 7.2 12.7 21.6 18.3 32 5.6 10.3 12.9 24.5 16.3 31.7 3.4 7.2 7.4 15.5 8.7 18.5 1.4 3 4.5 10 6.8 15.5 2.4 5.5 6.9 16.8 10 25 3.2 8.3 8.5 23.3 11.8 33.5 3.3 10.2 7.8 25.3 10.1 33.5 2.2 8.3 5.6 22 7.5 30.5 1.9 8.5 4.9 23.4 6.5 33 1.7 9.6 3.9 24.7 5 33.5 1.1 8.8 2.5 21.2 3.1 27.5 0.5 6.3 1.4 23.2 2 37.5 0.6 16.3 0.6 35.5 0 51.5-0.5 14-1.2 29.1-1.5 33.5-0.3 4.4-0.8 9.7-1 11.8-0.4 3.3-1.4 4.3-8.3 9.4-4.2 3.2-14.5 10.3-22.7 15.9-8.3 5.6-20 13.2-26 16.9-6 3.7-16.6 9.9-23.5 13.8-6.9 3.8-21.3 11.3-32 16.7-10.7 5.3-26 12.4-34 15.8-8 3.3-19.5 8-25.5 10.2-6 2.3-17.4 6.4-25.3 9.1-7.8 2.7-14.7 4.7-15.2 4.4-0.5-0.3-5.4-7.1-10.9-15.2-5.4-8.2-14.1-22.2-19.3-31.3-5.2-9.1-10.7-18.9-12.2-21.7-1.4-2.9-2.6-5.6-2.6-6 0-0.5 5.7-3.2 12.7-6.2 7.1-3 18.7-8.3 25.8-11.9 7.1-3.5 16.9-8.7 21.8-11.3 4.8-2.7 8.9-5.2 9.2-5.6 0.2-0.5-3.1-3.6-15.5-13.3l-12.8 5.4c-7 3-16.3 6.9-20.7 8.6-4.4 1.8-14.5 5.4-22.5 8.1-8 2.7-20.1 6.5-27 8.4-6.9 1.9-18.8 4.8-26.5 6.5-7.7 1.6-21.4 4.1-30.5 5.4-9.1 1.4-21.9 3-28.5 3.7-7 0.7-25.1 1.2-43.5 1.2-25.9 0-34.8-0.4-50-2.2-10.2-1.2-23.7-3.1-30-4.2-6.3-1.1-18.5-3.6-27-5.5-8.5-2-22.3-5.6-30.5-8.1-8.3-2.5-20.6-6.5-27.5-9-6.9-2.5-19.8-7.6-28.8-11.4-10.4-4.4-16.6-6.6-17.4-6-0.7 0.4-4.6 3.4-15.8 12.1l8.3 4.7c4.5 2.5 13.8 7.5 20.7 11 6.9 3.5 19 9.1 27 12.5 8 3.3 14.6 6.2 14.8 6.4 0.1 0.2-2.4 5.2-5.5 11.2-3.1 5.9-8.6 15.7-12.1 21.7-3.6 6-10.7 17.3-15.8 25-5.2 7.7-9.9 14.8-10.6 15.7-1.2 1.6-2.5 1.3-18.8-4.1-9.6-3.2-25.6-9.1-35.5-13.1-9.9-4-25.2-10.6-34-14.7-8.8-4.1-20.7-10-26.5-13-5.8-3.1-16.6-9.1-24-13.3-7.4-4.2-20.3-12-28.5-17.3-8.3-5.2-21.9-14.4-30.3-20.4-9-6.3-15.5-11.6-15.7-12.8-0.3-1.1-0.9-9.2-1.5-18-0.6-8.8-1.3-27.2-1.7-41-0.3-14.7-0.1-34.7 0.6-48.5 0.6-12.9 1.8-30 2.7-38 0.8-8 2.1-19.7 3-26 0.8-6.3 2.9-19.1 4.5-28.5 1.7-9.4 4.8-24.9 7.1-34.5 2.2-9.6 6.2-25.1 8.8-34.5 2.7-9.4 7.6-25.1 11-35 3.4-9.9 8.9-24.7 12.2-33 3.3-8.2 8.9-21.5 12.5-29.5 3.6-8 10.7-22.8 15.8-33 5.2-10.2 14.3-27 20.3-37.5 6-10.4 14.9-25.3 28.7-46.9l9-4.2c4.9-2.2 16.9-7.3 26.5-11.2 9.6-3.9 24.9-9.6 34-12.7 9.1-3 23.5-7.6 32-10 8.5-2.4 21.4-5.8 28.5-7.6 7.1-1.7 19.3-4.4 27-5.9 7.7-1.6 14.4-2.7 15-2.6zm-51.5 279.1c-4.7 2.4-11.4 7-15 10.3-3.6 3.2-9 9.4-12 13.8-3 4.3-6.8 11.3-8.6 15.4-1.7 4.1-3.9 10.9-5 15-1.5 5.7-1.9 11-1.9 22.5 0 11.5 0.4 16.8 1.9 22.5 1.1 4.1 3.2 10.6 4.8 14.5 1.6 3.9 5.3 10.6 8.2 15 3 4.4 7.8 10.2 10.8 13 2.9 2.7 7.8 6.6 10.8 8.7 3 2 7.7 4.6 10.5 5.8 2.7 1.1 7.7 2.8 11 3.7 3.5 0.9 10.2 1.5 16 1.5 6.2 0 12.4-0.6 16.5-1.7 3.6-0.9 9.2-3.1 12.5-4.7 3.3-1.7 8-4.5 10.5-6.2 2.5-1.7 6.9-5.6 9.9-8.6 3-3 7.6-8.9 10.3-13 2.7-4.1 6.2-10.9 7.8-15 1.5-4.1 3.5-10.9 4.3-15 0.9-4.1 1.8-10.9 2.2-15 0.4-4.1 0.1-11.6-0.5-16.5-0.6-4.9-1.8-11.7-2.6-15-0.8-3.3-3.5-10.1-5.8-15-2.4-4.9-6.7-11.9-9.5-15.5-2.8-3.6-7.9-8.9-11.4-11.8-3.4-2.9-9.1-6.8-12.7-8.7-3.6-1.9-10.1-4.3-14.5-5.5-5.7-1.4-10.9-2-18-1.9-5.5 0-12.7 0.7-16 1.5-3.3 0.8-9.8 3.5-14.5 5.9zm279.5-1.1c-3.9 1.8-9.9 5.5-13.4 8.2-3.6 2.7-9.2 8.3-12.4 12.4-3.3 4.1-7.9 11.6-10.3 16.5-2.4 4.9-5.3 12.8-6.4 17.5-1.1 4.7-2.3 12.6-2.7 17.5-0.4 5.5-0.1 12.7 0.7 18.5 0.7 5.2 2.3 12.9 3.7 17 1.3 4.1 4.1 10.6 6.1 14.5 2 3.8 5.8 9.7 8.5 13 2.6 3.3 7.5 8.4 11 11.3 3.4 2.9 9.6 7 13.7 9.1 4.1 2.2 10.4 4.7 14 5.6 4 1.1 10.3 1.7 16.5 1.7 6.1 0 12.5-0.6 16.5-1.7 3.6-0.9 9.6-3.2 13.5-5.1 3.9-1.8 9.9-5.8 13.4-8.6 3.6-2.9 8.7-8 11.4-11.3 2.6-3.3 7-10.5 9.7-16 2.7-5.5 5.9-13.8 7-18.5 1.2-4.7 2.3-13.4 2.7-19.5 0.4-7.9 0.1-13.6-1.1-20.3-0.9-5-3-13.1-4.8-18-1.8-4.8-5.4-12-8-16-2.6-3.9-6.5-9.1-8.6-11.3-2-2.3-6.2-6.1-9.2-8.4-3-2.3-8.4-5.7-12-7.5-3.6-1.8-9.9-4.1-14-5.1-5-1.3-10.8-1.9-17.5-1.8-5.5 0-12.5 0.7-15.5 1.5-3 0.8-8.6 3-12.5 4.8z"/>
</svg>