<svg version="1.2" xmlns="http://www.w3.org/2000/svg" viewBox="0 0 448 512" width="448" height="512">
	<title>quote-right-solid-svg</title>
	<style>
		.s0 { fill: #ffffff } 
	</style>
	<path id="Layer" class="s0" d="m448 296c0 66.3-53.7 120-120 120h-8c-17.7 0-32-14.3-32-32 0-17.7 14.3-32 32-32h8c30.9 0 56-25.1 56-56v-8h-64c-35.3 0-64-28.7-64-64v-64c0-35.3 28.7-64 64-64h64c35.3 0 64 28.7 64 64v32 32zm-256 0c0 66.3-53.7 120-120 120h-8c-17.7 0-32-14.3-32-32 0-17.7 14.3-32 32-32h8c30.9 0 56-25.1 56-56v-8h-64c-35.3 0-64-28.7-64-64v-64c0-35.3 28.7-64 64-64h64c35.3 0 64 28.7 64 64v32 32z"/>
</svg>