<svg version="1.2" baseProfile="tiny-ps" xmlns="http://www.w3.org/2000/svg" viewBox="0 0 1168 1500" width="1168" height="1500">
	<title>01 1893 14 1894-2</title>
	<style>
		tspan { white-space:pre }
		.shp0 { fill: #ffffff } 
		.shp1 { fill: #808080 } 
		.shp2 { fill: #000000 } 
		.shp3 { opacity: 0.796;fill: #fefefe } 
	</style>
	<g id="Layer 3">
		<path id="Path 0" class="shp0" d="M478.18 3.01C475.16 4.03 465.5 6.95 456.72 9.51C447.93 12.06 430.19 17.27 417.29 21.09C404.38 24.91 389.33 29.35 383.84 30.96C378.35 32.57 366.9 35.96 358.39 38.49C344.74 42.55 341.56 43.93 331.43 50.19C325.12 54.1 317.03 59.07 313.46 61.24C309.89 63.41 290.35 75.4 270.04 87.89C249.72 100.38 220.07 118.57 204.15 128.32C188.23 138.06 172.06 147.99 168.21 150.37C164.37 152.75 160.33 155.32 159.23 156.08C158.13 156.84 153.12 164.39 148.09 172.85C143.06 181.32 130.8 201.96 120.83 218.71C110.86 235.46 102.32 249.39 101.85 249.67C101.38 249.94 97.13 257.69 92.42 266.89C87.71 276.09 83.86 284.52 83.86 285.62C83.86 286.72 77.57 317.39 69.88 353.78C62.2 390.17 55.91 421.06 55.92 422.44C55.92 423.81 58.64 435.04 61.96 447.4C65.28 459.76 68.17 470.1 68.38 470.37C68.59 470.65 69.92 465.7 71.34 459.39C72.75 453.07 77.88 430.6 82.73 409.45L91.55 371.01L78.37 357.56L94.61 357.02L84.9 341.05C106.63 289.96 114.7 270.86 116.85 265.65C120.55 256.68 121.54 255.3 134.9 240.68C142.68 232.17 158.86 214.53 170.86 201.48L192.67 177.76C197.54 148.74 199.23 139.99 199.56 139.59C199.89 139.19 202.74 140.87 205.9 143.33C209.05 145.79 211.86 147.8 212.14 147.8C212.41 147.8 215.56 143.42 219.13 138.07C222.7 132.71 225.62 128.78 225.63 129.33C225.63 129.88 226.3 136.28 227.12 143.56C227.94 150.84 228.5 157.35 228.36 158.04C228.19 158.87 229.11 159.18 231.1 158.96C233.94 158.65 233.7 159.04 226.48 166.45L218.87 174.27C219.56 185.1 221.06 210.94 222.64 238.68L225.51 289.11C213.21 301.11 209.64 304.82 209.64 305.09C209.64 305.37 213.12 308.37 217.38 311.77C223.97 317.04 224.82 318.05 223.12 318.61C222.02 318.97 214.71 320.57 206.87 322.17L192.63 325.07L192.67 357.52L238.58 419.94L196.16 462.23C227.88 478.01 237.21 482.98 237.34 483.47C237.48 483.96 238.15 484.34 238.84 484.33C239.53 484.32 243.23 485.95 247.08 487.96C253.22 491.17 256.54 492.03 274.53 495.07C291.01 497.85 296.16 499.11 300.98 501.56C304.28 503.23 313.94 506.94 322.45 509.8C334.48 513.85 340.47 515.29 349.4 516.28C355.72 516.98 361.33 517.7 361.88 517.89C362.43 518.07 367.15 525.27 372.36 533.87C377.58 542.48 382.18 549.69 382.59 549.89C383.01 550.1 384.13 549.82 385.09 549.28C386.05 548.74 393.8 545.17 402.31 541.34C414.19 536.01 418.05 534.67 418.91 535.59C419.53 536.25 429.94 553.86 442.04 574.73L464.04 612.68C461.88 621.97 450.08 671.63 436.41 729.03L411.56 833.39C416.42 853.51 418.1 859.8 418.42 860.35C418.75 860.9 427.5 864.89 437.86 869.22C448.23 873.54 456.94 877.3 457.22 877.56C457.49 877.82 458.27 881.92 458.94 886.67C459.62 891.42 460.16 896.65 460.16 898.3C460.15 900.96 459.01 902.1 450.24 908.29C444.79 912.13 440.49 915.5 440.7 915.78C440.9 916.05 446.38 915.74 452.88 915.08C459.38 914.42 469.08 913.86 474.44 913.83L484.17 913.78C485.63 918.04 485.78 919.61 485.44 920.02C485.11 920.44 485.92 920.81 487.25 920.85C488.58 920.89 491.23 921.49 493.16 922.17C496.57 923.39 496.92 923.26 509.13 916.01C515.99 911.93 523.4 907.53 525.6 906.22L529.59 903.84C557.45 934.27 574.24 952.57 584.88 964.15L604.22 985.19C631.49 992.32 650.86 997.35 664.86 1000.96C678.86 1004.58 696.61 1009.16 704.29 1011.15C711.98 1013.14 718.55 1015.08 718.9 1015.46C719.24 1015.84 720.78 1021.54 722.32 1028.13L725.12 1040.11C736.86 1052.22 741.51 1055.7 749.29 1060.09C755.13 1063.38 760.11 1066.53 760.37 1067.08C760.62 1067.63 758.76 1071.45 756.22 1075.57C753.68 1079.69 748.76 1087.55 745.27 1093.04L738.94 1103.03C715.18 1109.55 707.35 1111.46 706.21 1111.48C705.06 1111.5 703.78 1111.86 703.36 1112.27C702.94 1112.68 699.61 1113.75 695.96 1114.64L689.32 1116.27C666.5 1101.75 659.87 1097.09 659.87 1096.54C659.87 1095.99 658.86 1095.24 657.62 1094.87C656.39 1094.5 653.58 1092.48 651.38 1090.38C649.19 1088.28 645.82 1086.17 643.9 1085.69C641.98 1085.2 632.77 1082.45 623.43 1079.56C614.1 1076.67 603.32 1073.47 599.47 1072.44C594.28 1071.04 584.94 1070.19 563.04 1069.1C546.84 1068.29 524.38 1067.14 513.12 1066.55C501.87 1065.95 485.69 1065.09 477.18 1064.63C462.99 1063.86 460.8 1063.98 450.73 1066.08C444.69 1067.35 434.92 1069.66 429.01 1071.22L418.28 1074.07L418.28 1093.54L444.74 1113.24C529.07 1117.45 556.66 1118.97 560.45 1119.34L567.36 1120.01C514.11 1136.83 498.34 1141.99 497.96 1142.34C497.58 1142.69 500.25 1146.12 503.89 1149.97C507.53 1153.81 511.94 1158.75 513.7 1160.95C515.46 1163.15 521.78 1170 527.74 1176.17C533.7 1182.34 538.8 1187.41 539.08 1187.44C539.35 1187.47 543.84 1178.3 549.06 1167.06C554.28 1155.83 558.64 1146.71 558.76 1146.8C558.88 1146.9 560.33 1158.43 562 1172.44C563.66 1186.44 565.03 1198.69 565.03 1199.65C565.03 1201.18 566.28 1201.43 575.17 1201.65L585.31 1201.9C596.8 1232.08 600.56 1241.29 601.07 1241.84C601.65 1242.47 602 1238.05 601.99 1230.11C601.97 1218.48 602.12 1217.41 603.72 1217.82C604.68 1218.06 611.49 1218.84 618.85 1219.56C626.22 1220.28 632.8 1221.32 633.48 1221.87C634.16 1222.42 637.24 1231.86 640.33 1242.84C643.41 1253.83 646.27 1263.65 646.67 1264.68C647.27 1266.23 649.16 1264.56 657.97 1254.69C663.78 1248.18 669.62 1241.59 670.94 1240.07L673.35 1237.29C717.45 1254.49 730.62 1259.79 731.08 1260.15C731.53 1260.52 729.15 1280.37 725.78 1304.26C722.41 1328.15 719.79 1348.43 719.96 1349.32C720.17 1350.43 728.67 1343.64 747.22 1327.54C762.05 1314.67 783.11 1296.42 794.04 1286.98C804.97 1277.53 821.37 1263.34 830.48 1255.45C839.59 1247.55 853.34 1235.62 861.03 1228.94C868.71 1222.26 884.12 1208.95 895.27 1199.36L915.54 1181.92C938.18 1140.13 947.71 1122.6 951.33 1116.01L957.91 1104.03C975.5 998.77 980.88 967.83 981.21 967.37C981.55 966.92 987.21 967.02 993.8 967.6C1000.39 968.18 1013.86 969.34 1023.75 970.16C1033.63 970.98 1044.86 971.92 1048.7 972.25L1055.69 972.84C1100.57 920.67 1113.9 905.03 1114.28 904.41C1114.65 903.8 1124.44 875.21 1136.04 840.88C1147.63 806.55 1157.33 776.66 1157.59 774.47C1157.84 772.27 1160.06 749.35 1162.52 723.54C1164.98 697.72 1167.01 675.47 1167.03 674.1C1167.06 672.38 1163.18 666.67 1154.46 655.63C1147.52 646.84 1141.55 639.34 1141.19 638.95C1140.84 638.57 1133.36 637.33 1124.57 636.19C1115.79 635.05 1103.53 633.56 1097.33 632.88C1087.49 631.81 1085.94 631.85 1085.17 633.16C1084.69 633.98 1083.74 637.13 1083.06 640.15C1082.24 643.85 1079.4 649.54 1074.34 657.62C1070.22 664.21 1066.49 670.06 1066.06 670.61C1065.63 671.16 1064.07 667.56 1062.59 662.62C1061.11 657.67 1059.62 653.3 1059.29 652.89C1058.96 652.49 1052.96 655.75 1045.96 660.13C1038.96 664.52 1033.01 668.11 1032.73 668.11C1032.46 668.11 1032.22 647.77 1032.21 622.92L1032.19 577.73L1052.37 547.77C1044.62 509.07 1042.39 497.16 1042.42 496.34C1042.45 495.51 1041.06 489.67 1039.35 483.36L1036.23 471.87L1036.23 354.53C1025.64 332.47 1015.43 311.24 1006.72 293.11L990.88 260.15C967.52 229.97 951.36 209.07 939.9 194.24C928.43 179.41 908.44 153.57 895.48 136.82C882.52 120.06 870.72 104.79 869.26 102.86L866.61 99.37C882.4 97.32 888.1 96.4 889.48 96C891.71 95.36 890.45 94.33 877.5 86.23C869.54 81.25 849.32 68.65 832.57 58.23C815.83 47.81 800.78 38.59 799.13 37.75C797.48 36.91 789.62 34.31 781.66 31.99C773.7 29.66 762.92 26.48 757.7 24.93C752.49 23.37 736.99 18.89 723.26 14.97C709.54 11.05 693.14 6.3 686.82 4.41L675.34 0.97C488.96 1.15 483.37 1.26 478.18 3.01Z" />
		<path id="Path 1" fill-rule="evenodd" class="shp1" d="M890.97 95.97C892.4 95.86 896.57 100.05 905.45 110.49C912.31 118.56 923.69 131.94 930.73 140.22C937.77 148.51 944.51 156.61 947.88 161.16L942.14 160.48C938.98 160.1 933.81 159.56 930.66 159.28C925.3 158.81 925.79 159.07 951.37 167.78L946.38 175.77C943.6 180.21 941.69 184.31 942.06 185C942.43 185.69 950.18 197.14 959.28 210.45C968.38 223.76 975.94 234.44 976.08 234.17C976.22 233.91 970.04 222.68 962.35 209.22C954.67 195.76 948.55 184.42 948.77 184C948.99 183.59 951.94 181.91 961.5 177.26L964.79 181.26C966.6 183.46 972.41 190.76 977.69 197.49C982.98 204.22 987.3 210.06 987.3 210.47C987.29 210.88 985.27 213.24 978.32 220.21L989.06 229.46C994.96 234.55 1000.24 239.14 1000.79 239.67C1001.34 240.19 1002.23 241.11 1002.78 241.71C1003.33 242.3 1005.88 244.22 1008.44 245.98C1011 247.73 1019.09 253.5 1039.72 268.43L1051.02 302.74C1057.24 321.61 1062.18 337.13 1062.01 337.22C1061.83 337.31 1052.59 332.48 1041.47 326.48C1030.35 320.49 1021.04 315.69 1020.77 315.83C1020.51 315.97 1022.47 321.02 1025.14 327.06C1027.81 333.11 1034.37 347.71 1039.73 359.52C1045.09 371.33 1050.07 382.34 1052.14 386.98L1036.23 399.47L1036.23 354.53L1029.39 340.3C1025.64 332.47 1015.43 311.24 990.88 260.15L975.42 240.18C966.92 229.19 945.36 201.33 927.52 178.26C909.68 155.19 888.65 128 880.78 117.84C872.86 107.6 867.05 99.25 867.75 99.1C868.45 98.95 873.5 98.21 878.99 97.47C884.49 96.72 889.88 96.04 890.97 95.97ZM225.24 129.15C225.39 129.25 226.21 135.51 227.06 143.06C227.91 150.61 228.5 157.35 228.36 158.04C228.19 158.87 229.11 159.18 231.1 158.96C233.94 158.65 233.7 159.04 218.87 174.27L219.32 181.26C219.56 185.1 221.06 210.94 225.51 289.11L217.58 296.85C213.21 301.11 209.64 304.82 209.64 305.09C209.64 305.37 213.12 308.37 217.38 311.77C223.97 317.04 224.82 318.05 223.12 318.61C222.02 318.97 214.71 320.57 192.63 325.07L192.67 357.52L238.58 419.94L196.16 462.23L217.13 472.74C228.66 478.52 237.42 483.28 236.59 483.31C235.77 483.35 225.66 481.33 214.13 478.83C202.6 476.33 177.45 470.92 158.23 466.81C139.01 462.7 122.84 459.15 122.29 458.93C121.74 458.71 117.02 462.16 111.81 466.59C106.59 471.02 98.62 477.73 94.09 481.5C88.07 486.51 86 488.82 86.38 490.1C86.67 491.06 85.74 495.44 84.3 499.83C82.86 504.23 82.06 508.11 82.52 508.46C82.98 508.82 92.23 513.2 103.07 518.2C113.92 523.2 123.24 527.3 123.79 527.3C124.34 527.3 127.94 525.39 131.8 523.05C135.65 520.72 139.14 519.16 139.53 519.59C139.93 520.03 139.52 524.07 138.63 528.58C137.73 533.09 137.05 536.92 137.13 537.09C137.2 537.27 146.02 535.23 176.2 527.73L225.61 544.22C252.79 553.29 274.13 560.86 273.03 561.03C271.93 561.21 263.06 559.76 235.6 554.26L221.87 564.83C214.32 570.65 208.01 575.7 207.85 576.07C207.68 576.43 220.01 583.02 262.93 604.69L258 604.98C255.29 605.13 241.16 604.62 226.61 603.83C212.06 603.04 199.93 602.52 199.66 602.66C199.38 602.81 193.66 609.06 186.93 616.54C180.2 624.03 174.93 630.38 175.2 630.66C175.47 630.93 183.34 627.34 192.67 622.67C202 618 209.87 614.41 210.14 614.68C210.41 614.96 208.53 619.11 205.96 623.92C203.39 628.72 199.35 636.25 196.99 640.65C194.62 645.04 192.79 648.7 192.93 648.77C193.06 648.85 205.97 651.94 250.07 662.38L258.56 669.4C263.22 673.26 267.49 676.77 268.04 677.19C268.64 677.65 266.55 680.98 262.8 685.52C259.37 689.67 256.56 693.3 256.56 693.58C256.56 693.85 259.14 694.64 262.3 695.32C267.68 696.49 266.81 696.59 228.61 697.07L228.61 724.03L249.07 724.03C260.33 724.03 269.54 723.7 269.54 723.29C269.55 722.87 272.51 721.41 276.14 720.04C279.76 718.67 282.88 717.32 283.07 717.04C283.26 716.77 279.86 705.76 275.5 692.58C268.63 671.77 267.82 668.57 269.31 668.32C270.26 668.17 275.3 668.69 280.52 669.48C287.69 670.56 290.28 670.63 291.13 669.76C291.75 669.13 296.8 661.31 302.36 652.38C307.92 643.45 312.8 636.16 313.21 636.16C313.63 636.17 320.25 648.11 327.94 662.71C335.63 677.31 342.2 689.77 342.56 690.41C342.96 691.14 348.03 687.29 356.03 680.18C363.09 673.91 368.99 668.74 369.14 668.7C369.29 668.65 368.73 663.44 367.9 657.12C367.07 650.81 366.5 645.6 366.63 645.55C366.76 645.5 374.51 644.77 383.84 643.92C393.18 643.07 400.93 642.44 401.06 642.51C401.2 642.58 397.05 649.05 391.83 656.87C386.61 664.7 382.33 671.22 382.31 671.35C382.29 671.49 385.9 674.53 390.33 678.1C394.76 681.67 398.38 684.81 398.37 685.09C398.36 685.36 395.62 697.05 392.28 711.05C388.94 725.06 386.02 737.3 385.78 738.27C385.4 739.78 384.05 740.01 365.87 740L385.34 759.49L372.61 762.79C365.61 764.61 359.78 766.18 359.64 766.29C359.51 766.39 357.22 774.34 354.56 783.95C351.89 793.57 349.98 801.57 350.31 801.74C350.63 801.91 357.28 800.12 365.08 797.75C372.88 795.38 379.62 793.78 380.06 794.2C380.49 794.62 378.2 798.89 369.08 812.42L376.96 834.13C381.29 846.07 384.49 856.18 384.07 856.6C383.65 857.01 377.92 855.9 359.38 850.87L358.71 853.61C358.34 855.12 356.82 861.08 352.65 877.33L401.41 926.26L380.65 932.46C369.23 935.86 356.96 939.48 346.91 942.32L301.23 999.21C276.11 1030.49 255.56 1056.43 255.56 1056.84C255.56 1057.25 257.7 1056.71 260.3 1055.64C262.91 1054.57 271.67 1051.2 279.77 1048.15C287.87 1045.1 294.72 1042.83 294.99 1043.11C295.27 1043.38 288.76 1053.72 280.52 1066.08C272.28 1078.44 265.43 1088.97 265.3 1089.48C265.16 1090 267.07 1094.03 269.54 1098.45C272.01 1102.86 274.26 1106.45 274.53 1106.41C274.8 1106.37 287.3 1093.46 302.3 1077.72C317.31 1061.98 329.88 1048.61 330.26 1048C330.63 1047.4 334.08 1045.87 337.92 1044.61C341.76 1043.35 345.47 1042.16 346.16 1041.96C346.84 1041.77 347.41 1042.06 347.41 1042.61C347.41 1043.16 336.53 1055.85 323.24 1070.82C309.95 1085.79 293.55 1104.22 286.8 1111.77C280.05 1119.32 274.64 1125.72 274.78 1125.99C274.92 1126.27 289.4 1128.67 306.97 1131.34C328.42 1134.59 338.84 1136.56 338.67 1137.33C338.53 1137.97 331.49 1151.63 323.02 1167.69C314.54 1183.76 307.02 1197.38 306.29 1197.96C305.57 1198.54 296.44 1202.77 286.01 1207.37C275.58 1211.96 264.35 1216.94 261.05 1218.43C257.76 1219.91 253.49 1221.8 248.08 1224.1L235.1 1273.27L230.11 1272.72C227.36 1272.42 220.4 1271.64 204.15 1269.8L212.91 1266.81C217.72 1265.16 221.66 1263.37 221.65 1262.82C221.64 1262.27 219.61 1257.66 212.64 1243.34L196.16 1243.34C183.67 1243.34 179.68 1243.04 179.66 1242.09C179.64 1241.38 187.08 1238.07 197.08 1234.35C206.68 1230.78 214.45 1227.79 214.34 1227.7C214.22 1227.62 205.6 1226.8 195.17 1225.89C184.73 1224.98 175.97 1223.99 175.7 1223.69C175.42 1223.38 169.92 1199.7 163.46 1171.07C157 1142.44 147.69 1101.26 142.77 1079.56C137.85 1057.86 131.8 1031.13 129.32 1020.14C126.84 1009.15 124.58 999.16 124.3 997.92C124.02 996.68 119.45 990.62 104.5 973.2L96.92 972.08C92.76 971.47 86.88 970.66 78.37 969.63L79.53 951.44C80.17 941.44 80.93 929.66 81.74 917.28L70.17 940.25C63.81 952.88 58.45 962.77 58.26 962.22C58.07 961.67 55.44 947.96 52.41 931.76C49.38 915.55 46.94 901.4 46.99 900.3C47.04 899.2 48.28 901.74 52.41 913.6L63.06 905.95C68.92 901.74 73.98 898.08 74.3 897.8C74.62 897.53 72.16 871.69 68.82 840.38C65.48 809.07 62.44 782.67 62.07 781.71C61.49 780.22 59.77 781.1 39.27 795.44L38.65 790.45C38.32 787.7 36.82 772.42 32.59 727.53L40.17 718.04C44.34 712.82 50.94 704.62 61.89 691.08L45.65 486.85L58.78 341.05L71.3 313.08C78.18 297.7 83.83 285.68 83.84 286.37C83.85 287.05 77.57 317.39 69.88 353.78C62.2 390.17 55.91 421.06 55.92 422.44C55.92 423.81 58.64 435.04 61.96 447.4C65.28 459.76 68.17 470.1 68.38 470.37C68.59 470.65 69.92 465.7 71.34 459.39C72.75 453.07 77.88 430.6 91.55 371.01L78.37 357.56L94.61 357.02L84.9 341.05L98.92 308.09C106.63 289.96 114.7 270.86 116.85 265.65C120.55 256.68 121.54 255.3 134.9 240.68C142.68 232.17 158.86 214.53 192.67 177.76L195.82 159.04C197.54 148.74 199.23 139.99 199.56 139.59C199.89 139.19 202.74 140.87 205.9 143.33C209.05 145.79 211.97 147.63 212.39 147.43C212.8 147.22 215.8 142.98 219.05 138.01C222.31 133.05 225.09 129.06 225.24 129.15ZM155.4 159.32C155.58 159.58 149.15 170.91 141.11 184.5C133.07 198.1 121.05 218.31 114.41 229.42C107.76 240.53 102.21 249.4 102.08 249.14C101.94 248.88 109.01 233.61 117.8 215.21C126.58 196.81 133.67 181.43 133.54 181.02C133.41 180.62 138.2 175.47 144.19 169.57C150.17 163.68 155.22 159.06 155.4 159.32Z" />
		<path id="Path 2" class="shp2" d="M938.14 163.36L951.37 167.78C943.6 180.21 941.69 184.31 942.06 185C942.43 185.69 950.18 197.14 959.28 210.45C968.38 223.76 975.94 234.44 976.08 234.17C976.22 233.91 970.04 222.68 962.35 209.22C954.67 195.76 948.55 184.42 948.77 184C948.99 183.59 951.91 181.91 955.27 180.26L961.38 177.26C953.79 169.52 950.91 165.93 950.09 164.28C948.65 161.39 948.24 161.24 938.26 160.03C932.57 159.34 927.24 158.81 926.41 158.86C925.59 158.91 930.87 160.93 938.14 163.36ZM132.2 182.05C131.69 182.84 128.13 186.99 124.29 191.27C120.44 195.54 116.84 199.54 116.27 200.14C115.7 200.74 108.98 208.42 101.32 217.21C93.67 226 85.55 235.21 83.27 237.68C81 240.15 76.43 245.32 73.13 249.17C69.84 253.01 60.82 263.35 53.09 272.14C42.19 284.54 38.93 288.9 38.52 291.61C38.23 293.53 35.19 329.49 31.76 371.5L25.52 447.9L45.21 642.64C35.41 656.57 31.87 661.59 31.01 662.77L29.45 664.91C11.66 657.35 6.39 655.26 6.27 655.39C6.16 655.52 4.7 669.11 3.03 685.59C1.37 702.06 0 717.91 0 720.79C0 724.01 2.14 734.01 5.56 746.75C8.61 758.15 14.26 779.16 18.11 793.44C21.96 807.72 27.08 826.82 29.49 835.89C31.9 844.95 36.33 861.35 39.34 872.34C42.34 883.32 46.51 897.09 48.61 902.94L52.41 913.57C68.92 901.74 73.98 898.08 74.3 897.8C74.62 897.53 72.16 871.69 68.82 840.38C65.48 809.07 62.44 782.67 62.07 781.71C61.49 780.22 59.77 781.1 50.33 787.7L39.27 795.44C38.32 787.7 36.82 772.42 35.32 756.49L32.59 727.53C44.34 712.82 50.94 704.62 54.82 699.82L61.89 691.08L45.65 486.85L58.78 341.05C79.07 295.38 90.97 269.99 98.3 255.16C105.64 240.33 116.64 217.63 122.75 204.73C128.85 191.82 133.69 181.11 133.49 180.93C133.3 180.76 132.72 181.26 132.2 182.05Z" />
		<path id="Path 3" class="shp0" d="M982.53 215.96L978.33 220.21C994.96 234.59 999.9 238.52 1000.04 238.22C1000.17 237.93 997.37 231.84 993.8 224.7C990.23 217.56 987.18 211.72 987.02 211.72C986.85 211.72 984.83 213.63 982.53 215.96Z" />
		<path id="Path 4" class="shp2" d="M1020.24 315.83C1020.24 315.97 1022.43 321.02 1025.11 327.06C1027.8 333.11 1034.37 347.71 1039.73 359.52C1045.09 371.33 1050.07 382.34 1050.81 383.99L1052.14 386.98L1036.23 399.47L1036.76 475.87C1046.38 508.37 1051.35 525.22 1054.03 534.29L1058.89 550.77L1039.4 576.73C1041.77 634 1042.74 650.9 1043.08 651.24C1043.43 651.57 1052.09 650.45 1062.33 648.74C1072.56 647.03 1081.17 645.41 1081.46 645.14C1081.74 644.87 1082.67 641.94 1083.53 638.65C1084.67 634.24 1085.49 621.18 1086.61 589.21C1087.45 565.32 1088.3 544.2 1088.51 542.28C1088.71 540.35 1086.7 508.45 1084.05 471.37L1079.22 403.96C1072.94 376.87 1069.53 362.49 1067.59 354.53C1065.65 346.56 1063.75 339.56 1063.37 338.96C1062.99 338.36 1053.36 332.86 1041.97 326.73C1030.57 320.6 1021.03 315.58 1020.75 315.58C1020.48 315.58 1020.25 315.69 1020.24 315.83ZM111.63 466.6C106.51 471.02 98.62 477.73 94.09 481.5C88.07 486.51 86 488.82 86.38 490.1C86.67 491.06 85.74 495.44 84.3 499.83C82.86 504.23 82.06 508.11 82.52 508.46C82.98 508.82 92.23 513.2 103.07 518.2C113.92 523.2 123.24 527.3 123.79 527.3C124.34 527.3 127.94 525.39 131.8 523.05C135.65 520.72 139.14 519.16 139.53 519.59C139.93 520.03 139.52 524.07 138.63 528.58C137.73 533.09 137.05 536.92 137.13 537.09C137.2 537.27 146.02 535.23 156.73 532.57L176.2 527.73C252.41 552.94 274.29 560.59 273.99 561C273.69 561.41 276.72 562.56 280.73 563.54C285.7 564.77 293.39 568.23 304.98 574.46C314.31 579.47 324.05 584.73 326.62 586.15C329.19 587.56 331.34 589.16 331.41 589.71C331.48 590.26 324.77 593.3 316.51 596.45C308.24 599.61 301.47 602.53 301.46 602.95C301.44 603.36 304.92 604.76 309.19 606.07C313.46 607.38 317.41 608.76 317.96 609.15C318.5 609.54 321.98 611.17 325.68 612.77C329.39 614.37 332.31 615.78 332.17 615.9C332.04 616.03 328.11 616.81 323.45 617.66L314.96 619.19C297.94 611.89 292.89 609.41 292.75 608.98C292.61 608.54 291.71 608.43 290.75 608.73C289.79 609.03 284.74 608.56 279.52 607.69C274.31 606.83 265.77 605.88 260.55 605.59C255.34 605.3 239.61 604.46 225.61 603.73C211.61 603 199.93 602.52 199.66 602.66C199.38 602.81 193.66 609.06 186.93 616.54C180.2 624.03 174.93 630.38 175.2 630.66C175.47 630.93 183.34 627.34 192.67 622.67C202 618 209.87 614.41 210.14 614.68C210.41 614.96 208.53 619.11 205.96 623.92C203.39 628.72 199.35 636.25 196.99 640.65C194.62 645.04 192.79 648.7 192.93 648.77C193.06 648.85 205.52 651.86 220.62 655.48L248.08 662.05C270.51 652.99 279.4 649.3 282.3 648C285.37 646.63 287.56 645.01 287.52 644.14C287.49 643.32 286.13 637.59 284.49 631.41C282.86 625.23 281.88 620.29 282.32 620.42C282.77 620.56 290.07 624.16 298.55 628.42L313.96 636.17C335.63 677.31 342.2 689.77 342.56 690.41C342.96 691.14 348.03 687.29 356.03 680.18C363.09 673.91 368.99 668.74 369.14 668.7C369.29 668.65 368.73 663.44 367.9 657.12C367.07 650.81 366.5 645.6 366.63 645.55C366.76 645.5 374.51 644.77 383.84 643.92C393.18 643.07 400.93 642.44 401.06 642.51C401.2 642.58 397.05 649.05 391.83 656.87C386.61 664.7 382.33 671.22 382.31 671.35C382.29 671.49 385.9 674.53 390.33 678.1C394.76 681.67 398.38 684.81 398.37 685.09C398.36 685.36 395.62 697.05 392.28 711.05C388.94 725.06 386.02 737.3 385.78 738.27C385.4 739.78 384.05 740.01 375.61 740.01L365.87 740L385.34 759.49C365.61 764.61 359.78 766.18 359.64 766.29C359.51 766.39 357.22 774.34 354.56 783.95C351.89 793.57 349.98 801.57 350.31 801.74C350.63 801.91 357.28 800.12 365.08 797.75C372.88 795.38 379.62 793.78 380.06 794.2C380.49 794.62 378.2 798.89 374.96 803.69L369.08 812.42C381.29 846.07 384.49 856.18 384.07 856.6C383.65 857.01 377.92 855.9 371.34 854.11L359.38 850.87C358.34 855.12 356.82 861.08 355.34 866.84L352.65 877.33L401.41 926.26C369.23 935.86 356.96 939.48 353.39 940.49L346.91 942.32C276.11 1030.49 255.56 1056.43 255.56 1056.84C255.56 1057.25 257.7 1056.71 260.3 1055.64C262.91 1054.57 271.67 1051.2 279.77 1048.15C287.87 1045.1 294.72 1042.83 294.99 1043.11C295.27 1043.38 288.76 1053.72 280.52 1066.08C272.28 1078.44 265.43 1088.97 265.3 1089.48C265.16 1090 267.07 1094.03 269.54 1098.45C272.01 1102.86 274.26 1106.45 274.53 1106.41C274.8 1106.37 287.38 1093.29 302.48 1077.33C317.58 1061.37 335.55 1042.81 342.41 1036.09L354.89 1023.87C380.22 1014.79 387.75 1011.81 387.96 1011.4C388.16 1010.99 387.1 1006.85 385.59 1002.21C384.08 997.57 383.07 993.51 383.34 993.18C383.62 992.86 389.23 994.61 395.82 997.08C402.41 999.54 407.9 1001.47 408.02 1001.36C408.14 1001.25 405.47 991.95 402.09 980.69C398.72 969.43 395.79 960 395.59 959.72C395.38 959.45 389.74 960.5 383.04 962.07C376.34 963.63 370.25 964.76 369.5 964.56C368.76 964.37 379.99 955.85 394.46 945.63L420.78 927.05C421.28 932.63 420.7 953.8 419.8 977.7C418.9 1001.59 418.08 1021.21 417.98 1021.3C417.87 1021.4 404.31 1024.49 387.84 1028.17C360.36 1034.32 357.45 1035.18 352.61 1038.49C349.7 1040.48 347.35 1042.45 347.37 1042.86C347.39 1043.27 336.53 1055.85 323.24 1070.82C309.95 1085.79 293.55 1104.22 286.8 1111.77C280.05 1119.32 274.64 1125.72 274.78 1125.99C274.92 1126.27 289.4 1128.67 306.97 1131.34C328.42 1134.59 338.84 1136.56 338.67 1137.33C338.53 1137.97 331.49 1151.63 323.02 1167.69C314.54 1183.76 307.02 1197.38 306.29 1197.96C305.57 1198.54 296.44 1202.77 286.01 1207.37C275.58 1211.96 264.35 1216.94 261.05 1218.43C257.76 1219.91 253.49 1221.8 251.57 1222.61L248.08 1224.1L235.1 1273.27C227.36 1272.42 220.4 1271.64 214.63 1270.98L204.15 1269.8C217.72 1265.16 221.66 1263.37 221.65 1262.82C221.64 1262.27 219.61 1257.66 217.14 1252.58L212.64 1243.34L179.69 1243.34C180.67 1246.83 186.34 1258.62 192.91 1271.8C203.61 1293.27 205.56 1296.5 211.5 1302.77C215.14 1306.62 227.34 1319.43 238.59 1331.23C249.85 1343.04 264.46 1358.31 271.06 1365.18C277.66 1372.05 287.54 1382.38 293.02 1388.14C298.5 1393.9 307.94 1403.79 313.99 1410.11C320.05 1416.43 329.76 1426.55 335.57 1432.59C341.38 1438.63 348.33 1445.88 351.01 1448.69C355.82 1453.73 356.12 1453.87 371.86 1458.5C380.65 1461.08 391.21 1464.24 395.32 1465.53C399.44 1466.81 406.98 1469.14 412.07 1470.7L421.33 1473.54C421.28 1495.8 421.59 1499 422.53 1499.01C423.21 1499.02 430.29 1497.25 438.25 1495.09C446.21 1492.93 469.57 1486.6 490.16 1481.02C510.75 1475.43 538.83 1467.83 552.55 1464.11L577.51 1457.35C609.73 1431.97 620.95 1423.25 623.23 1421.6C625.51 1419.96 639.74 1409.01 654.85 1397.27C669.97 1385.53 682.61 1375.2 682.94 1374.3C683.28 1373.4 684.18 1367.42 684.94 1361C685.7 1354.58 686.1 1349.1 685.83 1348.82C685.55 1348.54 678.24 1346.15 669.57 1343.51L653.82 1338.72L673.35 1319.07C700.01 1326.55 707.97 1328.5 708.24 1328.23C708.51 1327.95 706.76 1321.66 704.36 1314.25C701.96 1306.83 700.29 1300.64 700.65 1300.49C701.01 1300.34 706.02 1302.26 711.78 1304.76C717.55 1307.25 722.26 1309.29 722.26 1309.28C722.26 1309.28 722.94 1301.29 723.76 1291.54C724.58 1281.78 725.26 1272.93 725.26 1271.87C725.26 1270.3 721.03 1268.12 702.8 1260.3L680.34 1250.66C679.95 1282.91 679.5 1292.28 679.09 1292.29C678.68 1292.3 670.81 1288.81 661.62 1284.55C652.42 1280.29 644.72 1277.02 644.51 1277.3C644.3 1277.57 644.82 1281.84 645.68 1286.78L647.24 1295.77C641.94 1300.59 636.14 1305.47 630.92 1309.72C625.7 1313.96 619.08 1319.3 616.2 1321.59L610.96 1325.73C610.67 1345.08 610.44 1348.34 610.27 1345.46C610.1 1342.57 609.62 1340.23 609.21 1340.25C608.8 1340.26 605.99 1341.8 602.97 1343.66C599.95 1345.52 596.86 1347.19 596.1 1347.37C595.13 1347.61 592.91 1342.31 588.48 1329.23C585.05 1319.07 582 1311.43 581.71 1312.25C581.42 1313.07 580.24 1322.06 579.08 1332.22C577.93 1342.39 576.71 1353.4 576.39 1356.69C576.06 1359.99 575.4 1363.13 574.93 1363.68C574.38 1364.33 570.27 1363.21 563.31 1360.52C557.4 1358.23 551.77 1356.1 550.81 1355.78C549.19 1355.24 549.06 1356.4 549.1 1371.42L549.14 1387.65C532.05 1395.39 526.9 1397.41 526.68 1397.14C526.45 1396.86 529.15 1373.72 532.66 1345.71C536.18 1317.69 539.06 1294.44 539.07 1294.02C539.07 1293.61 543.23 1289.6 548.31 1285.12C553.39 1280.63 559.32 1275.35 561.49 1273.38L565.44 1269.81C556.58 1234.2 554.01 1222.86 554.03 1221.62C554.04 1219.99 554.53 1219.49 555.8 1219.81C556.76 1220.05 560.26 1221.28 563.59 1222.56C566.91 1223.83 574.89 1228.13 581.31 1232.11C587.73 1236.09 593.22 1239.24 593.51 1239.1C593.79 1238.96 591.29 1231.88 587.94 1223.37L581.84 1207.89L536.58 1191.81C523.86 1174.86 520.15 1169.6 520.14 1169.19C520.12 1168.78 519 1167.21 517.65 1165.7C516.3 1164.19 513.88 1161.38 512.28 1159.45L509.36 1155.96C494.56 1170.58 493.48 1171.31 492.16 1170.01C491.33 1169.2 488.41 1165.61 485.67 1162.04C482.92 1158.46 480.34 1155.52 479.93 1155.5C479.52 1155.48 474.35 1158.1 468.45 1161.32C462.55 1164.54 453.79 1169.26 448.98 1171.8C444.18 1174.35 440.03 1176.32 439.76 1176.18C439.5 1176.04 441.12 1169.64 443.38 1161.95C445.63 1154.26 447.98 1147.45 448.6 1146.81C449.22 1146.17 458.49 1142.93 469.2 1139.62C482.92 1135.36 491.75 1131.96 499.15 1128.08L509.63 1122.57C502.66 1122.39 499.52 1122.16 498.15 1121.95C496.77 1121.74 487.79 1120.89 478.18 1120.06C468.57 1119.23 454.87 1118.05 447.73 1117.43L434.76 1116.3C406.9 1098.39 396.57 1091.75 393.83 1089.99L388.83 1086.78C403.53 1081.71 410.16 1079.41 413.04 1078.4C415.93 1077.39 418.28 1076 418.28 1075.32C418.28 1074.57 422.61 1072.92 429.01 1071.22C434.92 1069.66 444.69 1067.35 450.73 1066.08C460.8 1063.98 462.99 1063.86 477.18 1064.63C485.69 1065.09 501.87 1065.95 513.12 1066.55C524.38 1067.14 546.84 1068.29 563.04 1069.09C581.11 1069.99 594.61 1071.12 597.98 1072.02C601 1072.82 603.59 1073.39 603.74 1073.27C603.89 1073.16 603.44 1070.92 602.74 1068.3C601.62 1064.1 600.99 1063.34 597.48 1061.96C595.28 1061.09 588.21 1058.41 581.75 1055.99C575.3 1053.57 569.24 1051.6 568.28 1051.61C567.32 1051.62 552.38 1047.07 535.08 1041.5L503.64 1031.38C486.62 1033.14 473.59 1034.49 463.71 1035.52C453.82 1036.54 444.39 1037.27 442.74 1037.14C441.09 1037 435.16 1034.24 429.55 1031.01C423.94 1027.78 419.59 1024.91 419.89 1024.63C420.19 1024.36 425.9 1022.76 432.59 1021.09C439.27 1019.42 444.81 1017.62 444.9 1017.1C444.99 1016.57 446.94 1009.85 449.24 1002.16C451.55 994.47 453.72 987.84 454.08 987.42C454.43 987 456.7 991.27 459.12 996.91C461.54 1002.55 463.78 1007.46 464.11 1007.84C464.44 1008.21 473.46 1008.61 484.17 1008.74L503.64 1008.96C547.74 1018.88 562.79 1021.73 565.53 1021.71C568.28 1021.68 586.25 1022.33 605.46 1023.15C624.68 1023.98 640.68 1024.98 641.02 1025.39C641.36 1025.8 646.81 1034.45 653.12 1044.61C659.44 1054.77 666.46 1066.12 668.73 1069.82C670.99 1073.53 672.85 1076.68 672.84 1076.81C672.84 1076.95 665.99 1076.52 657.62 1075.87C649.25 1075.21 640.27 1074.53 637.67 1074.37C635.07 1074.2 632.93 1074.4 632.93 1074.82C632.92 1075.23 637.22 1079.05 642.47 1083.31C647.73 1087.56 653.01 1091.83 654.2 1092.79C655.4 1093.75 666.48 1098.59 678.84 1103.55C691.19 1108.51 701.75 1112.56 702.3 1112.54C702.85 1112.53 713.85 1106.21 726.76 1098.49C739.66 1090.77 750.52 1084.14 750.88 1083.76C751.25 1083.37 748.66 1076.54 745.13 1068.58C739.62 1056.14 737.9 1053.27 732.98 1048.27C729.83 1045.06 721.94 1037.87 715.44 1032.29C708.95 1026.7 703.33 1022.05 702.96 1021.95C702.6 1021.84 699.43 1025.44 695.92 1029.94L689.55 1038.12L676.34 1014.56C668.61 1014.6 651.09 1013.95 632.42 1013.15C613.75 1012.34 597.69 1011.67 596.73 1011.67C595.52 1011.66 593.44 1008.58 589.99 1001.66L585 991.68L610.45 991.69C578.73 970.93 562.11 960.06 553.05 954.13C543.99 948.21 536.48 943.34 536.36 943.3C536.25 943.27 534.66 935.83 532.84 926.76L529.52 910.29C504.05 945.54 496.59 955.65 496.52 955.5C496.45 955.35 494.08 947.59 491.25 938.25C488.43 928.91 485.57 920.78 484.89 920.18C484.22 919.59 479.4 917.87 474.19 916.37C468 914.59 463.66 913.86 461.71 914.28C460.06 914.63 450.85 916.7 441.24 918.87C431.64 921.05 423.46 922.7 423.07 922.55C422.69 922.4 428.87 913.62 436.8 903.05L451.23 883.82C444.65 881.59 431.17 876.65 417.04 871.4C402.9 866.15 390.77 861.86 390.08 861.87C389.22 861.89 389.04 861.05 389.52 859.13C389.9 857.6 400.62 821.75 413.34 779.46C426.07 737.17 436.8 701.44 437.18 700.07C437.58 698.63 435.86 683.39 433.11 664.11C430.49 645.71 428.35 630.21 428.35 629.66C428.34 629.11 432.6 623.72 437.81 617.68C443.01 611.63 447.15 606.22 447 605.65C446.86 605.08 438.87 591.7 429.26 575.93L411.79 547.25C404.44 561.97 401.97 566.23 401.56 566.22C401.15 566.2 396.77 562.74 391.83 558.54C386.89 554.33 382.51 550.3 382.1 549.58C381.68 548.86 380.9 548.27 380.35 548.27C379.8 548.27 369.8 540.72 358.14 531.5L336.92 514.72C314.49 507.22 305.05 503.58 301.48 501.78C296.12 499.09 291.45 497.92 274.53 495.06C256.72 492.05 253.16 491.13 247.08 487.99C241.45 485.09 235.52 483.41 216.63 479.34C203.73 476.56 177.45 470.92 158.23 466.81C139.01 462.7 122.76 459.16 122.11 458.95C121.46 458.73 116.74 462.18 111.63 466.6Z" />
		<path id="Path 5" class="shp1" d="M763.19 489.4C749.47 491.52 730.6 494.41 721.26 495.81C711.93 497.21 697.47 499.36 689.13 500.59C680.8 501.82 674.2 503.05 674.47 503.33C674.74 503.6 681.57 503.24 689.63 502.53C697.7 501.81 705.87 501.05 707.79 500.83C709.71 500.62 726.33 499.23 744.72 497.75L778.17 495.07C816.08 509.21 827.18 513.2 827.29 513.06C827.4 512.93 819.46 506.75 809.65 499.33C799.84 491.92 790.99 485.78 789.98 485.69C788.97 485.61 776.92 487.27 763.19 489.4Z" />
		<path id="Path 6" class="shp2" d="M742.73 497.86C728.18 499.11 712.9 500.42 708.79 500.75C704.67 501.09 693.21 502.03 683.33 502.84C673.45 503.66 663.79 504.6 661.87 504.93C659.94 505.26 650.74 508.9 641.4 513C632.07 517.11 616 524.14 605.71 528.63C595.41 533.11 587.32 537.05 587.74 537.37C588.15 537.69 603.77 542.06 622.43 547.09C641.1 552.11 659.41 557.02 663.12 557.99C666.83 558.96 669.86 559.98 669.87 560.25C669.87 560.53 666.83 562.07 663.12 563.68C659.41 565.29 653.68 567.81 650.39 569.27C647.09 570.73 639.9 573.89 634.41 576.31C628.92 578.72 622.66 581.6 620.49 582.71C617.78 584.09 615.56 586.43 613.34 590.21C610.78 594.59 609.62 598.54 607.64 609.69C606.27 617.38 605.33 624.01 605.55 624.42C605.78 624.83 609.89 623.81 614.7 622.16C619.5 620.51 623.77 619.16 624.18 619.16C624.59 619.17 628.52 624.34 632.92 630.66L640.9 642.14C631.62 653.75 628.92 657.46 628.92 657.87C628.91 658.28 638.91 662.92 651.13 668.17L673.35 677.72C717.45 653.22 730.56 645.77 730.95 645.37C731.33 644.97 730.32 638.69 728.7 631.41C727.08 624.13 725.98 617.73 726.26 617.18C726.53 616.62 731.73 618.67 737.99 621.8C744.16 624.89 757.98 631.42 768.68 636.31C788.01 645.13 788.21 645.19 796.14 645.18C801.73 645.18 807.72 644.26 816.1 642.14C822.69 640.46 828.19 638.88 828.33 638.62C828.47 638.36 825.32 636.96 821.34 635.51C817.36 634.05 809.16 630.95 803.12 628.61C797.09 626.27 789.9 623.66 787.15 622.8C784.41 621.94 773.85 618.79 763.69 615.8C753.53 612.8 737.14 608 727.25 605.12C717.37 602.24 707.26 599.31 704.79 598.6C702.32 597.9 697.16 596.39 693.31 595.25C689.47 594.11 686.05 592.84 685.72 592.44C685.39 592.04 681.91 587.1 677.99 581.47C674.06 575.84 670.85 570.79 670.85 570.24C670.85 569.69 673.43 568.74 676.59 568.13C679.75 567.53 690.42 565.26 700.3 563.1C710.18 560.94 726.58 557.35 736.74 555.12C746.9 552.89 758.13 549.97 761.7 548.62C765.26 547.27 774.25 544.2 781.66 541.79C794.59 537.6 795.4 537.46 801.63 538.4C807.35 539.26 809.89 539.01 823.09 536.28C831.33 534.58 840.43 532.65 843.33 531.99C846.22 531.33 848.55 530.57 848.5 530.29C848.45 530.02 844.55 526.65 839.82 522.8C835.1 518.96 830.07 515.18 828.66 514.41C827.24 513.64 815.42 509.04 802.38 504.18C783.89 497.29 777.62 495.37 773.92 495.46C771.32 495.52 757.28 496.6 742.73 497.86Z" />
		<path id="Path 7" class="shp1" d="M1042.18 496.84C1042.19 497.39 1044.48 509.07 1047.28 522.8L1052.35 547.77L1033.23 576.23L1033.73 667.73C1053.07 655.66 1058.96 652.49 1059.29 652.9C1059.62 653.3 1061.11 657.67 1062.59 662.62C1064.07 667.56 1065.63 671.16 1066.06 670.61C1066.49 670.06 1070.29 664.1 1074.49 657.37C1081.82 645.67 1082.03 645.16 1079.4 645.7C1077.89 646 1069.24 647.51 1060.18 649.05C1051.13 650.59 1043.43 651.57 1043.08 651.24C1042.74 650.91 1041.77 634 1040.93 613.68L1039.41 576.73C1054.35 556.69 1058.54 550.18 1058.37 549.32C1058.2 548.47 1054.66 536.31 1050.52 522.3C1046.38 508.3 1042.81 496.61 1042.58 496.34C1042.35 496.06 1042.17 496.29 1042.18 496.84ZM636.91 507.43C628.4 508.48 617.73 509.78 613.2 510.32L604.96 511.32C577.89 540.73 570.03 549.6 570.03 550.02C570.04 550.43 582.17 555.03 596.98 560.25C611.8 565.47 623.92 570.19 623.91 570.74C623.9 571.29 622.55 574.1 620.92 576.98C619.28 579.86 618.17 582.45 618.44 582.72C618.72 583 620.85 582.37 623.18 581.33C625.52 580.28 631.69 577.55 636.91 575.25C642.13 572.95 648.64 570.06 651.38 568.83C654.13 567.6 659.41 565.28 663.12 563.67C666.83 562.07 669.87 560.53 669.87 560.25C669.86 559.98 666.83 558.96 663.12 557.99C659.41 557.02 641.1 552.11 622.43 547.09C603.77 542.06 588.16 537.69 587.75 537.37C587.33 537.05 593.62 533.9 601.72 530.38C609.82 526.85 624.53 520.4 634.41 516.04C644.3 511.68 653.73 507.53 655.38 506.8L658.37 505.49C653.73 505.53 645.42 506.39 636.91 507.43ZM509.75 511.09C509.45 512.59 508.72 517.41 508.13 521.8C507.53 526.2 507.18 529.86 507.34 529.94C507.5 530.02 511.72 528 516.73 525.45L525.83 520.81L510.29 508.37L509.75 511.09ZM339.42 516.67C340.24 517.43 349.56 524.86 360.13 533.16C370.7 541.47 379.58 548.04 379.85 547.77C380.12 547.5 376.42 540.72 371.61 532.71C365.81 523.04 362.21 518.02 360.88 517.76C359.78 517.54 355.4 516.9 351.15 516.33C346.89 515.77 342.18 515.31 340.67 515.3C338.27 515.29 338.11 515.47 339.42 516.67Z" />
		<path id="Path 8" class="shp0" d="M63.03 526.3C62.98 528.77 64.25 553.71 65.86 581.72L68.78 632.66C75.43 639.26 77.59 641.18 77.87 641.18C78.14 641.18 79.11 637.69 80.03 633.43L81.68 625.67C67.91 547.5 63.74 524.13 63.52 523.3C63.3 522.48 63.08 523.83 63.03 526.3Z" />
		<path id="Path 9" class="shp1" d="M829.89 534.89C814.33 538.32 811.71 539.13 814.61 539.66C816.53 540.02 828.66 541.65 841.56 543.29C854.46 544.93 865.69 546.26 866.52 546.25C867.6 546.23 867.41 545.75 865.84 544.5C864.65 543.55 860.3 540.07 856.17 536.77L848.66 530.76L829.89 534.89ZM405.25 540.08C398.38 543.21 390.41 546.78 387.55 548.02L382.35 550.27C396.66 562.6 401.15 566.2 401.56 566.21C401.97 566.23 404.44 561.97 407.05 556.75L411.79 547.25C438.87 591.7 446.86 605.08 447 605.65C447.15 606.22 443.01 611.63 437.81 617.68C432.6 623.72 428.34 629.11 428.35 629.66C428.35 630.21 430.49 645.71 433.11 664.11C435.86 683.39 437.58 698.63 437.18 700.07C436.8 701.44 426.07 737.17 413.34 779.46C400.62 821.75 389.9 857.6 389.52 859.13C389.04 861.05 389.22 861.89 390.08 861.87C390.77 861.86 402.9 866.15 417.04 871.4C431.17 876.65 444.65 881.59 446.98 882.38L451.23 883.82C428.9 913.62 422.5 922.41 422.59 922.58C422.69 922.75 430.28 921.18 439.46 919.09C448.63 916.99 456.05 915.17 455.93 915.03C455.81 914.89 452.43 915.11 448.4 915.53C444.37 915.94 440.91 916.05 440.7 915.78C440.5 915.5 444.79 912.13 450.24 908.29C459.01 902.1 460.15 900.96 460.16 898.3C460.16 896.65 459.62 891.42 458.94 886.67C458.27 881.92 457.49 877.82 457.22 877.56C456.94 877.3 448.23 873.54 437.86 869.22C427.5 864.89 418.75 860.9 418.42 860.35C418.1 859.8 416.42 853.51 414.7 846.37L411.56 833.39C450.08 671.63 461.88 621.97 462.65 618.68L464.04 612.68C429.94 553.86 419.52 536.24 418.89 535.58C418.01 534.66 414.9 535.68 405.25 540.08ZM778.67 542.73C770.16 545.65 761.4 548.77 759.2 549.67C755.79 551.06 755.64 551.23 758.2 550.83C759.85 550.57 771.75 548.04 784.66 545.22C797.56 542.4 808.34 539.93 808.62 539.73C808.89 539.52 806.87 539.08 804.12 538.75C801.38 538.42 798.01 537.99 796.64 537.79C795.26 537.59 787.18 539.81 778.67 542.73ZM1088.11 548.02C1088.1 550.63 1087.44 569.84 1086.64 590.71C1085.85 611.58 1085.18 629.45 1085.17 630.41C1085.15 631.5 1085.89 632.16 1087.14 632.16C1089.11 632.16 1089.14 631.49 1089.14 587.72C1089.14 563.27 1088.91 543.28 1088.64 543.28C1088.36 543.28 1088.13 545.41 1088.11 548.02Z" />
		<path id="Path 10" class="shp0" d="M221.62 564.91C214.21 570.7 208.14 575.83 208.14 576.32C208.14 576.8 221.17 583.74 237.09 591.72C264.64 605.53 266.21 606.19 269.54 605.22C271.46 604.67 281.47 600.95 291.79 596.96L310.54 589.71L285.01 564.22C251.74 557.47 240.51 555.26 238.59 554.95C235.35 554.43 234.14 555.13 221.62 564.91Z" />
		<path id="Path 10 copy" class="shp0" d="M464.7 503.43C457.29 509.22 451.23 514.35 451.23 514.84C451.23 515.32 464.26 522.25 480.18 530.24C507.72 544.05 509.3 544.7 512.62 543.74C514.54 543.18 524.56 539.47 534.87 535.48L553.62 528.23L528.1 502.73C494.83 495.99 483.6 493.78 481.68 493.47C478.43 492.95 477.22 493.65 464.7 503.43Z" />
		<path id="Path 11" class="shp1" d="M729.25 556.69C723.76 557.93 708.6 561.26 695.56 564.09C682.52 566.92 671.62 569.24 671.35 569.24C671.08 569.24 670.85 569.69 670.85 570.24C670.85 570.79 674.06 575.84 677.99 581.47C681.91 587.1 685.39 592.04 685.72 592.44C686.05 592.84 689.47 594.11 693.31 595.25C697.16 596.39 702.55 597.97 705.29 598.75C708.04 599.53 721.74 603.51 735.74 607.59C749.74 611.67 761.3 614.93 761.44 614.84C761.57 614.75 750.34 608.22 736.48 600.33C722.62 592.43 706.46 583.22 700.56 579.85C694.66 576.49 689.83 573.4 689.83 572.99C689.82 572.57 690.38 572.23 691.07 572.22C691.75 572.2 703.77 568.18 717.77 563.28C731.77 558.37 742.33 554.38 741.23 554.4C740.13 554.42 734.74 555.45 729.25 556.69Z" />
		<path id="Path 12" class="shp2" d="M176.32 573.98L169.94 583.72C162.63 571.34 160.44 567.6 160.36 567.43C160.29 567.27 150.34 569.9 138.26 573.29C126.18 576.69 116.08 579.61 115.8 579.8C115.53 579.99 122.35 583.64 130.96 587.92C139.57 592.2 146.47 595.93 146.29 596.21C146.12 596.48 141.88 597.38 136.86 598.2L127.75 599.7L127.78 645.14L143.75 645.14C168.9 617.63 176.96 608.76 177.9 607.67C179.5 605.8 179.44 605.17 176.67 595.71C175.06 590.21 173.73 585.04 173.73 584.22C173.72 583.36 178.17 580.18 184.21 576.73C189.98 573.44 194.7 570.51 194.7 570.24C194.7 569.97 192.22 568.5 189.19 566.99C186.16 565.48 183.47 564.25 183.2 564.25C182.93 564.25 179.84 568.63 176.32 573.98Z" />
		<path id="Path 13" class="shp1" d="M298.27 577.48L310.53 589.71C278.7 602.1 270.04 605.97 270.75 606.3C271.46 606.64 276.08 607.45 281.02 608.11C285.96 608.77 290.9 608.98 292 608.58C293.1 608.18 296.02 606.49 298.49 604.83C300.96 603.17 309.27 599.31 316.96 596.25C324.64 593.19 331.16 590.32 331.43 589.88C331.71 589.43 329.69 587.83 326.94 586.32C324.19 584.81 314.2 579.45 304.73 574.41C295.26 569.37 287.17 565.24 286.76 565.24C286.35 565.24 291.53 570.74 298.27 577.48Z" />
		<path id="Path 14" class="shp3" d="M1032.69 622.17C1032.69 647.71 1032.82 658.05 1032.98 645.14C1033.14 632.23 1033.14 611.33 1032.98 598.7C1032.82 586.07 1032.69 596.63 1032.69 622.17Z" />
		<path id="Path 15" class="shp1" d="M603.16 609.72L597.98 619.17C602.96 622.83 604.4 623.3 604.88 622.67C605.3 622.12 606.39 617.03 607.31 611.36C608.23 605.69 608.83 600.87 608.66 600.65C608.48 600.43 606 604.51 603.16 609.72Z" />
		<path id="Path 16" class="shp0" d="M296.56 606.05C294.34 607.5 292.52 608.91 292.52 609.19C292.52 609.46 297.12 611.6 302.74 613.93C308.37 616.27 313.09 618.07 313.24 617.93C313.39 617.79 312.94 615.25 312.24 612.29C310.99 607 310.87 606.87 305.79 605.16L300.61 603.41L296.56 606.05Z" />
		<path id="Path 17" class="shp1" d="M311.47 608.19C311.47 608.74 312.03 611.44 312.71 614.2C313.4 616.95 314.19 619.2 314.46 619.19C314.74 619.18 318.78 618.49 323.45 617.65C328.11 616.81 332.05 616.03 332.19 615.9C332.34 615.78 330.76 614.94 328.7 614.04C326.63 613.13 322.36 611.22 319.2 609.79C316.05 608.36 313.01 607.19 312.46 607.19C311.92 607.19 311.47 607.64 311.47 608.19ZM614.45 622.08L606.46 624.83C631.96 643.62 634.15 645.62 632.88 646.53C632.04 647.14 626.29 651.46 620.11 656.13C613.93 660.79 608.88 664.84 608.89 665.11C608.9 665.39 618 675.27 629.11 687.08C640.23 698.89 653.38 712.69 658.34 717.74L667.36 726.92C694.44 729.33 702.36 729.92 702.44 729.78C702.51 729.64 703.09 723.91 703.71 717.04C704.33 710.18 705.16 702.17 705.56 699.24L706.29 693.92C722.99 684.37 727.83 681.37 727.82 681.09C727.81 680.82 722.86 676.32 716.81 671.11L705.83 661.62C710.5 658.52 711.61 657.51 711.32 657.37C711.02 657.24 702.36 661.76 692.06 667.42L673.35 677.73C638.91 662.92 628.91 658.28 628.92 657.87C628.92 657.46 631.62 653.75 634.91 649.63L640.9 642.14C628.52 624.34 624.37 619.21 623.68 619.25C623 619.3 618.84 620.57 614.45 622.08Z" />
		<path id="Path 18" class="shp0" d="M284.49 631.41C286.13 637.59 287.49 643.32 287.52 644.14C287.56 645.11 283.78 647.29 276.81 650.31C270.89 652.88 262.45 656.4 258.06 658.14C253.67 659.87 249.95 661.37 249.79 661.45C249.64 661.54 253.46 664.95 258.28 669.02C263.1 673.09 267.49 676.77 268.04 677.19C268.64 677.65 266.55 680.98 262.8 685.52C259.37 689.67 256.67 693.29 256.81 693.55C256.95 693.81 260.43 694.7 264.55 695.53C268.66 696.36 272.26 697.28 272.53 697.58C272.81 697.88 263.26 698.11 251.32 698.1L229.61 698.07L229.61 723.04C267.71 723.04 268.83 722.92 275.28 720.41C278.98 718.97 282.34 717.51 282.74 717.17C283.14 716.83 279.89 705.76 275.53 692.58C268.64 671.78 267.82 668.57 269.31 668.32C270.26 668.17 275.3 668.69 280.52 669.48C287.69 670.56 290.28 670.63 291.13 669.76C291.75 669.13 296.79 661.42 302.33 652.63C307.87 643.84 312.48 636.35 312.57 635.99C312.66 635.63 306.06 632.03 297.91 628C289.76 623.97 282.73 620.56 282.3 620.42C281.87 620.29 282.86 625.23 284.49 631.41Z" />
		<path id="Path 19" class="shp1" d="M800.63 627.56C800.9 627.8 806.74 630.1 813.61 632.66C820.47 635.22 826.76 637.68 827.58 638.12C828.82 638.78 828.73 639.02 827.08 639.46C825.99 639.76 821.04 640.99 816.1 642.19C811.16 643.39 806.67 644.62 806.12 644.92C805.57 645.22 815 648.31 827.08 651.78C839.16 655.26 849.16 658.1 849.3 658.11C849.43 658.12 849.55 654.53 849.55 650.13L849.55 642.14C824.4 634.29 813.73 630.91 809.61 629.56C805.5 628.22 801.68 627.12 801.13 627.11C800.58 627.11 800.35 627.31 800.63 627.56ZM752.81 629.6C752.76 629.91 755.22 634.54 758.28 639.9C761.34 645.25 764.26 650.08 764.76 650.63C765.36 651.29 769 650.66 775.41 648.78C780.77 647.22 785.49 645.64 785.9 645.29C786.3 644.93 779.34 641.3 770.42 637.22C761.5 633.14 753.92 629.63 753.56 629.42C753.21 629.21 752.87 629.29 752.81 629.6ZM24.96 648.6L6.49 654.9C13.45 658.07 18.62 660.32 22.46 661.94L29.45 664.89C31.87 661.58 35.35 656.69 38.75 651.88C42.14 647.07 44.92 642.92 44.92 642.64C44.92 642.37 44.59 642.18 44.17 642.22C43.76 642.27 35.11 645.14 24.96 648.6Z" />
		<path id="Path 20" class="shp2" d="M157.16 648.7C148.41 652.21 141.15 655.09 141.01 655.1C140.87 655.12 143.57 658.51 147 662.64C150.43 666.77 154.08 671.16 155.1 672.38C156.95 674.59 156.92 674.68 147.36 690.83C142.08 699.75 137.88 707.21 138.01 707.41C138.15 707.6 149.38 710.52 162.97 713.9C176.56 717.28 188.02 720.04 188.43 720.05C188.84 720.05 184.23 715.1 178.19 709.05C172.16 703.01 166.99 698.06 166.71 698.06C166.44 698.05 163.86 699.85 160.97 702.06C158.09 704.26 155.28 706.06 154.74 706.06C154.19 706.06 155.87 699.78 158.48 692.11L163.22 678.16C170.96 677.34 178.96 676.54 186 675.85L198.8 674.6C179.22 649.83 173.43 642.57 173.3 642.48C173.17 642.4 165.91 645.2 157.16 648.7Z" />
		<path id="Path 21" class="shp1" d="M1118.24 721.79C1118.33 758.56 1118.67 776.86 1119.11 769.47C1119.51 762.88 1120.14 751.2 1120.51 743.51C1120.87 735.82 1121.36 727.5 1121.58 725.03C1121.81 722.56 1122.52 708.63 1123.17 694.07C1123.82 679.52 1124.62 667.28 1124.96 666.87C1125.3 666.47 1128.94 669.51 1133.06 673.63L1140.55 681.13C1140.12 689.23 1139.83 692.48 1139.63 693.58C1139.42 694.67 1139.01 700.74 1138.7 707.06C1138.32 714.99 1139.02 710.35 1140.98 692.08C1142.54 677.52 1143.75 665.52 1143.68 665.41C1143.6 665.3 1138.38 664.51 1132.06 663.67C1125.75 662.82 1120.02 662.13 1119.33 662.13C1118.35 662.12 1118.12 674.63 1118.24 721.79Z" />
		<path id="Path 22" class="shp2" d="M1124.72 667.11C1124.46 667.93 1123.74 680.07 1123.13 694.07C1122.51 708.08 1121.81 722.24 1121.57 725.53C1121.34 728.83 1120.89 736.47 1120.59 742.51C1120.28 748.55 1119.6 762.03 1119.07 772.47C1118.54 782.91 1118.1 798.97 1118.09 808.17L1118.09 824.9C1125.66 829.95 1127.2 830.5 1127.48 829.64C1127.71 828.96 1129.56 808.85 1131.59 784.95C1133.62 761.06 1135.43 740.61 1135.61 739.51C1135.79 738.42 1136.65 728.98 1137.52 718.54C1138.39 708.11 1139.34 696.2 1139.65 692.08C1139.95 687.96 1140.39 684.03 1140.62 683.34C1140.85 682.65 1137.48 678.38 1133.12 673.85C1127.62 668.14 1125.04 666.07 1124.72 667.11Z" />
		<path id="Path 23" class="shp0" d="M68.47 677.1C68.18 680.12 67.48 692.25 66.91 704.06C66.35 715.87 65.89 728.12 65.89 731.27L65.89 737.02L81.86 737.02L81.88 684.59L69 671.6L68.47 677.1Z" />
		<path id="Path 24" class="shp3" d="M248.32 696.8L228.61 697.07L228.61 724.03L270.04 723.58L229.61 723.04L229.61 698.07C265.71 698.04 272.53 697.71 271.54 697.07C270.71 696.54 269.59 696.2 269.04 696.31C268.49 696.43 259.17 696.65 248.32 696.8Z" />
		<path id="Path 25" class="shp0" d="M120.77 758.24L120.75 795.44C142.83 800.57 149.52 802.37 149.86 802.74C150.21 803.12 151.1 810.91 151.86 820.06C152.62 829.21 153.61 837.07 154.05 837.54C154.5 838 163.04 837.67 173.02 836.79C183 835.92 191.28 835.36 191.42 835.55C191.56 835.73 183.81 841.17 174.2 847.62C164.59 854.07 156.84 859.46 156.98 859.59C157.12 859.72 160.6 858.72 164.72 857.36C168.84 856 172.34 854.99 172.51 855.12C172.68 855.25 170.97 861.65 168.71 869.34C166.46 877.03 164.34 884.22 164 885.32C163.57 886.74 165.39 885.74 170.29 881.84C174.09 878.83 181.46 872.81 186.68 868.45C191.9 864.09 196.84 859.92 197.66 859.18C198.94 858.02 200.6 858.79 209.14 864.48C215.49 868.71 218.82 870.44 218.27 869.24C217.81 868.2 216.33 864.42 214.99 860.85C213.66 857.28 212.92 854.09 213.35 853.75C213.78 853.42 220.2 848.75 227.61 843.37C235.02 838 243.33 831.96 246.08 829.94C248.82 827.93 253.19 824.73 255.78 822.84C258.37 820.95 260.51 819.18 260.54 818.91C260.56 818.63 257.99 817.13 254.83 815.57C250.63 813.5 249.48 812.53 250.57 811.96C251.39 811.54 257.17 809.9 263.39 808.31L274.72 805.43C273.82 796.91 273.05 787.48 272.43 778.96C271.81 770.45 271.24 763.41 271.17 763.32C271.1 763.23 263.85 762.64 255.06 762.01C246.28 761.38 230.56 760.23 220.12 759.45C209.69 758.67 195.54 757.71 188.68 757.31L176.2 756.58C134.03 729.04 121.57 721.04 121.29 721.04C121.02 721.04 120.78 737.78 120.77 758.24Z" />
		<path id="Path 26" class="shp1" d="M1034.98 766.15C1032.38 769.62 1030.36 772.58 1030.5 772.72C1030.63 772.85 1033.88 772.32 1037.72 771.54C1041.57 770.76 1044.94 770.34 1045.21 770.6C1045.48 770.86 1045.09 775.43 1044.33 780.76C1043.57 786.09 1042.78 790.78 1042.58 791.2C1042.38 791.61 1038.96 789.95 1034.98 787.52C1031 785.09 1027.6 783.18 1027.42 783.28C1027.24 783.38 1029.04 793.68 1031.41 806.17C1033.78 818.67 1035.95 828.89 1036.23 828.89C1036.5 828.89 1040.24 816.19 1044.53 800.68L1052.33 772.47L1039.71 759.82L1034.98 766.15Z" />
		<path id="Path 27" class="shp2" d="M1042.71 770.49C1042.17 770.68 1039.13 771.32 1035.98 771.91C1031.09 772.81 1030.08 773.38 1029.18 775.72C1028.6 777.23 1027.88 779.36 1027.58 780.46C1027.14 782.09 1028.44 783.33 1034.63 787.2C1039.68 790.36 1042.36 791.53 1042.64 790.7C1042.87 790.01 1043.54 785.96 1044.13 781.71C1044.73 777.45 1045.21 773.07 1045.21 771.97C1045.21 770.87 1044.87 770.01 1044.46 770.05C1044.05 770.1 1043.26 770.29 1042.71 770.49Z" />
		<path id="Path 28" class="shp0" d="M65.97 775.97C65.94 776.79 67.25 787.35 68.89 799.43C70.53 811.52 71.88 821.52 71.88 821.65C71.88 821.79 74.68 820.5 78.12 818.79C81.55 817.08 84.47 815.62 84.6 815.54C84.74 815.47 81.43 808 77.25 798.93C73.07 789.87 68.84 780.66 67.84 778.46C66.84 776.26 66 775.14 65.97 775.97Z" />
		<path id="Path 29" class="shp1" d="M1069.89 847.87C1063.45 861.6 1058.17 873.4 1058.15 874.08C1058.14 874.77 1063.41 868.66 1069.88 860.5L1081.65 845.68L1082.65 862.95C1096.15 835.85 1097.8 831.68 1096.87 831.05C1096.19 830.59 1092.93 828.59 1089.63 826.59C1086.34 824.6 1083.18 822.95 1082.62 822.94C1082.05 822.92 1076.32 834.14 1069.89 847.87ZM1118.1 825.39C1118.09 825.67 1116.28 833.65 1114.07 843.13C1111.86 852.6 1110.17 860.98 1110.32 861.76C1110.48 862.53 1113.24 858.26 1116.47 852.27C1119.71 846.28 1123.61 839.13 1125.16 836.38L1127.96 831.39C1120.33 826.35 1118.11 825.11 1118.1 825.39Z" />
		<path id="Path 30" class="shp2" d="M302.33 858.65C299.78 872.22 297.76 883.43 297.84 883.57C297.92 883.7 301.46 882.35 305.69 880.57C309.93 878.79 313.59 877.55 313.82 877.83C314.05 878.1 317.02 888.89 320.41 901.8C323.8 914.71 326.77 925.38 327.01 925.52C327.25 925.65 332.34 921.61 338.32 916.53L349.2 907.29L329.94 900.57C313.11 850.05 307.95 835.07 307.6 834.69C307.26 834.3 304.89 845.09 302.33 858.65ZM1069.92 860.37C1064.02 867.77 1059.3 874.08 1059.44 874.38C1059.57 874.67 1064.52 872.54 1070.42 869.63L1081.16 864.35C1081.15 850.8 1081.04 846.88 1080.9 846.88C1080.76 846.89 1075.82 852.96 1069.92 860.37Z" />
		<path id="Path 31" class="shp1" d="M545.82 859.73L559.06 861.35C575.57 886.15 577.56 889.81 576.26 889.8C575.3 889.79 572.27 889.11 569.52 888.29C566.78 887.47 556.45 884.81 546.56 882.39C536.68 879.97 528.48 878.06 528.35 878.16C528.21 878.25 536.97 883.82 547.82 890.54C558.66 897.25 568.09 902.75 568.78 902.77C569.46 902.78 573.39 900.77 577.51 898.3L585 893.81C578.78 882.59 574.4 874.5 571.25 868.6L565.53 857.88L532.59 858.11L545.82 859.73Z" />
		<path id="Path 32" class="shp2" d="M529.77 859.6C529.55 860.02 528.74 864.04 527.98 868.55C527.22 873.06 526.82 876.96 527.1 877.23C527.37 877.49 535.91 879.75 546.06 882.25C556.22 884.75 566.78 887.47 569.52 888.29C572.27 889.11 575.3 889.79 576.26 889.8C577.56 889.81 575.58 886.16 568.55 875.58L559.09 861.35C542.42 859.41 535.92 858.85 533.88 858.85C531.85 858.85 530 859.19 529.77 859.6Z" />
		<path id="Path 33" class="shp0" d="M183.03 885.57C184.68 891.47 186.18 896.42 186.36 896.55C186.53 896.69 190.25 894.67 194.62 892.06C198.98 889.45 202.47 887.27 202.36 887.21C202.24 887.14 197.32 884.34 191.42 880.96C185.52 877.59 180.54 874.83 180.36 874.83C180.17 874.83 181.38 879.66 183.03 885.57Z" />
		<path id="Path 34" class="shp1" d="M513.11 913.63L496.65 923.41C489.36 920.98 487.01 920.5 486.72 920.77C486.44 921.05 488.49 928.91 491.29 938.25C494.1 947.59 496.45 955.35 496.52 955.5C496.59 955.65 504.05 945.54 513.09 933.03L529.52 910.29C534.66 935.83 536.25 943.27 536.36 943.3C536.48 943.34 543.99 948.21 553.05 954.13C562.11 960.06 578.73 970.93 589.99 978.3L610.45 991.69L585 991.68C593.44 1008.58 595.52 1011.66 596.73 1011.67C597.69 1011.67 613.75 1012.34 632.42 1013.15C651.09 1013.95 668.61 1014.6 671.35 1014.58L676.34 1014.56L689.55 1038.12C699.43 1025.43 702.52 1021.74 702.8 1021.73C703.07 1021.72 708.01 1025.74 713.78 1030.67C719.54 1035.6 724.48 1039.4 724.76 1039.11C725.03 1038.82 723.96 1033.53 722.38 1027.36C720.8 1021.19 719.23 1015.84 718.89 1015.46C718.55 1015.08 710.18 1012.68 700.3 1010.12C690.42 1007.56 672.9 1003.03 661.37 1000.05C649.84 997.07 632.32 992.58 622.43 990.08L604.46 985.51C592.86 972.78 576.96 955.4 561.65 938.69C546.34 921.97 532.86 907.29 531.69 906.07L529.57 903.86L513.11 913.63ZM474.19 916.32C478.31 917.62 482.69 918.93 483.92 919.23C486.02 919.74 486.1 919.58 485.17 916.78L484.17 913.78L466.7 913.94L474.19 916.32Z" />
		<path id="Path 35" class="shp2" d="M70.03 940.54C63.86 953.01 58.94 963.26 59.11 963.32C59.27 963.38 63.55 964.84 68.63 966.57C75.43 968.88 77.98 969.38 78.29 968.46C78.53 967.77 79.38 956.2 80.2 942.74C81.01 929.29 81.58 918.19 81.46 918.07C81.35 917.96 76.2 928.08 70.03 940.54Z" />
		<path id="Path 36" class="shp0" d="M95.22 928.26C95.55 931.01 96.32 938.87 96.93 945.74C97.55 952.6 98.23 958.33 98.44 958.47C98.66 958.61 102.03 956.81 105.95 954.48C109.86 952.14 113.23 949.9 113.44 949.48C113.64 949.07 109.49 943.01 104.22 936L94.63 923.27L95.22 928.26Z" />
		<path id="Path 37" class="shp1" d="M394.32 945.57C379.92 955.82 368.76 964.37 369.5 964.56C370.25 964.76 376.34 963.63 383.04 962.07C389.74 960.5 395.38 959.45 395.59 959.72C395.79 960 398.72 969.43 402.09 980.69C405.47 991.95 408.14 1001.25 408.02 1001.36C407.9 1001.47 402.41 999.54 395.82 997.08C389.23 994.61 383.62 992.86 383.34 993.18C383.07 993.51 384.11 997.68 385.66 1002.46C387.22 1007.24 388.11 1011.46 387.66 1011.83C387.21 1012.2 379.65 1015.06 370.86 1018.19C362.08 1021.32 354.44 1024.25 353.89 1024.7C353.26 1025.21 354 1027.2 355.89 1030.1C358.18 1033.6 359.36 1034.57 360.88 1034.2C361.98 1033.93 375.23 1030.96 390.33 1027.59C405.43 1024.23 417.87 1021.4 417.98 1021.31C418.08 1021.21 418.9 1001.59 419.8 977.7C420.7 953.8 421.22 932.6 420.96 930.59L420.49 926.92L394.32 945.57ZM453.92 987.79C453.53 988.56 451.31 995.57 448.98 1003.38C446.65 1011.2 445.19 1017.6 445.74 1017.61C446.29 1017.63 455.72 1016.1 466.7 1014.23C477.68 1012.36 489.36 1010.45 492.66 1009.99C497.75 1009.28 496.06 1009.08 481.35 1008.66L464.05 1008.16C457.09 991.9 454.97 987.01 454.84 986.79C454.72 986.58 454.3 987.02 453.92 987.79ZM322.6 1002.66C318.67 1008.16 315.57 1012.91 315.71 1013.22C315.85 1013.53 323.94 1011.17 333.68 1007.98C343.43 1004.78 351.4 1001.94 351.39 1001.66C351.39 1001.39 346.78 999.25 341.16 996.91C335.53 994.56 330.67 992.65 330.34 992.66C330.01 992.67 326.53 997.17 322.6 1002.66Z" />
		<path id="Path 38" class="shp0" d="M495.15 1009.78C491.03 1010.25 478.23 1012.25 466.7 1014.22C455.17 1016.2 445.4 1018 444.99 1018.23C444.58 1018.45 443.76 1021.9 443.17 1025.88C442.58 1029.86 441.9 1033.91 441.67 1034.87C441.37 1036.09 441.84 1036.62 443.24 1036.62C444.34 1036.62 457.7 1033.21 472.94 1029.05L500.64 1021.48C525.4 1032.39 539.33 1038.53 547.56 1042.16C555.8 1045.8 571.3 1052.14 582 1056.27C592.71 1060.39 602.82 1063.95 604.46 1064.19C606.11 1064.43 616.22 1065.25 626.93 1066.01C637.63 1066.78 646.52 1067.33 646.67 1067.24C646.82 1067.15 645.57 1059.21 643.9 1049.6C642.22 1039.99 640.75 1032.01 640.63 1031.88C640.5 1031.75 636.25 1034.33 631.17 1037.62C626.09 1040.91 621.37 1043.61 620.69 1043.61C620 1043.61 614.95 1041.88 609.46 1039.76C603.97 1037.65 593.41 1033.56 586 1030.67C578.58 1027.79 571.62 1024.96 570.52 1024.39C569.42 1023.83 553.85 1020.05 535.9 1016.01C517.96 1011.96 503.13 1008.71 502.96 1008.78C502.78 1008.86 499.27 1009.3 495.15 1009.78Z" />
		<path id="Path 39" class="shp1" d="M430.6 1021.49C425.02 1022.94 420.2 1024.36 419.9 1024.63C419.59 1024.91 424.16 1027.91 430.05 1031.3C435.93 1034.7 440.85 1037.39 440.97 1037.29C441.09 1037.2 441.88 1033.3 442.71 1028.63C443.55 1023.96 444.24 1019.8 444.24 1019.39C444.24 1018.98 443.45 1018.69 442.49 1018.74C441.53 1018.8 436.18 1020.03 430.6 1021.49ZM481.68 1026.52C472.34 1029.14 460.11 1032.59 454.49 1034.2C448.87 1035.8 444.38 1037.22 444.5 1037.34C444.63 1037.46 453.05 1036.67 463.21 1035.6C473.36 1034.53 486.62 1033.14 492.66 1032.52L503.64 1031.38C553.15 1047.19 567.62 1051.62 567.74 1051.44C567.85 1051.25 561.56 1048.31 553.76 1044.89C545.96 1041.48 530.82 1034.84 520.11 1030.14C509.4 1025.44 500.19 1021.63 499.64 1021.68C499.1 1021.73 491.01 1023.91 481.68 1026.52ZM568.03 1023.53C570.5 1024.52 578.58 1027.71 586 1030.62C593.41 1033.54 603.97 1037.65 609.46 1039.76C614.95 1041.88 620 1043.61 620.69 1043.61C621.37 1043.61 626.09 1040.91 631.17 1037.62C636.25 1034.33 640.5 1031.75 640.63 1031.88C640.75 1032.01 642.22 1039.99 643.9 1049.6C645.57 1059.21 646.82 1067.14 646.67 1067.22C646.52 1067.31 636.65 1066.63 624.75 1065.73C612.85 1064.82 602.88 1064.31 602.59 1064.58C602.31 1064.86 602.62 1067 603.27 1069.36C604.45 1073.56 604.59 1073.67 611.95 1076.01C616.07 1077.32 624.83 1080.02 631.42 1082.02C638.01 1084.02 643.73 1085.52 644.14 1085.36C644.54 1085.19 642.18 1082.92 638.9 1080.31C635.61 1077.7 632.92 1075.23 632.93 1074.82C632.93 1074.4 635.07 1074.2 637.67 1074.37C640.27 1074.53 649.25 1075.21 657.62 1075.87C665.99 1076.52 672.84 1076.95 672.84 1076.81C672.85 1076.68 670.99 1073.53 668.73 1069.82C666.46 1066.12 659.44 1054.77 653.12 1044.61C646.81 1034.45 641.36 1025.8 641.02 1025.39C640.68 1024.98 624.9 1023.98 605.96 1023.16C587.02 1022.34 569.72 1021.68 567.53 1021.7L563.54 1021.73L568.03 1023.53Z" />
		<path id="Path 40" class="shp0" d="M342.67 1035.42C337.04 1040.75 332.44 1045.44 332.44 1045.86C332.43 1046.27 336.14 1045.34 340.67 1043.79C345.2 1042.24 351.04 1039.54 353.64 1037.8C356.25 1036.05 358.39 1034.4 358.39 1034.12C358.39 1033.85 357.33 1031.82 356.04 1029.63C354.75 1027.43 353.51 1025.66 353.29 1025.68C353.07 1025.71 348.29 1030.09 342.67 1035.42Z" />
		<path id="Path 41" fill-rule="evenodd" class="shp1" d="M739.41 1054.59C739.59 1054.59 744.34 1057.26 749.97 1060.51C755.59 1063.77 760.2 1067.04 760.2 1067.77C760.2 1068.51 758.4 1072.13 756.21 1075.81C754.01 1079.5 751.99 1082.53 751.71 1082.53C751.44 1082.54 748.49 1076.26 745.15 1068.57C741.82 1060.88 739.23 1054.59 739.41 1054.59ZM417.54 1076.67C417.95 1076.61 418.28 1080.38 418.28 1093.54L444.74 1113.24L499.15 1115.96C529.07 1117.45 556.66 1118.97 567.36 1120.01L533 1130.86C514.11 1136.83 498.34 1141.99 497.96 1142.34C497.59 1142.69 500.06 1145.89 509.63 1155.91L504.07 1161.43C501.01 1164.46 497.3 1167.96 493.16 1171.44L487.17 1163.95C483.87 1159.83 481.29 1156.21 481.43 1155.91C481.56 1155.61 484.93 1156.73 488.91 1158.4C496.1 1161.43 496.15 1161.43 495.64 1159.2C495.36 1157.97 494.01 1151.79 492.63 1145.47C491.26 1139.16 490.14 1133.65 490.15 1133.24C490.16 1132.83 494.54 1130.27 509.63 1122.61L505.14 1122.47C502.66 1122.4 499.52 1122.16 498.15 1121.95C496.77 1121.74 487.79 1120.89 478.18 1120.06C468.57 1119.23 454.87 1118.05 434.76 1116.3L412.11 1101.67C399.65 1093.63 389.55 1086.96 389.65 1086.85C389.75 1086.73 395.9 1084.42 403.31 1081.71C410.72 1079 417.12 1076.73 417.54 1076.67ZM748.85 1085.56C749.19 1085.56 749.23 1086.11 748.93 1086.8C748.63 1087.49 746.25 1091.42 738.91 1103.03L722.6 1107.35C713.63 1109.73 706.21 1111.53 706.11 1111.35C706.01 1111.17 715.44 1105.29 727.07 1098.3C738.7 1091.3 748.5 1085.57 748.85 1085.56ZM660.37 1096.52C660.92 1096.53 670.62 1100.25 702.47 1113.02L689.32 1116.25L675.34 1107.3C667.66 1102.38 660.92 1097.94 660.37 1097.43C659.7 1096.81 659.7 1096.51 660.37 1096.52ZM391.75 1126.5L382.81 1135.45C377.89 1140.38 373.72 1144.31 373.55 1144.19C373.38 1144.07 373.75 1140.6 374.36 1136.48C374.98 1132.37 375.67 1128.43 375.9 1127.75C376.18 1126.89 378.73 1126.5 391.75 1126.5ZM400.2 1126.51C401.09 1126.51 407.43 1127.19 414.29 1128.02C421.15 1128.85 426.87 1129.63 427 1129.76C427.13 1129.89 423.31 1133.24 418.51 1137.2C413.72 1141.16 409.57 1144.18 409.3 1143.9C409.02 1143.63 409.38 1140.61 410.08 1137.2C410.79 1133.78 411.24 1130.9 411.08 1130.79C410.93 1130.68 407.65 1133.04 403.81 1136.04C399.97 1139.05 396.68 1141.39 396.51 1141.24C396.34 1141.1 396.74 1137.72 397.4 1133.74C398.31 1128.23 398.98 1126.5 400.2 1126.51Z" />
		<path id="Path 42" class="shp0" d="M402.78 1136.66L394.91 1142.79C395.23 1159.57 395.55 1164.45 395.82 1164.45C396.1 1164.45 399.1 1160.07 402.5 1154.71C407.15 1147.38 409.01 1143.37 410.01 1138.48C410.74 1134.91 411.18 1131.66 410.99 1131.27C410.8 1130.87 407.11 1133.3 402.78 1136.66ZM469.2 1139.62C458.49 1142.94 449.22 1146.17 448.6 1146.81C447.98 1147.45 445.63 1154.26 443.38 1161.95C441.12 1169.64 439.5 1176.04 439.76 1176.18C440.03 1176.32 444.18 1174.35 448.98 1171.8C453.79 1169.26 462.55 1164.54 468.45 1161.32C474.35 1158.1 479.85 1155.46 480.68 1155.46C481.5 1155.46 485.32 1156.81 489.16 1158.46C496.11 1161.43 496.15 1161.44 495.64 1159.2C495.36 1157.97 494.01 1151.79 492.63 1145.47C491.26 1139.16 490.14 1133.88 490.15 1133.74C490.16 1133.6 489.82 1133.51 489.41 1133.54C489 1133.57 479.9 1136.31 469.2 1139.62Z" />
		<path id="Path 43" class="shp1" d="M549.02 1167.06C543.82 1178.3 539.35 1187.48 539.08 1187.47C538.8 1187.45 534.44 1183.06 529.39 1177.69C524.34 1172.33 520.19 1168.39 520.18 1168.94C520.17 1169.49 523.86 1174.86 528.37 1180.88L536.58 1191.81L581.84 1207.89C591.29 1231.88 593.79 1238.96 593.51 1239.1C593.22 1239.24 587.59 1235.98 581.01 1231.86C574.42 1227.74 568.91 1224.38 568.78 1224.4C568.64 1224.41 572.03 1236.88 576.31 1252.11C580.58 1267.34 583.95 1280.18 583.79 1280.64C583.63 1281.11 576.99 1267.87 569.03 1251.22C561.06 1234.56 554.42 1221.6 554.25 1222.4C554.09 1223.21 556.45 1233.87 559.49 1246.09C562.54 1258.31 565 1268.87 564.96 1269.56C564.93 1270.24 561.53 1273.73 557.41 1277.3L549.92 1283.79C572.08 1306.05 577.84 1312.3 577.01 1312.02C576.19 1311.75 569.56 1309.56 562.28 1307.15L549.04 1302.76C549.06 1289.22 548.72 1285.28 548.31 1285.27C547.9 1285.26 545.67 1287.17 543.36 1289.52L539.15 1293.77C529.17 1373.49 526.45 1396.86 526.68 1397.14C526.9 1397.41 532.05 1395.39 538.11 1392.64L549.14 1387.65C549.06 1356.4 549.19 1355.24 550.81 1355.78C551.77 1356.1 557.4 1358.23 563.31 1360.52C570.27 1363.21 574.38 1364.33 574.93 1363.68C575.4 1363.13 576.06 1359.99 576.39 1356.69C576.71 1353.4 577.93 1342.39 579.08 1332.22C580.24 1322.06 581.42 1313.07 581.71 1312.25C582 1311.43 585.05 1319.07 588.48 1329.23C592.91 1342.31 595.13 1347.61 596.1 1347.37C596.86 1347.19 599.95 1345.52 602.97 1343.66C605.99 1341.8 608.8 1340.26 609.21 1340.25C609.62 1340.23 610.1 1342.57 610.27 1345.46C610.44 1348.34 610.67 1345.08 610.77 1338.22L610.96 1325.73C619.08 1319.3 625.7 1313.96 630.92 1309.72C636.14 1305.47 641.94 1300.59 643.82 1298.88L647.24 1295.77C644.82 1281.84 644.3 1277.57 644.51 1277.3C644.72 1277.02 652.42 1280.29 661.62 1284.55C670.81 1288.81 678.68 1292.3 679.09 1292.29C679.5 1292.28 679.95 1282.91 680.09 1271.47L680.34 1250.66C721.03 1268.12 725.26 1270.3 725.26 1271.87C725.26 1272.93 724.58 1281.78 723.76 1291.54C722.94 1301.29 722.26 1309.28 722.26 1309.28C722.26 1309.29 717.55 1307.25 711.78 1304.76C706.02 1302.26 701.01 1300.34 700.65 1300.49C700.29 1300.64 701.96 1306.83 704.36 1314.25C706.76 1321.66 708.51 1327.95 708.24 1328.23C707.97 1328.5 700.01 1326.55 690.55 1323.9L673.35 1319.07L653.82 1338.72C678.24 1346.15 685.55 1348.54 685.83 1348.82C686.1 1349.11 685.65 1354.92 684.83 1361.75C683.87 1369.68 683.69 1374.15 684.33 1374.13C684.88 1374.12 693.08 1369.18 702.55 1363.15C718.02 1353.31 719.77 1351.92 719.77 1349.45C719.76 1347.94 722.5 1327.38 725.83 1303.76C729.17 1280.14 731.53 1260.52 731.08 1260.15C730.62 1259.79 717.45 1254.49 701.8 1248.39L673.35 1237.29C669.62 1241.59 663.78 1248.18 657.97 1254.69C649.16 1264.56 647.27 1266.23 646.67 1264.68C646.27 1263.65 643.41 1253.83 640.33 1242.84C637.24 1231.86 634.16 1222.42 633.48 1221.87C632.8 1221.32 626.22 1220.28 618.85 1219.56C611.49 1218.84 604.68 1218.06 603.72 1217.82C602.12 1217.41 601.97 1218.48 601.99 1230.11C602 1238.05 601.65 1242.47 601.07 1241.84C600.56 1241.29 596.8 1232.08 592.72 1221.37L585.31 1201.9C566.28 1201.43 565.03 1201.18 565.03 1199.65C565.03 1198.69 563.66 1186.44 562 1172.44C560.33 1158.43 558.86 1146.9 558.71 1146.8C558.57 1146.71 554.21 1155.83 549.02 1167.06ZM393.51 1161.45C392.79 1168.32 391.99 1175.06 391.73 1176.43C391.47 1177.8 393.97 1173.65 397.28 1167.19C400.6 1160.74 403.2 1155.22 403.06 1154.93C402.92 1154.64 401.24 1156.77 399.32 1159.66L395.82 1164.93L394.82 1148.97L393.51 1161.45ZM390.04 1193.31L389.33 1201.4C362.64 1220.23 353.1 1227 350.9 1228.6C348.7 1230.2 340.95 1235.74 333.68 1240.92L320.45 1250.33C320.72 1304.52 320.86 1306.95 321.52 1296.27C321.95 1289.41 322.54 1280.42 322.83 1276.3C323.12 1272.18 323.38 1267.57 323.4 1266.06C323.44 1263.76 325.44 1261.73 335.68 1253.58C342.4 1248.23 349.81 1242.39 352.15 1240.6L356.39 1237.35C363.35 1246.64 365.77 1249.22 366.26 1249.08C366.75 1248.95 373.57 1241.64 381.42 1232.86C389.27 1224.07 397.34 1215.08 399.34 1212.88C401.35 1210.69 407.11 1204.28 412.13 1198.65C417.16 1193.02 420.94 1188.38 420.53 1188.34C420.12 1188.3 418.88 1188.11 417.78 1187.93C416.69 1187.74 412.87 1187.32 409.3 1186.99C405.73 1186.67 400.1 1186.14 396.78 1185.82L390.75 1185.23L390.04 1193.31ZM322.1 1208.64C321.34 1210.42 319.52 1214.81 318.05 1218.38C316.58 1221.95 315.62 1224.98 315.92 1225.12C316.21 1225.25 320.73 1222.33 325.95 1218.63C331.18 1214.92 335.45 1211.66 335.45 1211.38C335.45 1211.11 332.98 1209.65 329.95 1208.14C326.92 1206.63 324.22 1205.39 323.96 1205.39C323.69 1205.39 322.85 1206.85 322.1 1208.64ZM511.1 1214.63C511.11 1215.59 512.66 1222.78 514.54 1230.61C516.42 1238.44 518.33 1246.58 518.79 1248.71C519.24 1250.84 519.83 1252.71 520.11 1252.87C520.38 1253.03 524.09 1251.85 528.35 1250.25L536.08 1247.34C528.08 1236.11 522.46 1228.36 518.42 1222.87C514.38 1217.38 511.09 1213.67 511.1 1214.63Z" />
		<path id="Path 44" class="shp0" d="M554.18 1220.23C554.39 1220.7 561.06 1234.67 569.03 1251.29C576.99 1267.9 583.63 1281.11 583.79 1280.64C583.95 1280.18 580.64 1267.66 576.44 1252.83C572.24 1238 568.52 1225.52 568.17 1225.1C567.82 1224.68 564.83 1223.22 561.54 1221.86C558.24 1220.5 555.16 1219.38 554.68 1219.38C554.21 1219.38 553.98 1219.76 554.18 1220.23Z" />
		<path id="Path 45" class="shp2" d="M177.53 1232.11C178.34 1236.36 179.16 1240.07 179.35 1240.35C179.54 1240.62 187.58 1237.92 197.22 1234.35C206.86 1230.78 214.38 1227.76 213.94 1227.64C213.5 1227.52 205.16 1226.74 195.42 1225.9C185.67 1225.06 177.33 1224.37 176.88 1224.37C176.43 1224.37 176.72 1227.85 177.53 1232.11Z" />
		<path id="Path 46" class="shp0" d="M591.39 1254.73C591.18 1256.98 590.49 1265.79 589.86 1274.3C589.23 1282.81 588.7 1290.23 588.69 1290.78C588.68 1291.33 588.74 1295.6 588.83 1300.27L588.98 1308.75C603.55 1294.44 608.05 1290.28 608.37 1290.28C608.69 1290.28 612.33 1294.55 616.44 1299.77L623.93 1309.25C626.74 1305.77 630.33 1300.83 633.73 1296.02C637.12 1291.22 639.89 1286.72 639.87 1286.04C639.85 1285.35 636.71 1279.17 632.89 1272.3C629.06 1265.44 625.59 1259.24 625.18 1258.52C624.76 1257.8 617.27 1255.78 608.09 1253.93L591.76 1250.63L591.39 1254.73ZM549.05 1293.53L549.04 1302.76C569.56 1309.56 576.19 1311.75 577.01 1312.02C577.84 1312.3 572.22 1306.16 564.53 1298.4C556.85 1290.63 550.22 1284.28 549.81 1284.28C549.4 1284.29 549.06 1288.44 549.05 1293.53Z" />
		<path id="Path 47" class="shp1" d="M619.38 1424.4C617.22 1426.22 607.42 1433.97 597.6 1441.63C585.04 1451.43 580.31 1455.66 581.63 1455.89C582.66 1456.07 591.59 1455.05 601.47 1453.61C611.35 1452.18 620.67 1450.79 622.18 1450.53L624.93 1450.07C624.93 1427.62 624.57 1421.11 624.13 1421.11C623.68 1421.11 621.55 1422.59 619.38 1424.4Z" />
	</g>
</svg>